%TF.GenerationSoftware,Novarm,DipTrace,3.0.0.2*%
%TF.CreationDate,2017-03-05T12:28:50+02:00*%
%FSLAX26Y26*%
%MOIN*%
%TF.FileFunction,Copper,L2,Bot*%
%TF.Part,Single*%
%TA.AperFunction,Conductor*%
%ADD14C,0.015*%
%ADD16C,0.03*%
%ADD18C,0.085*%
%ADD20C,0.025591*%
%TA.AperFunction,CopperBalancing*%
%ADD21C,0.025*%
%TA.AperFunction,Nonconductor*%
%ADD23C,0.01*%
%TA.AperFunction,ComponentPad*%
%ADD35R,0.06378X0.06378*%
%ADD36C,0.06378*%
%ADD37R,0.098425X0.098425*%
%ADD38C,0.098425*%
%ADD39C,0.076772*%
%ADD40R,0.076772X0.076772*%
%TA.AperFunction,ViaPad*%
%ADD50C,0.04*%
%TA.AperFunction,Nonconductor*%
%ADD98C,0.015*%
G75*
G01*
%LPD*%
X2681500Y2899394D2*
D14*
X2886165D1*
X2918390Y2867169D1*
Y2781500D1*
X2943390Y2756500D1*
X2999295D1*
X3024295Y2781500D1*
Y3436067D1*
X2992642Y3467720D1*
Y3585319D1*
X3017642Y3610319D1*
X3189492D1*
X3256205Y3543606D1*
X2918390Y2867169D2*
X2943390Y2892169D1*
Y3090338D1*
X2764728Y3269000D1*
X2771228Y3206500D2*
X2837764Y3139964D1*
Y3018390D1*
X2465890Y3299394D2*
X2394000Y3227504D1*
Y2969000D1*
X3880654Y2394000D2*
D16*
X3442386D1*
X3392386Y2444000D1*
Y2819000D1*
X3342386Y2869000D1*
X3220618D1*
X4231500Y2069000D2*
X4083114D1*
X4058114Y2094000D1*
Y2354040D1*
X4018154Y2394000D1*
X1919000Y1708606D2*
X3031500D1*
X3081500Y1758606D1*
Y2081500D1*
X1919000Y1968594D2*
X2215660D1*
X2315657Y2068591D1*
X2444000D1*
X2494000Y2118591D1*
Y2369000D1*
X1968803Y3543606D2*
Y3440299D1*
X1794000Y3265496D1*
X857508Y1803323D2*
Y2105594D1*
X907508Y2155594D1*
X1106500D1*
X1156500Y2205594D1*
Y2816894D1*
X3656500Y2081500D2*
Y1948114D1*
X3962228D1*
X4083114Y2069000D1*
X3081500Y2081500D2*
X3164886Y1998114D1*
X3486366D1*
X3569752Y2081500D1*
X3656500D1*
X2165654Y3543606D2*
D14*
X2070516Y3448469D1*
Y3172764D1*
X1943390Y3045638D1*
Y2468390D1*
X1968390Y2443390D1*
X2069000D1*
X2094000Y2418390D1*
Y2369000D1*
X2665654Y3543606D2*
X2284472D1*
X2259472Y3518606D1*
Y3068390D1*
X2234472Y3043390D1*
X2068390D1*
X2043390Y3018390D1*
Y2493390D1*
X2068390Y2468390D1*
X2169000D1*
X2194000Y2443390D1*
Y2369000D1*
X2862504Y3543606D2*
X2758069Y3439171D1*
X2309472D1*
X2284472Y3414171D1*
Y3043390D1*
X2259472Y3018390D1*
X2168390D1*
X2143390Y2993390D1*
Y2887327D1*
X2101972Y2845909D1*
Y2518390D1*
X2126972Y2493390D1*
X2269000D1*
X2294000Y2468390D1*
Y2369000D1*
X3059354Y3543606D2*
Y2650618D1*
X3034354Y2625618D1*
X2650618D1*
X2394000Y2369000D1*
X1494000Y2969000D2*
Y3374394D1*
X1519000Y3399394D1*
X1627740D1*
X1771953Y3543606D1*
X1794000Y2618803D2*
Y2969000D1*
X2343390Y2488409D2*
Y2344610D1*
X2318390Y2319610D1*
X2068390D1*
X2043390Y2344610D1*
Y2393390D1*
X2018390Y2418390D1*
X1719000D1*
X1694000Y2443390D1*
Y2969000D1*
X1434472Y2544197D2*
Y2726543D1*
X1594000Y2886071D1*
Y2969000D1*
X1094000Y2258508D2*
D16*
Y2348488D1*
X1069000Y2373488D1*
X613134D1*
X1270614Y3627819D2*
X1094000D1*
Y2398488D1*
X1069000Y2373488D1*
X2211972Y3360496D2*
Y3156697D1*
X2781500Y2081500D2*
D14*
X2843390Y2143390D1*
Y2403390D1*
X2818390Y2428390D1*
X2750224D1*
X2634614Y2544000D1*
X1236894Y2974020D2*
X1291028Y2919886D1*
Y2513606D1*
X1316028Y2488606D1*
X1644000D1*
X2735870Y3169000D2*
Y3043390D1*
X2710870Y3018390D1*
X2668390D1*
X2643390Y2993390D1*
Y2769000D1*
X2503528D1*
X2943390Y1953114D2*
Y2325236D1*
X2328528Y2618803D2*
X2269004Y2678327D1*
Y2754591D1*
X2244004Y2779591D1*
X2191028D1*
X2700870Y3219000D2*
X2660870Y3179000D1*
Y3059890D1*
X3322917D2*
Y3610319D1*
X3297917Y3635319D1*
X1863665D1*
X1838665Y3610319D1*
Y3399394D1*
X1813662Y3374391D1*
X1568390D1*
X1543390Y3349391D1*
Y2898992D1*
X2986795Y2819000D2*
Y3374394D1*
X2929217Y3431972D1*
Y3585319D1*
X2904217Y3610319D1*
X2070516D1*
X2045516Y3585319D1*
Y3394059D1*
X1643390Y2991933D1*
Y2890221D1*
X1634472Y2881303D1*
Y2843803D1*
Y2679000D1*
X1574472Y2619000D1*
X1467996Y2113980D2*
X1291028Y2290948D1*
Y2443390D1*
X1253528Y1963587D2*
Y2544598D1*
X2744000Y1944752D2*
X2592996D1*
X2555496Y1909394D2*
X2491028Y1844926D1*
Y1769000D1*
X607780Y2744197D2*
D16*
X938528D1*
Y3265496D1*
X2153528Y2544000D2*
D14*
X2126972Y2570556D1*
Y2795909D1*
X2151972Y2820909D1*
X2318390D1*
X2343390Y2845909D1*
Y3311894D1*
X2368390Y3336894D1*
X2618393D1*
X2948469D1*
X3435142Y2081500D2*
X3356500D1*
X3172386D1*
X3147386Y2106500D1*
Y2428390D1*
X3122386Y2453390D1*
X2855894D1*
X2818394Y2490890D1*
X2821972Y2544000D2*
X2878590Y2600618D1*
X3153118D1*
X3178118Y2625618D1*
Y2712386D1*
X3203118Y2737386D1*
X3274886D1*
X3299886Y2712386D1*
Y2315496D1*
X3324886Y2290496D1*
X3931500D1*
Y2069000D1*
X3244000Y2656500D2*
Y2569000D1*
X3219000Y2544000D1*
X2971972D1*
X3096854Y2661894D2*
Y2805890D1*
X3624748Y2172508D2*
X3274886D1*
X3249886Y2197508D1*
Y2465890D1*
X3224886Y2490890D1*
X2971972D1*
X2003528Y2494004D2*
X1994000Y2503532D1*
Y2969000D1*
X2665654Y661717D2*
D18*
Y788430D1*
X2781500Y904276D1*
Y1211421D1*
X2862504Y661717D2*
X2901500Y700713D1*
Y1157406D1*
X3081500Y1337406D1*
X3059354Y661717D2*
Y788429D1*
X3081500Y810575D1*
Y1085437D1*
X3256205Y661717D2*
Y788429D1*
X3356500Y888724D1*
Y1211421D1*
X3453055Y661717D2*
X3476500Y685161D1*
Y1157406D1*
X3656500Y1337406D1*
X3649906Y661717D2*
X3656500Y668311D1*
Y1085437D1*
X3846756Y661717D2*
Y788429D1*
X3931500Y873173D1*
Y1198921D1*
X4043606Y661717D2*
X4051500Y669610D1*
Y1144906D1*
X4231500Y1324906D1*
X4240457Y661717D2*
Y788429D1*
X4231500Y797386D1*
Y1072937D1*
X3846756Y3543606D2*
Y2814890D1*
X3966756Y2694890D1*
X4114079D1*
Y2656500D1*
X4043606Y3543606D2*
Y3127898D1*
X3988094Y3072386D1*
Y2956500D1*
X4240457Y3543606D2*
Y3177091D1*
X4240063Y3176697D1*
Y2956500D1*
X1281500Y3543606D2*
D14*
X1378252D1*
X1206697Y3417169D2*
X1181402Y3442464D1*
Y3543606D1*
X1794000Y2369000D2*
Y2242996D1*
X1830496Y2206500D1*
X1894000Y2369000D2*
Y2201953D1*
X1569000Y1876953D1*
X2019000Y2023594D2*
X2014000D1*
X1994000Y2043594D1*
Y2098591D1*
X2019000Y2123591D1*
X2370654D1*
X1994000Y2369000D2*
Y2148591D1*
X2019000Y2123591D1*
X943843Y2100594D2*
D16*
X912504Y2069255D1*
Y1998587D1*
X947504Y1963587D1*
X1022504D1*
X1575102Y3543606D2*
Y3662819D1*
X1550102Y3687819D1*
X1034551D1*
X984551Y3637819D1*
Y3543606D1*
X1575102Y3662819D2*
X1600103Y3687819D1*
X3403055D1*
X3453055Y3637819D1*
Y3543606D1*
X2494000Y3040890D2*
Y2969000D1*
X2201028Y2719591D2*
X2174472Y2693035D1*
Y2619000D1*
X2361972Y1844000D2*
X2365657Y1847685D1*
Y1949752D1*
X2415657Y1999752D1*
X2644000D1*
X2694000Y2049752D1*
Y2369000D1*
X1749472Y1769197D2*
X2287169D1*
X2361972Y1844000D1*
X1022504Y1963587D2*
X1216894Y1769197D1*
X1749472D1*
X984551Y3543606D2*
Y3324985D1*
X993528Y3316008D1*
Y3110890D1*
X3577268Y3122504D2*
Y2932890D1*
X3524492Y2880114D1*
Y2504669D1*
X3453055Y3543606D2*
Y3246717D1*
X3577268Y3122504D1*
X2351028Y2769000D2*
D20*
X2448430Y2671598D1*
X2666126D1*
X2813528Y2819000D1*
X2494000Y2969000D2*
D16*
Y2857445D1*
X2427114Y2790559D1*
Y2769000D1*
X2351028D1*
D50*
X2681500Y2899394D3*
X2764728Y3269000D3*
X2837764Y3018390D3*
X2771228Y3206500D3*
X2465890Y3299394D3*
X3220618Y2869000D3*
X4018154Y2394000D3*
X1919000Y1968594D3*
X1794000Y3265496D3*
X1156500Y2816894D3*
X857508Y1803323D3*
X3880654Y2394000D3*
X1919000Y1708606D3*
X1794000Y2618803D3*
X2343390Y2488409D3*
X1434472Y2544197D3*
X613134Y2373488D3*
X1094000Y2258508D3*
X2211972Y3156697D3*
X1270614Y3627819D3*
X2211972Y3360496D3*
X2634614Y2544000D3*
X1644000Y2488606D3*
X1236894Y2974020D3*
X2503528Y2769000D3*
X2735870Y3169000D3*
X2643390Y2769000D3*
X2943390Y2325236D3*
Y1953114D3*
X2191028Y2779591D3*
X2328528Y2618803D3*
X2660870Y3059890D3*
X2700870Y3219000D3*
X1543390Y2898992D3*
X3322917Y3059890D3*
X1574472Y2619000D3*
X2986795Y2819000D3*
X1634472Y2843803D3*
X1291028Y2443390D3*
X1467996Y2113980D3*
X1253528Y2544598D3*
Y1963587D3*
X2592996Y1944752D3*
X2744000D3*
X2491028Y1769000D3*
X2555496Y1909394D3*
X938528Y3265496D3*
Y2744197D3*
X607780D3*
X2153528Y2544000D3*
X2948469Y3336894D3*
X2818394Y2490890D3*
X3435142Y2081500D3*
X2821972Y2544000D3*
X3931500Y2290496D3*
X2971972Y2544000D3*
X3096854Y2805890D3*
Y2661894D3*
X2971972Y2490890D3*
X3624748Y2172508D3*
X2003528Y2494004D3*
X1281500Y3543606D3*
X1206697Y3417169D3*
X1830496Y2206500D3*
X1569000Y1876953D3*
X2370654Y2123591D3*
X2019000Y2023594D3*
X993528Y3110890D3*
X2813528Y2819000D3*
X1022504Y1963587D3*
X943843Y2100594D3*
X3577268Y3122504D3*
X2494000Y3040890D3*
X1749472Y1769197D3*
X3524492Y2504669D3*
X2174472Y2619000D3*
X2201028Y2719591D3*
X2361972Y1844000D3*
X2351028Y2769000D3*
X495841Y3706631D2*
D21*
X3729024D1*
X495401Y3681762D2*
X3729024D1*
X494913Y3656894D2*
X1061886D1*
X1309415D2*
X1834688D1*
X3326896D2*
X3729024D1*
X494474Y3632025D2*
X1050216D1*
X1319425D2*
X1810030D1*
X3351554D2*
X3729024D1*
X494034Y3607156D2*
X512618D1*
X669083D2*
X744063D1*
X831339D2*
X1050021D1*
X1314786D2*
X1334591D1*
X1421915D2*
X1693722D1*
X3359415D2*
X3606271D1*
X3693546D2*
X3729024D1*
X493595Y3582287D2*
X512618D1*
X669083D2*
X720138D1*
X855265D2*
X1050021D1*
X1445841D2*
X1693722D1*
X3359415D2*
X3582296D1*
X493155Y3557419D2*
X512618D1*
X669083D2*
X710763D1*
X864640D2*
X1050021D1*
X1455216D2*
X1693722D1*
X3136319D2*
X3177999D1*
X3359415D2*
X3572970D1*
X492716Y3532550D2*
X512618D1*
X669083D2*
X710323D1*
X865079D2*
X1050021D1*
X1455655D2*
X1693722D1*
X3136759D2*
X3177999D1*
X3359415D2*
X3572481D1*
X492276Y3507681D2*
X512618D1*
X669083D2*
X718575D1*
X856827D2*
X1050021D1*
X1447403D2*
X1685470D1*
X3128507D2*
X3177999D1*
X3359415D2*
X3580782D1*
X491788Y3482812D2*
X512618D1*
X669083D2*
X740060D1*
X835343D2*
X1050021D1*
X1259610D2*
X1330636D1*
X1425870D2*
X1660616D1*
X3106974D2*
X3177999D1*
X3359415D2*
X3602267D1*
X3697550D2*
X3729024D1*
X491349Y3457944D2*
X1050021D1*
X1231534D2*
X1635714D1*
X3095841D2*
X3286446D1*
X3359415D2*
X3729024D1*
X490909Y3433075D2*
X1050021D1*
X1252872D2*
X1511935D1*
X3095841D2*
X3286446D1*
X3359415D2*
X3729024D1*
X490470Y3408206D2*
X1050021D1*
X1137979D2*
X1158565D1*
X1254825D2*
X1477267D1*
X3095841D2*
X3286446D1*
X3359415D2*
X3729024D1*
X490030Y3383337D2*
X1050021D1*
X1137979D2*
X1172286D1*
X1241104D2*
X1458712D1*
X3095841D2*
X3286446D1*
X3359415D2*
X3729024D1*
X489591Y3358469D2*
X1050021D1*
X1137979D2*
X1457491D1*
X3095841D2*
X3286446D1*
X3359415D2*
X3729024D1*
X489151Y3333600D2*
X1050021D1*
X1137979D2*
X1457491D1*
X3095841D2*
X3286446D1*
X3359415D2*
X3729024D1*
X488663Y3308731D2*
X918917D1*
X958146D2*
X1050021D1*
X1137979D2*
X1457491D1*
X2010733D2*
X2034005D1*
X3095841D2*
X3286446D1*
X3359415D2*
X3729024D1*
X488224Y3283862D2*
X893331D1*
X983731D2*
X1050021D1*
X1137979D2*
X1457491D1*
X1985880D2*
X2034005D1*
X2512198D2*
X2718185D1*
X3095841D2*
X3286446D1*
X3359415D2*
X3729024D1*
X487784Y3258993D2*
X889962D1*
X987052D2*
X1050021D1*
X1137979D2*
X1457491D1*
X1961026D2*
X2034005D1*
X2491397D2*
X2674630D1*
X3095841D2*
X3286446D1*
X3359415D2*
X3729024D1*
X487345Y3234125D2*
X894552D1*
X982511D2*
X1050021D1*
X1137979D2*
X1457491D1*
X1936124D2*
X2034005D1*
X2451163D2*
X2654415D1*
X3095841D2*
X3286446D1*
X3359415D2*
X3729024D1*
X486905Y3209256D2*
X894552D1*
X982511D2*
X1050021D1*
X1137979D2*
X1457491D1*
X1911271D2*
X2034005D1*
X2430509D2*
X2640548D1*
X3095841D2*
X3286446D1*
X3359415D2*
X3729024D1*
X486466Y3184387D2*
X894552D1*
X982511D2*
X1050021D1*
X1137979D2*
X1457491D1*
X1886417D2*
X2031563D1*
X2430509D2*
X2624825D1*
X3095841D2*
X3286446D1*
X3359415D2*
X3729024D1*
X486026Y3159518D2*
X894552D1*
X982511D2*
X1050021D1*
X1137979D2*
X1457491D1*
X1861563D2*
X2006710D1*
X2430509D2*
X2624386D1*
X3095841D2*
X3286446D1*
X3359415D2*
X3729024D1*
X485538Y3134650D2*
X894552D1*
X982511D2*
X1050021D1*
X1137979D2*
X1457491D1*
X1836661D2*
X1981856D1*
X2430509D2*
X2624386D1*
X3095841D2*
X3286446D1*
X3359415D2*
X3729024D1*
X485099Y3109781D2*
X894552D1*
X982511D2*
X1050021D1*
X1137979D2*
X1457491D1*
X1811808D2*
X1956954D1*
X2430509D2*
X2624386D1*
X3095841D2*
X3286446D1*
X3359415D2*
X3729024D1*
X484659Y3084912D2*
X894552D1*
X982511D2*
X1050021D1*
X1137979D2*
X1457491D1*
X1786954D2*
X1932101D1*
X2430509D2*
X2619161D1*
X3095841D2*
X3281222D1*
X3364591D2*
X3729024D1*
X484220Y3060043D2*
X894552D1*
X982511D2*
X1050021D1*
X1137979D2*
X1457491D1*
X1762052D2*
X1910128D1*
X2430509D2*
X2611886D1*
X3095841D2*
X3273897D1*
X3371915D2*
X3729024D1*
X483780Y3035175D2*
X894552D1*
X982511D2*
X1050021D1*
X1137979D2*
X1457491D1*
X1737198D2*
X1906905D1*
X2430509D2*
X2618966D1*
X3095841D2*
X3281026D1*
X3364786D2*
X3729024D1*
X483341Y3010306D2*
X894552D1*
X982511D2*
X1050021D1*
X1137979D2*
X1205294D1*
X1268497D2*
X1333126D1*
X2437784D2*
X2550216D1*
X3095841D2*
X3205245D1*
X3282755D2*
X3729024D1*
X482853Y2985437D2*
X894552D1*
X982511D2*
X1050021D1*
X1137979D2*
X1189327D1*
X1284464D2*
X1333126D1*
X2452530D2*
X2535470D1*
X3095841D2*
X3183419D1*
X3304581D2*
X3729024D1*
X482413Y2960568D2*
X894552D1*
X982511D2*
X1050021D1*
X1137979D2*
X1189864D1*
X1300919D2*
X1333126D1*
X2454288D2*
X2533712D1*
X3095841D2*
X3176729D1*
X3311271D2*
X3729024D1*
X481974Y2935699D2*
X894552D1*
X982511D2*
X1050021D1*
X1137979D2*
X1208077D1*
X2444474D2*
X2543526D1*
X3095841D2*
X3180050D1*
X3307950D2*
X3729024D1*
X481534Y2910831D2*
X894552D1*
X982511D2*
X1050021D1*
X1137979D2*
X1249532D1*
X1454874D2*
X1486446D1*
X1730509D2*
X1757491D1*
X1830509D2*
X1886446D1*
X2401541D2*
X2586446D1*
X3095841D2*
X3195431D1*
X3292569D2*
X3729024D1*
X481095Y2885962D2*
X894552D1*
X982511D2*
X1050021D1*
X1137979D2*
X1254562D1*
X1327530D2*
X1496261D1*
X1730509D2*
X1757491D1*
X1830509D2*
X1906905D1*
X2379874D2*
X2606905D1*
X3095841D2*
X3174825D1*
X3386612D2*
X3729024D1*
X480655Y2861093D2*
X894552D1*
X982511D2*
X1050021D1*
X1173429D2*
X1254562D1*
X1327530D2*
X1513937D1*
X1730509D2*
X1757491D1*
X1830509D2*
X1906905D1*
X2379874D2*
X2606905D1*
X2710392D2*
X2873897D1*
X3095841D2*
X3172286D1*
X3411466D2*
X3729024D1*
X480216Y2836224D2*
X894552D1*
X982511D2*
X1050021D1*
X1201310D2*
X1254562D1*
X1327530D2*
X1493575D1*
X1730509D2*
X1757491D1*
X1830509D2*
X1906905D1*
X2378458D2*
X2606905D1*
X2679874D2*
X2881905D1*
X3134610D2*
X3185128D1*
X3432608D2*
X3729024D1*
X479728Y2811356D2*
X894552D1*
X982511D2*
X1050021D1*
X1205167D2*
X1254562D1*
X1327530D2*
X1468722D1*
X1569864D2*
X1597970D1*
X1730509D2*
X1757491D1*
X1830509D2*
X1906905D1*
X2359415D2*
X2481856D1*
X2525235D2*
X2606905D1*
X2679874D2*
X2881905D1*
X3145548D2*
X3338839D1*
X3436368D2*
X3729024D1*
X479288Y2786487D2*
X585958D1*
X629630D2*
X894552D1*
X982511D2*
X1050021D1*
X1200479D2*
X1254562D1*
X1327530D2*
X1443868D1*
X1544962D2*
X1597970D1*
X1730509D2*
X1757491D1*
X1830509D2*
X1906905D1*
X2287687D2*
X2457931D1*
X2688956D2*
X2881905D1*
X3141593D2*
X3348409D1*
X3436368D2*
X3729024D1*
X478849Y2761618D2*
X562179D1*
X984122D2*
X1050021D1*
X1200479D2*
X1254562D1*
X1327530D2*
X1418966D1*
X1520108D2*
X1597970D1*
X1730509D2*
X1757491D1*
X1830509D2*
X1906905D1*
X2304776D2*
X2455099D1*
X2691788D2*
X2888302D1*
X3133341D2*
X3176778D1*
X3301212D2*
X3348409D1*
X3436368D2*
X3729024D1*
X478409Y2736749D2*
X559396D1*
X986905D2*
X1050021D1*
X1200479D2*
X1254562D1*
X1327530D2*
X1399532D1*
X1495255D2*
X1597970D1*
X1730509D2*
X1757491D1*
X1830509D2*
X1906905D1*
X2211612D2*
X2232540D1*
X2305509D2*
X2467550D1*
X2679386D2*
X2912569D1*
X3133341D2*
X3151925D1*
X3326065D2*
X3348409D1*
X3436368D2*
X3729024D1*
X477970Y2711881D2*
X571847D1*
X974454D2*
X1050021D1*
X1200479D2*
X1254562D1*
X1327530D2*
X1397970D1*
X1470938D2*
X1597970D1*
X1730509D2*
X1757491D1*
X1830509D2*
X1906905D1*
X2163468D2*
X2232540D1*
X2305509D2*
X3022872D1*
X3436368D2*
X3729024D1*
X477530Y2687012D2*
X1050021D1*
X1200479D2*
X1254562D1*
X1327530D2*
X1397970D1*
X1470938D2*
X1591915D1*
X1730509D2*
X1757491D1*
X1830509D2*
X1906905D1*
X2163468D2*
X2232540D1*
X2310880D2*
X3022872D1*
X3436368D2*
X3729024D1*
X477091Y2662143D2*
X1050021D1*
X1200479D2*
X1254562D1*
X1327530D2*
X1397970D1*
X1470938D2*
X1554610D1*
X1730509D2*
X1757491D1*
X1830509D2*
X1906905D1*
X2163468D2*
X2236642D1*
X2347892D2*
X3020333D1*
X3436368D2*
X3729024D1*
X476603Y2637274D2*
X1050021D1*
X1200479D2*
X1254562D1*
X1327530D2*
X1397970D1*
X1470938D2*
X1529220D1*
X1643302D2*
X1657491D1*
X1730509D2*
X1748849D1*
X1839151D2*
X1906905D1*
X2163468D2*
X2259493D1*
X2373722D2*
X2611690D1*
X3436368D2*
X3729024D1*
X476163Y2612406D2*
X1050021D1*
X1200479D2*
X1254562D1*
X1327530D2*
X1397970D1*
X1470938D2*
X1525948D1*
X1622989D2*
X1657491D1*
X1730509D2*
X1745431D1*
X1842569D2*
X1906905D1*
X2163468D2*
X2279952D1*
X2377091D2*
X2586837D1*
X3436368D2*
X3729024D1*
X475724Y2587537D2*
X1050021D1*
X1200479D2*
X1233175D1*
X1327530D2*
X1397970D1*
X1470938D2*
X1537716D1*
X1611222D2*
X1657491D1*
X1730509D2*
X1757101D1*
X1830899D2*
X1906905D1*
X2172354D2*
X2291622D1*
X2365470D2*
X2561983D1*
X3436368D2*
X3729024D1*
X475284Y2562668D2*
X1050021D1*
X1327530D2*
X1389278D1*
X1479630D2*
X1657491D1*
X1730509D2*
X1906905D1*
X2198624D2*
X2537081D1*
X3436368D2*
X3729024D1*
X4067374D2*
X4378731D1*
X474845Y2537799D2*
X1050021D1*
X1327530D2*
X1385909D1*
X1483048D2*
X1657491D1*
X1730509D2*
X1906905D1*
X2202091D2*
X2512228D1*
X3436368D2*
X4378390D1*
X474405Y2512930D2*
X1050021D1*
X1200479D2*
X1216964D1*
X1730509D2*
X1906905D1*
X2385392D2*
X2487374D1*
X3436368D2*
X4378048D1*
X473917Y2488062D2*
X1050021D1*
X1200479D2*
X1217062D1*
X1730509D2*
X1906905D1*
X2392374D2*
X2462521D1*
X2563614D2*
X2640011D1*
X3436368D2*
X4377755D1*
X473478Y2463193D2*
X1050021D1*
X1200479D2*
X1217062D1*
X1730509D2*
X1907296D1*
X2384952D2*
X2437618D1*
X2538761D2*
X2664864D1*
X3436368D2*
X4377413D1*
X473038Y2438324D2*
X1050021D1*
X1200479D2*
X1217062D1*
X1339737D2*
X1657882D1*
X2379874D2*
X2412765D1*
X2513907D2*
X2689718D1*
X3459220D2*
X3864083D1*
X3897208D2*
X4001583D1*
X4034708D2*
X4377071D1*
X472599Y2413455D2*
X586886D1*
X1200479D2*
X1217062D1*
X1534366D2*
X1553663D1*
X1634366D2*
X1653663D1*
X2534366D2*
X2553663D1*
X2634366D2*
X2714571D1*
X2934366D2*
X3110909D1*
X3336368D2*
X3361739D1*
X3925382D2*
X3973409D1*
X4062882D2*
X4376729D1*
X472159Y2388587D2*
X566671D1*
X1200479D2*
X1217062D1*
X2651505D2*
X2736495D1*
X2951505D2*
X3110909D1*
X3336368D2*
X3386642D1*
X3929337D2*
X3969454D1*
X4084757D2*
X4376388D1*
X471720Y2363718D2*
X565157D1*
X1200479D2*
X1217062D1*
X2654630D2*
X2733370D1*
X2972013D2*
X3110909D1*
X3336368D2*
X3411544D1*
X3918448D2*
X3980343D1*
X4100968D2*
X4376046D1*
X471280Y2338849D2*
X579610D1*
X1200479D2*
X1217062D1*
X2646524D2*
X2741476D1*
X2990372D2*
X3110909D1*
X3336368D2*
X4012130D1*
X4102091D2*
X4375704D1*
X470792Y2313980D2*
X1050021D1*
X1200479D2*
X1217062D1*
X1454874D2*
X1471944D1*
X1516056D2*
X1571944D1*
X1616056D2*
X1671944D1*
X1716056D2*
X1757491D1*
X1930509D2*
X1957491D1*
X2537979D2*
X2571944D1*
X2616056D2*
X2771944D1*
X2991007D2*
X3110909D1*
X3974112D2*
X4014132D1*
X4102091D2*
X4375362D1*
X470353Y2289112D2*
X1050021D1*
X1200479D2*
X1217062D1*
X1343448D2*
X1757491D1*
X1930509D2*
X1957491D1*
X2537979D2*
X2806905D1*
X2879874D2*
X2906905D1*
X2979874D2*
X3110909D1*
X3980460D2*
X4014132D1*
X4102091D2*
X4375069D1*
X469913Y2264243D2*
X1045333D1*
X1200479D2*
X1217062D1*
X1368302D2*
X1757491D1*
X1930509D2*
X1957491D1*
X2537979D2*
X2806905D1*
X2879874D2*
X2906905D1*
X2979874D2*
X3110909D1*
X3972403D2*
X4014132D1*
X4102091D2*
X4374728D1*
X469474Y2239374D2*
X1049142D1*
X1200479D2*
X1217062D1*
X1393155D2*
X1757687D1*
X1930509D2*
X1957491D1*
X2537979D2*
X2806905D1*
X2879874D2*
X2906905D1*
X2979874D2*
X3110909D1*
X3968009D2*
X4014132D1*
X4102091D2*
X4374386D1*
X469034Y2214505D2*
X1076485D1*
X1200479D2*
X1217062D1*
X1290030D2*
X1316915D1*
X1418058D2*
X1771944D1*
X1930509D2*
X1957491D1*
X2537979D2*
X2806905D1*
X2879874D2*
X2906905D1*
X2979874D2*
X3110909D1*
X3968009D2*
X4014132D1*
X4102091D2*
X4374044D1*
X468595Y2189636D2*
X881319D1*
X1197306D2*
X1217062D1*
X1290030D2*
X1341769D1*
X1442911D2*
X1784640D1*
X1928165D2*
X1957491D1*
X2537979D2*
X2806905D1*
X2879874D2*
X2906905D1*
X2979874D2*
X3110909D1*
X3968009D2*
X4014132D1*
X4102091D2*
X4373702D1*
X468155Y2164768D2*
X855489D1*
X1176847D2*
X1217062D1*
X1290030D2*
X1366622D1*
X1467765D2*
X1806271D1*
X1907364D2*
X1957491D1*
X2537979D2*
X2806905D1*
X2879874D2*
X2906905D1*
X2979874D2*
X3110909D1*
X3968009D2*
X4014132D1*
X4102091D2*
X4373360D1*
X467667Y2139899D2*
X830636D1*
X1151993D2*
X1217062D1*
X1290030D2*
X1391524D1*
X1509122D2*
X1781368D1*
X1882511D2*
X1958663D1*
X2537979D2*
X2714132D1*
X2879679D2*
X2906905D1*
X2979874D2*
X3050704D1*
X3968009D2*
X4014132D1*
X4102091D2*
X4373019D1*
X467228Y2115030D2*
X814620D1*
X1117716D2*
X1217062D1*
X1290030D2*
X1416378D1*
X1516983D2*
X1756515D1*
X1857657D2*
X1961739D1*
X2537833D2*
X2714132D1*
X2865616D2*
X2906905D1*
X2979874D2*
X3023458D1*
X3998868D2*
X4014157D1*
X4102091D2*
X4183272D1*
X4279728D2*
X4372677D1*
X466788Y2090161D2*
X813497D1*
X903263D2*
X1217062D1*
X1290030D2*
X1425558D1*
X1510440D2*
X1731661D1*
X1832755D2*
X1957491D1*
X2526700D2*
X2714132D1*
X2848868D2*
X2906905D1*
X2979874D2*
X3014718D1*
X3998868D2*
X4014334D1*
X4295353D2*
X4372335D1*
X466349Y2065293D2*
X813497D1*
X901505D2*
X1217062D1*
X1290030D2*
X1706759D1*
X1807901D2*
X1957491D1*
X2501896D2*
X2714132D1*
X2848868D2*
X2906905D1*
X2979874D2*
X3016183D1*
X3998868D2*
X4018233D1*
X4298771D2*
X4372042D1*
X465909Y2040424D2*
X813497D1*
X901505D2*
X1217062D1*
X1290030D2*
X1681905D1*
X1783048D2*
X1957638D1*
X2476993D2*
X2714132D1*
X2848868D2*
X2906905D1*
X2979874D2*
X3028780D1*
X4292276D2*
X4371700D1*
X465470Y2015555D2*
X813497D1*
X901505D2*
X1217062D1*
X1290030D2*
X1657052D1*
X1758146D2*
X1970724D1*
X2323771D2*
X2906905D1*
X2979874D2*
X3037521D1*
X3564981D2*
X3612521D1*
X4090860D2*
X4192208D1*
X4270792D2*
X4371358D1*
X464981Y1990686D2*
X813497D1*
X901505D2*
X1213253D1*
X1293839D2*
X1632149D1*
X1733292D2*
X1875606D1*
X2298917D2*
X2583272D1*
X2602725D2*
X2734249D1*
X2753715D2*
X2906905D1*
X2979874D2*
X3037521D1*
X3540128D2*
X3612521D1*
X4065958D2*
X4371017D1*
X464542Y1965818D2*
X813497D1*
X901505D2*
X1204562D1*
X1302481D2*
X1607296D1*
X1708438D2*
X1870089D1*
X2274063D2*
X2549044D1*
X2787931D2*
X2896163D1*
X2990616D2*
X3037521D1*
X3514884D2*
X3612521D1*
X4041104D2*
X4370675D1*
X464103Y1940949D2*
X813497D1*
X901505D2*
X1210421D1*
X1296622D2*
X1582442D1*
X1683585D2*
X1879122D1*
X2249210D2*
X2518819D1*
X2792862D2*
X2896017D1*
X2990763D2*
X3037521D1*
X3125479D2*
X3613155D1*
X4016251D2*
X4370333D1*
X463663Y1916080D2*
X813497D1*
X901505D2*
X1541378D1*
X1658683D2*
X2507003D1*
X2783097D2*
X2912765D1*
X2974015D2*
X3037521D1*
X3125479D2*
X3627657D1*
X3991104D2*
X4369991D1*
X463224Y1891211D2*
X813497D1*
X901505D2*
X1522237D1*
X1633829D2*
X2486739D1*
X2600772D2*
X3037521D1*
X3125479D2*
X4369649D1*
X462784Y1866343D2*
X813497D1*
X901505D2*
X1521212D1*
X1616788D2*
X2462130D1*
X2575577D2*
X3037521D1*
X3125479D2*
X4369356D1*
X462345Y1841474D2*
X813497D1*
X901505D2*
X1536446D1*
X1601554D2*
X2454562D1*
X2538126D2*
X3037521D1*
X3125479D2*
X4369015D1*
X461856Y1816605D2*
X810470D1*
X904581D2*
X2454562D1*
X2527530D2*
X3037521D1*
X3125479D2*
X4368673D1*
X461417Y1791736D2*
X809981D1*
X905021D2*
X2447970D1*
X2534073D2*
X3037521D1*
X3125479D2*
X4368331D1*
X460978Y1766867D2*
X826144D1*
X888858D2*
X2442062D1*
X2539981D2*
X3028585D1*
X3125479D2*
X4367989D1*
X460538Y1741999D2*
X1884151D1*
X3122013D2*
X4367647D1*
X460099Y1717130D2*
X1870772D1*
X3101212D2*
X4367306D1*
X459659Y1692261D2*
X1872970D1*
X3076310D2*
X4366964D1*
X1348110Y3027390D2*
X1452390D1*
Y3009958D1*
X1460022Y3016467D1*
X1460105Y3377062D1*
X1460939Y3382331D1*
X1462588Y3387405D1*
X1465010Y3392159D1*
X1468146Y3396475D1*
X1494958Y3423436D1*
X1499015Y3426901D1*
X1503564Y3429688D1*
X1508493Y3431730D1*
X1513681Y3432976D1*
X1519000Y3433394D1*
X1613678D1*
X1696265Y3516002D1*
X1696240Y3619319D1*
X1805859D1*
X1808371Y3625755D1*
X1811158Y3630304D1*
X1814623Y3634361D1*
X1841584Y3661173D1*
X1845900Y3664309D1*
X1850654Y3666731D1*
X1855728Y3668380D1*
X1860997Y3669214D1*
X1963665Y3669319D1*
X3300585Y3669214D1*
X3305854Y3668380D1*
X3310928Y3666731D1*
X3315682Y3664309D1*
X3319998Y3661173D1*
X3346959Y3634361D1*
X3350424Y3630304D1*
X3353211Y3625755D1*
X3355253Y3620826D1*
X3356498Y3615638D1*
X3356917Y3610319D1*
Y3091618D1*
X3362565Y3084186D1*
X3365877Y3077685D1*
X3368132Y3070745D1*
X3369274Y3063538D1*
Y3056242D1*
X3368132Y3049035D1*
X3365877Y3042095D1*
X3362565Y3035594D1*
X3358276Y3029691D1*
X3353116Y3024531D1*
X3347213Y3020242D1*
X3340712Y3016930D1*
X3333772Y3014675D1*
X3326565Y3013533D1*
X3319269D1*
X3312062Y3014675D1*
X3305122Y3016930D1*
X3298621Y3020242D1*
X3292718Y3024531D1*
X3287558Y3029691D1*
X3283269Y3035594D1*
X3279957Y3042095D1*
X3277702Y3049035D1*
X3276560Y3056242D1*
Y3063538D1*
X3277702Y3070745D1*
X3279957Y3077685D1*
X3283269Y3084186D1*
X3287558Y3090089D1*
X3288923Y3091566D1*
X3288917Y3467849D1*
X3180492Y3467894D1*
Y3571263D1*
X3175367Y3576361D1*
X3127627Y3576319D1*
X3131361Y3567003D1*
X3134135Y3555450D1*
X3135067Y3543606D1*
X3134135Y3531762D1*
X3131361Y3520210D1*
X3126815Y3509233D1*
X3120607Y3499104D1*
X3112891Y3490069D1*
X3103857Y3482354D1*
X3093326Y3475961D1*
X3093354Y2852249D1*
X3100502Y2852247D1*
X3107709Y2851105D1*
X3114649Y2848850D1*
X3121150Y2845538D1*
X3127053Y2841249D1*
X3132213Y2836089D1*
X3136502Y2830186D1*
X3139814Y2823685D1*
X3142069Y2816745D1*
X3143211Y2809538D1*
Y2802242D1*
X3142069Y2795035D1*
X3139814Y2788095D1*
X3136502Y2781594D1*
X3132213Y2775691D1*
X3130848Y2774214D1*
X3130854Y2693634D1*
X3136502Y2686190D1*
X3139814Y2679689D1*
X3142069Y2672749D1*
X3143211Y2665542D1*
Y2658246D1*
X3142069Y2651039D1*
X3139814Y2644099D1*
X3136502Y2637598D1*
X3144118Y2650618D1*
X3144223Y2715054D1*
X3145057Y2720323D1*
X3146706Y2725397D1*
X3149128Y2730151D1*
X3152264Y2734467D1*
X3179076Y2761428D1*
X3183133Y2764893D1*
X3187682Y2767680D1*
X3192611Y2769722D1*
X3197799Y2770967D1*
X3203118Y2771386D1*
X3277554Y2771281D1*
X3282823Y2770447D1*
X3287897Y2768798D1*
X3292651Y2766376D1*
X3296967Y2763240D1*
X3323928Y2736428D1*
X3327393Y2732371D1*
X3330180Y2727822D1*
X3332222Y2722893D1*
X3333467Y2717705D1*
X3333886Y2712386D1*
Y2329525D1*
X3349886Y2324496D1*
X3899740D1*
X3907204Y2330144D1*
X3913705Y2333456D1*
X3920645Y2335711D1*
X3927852Y2336853D1*
X3935148D1*
X3942355Y2335711D1*
X3949295Y2333456D1*
X3955796Y2330144D1*
X3961699Y2325855D1*
X3966859Y2320695D1*
X3971148Y2314792D1*
X3974460Y2308291D1*
X3976715Y2301351D1*
X3977857Y2294144D1*
Y2286848D1*
X3976715Y2279641D1*
X3974460Y2272701D1*
X3971148Y2266200D1*
X3966859Y2260297D1*
X3965494Y2258820D1*
X3965500Y2133904D1*
X3996386Y2133886D1*
Y2040966D1*
X4024759Y2069335D1*
X4021137Y2075159D1*
X4018645Y2081176D1*
X4017125Y2087508D1*
X4016614Y2094000D1*
Y2336822D1*
X4003668Y2349796D1*
X3997043Y2352568D1*
X3990822Y2356381D1*
X3985274Y2361120D1*
X3980535Y2366668D1*
X3976722Y2372889D1*
X3973930Y2379631D1*
X3972226Y2386726D1*
X3971654Y2394000D1*
X3972226Y2401274D1*
X3973930Y2408369D1*
X3976722Y2415111D1*
X3980535Y2421332D1*
X3985274Y2426880D1*
X3990822Y2431619D1*
X3997043Y2435432D1*
X4003785Y2438224D1*
X4010880Y2439928D1*
X4018154Y2440500D1*
X4025428Y2439928D1*
X4032523Y2438224D1*
X4039265Y2435432D1*
X4045486Y2431619D1*
X4051034Y2426880D1*
X4055773Y2421332D1*
X4059586Y2415111D1*
X4062334Y2408490D1*
X4089671Y2380992D1*
X4093499Y2375724D1*
X4096455Y2369921D1*
X4098467Y2363728D1*
X4099486Y2357296D1*
X4099614Y2291540D1*
Y2111218D1*
X4108114Y2110500D1*
X4181600D1*
X4189360Y2118340D1*
X4197597Y2124324D1*
X4206669Y2128947D1*
X4216353Y2132093D1*
X4226409Y2133686D1*
X4236591D1*
X4246647Y2132093D1*
X4256331Y2128947D1*
X4265403Y2124324D1*
X4273640Y2118340D1*
X4280840Y2111140D1*
X4286824Y2102903D1*
X4291447Y2093831D1*
X4294593Y2084147D1*
X4296186Y2074091D1*
Y2063909D1*
X4294593Y2053853D1*
X4291447Y2044169D1*
X4286824Y2035097D1*
X4280840Y2026860D1*
X4273640Y2019660D1*
X4265403Y2013676D1*
X4256331Y2009053D1*
X4246647Y2005907D1*
X4236591Y2004314D1*
X4226409D1*
X4216353Y2005907D1*
X4206669Y2009053D1*
X4197597Y2013676D1*
X4189360Y2019660D1*
X4181655Y2027501D1*
X4100299Y2027500D1*
X3989180Y1916557D1*
X3983912Y1912729D1*
X3978109Y1909773D1*
X3971916Y1907761D1*
X3965484Y1906742D1*
X3899728Y1906614D1*
X3653244Y1906742D1*
X3646812Y1907761D1*
X3640619Y1909773D1*
X3634816Y1912729D1*
X3629548Y1916557D1*
X3624943Y1921162D1*
X3621115Y1926430D1*
X3618159Y1932233D1*
X3616147Y1938426D1*
X3615128Y1944858D1*
X3615000Y2010614D1*
Y2031659D1*
X3607160Y2039360D1*
X3606500Y2040000D1*
X3586920D1*
X3513318Y1966557D1*
X3508050Y1962729D1*
X3502247Y1959773D1*
X3496054Y1957761D1*
X3489622Y1956742D1*
X3423866Y1956614D1*
X3161630Y1956742D1*
X3155198Y1957761D1*
X3149005Y1959773D1*
X3143202Y1962729D1*
X3137934Y1966557D1*
X3123008Y1981302D1*
X3122872Y1755350D1*
X3121853Y1748918D1*
X3119841Y1742725D1*
X3116885Y1736922D1*
X3113057Y1731654D1*
X3066651Y1685067D1*
X3058452Y1677049D1*
X3053184Y1673221D1*
X3047381Y1670265D1*
X3044000Y1669000D1*
X4369170Y1669168D1*
X4381326Y2568744D1*
X3742282Y2556619D1*
X3738540Y2557755D1*
X3735333Y2559993D1*
X3732974Y2563112D1*
X3731694Y2566808D1*
X3731500Y2581500D1*
Y3731500D1*
X493774Y3731278D1*
X456726Y1668964D1*
X1894635Y1669000D1*
X1888801Y1673247D1*
X1883641Y1678407D1*
X1879352Y1684310D1*
X1876040Y1690811D1*
X1873785Y1697751D1*
X1872643Y1704958D1*
Y1712254D1*
X1873785Y1719461D1*
X1876040Y1726401D1*
X1879352Y1732902D1*
X1883641Y1738805D1*
X1888801Y1743965D1*
X1894704Y1748254D1*
X1901205Y1751566D1*
X1908145Y1753821D1*
X1915352Y1754963D1*
X1922648D1*
X1929855Y1753821D1*
X1936795Y1751566D1*
X1939994Y1750092D1*
X2448541Y1750106D1*
X2445813Y1758145D1*
X2444671Y1765352D1*
Y1772648D1*
X2445813Y1779855D1*
X2448068Y1786795D1*
X2451380Y1793296D1*
X2455669Y1799199D1*
X2457034Y1800676D1*
X2457133Y1847594D1*
X2457967Y1852863D1*
X2459616Y1857937D1*
X2462038Y1862691D1*
X2465174Y1867007D1*
X2509005Y1910987D1*
X2510281Y1920249D1*
X2512536Y1927189D1*
X2515848Y1933690D1*
X2520137Y1939593D1*
X2525297Y1944753D1*
X2531200Y1949042D1*
X2537701Y1952354D1*
X2544641Y1954609D1*
X2547676Y1955213D1*
X2550036Y1962547D1*
X2553348Y1969048D1*
X2557637Y1974951D1*
X2562797Y1980111D1*
X2568700Y1984400D1*
X2575201Y1987712D1*
X2582141Y1989967D1*
X2589348Y1991109D1*
X2596644D1*
X2603851Y1989967D1*
X2610791Y1987712D1*
X2617292Y1984400D1*
X2623195Y1980111D1*
X2624672Y1978746D1*
X2712283Y1978752D1*
X2719704Y1984400D1*
X2726205Y1987712D1*
X2733145Y1989967D1*
X2740352Y1991109D1*
X2747648D1*
X2754855Y1989967D1*
X2761795Y1987712D1*
X2768296Y1984400D1*
X2774199Y1980111D1*
X2779359Y1974951D1*
X2783648Y1969048D1*
X2786960Y1962547D1*
X2789215Y1955607D1*
X2790357Y1948400D1*
Y1941104D1*
X2789215Y1933897D1*
X2786960Y1926957D1*
X2783648Y1920456D1*
X2779359Y1914553D1*
X2774199Y1909393D1*
X2768296Y1905104D1*
X2761795Y1901792D1*
X2754855Y1899537D1*
X2747648Y1898395D1*
X2740352D1*
X2733145Y1899537D1*
X2726205Y1901792D1*
X2719704Y1905104D1*
X2713801Y1909393D1*
X2712324Y1910758D1*
X2624713Y1910752D1*
X2617292Y1905104D1*
X2610791Y1901792D1*
X2603851Y1899537D1*
X2600816Y1898933D1*
X2598456Y1891599D1*
X2595144Y1885098D1*
X2590855Y1879195D1*
X2585695Y1874035D1*
X2579792Y1869746D1*
X2573291Y1866434D1*
X2566351Y1864179D1*
X2559144Y1863037D1*
X2557135Y1862958D1*
X2525020Y1830835D1*
X2525028Y1800737D1*
X2530676Y1793296D1*
X2533988Y1786795D1*
X2536243Y1779855D1*
X2537385Y1772648D1*
Y1765352D1*
X2536243Y1758145D1*
X2533481Y1750104D1*
X3014361Y1750106D1*
X3040031Y1775827D1*
X3040000Y2031604D1*
X3032160Y2039360D1*
X3026176Y2047597D1*
X3021553Y2056669D1*
X3018407Y2066353D1*
X3016814Y2076409D1*
Y2086591D1*
X3018407Y2096647D1*
X3021553Y2106331D1*
X3026176Y2115403D1*
X3032160Y2123640D1*
X3039360Y2130840D1*
X3047597Y2136824D1*
X3056669Y2141447D1*
X3066353Y2144593D1*
X3076409Y2146186D1*
X3086591D1*
X3096647Y2144593D1*
X3106331Y2141447D1*
X3113406Y2137943D1*
X3113386Y2414361D1*
X3097386Y2419390D1*
X2923509D1*
X2931921Y2413400D1*
X2938400Y2406921D1*
X2943785Y2399509D1*
X2947945Y2391345D1*
X2950776Y2382631D1*
X2952210Y2373581D1*
X2952316Y2370879D1*
X2961185Y2368196D1*
X2967686Y2364884D1*
X2973589Y2360595D1*
X2978749Y2355435D1*
X2983038Y2349532D1*
X2986350Y2343031D1*
X2988605Y2336091D1*
X2989747Y2328884D1*
Y2321588D1*
X2988605Y2314381D1*
X2986350Y2307441D1*
X2983038Y2300940D1*
X2978749Y2295037D1*
X2977384Y2293560D1*
X2977390Y1984855D1*
X2983038Y1977410D1*
X2986350Y1970909D1*
X2988605Y1963969D1*
X2989747Y1956762D1*
Y1949466D1*
X2988605Y1942259D1*
X2986350Y1935319D1*
X2983038Y1928818D1*
X2978749Y1922915D1*
X2973589Y1917755D1*
X2967686Y1913466D1*
X2961185Y1910154D1*
X2954245Y1907899D1*
X2947038Y1906757D1*
X2939742D1*
X2932535Y1907899D1*
X2925595Y1910154D1*
X2919094Y1913466D1*
X2913191Y1917755D1*
X2908031Y1922915D1*
X2903742Y1928818D1*
X2900430Y1935319D1*
X2898175Y1942259D1*
X2897033Y1949466D1*
Y1956762D1*
X2898175Y1963969D1*
X2900430Y1970909D1*
X2903742Y1977410D1*
X2908031Y1983313D1*
X2909396Y1984790D1*
X2909390Y2293495D1*
X2903742Y2300940D1*
X2900430Y2307441D1*
X2899171Y2310853D1*
X2889419Y2310790D1*
X2880369Y2312224D1*
X2877387Y2313065D1*
X2877285Y2140722D1*
X2876451Y2135453D1*
X2874802Y2130379D1*
X2872380Y2125625D1*
X2869244Y2121309D1*
X2846405Y2098322D1*
X2846386Y2016614D1*
X2716614D1*
Y2146386D1*
X2798304D1*
X2809421Y2157504D1*
X2809390Y2312677D1*
X2803134Y2311329D1*
X2794000Y2310610D1*
X2784866Y2311329D1*
X2775957Y2313468D1*
X2767492Y2316974D1*
X2759679Y2321762D1*
X2752712Y2327712D1*
X2746762Y2334679D1*
X2741974Y2342492D1*
X2738468Y2350957D1*
X2736329Y2359866D1*
X2735610Y2369000D1*
X2736329Y2378134D1*
X2738468Y2387043D1*
X2741937Y2395427D1*
X2734788Y2398096D1*
X2730239Y2400883D1*
X2726182Y2404348D1*
X2632995Y2497536D1*
X2623759Y2498785D1*
X2616819Y2501040D1*
X2610318Y2504352D1*
X2604415Y2508641D1*
X2599255Y2513801D1*
X2594179Y2521110D1*
X2500127Y2427044D1*
X2507631Y2425776D1*
X2516345Y2422945D1*
X2524509Y2418785D1*
X2531921Y2413400D1*
X2538400Y2406921D1*
X2543987Y2399149D1*
X2549600Y2406921D1*
X2556079Y2413400D1*
X2563491Y2418785D1*
X2571655Y2422945D1*
X2580369Y2425776D1*
X2589419Y2427210D1*
X2598581D1*
X2607631Y2425776D1*
X2616345Y2422945D1*
X2624509Y2418785D1*
X2631921Y2413400D1*
X2638400Y2406921D1*
X2643785Y2399509D1*
X2647945Y2391345D1*
X2650776Y2382631D1*
X2652210Y2373581D1*
Y2364419D1*
X2650776Y2355369D1*
X2647945Y2346655D1*
X2643785Y2338491D1*
X2638400Y2331079D1*
X2631921Y2324600D1*
X2624509Y2319215D1*
X2616345Y2315055D1*
X2607631Y2312224D1*
X2598581Y2310790D1*
X2589419D1*
X2580369Y2312224D1*
X2571655Y2315055D1*
X2563491Y2319215D1*
X2556079Y2324600D1*
X2549600Y2331079D1*
X2544013Y2338851D1*
X2538400Y2331079D1*
X2535494Y2327936D1*
X2535372Y2115335D1*
X2534353Y2108903D1*
X2532341Y2102710D1*
X2529385Y2096907D1*
X2525557Y2091639D1*
X2479151Y2045052D1*
X2470952Y2037034D1*
X2465684Y2033206D1*
X2459881Y2030250D1*
X2453688Y2028238D1*
X2447256Y2027219D1*
X2381500Y2027091D1*
X2332818D1*
X2242612Y1937037D1*
X2237344Y1933209D1*
X2231541Y1930253D1*
X2225348Y1928241D1*
X2218916Y1927222D1*
X2153160Y1927094D1*
X1939928D1*
X1933369Y1924370D1*
X1926274Y1922666D1*
X1919000Y1922094D1*
X1911726Y1922666D1*
X1904631Y1924370D1*
X1897889Y1927162D1*
X1891668Y1930975D1*
X1886120Y1935714D1*
X1881381Y1941262D1*
X1877568Y1947483D1*
X1874776Y1954225D1*
X1873072Y1961320D1*
X1872500Y1968594D1*
X1873072Y1975868D1*
X1874776Y1982963D1*
X1877568Y1989705D1*
X1881381Y1995926D1*
X1886120Y2001474D1*
X1891668Y2006213D1*
X1897889Y2010026D1*
X1904631Y2012818D1*
X1911726Y2014522D1*
X1919000Y2015094D1*
X1926274Y2014522D1*
X1933369Y2012818D1*
X1939994Y2010080D1*
X1974518Y2010094D1*
X1973054Y2016476D1*
X1966493Y2023609D1*
X1963706Y2028158D1*
X1961664Y2033087D1*
X1960419Y2038275D1*
X1960000Y2043594D1*
X1960105Y2101259D1*
X1960939Y2106528D1*
X1962588Y2111602D1*
X1965010Y2116356D1*
X1968146Y2120672D1*
X1970960Y2123634D1*
X1966493Y2128606D1*
X1963706Y2133155D1*
X1961664Y2138084D1*
X1960419Y2143272D1*
X1960000Y2148591D1*
Y2321491D1*
X1952712Y2327712D1*
X1946762Y2334679D1*
X1944013Y2338851D1*
X1938400Y2331079D1*
X1931921Y2324600D1*
X1927978Y2321533D1*
X1927895Y2199285D1*
X1927061Y2194016D1*
X1925412Y2188942D1*
X1922990Y2184188D1*
X1919854Y2179872D1*
X1847331Y2107201D1*
X1615484Y1875354D1*
X1614215Y1866098D1*
X1611960Y1859158D1*
X1608648Y1852657D1*
X1604359Y1846754D1*
X1599199Y1841594D1*
X1593296Y1837305D1*
X1586795Y1833993D1*
X1579855Y1831738D1*
X1572648Y1830596D1*
X1565352D1*
X1558145Y1831738D1*
X1551205Y1833993D1*
X1544704Y1837305D1*
X1538801Y1841594D1*
X1533641Y1846754D1*
X1529352Y1852657D1*
X1526040Y1859158D1*
X1523785Y1866098D1*
X1522643Y1873305D1*
Y1880601D1*
X1523785Y1887808D1*
X1526040Y1894748D1*
X1529352Y1901249D1*
X1533641Y1907152D1*
X1538801Y1912312D1*
X1544704Y1916601D1*
X1551205Y1919913D1*
X1558145Y1922168D1*
X1565352Y1923310D1*
X1567361Y1923389D1*
X1809122Y2165159D1*
X1803164Y2168881D1*
X1797616Y2173620D1*
X1792877Y2179168D1*
X1789064Y2185389D1*
X1786272Y2192131D1*
X1784568Y2199226D1*
X1784060Y2204861D1*
X1768146Y2220915D1*
X1765010Y2225231D1*
X1762588Y2229985D1*
X1760939Y2235059D1*
X1760105Y2240328D1*
X1760000Y2321560D1*
X1752712Y2327712D1*
X1746762Y2334679D1*
X1744013Y2338851D1*
X1738400Y2331079D1*
X1731921Y2324600D1*
X1724509Y2319215D1*
X1716345Y2315055D1*
X1707631Y2312224D1*
X1698581Y2310790D1*
X1689419D1*
X1680369Y2312224D1*
X1671655Y2315055D1*
X1663491Y2319215D1*
X1656079Y2324600D1*
X1649600Y2331079D1*
X1644013Y2338851D1*
X1638400Y2331079D1*
X1631921Y2324600D1*
X1624509Y2319215D1*
X1616345Y2315055D1*
X1607631Y2312224D1*
X1598581Y2310790D1*
X1589419D1*
X1580369Y2312224D1*
X1571655Y2315055D1*
X1563491Y2319215D1*
X1556079Y2324600D1*
X1549600Y2331079D1*
X1544013Y2338851D1*
X1538400Y2331079D1*
X1531921Y2324600D1*
X1524509Y2319215D1*
X1516345Y2315055D1*
X1507631Y2312224D1*
X1498581Y2310790D1*
X1489419D1*
X1480369Y2312224D1*
X1471655Y2315055D1*
X1463491Y2319215D1*
X1456079Y2324600D1*
X1452384Y2328067D1*
X1452390Y2310610D1*
X1335610D1*
Y2427390D1*
X1452390D1*
Y2409958D1*
X1459679Y2416238D1*
X1467492Y2421026D1*
X1475957Y2424532D1*
X1484866Y2426671D1*
X1494000Y2427390D1*
X1503134Y2426671D1*
X1512043Y2424532D1*
X1520508Y2421026D1*
X1528321Y2416238D1*
X1535288Y2410288D1*
X1541238Y2403321D1*
X1543987Y2399149D1*
X1549600Y2406921D1*
X1556079Y2413400D1*
X1563491Y2418785D1*
X1571655Y2422945D1*
X1580369Y2425776D1*
X1589419Y2427210D1*
X1598581D1*
X1607631Y2425776D1*
X1616345Y2422945D1*
X1624509Y2418785D1*
X1631921Y2413400D1*
X1638400Y2406921D1*
X1643987Y2399149D1*
X1649600Y2406921D1*
X1656079Y2413400D1*
X1663491Y2418785D1*
X1668158Y2421333D1*
X1665010Y2425625D1*
X1662588Y2430379D1*
X1660939Y2435453D1*
X1660105Y2440722D1*
X1660000Y2444904D1*
X1651274Y2442678D1*
X1644000Y2442106D1*
X1636726Y2442678D1*
X1629631Y2444382D1*
X1622889Y2447174D1*
X1616668Y2450987D1*
X1612324Y2454612D1*
X1336139Y2454606D1*
X1337385Y2447038D1*
Y2439742D1*
X1336243Y2432535D1*
X1333988Y2425595D1*
X1330676Y2419094D1*
X1326387Y2413191D1*
X1325022Y2411714D1*
X1325028Y2305060D1*
X1469577Y2160483D1*
X1478851Y2159195D1*
X1485791Y2156940D1*
X1492292Y2153628D1*
X1498195Y2149339D1*
X1503355Y2144179D1*
X1507644Y2138276D1*
X1510956Y2131775D1*
X1513211Y2124835D1*
X1514353Y2117628D1*
Y2110332D1*
X1513211Y2103125D1*
X1510956Y2096185D1*
X1507644Y2089684D1*
X1503355Y2083781D1*
X1498195Y2078621D1*
X1492292Y2074332D1*
X1485791Y2071020D1*
X1478851Y2068765D1*
X1471644Y2067623D1*
X1464348D1*
X1457141Y2068765D1*
X1450201Y2071020D1*
X1443700Y2074332D1*
X1437797Y2078621D1*
X1432637Y2083781D1*
X1428348Y2089684D1*
X1425036Y2096185D1*
X1422781Y2103125D1*
X1421639Y2110332D1*
X1421560Y2112341D1*
X1287514Y2246379D1*
X1287528Y1995330D1*
X1293176Y1987883D1*
X1296488Y1981382D1*
X1298743Y1974442D1*
X1299885Y1967235D1*
Y1959939D1*
X1298743Y1952732D1*
X1296488Y1945792D1*
X1293176Y1939291D1*
X1288887Y1933388D1*
X1283727Y1928228D1*
X1277824Y1923939D1*
X1271323Y1920627D1*
X1264383Y1918372D1*
X1257176Y1917230D1*
X1249880D1*
X1242673Y1918372D1*
X1235733Y1920627D1*
X1229232Y1923939D1*
X1223329Y1928228D1*
X1218169Y1933388D1*
X1213880Y1939291D1*
X1210568Y1945792D1*
X1208313Y1952732D1*
X1207171Y1959939D1*
Y1967235D1*
X1208313Y1974442D1*
X1210568Y1981382D1*
X1213880Y1987883D1*
X1218169Y1993786D1*
X1219534Y1995263D1*
X1219528Y2512855D1*
X1213880Y2520302D1*
X1210568Y2526803D1*
X1208313Y2533743D1*
X1207171Y2540950D1*
Y2548246D1*
X1208313Y2555453D1*
X1210568Y2562393D1*
X1213880Y2568894D1*
X1218169Y2574797D1*
X1223329Y2579957D1*
X1229232Y2584246D1*
X1235733Y2587558D1*
X1242673Y2589813D1*
X1249880Y2590955D1*
X1257048Y2590960D1*
X1257028Y2905842D1*
X1235256Y2927574D1*
X1229620Y2928092D1*
X1222525Y2929796D1*
X1215783Y2932588D1*
X1209562Y2936401D1*
X1204014Y2941140D1*
X1199275Y2946688D1*
X1195462Y2952909D1*
X1192670Y2959651D1*
X1190966Y2966746D1*
X1190394Y2974020D1*
X1190966Y2981294D1*
X1192670Y2988389D1*
X1195462Y2995131D1*
X1199275Y3001352D1*
X1204014Y3006900D1*
X1209562Y3011639D1*
X1215783Y3015452D1*
X1222525Y3018244D1*
X1229620Y3019948D1*
X1236894Y3020520D1*
X1244168Y3019948D1*
X1251263Y3018244D1*
X1258005Y3015452D1*
X1264226Y3011639D1*
X1269774Y3006900D1*
X1274513Y3001352D1*
X1278326Y2995131D1*
X1281118Y2988389D1*
X1282822Y2981294D1*
X1283330Y2975659D1*
X1316882Y2941967D1*
X1320018Y2937651D1*
X1322440Y2932897D1*
X1324089Y2927823D1*
X1324923Y2922554D1*
X1325028Y2819886D1*
Y2527650D1*
X1341028Y2522606D1*
X1393323D1*
X1390248Y2529828D1*
X1388544Y2536923D1*
X1387972Y2544197D1*
X1388544Y2551471D1*
X1390248Y2558566D1*
X1393040Y2565308D1*
X1396853Y2571529D1*
X1400478Y2575873D1*
X1400577Y2729211D1*
X1401411Y2734480D1*
X1403060Y2739554D1*
X1405482Y2744308D1*
X1408618Y2748624D1*
X1481141Y2821295D1*
X1519094Y2859344D1*
X1513191Y2863633D1*
X1508031Y2868793D1*
X1503742Y2874696D1*
X1500430Y2881197D1*
X1498175Y2888137D1*
X1497033Y2895344D1*
Y2902640D1*
X1498434Y2910767D1*
X1489419Y2910790D1*
X1480369Y2912224D1*
X1471655Y2915055D1*
X1463491Y2919215D1*
X1456079Y2924600D1*
X1452384Y2928067D1*
X1452390Y2910610D1*
X1335610D1*
Y3027390D1*
X1348110D1*
X1743987Y2938851D2*
X1738400Y2931079D1*
X1731921Y2924600D1*
X1727978Y2921533D1*
X1728000Y2457428D1*
X1744000Y2452390D1*
X1913385D1*
X1911054Y2457883D1*
X1909809Y2463071D1*
X1909390Y2468390D1*
Y2912677D1*
X1903134Y2911329D1*
X1894000Y2910610D1*
X1884866Y2911329D1*
X1875957Y2913468D1*
X1867492Y2916974D1*
X1859679Y2921762D1*
X1852712Y2927712D1*
X1846762Y2934679D1*
X1844013Y2938851D1*
X1838400Y2931079D1*
X1831921Y2924600D1*
X1827978Y2921533D1*
X1828000Y2650494D1*
X1831619Y2646135D1*
X1835432Y2639914D1*
X1838224Y2633172D1*
X1839928Y2626077D1*
X1840500Y2618803D1*
X1839928Y2611529D1*
X1838224Y2604434D1*
X1835432Y2597692D1*
X1831619Y2591471D1*
X1826880Y2585923D1*
X1821332Y2581184D1*
X1815111Y2577371D1*
X1808369Y2574579D1*
X1801274Y2572875D1*
X1794000Y2572303D1*
X1786726Y2572875D1*
X1779631Y2574579D1*
X1772889Y2577371D1*
X1766668Y2581184D1*
X1761120Y2585923D1*
X1756381Y2591471D1*
X1752568Y2597692D1*
X1749776Y2604434D1*
X1748072Y2611529D1*
X1747500Y2618803D1*
X1748072Y2626077D1*
X1749776Y2633172D1*
X1752568Y2639914D1*
X1756381Y2646135D1*
X1760006Y2650479D1*
X1760000Y2921489D1*
X1752712Y2927712D1*
X1746762Y2934679D1*
X1744013Y2938851D1*
X1720524Y3021017D2*
X1728321Y3016238D1*
X1735288Y3010288D1*
X1741238Y3003321D1*
X1743987Y2999149D1*
X1749600Y3006921D1*
X1756079Y3013400D1*
X1763491Y3018785D1*
X1771655Y3022945D1*
X1780369Y3025776D1*
X1789419Y3027210D1*
X1798581D1*
X1807631Y3025776D1*
X1816345Y3022945D1*
X1824509Y3018785D1*
X1831921Y3013400D1*
X1838400Y3006921D1*
X1843987Y2999149D1*
X1849600Y3006921D1*
X1856079Y3013400D1*
X1863491Y3018785D1*
X1871655Y3022945D1*
X1880369Y3025776D1*
X1889419Y3027210D1*
X1898581D1*
X1907631Y3025776D1*
X1909406Y3025276D1*
X1909495Y3048306D1*
X1910329Y3053575D1*
X1911978Y3058649D1*
X1914400Y3063403D1*
X1917536Y3067719D1*
X1990059Y3140390D1*
X2036497Y3186829D1*
X2036516Y3336973D1*
X1720527Y3020987D1*
X2452210Y2964419D2*
X2450776Y2955369D1*
X2447945Y2946655D1*
X2443785Y2938491D1*
X2438400Y2931079D1*
X2431921Y2924600D1*
X2424509Y2919215D1*
X2416345Y2915055D1*
X2407631Y2912224D1*
X2398581Y2910790D1*
X2389419D1*
X2380369Y2912224D1*
X2377387Y2913065D1*
X2377285Y2843241D1*
X2376451Y2837972D1*
X2374802Y2832898D1*
X2372380Y2828144D1*
X2369244Y2823828D1*
X2342432Y2796867D1*
X2338375Y2793402D1*
X2333826Y2790615D1*
X2328897Y2788573D1*
X2323709Y2787328D1*
X2318390Y2786909D1*
X2284747D1*
X2294858Y2776672D1*
X2297994Y2772356D1*
X2300416Y2767602D1*
X2302065Y2762528D1*
X2302899Y2757259D1*
X2303004Y2692433D1*
X2330162Y2665253D1*
X2335802Y2664731D1*
X2342897Y2663027D1*
X2349639Y2660235D1*
X2355860Y2656422D1*
X2361408Y2651683D1*
X2366147Y2646135D1*
X2369960Y2639914D1*
X2372752Y2633172D1*
X2374456Y2626077D1*
X2375028Y2618803D1*
X2374456Y2611529D1*
X2372752Y2604434D1*
X2369960Y2597692D1*
X2366147Y2591471D1*
X2361408Y2585923D1*
X2355860Y2581184D1*
X2349639Y2577371D1*
X2342897Y2574579D1*
X2335802Y2572875D1*
X2328528Y2572303D1*
X2321254Y2572875D1*
X2314159Y2574579D1*
X2307417Y2577371D1*
X2301196Y2581184D1*
X2295648Y2585923D1*
X2290909Y2591471D1*
X2287096Y2597692D1*
X2284304Y2604434D1*
X2282600Y2611529D1*
X2282092Y2617164D1*
X2243150Y2656246D1*
X2240014Y2660562D1*
X2237592Y2665316D1*
X2235943Y2670390D1*
X2235109Y2675659D1*
X2235004Y2740485D1*
X2221227Y2744232D1*
X2215324Y2739943D1*
X2208823Y2736631D1*
X2201883Y2734376D1*
X2194676Y2733234D1*
X2187380D1*
X2180173Y2734376D1*
X2173233Y2736631D1*
X2166732Y2739943D1*
X2160952Y2744135D1*
X2160972Y2589903D1*
X2167897Y2588224D1*
X2174639Y2585432D1*
X2180860Y2581619D1*
X2186408Y2576880D1*
X2191147Y2571332D1*
X2194960Y2565111D1*
X2197752Y2558369D1*
X2199456Y2551274D1*
X2200028Y2544000D1*
X2199456Y2536726D1*
X2197752Y2529631D1*
X2196918Y2527369D1*
X2271668Y2527285D1*
X2276937Y2526451D1*
X2282011Y2524802D1*
X2286765Y2522380D1*
X2291081Y2519244D1*
X2301639Y2508835D1*
X2305771Y2515741D1*
X2310510Y2521289D1*
X2316058Y2526028D1*
X2322279Y2529841D1*
X2329021Y2532633D1*
X2336116Y2534337D1*
X2343390Y2534909D1*
X2350664Y2534337D1*
X2357759Y2532633D1*
X2364501Y2529841D1*
X2370722Y2526028D1*
X2376270Y2521289D1*
X2381009Y2515741D1*
X2384822Y2509520D1*
X2387614Y2502778D1*
X2389318Y2495683D1*
X2389890Y2488409D1*
X2389318Y2481135D1*
X2387614Y2474040D1*
X2384822Y2467298D1*
X2381009Y2461077D1*
X2377384Y2456733D1*
X2377390Y2424981D1*
X2384866Y2426671D1*
X2394000Y2427390D1*
X2403538Y2426591D1*
X2628537Y2651472D1*
X2632853Y2654608D1*
X2637607Y2657030D1*
X2642681Y2658679D1*
X2647950Y2659513D1*
X2750618Y2659618D1*
X3020296D1*
X3025354Y2675618D1*
Y2734456D1*
X3019280Y2728993D1*
X3014731Y2726206D1*
X3009802Y2724164D1*
X3004614Y2722918D1*
X2999295Y2722500D1*
X2940722Y2722605D1*
X2935453Y2723439D1*
X2930379Y2725088D1*
X2925625Y2727510D1*
X2921309Y2730646D1*
X2894348Y2757458D1*
X2890883Y2761515D1*
X2888096Y2766064D1*
X2886054Y2770993D1*
X2884808Y2776181D1*
X2884390Y2781500D1*
Y2853131D1*
X2872079Y2865397D1*
X2713265Y2865394D1*
X2705796Y2859746D1*
X2699295Y2856434D1*
X2692355Y2854179D1*
X2685148Y2853037D1*
X2677384Y2853093D1*
X2677390Y2800763D1*
X2683038Y2793296D1*
X2686350Y2786795D1*
X2688605Y2779855D1*
X2689747Y2772648D1*
Y2765352D1*
X2688605Y2758145D1*
X2686350Y2751205D1*
X2683038Y2744704D1*
X2678749Y2738801D1*
X2673589Y2733641D1*
X2667686Y2729352D1*
X2661185Y2726040D1*
X2654245Y2723785D1*
X2647038Y2722643D1*
X2639742D1*
X2632535Y2723785D1*
X2625595Y2726040D1*
X2619094Y2729352D1*
X2613191Y2733641D1*
X2611714Y2735006D1*
X2535236Y2735000D1*
X2527824Y2729352D1*
X2521323Y2726040D1*
X2514383Y2723785D1*
X2507176Y2722643D1*
X2499880D1*
X2492673Y2723785D1*
X2485733Y2726040D1*
X2479232Y2729352D1*
X2473329Y2733641D1*
X2468169Y2738801D1*
X2463880Y2744704D1*
X2460568Y2751205D1*
X2458313Y2758145D1*
X2457171Y2765352D1*
Y2772648D1*
X2458313Y2779855D1*
X2460568Y2786795D1*
X2463880Y2793296D1*
X2468169Y2799199D1*
X2473329Y2804359D1*
X2479232Y2808648D1*
X2485733Y2811960D1*
X2492673Y2814215D1*
X2499880Y2815357D1*
X2507176D1*
X2514383Y2814215D1*
X2521323Y2811960D1*
X2527824Y2808648D1*
X2533727Y2804359D1*
X2535204Y2802994D1*
X2609436Y2803000D1*
X2609390Y2912701D1*
X2603134Y2911329D1*
X2594000Y2910610D1*
X2584866Y2911329D1*
X2575957Y2913468D1*
X2567492Y2916974D1*
X2559679Y2921762D1*
X2552712Y2927712D1*
X2546762Y2934679D1*
X2541974Y2942492D1*
X2538468Y2950957D1*
X2536329Y2959866D1*
X2535610Y2969000D1*
X2536329Y2978134D1*
X2538468Y2987043D1*
X2541974Y2995508D1*
X2546762Y3003321D1*
X2552712Y3010288D1*
X2559679Y3016238D1*
X2567492Y3021026D1*
X2575957Y3024532D1*
X2584866Y3026671D1*
X2594000Y3027390D1*
X2603134Y3026671D1*
X2612043Y3024532D1*
X2620508Y3021026D1*
X2622087Y3020142D1*
X2628429Y3026512D1*
X2623251Y3032558D1*
X2619438Y3038779D1*
X2616646Y3045521D1*
X2614942Y3052616D1*
X2614370Y3059890D1*
X2614942Y3067164D1*
X2616646Y3074259D1*
X2619438Y3081001D1*
X2623251Y3087222D1*
X2626876Y3091566D1*
X2626975Y3181668D1*
X2627809Y3186937D1*
X2629458Y3192011D1*
X2631880Y3196765D1*
X2635016Y3201081D1*
X2654402Y3220616D1*
X2655655Y3229855D1*
X2657910Y3236795D1*
X2661222Y3243296D1*
X2665511Y3249199D1*
X2670671Y3254359D1*
X2676574Y3258648D1*
X2683075Y3261960D1*
X2690015Y3264215D1*
X2697222Y3265357D1*
X2704518D1*
X2711725Y3264215D1*
X2718781Y3261907D1*
X2718228Y3269000D1*
X2718800Y3276274D1*
X2720504Y3283369D1*
X2723296Y3290111D1*
X2727109Y3296332D1*
X2732968Y3302916D1*
X2512289Y3302894D1*
X2512247Y3295746D1*
X2511105Y3288539D1*
X2508850Y3281599D1*
X2505538Y3275098D1*
X2501249Y3269195D1*
X2496089Y3264035D1*
X2490186Y3259746D1*
X2483685Y3256434D1*
X2476745Y3254179D1*
X2469538Y3253037D1*
X2467529Y3252958D1*
X2427956Y3213377D1*
X2428000Y3016518D1*
X2435288Y3010288D1*
X2441238Y3003321D1*
X2446026Y2995508D1*
X2449532Y2987043D1*
X2451671Y2978134D1*
X2452390Y2969000D1*
X2452210Y2964419D1*
X527638Y3619319D2*
X666563D1*
Y3467894D1*
X515138D1*
Y3619319D1*
X527638D1*
X863180Y3537666D2*
X861321Y3525932D1*
X857650Y3514632D1*
X852256Y3504047D1*
X845273Y3494435D1*
X836872Y3486034D1*
X827261Y3479051D1*
X816675Y3473657D1*
X805376Y3469986D1*
X793641Y3468127D1*
X781760D1*
X770026Y3469986D1*
X758727Y3473657D1*
X748141Y3479051D1*
X738529Y3486034D1*
X730128Y3494435D1*
X723145Y3504047D1*
X717751Y3514632D1*
X714080Y3525932D1*
X712222Y3537666D1*
Y3549547D1*
X714080Y3561281D1*
X717751Y3572580D1*
X723145Y3583166D1*
X730128Y3592778D1*
X738529Y3601179D1*
X748141Y3608162D1*
X758727Y3613556D1*
X770026Y3617227D1*
X781760Y3619086D1*
X793641D1*
X805376Y3617227D1*
X816675Y3613556D1*
X827261Y3608162D1*
X836872Y3601179D1*
X845273Y3592778D1*
X852256Y3583166D1*
X857650Y3572580D1*
X861321Y3561281D1*
X863180Y3549547D1*
Y3537666D1*
X1257114Y3504036D2*
Y3467894D1*
X1215366D1*
X1217552Y3462384D1*
X1224492Y3460129D1*
X1230993Y3456817D1*
X1236896Y3452528D1*
X1242056Y3447368D1*
X1246345Y3441465D1*
X1249657Y3434964D1*
X1251912Y3428024D1*
X1253054Y3420817D1*
Y3413521D1*
X1251912Y3406314D1*
X1249657Y3399374D1*
X1246345Y3392873D1*
X1242056Y3386970D1*
X1236896Y3381810D1*
X1230993Y3377521D1*
X1224492Y3374209D1*
X1217552Y3371954D1*
X1210345Y3370812D1*
X1203049D1*
X1195842Y3371954D1*
X1188902Y3374209D1*
X1182401Y3377521D1*
X1176498Y3381810D1*
X1171338Y3386970D1*
X1167049Y3392873D1*
X1163737Y3399374D1*
X1161482Y3406314D1*
X1160340Y3413521D1*
X1160261Y3415530D1*
X1153895Y3422480D1*
X1151107Y3427029D1*
X1149066Y3431958D1*
X1147820Y3437146D1*
X1147401Y3442464D1*
Y3467904D1*
X1135483Y3467894D1*
X1135500Y2858337D1*
X1142131Y2861118D1*
X1149226Y2862822D1*
X1156500Y2863394D1*
X1163774Y2862822D1*
X1170869Y2861118D1*
X1177611Y2858326D1*
X1183832Y2854513D1*
X1189380Y2849774D1*
X1194119Y2844226D1*
X1197932Y2838005D1*
X1200724Y2831263D1*
X1202428Y2824168D1*
X1203000Y2816894D1*
X1202428Y2809620D1*
X1200724Y2802525D1*
X1197986Y2795900D1*
X1197872Y2202338D1*
X1196853Y2195906D1*
X1194841Y2189713D1*
X1191885Y2183910D1*
X1188057Y2178642D1*
X1141651Y2132055D1*
X1133452Y2124037D1*
X1128184Y2120209D1*
X1122381Y2117253D1*
X1116188Y2115241D1*
X1109756Y2114222D1*
X1044000Y2114094D1*
X924713D1*
X898977Y2088373D1*
X899008Y1824295D1*
X901732Y1817692D1*
X903436Y1810597D1*
X904008Y1803323D1*
X903436Y1796049D1*
X901732Y1788954D1*
X898940Y1782212D1*
X895127Y1775991D1*
X890388Y1770443D1*
X884840Y1765704D1*
X878619Y1761891D1*
X871877Y1759099D1*
X864782Y1757395D1*
X857508Y1756823D1*
X850234Y1757395D1*
X843139Y1759099D1*
X836397Y1761891D1*
X830176Y1765704D1*
X824628Y1770443D1*
X819889Y1775991D1*
X816076Y1782212D1*
X813284Y1788954D1*
X811580Y1796049D1*
X811008Y1803323D1*
X811580Y1810597D1*
X813284Y1817692D1*
X816022Y1824317D1*
X816136Y2108850D1*
X817155Y2115282D1*
X819167Y2121475D1*
X822123Y2127278D1*
X825951Y2132546D1*
X872357Y2179133D1*
X880556Y2187151D1*
X885824Y2190979D1*
X891627Y2193935D1*
X897820Y2195947D1*
X904252Y2196966D1*
X970008Y2197094D1*
X1089295D1*
X1105709Y2213493D1*
X1097648Y2212151D1*
X1090352D1*
X1083145Y2213293D1*
X1076205Y2215548D1*
X1069704Y2218860D1*
X1063801Y2223149D1*
X1058641Y2228309D1*
X1054352Y2234212D1*
X1051040Y2240713D1*
X1048785Y2247653D1*
X1047643Y2254860D1*
Y2262156D1*
X1048785Y2269363D1*
X1051040Y2276303D1*
X1052514Y2279502D1*
X1052500Y2331311D1*
X1044000Y2331988D1*
X634088D1*
X627503Y2329264D1*
X620408Y2327560D1*
X613134Y2326988D1*
X605860Y2327560D1*
X598765Y2329264D1*
X592023Y2332056D1*
X585802Y2335869D1*
X580254Y2340608D1*
X575515Y2346156D1*
X571702Y2352377D1*
X568910Y2359119D1*
X567206Y2366214D1*
X566634Y2373488D1*
X567206Y2380762D1*
X568910Y2387857D1*
X571702Y2394599D1*
X575515Y2400820D1*
X580254Y2406368D1*
X585802Y2411107D1*
X592023Y2414920D1*
X598765Y2417712D1*
X605860Y2419416D1*
X613134Y2419988D1*
X620408Y2419416D1*
X627503Y2417712D1*
X634128Y2414974D1*
X1051855Y2414988D1*
X1052500Y2423488D1*
X1052628Y3631075D1*
X1053647Y3637507D1*
X1055659Y3643700D1*
X1058615Y3649503D1*
X1062443Y3654771D1*
X1067048Y3659376D1*
X1072316Y3663204D1*
X1078119Y3666160D1*
X1084312Y3668172D1*
X1090744Y3669191D1*
X1156500Y3669319D1*
X1249615D1*
X1256245Y3672043D1*
X1263340Y3673747D1*
X1270614Y3674319D1*
X1277888Y3673747D1*
X1284983Y3672043D1*
X1291725Y3669251D1*
X1297946Y3665438D1*
X1303494Y3660699D1*
X1308233Y3655151D1*
X1312046Y3648930D1*
X1314838Y3642188D1*
X1316542Y3635093D1*
X1317114Y3627819D1*
X1316542Y3620545D1*
X1314838Y3613450D1*
X1312046Y3606708D1*
X1308233Y3600487D1*
X1303494Y3594939D1*
X1297946Y3590200D1*
X1294873Y3588150D1*
X1302611Y3585038D1*
X1308832Y3581225D1*
X1311419Y3579186D1*
X1316999Y3588109D1*
X1324715Y3597143D1*
X1333749Y3604859D1*
X1343879Y3611067D1*
X1354855Y3615613D1*
X1366408Y3618387D1*
X1378252Y3619319D1*
X1390096Y3618387D1*
X1401648Y3615613D1*
X1412625Y3611067D1*
X1422755Y3604859D1*
X1431789Y3597143D1*
X1439505Y3588109D1*
X1445712Y3577979D1*
X1450259Y3567003D1*
X1453032Y3555450D1*
X1453965Y3543606D1*
X1453032Y3531762D1*
X1450259Y3520210D1*
X1445712Y3509233D1*
X1439505Y3499104D1*
X1431789Y3490069D1*
X1422755Y3482354D1*
X1412625Y3476146D1*
X1401648Y3471599D1*
X1390096Y3468826D1*
X1378252Y3467894D1*
X1366408Y3468826D1*
X1354855Y3471599D1*
X1343879Y3476146D1*
X1333749Y3482354D1*
X1324715Y3490069D1*
X1316999Y3499104D1*
X1311461Y3508038D1*
X1305796Y3503958D1*
X1299295Y3500646D1*
X1292355Y3498391D1*
X1285148Y3497249D1*
X1277852D1*
X1270645Y3498391D1*
X1263705Y3500646D1*
X1257121Y3504014D1*
X3725385Y3537666D2*
X3723526Y3525932D1*
X3719855Y3514632D1*
X3714461Y3504047D1*
X3707478Y3494435D1*
X3699077Y3486034D1*
X3689465Y3479051D1*
X3678879Y3473657D1*
X3667580Y3469986D1*
X3655846Y3468127D1*
X3643965D1*
X3632231Y3469986D1*
X3620932Y3473657D1*
X3610346Y3479051D1*
X3600734Y3486034D1*
X3592333Y3494435D1*
X3585350Y3504047D1*
X3579956Y3514632D1*
X3576285Y3525932D1*
X3574426Y3537666D1*
Y3549547D1*
X3576285Y3561281D1*
X3579956Y3572580D1*
X3585350Y3583166D1*
X3592333Y3592778D1*
X3600734Y3601179D1*
X3610346Y3608162D1*
X3620932Y3613556D1*
X3632231Y3617227D1*
X3643965Y3619086D1*
X3655846D1*
X3667580Y3617227D1*
X3678879Y3613556D1*
X3689465Y3608162D1*
X3699077Y3601179D1*
X3707478Y3592778D1*
X3714461Y3583166D1*
X3719855Y3572580D1*
X3723526Y3561281D1*
X3725385Y3549547D1*
Y3537666D1*
X3308686Y2951409D2*
X3307093Y2941353D1*
X3303947Y2931669D1*
X3299324Y2922597D1*
X3293340Y2914360D1*
X3289750Y2910497D1*
X3345642Y2910372D1*
X3352074Y2909353D1*
X3358267Y2907341D1*
X3364070Y2904385D1*
X3369338Y2900557D1*
X3415925Y2854151D1*
X3423943Y2845952D1*
X3427771Y2840684D1*
X3430727Y2834881D1*
X3432739Y2828688D1*
X3433758Y2822256D1*
X3433886Y2756500D1*
Y2461139D1*
X3459607Y2435469D1*
X3859720Y2435500D1*
X3866285Y2438224D1*
X3873380Y2439928D1*
X3880654Y2440500D1*
X3887928Y2439928D1*
X3895023Y2438224D1*
X3901765Y2435432D1*
X3907986Y2431619D1*
X3913534Y2426880D1*
X3918273Y2421332D1*
X3922086Y2415111D1*
X3924878Y2408369D1*
X3926582Y2401274D1*
X3927154Y2394000D1*
X3926582Y2386726D1*
X3924878Y2379631D1*
X3922086Y2372889D1*
X3918273Y2366668D1*
X3913534Y2361120D1*
X3907986Y2356381D1*
X3901765Y2352568D1*
X3895023Y2349776D1*
X3887928Y2348072D1*
X3880654Y2347500D1*
X3873380Y2348072D1*
X3866285Y2349776D1*
X3859660Y2352514D1*
X3439130Y2352628D1*
X3432698Y2353647D1*
X3426505Y2355659D1*
X3420702Y2358615D1*
X3415434Y2362443D1*
X3368847Y2408849D1*
X3360829Y2417048D1*
X3357001Y2422316D1*
X3354045Y2428119D1*
X3352033Y2434312D1*
X3351014Y2440744D1*
X3350886Y2506500D1*
Y2801861D1*
X3325165Y2827531D1*
X3241556Y2827500D1*
X3234987Y2824776D1*
X3227892Y2823072D1*
X3220618Y2822500D1*
X3213344Y2823072D1*
X3206249Y2824776D1*
X3199507Y2827568D1*
X3193286Y2831381D1*
X3187738Y2836120D1*
X3182999Y2841668D1*
X3179186Y2847889D1*
X3176394Y2854631D1*
X3174690Y2861726D1*
X3174118Y2869000D1*
X3174690Y2876274D1*
X3176394Y2883369D1*
X3179186Y2890111D1*
X3182999Y2896332D1*
X3187738Y2901880D1*
X3193286Y2906619D1*
X3198748Y2910007D1*
X3191506Y2918361D1*
X3186186Y2927042D1*
X3182290Y2936449D1*
X3179913Y2946350D1*
X3179114Y2956500D1*
X3179913Y2966650D1*
X3182290Y2976551D1*
X3186186Y2985958D1*
X3191506Y2994639D1*
X3198119Y3002381D1*
X3205861Y3008994D1*
X3214542Y3014314D1*
X3223949Y3018210D1*
X3233850Y3020587D1*
X3244000Y3021386D1*
X3254150Y3020587D1*
X3264051Y3018210D1*
X3273458Y3014314D1*
X3282139Y3008994D1*
X3289881Y3002381D1*
X3296494Y2994639D1*
X3301814Y2985958D1*
X3305710Y2976551D1*
X3308087Y2966650D1*
X3308886Y2956500D1*
X3308686Y2951409D1*
X1480829Y2540549D2*
X1479687Y2533342D1*
X1477432Y2526402D1*
X1475632Y2522601D1*
X1612268Y2522606D1*
X1619704Y2528254D1*
X1626205Y2531566D1*
X1633145Y2533821D1*
X1640352Y2534963D1*
X1647648D1*
X1654855Y2533821D1*
X1660015Y2532223D1*
X1660000Y2656525D1*
X1620914Y2617359D1*
X1620400Y2611726D1*
X1618696Y2604631D1*
X1615904Y2597889D1*
X1612091Y2591668D1*
X1607352Y2586120D1*
X1601804Y2581381D1*
X1595583Y2577568D1*
X1588841Y2574776D1*
X1581746Y2573072D1*
X1574472Y2572500D1*
X1567198Y2573072D1*
X1560103Y2574776D1*
X1553361Y2577568D1*
X1547140Y2581381D1*
X1541592Y2586120D1*
X1536853Y2591668D1*
X1533040Y2597889D1*
X1530248Y2604631D1*
X1528544Y2611726D1*
X1527972Y2619000D1*
X1528544Y2626274D1*
X1530248Y2633369D1*
X1533040Y2640111D1*
X1536853Y2646332D1*
X1541592Y2651880D1*
X1547140Y2656619D1*
X1553361Y2660432D1*
X1560103Y2663224D1*
X1567198Y2664928D1*
X1572833Y2665436D1*
X1600459Y2693071D1*
X1600472Y2812057D1*
X1594824Y2819507D1*
X1591512Y2826008D1*
X1589204Y2833214D1*
X1468438Y2712425D1*
X1468472Y2575908D1*
X1474120Y2568493D1*
X1477432Y2561992D1*
X1479687Y2555052D1*
X1480829Y2547845D1*
Y2540549D1*
X984885Y3261848D2*
X983743Y3254641D1*
X981488Y3247701D1*
X980014Y3244502D1*
X980028Y2765154D1*
X982752Y2758566D1*
X984456Y2751471D1*
X985028Y2744197D1*
X984456Y2736923D1*
X982752Y2729828D1*
X979960Y2723086D1*
X976147Y2716865D1*
X971408Y2711317D1*
X965860Y2706578D1*
X959639Y2702765D1*
X952897Y2699973D1*
X945802Y2698269D1*
X938528Y2697697D1*
X931254Y2698269D1*
X924159Y2699973D1*
X917534Y2702711D1*
X628714Y2702697D1*
X622149Y2699973D1*
X615054Y2698269D1*
X607780Y2697697D1*
X600506Y2698269D1*
X593411Y2699973D1*
X586669Y2702765D1*
X580448Y2706578D1*
X574900Y2711317D1*
X570161Y2716865D1*
X566348Y2723086D1*
X563556Y2729828D1*
X561852Y2736923D1*
X561280Y2744197D1*
X561852Y2751471D1*
X563556Y2758566D1*
X566348Y2765308D1*
X570161Y2771529D1*
X574900Y2777077D1*
X580448Y2781816D1*
X586669Y2785629D1*
X593411Y2788421D1*
X600506Y2790125D1*
X607780Y2790697D1*
X615054Y2790125D1*
X622149Y2788421D1*
X628774Y2785683D1*
X897087Y2785697D1*
X897028Y3244539D1*
X894304Y3251127D1*
X892600Y3258222D1*
X892028Y3265496D1*
X892600Y3272770D1*
X894304Y3279865D1*
X897096Y3286607D1*
X900909Y3292828D1*
X905648Y3298376D1*
X911196Y3303115D1*
X917417Y3306928D1*
X924159Y3309720D1*
X931254Y3311424D1*
X938528Y3311996D1*
X945802Y3311424D1*
X952897Y3309720D1*
X959639Y3306928D1*
X965860Y3303115D1*
X971408Y3298376D1*
X976147Y3292828D1*
X979960Y3286607D1*
X982752Y3279865D1*
X984456Y3272770D1*
X985028Y3265496D1*
X984885Y3261848D1*
D35*
X1394000Y2969000D3*
D36*
X1494000D3*
X1594000D3*
X1694000D3*
X1794000D3*
X1894000D3*
X1994000D3*
X2094000D3*
X2194000D3*
X2294000D3*
X2394000D3*
X2494000D3*
X2594000D3*
X2694000D3*
X2794000D3*
X2894000D3*
D35*
X1394000Y2369000D3*
D36*
X1494000D3*
X1594000D3*
X1694000D3*
X1794000D3*
X1894000D3*
X1994000D3*
X2094000D3*
X2194000D3*
X2294000D3*
X2394000D3*
X2494000D3*
X2594000D3*
X2694000D3*
X2794000D3*
X2894000D3*
D37*
X590850Y3543606D3*
D38*
X787701D3*
X984551D3*
D37*
X1181402D3*
D38*
X1378252D3*
X1575102D3*
D37*
X1771953D3*
D38*
X1968803D3*
X2165654D3*
D37*
X2665654D3*
D38*
X2862504D3*
X3059354D3*
D37*
X3256205D3*
D38*
X3453055D3*
X3649906D3*
D37*
X3846756D3*
D38*
X4043606D3*
X4240457D3*
D37*
X984551Y661717D3*
D38*
X787701D3*
X590850D3*
D37*
X1575102D3*
D38*
X1378252D3*
X1181402D3*
D37*
X2165654D3*
D38*
X1968803D3*
X1771953D3*
D37*
X3059354D3*
D38*
X2862504D3*
X2665654D3*
D37*
X3649906D3*
D38*
X3453055D3*
X3256205D3*
D37*
X4240457D3*
D38*
X4043606D3*
X3846756D3*
D39*
X3081500Y2081500D3*
D40*
X2781500D3*
D39*
X3081500Y1337406D3*
X2781500Y1211421D3*
X3081500Y1085437D3*
X3656500Y2081500D3*
D40*
X3356500D3*
D39*
X3656500Y1337406D3*
X3356500Y1211421D3*
X3656500Y1085437D3*
X4231500Y2069000D3*
D40*
X3931500D3*
D39*
X4231500Y1324906D3*
X3931500Y1198921D3*
X4231500Y1072937D3*
X3244000Y2956500D3*
D40*
Y2656500D3*
D39*
X3988094Y2956500D3*
X4114079Y2656500D3*
X4240063Y2956500D3*
X444000Y1656500D2*
D98*
X4381500D1*
Y469000D1*
X444000D1*
Y1656500D1*
X3744000Y3756500D2*
D23*
X4394000D1*
Y2581500D1*
X3744000D1*
Y3756500D1*
M02*
