%TF.GenerationSoftware,Novarm,DipTrace,3.0.0.2*%
%TF.CreationDate,2017-03-07T09:53:05+02:00*%
%FSLAX26Y26*%
%MOIN*%
%TF.FileFunction,Copper,L2,Bot*%
%TF.Part,Single*%
%TA.AperFunction,Conductor*%
%ADD14C,0.015*%
%ADD15C,0.02*%
%ADD16C,0.03*%
%ADD17C,0.023622*%
%ADD18C,0.085*%
%ADD20C,0.025591*%
%TA.AperFunction,CopperBalancing*%
%ADD21C,0.025*%
%TA.AperFunction,Nonconductor*%
%ADD23C,0.01*%
%TA.AperFunction,ComponentPad*%
%ADD35R,0.06378X0.06378*%
%ADD36C,0.06378*%
%ADD37R,0.098425X0.098425*%
%ADD38C,0.098425*%
%ADD39R,0.066929X0.066929*%
%ADD40C,0.066929*%
%ADD41C,0.076772*%
%ADD42R,0.076772X0.076772*%
%TA.AperFunction,ViaPad*%
%ADD53C,0.04*%
%TA.AperFunction,Nonconductor*%
%ADD108C,0.015*%
G75*
G01*
%LPD*%
X2710870Y3269000D2*
D14*
Y3055890D1*
X3461008Y3255496D2*
X3649906Y3444394D1*
Y3543606D1*
X2748370Y3219000D2*
Y3091248D1*
X2343390Y3090890D2*
Y3019610D1*
X2394000Y2969000D1*
X2294000Y3402091D2*
Y2969000D1*
X1688370Y3156500D2*
X2006500D1*
X2194000Y2969000D1*
X588134Y2029787D2*
D16*
X842583Y2284236D1*
X1068764D1*
X1118764Y2334236D1*
Y2763764D1*
X1236500Y2881500D1*
X3081500Y2081500D2*
X2764886Y1764886D1*
X2519000D1*
X2469000Y1814886D1*
Y2181484D1*
X2494000Y2206484D1*
Y2369000D1*
X3244000Y2956500D2*
X3659295Y2541205D1*
Y2394000D1*
X2469000Y2181484D2*
X2164004D1*
X2114004Y2131484D1*
Y1948803D1*
X2064004Y1898803D1*
X1919000D1*
X1685102Y3455496D2*
Y3627819D1*
X1884590D1*
X1968803Y3543606D1*
X1236500Y2881500D2*
X1181500Y2936500D1*
Y3042248D1*
X1336500Y3197248D1*
Y3405496D1*
X1386500Y3455496D1*
X1685102D1*
X2165654Y3543606D2*
D14*
Y3219000D1*
X2140654Y3194000D1*
X1668386D1*
X1643386Y3169000D1*
Y3068390D1*
X1668386Y3043390D1*
X1818390D1*
X1843390Y3018390D1*
Y2906303D1*
X1868390Y2881303D1*
X1943390D1*
X1968390Y2856303D1*
Y2639434D1*
X2094000Y2513824D1*
Y2369000D1*
X2665654Y3543606D2*
X2268390D1*
X2243390Y3518606D1*
Y2418390D1*
X2194000Y2369000D1*
X2294000D2*
X2343390Y2418390D1*
Y2578390D1*
X2368390Y2603390D1*
X2993390D1*
X3018390Y2628390D1*
Y3387720D1*
X2862504Y3543606D1*
X2394000Y2369000D2*
Y2553390D1*
X2419000Y2578390D1*
X3034354D1*
X3059354Y2603390D1*
Y3543606D1*
X1494000Y2969000D2*
Y3330500D1*
X1519000Y3355500D1*
X1746953D1*
X1771953Y3380500D1*
Y3543606D1*
X2043390Y2843803D2*
Y2993390D1*
X2018390Y3018390D1*
X1943390D1*
X1894000Y2969000D1*
X1794000Y2618803D2*
Y2969000D1*
X1694000Y2468390D2*
Y2969000D1*
X1434472Y2544197D2*
Y2726543D1*
X1594000Y2886071D1*
Y2969000D1*
X1681500Y1594433D2*
D15*
Y1260713D1*
X1559004Y1138217D1*
X1534004Y1163217D1*
X1406500D1*
X1559004Y1138217D2*
Y1091496D1*
X1719000Y931500D1*
X1831500Y1242287D2*
Y971500D1*
X1871500Y931500D1*
X2156500D1*
X991972Y2684992D2*
D16*
X1068764Y2761784D1*
Y3632819D1*
X1118764Y3682819D1*
X2019827D1*
X2078016Y3624630D1*
D17*
X2746677D1*
Y3475043D1*
X2844098Y3377622D1*
X613134Y2373488D2*
D16*
X991972D1*
X2078016Y3624630D2*
X2053016Y3599630D1*
Y3292091D1*
X1244000Y1594433D2*
D15*
Y1210315D1*
X1171500Y1137815D1*
X1146500Y1162815D1*
X981500D1*
X1171500Y1137815D2*
Y1054000D1*
X1294000Y931500D1*
X2781500Y2081500D2*
D14*
X2980890Y2280890D1*
Y2353449D1*
X1275220Y2974020D2*
X1284000Y2965240D1*
Y2513606D1*
X1309000Y2488606D1*
X1644000D1*
X600004Y1591984D2*
D15*
Y1200496D1*
X869000Y931500D1*
X1913524Y2843803D2*
D14*
X1943390Y2813937D1*
Y2076358D1*
X1869004Y2001972D1*
Y1841697D1*
X1894004Y1816697D1*
X2011303D1*
X2021697Y1806303D1*
X2192996D1*
X2217996Y1831303D1*
Y2016500D1*
X2242996Y2041500D1*
X2334413D1*
X2359414Y2016499D1*
Y1747386D1*
X2384414Y1722386D1*
X3174394D1*
X3199394Y1747386D1*
Y2340496D1*
X2453528Y2503390D2*
X2888390D1*
X2948390Y2443390D1*
X3349335D1*
X3399394Y2393331D1*
X2009004Y2544000D2*
Y2430890D1*
X2196976Y2674394D2*
X2143390Y2620808D1*
Y2311008D1*
X2431500Y3103610D2*
Y3356894D1*
X2456500Y3381894D1*
X2618390D1*
X2643390Y3356894D1*
Y2811205D1*
X1574472Y2619000D2*
X1643390Y2687918D1*
Y2906894D1*
Y3005886D1*
X1618386Y3030890D1*
Y3240496D1*
X1643386Y3265496D1*
X1851165D1*
X1231500Y2113980D2*
X1467996D1*
X1830496Y2163980D2*
X1331500D1*
X2082508Y1843803D2*
X2167996D1*
X2192996Y1868803D1*
Y2126480D1*
X2980890Y3030890D2*
X2785870D1*
X1194000Y1963587D2*
Y2489008D1*
X2281500Y1713409D2*
Y2004000D1*
X612780Y2744197D2*
D16*
X938528D1*
X2945909Y3330122D2*
D14*
X2693390D1*
X2668390Y3305122D1*
Y3043390D1*
X2693390Y3018390D1*
X2718390D1*
X2743390Y2993390D1*
Y2891500D1*
X2768390Y2866500D1*
X2811028D1*
X2836028Y2841500D1*
Y2683878D1*
X2811028Y2658878D1*
X2328528D1*
X2303528Y2633878D1*
Y2544000D1*
X2900969Y3068390D2*
X2895909Y3073450D1*
Y3280122D1*
X2945909Y3330122D1*
X3356500Y2081500D2*
X3261894Y2176106D1*
Y2301540D1*
X3313803Y2353449D1*
X3248862Y2418390D1*
X2900890D1*
X2880890Y2438390D1*
Y2453390D1*
X3931500Y2069000D2*
X3747504Y2252996D1*
X3499394D1*
X3474394Y2277996D1*
Y2340949D1*
X3486894Y2353449D1*
X3244000Y2735142D2*
Y2656500D1*
X3449394Y2391618D2*
Y2040618D1*
X3424394Y2015618D1*
X3261894D1*
X3236894Y2040618D1*
Y2365949D1*
X3211894Y2390949D1*
X2943390D1*
Y2340953D1*
X2918390Y2315953D1*
X2868390D1*
X2843390Y2340953D1*
Y2440890D1*
X2818390Y2465890D1*
X2603528D1*
X4011500Y2486520D2*
X3871480Y2346500D1*
X3586796D1*
X3464906Y2468390D1*
X3070606D1*
X2998106Y2540890D1*
X2821972D1*
X3156854Y2618803D2*
X3199767Y2575890D1*
X3376043D1*
X3438543Y2638390D1*
X2151028Y2711894D2*
X2019000D1*
X1994000Y2736894D1*
Y2969000D1*
X2665654Y661717D2*
D18*
Y788430D1*
X2781500Y904276D1*
Y1211421D1*
X2862504Y661717D2*
X2901500Y700713D1*
Y1157406D1*
X3081500Y1337406D1*
X3059354Y661717D2*
Y788429D1*
X3081500Y810575D1*
Y1085437D1*
X3256205Y661717D2*
Y788429D1*
X3356500Y888724D1*
Y1211421D1*
X3453055Y661717D2*
X3476500Y685161D1*
Y1157406D1*
X3656500Y1337406D1*
X3649906Y661717D2*
X3656500Y668311D1*
Y1085437D1*
X3846756Y661717D2*
Y988197D1*
X3931500Y1072941D1*
Y1198921D1*
X4043606Y661717D2*
Y1024480D1*
X4051500Y1032374D1*
Y1144906D1*
X4231500Y1324906D1*
X4240457Y661717D2*
Y788429D1*
X4231500Y797386D1*
Y1072937D1*
X3846756Y3543606D2*
Y2814890D1*
X3966756Y2694890D1*
X4114079D1*
Y2656500D1*
X4043606Y3543606D2*
Y3127898D1*
X3988094Y3072386D1*
Y2956500D1*
X4240457Y3543606D2*
Y3177091D1*
X4240063Y3176697D1*
Y2956500D1*
X1281500Y3319669D2*
D14*
Y3518606D1*
X1306500Y3543606D1*
X1378252D1*
X1831500Y750929D2*
D15*
X1791953D1*
X1771953Y730929D1*
Y661717D1*
X1894000Y2369000D2*
D14*
Y2089165D1*
X1869000Y2064165D1*
X1670654D1*
X2054358Y2076661D2*
X1994000Y2137019D1*
Y2369000D1*
X1022504Y1963587D2*
D16*
Y1794197D1*
X997504Y1769197D1*
X851500D1*
X801500Y1819197D1*
Y1963587D1*
X556642D1*
X506642Y2013587D1*
Y3065697D1*
X984551Y3543606D1*
X2489000Y3334394D2*
X2552130Y3271264D1*
Y3119000D1*
X1022504Y1794197D2*
X1047504Y1769197D1*
X1749472D1*
X801500Y1963587D2*
Y2086893D1*
X943843Y2229236D1*
X2638528Y1843803D2*
X2694000Y1899275D1*
Y2369000D1*
X2494000Y2969000D2*
Y2783409D1*
X2457114D1*
X2427114Y2753409D1*
X2361972D1*
X3144787Y2528390D2*
X3241795D1*
X3453055Y3543606D2*
X3303449Y3394000D1*
X3143567D1*
Y3127504D1*
X3101854Y3085791D1*
Y2571323D1*
X3144787Y2528390D1*
X984551Y3543606D2*
Y3682819D1*
X1034551Y3732819D1*
X3263842D1*
X3453055Y3543606D1*
X2494000Y2783409D2*
D20*
X2519000Y2758409D1*
X2727937D1*
X2788528Y2819000D1*
X2552130Y3119000D2*
D16*
X2494000Y3060870D1*
Y2969000D1*
X1749472Y1769197D2*
X1908803D1*
X1974000Y1704000D1*
D53*
X2710870Y3055890D3*
Y3269000D3*
X3461008Y3255496D3*
X2748370Y3091248D3*
Y3219000D3*
X2343390Y3090890D3*
X2294000Y3402091D3*
X1688370Y3156500D3*
X3659295Y2394000D3*
X1919000Y1898803D3*
X1270614Y3627819D3*
X1685102Y3455496D3*
X1236500Y2881500D3*
X588134Y2029787D3*
X2043390Y2843803D3*
X1794000Y2618803D3*
X1694000Y2468390D3*
X1434472Y2544197D3*
X1406500Y1163217D3*
X1681500Y1594433D3*
X1831500Y1242287D3*
X2844098Y3377622D3*
X991972Y2684992D3*
Y2373488D3*
X613134D3*
X2053016Y3292091D3*
X981500Y1162815D3*
X1244000Y1594433D3*
X2980890Y2353449D3*
X1644000Y2488606D3*
X1275220Y2974020D3*
X600004Y1591984D3*
X3199394Y2340496D3*
X1913524Y2843803D3*
X3399394Y2393331D3*
X2453528Y2503390D3*
X2009004Y2430890D3*
Y2544000D3*
X2143390Y2311008D3*
X2196976Y2674394D3*
X2643390Y2811205D3*
X2431500Y3103610D3*
X1851165Y3265496D3*
X1574472Y2619000D3*
X1643390Y2906894D3*
X1467996Y2113980D3*
X1231500D3*
X1331500Y2163980D3*
X1830496D3*
X2192996Y2126480D3*
X2082508Y1843803D3*
X2785870Y3030890D3*
X2980890D3*
X1194000Y2489008D3*
Y1963587D3*
X2281500Y2004000D3*
Y1713409D3*
X938528Y2744197D3*
X612780D3*
X2945909Y3330122D3*
X2900969Y3068390D3*
X2303528Y2544000D3*
X2880890Y2453390D3*
X3313803Y2353449D3*
X3486894D3*
X3244000Y2735142D3*
X2603528Y2465890D3*
X3449394Y2391618D3*
X2821972Y2540890D3*
X4011500Y2486520D3*
X3438543Y2638390D3*
X3156854Y2618803D3*
X2151028Y2711894D3*
X1281500Y3319669D3*
X1831500Y750929D3*
X1670654Y2064165D3*
X2054358Y2076661D3*
X1974000Y1704000D3*
X2552130Y3119000D3*
X1022504Y1963587D3*
X943843Y2229236D3*
X3241795Y2528390D3*
X2638528Y1843803D3*
X2788528Y2819000D3*
X2489000Y3334394D3*
X3144787Y2528390D3*
X2361972Y2753409D3*
X1749472Y1769197D3*
X3338712Y3719131D2*
D21*
X3710030D1*
X496036Y3694262D2*
X942159D1*
X3363565D2*
X3710030D1*
X495597Y3669394D2*
X940548D1*
X1032315D2*
X1044161D1*
X2094425D2*
X3266085D1*
X3388419D2*
X3710030D1*
X495157Y3644525D2*
X940548D1*
X2781925D2*
X3290987D1*
X3413321D2*
X3710030D1*
X494718Y3619656D2*
X940548D1*
X1116788D2*
X1222335D1*
X1318888D2*
X1641134D1*
X1953946D2*
X2014181D1*
X2787491D2*
X3315841D1*
X3438175D2*
X3710030D1*
X494229Y3594787D2*
X512618D1*
X669083D2*
X729415D1*
X845987D2*
X926241D1*
X1305851D2*
X1319942D1*
X1436563D2*
X1516817D1*
X1633390D2*
X1641116D1*
X2787491D2*
X2804220D1*
X2920792D2*
X3001046D1*
X3117667D2*
X3177999D1*
X3511368D2*
X3591622D1*
X493790Y3569919D2*
X512618D1*
X669083D2*
X714229D1*
X861173D2*
X911056D1*
X1259610D2*
X1282491D1*
X1451749D2*
X1501632D1*
X1850187D2*
X1881319D1*
X2935978D2*
X2985860D1*
X3132853D2*
X3177999D1*
X3334415D2*
X3365548D1*
X3526554D2*
X3576437D1*
X493351Y3545050D2*
X512618D1*
X669083D2*
X709493D1*
X865909D2*
X906368D1*
X1456437D2*
X1496896D1*
X1850187D2*
X1890597D1*
X2940714D2*
X2981173D1*
X3137540D2*
X3177999D1*
X3334415D2*
X3374874D1*
X3531241D2*
X3571700D1*
X492911Y3520181D2*
X512618D1*
X669083D2*
X713204D1*
X862198D2*
X899972D1*
X1452726D2*
X1500606D1*
X1850187D2*
X1894308D1*
X2937003D2*
X2984835D1*
X3133829D2*
X3177999D1*
X3334415D2*
X3368478D1*
X3527530D2*
X3575411D1*
X492423Y3495312D2*
X512618D1*
X669083D2*
X726876D1*
X848526D2*
X875069D1*
X1850187D2*
X1907979D1*
X2097013D2*
X2104878D1*
X2279874D2*
X2587423D1*
X2787491D2*
X2801689D1*
X2961368D2*
X2998556D1*
X3120157D2*
X3177999D1*
X3334415D2*
X3343580D1*
X3513858D2*
X3589083D1*
X491983Y3470444D2*
X512618D1*
X669083D2*
X765694D1*
X809708D2*
X850216D1*
X1006534D2*
X1024776D1*
X1318009D2*
X1340255D1*
X1850187D2*
X1946798D1*
X1990763D2*
X2009005D1*
X2097013D2*
X2129171D1*
X2279874D2*
X2587423D1*
X2807950D2*
X2840499D1*
X2986222D2*
X3022872D1*
X3095841D2*
X3177999D1*
X3475040D2*
X3613399D1*
X3686368D2*
X3710030D1*
X491544Y3445575D2*
X825362D1*
X947696D2*
X1024776D1*
X1112735D2*
X1244991D1*
X1808438D2*
X2009005D1*
X2097013D2*
X2129171D1*
X2312979D2*
X2719503D1*
X2832804D2*
X2909981D1*
X3011124D2*
X3022879D1*
X3095841D2*
X3293868D1*
X3416202D2*
X3600509D1*
X3686368D2*
X3710030D1*
X491056Y3420706D2*
X800460D1*
X922843D2*
X1024776D1*
X1112735D2*
X1244991D1*
X1718448D2*
X1735470D1*
X1808438D2*
X2009005D1*
X2097013D2*
X2129171D1*
X2339103D2*
X2744356D1*
X2864103D2*
X2934835D1*
X3095841D2*
X3109298D1*
X3391349D2*
X3575655D1*
X3676798D2*
X3710030D1*
X490616Y3395837D2*
X775606D1*
X897940D2*
X1024776D1*
X1112735D2*
X1244991D1*
X1388028D2*
X1735470D1*
X1808438D2*
X2009005D1*
X2097013D2*
X2129171D1*
X2342569D2*
X2419894D1*
X2655021D2*
X2769210D1*
X2889396D2*
X2959688D1*
X3366446D2*
X3550802D1*
X3651896D2*
X3710030D1*
X490177Y3370969D2*
X750753D1*
X873087D2*
X1024776D1*
X1112735D2*
X1244991D1*
X1380509D2*
X1483907D1*
X1807071D2*
X2009005D1*
X2097013D2*
X2129171D1*
X2331046D2*
X2398067D1*
X2676847D2*
X2794112D1*
X2892618D2*
X2921163D1*
X2970646D2*
X2981905D1*
X3341593D2*
X3525899D1*
X3627042D2*
X3710030D1*
X489737Y3346100D2*
X725851D1*
X848233D2*
X1024776D1*
X1112735D2*
X1240743D1*
X1380509D2*
X1461300D1*
X1788126D2*
X2009005D1*
X2097013D2*
X2129171D1*
X2330509D2*
X2394991D1*
X2538468D2*
X2603634D1*
X3187540D2*
X3501046D1*
X3602188D2*
X3710030D1*
X489249Y3321231D2*
X700997D1*
X823331D2*
X1024776D1*
X1112735D2*
X1232540D1*
X1380509D2*
X1457491D1*
X1535294D2*
X2009005D1*
X2097013D2*
X2129171D1*
X2330509D2*
X2394991D1*
X2563321D2*
X2606905D1*
X3187540D2*
X3476192D1*
X3577286D2*
X3710030D1*
X488810Y3296362D2*
X676144D1*
X798478D2*
X1024776D1*
X1112735D2*
X1238741D1*
X1380509D2*
X1457491D1*
X1530509D2*
X1626681D1*
X1888419D2*
X2004220D1*
X2101798D2*
X2129171D1*
X2330509D2*
X2394991D1*
X2587687D2*
X2606905D1*
X3187540D2*
X3436300D1*
X3552433D2*
X3710030D1*
X488370Y3271493D2*
X651290D1*
X773624D2*
X1024776D1*
X1112735D2*
X1292501D1*
X1380509D2*
X1457491D1*
X1530509D2*
X1598800D1*
X1899796D2*
X2008810D1*
X2097208D2*
X2129171D1*
X2330509D2*
X2394991D1*
X2468009D2*
X2490743D1*
X2596134D2*
X2606905D1*
X2759806D2*
X2859444D1*
X2937833D2*
X2981905D1*
X3187540D2*
X3414864D1*
X3527579D2*
X3710030D1*
X487931Y3246625D2*
X626388D1*
X748722D2*
X1024776D1*
X1112735D2*
X1292501D1*
X1380509D2*
X1457491D1*
X1530509D2*
X1582442D1*
X1896183D2*
X2040743D1*
X2065274D2*
X2129171D1*
X2330509D2*
X2394991D1*
X2468009D2*
X2508126D1*
X2596134D2*
X2606905D1*
X2788272D2*
X2859444D1*
X2932413D2*
X2981905D1*
X3187540D2*
X3412862D1*
X3509171D2*
X3710030D1*
X487442Y3221756D2*
X601534D1*
X723868D2*
X1024776D1*
X1112735D2*
X1292501D1*
X1380509D2*
X1457491D1*
X1530509D2*
X1581905D1*
X2330509D2*
X2394991D1*
X2468009D2*
X2508126D1*
X2596134D2*
X2606905D1*
X2797306D2*
X2859444D1*
X2932413D2*
X2981905D1*
X3187540D2*
X3426534D1*
X3495499D2*
X3710030D1*
X487003Y3196887D2*
X576681D1*
X699015D2*
X1024776D1*
X1112735D2*
X1274972D1*
X1380509D2*
X1457491D1*
X1530509D2*
X1581905D1*
X2193985D2*
X2206905D1*
X2330509D2*
X2394991D1*
X2468009D2*
X2508126D1*
X2596134D2*
X2606905D1*
X2791788D2*
X2859444D1*
X2932413D2*
X2981905D1*
X3187540D2*
X3710030D1*
X486563Y3172018D2*
X551778D1*
X674112D2*
X1024776D1*
X1112735D2*
X1250118D1*
X1371915D2*
X1457491D1*
X1530509D2*
X1581905D1*
X2169229D2*
X2206905D1*
X2330509D2*
X2394991D1*
X2468009D2*
X2508126D1*
X2596134D2*
X2606905D1*
X2784854D2*
X2859444D1*
X2932413D2*
X2981905D1*
X3187540D2*
X3710030D1*
X486124Y3147150D2*
X526925D1*
X649259D2*
X1024776D1*
X1112735D2*
X1225216D1*
X1347550D2*
X1457491D1*
X1530509D2*
X1581905D1*
X2066397D2*
X2206905D1*
X2330509D2*
X2394991D1*
X2468009D2*
X2508126D1*
X2596134D2*
X2606905D1*
X2784854D2*
X2859444D1*
X2932413D2*
X2981905D1*
X3187540D2*
X3710030D1*
X485636Y3122281D2*
X502038D1*
X624405D2*
X1024776D1*
X1112735D2*
X1200362D1*
X1322696D2*
X1457491D1*
X1530509D2*
X1581905D1*
X1722354D2*
X1990157D1*
X2091300D2*
X2206905D1*
X2476603D2*
X2494259D1*
X2785489D2*
X2859444D1*
X2932413D2*
X2981905D1*
X3187247D2*
X3710030D1*
X599552Y3097412D2*
X1024776D1*
X1112735D2*
X1175509D1*
X1297843D2*
X1457491D1*
X1530509D2*
X1581905D1*
X1679874D2*
X2015011D1*
X2116153D2*
X2206905D1*
X2595792D2*
X2606905D1*
X2796964D2*
X2859444D1*
X2939786D2*
X2981905D1*
X3174649D2*
X3710030D1*
X574649Y3072543D2*
X1024776D1*
X1112735D2*
X1150606D1*
X1272989D2*
X1457491D1*
X1530509D2*
X1581905D1*
X1838370D2*
X2039913D1*
X2141007D2*
X2206905D1*
X2566837D2*
X2606905D1*
X2809024D2*
X2852169D1*
X2949796D2*
X2957725D1*
X3149796D2*
X3710030D1*
X550626Y3047675D2*
X1024776D1*
X1112735D2*
X1137862D1*
X1248087D2*
X1457491D1*
X1530509D2*
X1581905D1*
X1864688D2*
X1923653D1*
X2038126D2*
X2064767D1*
X2165909D2*
X2206905D1*
X2379874D2*
X2450021D1*
X2541983D2*
X2606905D1*
X3145841D2*
X3710030D1*
X550626Y3022806D2*
X1024776D1*
X1112735D2*
X1137521D1*
X1225479D2*
X1333126D1*
X1530509D2*
X1568819D1*
X2419181D2*
X2450021D1*
X2537979D2*
X2568819D1*
X3145841D2*
X3710030D1*
X550626Y2997937D2*
X1024776D1*
X1112735D2*
X1137521D1*
X1317618D2*
X1333126D1*
X3145841D2*
X3191573D1*
X3296427D2*
X3710030D1*
X550626Y2973068D2*
X1024776D1*
X1112735D2*
X1137521D1*
X1324210D2*
X1333098D1*
X2954728D2*
X2981905D1*
X3145841D2*
X3178780D1*
X3309220D2*
X3710030D1*
X550626Y2948199D2*
X1024776D1*
X1112735D2*
X1137521D1*
X1320499D2*
X1333126D1*
X2951065D2*
X2981905D1*
X3145841D2*
X3177169D1*
X3313468D2*
X3710030D1*
X550626Y2923331D2*
X1024776D1*
X1112735D2*
X1139669D1*
X1320499D2*
X1333126D1*
X1532901D2*
X1555099D1*
X1732901D2*
X1755099D1*
X2132901D2*
X2155099D1*
X2332901D2*
X2355099D1*
X2432901D2*
X2450021D1*
X2537979D2*
X2555099D1*
X2832901D2*
X2855099D1*
X2932901D2*
X2981905D1*
X3145841D2*
X3185714D1*
X3338321D2*
X3710030D1*
X550626Y2898462D2*
X1024776D1*
X1112735D2*
X1158370D1*
X1320499D2*
X1555831D1*
X1730509D2*
X1757491D1*
X2079874D2*
X2206905D1*
X2279874D2*
X2450021D1*
X2537979D2*
X2606905D1*
X2679874D2*
X2706905D1*
X2825089D2*
X2981905D1*
X3145841D2*
X3212472D1*
X3363224D2*
X3710030D1*
X550626Y2873593D2*
X1024776D1*
X1112735D2*
X1167403D1*
X1320499D2*
X1530978D1*
X1730509D2*
X1757491D1*
X2081583D2*
X2206905D1*
X2279874D2*
X2450021D1*
X2537979D2*
X2606905D1*
X2679874D2*
X2711983D1*
X2854483D2*
X2981905D1*
X3145841D2*
X3265743D1*
X3388077D2*
X3710030D1*
X550626Y2848724D2*
X1024776D1*
X1112735D2*
X1142550D1*
X1320499D2*
X1506075D1*
X1730509D2*
X1757491D1*
X1830509D2*
X1856222D1*
X2092130D2*
X2206905D1*
X2279874D2*
X2450021D1*
X2537979D2*
X2606905D1*
X2679874D2*
X2735616D1*
X2871720D2*
X2981905D1*
X3145841D2*
X3290597D1*
X3412931D2*
X3710030D1*
X550626Y2823856D2*
X1024776D1*
X1320499D2*
X1481222D1*
X1582364D2*
X1606905D1*
X1730509D2*
X1757491D1*
X1830509D2*
X1869015D1*
X2087882D2*
X2206905D1*
X2279874D2*
X2445382D1*
X2537979D2*
X2596163D1*
X2690616D2*
X2735323D1*
X2872501D2*
X2981905D1*
X3145841D2*
X3315450D1*
X3437833D2*
X3710030D1*
X550626Y2798987D2*
X1024776D1*
X1215177D2*
X1247530D1*
X1320499D2*
X1456368D1*
X1557462D2*
X1606905D1*
X1730509D2*
X1757491D1*
X1830509D2*
X1898604D1*
X2058292D2*
X2206905D1*
X2279874D2*
X2350265D1*
X2373673D2*
X2411544D1*
X2537979D2*
X2596017D1*
X2690763D2*
X2710470D1*
X2872501D2*
X2981905D1*
X3145841D2*
X3340353D1*
X3462687D2*
X3710030D1*
X550626Y2774118D2*
X574679D1*
X976603D2*
X1019942D1*
X1190274D2*
X1247530D1*
X1320499D2*
X1431466D1*
X1532608D2*
X1606905D1*
X1730509D2*
X1757491D1*
X1830509D2*
X1906905D1*
X2030509D2*
X2206905D1*
X2279874D2*
X2317843D1*
X2872501D2*
X2981905D1*
X3145841D2*
X3216134D1*
X3271866D2*
X3365206D1*
X3487540D2*
X3710030D1*
X550626Y2749249D2*
X564095D1*
X987247D2*
X995035D1*
X1165421D2*
X1247530D1*
X1320499D2*
X1406661D1*
X1507755D2*
X1606905D1*
X1730509D2*
X1757491D1*
X1830509D2*
X1906905D1*
X2032218D2*
X2120821D1*
X2181241D2*
X2206905D1*
X2279874D2*
X2313155D1*
X2776847D2*
X2799532D1*
X2872501D2*
X2981905D1*
X3145841D2*
X3197188D1*
X3290812D2*
X3390060D1*
X3512442D2*
X3710030D1*
X550626Y2724381D2*
X568233D1*
X1162735D2*
X1247530D1*
X1320499D2*
X1397970D1*
X1482853D2*
X1606905D1*
X1730509D2*
X1757491D1*
X1830509D2*
X1906905D1*
X2198331D2*
X2206861D1*
X2279874D2*
X2323165D1*
X2459269D2*
X2496896D1*
X2750040D2*
X2799532D1*
X2872501D2*
X2981905D1*
X3145841D2*
X3196261D1*
X3291739D2*
X3414962D1*
X3537296D2*
X3710030D1*
X550626Y2699512D2*
X597433D1*
X628165D2*
X923165D1*
X1162735D2*
X1247530D1*
X1320499D2*
X1397970D1*
X1470938D2*
X1604415D1*
X1730509D2*
X1757491D1*
X1830509D2*
X1906905D1*
X2279874D2*
X2799532D1*
X2872501D2*
X2981905D1*
X3145841D2*
X3176632D1*
X3311368D2*
X3439815D1*
X3562149D2*
X3710030D1*
X550626Y2674643D2*
X944161D1*
X1042813D2*
X1074776D1*
X1162735D2*
X1247530D1*
X1320499D2*
X1397970D1*
X1470938D2*
X1579562D1*
X1730509D2*
X1757491D1*
X1830509D2*
X1906905D1*
X2004874D2*
X2120675D1*
X2279874D2*
X2293722D1*
X2871231D2*
X2981905D1*
X3145841D2*
X3176632D1*
X3311368D2*
X3406905D1*
X3587052D2*
X3710030D1*
X550626Y2649774D2*
X959103D1*
X1024845D2*
X1074776D1*
X1162735D2*
X1247530D1*
X1320499D2*
X1397970D1*
X1470938D2*
X1537130D1*
X1730509D2*
X1756808D1*
X1831192D2*
X1906905D1*
X2008634D2*
X2121798D1*
X2852481D2*
X2981905D1*
X3311368D2*
X3390938D1*
X3611905D2*
X3710030D1*
X550626Y2624906D2*
X1074776D1*
X1162735D2*
X1247530D1*
X1320499D2*
X1397970D1*
X1470938D2*
X1525851D1*
X1630948D2*
X1657491D1*
X1730509D2*
X1745382D1*
X1842618D2*
X1906905D1*
X2033487D2*
X2107149D1*
X2198038D2*
X2206923D1*
X3311368D2*
X3374483D1*
X3485538D2*
X3514425D1*
X3636759D2*
X3710030D1*
X550626Y2600037D2*
X1074776D1*
X1162735D2*
X1247530D1*
X1320499D2*
X1397970D1*
X1470938D2*
X1529513D1*
X1619425D2*
X1657491D1*
X1730509D2*
X1748946D1*
X1839054D2*
X1906905D1*
X2058341D2*
X2106905D1*
X2179874D2*
X2206905D1*
X3467325D2*
X3539278D1*
X3661612D2*
X3710030D1*
X550626Y2575168D2*
X1074776D1*
X1162735D2*
X1247530D1*
X1320499D2*
X1397286D1*
X1471671D2*
X1556466D1*
X1592472D2*
X1657491D1*
X1730509D2*
X1775411D1*
X1812589D2*
X1906905D1*
X2083243D2*
X2106905D1*
X2179874D2*
X2206905D1*
X3425870D2*
X3564181D1*
X3686515D2*
X3710665D1*
X550626Y2550299D2*
X1074776D1*
X1162735D2*
X1247530D1*
X1320499D2*
X1385860D1*
X1483048D2*
X1657491D1*
X1730509D2*
X1906905D1*
X2179874D2*
X2206905D1*
X3055997D2*
X3063563D1*
X3400919D2*
X3589034D1*
X3702286D2*
X3737276D1*
X550626Y2525430D2*
X1074776D1*
X1225431D2*
X1247530D1*
X1322745D2*
X1389425D1*
X1479532D2*
X1613106D1*
X1730509D2*
X1906905D1*
X2179874D2*
X2206905D1*
X3064151D2*
X3086593D1*
X3290714D2*
X3613888D1*
X3703263D2*
X3983517D1*
X4039444D2*
X4378390D1*
X550626Y2500562D2*
X1074776D1*
X1241544D2*
X1250147D1*
X1730509D2*
X1906905D1*
X2045499D2*
X2056710D1*
X2179874D2*
X2206905D1*
X2941788D2*
X2987862D1*
X3478360D2*
X3615304D1*
X3703263D2*
X3964669D1*
X4058341D2*
X4378048D1*
X550626Y2475693D2*
X1074776D1*
X1241056D2*
X1271358D1*
X1742423D2*
X1906905D1*
X2045499D2*
X2057491D1*
X2179874D2*
X2206905D1*
X2279874D2*
X2306905D1*
X3508146D2*
X3615304D1*
X3703263D2*
X3950118D1*
X4059220D2*
X4377706D1*
X550626Y2450824D2*
X1074776D1*
X1230509D2*
X1614376D1*
X1739542D2*
X1906905D1*
X2179874D2*
X2206905D1*
X2279874D2*
X2306905D1*
X2430509D2*
X2557052D1*
X3533048D2*
X3615304D1*
X3703263D2*
X3925216D1*
X4043790D2*
X4377364D1*
X550626Y2425955D2*
X1074776D1*
X1230509D2*
X1333126D1*
X1454874D2*
X1478634D1*
X1509366D2*
X1578634D1*
X1609366D2*
X1672481D1*
X1715519D2*
X1778634D1*
X1809366D2*
X1878634D1*
X2430509D2*
X2478634D1*
X2509366D2*
X2577218D1*
X2629825D2*
X2678634D1*
X2709366D2*
X2778634D1*
X3557901D2*
X3615304D1*
X3703263D2*
X3900362D1*
X4001505D2*
X4377022D1*
X550626Y2401087D2*
X573214D1*
X1031876D2*
X1074776D1*
X1230509D2*
X1333126D1*
X3316739D2*
X3341085D1*
X3582755D2*
X3610860D1*
X3707755D2*
X3875509D1*
X3976651D2*
X4376681D1*
X550626Y2376218D2*
X564176D1*
X1040909D2*
X1074776D1*
X1230509D2*
X1333126D1*
X3951749D2*
X4376339D1*
X550626Y2351349D2*
X569747D1*
X1035343D2*
X1074728D1*
X1230509D2*
X1333126D1*
X3029825D2*
X3151681D1*
X3362735D2*
X3376882D1*
X3926896D2*
X4375997D1*
X550626Y2326480D2*
X1049825D1*
X1230509D2*
X1333126D1*
X1536515D2*
X1551497D1*
X1636515D2*
X1651497D1*
X1736515D2*
X1751497D1*
X1836515D2*
X1851497D1*
X2036515D2*
X2051497D1*
X2236515D2*
X2251497D1*
X2336515D2*
X2351497D1*
X2436515D2*
X2450004D1*
X2537979D2*
X2551496D1*
X2636515D2*
X2650004D1*
X2737979D2*
X2751496D1*
X3021280D2*
X3152560D1*
X3354190D2*
X3412911D1*
X3527286D2*
X3556271D1*
X3902042D2*
X4375655D1*
X550626Y2301612D2*
X798800D1*
X1147306D2*
X1157474D1*
X1230509D2*
X1857491D1*
X2030509D2*
X2095333D1*
X2191446D2*
X2450021D1*
X2537979D2*
X2650021D1*
X2737979D2*
X2832149D1*
X3017374D2*
X3162911D1*
X3312540D2*
X3412911D1*
X3510880D2*
X4375313D1*
X550626Y2276743D2*
X773897D1*
X1122452D2*
X1157491D1*
X1230509D2*
X1857491D1*
X2030509D2*
X2109444D1*
X2177335D2*
X2450021D1*
X2537979D2*
X2650021D1*
X2737979D2*
X2926192D1*
X3017130D2*
X3162911D1*
X3298380D2*
X3412911D1*
X3774308D2*
X4374972D1*
X550626Y2251874D2*
X749044D1*
X1097208D2*
X1157491D1*
X1230509D2*
X1857491D1*
X2030509D2*
X2450021D1*
X2537979D2*
X2650021D1*
X2737979D2*
X2901290D1*
X3002433D2*
X3162911D1*
X3298380D2*
X3412911D1*
X3799210D2*
X4374679D1*
X550626Y2227005D2*
X724190D1*
X846524D2*
X880440D1*
X992813D2*
X1157491D1*
X1230509D2*
X1857491D1*
X2030509D2*
X2450021D1*
X2537979D2*
X2650021D1*
X2737979D2*
X2876437D1*
X2977579D2*
X3162911D1*
X3298380D2*
X3412911D1*
X3824063D2*
X4374337D1*
X550626Y2202136D2*
X699288D1*
X821671D2*
X855587D1*
X984122D2*
X1157491D1*
X1230509D2*
X1302413D1*
X1360587D2*
X1801437D1*
X2030509D2*
X2123507D1*
X2537735D2*
X2650021D1*
X2737979D2*
X2851583D1*
X2952726D2*
X3162911D1*
X3298380D2*
X3412911D1*
X3485880D2*
X3747774D1*
X3848917D2*
X4373995D1*
X550626Y2177268D2*
X674435D1*
X796769D2*
X830685D1*
X953067D2*
X1157491D1*
X1230509D2*
X1284444D1*
X2030509D2*
X2098604D1*
X2525968D2*
X2650021D1*
X2737979D2*
X2826681D1*
X2927823D2*
X3162911D1*
X3311319D2*
X3412911D1*
X3485880D2*
X3772677D1*
X3873819D2*
X4373653D1*
X550626Y2152399D2*
X649581D1*
X771915D2*
X805831D1*
X928165D2*
X1157491D1*
X1260196D2*
X1283956D1*
X2030509D2*
X2075655D1*
X2512979D2*
X2650021D1*
X2737979D2*
X2801827D1*
X2902970D2*
X3162911D1*
X3336173D2*
X3412911D1*
X3485880D2*
X3797530D1*
X3898673D2*
X4373312D1*
X550626Y2127530D2*
X624728D1*
X747062D2*
X780978D1*
X903312D2*
X1157491D1*
X1514981D2*
X1799142D1*
X2054044D2*
X2070040D1*
X2241983D2*
X2425021D1*
X2512979D2*
X2650021D1*
X2878116D2*
X3033272D1*
X3129728D2*
X3162911D1*
X3485880D2*
X3608272D1*
X3704728D2*
X3822384D1*
X3998868D2*
X4200997D1*
X4262003D2*
X4372970D1*
X550626Y2102661D2*
X599825D1*
X722159D2*
X760616D1*
X878458D2*
X1157491D1*
X1515616D2*
X1642062D1*
X1699259D2*
X1856954D1*
X2235440D2*
X2425021D1*
X2512979D2*
X2650021D1*
X2853214D2*
X3017647D1*
X3145353D2*
X3162911D1*
X3273380D2*
X3284772D1*
X3485880D2*
X3592647D1*
X3720353D2*
X3847286D1*
X3998868D2*
X4173507D1*
X4289493D2*
X4372628D1*
X550626Y2077793D2*
X574972D1*
X697306D2*
X757491D1*
X853556D2*
X1157491D1*
X1263224D2*
X1436300D1*
X1499698D2*
X1623702D1*
X1979874D2*
X2002657D1*
X2229483D2*
X2425021D1*
X2512979D2*
X2650021D1*
X2848868D2*
X3014229D1*
X3148771D2*
X3162904D1*
X3273380D2*
X3289107D1*
X3485880D2*
X3589229D1*
X3723771D2*
X3864132D1*
X3998868D2*
X4164718D1*
X4298282D2*
X4372286D1*
X672452Y2052924D2*
X757491D1*
X845499D2*
X1157491D1*
X1230509D2*
X1623019D1*
X1970499D2*
X2011886D1*
X2373575D2*
X2425021D1*
X2512979D2*
X2650021D1*
X2848868D2*
X2991769D1*
X3142276D2*
X3162911D1*
X3275138D2*
X3289122D1*
X3485880D2*
X3595724D1*
X3717276D2*
X3864132D1*
X3998868D2*
X4166134D1*
X4296866D2*
X4371944D1*
X647550Y2028055D2*
X757491D1*
X845499D2*
X1157491D1*
X1230509D2*
X1638839D1*
X1702433D2*
X1844503D1*
X1945646D2*
X2070040D1*
X2393888D2*
X2425021D1*
X2512979D2*
X2650021D1*
X2848868D2*
X2966866D1*
X3120792D2*
X3162911D1*
X3483487D2*
X3617208D1*
X3695792D2*
X3864132D1*
X3998868D2*
X4178683D1*
X4284317D2*
X4371603D1*
X845499Y2003186D2*
X995626D1*
X1049356D2*
X1157491D1*
X1230509D2*
X1832540D1*
X1920792D2*
X2070040D1*
X2395890D2*
X2425021D1*
X2512979D2*
X2650021D1*
X2737979D2*
X2942013D1*
X3064347D2*
X3162911D1*
X3462540D2*
X4371261D1*
X464835Y1978318D2*
X480733D1*
X845499D2*
X975899D1*
X1069132D2*
X1147384D1*
X1240616D2*
X1832540D1*
X1905509D2*
X2070040D1*
X2395890D2*
X2425021D1*
X2512979D2*
X2650021D1*
X2737979D2*
X2917159D1*
X3039493D2*
X3162911D1*
X3235880D2*
X4370919D1*
X464396Y1953449D2*
X505587D1*
X845499D2*
X974630D1*
X1070401D2*
X1146114D1*
X1241886D2*
X1832540D1*
X1905509D2*
X2057491D1*
X2395890D2*
X2425021D1*
X2512979D2*
X2650021D1*
X2737979D2*
X2892257D1*
X3014640D2*
X3162911D1*
X3235880D2*
X4370577D1*
X463956Y1928580D2*
X531856D1*
X845499D2*
X978536D1*
X1066495D2*
X1160909D1*
X1227091D2*
X1832540D1*
X2395890D2*
X2425021D1*
X2512979D2*
X2650021D1*
X2737979D2*
X2867403D1*
X2989737D2*
X3162911D1*
X3235880D2*
X4370235D1*
X463517Y1903711D2*
X757491D1*
X845499D2*
X978536D1*
X1066495D2*
X1832540D1*
X2130069D2*
X2156515D1*
X2395890D2*
X2425021D1*
X2512979D2*
X2637276D1*
X2737979D2*
X2842550D1*
X2964884D2*
X3162911D1*
X3235880D2*
X4369894D1*
X463028Y1878843D2*
X757491D1*
X845499D2*
X978536D1*
X1066495D2*
X1832540D1*
X2115567D2*
X2152462D1*
X2395890D2*
X2425021D1*
X2512979D2*
X2605440D1*
X2732608D2*
X2817647D1*
X2940030D2*
X3162911D1*
X3235880D2*
X4369552D1*
X462589Y1853974D2*
X757491D1*
X845499D2*
X978536D1*
X1066495D2*
X1832540D1*
X1933855D2*
X2034640D1*
X2395890D2*
X2425021D1*
X2512979D2*
X2590646D1*
X2709854D2*
X2792794D1*
X2915128D2*
X3162911D1*
X3235880D2*
X4369210D1*
X462149Y1829105D2*
X757491D1*
X852774D2*
X978536D1*
X1066495D2*
X1834933D1*
X2395890D2*
X2425021D1*
X2515958D2*
X2591915D1*
X2685147D2*
X2767940D1*
X2890274D2*
X3162911D1*
X3235880D2*
X4368868D1*
X461710Y1804236D2*
X760323D1*
X2395890D2*
X2426388D1*
X2865421D2*
X3162911D1*
X3235880D2*
X4368526D1*
X461222Y1779367D2*
X780147D1*
X1959806D2*
X1998458D1*
X2216202D2*
X2244991D1*
X2395890D2*
X2443331D1*
X2840519D2*
X3162911D1*
X3235880D2*
X4368185D1*
X460782Y1754499D2*
X805050D1*
X1984659D2*
X2244991D1*
X3235880D2*
X4367843D1*
X460343Y1729630D2*
X836544D1*
X1012491D2*
X1032540D1*
X2015274D2*
X2235421D1*
X3230851D2*
X4367501D1*
X459903Y1704761D2*
X1912081D1*
X2022989D2*
X2233321D1*
X2329679D2*
X2351485D1*
X3207315D2*
X4367159D1*
X1348110Y3027390D2*
X1452390D1*
Y3009958D1*
X1460022Y3016467D1*
X1460105Y3333168D1*
X1460939Y3338437D1*
X1462588Y3343511D1*
X1465010Y3348265D1*
X1468146Y3352581D1*
X1494958Y3379542D1*
X1499015Y3383007D1*
X1503564Y3385794D1*
X1508493Y3387836D1*
X1513681Y3389081D1*
X1519000Y3389500D1*
X1732916D1*
X1737953Y3405500D1*
Y3467853D1*
X1729941Y3467894D1*
X1731459Y3459144D1*
Y3451848D1*
X1730317Y3444641D1*
X1728062Y3437701D1*
X1724750Y3431200D1*
X1720461Y3425297D1*
X1715301Y3420137D1*
X1709398Y3415848D1*
X1702897Y3412536D1*
X1695957Y3410281D1*
X1688750Y3409139D1*
X1681454D1*
X1674247Y3410281D1*
X1667307Y3412536D1*
X1664108Y3414010D1*
X1403706Y3413996D1*
X1377969Y3388275D1*
X1377872Y3193992D1*
X1376853Y3187560D1*
X1374841Y3181367D1*
X1371885Y3175564D1*
X1368057Y3170296D1*
X1321651Y3123709D1*
X1223008Y3025066D1*
X1223000Y2953625D1*
X1250033Y2926657D1*
X1247888Y2936401D1*
X1242340Y2941140D1*
X1237601Y2946688D1*
X1233788Y2952909D1*
X1230996Y2959651D1*
X1229292Y2966746D1*
X1228720Y2974020D1*
X1229292Y2981294D1*
X1230996Y2988389D1*
X1233788Y2995131D1*
X1237601Y3001352D1*
X1242340Y3006900D1*
X1247888Y3011639D1*
X1254109Y3015452D1*
X1260851Y3018244D1*
X1267946Y3019948D1*
X1275220Y3020520D1*
X1282494Y3019948D1*
X1289589Y3018244D1*
X1296331Y3015452D1*
X1302552Y3011639D1*
X1308100Y3006900D1*
X1312839Y3001352D1*
X1316652Y2995131D1*
X1319444Y2988389D1*
X1321148Y2981294D1*
X1321720Y2974020D1*
X1321148Y2966746D1*
X1319444Y2959651D1*
X1317983Y2955798D1*
X1318000Y2527691D1*
X1334000Y2522606D1*
X1393326D1*
X1390248Y2529828D1*
X1388544Y2536923D1*
X1387972Y2544197D1*
X1388544Y2551471D1*
X1390248Y2558566D1*
X1393040Y2565308D1*
X1396853Y2571529D1*
X1400478Y2575873D1*
X1400577Y2729211D1*
X1401411Y2734480D1*
X1403060Y2739554D1*
X1405482Y2744308D1*
X1408618Y2748624D1*
X1481141Y2821295D1*
X1560034Y2900189D1*
X1560000Y2921569D1*
X1552712Y2927712D1*
X1546762Y2934679D1*
X1544013Y2938851D1*
X1538400Y2931079D1*
X1531921Y2924600D1*
X1524509Y2919215D1*
X1516345Y2915055D1*
X1507631Y2912224D1*
X1498581Y2910790D1*
X1489419D1*
X1480369Y2912224D1*
X1471655Y2915055D1*
X1463491Y2919215D1*
X1456079Y2924600D1*
X1452384Y2928067D1*
X1452390Y2910610D1*
X1335610D1*
Y3027390D1*
X1348110D1*
X1527978Y3016467D2*
X1535288Y3010288D1*
X1541238Y3003321D1*
X1543987Y2999149D1*
X1549600Y3006921D1*
X1556079Y3013400D1*
X1563491Y3018785D1*
X1571655Y3022945D1*
X1580369Y3025776D1*
X1584673Y3026632D1*
X1584386Y3030890D1*
X1584491Y3243164D1*
X1585325Y3248433D1*
X1586974Y3253507D1*
X1589396Y3258261D1*
X1592532Y3262577D1*
X1619344Y3289538D1*
X1623401Y3293003D1*
X1627950Y3295790D1*
X1632879Y3297832D1*
X1638067Y3299077D1*
X1643386Y3299496D1*
X1819411D1*
X1826869Y3305144D1*
X1833370Y3308456D1*
X1840310Y3310711D1*
X1847517Y3311853D1*
X1854813D1*
X1862020Y3310711D1*
X1868960Y3308456D1*
X1875461Y3305144D1*
X1881364Y3300855D1*
X1886524Y3295695D1*
X1890813Y3289792D1*
X1894125Y3283291D1*
X1896380Y3276351D1*
X1897522Y3269144D1*
Y3261848D1*
X1896380Y3254641D1*
X1894125Y3247701D1*
X1890813Y3241200D1*
X1886524Y3235297D1*
X1881364Y3230137D1*
X1878643Y3227991D1*
X2126638Y3228000D1*
X2131653Y3244000D1*
Y3475982D1*
X2121151Y3482354D1*
X2112117Y3490069D1*
X2104401Y3499104D1*
X2098193Y3509233D1*
X2094507Y3517879D1*
X2094516Y3313058D1*
X2097240Y3306460D1*
X2098944Y3299365D1*
X2099516Y3292091D1*
X2098944Y3284817D1*
X2097240Y3277722D1*
X2094448Y3270980D1*
X2090635Y3264759D1*
X2085896Y3259211D1*
X2080348Y3254472D1*
X2074127Y3250659D1*
X2067385Y3247867D1*
X2060290Y3246163D1*
X2053016Y3245591D1*
X2045742Y3246163D1*
X2038647Y3247867D1*
X2031905Y3250659D1*
X2025684Y3254472D1*
X2020136Y3259211D1*
X2015397Y3264759D1*
X2011584Y3270980D1*
X2008792Y3277722D1*
X2007088Y3284817D1*
X2006516Y3292091D1*
X2007088Y3299365D1*
X2008792Y3306460D1*
X2011530Y3313085D1*
X2011516Y3481105D1*
X2003176Y3476146D1*
X1992200Y3471599D1*
X1980647Y3468826D1*
X1968803Y3467894D1*
X1956959Y3468826D1*
X1945407Y3471599D1*
X1934430Y3476146D1*
X1924300Y3482354D1*
X1915266Y3490069D1*
X1907550Y3499104D1*
X1901343Y3509233D1*
X1896796Y3520210D1*
X1894023Y3531762D1*
X1893091Y3543606D1*
X1894023Y3555450D1*
X1894734Y3559026D1*
X1867401Y3586319D1*
X1847628D1*
X1847665Y3467894D1*
X1805917D1*
X1805848Y3377832D1*
X1805013Y3372563D1*
X1803365Y3367488D1*
X1800943Y3362735D1*
X1797807Y3358418D1*
X1770995Y3331458D1*
X1766938Y3327993D1*
X1762389Y3325206D1*
X1757460Y3323164D1*
X1752272Y3321919D1*
X1746953Y3321500D1*
X1533037D1*
X1528000Y3305500D1*
Y3016486D1*
X1743987Y2938851D2*
X1738400Y2931079D1*
X1731921Y2924600D1*
X1727978Y2921533D1*
X1728000Y2500104D1*
X1733648Y2492686D1*
X1736960Y2486185D1*
X1739215Y2479245D1*
X1740357Y2472038D1*
Y2464742D1*
X1739215Y2457535D1*
X1736960Y2450595D1*
X1733648Y2444094D1*
X1729359Y2438191D1*
X1724199Y2433031D1*
X1718296Y2428742D1*
X1710577Y2424980D1*
X1720508Y2421026D1*
X1728321Y2416238D1*
X1735288Y2410288D1*
X1741238Y2403321D1*
X1743987Y2399149D1*
X1749600Y2406921D1*
X1756079Y2413400D1*
X1763491Y2418785D1*
X1771655Y2422945D1*
X1780369Y2425776D1*
X1789419Y2427210D1*
X1798581D1*
X1807631Y2425776D1*
X1816345Y2422945D1*
X1824509Y2418785D1*
X1831921Y2413400D1*
X1838400Y2406921D1*
X1843987Y2399149D1*
X1849600Y2406921D1*
X1856079Y2413400D1*
X1863491Y2418785D1*
X1871655Y2422945D1*
X1880369Y2425776D1*
X1889419Y2427210D1*
X1898581D1*
X1907631Y2425776D1*
X1909406Y2425276D1*
X1909390Y2797501D1*
X1902669Y2798588D1*
X1895729Y2800843D1*
X1889228Y2804155D1*
X1883325Y2808444D1*
X1878165Y2813604D1*
X1873876Y2819507D1*
X1870564Y2826008D1*
X1868309Y2832948D1*
X1867167Y2840155D1*
X1867163Y2847352D1*
X1860453Y2848242D1*
X1855379Y2849891D1*
X1850625Y2852313D1*
X1846309Y2855449D1*
X1828017Y2873592D1*
X1828000Y2650494D1*
X1831619Y2646135D1*
X1835432Y2639914D1*
X1838224Y2633172D1*
X1839928Y2626077D1*
X1840500Y2618803D1*
X1839928Y2611529D1*
X1838224Y2604434D1*
X1835432Y2597692D1*
X1831619Y2591471D1*
X1826880Y2585923D1*
X1821332Y2581184D1*
X1815111Y2577371D1*
X1808369Y2574579D1*
X1801274Y2572875D1*
X1794000Y2572303D1*
X1786726Y2572875D1*
X1779631Y2574579D1*
X1772889Y2577371D1*
X1766668Y2581184D1*
X1761120Y2585923D1*
X1756381Y2591471D1*
X1752568Y2597692D1*
X1749776Y2604434D1*
X1748072Y2611529D1*
X1747500Y2618803D1*
X1748072Y2626077D1*
X1749776Y2633172D1*
X1752568Y2639914D1*
X1756381Y2646135D1*
X1760006Y2650479D1*
X1760000Y2921489D1*
X1752712Y2927712D1*
X1746762Y2934679D1*
X1744013Y2938851D1*
X1876767Y3024760D2*
X1884866Y3026671D1*
X1894000Y3027390D1*
X1903538Y3026591D1*
X1921309Y3044244D1*
X1925625Y3047380D1*
X1930379Y3049802D1*
X1935453Y3051451D1*
X1940722Y3052285D1*
X2018390Y3052390D1*
X2023709Y3051971D1*
X2028897Y3050726D1*
X2033826Y3048684D1*
X2038375Y3045897D1*
X2042432Y3042432D1*
X2065115Y3019749D1*
X2071655Y3022945D1*
X2080369Y3025776D1*
X2087907Y3027031D1*
X1992388Y3122529D1*
X1720123Y3122500D1*
X1712666Y3116852D1*
X1706165Y3113540D1*
X1699225Y3111285D1*
X1692018Y3110143D1*
X1684722D1*
X1677364Y3111327D1*
X1677386Y3082428D1*
X1693386Y3077390D1*
X1821058Y3077285D1*
X1826327Y3076451D1*
X1831401Y3074802D1*
X1836155Y3072380D1*
X1840471Y3069244D1*
X1867432Y3042432D1*
X1870897Y3038375D1*
X1873684Y3033826D1*
X1875726Y3028897D1*
X1876526Y3025949D1*
X2143987Y2938851D2*
X2138400Y2931079D1*
X2131921Y2924600D1*
X2124509Y2919215D1*
X2116345Y2915055D1*
X2107631Y2912224D1*
X2098581Y2910790D1*
X2089419D1*
X2080369Y2912224D1*
X2077387Y2913065D1*
X2077390Y2875568D1*
X2083038Y2868099D1*
X2086350Y2861598D1*
X2088605Y2854658D1*
X2089747Y2847451D1*
Y2840155D1*
X2088605Y2832948D1*
X2086350Y2826008D1*
X2083038Y2819507D1*
X2078749Y2813604D1*
X2073589Y2808444D1*
X2067686Y2804155D1*
X2061185Y2800843D1*
X2054245Y2798588D1*
X2047038Y2797446D1*
X2039742D1*
X2032535Y2798588D1*
X2027990Y2799959D1*
X2028000Y2750982D1*
X2044000Y2745894D1*
X2119342D1*
X2123696Y2749513D1*
X2129917Y2753326D1*
X2136659Y2756118D1*
X2143754Y2757822D1*
X2151028Y2758394D1*
X2158302Y2757822D1*
X2165397Y2756118D1*
X2172139Y2753326D1*
X2178360Y2749513D1*
X2183908Y2744774D1*
X2188647Y2739226D1*
X2192460Y2733005D1*
X2195252Y2726263D1*
X2196613Y2720889D1*
X2204250Y2720322D1*
X2209410Y2719164D1*
X2209390Y2912677D1*
X2203134Y2911329D1*
X2194000Y2910610D1*
X2184866Y2911329D1*
X2175957Y2913468D1*
X2167492Y2916974D1*
X2159679Y2921762D1*
X2152712Y2927712D1*
X2146762Y2934679D1*
X2144013Y2938851D1*
X2184462Y3026591D2*
X2194000Y3027390D1*
X2203134Y3026671D1*
X2209406Y3025276D1*
X2209390Y3481818D1*
X2199626Y3475961D1*
X2199549Y3216332D1*
X2198714Y3211062D1*
X2197066Y3205988D1*
X2194643Y3201235D1*
X2191507Y3196918D1*
X2164696Y3169958D1*
X2160639Y3166493D1*
X2156090Y3163706D1*
X2151161Y3161664D1*
X2145973Y3160418D1*
X2140654Y3160000D1*
X2051054D1*
X2184496Y3026587D1*
X2343987Y2938851D2*
X2338400Y2931079D1*
X2331921Y2924600D1*
X2324509Y2919215D1*
X2316345Y2915055D1*
X2307631Y2912224D1*
X2298581Y2910790D1*
X2289419D1*
X2280369Y2912224D1*
X2277387Y2913065D1*
X2277674Y2655959D1*
X2306447Y2684732D1*
X2310763Y2687868D1*
X2315517Y2690290D1*
X2320591Y2691939D1*
X2325860Y2692773D1*
X2428528Y2692878D1*
X2796936D1*
X2802028Y2708878D1*
Y2774454D1*
X2798637Y2773536D1*
X2753457Y2728528D1*
X2748469Y2724904D1*
X2742975Y2722105D1*
X2737110Y2720199D1*
X2731020Y2719234D1*
X2652937Y2719113D1*
X2515917Y2719234D1*
X2509827Y2720199D1*
X2503962Y2722105D1*
X2498468Y2724904D1*
X2493480Y2728528D1*
X2479924Y2741913D1*
X2468781Y2736386D1*
X2454066Y2721852D1*
X2448798Y2718024D1*
X2442995Y2715068D1*
X2436802Y2713056D1*
X2430370Y2712037D1*
X2382925Y2711909D1*
X2376341Y2709185D1*
X2369246Y2707481D1*
X2361972Y2706909D1*
X2354698Y2707481D1*
X2347603Y2709185D1*
X2340861Y2711977D1*
X2334640Y2715790D1*
X2329092Y2720529D1*
X2324353Y2726077D1*
X2320540Y2732298D1*
X2317748Y2739040D1*
X2316044Y2746135D1*
X2315472Y2753409D1*
X2316044Y2760683D1*
X2317748Y2767778D1*
X2320540Y2774520D1*
X2324353Y2780741D1*
X2329092Y2786289D1*
X2334640Y2791028D1*
X2340861Y2794841D1*
X2347603Y2797633D1*
X2354698Y2799337D1*
X2361972Y2799909D1*
X2369246Y2799337D1*
X2376341Y2797633D1*
X2382966Y2794895D1*
X2409970Y2794909D1*
X2430162Y2814966D1*
X2435430Y2818794D1*
X2441233Y2821750D1*
X2447426Y2823762D1*
X2450989Y2824441D1*
X2452500Y2833409D1*
Y2927891D1*
X2446762Y2934679D1*
X2444013Y2938851D1*
X2438400Y2931079D1*
X2431921Y2924600D1*
X2424509Y2919215D1*
X2416345Y2915055D1*
X2407631Y2912224D1*
X2398581Y2910790D1*
X2389419D1*
X2380369Y2912224D1*
X2371655Y2915055D1*
X2363491Y2919215D1*
X2356079Y2924600D1*
X2349600Y2931079D1*
X2344013Y2938851D1*
X2384462Y3026591D2*
X2394000Y3027390D1*
X2403134Y3026671D1*
X2412043Y3024532D1*
X2420508Y3021026D1*
X2428321Y3016238D1*
X2435288Y3010288D1*
X2441238Y3003321D1*
X2443987Y2999149D1*
X2449600Y3006921D1*
X2452506Y3010064D1*
X2452514Y3061239D1*
X2442355Y3058395D1*
X2435148Y3057253D1*
X2427852D1*
X2420645Y3058395D1*
X2413705Y3060650D1*
X2407204Y3063962D1*
X2401301Y3068251D1*
X2396141Y3073411D1*
X2391852Y3079314D1*
X2389382Y3083989D1*
X2387614Y3076521D1*
X2384822Y3069779D1*
X2381009Y3063558D1*
X2377384Y3059214D1*
X2377390Y3033712D1*
X2543987Y2938851D2*
X2538400Y2931079D1*
X2535494Y2927936D1*
X2535500Y2797662D1*
X2598932Y2797705D1*
X2597462Y2803931D1*
X2596890Y2811205D1*
X2597462Y2818479D1*
X2599166Y2825574D1*
X2601958Y2832316D1*
X2605771Y2838537D1*
X2609396Y2842881D1*
X2609390Y2912719D1*
X2603134Y2911329D1*
X2594000Y2910610D1*
X2584866Y2911329D1*
X2575957Y2913468D1*
X2567492Y2916974D1*
X2559679Y2921762D1*
X2552712Y2927712D1*
X2546762Y2934679D1*
X2544013Y2938851D1*
X2535494Y3010064D2*
X2541238Y3003321D1*
X2543987Y2999149D1*
X2549600Y3006921D1*
X2556079Y3013400D1*
X2563491Y3018785D1*
X2571655Y3022945D1*
X2580369Y3025776D1*
X2589419Y3027210D1*
X2598581D1*
X2607631Y3025776D1*
X2609406Y3025276D1*
X2609390Y3342797D1*
X2593390Y3347894D1*
X2534161D1*
X2583687Y3298216D1*
X2587515Y3292948D1*
X2590471Y3287145D1*
X2592483Y3280952D1*
X2593502Y3274520D1*
X2593630Y3208764D1*
Y3139965D1*
X2596354Y3133369D1*
X2598058Y3126274D1*
X2598630Y3119000D1*
X2598058Y3111726D1*
X2596354Y3104631D1*
X2593562Y3097889D1*
X2589749Y3091668D1*
X2585010Y3086120D1*
X2579462Y3081381D1*
X2573241Y3077568D1*
X2566620Y3074820D1*
X2535520Y3043700D1*
X2535500Y3010040D1*
X2709406Y2912724D2*
X2703134Y2911329D1*
X2694000Y2910610D1*
X2684866Y2911329D1*
X2677387Y2913065D1*
X2677390Y2842880D1*
X2681009Y2838537D1*
X2684822Y2832316D1*
X2687614Y2825574D1*
X2689318Y2818479D1*
X2689890Y2811205D1*
X2689318Y2803931D1*
X2687858Y2797701D1*
X2711725Y2797705D1*
X2743137Y2829181D1*
X2745568Y2836795D1*
X2747066Y2840046D1*
X2735510Y2851297D1*
X2717536Y2869419D1*
X2714400Y2873735D1*
X2711978Y2878489D1*
X2710329Y2883563D1*
X2709495Y2888832D1*
X2709390Y2912643D1*
X2843987Y2938851D2*
X2838400Y2931079D1*
X2831921Y2924600D1*
X2824509Y2919215D1*
X2816345Y2915055D1*
X2807631Y2912224D1*
X2798581Y2910790D1*
X2789419D1*
X2780369Y2912224D1*
X2777387Y2913065D1*
X2777390Y2905548D1*
X2793390Y2900500D1*
X2813696Y2900395D1*
X2818965Y2899561D1*
X2824039Y2897912D1*
X2828793Y2895490D1*
X2833109Y2892354D1*
X2860070Y2865542D1*
X2863535Y2861485D1*
X2866322Y2856936D1*
X2868364Y2852007D1*
X2869609Y2846819D1*
X2870028Y2841500D1*
X2869923Y2681210D1*
X2869089Y2675941D1*
X2867440Y2670867D1*
X2865018Y2666113D1*
X2861882Y2661797D1*
X2837615Y2637382D1*
X2979279Y2637390D1*
X2984390Y2653390D1*
Y2984494D1*
X2977242Y2984533D1*
X2970035Y2985675D1*
X2963095Y2987930D1*
X2956594Y2991242D1*
X2950691Y2995531D1*
X2949214Y2996896D1*
X2946026Y2995508D1*
X2949532Y2987043D1*
X2951671Y2978134D1*
X2952390Y2969000D1*
X2951671Y2959866D1*
X2949532Y2950957D1*
X2946026Y2942492D1*
X2941238Y2934679D1*
X2935288Y2927712D1*
X2928321Y2921762D1*
X2920508Y2916974D1*
X2912043Y2913468D1*
X2903134Y2911329D1*
X2894000Y2910610D1*
X2884866Y2911329D1*
X2875957Y2913468D1*
X2867492Y2916974D1*
X2859679Y2921762D1*
X2852712Y2927712D1*
X2846762Y2934679D1*
X2844013Y2938851D1*
X1348110Y2427390D2*
X1452390D1*
Y2409958D1*
X1459679Y2416238D1*
X1467492Y2421026D1*
X1475957Y2424532D1*
X1484866Y2426671D1*
X1494000Y2427390D1*
X1503134Y2426671D1*
X1512043Y2424532D1*
X1520508Y2421026D1*
X1528321Y2416238D1*
X1535288Y2410288D1*
X1541238Y2403321D1*
X1543987Y2399149D1*
X1549600Y2406921D1*
X1556079Y2413400D1*
X1563491Y2418785D1*
X1571655Y2422945D1*
X1580369Y2425776D1*
X1589419Y2427210D1*
X1598581D1*
X1607631Y2425776D1*
X1616345Y2422945D1*
X1624509Y2418785D1*
X1631921Y2413400D1*
X1638400Y2406921D1*
X1643987Y2399149D1*
X1649600Y2406921D1*
X1656079Y2413400D1*
X1663491Y2418785D1*
X1671655Y2422945D1*
X1677422Y2424945D1*
X1669704Y2428742D1*
X1663801Y2433031D1*
X1658641Y2438191D1*
X1654820Y2443394D1*
X1647648Y2442249D1*
X1640352D1*
X1633145Y2443391D1*
X1626205Y2445646D1*
X1619704Y2448958D1*
X1613801Y2453247D1*
X1612324Y2454612D1*
X1306332Y2454711D1*
X1301063Y2455545D1*
X1295989Y2457194D1*
X1291235Y2459616D1*
X1286919Y2462752D1*
X1259958Y2489564D1*
X1256493Y2493621D1*
X1253706Y2498170D1*
X1251664Y2503099D1*
X1250419Y2508287D1*
X1250000Y2513606D1*
Y2836311D1*
X1160228Y2746538D1*
X1160264Y2521039D1*
X1166668Y2526627D1*
X1172889Y2530440D1*
X1179631Y2533232D1*
X1186726Y2534936D1*
X1194000Y2535508D1*
X1201274Y2534936D1*
X1208369Y2533232D1*
X1215111Y2530440D1*
X1221332Y2526627D1*
X1226880Y2521888D1*
X1231619Y2516340D1*
X1235432Y2510119D1*
X1238224Y2503377D1*
X1239928Y2496282D1*
X1240500Y2489008D1*
X1239928Y2481734D1*
X1238224Y2474639D1*
X1235432Y2467897D1*
X1231619Y2461676D1*
X1227994Y2457332D1*
X1228000Y2160346D1*
X1235148Y2160337D1*
X1242355Y2159195D1*
X1249295Y2156940D1*
X1255796Y2153628D1*
X1261699Y2149339D1*
X1263176Y2147974D1*
X1287799Y2147980D1*
X1285572Y2156706D1*
X1285000Y2163980D1*
X1285572Y2171254D1*
X1287276Y2178349D1*
X1290068Y2185091D1*
X1293881Y2191312D1*
X1298620Y2196860D1*
X1304168Y2201599D1*
X1310389Y2205412D1*
X1317131Y2208204D1*
X1324226Y2209908D1*
X1331500Y2210480D1*
X1338774Y2209908D1*
X1345869Y2208204D1*
X1352611Y2205412D1*
X1358832Y2201599D1*
X1363176Y2197974D1*
X1798736Y2197980D1*
X1806200Y2203628D1*
X1812701Y2206940D1*
X1819641Y2209195D1*
X1826848Y2210337D1*
X1834144D1*
X1841351Y2209195D1*
X1848291Y2206940D1*
X1854792Y2203628D1*
X1860012Y2199877D1*
X1860000Y2321538D1*
X1852712Y2327712D1*
X1846762Y2334679D1*
X1844013Y2338851D1*
X1838400Y2331079D1*
X1831921Y2324600D1*
X1824509Y2319215D1*
X1816345Y2315055D1*
X1807631Y2312224D1*
X1798581Y2310790D1*
X1789419D1*
X1780369Y2312224D1*
X1771655Y2315055D1*
X1763491Y2319215D1*
X1756079Y2324600D1*
X1749600Y2331079D1*
X1744013Y2338851D1*
X1738400Y2331079D1*
X1731921Y2324600D1*
X1724509Y2319215D1*
X1716345Y2315055D1*
X1707631Y2312224D1*
X1698581Y2310790D1*
X1689419D1*
X1680369Y2312224D1*
X1671655Y2315055D1*
X1663491Y2319215D1*
X1656079Y2324600D1*
X1649600Y2331079D1*
X1644013Y2338851D1*
X1638400Y2331079D1*
X1631921Y2324600D1*
X1624509Y2319215D1*
X1616345Y2315055D1*
X1607631Y2312224D1*
X1598581Y2310790D1*
X1589419D1*
X1580369Y2312224D1*
X1571655Y2315055D1*
X1563491Y2319215D1*
X1556079Y2324600D1*
X1549600Y2331079D1*
X1544013Y2338851D1*
X1538400Y2331079D1*
X1531921Y2324600D1*
X1524509Y2319215D1*
X1516345Y2315055D1*
X1507631Y2312224D1*
X1498581Y2310790D1*
X1489419D1*
X1480369Y2312224D1*
X1471655Y2315055D1*
X1463491Y2319215D1*
X1456079Y2324600D1*
X1452384Y2328067D1*
X1452390Y2310610D1*
X1335610D1*
Y2427390D1*
X1348110D1*
X2043987Y2338851D2*
X2038400Y2331079D1*
X2031921Y2324600D1*
X2027978Y2321533D1*
X2028000Y2151080D1*
X2055986Y2123116D1*
X2061632Y2122589D1*
X2068727Y2120885D1*
X2072528Y2119448D1*
X2072632Y2134740D1*
X2073651Y2141172D1*
X2075663Y2147365D1*
X2078619Y2153168D1*
X2082447Y2158436D1*
X2128853Y2205023D1*
X2137052Y2213041D1*
X2142320Y2216869D1*
X2148123Y2219825D1*
X2154316Y2221837D1*
X2160748Y2222856D1*
X2226504Y2222984D1*
X2451846D1*
X2452500Y2231484D1*
Y2327920D1*
X2446762Y2334679D1*
X2444013Y2338851D1*
X2438400Y2331079D1*
X2431921Y2324600D1*
X2424509Y2319215D1*
X2416345Y2315055D1*
X2407631Y2312224D1*
X2398581Y2310790D1*
X2389419D1*
X2380369Y2312224D1*
X2371655Y2315055D1*
X2363491Y2319215D1*
X2356079Y2324600D1*
X2349600Y2331079D1*
X2344013Y2338851D1*
X2338400Y2331079D1*
X2331921Y2324600D1*
X2324509Y2319215D1*
X2316345Y2315055D1*
X2307631Y2312224D1*
X2298581Y2310790D1*
X2289419D1*
X2280369Y2312224D1*
X2271655Y2315055D1*
X2263491Y2319215D1*
X2256079Y2324600D1*
X2249600Y2331079D1*
X2244013Y2338851D1*
X2238400Y2331079D1*
X2231921Y2324600D1*
X2224509Y2319215D1*
X2216345Y2315055D1*
X2207631Y2312224D1*
X2198581Y2310790D1*
X2189902Y2310771D1*
X2189318Y2303734D1*
X2187614Y2296639D1*
X2184822Y2289897D1*
X2181009Y2283676D1*
X2176270Y2278128D1*
X2170722Y2273389D1*
X2164501Y2269576D1*
X2157759Y2266784D1*
X2150664Y2265080D1*
X2143390Y2264508D1*
X2136116Y2265080D1*
X2129021Y2266784D1*
X2122279Y2269576D1*
X2116058Y2273389D1*
X2110510Y2278128D1*
X2105771Y2283676D1*
X2101958Y2289897D1*
X2099166Y2296639D1*
X2097462Y2303734D1*
X2096903Y2310680D1*
X2089419Y2310790D1*
X2080369Y2312224D1*
X2071655Y2315055D1*
X2063491Y2319215D1*
X2056079Y2324600D1*
X2049600Y2331079D1*
X2044013Y2338851D1*
X2043596Y2399791D2*
X2043987Y2399149D1*
X2049600Y2406921D1*
X2056079Y2413400D1*
X2060022Y2416467D1*
X2060000Y2499713D1*
X2045065Y2514676D1*
X2042998Y2512324D1*
X2043004Y2462604D1*
X2048652Y2455186D1*
X2051964Y2448685D1*
X2054219Y2441745D1*
X2055361Y2434538D1*
Y2427242D1*
X2054219Y2420035D1*
X2051964Y2413095D1*
X2048652Y2406594D1*
X2043579Y2399842D1*
X2177387Y2424935D2*
X2184866Y2426671D1*
X2194000Y2427390D1*
X2203538Y2426591D1*
X2209422Y2432506D1*
X2209390Y2629572D1*
X2200624Y2628037D1*
X2198615Y2627958D1*
X2177410Y2606745D1*
X2177390Y2424958D1*
X2277387Y2424935D2*
X2284866Y2426671D1*
X2294000Y2427390D1*
X2303538Y2426591D1*
X2309422Y2432506D1*
X2309390Y2497833D1*
X2299880Y2497643D1*
X2292673Y2498785D1*
X2285733Y2501040D1*
X2279232Y2504352D1*
X2277370Y2505596D1*
X2277390Y2425002D1*
X2427978Y2416467D2*
X2435288Y2410288D1*
X2441238Y2403321D1*
X2443987Y2399149D1*
X2449600Y2406921D1*
X2456079Y2413400D1*
X2463491Y2418785D1*
X2471655Y2422945D1*
X2480369Y2425776D1*
X2489419Y2427210D1*
X2498581D1*
X2507631Y2425776D1*
X2516345Y2422945D1*
X2524509Y2418785D1*
X2531921Y2413400D1*
X2538400Y2406921D1*
X2543987Y2399149D1*
X2549600Y2406921D1*
X2556079Y2413400D1*
X2563491Y2418785D1*
X2571655Y2422945D1*
X2580111Y2425704D1*
X2573329Y2430531D1*
X2568169Y2435691D1*
X2563880Y2441594D1*
X2560568Y2448095D1*
X2558313Y2455035D1*
X2557171Y2462242D1*
X2557166Y2469410D1*
X2485216Y2469390D1*
X2480860Y2465771D1*
X2474639Y2461958D1*
X2467897Y2459166D1*
X2460802Y2457462D1*
X2453528Y2456890D1*
X2446254Y2457462D1*
X2439159Y2459166D1*
X2432417Y2461958D1*
X2427987Y2464574D1*
X2428000Y2416427D1*
X2543987Y2338851D2*
X2538400Y2331079D1*
X2535494Y2327936D1*
X2535372Y2203228D1*
X2534353Y2196796D1*
X2532341Y2190603D1*
X2529385Y2184800D1*
X2525557Y2179532D1*
X2510467Y2164261D1*
X2510500Y1832021D1*
X2536221Y1806355D1*
X2610943Y1806386D1*
X2605648Y1810923D1*
X2600909Y1816471D1*
X2597096Y1822692D1*
X2594304Y1829434D1*
X2592600Y1836529D1*
X2592028Y1843803D1*
X2592600Y1851077D1*
X2594304Y1858172D1*
X2597096Y1864914D1*
X2600909Y1871135D1*
X2605648Y1876683D1*
X2611196Y1881422D1*
X2617417Y1885235D1*
X2624038Y1887983D1*
X2652514Y1916479D1*
X2652500Y2327937D1*
X2646762Y2334679D1*
X2644013Y2338851D1*
X2638400Y2331079D1*
X2631921Y2324600D1*
X2624509Y2319215D1*
X2616345Y2315055D1*
X2607631Y2312224D1*
X2598581Y2310790D1*
X2589419D1*
X2580369Y2312224D1*
X2571655Y2315055D1*
X2563491Y2319215D1*
X2556079Y2324600D1*
X2549600Y2331079D1*
X2544013Y2338851D1*
X2618606Y2421903D2*
X2624509Y2418785D1*
X2631921Y2413400D1*
X2638400Y2406921D1*
X2643987Y2399149D1*
X2649600Y2406921D1*
X2656079Y2413400D1*
X2663491Y2418785D1*
X2671655Y2422945D1*
X2680369Y2425776D1*
X2689419Y2427210D1*
X2698581D1*
X2707631Y2425776D1*
X2716345Y2422945D1*
X2724509Y2418785D1*
X2731921Y2413400D1*
X2738400Y2406921D1*
X2743987Y2399149D1*
X2749600Y2406921D1*
X2756079Y2413400D1*
X2763491Y2418785D1*
X2771655Y2422945D1*
X2780369Y2425776D1*
X2789419Y2427210D1*
X2798581D1*
X2807631Y2425776D1*
X2793390Y2431890D1*
X2635236D1*
X2627824Y2426242D1*
X2621323Y2422930D1*
X2618633Y2421937D1*
X2743987Y2338851D2*
X2738400Y2331079D1*
X2735494Y2327936D1*
X2735500Y2146393D1*
X2798304Y2146386D1*
X2946906Y2294990D1*
X2938375Y2288446D1*
X2933826Y2285659D1*
X2928897Y2283617D1*
X2923709Y2282371D1*
X2918390Y2281953D1*
X2865722Y2282058D1*
X2860453Y2282892D1*
X2855379Y2284541D1*
X2850625Y2286963D1*
X2846309Y2290099D1*
X2819720Y2316539D1*
X2812043Y2313468D1*
X2803134Y2311329D1*
X2794000Y2310610D1*
X2784866Y2311329D1*
X2775957Y2313468D1*
X2767492Y2316974D1*
X2759679Y2321762D1*
X2752712Y2327712D1*
X2746762Y2334679D1*
X2744013Y2338851D1*
X527638Y3619319D2*
X666563D1*
Y3467894D1*
X515138D1*
Y3619319D1*
X527638D1*
X863180Y3537666D2*
X861321Y3525932D1*
X857650Y3514632D1*
X852256Y3504047D1*
X845273Y3494435D1*
X836872Y3486034D1*
X827261Y3479051D1*
X816675Y3473657D1*
X805376Y3469986D1*
X793641Y3468127D1*
X781760D1*
X770026Y3469986D1*
X758727Y3473657D1*
X748141Y3479051D1*
X738529Y3486034D1*
X730128Y3494435D1*
X723145Y3504047D1*
X717751Y3514632D1*
X714080Y3525932D1*
X712222Y3537666D1*
Y3549547D1*
X714080Y3561281D1*
X717751Y3572580D1*
X723145Y3583166D1*
X730128Y3592778D1*
X738529Y3601179D1*
X748141Y3608162D1*
X758727Y3613556D1*
X770026Y3617227D1*
X781760Y3619086D1*
X793641D1*
X805376Y3617227D1*
X816675Y3613556D1*
X827261Y3608162D1*
X836872Y3601179D1*
X845273Y3592778D1*
X852256Y3583166D1*
X857650Y3572580D1*
X861321Y3561281D1*
X863180Y3549547D1*
Y3537666D1*
X1027258Y3481154D2*
X1018924Y3476146D1*
X1007948Y3471599D1*
X996395Y3468826D1*
X984551Y3467894D1*
X972707Y3468826D1*
X969131Y3469537D1*
X548097Y3048462D1*
X548142Y2053539D1*
X552775Y2059986D1*
X557935Y2065146D1*
X563838Y2069435D1*
X570339Y2072747D1*
X573644Y2073967D1*
X815631Y2315793D1*
X820899Y2319621D1*
X826702Y2322577D1*
X832895Y2324589D1*
X839327Y2325608D1*
X905083Y2325736D1*
X1051616D1*
X1077295Y2351457D1*
X1077264Y2711629D1*
X1036134Y2670464D1*
X1033404Y2663881D1*
X1029591Y2657660D1*
X1024852Y2652112D1*
X1019304Y2647373D1*
X1013083Y2643560D1*
X1006341Y2640768D1*
X999246Y2639064D1*
X991972Y2638492D1*
X984698Y2639064D1*
X977603Y2640768D1*
X970861Y2643560D1*
X964640Y2647373D1*
X959092Y2652112D1*
X954353Y2657660D1*
X950540Y2663881D1*
X947748Y2670623D1*
X946044Y2677718D1*
X945472Y2684992D1*
X946044Y2692266D1*
X947527Y2698579D1*
X938528Y2697697D1*
X931254Y2698269D1*
X924159Y2699973D1*
X917534Y2702711D1*
X633792Y2702697D1*
X627149Y2699973D1*
X620054Y2698269D1*
X612780Y2697697D1*
X605506Y2698269D1*
X598411Y2699973D1*
X591669Y2702765D1*
X585448Y2706578D1*
X579900Y2711317D1*
X575161Y2716865D1*
X571348Y2723086D1*
X568556Y2729828D1*
X566852Y2736923D1*
X566280Y2744197D1*
X566852Y2751471D1*
X568556Y2758566D1*
X571348Y2765308D1*
X575161Y2771529D1*
X579900Y2777077D1*
X585448Y2781816D1*
X591669Y2785629D1*
X598411Y2788421D1*
X605506Y2790125D1*
X612780Y2790697D1*
X620054Y2790125D1*
X627149Y2788421D1*
X633774Y2785683D1*
X917516Y2785697D1*
X924159Y2788421D1*
X931254Y2790125D1*
X938528Y2790697D1*
X945802Y2790125D1*
X952897Y2788421D1*
X959639Y2785629D1*
X965860Y2781816D1*
X971408Y2777077D1*
X976147Y2771529D1*
X979960Y2765308D1*
X982752Y2758566D1*
X984456Y2751471D1*
X985028Y2744197D1*
X984264Y2735958D1*
X1027295Y2779006D1*
X1027264Y3481071D1*
X910482Y3528186D2*
X909072Y3537666D1*
Y3549547D1*
X910931Y3561281D1*
X914602Y3572580D1*
X919996Y3583166D1*
X926979Y3592778D1*
X935380Y3601179D1*
X943080Y3606885D1*
X943179Y3686075D1*
X944198Y3692507D1*
X946210Y3698701D1*
X949167Y3704503D1*
X953245Y3710042D1*
X944329Y3711819D1*
X493724Y3706640D1*
X482756Y3100467D1*
X910434Y3528180D1*
X1113941Y3619319D2*
X1224878D1*
X1224114Y3627819D1*
X1224687Y3635093D1*
X1226146Y3641323D1*
X1135891Y3641319D1*
X1113962Y3619327D1*
X1257114Y3583333D2*
Y3542317D1*
X1284419Y3569460D1*
X1288735Y3572596D1*
X1293489Y3575018D1*
X1298563Y3576667D1*
X1303833Y3577501D1*
X1310651Y3577606D1*
X1313696Y3583166D1*
X1320680Y3592778D1*
X1329081Y3601179D1*
X1338692Y3608162D1*
X1349278Y3613556D1*
X1360577Y3617227D1*
X1372312Y3619086D1*
X1384192D1*
X1395927Y3617227D1*
X1407226Y3613556D1*
X1417812Y3608162D1*
X1427423Y3601179D1*
X1435824Y3592778D1*
X1442808Y3583166D1*
X1448201Y3572580D1*
X1451873Y3561281D1*
X1453731Y3549547D1*
Y3537666D1*
X1451873Y3525932D1*
X1448201Y3514632D1*
X1442808Y3504047D1*
X1437823Y3496970D1*
X1515455Y3496996D1*
X1510547Y3504047D1*
X1505153Y3514632D1*
X1501482Y3525932D1*
X1499623Y3537666D1*
Y3549547D1*
X1501482Y3561281D1*
X1505153Y3572580D1*
X1510547Y3583166D1*
X1517530Y3592778D1*
X1525931Y3601179D1*
X1535543Y3608162D1*
X1546128Y3613556D1*
X1557428Y3617227D1*
X1569162Y3619086D1*
X1581043D1*
X1592777Y3617227D1*
X1604076Y3613556D1*
X1614662Y3608162D1*
X1624274Y3601179D1*
X1632675Y3592778D1*
X1639658Y3583166D1*
X1643623Y3575680D1*
X1643730Y3631075D1*
X1644749Y3637507D1*
X1645761Y3640990D1*
X1632327Y3641319D1*
X1315091D1*
X1316542Y3635093D1*
X1317114Y3627819D1*
X1316542Y3620545D1*
X1314838Y3613450D1*
X1312046Y3606708D1*
X1308233Y3600487D1*
X1303495Y3594938D1*
X1297946Y3590200D1*
X1291725Y3586387D1*
X1284983Y3583595D1*
X1277888Y3581891D1*
X1270614Y3581319D1*
X1263340Y3581891D1*
X1257110Y3583351D1*
X1247495Y3467894D2*
X1110288D1*
X1110264Y2813923D1*
X1177842Y2881532D1*
X1149943Y2909548D1*
X1146115Y2914816D1*
X1143159Y2920619D1*
X1141147Y2926812D1*
X1140128Y2933244D1*
X1140000Y2999000D1*
X1140128Y3045504D1*
X1141147Y3051936D1*
X1143159Y3058129D1*
X1146115Y3063932D1*
X1149943Y3069200D1*
X1196349Y3115787D1*
X1294992Y3214430D1*
X1295000Y3275129D1*
X1288774Y3273741D1*
X1281500Y3273169D1*
X1274226Y3273741D1*
X1267131Y3275445D1*
X1260389Y3278237D1*
X1254168Y3282050D1*
X1248620Y3286789D1*
X1243881Y3292337D1*
X1240068Y3298558D1*
X1237276Y3305300D1*
X1235572Y3312395D1*
X1235000Y3319669D1*
X1235572Y3326943D1*
X1237276Y3334038D1*
X1240068Y3340780D1*
X1243881Y3347001D1*
X1247506Y3351345D1*
X1247500Y3467862D1*
X1347021Y3474697D2*
X1338692Y3479051D1*
X1329081Y3486034D1*
X1320680Y3494435D1*
X1315490Y3501363D1*
X1315500Y3443167D1*
X1346964Y3474650D1*
X1953383Y3617675D2*
X1962863Y3619086D1*
X1974743D1*
X1986478Y3617227D1*
X1997777Y3613556D1*
X2008363Y3608162D1*
X2011974Y3605749D1*
X2013547Y3612454D1*
X2016039Y3618471D1*
X2019670Y3624313D1*
X2002647Y3641309D1*
X1929739Y3641319D1*
X1953399Y3617700D1*
X2228106Y3586313D2*
X2233114Y3577979D1*
X2237661Y3567003D1*
X2238991Y3562287D1*
X2248406Y3571113D1*
X2252955Y3573901D1*
X2257884Y3575942D1*
X2263072Y3577188D1*
X2268390Y3577606D1*
X2589924D1*
X2589941Y3586302D1*
X2228171Y3586319D1*
X2709091Y3467894D2*
X2589941D1*
Y3509642D1*
X2282499Y3509606D1*
X2277390Y3493606D1*
Y3445510D1*
X2283145Y3447306D1*
X2290352Y3448448D1*
X2297648D1*
X2304855Y3447306D1*
X2311795Y3445051D1*
X2318296Y3441739D1*
X2324199Y3437450D1*
X2329359Y3432290D1*
X2333648Y3426387D1*
X2336960Y3419886D1*
X2339215Y3412946D1*
X2340357Y3405739D1*
Y3398443D1*
X2339215Y3391236D1*
X2336960Y3384296D1*
X2333648Y3377795D1*
X2329359Y3371892D1*
X2327994Y3370415D1*
X2328000Y3134757D1*
X2336116Y3136818D1*
X2343390Y3137390D1*
X2350664Y3136818D1*
X2357759Y3135114D1*
X2364501Y3132322D1*
X2370722Y3128509D1*
X2376270Y3123770D1*
X2381009Y3118222D1*
X2385508Y3110511D1*
X2387276Y3117979D1*
X2390068Y3124721D1*
X2393881Y3130942D1*
X2397506Y3135286D1*
X2397605Y3359562D1*
X2398439Y3364831D1*
X2400088Y3369905D1*
X2402510Y3374659D1*
X2405646Y3378975D1*
X2432458Y3405936D1*
X2436515Y3409401D1*
X2441064Y3412188D1*
X2445993Y3414230D1*
X2451181Y3415476D1*
X2456500Y3415894D1*
X2621058Y3415789D1*
X2626327Y3414955D1*
X2631401Y3413306D1*
X2636155Y3410884D1*
X2640471Y3407748D1*
X2667432Y3380936D1*
X2670897Y3376879D1*
X2673684Y3372330D1*
X2675726Y3367401D1*
X2677017Y3361830D1*
X2677954Y3360416D1*
X2682883Y3362458D1*
X2688071Y3363704D1*
X2693390Y3364122D1*
X2799591D1*
X2798407Y3369159D1*
X2717545Y3450162D1*
X2714011Y3455026D1*
X2711282Y3460382D1*
X2709349Y3466480D1*
X2937983Y3537666D2*
X2936125Y3525932D1*
X2934358Y3519796D1*
X3025378Y3428816D1*
X3025354Y3475998D1*
X3019795Y3479051D1*
X3010183Y3486034D1*
X3001782Y3494435D1*
X2994799Y3504047D1*
X2989405Y3514632D1*
X2985734Y3525932D1*
X2983875Y3537666D1*
Y3549547D1*
X2985734Y3561281D1*
X2989405Y3572580D1*
X2994799Y3583166D1*
X3001782Y3592778D1*
X3010183Y3601179D1*
X3019795Y3608162D1*
X3030380Y3613556D1*
X3041680Y3617227D1*
X3053414Y3619086D1*
X3065295D1*
X3077029Y3617227D1*
X3088328Y3613556D1*
X3098914Y3608162D1*
X3108526Y3601179D1*
X3116927Y3592778D1*
X3123910Y3583166D1*
X3129304Y3572580D1*
X3132975Y3561281D1*
X3134834Y3549547D1*
Y3537666D1*
X3132975Y3525932D1*
X3129304Y3514632D1*
X3123910Y3504047D1*
X3116927Y3494435D1*
X3108526Y3486034D1*
X3098914Y3479051D1*
X3093326Y3475961D1*
X3093354Y3135940D1*
X3102098Y3144725D1*
X3102195Y3397256D1*
X3103214Y3403688D1*
X3105226Y3409881D1*
X3108182Y3415684D1*
X3112010Y3420952D1*
X3116615Y3425557D1*
X3121883Y3429385D1*
X3127686Y3432341D1*
X3133879Y3434353D1*
X3140311Y3435372D1*
X3206067Y3435500D1*
X3286292D1*
X3318678Y3467919D1*
X3180492Y3467894D1*
Y3619319D1*
X3318627D1*
X3246623Y3691349D1*
X2070044Y3691319D1*
X2098442Y3662894D1*
X2749683Y3662823D1*
X2755621Y3661882D1*
X2761338Y3660025D1*
X2766694Y3657296D1*
X2771558Y3653762D1*
X2775809Y3649511D1*
X2779343Y3644647D1*
X2782072Y3639291D1*
X2783929Y3633574D1*
X2784870Y3627636D1*
X2784988Y3549630D1*
Y3490890D1*
X2852522Y3423378D1*
X2858467Y3421846D1*
X2865209Y3419054D1*
X2871430Y3415241D1*
X2876978Y3410502D1*
X2881717Y3404954D1*
X2885530Y3398733D1*
X2888322Y3391991D1*
X2890026Y3384896D1*
X2890598Y3377622D1*
X2890026Y3370348D1*
X2888566Y3364118D1*
X2914142Y3364122D1*
X2921613Y3369770D1*
X2928114Y3373082D1*
X2935054Y3375337D1*
X2942261Y3376479D1*
X2949557D1*
X2956764Y3375337D1*
X2963704Y3373082D1*
X2970205Y3369770D1*
X2976108Y3365481D1*
X2981268Y3360321D1*
X2984408Y3356138D1*
X2984390Y3373654D1*
X2886314Y3471713D1*
X2874348Y3468826D1*
X2862504Y3467894D1*
X2850660Y3468826D1*
X2839107Y3471599D1*
X2828131Y3476146D1*
X2818001Y3482354D1*
X2808967Y3490069D1*
X2801251Y3499104D1*
X2795044Y3509233D1*
X2790497Y3520210D1*
X2787723Y3531762D1*
X2786791Y3543606D1*
X2787723Y3555450D1*
X2790497Y3567003D1*
X2795044Y3577979D1*
X2801251Y3588109D1*
X2808967Y3597143D1*
X2818001Y3604859D1*
X2828131Y3611067D1*
X2839107Y3615613D1*
X2850660Y3618387D1*
X2862504Y3619319D1*
X2874348Y3618387D1*
X2885900Y3615613D1*
X2896877Y3611067D1*
X2907007Y3604859D1*
X2916041Y3597143D1*
X2923757Y3588109D1*
X2929964Y3577979D1*
X2934511Y3567003D1*
X2937284Y3555450D1*
X2938217Y3543606D1*
X2937983Y3537666D1*
X3331917Y3606086D2*
Y3481184D1*
X3378961Y3528203D1*
X3377576Y3537666D1*
Y3549547D1*
X3378986Y3559026D1*
X3331904Y3606068D1*
X3528534Y3537666D2*
X3526676Y3525932D1*
X3523004Y3514632D1*
X3517611Y3504047D1*
X3510627Y3494435D1*
X3502227Y3486034D1*
X3492615Y3479051D1*
X3482029Y3473657D1*
X3470730Y3469986D1*
X3458995Y3468127D1*
X3447115D1*
X3437635Y3469537D1*
X3330401Y3362443D1*
X3325133Y3358615D1*
X3319330Y3355659D1*
X3313137Y3353647D1*
X3306705Y3352628D1*
X3240949Y3352500D1*
X3185041D1*
X3184939Y3124248D1*
X3183920Y3117816D1*
X3181908Y3111623D1*
X3178952Y3105820D1*
X3175124Y3100552D1*
X3143323Y3068570D1*
X3143354Y2663281D1*
X3149580Y2664731D1*
X3156854Y2665303D1*
X3164128Y2664731D1*
X3171223Y2663027D1*
X3179122Y2659587D1*
X3179114Y2721386D1*
X3199573D1*
X3198072Y2727868D1*
X3197500Y2735142D1*
X3198072Y2742416D1*
X3199776Y2749511D1*
X3202568Y2756253D1*
X3206381Y2762474D1*
X3211120Y2768022D1*
X3216668Y2772761D1*
X3222889Y2776574D1*
X3229631Y2779366D1*
X3236726Y2781070D1*
X3244000Y2781642D1*
X3251274Y2781070D1*
X3258369Y2779366D1*
X3265111Y2776574D1*
X3271332Y2772761D1*
X3276880Y2768022D1*
X3281619Y2762474D1*
X3285432Y2756253D1*
X3288224Y2749511D1*
X3289928Y2742416D1*
X3290500Y2735142D1*
X3289928Y2727868D1*
X3288398Y2721390D1*
X3308886Y2721386D1*
Y2609911D1*
X3362023Y2609890D1*
X3392087Y2640017D1*
X3392615Y2645664D1*
X3394319Y2652759D1*
X3397111Y2659501D1*
X3400924Y2665722D1*
X3405663Y2671270D1*
X3411211Y2676009D1*
X3417432Y2679822D1*
X3424174Y2682614D1*
X3431269Y2684318D1*
X3438543Y2684890D1*
X3445817Y2684318D1*
X3452912Y2682614D1*
X3459654Y2679822D1*
X3465697Y2676128D1*
X3249915Y2891895D1*
X3238909Y2891814D1*
X3228853Y2893407D1*
X3219169Y2896553D1*
X3210097Y2901176D1*
X3201860Y2907160D1*
X3194660Y2914360D1*
X3188676Y2922597D1*
X3184053Y2931669D1*
X3180907Y2941353D1*
X3179314Y2951409D1*
Y2961591D1*
X3180907Y2971647D1*
X3184053Y2981331D1*
X3188676Y2990403D1*
X3194660Y2998640D1*
X3201860Y3005840D1*
X3210097Y3011824D1*
X3219169Y3016447D1*
X3228853Y3019593D1*
X3238909Y3021186D1*
X3249091D1*
X3259147Y3019593D1*
X3268831Y3016447D1*
X3277903Y3011824D1*
X3286140Y3005840D1*
X3293340Y2998640D1*
X3299324Y2990403D1*
X3303947Y2981331D1*
X3307093Y2971647D1*
X3308686Y2961591D1*
X3308590Y2950599D1*
X3690852Y2568157D1*
X3694680Y2562889D1*
X3697636Y2557086D1*
X3699648Y2550893D1*
X3700667Y2544461D1*
X3700795Y2478705D1*
Y2414984D1*
X3703519Y2408369D1*
X3705223Y2401274D1*
X3705795Y2394000D1*
X3705223Y2386726D1*
X3703763Y2380496D1*
X3857450Y2380500D1*
X3965002Y2488105D1*
X3966285Y2497375D1*
X3968540Y2504315D1*
X3971852Y2510816D1*
X3976141Y2516719D1*
X3981301Y2521879D1*
X3987204Y2526168D1*
X3993705Y2529480D1*
X4000645Y2531735D1*
X4007852Y2532877D1*
X4015148D1*
X4022355Y2531735D1*
X4029295Y2529480D1*
X4035796Y2526168D1*
X4041699Y2521879D1*
X4046859Y2516719D1*
X4051148Y2510816D1*
X4054460Y2504315D1*
X4056715Y2497375D1*
X4057857Y2490168D1*
Y2482872D1*
X4056715Y2475665D1*
X4054460Y2468725D1*
X4051148Y2462224D1*
X4046859Y2456321D1*
X4041699Y2451161D1*
X4035796Y2446872D1*
X4029295Y2443560D1*
X4022355Y2441305D1*
X4015148Y2440163D1*
X4013139Y2440084D1*
X3893561Y2320646D1*
X3889245Y2317510D1*
X3884491Y2315088D1*
X3879417Y2313439D1*
X3874148Y2312605D1*
X3771480Y2312500D1*
X3584128Y2312605D1*
X3578859Y2313439D1*
X3573785Y2315088D1*
X3569031Y2317510D1*
X3564715Y2320646D1*
X3533372Y2351841D1*
X3532109Y2342594D1*
X3529854Y2335654D1*
X3526542Y2329153D1*
X3522253Y2323250D1*
X3517093Y2318090D1*
X3511190Y2313801D1*
X3508390Y2312233D1*
X3508394Y2292072D1*
X3524394Y2286996D1*
X3750172Y2286891D1*
X3755441Y2286057D1*
X3760515Y2284408D1*
X3765269Y2281986D1*
X3769585Y2278850D1*
X3842256Y2206327D1*
X3914728Y2133855D1*
X3996386Y2133886D1*
Y2004114D1*
X3866614D1*
Y2085803D1*
X3733409Y2219007D1*
X3496726Y2219101D1*
X3491457Y2219935D1*
X3486383Y2221584D1*
X3483622Y2222890D1*
X3483394Y2179118D1*
X3483289Y2037950D1*
X3482455Y2032681D1*
X3480806Y2027607D1*
X3478384Y2022853D1*
X3475248Y2018537D1*
X3448436Y1991576D1*
X3444379Y1988111D1*
X3439830Y1985324D1*
X3434901Y1983282D1*
X3429713Y1982037D1*
X3424394Y1981618D1*
X3259226Y1981723D1*
X3253957Y1982557D1*
X3248883Y1984206D1*
X3244129Y1986628D1*
X3239813Y1989764D1*
X3233398Y1996030D1*
X3233289Y1744718D1*
X3232455Y1739449D1*
X3230806Y1734375D1*
X3228384Y1729621D1*
X3225248Y1725305D1*
X3198436Y1698344D1*
X3194379Y1694879D1*
X3189830Y1692092D1*
X3187043Y1690840D1*
X3206500Y1690500D1*
X4369439D1*
X4381238Y2549996D1*
X3741529Y2550097D1*
X3734266Y2551542D1*
X3727541Y2554642D1*
X3721726Y2559226D1*
X3717142Y2565041D1*
X3714042Y2571766D1*
X3712597Y2579029D1*
X3712500Y2706500D1*
Y3500982D1*
X3707478Y3494435D1*
X3699077Y3486034D1*
X3689465Y3479051D1*
X3683878Y3475961D1*
X3683801Y3441726D1*
X3682966Y3436456D1*
X3681317Y3431382D1*
X3678895Y3426629D1*
X3675759Y3422312D1*
X3603236Y3349641D1*
X3507494Y3253899D1*
X3506223Y3244641D1*
X3503968Y3237701D1*
X3500656Y3231200D1*
X3496367Y3225297D1*
X3491207Y3220137D1*
X3485304Y3215848D1*
X3478803Y3212536D1*
X3471863Y3210281D1*
X3464656Y3209139D1*
X3457360D1*
X3450153Y3210281D1*
X3443213Y3212536D1*
X3436712Y3215848D1*
X3430809Y3220137D1*
X3425649Y3225297D1*
X3421360Y3231200D1*
X3418048Y3237701D1*
X3415793Y3244641D1*
X3414651Y3251848D1*
Y3259144D1*
X3415793Y3266351D1*
X3418048Y3273291D1*
X3421360Y3279792D1*
X3425649Y3285695D1*
X3430809Y3290855D1*
X3436712Y3295144D1*
X3443213Y3298456D1*
X3450153Y3300711D1*
X3457360Y3301853D1*
X3459369Y3301932D1*
X3615918Y3458490D1*
X3615906Y3475985D1*
X3605403Y3482354D1*
X3596369Y3490069D1*
X3588653Y3499104D1*
X3582445Y3509233D1*
X3577899Y3520210D1*
X3575125Y3531762D1*
X3574193Y3543606D1*
X3575125Y3555450D1*
X3577899Y3567003D1*
X3582445Y3577979D1*
X3588653Y3588109D1*
X3596369Y3597143D1*
X3605403Y3604859D1*
X3615533Y3611067D1*
X3626509Y3615613D1*
X3638061Y3618387D1*
X3649906Y3619319D1*
X3661750Y3618387D1*
X3673302Y3615613D1*
X3684278Y3611067D1*
X3694408Y3604859D1*
X3703442Y3597143D1*
X3711158Y3588109D1*
X3712513Y3586082D1*
X3712500Y3743658D1*
X3316291Y3739083D1*
X3437613Y3617739D1*
X3447115Y3619086D1*
X3458995D1*
X3470730Y3617227D1*
X3482029Y3613556D1*
X3492615Y3608162D1*
X3502227Y3601179D1*
X3510627Y3592778D1*
X3517611Y3583166D1*
X3523004Y3572580D1*
X3526676Y3561281D1*
X3528534Y3549547D1*
Y3537666D1*
X3146186Y2076409D2*
X3144593Y2066353D1*
X3141447Y2056669D1*
X3136824Y2047597D1*
X3130840Y2039360D1*
X3123640Y2032160D1*
X3115403Y2026176D1*
X3106331Y2021553D1*
X3096647Y2018407D1*
X3086591Y2016814D1*
X3075599Y2016910D1*
X2815055Y1756365D1*
X3160342Y1756386D1*
X3165394Y1772386D1*
Y2308763D1*
X3159746Y2316200D1*
X3156434Y2322701D1*
X3154179Y2329641D1*
X3153037Y2336848D1*
Y2344144D1*
X3154179Y2351351D1*
X3155945Y2356966D1*
X3027275Y2356949D1*
X3027247Y2349801D1*
X3026105Y2342594D1*
X3023850Y2335654D1*
X3020538Y2329153D1*
X3016249Y2323250D1*
X3014884Y2321773D1*
X3014785Y2278222D1*
X3013951Y2272953D1*
X3012302Y2267879D1*
X3009880Y2263125D1*
X3006744Y2258809D1*
X2934221Y2186138D1*
X2846420Y2098336D1*
X2846386Y2016614D1*
X2735497D1*
X2735372Y1896019D1*
X2734353Y1889587D1*
X2732341Y1883394D1*
X2729385Y1877591D1*
X2725557Y1872323D1*
X2682707Y1829292D1*
X2679960Y1822692D1*
X2676147Y1816471D1*
X2671408Y1810923D1*
X2666095Y1806369D1*
X2747760Y1806386D1*
X3016899Y2075589D1*
X3016814Y2086591D1*
X3018407Y2096647D1*
X3021553Y2106331D1*
X3026176Y2115403D1*
X3032160Y2123640D1*
X3039360Y2130840D1*
X3047597Y2136824D1*
X3056669Y2141447D1*
X3066353Y2144593D1*
X3076409Y2146186D1*
X3086591D1*
X3096647Y2144593D1*
X3106331Y2141447D1*
X3115403Y2136824D1*
X3123640Y2130840D1*
X3130840Y2123640D1*
X3136824Y2115403D1*
X3141447Y2106331D1*
X3144593Y2096647D1*
X3146186Y2086591D1*
Y2076409D1*
X3721186D2*
X3719593Y2066353D1*
X3716447Y2056669D1*
X3711824Y2047597D1*
X3705840Y2039360D1*
X3698640Y2032160D1*
X3690403Y2026176D1*
X3681331Y2021553D1*
X3671647Y2018407D1*
X3661591Y2016814D1*
X3651409D1*
X3641353Y2018407D1*
X3631669Y2021553D1*
X3622597Y2026176D1*
X3614360Y2032160D1*
X3607160Y2039360D1*
X3601176Y2047597D1*
X3596553Y2056669D1*
X3593407Y2066353D1*
X3591814Y2076409D1*
Y2086591D1*
X3593407Y2096647D1*
X3596553Y2106331D1*
X3601176Y2115403D1*
X3607160Y2123640D1*
X3614360Y2130840D1*
X3622597Y2136824D1*
X3631669Y2141447D1*
X3641353Y2144593D1*
X3651409Y2146186D1*
X3661591D1*
X3671647Y2144593D1*
X3681331Y2141447D1*
X3690403Y2136824D1*
X3698640Y2130840D1*
X3705840Y2123640D1*
X3711824Y2115403D1*
X3716447Y2106331D1*
X3719593Y2096647D1*
X3721186Y2086591D1*
Y2076409D1*
X3339710Y2146386D2*
X3415394D1*
Y2349651D1*
X3406668Y2347403D1*
X3399394Y2346831D1*
X3392120Y2347403D1*
X3385025Y2349107D1*
X3378283Y2351899D1*
X3372062Y2355712D1*
X3366514Y2360451D1*
X3361775Y2365999D1*
X3357962Y2372220D1*
X3355170Y2378962D1*
X3353466Y2386057D1*
X3352958Y2391692D1*
X3335267Y2409375D1*
X3305927Y2409390D1*
X3315406Y2399929D1*
X3324658Y2398664D1*
X3331598Y2396409D1*
X3338099Y2393097D1*
X3344002Y2388808D1*
X3349162Y2383648D1*
X3353451Y2377745D1*
X3356763Y2371244D1*
X3359018Y2364304D1*
X3360160Y2357097D1*
Y2349801D1*
X3359018Y2342594D1*
X3356763Y2335654D1*
X3353451Y2329153D1*
X3349162Y2323250D1*
X3344002Y2318090D1*
X3338099Y2313801D1*
X3331598Y2310489D1*
X3324658Y2308234D1*
X3317451Y2307092D1*
X3315442Y2307013D1*
X3295895Y2287457D1*
X3295894Y2190163D1*
X3339694Y2146390D1*
X3291614Y2049573D2*
Y2098303D1*
X3270897Y2119019D1*
X3270894Y2054670D1*
X3286894Y2049618D1*
X3291630D1*
X4296186Y2063909D2*
X4294593Y2053853D1*
X4291447Y2044169D1*
X4286824Y2035097D1*
X4280840Y2026860D1*
X4273640Y2019660D1*
X4265403Y2013676D1*
X4256331Y2009053D1*
X4246647Y2005907D1*
X4236591Y2004314D1*
X4226409D1*
X4216353Y2005907D1*
X4206669Y2009053D1*
X4197597Y2013676D1*
X4189360Y2019660D1*
X4182160Y2026860D1*
X4176176Y2035097D1*
X4171553Y2044169D1*
X4168407Y2053853D1*
X4166814Y2063909D1*
Y2074091D1*
X4168407Y2084147D1*
X4171553Y2093831D1*
X4176176Y2102903D1*
X4182160Y2111140D1*
X4189360Y2118340D1*
X4197597Y2124324D1*
X4206669Y2128947D1*
X4216353Y2132093D1*
X4226409Y2133686D1*
X4236591D1*
X4246647Y2132093D1*
X4256331Y2128947D1*
X4265403Y2124324D1*
X4273640Y2118340D1*
X4280840Y2111140D1*
X4286824Y2102903D1*
X4291447Y2093831D1*
X4294593Y2084147D1*
X4296186Y2074091D1*
Y2063909D1*
X2757227Y3265352D2*
X2757145Y3264658D1*
X2762739Y3263224D1*
X2769481Y3260432D1*
X2775702Y3256619D1*
X2781250Y3251880D1*
X2785989Y3246332D1*
X2789802Y3240111D1*
X2792594Y3233369D1*
X2794298Y3226274D1*
X2794870Y3219000D1*
X2794298Y3211726D1*
X2792594Y3204631D1*
X2789802Y3197889D1*
X2785989Y3191668D1*
X2782364Y3187324D1*
X2782370Y3122955D1*
X2785989Y3118580D1*
X2789802Y3112359D1*
X2792594Y3105617D1*
X2794298Y3098522D1*
X2794870Y3091248D1*
X2794298Y3083974D1*
X2792598Y3076892D1*
X2800239Y3075114D1*
X2806981Y3072322D1*
X2813202Y3068509D1*
X2817546Y3064884D1*
X2854571Y3064890D1*
X2854612Y3072038D1*
X2855754Y3079245D1*
X2858009Y3086185D1*
X2861916Y3093576D1*
X2862014Y3282790D1*
X2862848Y3288059D1*
X2864497Y3293133D1*
X2865803Y3295894D1*
X2820909Y3296122D1*
X2748595D1*
X2752302Y3290111D1*
X2755094Y3283369D1*
X2756798Y3276274D1*
X2757370Y3269000D1*
X2757227Y3265352D1*
X3614827Y2380496D2*
X3613367Y2386726D1*
X3612795Y2394000D1*
X3613367Y2401274D1*
X3615071Y2408369D1*
X3617809Y2414994D1*
X3617795Y2524029D1*
X3476341Y2665469D1*
X3479975Y2659501D1*
X3482767Y2652759D1*
X3484471Y2645664D1*
X3485043Y2638390D1*
X3484471Y2631116D1*
X3482767Y2624021D1*
X3479975Y2617279D1*
X3476162Y2611058D1*
X3471423Y2605510D1*
X3465875Y2600771D1*
X3459654Y2596958D1*
X3452912Y2594166D1*
X3445817Y2592462D1*
X3440182Y2591954D1*
X3398124Y2550036D1*
X3393808Y2546900D1*
X3389054Y2544478D1*
X3383980Y2542829D1*
X3378711Y2541995D1*
X3286248Y2541890D1*
X3287723Y2535664D1*
X3288295Y2528390D1*
X3287723Y2521116D1*
X3286019Y2514021D1*
X3283227Y2507279D1*
X3280294Y2502374D1*
X3467574Y2502285D1*
X3472843Y2501451D1*
X3477917Y2499802D1*
X3482671Y2497380D1*
X3486987Y2494244D1*
X3559658Y2421721D1*
X3600918Y2380462D1*
X3614775Y2380500D1*
X1939994Y1857317D2*
X1933369Y1854579D1*
X1926274Y1852875D1*
X1919000Y1852303D1*
X1911726Y1852875D1*
X1903922Y1854841D1*
X1919004Y1850697D1*
X2013971Y1850592D1*
X2019240Y1849758D1*
X2024314Y1848109D1*
X2029068Y1845687D1*
X2033384Y1842551D1*
X2035805Y1840279D1*
X2036580Y1851077D1*
X2038040Y1857307D1*
X1939932Y1857303D1*
X1902985Y1942420D2*
X1908145Y1944018D1*
X1915352Y1945160D1*
X1922648D1*
X1929855Y1944018D1*
X1936795Y1941763D1*
X1939994Y1940289D1*
X2046881Y1940303D1*
X2072535Y1966024D1*
X2072504Y2033813D1*
X2065213Y2031446D1*
X2058006Y2030304D1*
X2050710D1*
X2043503Y2031446D1*
X2036563Y2033701D1*
X2030062Y2037013D1*
X2024159Y2041302D1*
X2018999Y2046462D1*
X2014710Y2052365D1*
X2011398Y2058866D1*
X2009143Y2065806D1*
X2008001Y2073013D1*
X2007922Y2075022D1*
X1977387Y2105549D1*
X1977285Y2073690D1*
X1976451Y2068421D1*
X1974802Y2063347D1*
X1972380Y2058593D1*
X1969244Y2054277D1*
X1902970Y1987855D1*
X1903004Y1942451D1*
X632314Y2015297D2*
X629566Y2008676D1*
X627504Y2005076D1*
X760011Y2005087D1*
X760128Y2090149D1*
X761146Y2096581D1*
X763159Y2102774D1*
X766115Y2108577D1*
X769943Y2113845D1*
X816349Y2160432D1*
X898695Y2242778D1*
X859731Y2242736D1*
X632278Y2015241D1*
X1480829Y2540549D2*
X1479687Y2533342D1*
X1477432Y2526402D1*
X1475632Y2522601D1*
X1612271Y2522606D1*
X1619704Y2528254D1*
X1626205Y2531566D1*
X1633145Y2533821D1*
X1640352Y2534963D1*
X1647648D1*
X1654855Y2533821D1*
X1660015Y2532223D1*
X1660000Y2656427D1*
X1620924Y2617369D1*
X1620400Y2611726D1*
X1618696Y2604631D1*
X1615904Y2597889D1*
X1612091Y2591668D1*
X1607352Y2586120D1*
X1601804Y2581381D1*
X1595583Y2577568D1*
X1588841Y2574776D1*
X1581746Y2573072D1*
X1574472Y2572500D1*
X1567198Y2573072D1*
X1560103Y2574776D1*
X1553361Y2577568D1*
X1547140Y2581381D1*
X1541592Y2586120D1*
X1536853Y2591668D1*
X1533040Y2597889D1*
X1530248Y2604631D1*
X1528544Y2611726D1*
X1527972Y2619000D1*
X1528544Y2626274D1*
X1530248Y2633369D1*
X1533040Y2640111D1*
X1536853Y2646332D1*
X1541592Y2651880D1*
X1547140Y2656619D1*
X1553361Y2660432D1*
X1560103Y2663224D1*
X1567198Y2664928D1*
X1572833Y2665436D1*
X1609436Y2702048D1*
X1609203Y2853190D1*
X1468438Y2712425D1*
X1468472Y2575908D1*
X1474120Y2568493D1*
X1477432Y2561992D1*
X1479687Y2555052D1*
X1480829Y2547845D1*
Y2540549D1*
X1038329Y2369840D2*
X1037187Y2362633D1*
X1034932Y2355693D1*
X1031620Y2349192D1*
X1027331Y2343289D1*
X1022171Y2338129D1*
X1016268Y2333840D1*
X1009767Y2330528D1*
X1002827Y2328273D1*
X995620Y2327131D1*
X988324D1*
X981117Y2328273D1*
X974177Y2330528D1*
X970978Y2332002D1*
X634111Y2331988D1*
X627503Y2329264D1*
X620408Y2327560D1*
X613134Y2326988D1*
X605860Y2327560D1*
X598765Y2329264D1*
X592023Y2332056D1*
X585802Y2335869D1*
X580254Y2340608D1*
X575515Y2346156D1*
X571702Y2352377D1*
X568910Y2359119D1*
X567206Y2366214D1*
X566634Y2373488D1*
X567206Y2380762D1*
X568910Y2387857D1*
X571702Y2394599D1*
X575515Y2400820D1*
X580254Y2406368D1*
X585802Y2411107D1*
X592023Y2414920D1*
X598765Y2417712D1*
X605860Y2419416D1*
X613134Y2419988D1*
X620408Y2419416D1*
X627503Y2417712D1*
X634128Y2414974D1*
X970995Y2414988D1*
X977603Y2417712D1*
X984698Y2419416D1*
X991972Y2419988D1*
X999246Y2419416D1*
X1006341Y2417712D1*
X1013083Y2414920D1*
X1019304Y2411107D1*
X1024852Y2406368D1*
X1029591Y2400820D1*
X1033404Y2394599D1*
X1036196Y2387857D1*
X1037900Y2380762D1*
X1038472Y2373488D1*
X1038329Y2369840D1*
X2475398Y2544397D2*
X2480860Y2541009D1*
X2485204Y2537384D1*
X2775647Y2537390D1*
X2775610Y2544410D1*
X2475418Y2544390D1*
X2465494Y3135286D2*
X2469119Y3130942D1*
X2472932Y3124721D1*
X2475724Y3117979D1*
X2477428Y3110884D1*
X2477997Y3103539D1*
X2507986Y3133546D1*
X2510644Y3139994D1*
X2510630Y3254107D1*
X2474482Y3290222D1*
X2467889Y3292962D1*
X2465488Y3294307D1*
X2465500Y3135361D1*
X1514353Y2110332D2*
X1513211Y2103125D1*
X1510956Y2096185D1*
X1507644Y2089684D1*
X1503355Y2083781D1*
X1498195Y2078621D1*
X1492292Y2074332D1*
X1485791Y2071020D1*
X1478851Y2068765D1*
X1471644Y2067623D1*
X1464348D1*
X1457141Y2068765D1*
X1450201Y2071020D1*
X1443700Y2074332D1*
X1437797Y2078621D1*
X1436320Y2079986D1*
X1263260Y2079980D1*
X1255796Y2074332D1*
X1249295Y2071020D1*
X1242355Y2068765D1*
X1235148Y2067623D1*
X1227980Y2067618D1*
X1228000Y1995307D1*
X1233648Y1987883D1*
X1236960Y1981382D1*
X1239215Y1974442D1*
X1240357Y1967235D1*
Y1959939D1*
X1239215Y1952732D1*
X1236960Y1945792D1*
X1233648Y1939291D1*
X1229359Y1933388D1*
X1224199Y1928228D1*
X1218296Y1923939D1*
X1211795Y1920627D1*
X1204855Y1918372D1*
X1197648Y1917230D1*
X1190352D1*
X1183145Y1918372D1*
X1176205Y1920627D1*
X1169704Y1923939D1*
X1163801Y1928228D1*
X1158641Y1933388D1*
X1154352Y1939291D1*
X1151040Y1945792D1*
X1148785Y1952732D1*
X1147643Y1959939D1*
Y1967235D1*
X1148785Y1974442D1*
X1151040Y1981382D1*
X1154352Y1987883D1*
X1158641Y1993786D1*
X1160006Y1995263D1*
X1159753Y2327744D1*
X1158233Y2321412D1*
X1155741Y2315395D1*
X1152338Y2309843D1*
X1148109Y2304891D1*
X1095716Y2252679D1*
X1090448Y2248851D1*
X1084645Y2245895D1*
X1078452Y2243883D1*
X1072020Y2242864D1*
X1006264Y2242736D1*
X988344D1*
X989771Y2236510D1*
X990343Y2229236D1*
X989771Y2221962D1*
X988067Y2214867D1*
X985275Y2208125D1*
X981462Y2201904D1*
X976723Y2196356D1*
X971175Y2191617D1*
X964954Y2187804D1*
X958333Y2185056D1*
X842988Y2069691D1*
X843000Y1836390D1*
X868721Y1810666D1*
X980357Y1810697D1*
X981004Y1819197D1*
Y1942586D1*
X978280Y1949218D1*
X976576Y1956313D1*
X976004Y1963587D1*
X976576Y1970861D1*
X978280Y1977956D1*
X981072Y1984698D1*
X984885Y1990919D1*
X989624Y1996467D1*
X995172Y2001206D1*
X1001393Y2005019D1*
X1008135Y2007811D1*
X1015230Y2009515D1*
X1022504Y2010087D1*
X1029778Y2009515D1*
X1036873Y2007811D1*
X1043615Y2005019D1*
X1049836Y2001206D1*
X1055384Y1996467D1*
X1060123Y1990919D1*
X1063936Y1984698D1*
X1066728Y1977956D1*
X1068432Y1970861D1*
X1069004Y1963587D1*
X1068432Y1956313D1*
X1066728Y1949218D1*
X1063990Y1942593D1*
X1064004Y1811390D1*
X1072504Y1810697D1*
X1728510D1*
X1735103Y1813421D1*
X1742198Y1815125D1*
X1749472Y1815697D1*
X1756746Y1815125D1*
X1763841Y1813421D1*
X1770466Y1810683D1*
X1851962Y1810697D1*
X1843150Y1819616D1*
X1840014Y1823932D1*
X1837592Y1828686D1*
X1835943Y1833760D1*
X1835109Y1839029D1*
X1835004Y2001972D1*
X1835422Y2007291D1*
X1836668Y2012479D1*
X1838710Y2017408D1*
X1841497Y2021957D1*
X1844962Y2026014D1*
X1849140Y2030191D1*
X1702350Y2030165D1*
X1697986Y2026546D1*
X1691765Y2022733D1*
X1685023Y2019941D1*
X1677928Y2018237D1*
X1670654Y2017665D1*
X1663380Y2018237D1*
X1656285Y2019941D1*
X1649543Y2022733D1*
X1643322Y2026546D1*
X1637774Y2031285D1*
X1633035Y2036833D1*
X1629222Y2043054D1*
X1626430Y2049796D1*
X1624726Y2056891D1*
X1624154Y2064165D1*
X1624726Y2071439D1*
X1626430Y2078534D1*
X1629222Y2085276D1*
X1633035Y2091497D1*
X1637774Y2097045D1*
X1643322Y2101784D1*
X1649543Y2105597D1*
X1656285Y2108389D1*
X1663380Y2110093D1*
X1670654Y2110665D1*
X1677928Y2110093D1*
X1685023Y2108389D1*
X1691765Y2105597D1*
X1697986Y2101784D1*
X1702330Y2098159D1*
X1854980Y2098165D1*
X1860000Y2114165D1*
Y2128081D1*
X1854792Y2124332D1*
X1848291Y2121020D1*
X1841351Y2118765D1*
X1834144Y2117623D1*
X1826848D1*
X1819641Y2118765D1*
X1812701Y2121020D1*
X1806200Y2124332D1*
X1800297Y2128621D1*
X1798820Y2129986D1*
X1511697Y2129980D1*
X1513924Y2121254D1*
X1514496Y2113980D1*
X1514353Y2110332D1*
X2239353Y2122832D2*
X2238211Y2115625D1*
X2235956Y2108685D1*
X2232644Y2102184D1*
X2228355Y2096281D1*
X2226990Y2094804D1*
X2226996Y2071451D1*
X2232489Y2073836D1*
X2237677Y2075081D1*
X2242996Y2075500D1*
X2337081Y2075395D1*
X2342350Y2074561D1*
X2347424Y2072912D1*
X2352178Y2070490D1*
X2356494Y2067354D1*
X2383456Y2040541D1*
X2386921Y2036484D1*
X2389708Y2031935D1*
X2391750Y2027006D1*
X2392995Y2021818D1*
X2393414Y2016499D1*
Y1761470D1*
X2409414Y1756386D1*
X2468838D1*
X2437443Y1787934D1*
X2433615Y1793202D1*
X2430659Y1799005D1*
X2428647Y1805198D1*
X2427628Y1811630D1*
X2427500Y1877386D1*
Y2140032D1*
X2237506Y2139984D1*
X2238924Y2133754D1*
X2239496Y2126480D1*
X2239353Y2122832D1*
X2159002Y2094804D2*
X2155491Y2099002D1*
X2155376Y1945547D1*
X2154357Y1939115D1*
X2152345Y1932922D1*
X2149389Y1927119D1*
X2145561Y1921851D1*
X2107130Y1883240D1*
X2114184Y1877797D1*
X2153944Y1877803D1*
X2158996Y1893803D1*
Y2094731D1*
X2949214Y3064884D2*
X2953558Y3068509D1*
X2959779Y3072322D1*
X2966521Y3075114D1*
X2973616Y3076818D1*
X2980890Y3077390D1*
X2984410Y3077252D1*
X2984390Y3304025D1*
X2978789Y3297242D1*
X2973241Y3292503D1*
X2967020Y3288690D1*
X2960278Y3285898D1*
X2953183Y3284194D1*
X2947548Y3283686D1*
X2929865Y3265995D1*
X2929909Y3104780D1*
X2936328Y3098589D1*
X2940617Y3092686D1*
X2943929Y3086185D1*
X2946184Y3079245D1*
X2947326Y3072038D1*
X2947331Y3064870D1*
X2949200Y3064890D1*
X2325423Y1988814D2*
X2322932Y1982889D1*
X2319119Y1976668D1*
X2315494Y1972324D1*
X2315500Y1745162D1*
X2321148Y1737705D1*
X2324460Y1731204D1*
X2326715Y1724264D1*
X2327857Y1717057D1*
Y1709761D1*
X2326715Y1702554D1*
X2324460Y1695614D1*
X2321921Y1690494D1*
X2372662Y1690500D1*
X2366649Y1693396D1*
X2362333Y1696532D1*
X2333560Y1725305D1*
X2330424Y1729621D1*
X2328002Y1734375D1*
X2326353Y1739449D1*
X2325519Y1744718D1*
X2325414Y1847386D1*
Y1988743D1*
X2241079Y1690494D2*
X2238540Y1695614D1*
X2236285Y1702554D1*
X2235143Y1709761D1*
Y1717057D1*
X2236285Y1724264D1*
X2238540Y1731204D1*
X2241852Y1737705D1*
X2246141Y1743608D1*
X2247506Y1745085D1*
X2247500Y1814434D1*
X2243850Y1809222D1*
X2215077Y1780449D1*
X2210761Y1777313D1*
X2206007Y1774891D1*
X2200933Y1773242D1*
X2195664Y1772408D1*
X2092996Y1772303D1*
X2019029Y1772408D1*
X2013760Y1773242D1*
X2008686Y1774891D1*
X2003932Y1777313D1*
X1999616Y1780449D1*
X1997195Y1782721D1*
X1953930Y1782697D1*
X1988522Y1748167D1*
X1995111Y1745432D1*
X2001332Y1741619D1*
X2006880Y1736880D1*
X2011619Y1731332D1*
X2015432Y1725111D1*
X2018224Y1718369D1*
X2019928Y1711274D1*
X2020500Y1704000D1*
X2019928Y1696726D1*
X2018468Y1690496D1*
X2241021Y1690500D1*
X2141026Y2666509D2*
X2133233Y2668934D1*
X2126732Y2672246D1*
X2120829Y2676535D1*
X2119352Y2677900D1*
X2016332Y2677999D1*
X2011063Y2678833D1*
X2005989Y2680482D1*
X2003228Y2681788D1*
X2002390Y2681303D1*
Y2653520D1*
X2109374Y2546534D1*
X2109495Y2623476D1*
X2110329Y2628745D1*
X2111978Y2633819D1*
X2114400Y2638573D1*
X2117536Y2642889D1*
X2140997Y2666498D1*
X3106288Y2502374D2*
X3103355Y2507279D1*
X3100607Y2513900D1*
X3070297Y2544371D1*
X3066469Y2549639D1*
X3063385Y2555788D1*
X3058396Y2554348D1*
X3054339Y2550883D1*
X3049790Y2548096D1*
X3044861Y2546054D1*
X3041913Y2545254D1*
X3084675Y2502404D1*
X3106202Y2502390D1*
X1770466Y1727711D2*
X1763841Y1724973D1*
X1756746Y1723269D1*
X1749472Y1722697D1*
X1742198Y1723269D1*
X1735103Y1724973D1*
X1728478Y1727711D1*
X1044248Y1727825D1*
X1037816Y1728844D1*
X1031623Y1730856D1*
X1025820Y1733812D1*
X1022821Y1735851D1*
X1016345Y1732220D1*
X1010328Y1729728D1*
X1003996Y1728208D1*
X997504Y1727697D1*
X848244Y1727825D1*
X841812Y1728844D1*
X835619Y1730856D1*
X829816Y1733812D1*
X824548Y1737640D1*
X777961Y1784046D1*
X769943Y1792245D1*
X766115Y1797513D1*
X763159Y1803316D1*
X761147Y1809509D1*
X760128Y1815941D1*
X760000Y1881697D1*
Y1922078D1*
X553386Y1922215D1*
X546954Y1923234D1*
X540761Y1925246D1*
X534958Y1928202D1*
X529690Y1932030D1*
X483103Y1978436D1*
X475085Y1986635D1*
X471257Y1991903D1*
X468301Y1997706D1*
X466289Y2003899D1*
X465270Y2010331D1*
X465142Y2076087D1*
X464912Y2119037D1*
X457119Y1690446D1*
X1928814Y1690500D1*
X1891588Y1727723D1*
X1770473Y1727697D1*
X1027264Y3606169D2*
X1027392Y3636075D1*
X1028411Y3642507D1*
X1030423Y3648700D1*
X1033379Y3654503D1*
X1037207Y3659771D1*
X1068594Y3691339D1*
X1051684Y3691319D1*
X1026020Y3665598D1*
X1026051Y3606891D1*
X2932975Y2506888D2*
X2962461Y2477403D1*
X3013576Y2477390D1*
X2984037Y2506876D1*
X2932920Y2506890D1*
D35*
X1394000Y2969000D3*
D36*
X1494000D3*
X1594000D3*
X1694000D3*
X1794000D3*
X1894000D3*
X1994000D3*
X2094000D3*
X2194000D3*
X2294000D3*
X2394000D3*
X2494000D3*
X2594000D3*
X2694000D3*
X2794000D3*
X2894000D3*
D35*
X1394000Y2369000D3*
D36*
X1494000D3*
X1594000D3*
X1694000D3*
X1794000D3*
X1894000D3*
X1994000D3*
X2094000D3*
X2194000D3*
X2294000D3*
X2394000D3*
X2494000D3*
X2594000D3*
X2694000D3*
X2794000D3*
X2894000D3*
D37*
X590850Y3543606D3*
D38*
X787701D3*
X984551D3*
D37*
X1181402D3*
D38*
X1378252D3*
X1575102D3*
D37*
X1771953D3*
D38*
X1968803D3*
X2165654D3*
D37*
X2665654D3*
D38*
X2862504D3*
X3059354D3*
D37*
X3256205D3*
D38*
X3453055D3*
X3649906D3*
D37*
X3846756D3*
D38*
X4043606D3*
X4240457D3*
D37*
X984551Y661717D3*
D38*
X787701D3*
X590850D3*
D37*
X1575102D3*
D38*
X1378252D3*
X1181402D3*
D37*
X2165654D3*
D38*
X1968803D3*
X1771953D3*
D37*
X3059354D3*
D38*
X2862504D3*
X2665654D3*
D37*
X3649906D3*
D38*
X3453055D3*
X3256205D3*
D37*
X4240457D3*
D38*
X4043606D3*
X3846756D3*
D39*
X869000Y931500D3*
D40*
Y1031500D3*
D39*
X1294000Y931500D3*
D40*
Y1031500D3*
D39*
X1719000Y931500D3*
D40*
Y1031500D3*
D39*
X2156500Y931500D3*
D40*
Y1031500D3*
D41*
X3081500Y2081500D3*
D42*
X2781500D3*
D41*
X3081500Y1337406D3*
X2781500Y1211421D3*
X3081500Y1085437D3*
X3656500Y2081500D3*
D42*
X3356500D3*
D41*
X3656500Y1337406D3*
X3356500Y1211421D3*
X3656500Y1085437D3*
X4231500Y2069000D3*
D42*
X3931500D3*
D41*
X4231500Y1324906D3*
X3931500Y1198921D3*
X4231500Y1072937D3*
X3244000Y2956500D3*
D42*
Y2656500D3*
D41*
X3988094Y2956500D3*
X4114079Y2656500D3*
X4240063Y2956500D3*
X444000Y1656500D2*
D108*
X4381500D1*
Y469000D1*
X444000D1*
Y1656500D1*
X3744000Y3756500D2*
D23*
X4394000D1*
Y2581500D1*
X3744000D1*
Y3756500D1*
M02*
