%TF.GenerationSoftware,Novarm,DipTrace,3.0.0.2*%
%TF.CreationDate,2017-03-05T11:54:51+02:00*%
%FSLAX26Y26*%
%MOIN*%
%TF.FileFunction,Copper,L2,Bot*%
%TF.Part,Single*%
%TA.AperFunction,Conductor*%
%ADD14C,0.015*%
%ADD16C,0.03*%
%ADD18C,0.085*%
%TA.AperFunction,CopperBalancing*%
%ADD21C,0.025*%
%TA.AperFunction,Nonconductor*%
%ADD23C,0.01*%
%TA.AperFunction,ComponentPad*%
%ADD35R,0.06378X0.06378*%
%ADD36C,0.06378*%
%ADD37R,0.098425X0.098425*%
%ADD38C,0.098425*%
%ADD39C,0.076772*%
%ADD40R,0.076772X0.076772*%
%TA.AperFunction,ViaPad*%
%ADD50C,0.04*%
%TA.AperFunction,Nonconductor*%
%ADD98C,0.015*%
G75*
G01*
%LPD*%
X3256205Y3543606D2*
D14*
Y3265496D1*
X3691618D1*
X3716618Y3290496D1*
Y3670319D1*
X3691618Y3695319D1*
X2757366D1*
X2732366Y3670319D1*
Y3269000D1*
X2680890Y3217524D1*
Y3030890D1*
X2943390Y2873996D2*
Y3595319D1*
X2968390Y3620319D1*
X3573193D1*
X3649906Y3543606D1*
X2968390Y3620319D2*
X2943390Y3645319D1*
X2794866D1*
X2769866Y3620319D1*
Y3224138D1*
X2764728Y3219000D1*
X2414469Y3409000D2*
Y3048859D1*
X2394000Y3028390D1*
Y2969000D1*
X1780890Y3043390D2*
X2118390D1*
X2143390Y3018390D1*
Y2934591D1*
X2168390Y2909591D1*
X2234591D1*
X2294000Y2969000D1*
X1549630Y3219000D2*
Y3409004D1*
X1574630Y3434004D1*
X1626815D1*
X1651815Y3459004D1*
Y3595319D1*
X1676815Y3620319D1*
X2207366D1*
X2232366Y3595319D1*
Y3471079D1*
X2194000Y3432713D1*
Y2969000D1*
X3244000Y2956500D2*
D16*
X3606500D1*
X3656500Y2906500D1*
Y2394000D1*
X608134Y2062358D2*
X558134Y2112358D1*
Y2629992D1*
X608134Y2679992D1*
X943488D1*
X3081500Y2081500D2*
X2984000Y1984000D1*
X2544000D1*
X2494000Y2034000D1*
Y2369000D1*
X1919000Y1708606D2*
X3008118D1*
X1968803Y3543606D2*
Y3315496D1*
X1918803Y3265496D1*
X1716996D1*
X3656500Y2394000D2*
Y2081500D1*
X4231500Y2069000D2*
Y2297996D1*
X3008118Y1708606D2*
X4181500D1*
X4231500Y1758606D1*
Y2069000D1*
X1716996Y3265496D2*
Y3186445D1*
X1690890Y3160339D1*
Y3040890D1*
X2094000Y2369000D2*
D14*
Y2443394D1*
X2069000Y2468394D1*
X1768390D1*
X1743390Y2493394D1*
Y3080890D1*
X2140654D1*
X2165654Y3105890D1*
Y3543606D1*
X2665654D2*
X2401969D1*
X2376969Y3518606D1*
Y3070177D1*
X2343390Y3036598D1*
Y2909591D1*
X2318390Y2884591D1*
X2278528D1*
X2253528Y2859591D1*
Y2502926D1*
X2194000Y2443398D1*
Y2369000D1*
X2294000D2*
Y2834591D1*
X2319000Y2859591D1*
X2388527D1*
X2591815Y2656303D1*
X2709472D1*
X2734472Y2681303D1*
Y2838389D1*
X2843390Y2947307D1*
Y3264181D1*
X2862504Y3283295D1*
Y3543606D1*
X3059354D2*
Y3224867D1*
X3084356Y3199865D1*
X3679000D1*
X3704000Y3174865D1*
Y2584000D1*
X3729000Y2559000D1*
X3962386D1*
X3987386Y2534000D1*
Y1891500D1*
X3962386Y1866500D1*
X2419000D1*
X2394000Y1891500D1*
Y2369000D1*
X1556500Y2898992D2*
X1543390Y2912102D1*
Y3058236D1*
X1587130Y3101976D1*
Y3384004D1*
X1612130Y3409004D1*
X1746953D1*
X1771953Y3434004D1*
Y3543606D1*
X1853528Y2618803D2*
X1794000Y2678331D1*
Y2969000D1*
X2394000Y2430890D2*
X2343390D1*
Y2319610D1*
X2318390Y2294610D1*
X2068390D1*
X2043390Y2319610D1*
Y2418394D1*
X2018390Y2443394D1*
X1719000D1*
X1694000Y2468394D1*
Y2969000D1*
X1553528Y2544197D2*
X1511972Y2585753D1*
Y2765291D1*
X1594000Y2847319D1*
Y2969000D1*
X2329469Y3144197D2*
D16*
Y3324000D1*
Y3637819D1*
X2279469Y3687819D1*
X1119000D1*
X1069000Y3637819D1*
Y2379000D1*
X613134D1*
X1094000Y2258508D2*
Y2354000D1*
X1069000Y2379000D1*
X2781500Y2081500D2*
D14*
X2847386Y2147386D1*
X3156598D1*
X1231500Y2974020D2*
Y2505890D1*
X1256500Y2480890D1*
X1644000D1*
X2431500Y2899394D2*
X2617485Y2713409D1*
X2696972D1*
Y2840180D1*
X2743390Y2886598D1*
Y3169000D1*
X3113803Y2383331D2*
X3078744Y2418390D1*
X2753390D1*
X2683390Y2488390D1*
X2356500D1*
X3194098Y2232783D2*
X2763362D1*
X2351028Y2822091D2*
X2334472Y2805535D1*
Y2678413D1*
Y2576657D1*
X2359472Y2551657D1*
X2525481D1*
X2563748Y2513390D1*
X3159492D1*
X2088929Y3274000D2*
X1933319Y3118390D1*
X1844000D1*
X2562130Y3219000D2*
X2643390Y3137740D1*
Y2769000D1*
X1574472Y2619000D2*
X1634472Y2679000D1*
Y2843803D1*
Y2886842D1*
X1643390Y2895760D1*
Y3371504D1*
X2211980Y2126480D2*
Y1909394D1*
X2257366Y3068390D2*
Y3620319D1*
X2232366Y3645319D1*
X1294000D1*
X1269000Y3620319D1*
Y2587579D1*
X1294000Y2562579D1*
X1432110D1*
X1344610Y1935823D2*
Y2192898D1*
X1194000Y2343508D1*
X607780Y2744197D2*
D16*
X938528D1*
X3356500Y2081500D2*
D14*
Y2353449D1*
X3313803D1*
X3211362Y2455890D1*
X2790890D1*
X3931500Y2069000D2*
Y1954000D1*
X3906500Y1929000D1*
X2943390D1*
X2659472Y2550890D2*
X3210342D1*
X3469291Y2291941D1*
Y2040614D1*
X3494291Y2015614D1*
X3845654D1*
X3870654Y2040614D1*
Y2486520D1*
X3128528Y2618803D2*
X2821972D1*
X1884472Y2544598D2*
X1943390Y2603516D1*
Y2993390D1*
X1968390Y3018390D1*
X2044610D1*
X2094000Y2969000D1*
X2216028Y2703409D2*
X2019000D1*
X1994000Y2728409D1*
Y2969000D1*
X2781500Y1211421D2*
D18*
X2665654Y1095575D1*
Y661717D1*
X3081500Y1337406D2*
X2901500Y1157406D1*
Y700713D1*
X2862504Y661717D1*
X3081500Y1085437D2*
Y810575D1*
X3059354Y788429D1*
Y661717D1*
X3356500Y1211421D2*
X3256205Y1111126D1*
Y661717D1*
X3656500Y1337406D2*
X3476500Y1157406D1*
Y685161D1*
X3453055Y661717D1*
X3656500Y1085437D2*
Y668311D1*
X3649906Y661717D1*
X3931500Y1198921D2*
X3846756Y1114177D1*
Y661717D1*
X4231500Y1324906D2*
X4051500Y1144906D1*
Y669610D1*
X4043606Y661717D1*
X4231500Y1072937D2*
Y797386D1*
X4240457Y788429D1*
Y661717D1*
X4114079Y2656500D2*
Y2694890D1*
X3966756D1*
X3846756Y2814890D1*
Y3543606D1*
X3988094Y2956500D2*
Y3072386D1*
X4043606Y3127898D1*
Y3543606D1*
X4240063Y2956500D2*
Y3176697D1*
X4240457Y3177091D1*
Y3543606D1*
X1327031Y3269000D2*
D14*
X1378252Y3320221D1*
Y3543606D1*
X1206697Y3319669D2*
X1181402Y3344964D1*
Y3543606D1*
X1694000Y2369000D2*
X1506500Y2181500D1*
Y1923323D1*
X1481500Y1898323D1*
X744000D1*
X1794000Y2369000D2*
Y2293390D1*
X1880890Y2206500D1*
X1894000Y2369000D2*
Y2306807D1*
X1918390Y2282417D1*
Y1930823D1*
X1893390Y1905823D1*
X1569000D1*
X2094000Y2075598D2*
X1994000Y2175598D1*
Y2369000D1*
X3446795Y2408335D2*
D16*
Y2489118D1*
X1204965Y1850823D2*
X1667846D1*
X1749472Y1769197D1*
X2460890Y2440890D2*
X2622110D1*
X2694000Y2369000D1*
X2494004Y3127701D2*
X2494000Y2969000D1*
X3453055Y3543606D2*
Y3370496D1*
X3503055Y3320496D1*
X3611913D1*
X984551Y3543606D2*
Y2981500D1*
X3446795Y2489118D2*
Y2765890D1*
X3396795Y2815890D1*
X3170614D1*
Y2994595D1*
X3261913Y3085894D1*
X2788528Y2790890D2*
X3145614D1*
X3170614Y2815890D1*
X1749472Y1769197D2*
X2231500D1*
X2281500Y1819197D1*
Y1949000D1*
X3081012Y2292780D2*
X3249102D1*
X2694000Y2369000D2*
X2770220Y2292780D1*
X3081012D1*
D50*
X2680890Y3030890D3*
X2732366Y3269000D3*
X2943390Y2873996D3*
X2764728Y3219000D3*
X2414469Y3409000D3*
X1780890Y3043390D3*
X1549630Y3219000D3*
X3656500Y2394000D3*
X943488Y2679992D3*
X608134Y2062358D3*
X4231500Y2297996D3*
X3008118Y1708606D3*
X1690890Y3040890D3*
X1919000Y1708606D3*
X1716996Y3265496D3*
X1556500Y2898992D3*
X1853528Y2618803D3*
X2394000Y2430890D3*
X1553528Y2544197D3*
X2329469Y3144197D3*
X613134Y2379000D3*
X2329469Y3324000D3*
X1094000Y2258508D3*
X3156598Y2147386D3*
X1644000Y2480890D3*
X1231500Y2974020D3*
X2743390Y3169000D3*
X2431500Y2899394D3*
X2696972Y2713409D3*
X2356500Y2488390D3*
X3113803Y2383331D3*
X2763362Y2232783D3*
X3194098D3*
X3159492Y2513390D3*
X2351028Y2822091D3*
X2334472Y2678413D3*
X1844000Y3118390D3*
X2088929Y3274000D3*
X2643390Y2769000D3*
X2562130Y3219000D3*
X1643390Y3371504D3*
X1574472Y2619000D3*
X1634472Y2843803D3*
X2211980Y1909394D3*
Y2126480D3*
X2257366Y3068390D3*
X1432110Y2562579D3*
X1194000Y2343508D3*
X1344610Y1935823D3*
X938528Y2744197D3*
X607780D3*
X2790890Y2455890D3*
X3313803Y2353449D3*
X2943390Y1929000D3*
X3870654Y2486520D3*
X2659472Y2550890D3*
X2821972Y2618803D3*
X3128528D3*
X1884472Y2544598D3*
X2216028Y2703409D3*
X1327031Y3269000D3*
X1206697Y3319669D3*
X744000Y1898323D3*
X1880890Y2206500D3*
X1569000Y1905823D3*
X2094000Y2075598D3*
X3261913Y3085894D3*
X3081012Y2292780D3*
X1204965Y1850823D3*
X2460890Y2440890D3*
X3611913Y3320496D3*
X984551Y2981500D3*
X3446795Y2408335D3*
X3249102Y2292780D3*
X2788528Y2790890D3*
X2494004Y3127701D3*
X2281500Y1949000D3*
X3446795Y2489118D3*
X1749472Y1769197D3*
X501163Y3706631D2*
D21*
X1076632D1*
X495841Y3681762D2*
X1051778D1*
X495353Y3656894D2*
X1029659D1*
X494913Y3632025D2*
X1025021D1*
X494474Y3607156D2*
X512618D1*
X669083D2*
X744063D1*
X831339D2*
X1025021D1*
X1421915D2*
X1617452D1*
X494034Y3582287D2*
X512618D1*
X669083D2*
X720138D1*
X855265D2*
X1025021D1*
X1445841D2*
X1615304D1*
X2036368D2*
X2098067D1*
X3334415D2*
X3560665D1*
X493546Y3557419D2*
X512618D1*
X669083D2*
X710763D1*
X864640D2*
X1025021D1*
X1455216D2*
X1615304D1*
X2045743D2*
X2088692D1*
X3334415D2*
X3572970D1*
X493106Y3532550D2*
X512618D1*
X669083D2*
X710323D1*
X865079D2*
X1025021D1*
X1455655D2*
X1615304D1*
X2046183D2*
X2088253D1*
X3334415D2*
X3572481D1*
X492667Y3507681D2*
X512618D1*
X669083D2*
X718575D1*
X856827D2*
X1025021D1*
X1447403D2*
X1615304D1*
X2037931D2*
X2096505D1*
X2416593D2*
X2587423D1*
X3334415D2*
X3580782D1*
X492228Y3482812D2*
X512618D1*
X669083D2*
X740060D1*
X835343D2*
X1025021D1*
X1425870D2*
X1615304D1*
X2016446D2*
X2118038D1*
X2413468D2*
X2587423D1*
X2979874D2*
X3011739D1*
X3334415D2*
X3602267D1*
X491739Y3457944D2*
X1025021D1*
X1112979D2*
X1144894D1*
X1414737D2*
X1548019D1*
X2012784D2*
X2129171D1*
X2413468D2*
X2695870D1*
X2979874D2*
X3022872D1*
X3292716D2*
X3680147D1*
X491300Y3433075D2*
X1025021D1*
X1112979D2*
X1144894D1*
X1414737D2*
X1523116D1*
X2012784D2*
X2129171D1*
X2456729D2*
X2695870D1*
X2979874D2*
X3022872D1*
X3292716D2*
X3680147D1*
X490860Y3408206D2*
X1025021D1*
X1112979D2*
X1144894D1*
X1414737D2*
X1513155D1*
X2012784D2*
X2129171D1*
X2463468D2*
X2695870D1*
X2979874D2*
X3022872D1*
X3292716D2*
X3680147D1*
X490421Y3383337D2*
X1025021D1*
X1112979D2*
X1144894D1*
X1414737D2*
X1513155D1*
X2012784D2*
X2129171D1*
X2455753D2*
X2695870D1*
X2979874D2*
X3022872D1*
X3292716D2*
X3680147D1*
X489933Y3358469D2*
X1025021D1*
X1112979D2*
X1144894D1*
X1414737D2*
X1513155D1*
X2012784D2*
X2129171D1*
X2450968D2*
X2695870D1*
X2979874D2*
X3022872D1*
X3292716D2*
X3680147D1*
X489493Y3333600D2*
X1025021D1*
X1112979D2*
X1146847D1*
X1414737D2*
X1513155D1*
X2012784D2*
X2129171D1*
X2450968D2*
X2695870D1*
X2979874D2*
X3022872D1*
X3292716D2*
X3680147D1*
X489054Y3308731D2*
X1025021D1*
X1112979D2*
X1159005D1*
X1412735D2*
X1513155D1*
X2012247D2*
X2055489D1*
X2450968D2*
X2695870D1*
X2979874D2*
X3022872D1*
X3292716D2*
X3680147D1*
X488614Y3283862D2*
X1025021D1*
X1112979D2*
X1174532D1*
X1392472D2*
X1513155D1*
X1998331D2*
X2040987D1*
X2450968D2*
X2685812D1*
X2979874D2*
X3022872D1*
X488126Y3258993D2*
X1025021D1*
X1112979D2*
X1232491D1*
X1374942D2*
X1513155D1*
X1973478D2*
X2023360D1*
X2450968D2*
X2535909D1*
X2588370D2*
X2671798D1*
X2979874D2*
X3022872D1*
X487687Y3234125D2*
X1025021D1*
X1112979D2*
X1232491D1*
X1360294D2*
X1503146D1*
X1948429D2*
X1998507D1*
X2450968D2*
X2515646D1*
X2608585D2*
X2648751D1*
X2979874D2*
X3022872D1*
X487247Y3209256D2*
X1025021D1*
X1112979D2*
X1232491D1*
X1305509D2*
X1501681D1*
X1760978D2*
X1973604D1*
X2450968D2*
X2514181D1*
X2622452D2*
X2644405D1*
X2979874D2*
X3026681D1*
X486759Y3184387D2*
X1025021D1*
X1112979D2*
X1232491D1*
X1305509D2*
X1516085D1*
X1760929D2*
X1948751D1*
X2450968D2*
X2528585D1*
X2979874D2*
X3049288D1*
X486319Y3159518D2*
X1025021D1*
X1112979D2*
X1232491D1*
X1305509D2*
X1550655D1*
X1751065D2*
X1819796D1*
X1868204D2*
X1923897D1*
X2450968D2*
X2571065D1*
X2979874D2*
X3667501D1*
X485880Y3134650D2*
X1025021D1*
X1112979D2*
X1232491D1*
X1305509D2*
X1550655D1*
X1734854D2*
X1797921D1*
X2450968D2*
X2595919D1*
X2979874D2*
X3667501D1*
X485440Y3109781D2*
X1025021D1*
X1112979D2*
X1232491D1*
X1305509D2*
X1544356D1*
X2450968D2*
X2606905D1*
X2979874D2*
X3667501D1*
X484952Y3084912D2*
X1025021D1*
X1112979D2*
X1232491D1*
X1305509D2*
X1519503D1*
X2450968D2*
X2606905D1*
X2979874D2*
X3667501D1*
X484513Y3060043D2*
X1025021D1*
X1112979D2*
X1232491D1*
X1305509D2*
X1506954D1*
X2450968D2*
X2606905D1*
X2979874D2*
X3667501D1*
X484073Y3035175D2*
X1025021D1*
X1112979D2*
X1232491D1*
X1305509D2*
X1506905D1*
X2448087D2*
X2606905D1*
X2979874D2*
X3667501D1*
X483634Y3010306D2*
X1025021D1*
X1112979D2*
X1199923D1*
X1305509D2*
X1333126D1*
X2437784D2*
X2550216D1*
X2979874D2*
X3205245D1*
X3282755D2*
X3667501D1*
X483146Y2985437D2*
X1025021D1*
X1112979D2*
X1183907D1*
X1305509D2*
X1333126D1*
X2452530D2*
X2535470D1*
X2979874D2*
X3183419D1*
X3638712D2*
X3667501D1*
X482706Y2960568D2*
X1025021D1*
X1112979D2*
X1184493D1*
X1305509D2*
X1333126D1*
X2454288D2*
X2533712D1*
X2979874D2*
X3176729D1*
X482267Y2935699D2*
X1025021D1*
X1112979D2*
X1194991D1*
X1305509D2*
X1333126D1*
X2463077D2*
X2543526D1*
X2979874D2*
X3180050D1*
X481827Y2910831D2*
X1025021D1*
X1112979D2*
X1194991D1*
X1305509D2*
X1333126D1*
X1454874D2*
X1486446D1*
X1830509D2*
X1886446D1*
X2030509D2*
X2086446D1*
X2101560D2*
X2116573D1*
X2479093D2*
X2586446D1*
X2857462D2*
X2886446D1*
X2979874D2*
X3195431D1*
X3292569D2*
X3590987D1*
X481339Y2885962D2*
X1025021D1*
X1112979D2*
X1194991D1*
X1305509D2*
X1509347D1*
X1830509D2*
X1906905D1*
X2030509D2*
X2141476D1*
X2495499D2*
X2606905D1*
X2832608D2*
X2895968D1*
X2990812D2*
X3612521D1*
X480899Y2861093D2*
X1025021D1*
X1112979D2*
X1194991D1*
X1305509D2*
X1527071D1*
X1830509D2*
X1906905D1*
X2030509D2*
X2217062D1*
X2520353D2*
X2606905D1*
X2807755D2*
X2896212D1*
X2990567D2*
X3612521D1*
X480460Y2836224D2*
X1025021D1*
X1112979D2*
X1194991D1*
X1305509D2*
X1532345D1*
X1830509D2*
X1906905D1*
X2030509D2*
X2217062D1*
X2545255D2*
X2606905D1*
X2782853D2*
X2913790D1*
X2972989D2*
X3612521D1*
X480021Y2811356D2*
X1025021D1*
X1112979D2*
X1194991D1*
X1305509D2*
X1507491D1*
X1830509D2*
X1906905D1*
X2030509D2*
X2217062D1*
X2570108D2*
X2606905D1*
X2770938D2*
X3612521D1*
X479532Y2786487D2*
X585958D1*
X629630D2*
X916671D1*
X960343D2*
X1025021D1*
X1112979D2*
X1194991D1*
X1305509D2*
X1482882D1*
X1830509D2*
X1906905D1*
X2030509D2*
X2217062D1*
X2383438D2*
X2411056D1*
X2770938D2*
X3612521D1*
X479093Y2761618D2*
X562179D1*
X984122D2*
X1025021D1*
X1112979D2*
X1194991D1*
X1305509D2*
X1475509D1*
X1830509D2*
X1906905D1*
X2030509D2*
X2217062D1*
X2370938D2*
X2435958D1*
X2770938D2*
X3612521D1*
X478653Y2736749D2*
X559396D1*
X986905D2*
X1025021D1*
X1112979D2*
X1194991D1*
X1305509D2*
X1475509D1*
X1830509D2*
X1906905D1*
X2370938D2*
X2460812D1*
X2770938D2*
X3612521D1*
X478214Y2711881D2*
X571847D1*
X979825D2*
X1025021D1*
X1112979D2*
X1194991D1*
X1305509D2*
X1475509D1*
X1830509D2*
X1906905D1*
X2370938D2*
X2485665D1*
X2770938D2*
X3176632D1*
X3311368D2*
X3612521D1*
X477726Y2687012D2*
X553976D1*
X991935D2*
X1025021D1*
X1112979D2*
X1194991D1*
X1305509D2*
X1475509D1*
X1835880D2*
X1906905D1*
X2382657D2*
X2510519D1*
X2770938D2*
X3176632D1*
X3311368D2*
X3612521D1*
X477286Y2662143D2*
X529122D1*
X988907D2*
X1025021D1*
X1112979D2*
X1194991D1*
X1305509D2*
X1475509D1*
X1872892D2*
X1906905D1*
X1979874D2*
X2192110D1*
X2380509D2*
X2535421D1*
X2765030D2*
X2802608D1*
X2841300D2*
X3109200D1*
X3147892D2*
X3176632D1*
X3311368D2*
X3612521D1*
X476847Y2637274D2*
X514815D1*
X626603D2*
X922628D1*
X964347D2*
X1025021D1*
X1112979D2*
X1194991D1*
X1305509D2*
X1475509D1*
X1643302D2*
X1657491D1*
X1979874D2*
X2217062D1*
X2370938D2*
X2560274D1*
X2741007D2*
X2776778D1*
X3311368D2*
X3612521D1*
X476358Y2612406D2*
X514132D1*
X602140D2*
X1025021D1*
X1112979D2*
X1194991D1*
X1305509D2*
X1475509D1*
X1622989D2*
X1657491D1*
X1979874D2*
X2217062D1*
X2370938D2*
X2773409D1*
X3311368D2*
X3612521D1*
X475919Y2587537D2*
X514132D1*
X602140D2*
X1025021D1*
X1112979D2*
X1194991D1*
X1611222D2*
X1657491D1*
X1975870D2*
X2217062D1*
X2374161D2*
X2628341D1*
X2690616D2*
X2785030D1*
X3165470D2*
X3612521D1*
X475479Y2562668D2*
X514132D1*
X602140D2*
X1025021D1*
X1112979D2*
X1194991D1*
X1598722D2*
X1657491D1*
X1953116D2*
X2217062D1*
X2565030D2*
X2611983D1*
X3249112D2*
X3612521D1*
X4009269D2*
X4366500D1*
X475040Y2537799D2*
X514132D1*
X602140D2*
X1025021D1*
X1112979D2*
X1194991D1*
X1473966D2*
X1504952D1*
X1602091D2*
X1657491D1*
X1932950D2*
X2217062D1*
X3274015D2*
X3612521D1*
X4023673D2*
X4366500D1*
X474552Y2512930D2*
X514132D1*
X602140D2*
X1025021D1*
X1112979D2*
X1194991D1*
X1921036D2*
X2212960D1*
X3298868D2*
X3612521D1*
X4023868D2*
X4366500D1*
X474112Y2488062D2*
X514132D1*
X602140D2*
X1025021D1*
X1112979D2*
X1200069D1*
X2099894D2*
X2188106D1*
X3323722D2*
X3612521D1*
X4023868D2*
X4366500D1*
X473673Y2463193D2*
X514132D1*
X602140D2*
X1025021D1*
X1112979D2*
X1223653D1*
X2124112D2*
X2163888D1*
X3348624D2*
X3612521D1*
X4023868D2*
X4366500D1*
X473233Y2438324D2*
X514132D1*
X602140D2*
X1025021D1*
X1112979D2*
X1622774D1*
X2130509D2*
X2157491D1*
X2442423D2*
X2682882D1*
X3373478D2*
X3612521D1*
X4023868D2*
X4366500D1*
X472745Y2413455D2*
X514132D1*
X1112979D2*
X1333126D1*
X1534366D2*
X1553663D1*
X1634366D2*
X1653663D1*
X2134366D2*
X2153663D1*
X2439591D2*
X2453659D1*
X2534366D2*
X2553663D1*
X2634366D2*
X2707735D1*
X3151749D2*
X3203243D1*
X3398331D2*
X3611788D1*
X4023868D2*
X4366500D1*
X472306Y2388587D2*
X514132D1*
X1120597D2*
X1180099D1*
X1207926D2*
X1333126D1*
X2651505D2*
X2734542D1*
X3162491D2*
X3228097D1*
X3423233D2*
X3607833D1*
X4023868D2*
X4366500D1*
X471866Y2363718D2*
X514132D1*
X1136856D2*
X1149632D1*
X1238370D2*
X1333126D1*
X2654630D2*
X2733370D1*
X2954630D2*
X3069161D1*
X3158487D2*
X3252950D1*
X3448087D2*
X3612521D1*
X4023868D2*
X4366500D1*
X471427Y2338849D2*
X514132D1*
X1249210D2*
X1333126D1*
X2646524D2*
X2741476D1*
X2946524D2*
X3097774D1*
X3129874D2*
X3267159D1*
X3472940D2*
X3612521D1*
X4023868D2*
X4206808D1*
X4256192D2*
X4366500D1*
X470938Y2313980D2*
X514132D1*
X602140D2*
X1050021D1*
X1137979D2*
X1155587D1*
X1274112D2*
X1333126D1*
X1454874D2*
X1471944D1*
X1516056D2*
X1571944D1*
X1937394D2*
X1957491D1*
X2537979D2*
X2571944D1*
X2616056D2*
X2771944D1*
X2816056D2*
X2871944D1*
X2916056D2*
X3286739D1*
X3497647D2*
X3612521D1*
X4023868D2*
X4185323D1*
X4277677D2*
X4366500D1*
X470499Y2289112D2*
X514132D1*
X602140D2*
X1050021D1*
X1137979D2*
X1197823D1*
X1298966D2*
X1563546D1*
X2537979D2*
X3319991D1*
X3393009D2*
X3421554D1*
X3505802D2*
X3612521D1*
X4023868D2*
X4183370D1*
X4279630D2*
X4366500D1*
X470060Y2264243D2*
X514132D1*
X602140D2*
X1045333D1*
X1142667D2*
X1222677D1*
X1323819D2*
X1538692D1*
X2030509D2*
X2050606D1*
X2336173D2*
X2357491D1*
X2537979D2*
X2726632D1*
X3230851D2*
X3319991D1*
X3393009D2*
X3432784D1*
X3505802D2*
X3612521D1*
X4023868D2*
X4187521D1*
X4275479D2*
X4366500D1*
X469620Y2239374D2*
X514132D1*
X602140D2*
X1049142D1*
X1138858D2*
X1247579D1*
X1348722D2*
X1513790D1*
X2030509D2*
X2357491D1*
X2537979D2*
X2714815D1*
X3242618D2*
X3319991D1*
X3393009D2*
X3432784D1*
X3505802D2*
X3612521D1*
X4023868D2*
X4187521D1*
X4275479D2*
X4366500D1*
X469132Y2214505D2*
X514132D1*
X602140D2*
X1076485D1*
X1111515D2*
X1272433D1*
X1373331D2*
X1488937D1*
X2030509D2*
X2357491D1*
X2537979D2*
X2718087D1*
X3239347D2*
X3319991D1*
X3393009D2*
X3432784D1*
X3505802D2*
X3612521D1*
X4023868D2*
X4187521D1*
X4275479D2*
X4366500D1*
X468692Y2189636D2*
X514132D1*
X602140D2*
X1297286D1*
X1381095D2*
X1471017D1*
X2030509D2*
X2357491D1*
X2537979D2*
X2743526D1*
X2783194D2*
X3134688D1*
X3213956D2*
X3319991D1*
X3393009D2*
X3432784D1*
X3505802D2*
X3612521D1*
X4023868D2*
X4187521D1*
X4275479D2*
X4366500D1*
X468253Y2164768D2*
X514132D1*
X602140D2*
X1308126D1*
X1381095D2*
X1469991D1*
X2055411D2*
X2183077D1*
X2240860D2*
X2357491D1*
X2537979D2*
X2814181D1*
X3202237D2*
X3319991D1*
X3393009D2*
X3432784D1*
X3505802D2*
X3612521D1*
X4023868D2*
X4187521D1*
X4275479D2*
X4366500D1*
X467813Y2139899D2*
X514132D1*
X602140D2*
X1308126D1*
X1381095D2*
X1469991D1*
X1954874D2*
X1979122D1*
X2080265D2*
X2164962D1*
X2259024D2*
X2357491D1*
X2537979D2*
X2714132D1*
X3204972D2*
X3289132D1*
X3505802D2*
X3612521D1*
X4023868D2*
X4187521D1*
X4275479D2*
X4366500D1*
X467325Y2115030D2*
X514132D1*
X616642D2*
X1308126D1*
X1381095D2*
X1469991D1*
X1954874D2*
X2004024D1*
X2121134D2*
X2164425D1*
X2259562D2*
X2357491D1*
X2537979D2*
X2714132D1*
X3192472D2*
X3289132D1*
X3505802D2*
X3598458D1*
X4023868D2*
X4183272D1*
X4279728D2*
X4366500D1*
X466886Y2090161D2*
X520577D1*
X647892D2*
X1308126D1*
X1381095D2*
X1469991D1*
X1954874D2*
X2028878D1*
X2140665D2*
X2175509D1*
X2248478D2*
X2357491D1*
X2537979D2*
X2714132D1*
X3148282D2*
X3289132D1*
X3505802D2*
X3589718D1*
X4023868D2*
X4167647D1*
X4295353D2*
X4366500D1*
X466446Y2065293D2*
X544015D1*
X657022D2*
X1308126D1*
X1381095D2*
X1469991D1*
X1954874D2*
X2046163D1*
X2141837D2*
X2175509D1*
X2248478D2*
X2357491D1*
X2537979D2*
X2714132D1*
X3146817D2*
X3289132D1*
X3505802D2*
X3591183D1*
X4023868D2*
X4164229D1*
X4298771D2*
X4366500D1*
X466007Y2040424D2*
X564620D1*
X651651D2*
X1308126D1*
X1381095D2*
X1469991D1*
X1954874D2*
X2061104D1*
X2126896D2*
X2175509D1*
X2248478D2*
X2357491D1*
X2548771D2*
X2714132D1*
X3134220D2*
X3289132D1*
X4023868D2*
X4170724D1*
X4292276D2*
X4366500D1*
X465519Y2015555D2*
X1308126D1*
X1381095D2*
X1469991D1*
X1954874D2*
X2175509D1*
X2248478D2*
X2357491D1*
X3076749D2*
X3443771D1*
X4023868D2*
X4187521D1*
X4275479D2*
X4366500D1*
X465079Y1990686D2*
X1308126D1*
X1381095D2*
X1469991D1*
X1954874D2*
X2175509D1*
X2248478D2*
X2357491D1*
X3051847D2*
X3468673D1*
X3871280D2*
X3894991D1*
X4023868D2*
X4187521D1*
X4275479D2*
X4366500D1*
X464640Y1965818D2*
X1306563D1*
X1382657D2*
X1469991D1*
X1954874D2*
X2175509D1*
X2248478D2*
X2357491D1*
X3026993D2*
X3892745D1*
X4023868D2*
X4187521D1*
X4275479D2*
X4366500D1*
X464151Y1940949D2*
X722921D1*
X765079D2*
X1295870D1*
X1393351D2*
X1469991D1*
X1954874D2*
X2175313D1*
X2248624D2*
X2357491D1*
X4023868D2*
X4187521D1*
X4275479D2*
X4366500D1*
X463712Y1916080D2*
X698507D1*
X1951505D2*
X2163448D1*
X2260489D2*
X2357491D1*
X4023868D2*
X4187521D1*
X4275479D2*
X4366500D1*
X463272Y1891211D2*
X695528D1*
X1929337D2*
X2166671D1*
X2257267D2*
X2357491D1*
X4023868D2*
X4187521D1*
X4275479D2*
X4366500D1*
X462833Y1866343D2*
X707735D1*
X1495499D2*
X1541915D1*
X1596085D2*
X2191915D1*
X2232071D2*
X2368575D1*
X4012784D2*
X4187521D1*
X4275479D2*
X4366500D1*
X462345Y1841474D2*
X2393526D1*
X3987882D2*
X4187521D1*
X4275479D2*
X4366500D1*
X461905Y1816605D2*
X4187521D1*
X4275479D2*
X4366500D1*
X461466Y1791736D2*
X4187521D1*
X4275479D2*
X4366500D1*
X461026Y1766867D2*
X4178585D1*
X4275479D2*
X4366500D1*
X460538Y1741999D2*
X1884151D1*
X4272013D2*
X4366500D1*
X460099Y1717130D2*
X1870772D1*
X4251212D2*
X4366500D1*
X459659Y1692261D2*
X1872970D1*
X4226310D2*
X4366500D1*
X1348110Y3027390D2*
X1452390D1*
Y3009958D1*
X1459679Y3016238D1*
X1467492Y3021026D1*
X1475957Y3024532D1*
X1484866Y3026671D1*
X1494000Y3027390D1*
X1503134Y3026671D1*
X1509406Y3025276D1*
X1509495Y3060904D1*
X1510329Y3066173D1*
X1511978Y3071247D1*
X1514400Y3076001D1*
X1517536Y3080317D1*
X1553150Y3116079D1*
X1553130Y3172630D1*
X1545982Y3172643D1*
X1538775Y3173785D1*
X1531835Y3176040D1*
X1525334Y3179352D1*
X1519431Y3183641D1*
X1514271Y3188801D1*
X1509982Y3194704D1*
X1506670Y3201205D1*
X1504415Y3208145D1*
X1503273Y3215352D1*
Y3222648D1*
X1504415Y3229855D1*
X1506670Y3236795D1*
X1509982Y3243296D1*
X1514271Y3249199D1*
X1515636Y3250676D1*
X1515735Y3411672D1*
X1516569Y3416941D1*
X1518218Y3422015D1*
X1520640Y3426769D1*
X1523776Y3431085D1*
X1550588Y3458046D1*
X1554645Y3461511D1*
X1559194Y3464298D1*
X1564123Y3466340D1*
X1569311Y3467585D1*
X1574630Y3468004D1*
X1612765D1*
X1617815Y3484004D1*
X1617920Y3597987D1*
X1618754Y3603256D1*
X1620403Y3608330D1*
X1621709Y3611091D1*
X1594866Y3611319D1*
X1412625Y3611067D1*
X1422755Y3604859D1*
X1431789Y3597143D1*
X1439505Y3588109D1*
X1445712Y3577979D1*
X1450259Y3567003D1*
X1453032Y3555450D1*
X1453965Y3543606D1*
X1453032Y3531762D1*
X1450259Y3520210D1*
X1445712Y3509233D1*
X1439505Y3499104D1*
X1431789Y3490069D1*
X1422755Y3482354D1*
X1412224Y3475961D1*
X1412147Y3317553D1*
X1411313Y3312284D1*
X1409664Y3307210D1*
X1407242Y3302456D1*
X1404106Y3298140D1*
X1373533Y3267419D1*
X1372246Y3258145D1*
X1369991Y3251205D1*
X1366679Y3244704D1*
X1362390Y3238801D1*
X1357230Y3233641D1*
X1351327Y3229352D1*
X1344826Y3226040D1*
X1337886Y3223785D1*
X1330679Y3222643D1*
X1323383D1*
X1316176Y3223785D1*
X1309236Y3226040D1*
X1302996Y3229206D1*
X1303000Y2601618D1*
X1319000Y2596579D1*
X1400396D1*
X1407814Y2602227D1*
X1414315Y2605539D1*
X1421255Y2607794D1*
X1428462Y2608936D1*
X1435758D1*
X1442965Y2607794D1*
X1449905Y2605539D1*
X1456406Y2602227D1*
X1462309Y2597938D1*
X1467469Y2592778D1*
X1471758Y2586875D1*
X1475070Y2580374D1*
X1477325Y2573434D1*
X1478467Y2566227D1*
Y2558931D1*
X1477325Y2551724D1*
X1475070Y2544784D1*
X1471758Y2538283D1*
X1467469Y2532380D1*
X1462309Y2527220D1*
X1456406Y2522931D1*
X1449905Y2519619D1*
X1442965Y2517364D1*
X1435758Y2516222D1*
X1428462D1*
X1421255Y2517364D1*
X1414315Y2519619D1*
X1407814Y2522931D1*
X1401911Y2527220D1*
X1400434Y2528585D1*
X1291332Y2528684D1*
X1286063Y2529518D1*
X1280989Y2531167D1*
X1276235Y2533589D1*
X1271919Y2536725D1*
X1265504Y2542991D1*
X1265500Y2519967D1*
X1281500Y2514890D1*
X1517389D1*
X1512096Y2523086D1*
X1509304Y2529828D1*
X1507600Y2536923D1*
X1507092Y2542558D1*
X1486118Y2563672D1*
X1482982Y2567988D1*
X1480560Y2572742D1*
X1478911Y2577816D1*
X1478077Y2583085D1*
X1477972Y2685753D1*
X1478077Y2767959D1*
X1478911Y2773228D1*
X1480560Y2778302D1*
X1482982Y2783056D1*
X1486118Y2787372D1*
X1551356Y2852758D1*
X1542131Y2854768D1*
X1535389Y2857560D1*
X1529168Y2861373D1*
X1523620Y2866112D1*
X1518881Y2871660D1*
X1515068Y2877881D1*
X1512276Y2884623D1*
X1510572Y2891718D1*
X1510000Y2898992D1*
X1510329Y2904212D1*
X1509495Y2909434D1*
X1509390Y2912639D1*
X1498581Y2910790D1*
X1489419D1*
X1480369Y2912224D1*
X1471655Y2915055D1*
X1463491Y2919215D1*
X1456079Y2924600D1*
X1452384Y2928067D1*
X1452390Y2910610D1*
X1335610D1*
Y3027390D1*
X1348110D1*
X1843987Y2938851D2*
X1838400Y2931079D1*
X1831921Y2924600D1*
X1827978Y2921533D1*
X1828000Y2692389D1*
X1855158Y2665256D1*
X1860802Y2664731D1*
X1867897Y2663027D1*
X1874639Y2660235D1*
X1880860Y2656422D1*
X1886408Y2651683D1*
X1891147Y2646135D1*
X1894960Y2639914D1*
X1897752Y2633172D1*
X1899456Y2626077D1*
X1900028Y2618803D1*
X1899456Y2611529D1*
X1898344Y2606534D1*
X1909424Y2617633D1*
X1909390Y2912647D1*
X1898581Y2910790D1*
X1889419D1*
X1880369Y2912224D1*
X1871655Y2915055D1*
X1863491Y2919215D1*
X1856079Y2924600D1*
X1849600Y2931079D1*
X1844013Y2938851D1*
X2043987D2*
X2038400Y2931079D1*
X2031921Y2924600D1*
X2027978Y2921533D1*
X2028000Y2742486D1*
X2044000Y2737409D1*
X2184283D1*
X2191732Y2743057D1*
X2198233Y2746369D1*
X2205173Y2748624D1*
X2212380Y2749766D1*
X2219548Y2749771D1*
X2219633Y2862259D1*
X2220467Y2867528D1*
X2222116Y2872602D1*
X2223422Y2875363D1*
X2209591Y2875591D1*
X2165722Y2875696D1*
X2160453Y2876530D1*
X2155379Y2878179D1*
X2150625Y2880601D1*
X2146309Y2883737D1*
X2119348Y2910549D1*
X2115750Y2914806D1*
X2107631Y2912224D1*
X2098581Y2910790D1*
X2089419D1*
X2080369Y2912224D1*
X2071655Y2915055D1*
X2063491Y2919215D1*
X2056079Y2924600D1*
X2049600Y2931079D1*
X2044013Y2938851D1*
X2452210Y2964419D2*
X2450776Y2955369D1*
X2447945Y2946655D1*
X2446453Y2943419D1*
X2452611Y2940826D1*
X2458832Y2937013D1*
X2464380Y2932274D1*
X2469119Y2926726D1*
X2472932Y2920505D1*
X2475724Y2913763D1*
X2477428Y2906668D1*
X2477936Y2901033D1*
X2598379Y2780599D1*
X2600430Y2786795D1*
X2603742Y2793296D1*
X2608031Y2799199D1*
X2609396Y2800676D1*
X2609390Y2912701D1*
X2603134Y2911329D1*
X2594000Y2910610D1*
X2584866Y2911329D1*
X2575957Y2913468D1*
X2567492Y2916974D1*
X2559679Y2921762D1*
X2552712Y2927712D1*
X2546762Y2934679D1*
X2541974Y2942492D1*
X2538468Y2950957D1*
X2536329Y2959866D1*
X2535610Y2969000D1*
X2536329Y2978134D1*
X2538468Y2987043D1*
X2541974Y2995508D1*
X2546762Y3003321D1*
X2552712Y3010288D1*
X2559679Y3016238D1*
X2567492Y3021026D1*
X2575957Y3024532D1*
X2584866Y3026671D1*
X2594000Y3027390D1*
X2603134Y3026671D1*
X2609406Y3025276D1*
X2609390Y3123639D1*
X2560549Y3172497D1*
X2551275Y3173785D1*
X2544335Y3176040D1*
X2537834Y3179352D1*
X2531931Y3183641D1*
X2526771Y3188801D1*
X2522482Y3194704D1*
X2519170Y3201205D1*
X2516915Y3208145D1*
X2515773Y3215352D1*
Y3222648D1*
X2516915Y3229855D1*
X2519170Y3236795D1*
X2522482Y3243296D1*
X2526771Y3249199D1*
X2531931Y3254359D1*
X2537834Y3258648D1*
X2544335Y3261960D1*
X2551275Y3264215D1*
X2558482Y3265357D1*
X2565778D1*
X2572985Y3264215D1*
X2579925Y3261960D1*
X2586426Y3258648D1*
X2592329Y3254359D1*
X2597489Y3249199D1*
X2601778Y3243296D1*
X2605090Y3236795D1*
X2607345Y3229855D1*
X2608487Y3222648D1*
X2608566Y3220639D1*
X2646904Y3182309D1*
X2646995Y3220192D1*
X2647829Y3225461D1*
X2649478Y3230535D1*
X2651900Y3235289D1*
X2655036Y3239605D1*
X2685885Y3270603D1*
X2687151Y3279855D1*
X2689406Y3286795D1*
X2692718Y3293296D1*
X2697007Y3299199D1*
X2698372Y3300676D1*
X2698366Y3467877D1*
X2589941Y3467894D1*
Y3509642D1*
X2415995Y3509606D1*
X2410969Y3493606D1*
Y3455374D1*
X2418117Y3455357D1*
X2425324Y3454215D1*
X2432264Y3451960D1*
X2438765Y3448648D1*
X2444668Y3444359D1*
X2449828Y3439199D1*
X2454117Y3433296D1*
X2457429Y3426795D1*
X2459684Y3419855D1*
X2460826Y3412648D1*
Y3405352D1*
X2459684Y3398145D1*
X2457429Y3391205D1*
X2454117Y3384704D1*
X2449828Y3378801D1*
X2448463Y3377324D1*
X2448364Y3046191D1*
X2447530Y3040922D1*
X2445881Y3035848D1*
X2443459Y3031094D1*
X2440323Y3026778D1*
X2429223Y3015530D1*
X2435288Y3010288D1*
X2441238Y3003321D1*
X2446026Y2995508D1*
X2449532Y2987043D1*
X2451671Y2978134D1*
X2452390Y2969000D1*
X2452210Y2964419D1*
X2909406Y2912724D2*
X2903134Y2911329D1*
X2894000Y2910610D1*
X2884866Y2911329D1*
X2875957Y2913468D1*
X2867492Y2916974D1*
X2863417Y2919264D1*
X2768444Y2824277D1*
X2768367Y2678635D1*
X2767533Y2673366D1*
X2765884Y2668292D1*
X2763462Y2663538D1*
X2760326Y2659222D1*
X2733514Y2632261D1*
X2729457Y2628796D1*
X2724908Y2626009D1*
X2719979Y2623967D1*
X2714791Y2622721D1*
X2709472Y2622303D1*
X2589147Y2622408D1*
X2583878Y2623242D1*
X2578804Y2624891D1*
X2574050Y2627313D1*
X2569734Y2630449D1*
X2497063Y2702972D1*
X2394484Y2805551D1*
X2390676Y2797795D1*
X2386387Y2791892D1*
X2381227Y2786732D1*
X2375324Y2782443D1*
X2368461Y2778997D1*
X2368472Y2710174D1*
X2374120Y2702709D1*
X2377432Y2696208D1*
X2379687Y2689268D1*
X2380829Y2682061D1*
Y2674765D1*
X2379687Y2667558D1*
X2377432Y2660618D1*
X2374120Y2654117D1*
X2369831Y2648214D1*
X2368466Y2646737D1*
X2368472Y2590767D1*
X2384472Y2585657D1*
X2528149Y2585552D1*
X2533418Y2584718D1*
X2538492Y2583069D1*
X2543246Y2580647D1*
X2547562Y2577511D1*
X2577869Y2547352D1*
X2613113Y2547390D1*
X2613115Y2554538D1*
X2614257Y2561745D1*
X2616512Y2568685D1*
X2619824Y2575186D1*
X2624113Y2581089D1*
X2629273Y2586249D1*
X2635176Y2590538D1*
X2641677Y2593850D1*
X2648617Y2596105D1*
X2655824Y2597247D1*
X2663120D1*
X2670327Y2596105D1*
X2677267Y2593850D1*
X2683768Y2590538D1*
X2689671Y2586249D1*
X2691148Y2584884D1*
X2790185Y2584890D1*
X2784353Y2591471D1*
X2780540Y2597692D1*
X2777748Y2604434D1*
X2776044Y2611529D1*
X2775472Y2618803D1*
X2776044Y2626077D1*
X2777748Y2633172D1*
X2780540Y2639914D1*
X2784353Y2646135D1*
X2789092Y2651683D1*
X2794640Y2656422D1*
X2800861Y2660235D1*
X2807603Y2663027D1*
X2814698Y2664731D1*
X2821972Y2665303D1*
X2829246Y2664731D1*
X2836341Y2663027D1*
X2843083Y2660235D1*
X2849304Y2656422D1*
X2853648Y2652797D1*
X3096826Y2652803D1*
X3101196Y2656422D1*
X3107417Y2660235D1*
X3114159Y2663027D1*
X3121254Y2664731D1*
X3128528Y2665303D1*
X3135802Y2664731D1*
X3142897Y2663027D1*
X3149639Y2660235D1*
X3155860Y2656422D1*
X3161408Y2651683D1*
X3166147Y2646135D1*
X3169960Y2639914D1*
X3172752Y2633172D1*
X3174456Y2626077D1*
X3175028Y2618803D1*
X3174456Y2611529D1*
X3172752Y2604434D1*
X3169960Y2597692D1*
X3166147Y2591471D1*
X3160288Y2584887D1*
X3213010Y2584785D1*
X3218279Y2583951D1*
X3223353Y2582302D1*
X3228107Y2579880D1*
X3232423Y2576744D1*
X3305094Y2504221D1*
X3495145Y2314022D1*
X3498281Y2309706D1*
X3500703Y2304952D1*
X3502352Y2299878D1*
X3503186Y2294609D1*
X3503291Y2191941D1*
Y2054685D1*
X3519291Y2049614D1*
X3600004D1*
X3596553Y2056669D1*
X3593407Y2066353D1*
X3591814Y2076409D1*
Y2086591D1*
X3593407Y2096647D1*
X3596553Y2106331D1*
X3601176Y2115403D1*
X3607160Y2123640D1*
X3615001Y2131345D1*
X3615000Y2373053D1*
X3612276Y2379631D1*
X3610572Y2386726D1*
X3610000Y2394000D1*
X3610572Y2401274D1*
X3612276Y2408369D1*
X3615014Y2414994D1*
X3615000Y2889361D1*
X3589279Y2915031D1*
X3293854Y2915000D1*
X3286140Y2907160D1*
X3277903Y2901176D1*
X3268831Y2896553D1*
X3259147Y2893407D1*
X3249091Y2891814D1*
X3238909D1*
X3228853Y2893407D1*
X3219169Y2896553D1*
X3210097Y2901176D1*
X3201860Y2907160D1*
X3194660Y2914360D1*
X3188676Y2922597D1*
X3184053Y2931669D1*
X3180907Y2941353D1*
X3179314Y2951409D1*
Y2961591D1*
X3180907Y2971647D1*
X3184053Y2981331D1*
X3188676Y2990403D1*
X3194660Y2998640D1*
X3201860Y3005840D1*
X3210097Y3011824D1*
X3219169Y3016447D1*
X3228853Y3019593D1*
X3238909Y3021186D1*
X3249091D1*
X3259147Y3019593D1*
X3268831Y3016447D1*
X3277903Y3011824D1*
X3286140Y3005840D1*
X3293845Y2997999D1*
X3609756Y2997872D1*
X3616188Y2996853D1*
X3622381Y2994841D1*
X3628184Y2991885D1*
X3633452Y2988057D1*
X3669992Y2951698D1*
X3670000Y3160807D1*
X3654000Y3165865D1*
X3081688Y3165970D1*
X3076419Y3166804D1*
X3071345Y3168453D1*
X3066591Y3170875D1*
X3062275Y3174011D1*
X3035313Y3200825D1*
X3031848Y3204882D1*
X3029060Y3209431D1*
X3027018Y3214360D1*
X3025773Y3219548D1*
X3025354Y3224867D1*
Y3475990D1*
X3014852Y3482354D1*
X3005817Y3490069D1*
X2998102Y3499104D1*
X2991894Y3509233D1*
X2987347Y3520210D1*
X2984574Y3531762D1*
X2983642Y3543606D1*
X2984574Y3555450D1*
X2987347Y3567003D1*
X2991894Y3577979D1*
X2996902Y3586313D1*
X2982421Y3586319D1*
X2977390Y3570319D1*
Y2905719D1*
X2983038Y2898292D1*
X2986350Y2891791D1*
X2988605Y2884851D1*
X2989747Y2877644D1*
Y2870348D1*
X2988605Y2863141D1*
X2986350Y2856201D1*
X2983038Y2849700D1*
X2978749Y2843797D1*
X2973589Y2838637D1*
X2967686Y2834348D1*
X2961185Y2831036D1*
X2954245Y2828781D1*
X2947038Y2827639D1*
X2939742D1*
X2932535Y2828781D1*
X2925595Y2831036D1*
X2919094Y2834348D1*
X2913191Y2838637D1*
X2908031Y2843797D1*
X2903742Y2849700D1*
X2900430Y2856201D1*
X2898175Y2863141D1*
X2897033Y2870348D1*
Y2877644D1*
X2898175Y2884851D1*
X2900430Y2891791D1*
X2903742Y2898292D1*
X2908031Y2904195D1*
X2909396Y2905672D1*
X2909390Y2912717D1*
X1348110Y2427390D2*
X1452390D1*
Y2409958D1*
X1459679Y2416238D1*
X1467492Y2421026D1*
X1475957Y2424532D1*
X1484866Y2426671D1*
X1494000Y2427390D1*
X1503134Y2426671D1*
X1512043Y2424532D1*
X1520508Y2421026D1*
X1528321Y2416238D1*
X1535288Y2410288D1*
X1541238Y2403321D1*
X1543987Y2399149D1*
X1549600Y2406921D1*
X1556079Y2413400D1*
X1563491Y2418785D1*
X1571655Y2422945D1*
X1580369Y2425776D1*
X1589419Y2427210D1*
X1598581D1*
X1607631Y2425776D1*
X1616345Y2422945D1*
X1624509Y2418785D1*
X1631921Y2413400D1*
X1638400Y2406921D1*
X1643987Y2399149D1*
X1649600Y2406921D1*
X1656079Y2413400D1*
X1663491Y2418785D1*
X1671655Y2422945D1*
X1680369Y2425776D1*
X1687374Y2426968D1*
X1671188Y2443122D1*
X1665111Y2439458D1*
X1658369Y2436666D1*
X1651274Y2434962D1*
X1644000Y2434390D1*
X1636726Y2434962D1*
X1629631Y2436666D1*
X1622889Y2439458D1*
X1616668Y2443271D1*
X1612324Y2446896D1*
X1253832Y2446995D1*
X1248563Y2447829D1*
X1243489Y2449478D1*
X1238735Y2451900D1*
X1234419Y2455036D1*
X1207458Y2481848D1*
X1203993Y2485905D1*
X1201206Y2490454D1*
X1199164Y2495383D1*
X1197919Y2500571D1*
X1197500Y2505890D1*
Y2942267D1*
X1191852Y2949724D1*
X1188540Y2956225D1*
X1186285Y2963165D1*
X1185143Y2970372D1*
Y2977668D1*
X1186285Y2984875D1*
X1188540Y2991815D1*
X1191852Y2998316D1*
X1196141Y3004219D1*
X1201301Y3009379D1*
X1207204Y3013668D1*
X1213705Y3016980D1*
X1220645Y3019235D1*
X1227852Y3020377D1*
X1235020Y3020382D1*
X1235000Y3282745D1*
X1227808Y3278237D1*
X1221066Y3275445D1*
X1213971Y3273741D1*
X1206697Y3273169D1*
X1199423Y3273741D1*
X1192328Y3275445D1*
X1185586Y3278237D1*
X1179365Y3282050D1*
X1173817Y3286789D1*
X1169078Y3292337D1*
X1165265Y3298558D1*
X1162473Y3305300D1*
X1160769Y3312395D1*
X1160261Y3318030D1*
X1153895Y3324980D1*
X1151107Y3329529D1*
X1149066Y3334458D1*
X1147820Y3339646D1*
X1147401Y3344964D1*
Y3467865D1*
X1110483Y3467894D1*
X1110500Y2396169D1*
X1125557Y2380952D1*
X1129385Y2375684D1*
X1132341Y2369881D1*
X1134353Y2363688D1*
X1135372Y2357256D1*
X1135500Y2291500D1*
Y2279439D1*
X1138224Y2272877D1*
X1139928Y2265782D1*
X1140500Y2258508D1*
X1139928Y2251234D1*
X1138224Y2244139D1*
X1135432Y2237397D1*
X1131619Y2231176D1*
X1126880Y2225628D1*
X1121332Y2220889D1*
X1115111Y2217076D1*
X1108369Y2214284D1*
X1101274Y2212580D1*
X1094000Y2212008D1*
X1086726Y2212580D1*
X1079631Y2214284D1*
X1072889Y2217076D1*
X1066668Y2220889D1*
X1061120Y2225628D1*
X1056381Y2231176D1*
X1052568Y2237397D1*
X1049776Y2244139D1*
X1048072Y2251234D1*
X1047500Y2258508D1*
X1048072Y2265782D1*
X1049776Y2272877D1*
X1052514Y2279502D1*
X1052500Y2336877D1*
X1044000Y2337500D1*
X634088D1*
X627503Y2334776D1*
X620408Y2333072D1*
X613134Y2332500D1*
X605860Y2333072D1*
X599630Y2334532D1*
X599634Y2129553D1*
X622662Y2106520D1*
X629245Y2103790D1*
X635466Y2099977D1*
X641014Y2095238D1*
X645753Y2089690D1*
X649566Y2083469D1*
X652358Y2076727D1*
X654062Y2069632D1*
X654634Y2062358D1*
X654062Y2055084D1*
X652358Y2047989D1*
X649566Y2041247D1*
X645753Y2035026D1*
X641014Y2029478D1*
X635466Y2024739D1*
X629245Y2020926D1*
X622503Y2018134D1*
X615408Y2016430D1*
X608134Y2015858D1*
X600860Y2016430D1*
X593765Y2018134D1*
X587023Y2020926D1*
X580802Y2024739D1*
X575254Y2029478D1*
X570515Y2035026D1*
X566702Y2041247D1*
X563954Y2047868D1*
X526577Y2085406D1*
X522749Y2090674D1*
X519793Y2096477D1*
X517781Y2102670D1*
X516762Y2109102D1*
X516634Y2174858D1*
X516762Y2633248D1*
X517781Y2639680D1*
X519793Y2645873D1*
X522749Y2651676D1*
X526577Y2656944D1*
X572983Y2703531D1*
X577950Y2708498D1*
X572421Y2713998D1*
X568132Y2719901D1*
X564820Y2726402D1*
X562565Y2733342D1*
X561423Y2740549D1*
Y2747845D1*
X562565Y2755052D1*
X564820Y2761992D1*
X568132Y2768493D1*
X572421Y2774396D1*
X577581Y2779556D1*
X583484Y2783845D1*
X589985Y2787157D1*
X596925Y2789412D1*
X604132Y2790554D1*
X611428D1*
X618635Y2789412D1*
X625575Y2787157D1*
X628774Y2785683D1*
X917594Y2785697D1*
X924159Y2788421D1*
X931254Y2790125D1*
X938528Y2790697D1*
X945802Y2790125D1*
X952897Y2788421D1*
X959639Y2785629D1*
X965860Y2781816D1*
X971408Y2777077D1*
X976147Y2771529D1*
X979960Y2765308D1*
X982752Y2758566D1*
X984456Y2751471D1*
X985028Y2744197D1*
X984456Y2736923D1*
X982752Y2729828D1*
X979960Y2723086D1*
X976147Y2716865D1*
X974443Y2714703D1*
X978847Y2710191D1*
X983136Y2704288D1*
X986448Y2697787D1*
X988703Y2690847D1*
X989845Y2683640D1*
Y2676344D1*
X988703Y2669137D1*
X986448Y2662197D1*
X983136Y2655696D1*
X978847Y2649793D1*
X973687Y2644633D1*
X967784Y2640344D1*
X961283Y2637032D1*
X954343Y2634777D1*
X947136Y2633635D1*
X939840D1*
X932633Y2634777D1*
X925693Y2637032D1*
X922494Y2638506D1*
X625275Y2638492D1*
X599603Y2612771D1*
X599634Y2423498D1*
X605860Y2424928D1*
X613134Y2425500D1*
X620408Y2424928D1*
X627503Y2423224D1*
X634128Y2420486D1*
X1027538Y2420500D1*
X1027628Y3641075D1*
X1028647Y3647507D1*
X1030659Y3653700D1*
X1033615Y3659503D1*
X1037443Y3664771D1*
X1083607Y3711117D1*
X493752Y3706593D1*
X456729Y1668965D1*
X1894635Y1669000D1*
X1888801Y1673247D1*
X1883641Y1678407D1*
X1879352Y1684310D1*
X1876040Y1690811D1*
X1873785Y1697751D1*
X1872643Y1704958D1*
Y1712254D1*
X1873785Y1719461D1*
X1876040Y1726401D1*
X1879352Y1732902D1*
X1883641Y1738805D1*
X1888801Y1743965D1*
X1894704Y1748254D1*
X1901205Y1751566D1*
X1908145Y1753821D1*
X1915352Y1754963D1*
X1922648D1*
X1929855Y1753821D1*
X1936795Y1751566D1*
X1939994Y1750092D1*
X2987115Y1750106D1*
X2993749Y1752830D1*
X3000844Y1754534D1*
X3008118Y1755106D1*
X3015392Y1754534D1*
X3022487Y1752830D1*
X3029112Y1750092D1*
X4164319Y1750106D1*
X4190031Y1775827D1*
X4190000Y2019104D1*
X4182160Y2026860D1*
X4176176Y2035097D1*
X4171553Y2044169D1*
X4168407Y2053853D1*
X4166814Y2063909D1*
Y2074091D1*
X4168407Y2084147D1*
X4171553Y2093831D1*
X4176176Y2102903D1*
X4182160Y2111140D1*
X4190001Y2118845D1*
X4190000Y2277057D1*
X4187276Y2283627D1*
X4185572Y2290722D1*
X4185000Y2297996D1*
X4185572Y2305270D1*
X4187276Y2312365D1*
X4190068Y2319107D1*
X4193881Y2325328D1*
X4198620Y2330876D1*
X4204168Y2335615D1*
X4210389Y2339428D1*
X4217131Y2342220D1*
X4224226Y2343924D1*
X4231500Y2344496D1*
X4238774Y2343924D1*
X4245869Y2342220D1*
X4252611Y2339428D1*
X4258832Y2335615D1*
X4264380Y2330876D1*
X4269119Y2325328D1*
X4272932Y2319107D1*
X4275724Y2312365D1*
X4277428Y2305270D1*
X4278000Y2297996D1*
X4277428Y2290722D1*
X4275724Y2283627D1*
X4272986Y2277002D1*
X4273000Y2118846D1*
X4280840Y2111140D1*
X4286824Y2102903D1*
X4291447Y2093831D1*
X4294593Y2084147D1*
X4296186Y2074091D1*
Y2063909D1*
X4294593Y2053853D1*
X4291447Y2044169D1*
X4286824Y2035097D1*
X4280840Y2026860D1*
X4272999Y2019155D1*
X4272872Y1755350D1*
X4271853Y1748918D1*
X4269841Y1742725D1*
X4266885Y1736922D1*
X4263057Y1731654D1*
X4216651Y1685067D1*
X4208452Y1677049D1*
X4203184Y1673221D1*
X4197381Y1670265D1*
X4194000Y1669000D1*
X4369000D1*
Y2569000D1*
X4000494D1*
X4013240Y2556081D1*
X4016376Y2551765D1*
X4018798Y2547011D1*
X4020447Y2541937D1*
X4021281Y2536668D1*
X4021386Y2434000D1*
X4021281Y1888832D1*
X4020447Y1883563D1*
X4018798Y1878489D1*
X4016376Y1873735D1*
X4013240Y1869419D1*
X3986428Y1842458D1*
X3982371Y1838993D1*
X3977822Y1836206D1*
X3972893Y1834164D1*
X3967705Y1832919D1*
X3962386Y1832500D1*
X2416332Y1832605D1*
X2411063Y1833439D1*
X2405989Y1835088D1*
X2401235Y1837510D1*
X2396919Y1840646D1*
X2369958Y1867458D1*
X2366493Y1871515D1*
X2363706Y1876064D1*
X2361664Y1880993D1*
X2360419Y1886181D1*
X2360000Y1891500D1*
Y2288131D1*
X2340471Y2268756D1*
X2336155Y2265620D1*
X2331401Y2263198D1*
X2326327Y2261549D1*
X2321058Y2260715D1*
X2218390Y2260610D1*
X2065722Y2260715D1*
X2060453Y2261549D1*
X2055379Y2263198D1*
X2050625Y2265620D1*
X2046309Y2268756D1*
X2028017Y2286899D1*
X2028000Y2189654D1*
X2095623Y2122058D1*
X2101274Y2121526D1*
X2108369Y2119822D1*
X2115111Y2117030D1*
X2121332Y2113217D1*
X2126880Y2108478D1*
X2131619Y2102930D1*
X2135432Y2096709D1*
X2138224Y2089967D1*
X2139928Y2082872D1*
X2140500Y2075598D1*
X2139928Y2068324D1*
X2138224Y2061229D1*
X2135432Y2054487D1*
X2131619Y2048266D1*
X2126880Y2042718D1*
X2121332Y2037979D1*
X2115111Y2034166D1*
X2108369Y2031374D1*
X2101274Y2029670D1*
X2094000Y2029098D1*
X2086726Y2029670D1*
X2079631Y2031374D1*
X2072889Y2034166D1*
X2066668Y2037979D1*
X2061120Y2042718D1*
X2056381Y2048266D1*
X2052568Y2054487D1*
X2049776Y2061229D1*
X2048072Y2068324D1*
X2047564Y2073959D1*
X1968146Y2153517D1*
X1965010Y2157833D1*
X1962588Y2162587D1*
X1960939Y2167661D1*
X1960105Y2172930D1*
X1960000Y2275598D1*
Y2321545D1*
X1952712Y2327712D1*
X1946762Y2334679D1*
X1944013Y2338851D1*
X1938400Y2331079D1*
X1931921Y2324600D1*
X1927978Y2321533D1*
X1944244Y2304498D1*
X1947380Y2300182D1*
X1949802Y2295428D1*
X1951451Y2290354D1*
X1952285Y2285085D1*
X1952390Y2182417D1*
X1952285Y1928155D1*
X1951451Y1922886D1*
X1949802Y1917812D1*
X1947380Y1913058D1*
X1944244Y1908742D1*
X1917432Y1881781D1*
X1913375Y1878316D1*
X1908826Y1875529D1*
X1903897Y1873487D1*
X1898709Y1872242D1*
X1893390Y1871823D1*
X1600763D1*
X1593296Y1866175D1*
X1586795Y1862863D1*
X1579855Y1860608D1*
X1572648Y1859466D1*
X1565352D1*
X1558145Y1860608D1*
X1551205Y1862863D1*
X1544704Y1866175D1*
X1538801Y1870464D1*
X1533641Y1875624D1*
X1529352Y1881527D1*
X1526040Y1888028D1*
X1524315Y1893087D1*
X1503581Y1872469D1*
X1499265Y1869333D1*
X1494511Y1866911D1*
X1489437Y1865262D1*
X1484168Y1864428D1*
X1381500Y1864323D1*
X775689D1*
X771332Y1860704D1*
X765111Y1856891D1*
X758369Y1854099D1*
X751274Y1852395D1*
X744000Y1851823D1*
X736726Y1852395D1*
X729631Y1854099D1*
X722889Y1856891D1*
X716668Y1860704D1*
X711120Y1865443D1*
X706381Y1870991D1*
X702568Y1877212D1*
X699776Y1883954D1*
X698072Y1891049D1*
X697500Y1898323D1*
X698072Y1905597D1*
X699776Y1912692D1*
X702568Y1919434D1*
X706381Y1925655D1*
X711120Y1931203D1*
X716668Y1935942D1*
X722889Y1939755D1*
X729631Y1942547D1*
X736726Y1944251D1*
X744000Y1944823D1*
X751274Y1944251D1*
X758369Y1942547D1*
X765111Y1939755D1*
X771332Y1935942D1*
X775676Y1932317D1*
X1298248Y1932323D1*
X1298253Y1939471D1*
X1299395Y1946678D1*
X1301650Y1953618D1*
X1304962Y1960119D1*
X1309251Y1966022D1*
X1310616Y1967499D1*
X1310610Y2178841D1*
X1192371Y2297054D1*
X1186726Y2297580D1*
X1179631Y2299284D1*
X1172889Y2302076D1*
X1166668Y2305889D1*
X1161120Y2310628D1*
X1156381Y2316176D1*
X1152568Y2322397D1*
X1149776Y2329139D1*
X1148072Y2336234D1*
X1147500Y2343508D1*
X1148072Y2350782D1*
X1149776Y2357877D1*
X1152568Y2364619D1*
X1156381Y2370840D1*
X1161120Y2376388D1*
X1166668Y2381127D1*
X1172889Y2384940D1*
X1179631Y2387732D1*
X1186726Y2389436D1*
X1194000Y2390008D1*
X1201274Y2389436D1*
X1208369Y2387732D1*
X1215111Y2384940D1*
X1221332Y2381127D1*
X1226880Y2376388D1*
X1231619Y2370840D1*
X1235432Y2364619D1*
X1238224Y2357877D1*
X1239928Y2350782D1*
X1240436Y2345147D1*
X1370464Y2214979D1*
X1373600Y2210663D1*
X1376022Y2205909D1*
X1377671Y2200835D1*
X1378505Y2195566D1*
X1378610Y2092898D1*
Y1967556D1*
X1384258Y1960119D1*
X1387570Y1953618D1*
X1389825Y1946678D1*
X1390967Y1939471D1*
X1390972Y1932303D1*
X1467389Y1932323D1*
X1472500Y1948323D1*
X1472605Y2184168D1*
X1473439Y2189437D1*
X1475088Y2194511D1*
X1477510Y2199265D1*
X1480646Y2203581D1*
X1553169Y2276252D1*
X1587868Y2310952D1*
X1580369Y2312224D1*
X1571655Y2315055D1*
X1563491Y2319215D1*
X1556079Y2324600D1*
X1549600Y2331079D1*
X1544013Y2338851D1*
X1538400Y2331079D1*
X1531921Y2324600D1*
X1524509Y2319215D1*
X1516345Y2315055D1*
X1507631Y2312224D1*
X1498581Y2310790D1*
X1489419D1*
X1480369Y2312224D1*
X1471655Y2315055D1*
X1463491Y2319215D1*
X1456079Y2324600D1*
X1452384Y2328067D1*
X1452390Y2310610D1*
X1335610D1*
Y2427390D1*
X1348110D1*
X2127978Y2416467D2*
X2135288Y2410288D1*
X2141238Y2403321D1*
X2143987Y2399149D1*
X2149600Y2406921D1*
X2156079Y2413400D1*
X2160022Y2416467D1*
X2160105Y2446066D1*
X2160939Y2451335D1*
X2162588Y2456409D1*
X2165010Y2461163D1*
X2168146Y2465479D1*
X2219573Y2517055D1*
X2219528Y2657076D1*
X2212380Y2657052D1*
X2205173Y2658194D1*
X2198233Y2660449D1*
X2191732Y2663761D1*
X2185829Y2668050D1*
X2184352Y2669415D1*
X2016332Y2669514D1*
X2011063Y2670348D1*
X2005989Y2671997D1*
X2001235Y2674419D1*
X1996919Y2677555D1*
X1977384Y2696941D1*
X1977285Y2600848D1*
X1976451Y2595579D1*
X1974802Y2590505D1*
X1972380Y2585751D1*
X1969244Y2581435D1*
X1930937Y2542980D1*
X1929687Y2533743D1*
X1927432Y2526803D1*
X1924120Y2520302D1*
X1919831Y2514399D1*
X1914671Y2509239D1*
X1908768Y2504950D1*
X1903886Y2502384D1*
X2071668Y2502289D1*
X2076937Y2501455D1*
X2082011Y2499806D1*
X2086765Y2497384D1*
X2091081Y2494248D1*
X2118042Y2467436D1*
X2121507Y2463379D1*
X2124294Y2458830D1*
X2126336Y2453901D1*
X2127582Y2448713D1*
X2128000Y2443394D1*
Y2416490D1*
X2435543Y2410012D2*
X2441238Y2403321D1*
X2443987Y2399149D1*
X2449600Y2406921D1*
X2456079Y2413400D1*
X2463491Y2418785D1*
X2471655Y2422945D1*
X2480369Y2425776D1*
X2489419Y2427210D1*
X2498581D1*
X2507631Y2425776D1*
X2516345Y2422945D1*
X2524509Y2418785D1*
X2531921Y2413400D1*
X2538400Y2406921D1*
X2543987Y2399149D1*
X2549600Y2406921D1*
X2556079Y2413400D1*
X2563491Y2418785D1*
X2571655Y2422945D1*
X2580369Y2425776D1*
X2589419Y2427210D1*
X2598581D1*
X2607631Y2425776D1*
X2616345Y2422945D1*
X2624509Y2418785D1*
X2631921Y2413400D1*
X2638400Y2406921D1*
X2643785Y2399509D1*
X2647945Y2391345D1*
X2650776Y2382631D1*
X2652210Y2373581D1*
Y2364419D1*
X2650776Y2355369D1*
X2647945Y2346655D1*
X2643785Y2338491D1*
X2638400Y2331079D1*
X2631921Y2324600D1*
X2624509Y2319215D1*
X2616345Y2315055D1*
X2607631Y2312224D1*
X2598581Y2310790D1*
X2589419D1*
X2580369Y2312224D1*
X2571655Y2315055D1*
X2563491Y2319215D1*
X2556079Y2324600D1*
X2549600Y2331079D1*
X2544013Y2338851D1*
X2538400Y2331079D1*
X2535494Y2327936D1*
X2535500Y2051178D1*
X2561221Y2025469D1*
X2716607Y2025500D1*
X2716614Y2146386D1*
X2798304D1*
X2825305Y2173240D1*
X2829621Y2176376D1*
X2834375Y2178798D1*
X2839449Y2180447D1*
X2844718Y2181281D1*
X2947386Y2181386D1*
X3124876D1*
X3132302Y2187034D1*
X3138803Y2190346D1*
X3145743Y2192601D1*
X3152950Y2193743D1*
X3160246D1*
X3167453Y2192601D1*
X3174393Y2190346D1*
X3180894Y2187034D1*
X3186797Y2182745D1*
X3191957Y2177585D1*
X3196246Y2171682D1*
X3199558Y2165181D1*
X3201813Y2158241D1*
X3202955Y2151034D1*
Y2143738D1*
X3201813Y2136531D1*
X3199558Y2129591D1*
X3196246Y2123090D1*
X3191957Y2117187D1*
X3186797Y2112027D1*
X3180894Y2107738D1*
X3174393Y2104426D1*
X3167453Y2102171D1*
X3160246Y2101029D1*
X3152950D1*
X3145743Y2102171D1*
X3142709Y2103026D1*
X3144593Y2096647D1*
X3146186Y2086591D1*
Y2076409D1*
X3144593Y2066353D1*
X3141447Y2056669D1*
X3136824Y2047597D1*
X3130840Y2039360D1*
X3123640Y2032160D1*
X3115403Y2026176D1*
X3106331Y2021553D1*
X3096647Y2018407D1*
X3086591Y2016814D1*
X3075599Y2016910D1*
X3021663Y1962973D1*
X3892462Y1963000D1*
X3897500Y1979000D1*
Y2004146D1*
X3882177Y2004114D1*
X3867735Y1989760D1*
X3863419Y1986624D1*
X3858665Y1984202D1*
X3853591Y1982553D1*
X3848322Y1981719D1*
X3745654Y1981614D1*
X3491623Y1981719D1*
X3486354Y1982553D1*
X3481280Y1984202D1*
X3476526Y1986624D1*
X3472210Y1989760D1*
X3445249Y2016572D1*
X3441784Y2020629D1*
X3438997Y2025178D1*
X3436955Y2030107D1*
X3435709Y2035295D1*
X3435291Y2040614D1*
Y2277870D1*
X3390455Y2322693D1*
X3390500Y2146369D1*
X3421386Y2146386D1*
Y2016614D1*
X3291614D1*
Y2146386D1*
X3322523D1*
X3322500Y2307818D1*
X3313803Y2306949D1*
X3306529Y2307521D1*
X3299434Y2309225D1*
X3292692Y2312017D1*
X3286471Y2315830D1*
X3280923Y2320569D1*
X3276184Y2326117D1*
X3272371Y2332338D1*
X3269579Y2339080D1*
X3267875Y2346175D1*
X3267367Y2351810D1*
X3197264Y2421904D1*
X3139829Y2421890D1*
X3146683Y2416211D1*
X3151422Y2410663D1*
X3155235Y2404442D1*
X3158027Y2397700D1*
X3159731Y2390605D1*
X3160303Y2383331D1*
X3159731Y2376057D1*
X3158027Y2368962D1*
X3155235Y2362220D1*
X3151422Y2355999D1*
X3146683Y2350451D1*
X3141135Y2345712D1*
X3134914Y2341899D1*
X3128172Y2339107D1*
X3121077Y2337403D1*
X3113803Y2336831D1*
X3106529Y2337403D1*
X3099434Y2339107D1*
X3092692Y2341899D1*
X3086471Y2345712D1*
X3080923Y2350451D1*
X3076184Y2355999D1*
X3072371Y2362220D1*
X3069579Y2368962D1*
X3067875Y2376057D1*
X3067367Y2381692D1*
X3053744Y2384390D1*
X2950277D1*
X2951671Y2378134D1*
X2952390Y2369000D1*
X2951671Y2359866D1*
X2949532Y2350957D1*
X2946026Y2342492D1*
X2941238Y2334679D1*
X2935288Y2327712D1*
X2928321Y2321762D1*
X2920508Y2316974D1*
X2912043Y2313468D1*
X2903134Y2311329D1*
X2894000Y2310610D1*
X2884866Y2311329D1*
X2875957Y2313468D1*
X2867492Y2316974D1*
X2859679Y2321762D1*
X2852712Y2327712D1*
X2846762Y2334679D1*
X2844013Y2338851D1*
X2838400Y2331079D1*
X2831921Y2324600D1*
X2824509Y2319215D1*
X2816345Y2315055D1*
X2807631Y2312224D1*
X2798581Y2310790D1*
X2789419D1*
X2780369Y2312224D1*
X2771655Y2315055D1*
X2763491Y2319215D1*
X2756079Y2324600D1*
X2749600Y2331079D1*
X2744215Y2338491D1*
X2740055Y2346655D1*
X2737224Y2355369D1*
X2735790Y2364419D1*
Y2373581D1*
X2737224Y2382631D1*
X2738722Y2387732D1*
X2733405Y2390883D1*
X2729348Y2394348D1*
X2669306Y2454390D1*
X2434122D1*
X2436960Y2448685D1*
X2439215Y2441745D1*
X2440357Y2434538D1*
Y2427242D1*
X2439215Y2420035D1*
X2436960Y2413095D1*
X2435545Y2410026D1*
X527638Y3619319D2*
X666563D1*
Y3467894D1*
X515138D1*
Y3619319D1*
X527638D1*
X863180Y3537666D2*
X861321Y3525932D1*
X857650Y3514632D1*
X852256Y3504047D1*
X845273Y3494435D1*
X836872Y3486034D1*
X827261Y3479051D1*
X816675Y3473657D1*
X805376Y3469986D1*
X793641Y3468127D1*
X781760D1*
X770026Y3469986D1*
X758727Y3473657D1*
X748141Y3479051D1*
X738529Y3486034D1*
X730128Y3494435D1*
X723145Y3504047D1*
X717751Y3514632D1*
X714080Y3525932D1*
X712222Y3537666D1*
Y3549547D1*
X714080Y3561281D1*
X717751Y3572580D1*
X723145Y3583166D1*
X730128Y3592778D1*
X738529Y3601179D1*
X748141Y3608162D1*
X758727Y3613556D1*
X770026Y3617227D1*
X781760Y3619086D1*
X793641D1*
X805376Y3617227D1*
X816675Y3613556D1*
X827261Y3608162D1*
X836872Y3601179D1*
X845273Y3592778D1*
X852256Y3583166D1*
X857650Y3572580D1*
X861321Y3561281D1*
X863180Y3549547D1*
Y3537666D1*
X2044282D2*
X2042424Y3525932D1*
X2038752Y3514632D1*
X2033359Y3504047D1*
X2026375Y3494435D1*
X2017975Y3486034D1*
X2010274Y3480328D1*
X2010175Y3312240D1*
X2009157Y3305808D1*
X2007144Y3299615D1*
X2004188Y3293812D1*
X2000360Y3288544D1*
X1953954Y3241957D1*
X1945755Y3233939D1*
X1940487Y3230111D1*
X1934684Y3227155D1*
X1928491Y3225143D1*
X1922059Y3224124D1*
X1856303Y3223996D1*
X1758500D1*
X1758368Y3183189D1*
X1757349Y3176757D1*
X1755337Y3170564D1*
X1752381Y3164761D1*
X1748553Y3159493D1*
X1732358Y3143117D1*
X1732390Y3113025D1*
X1738071Y3114472D1*
X1743390Y3114890D1*
X1797638D1*
X1797643Y3122038D1*
X1798785Y3129245D1*
X1801040Y3136185D1*
X1804352Y3142686D1*
X1808641Y3148589D1*
X1813801Y3153749D1*
X1819704Y3158038D1*
X1826205Y3161350D1*
X1833145Y3163605D1*
X1840352Y3164747D1*
X1847648D1*
X1854855Y3163605D1*
X1861795Y3161350D1*
X1868296Y3158038D1*
X1874199Y3153749D1*
X1875676Y3152384D1*
X1919244Y3152390D1*
X2042447Y3275601D1*
X2043714Y3284855D1*
X2045969Y3291795D1*
X2049281Y3298296D1*
X2053570Y3304199D1*
X2058730Y3309359D1*
X2064633Y3313648D1*
X2071134Y3316960D1*
X2078074Y3319215D1*
X2085281Y3320357D1*
X2092577D1*
X2099784Y3319215D1*
X2106724Y3316960D1*
X2113225Y3313648D1*
X2119128Y3309359D1*
X2124288Y3304199D1*
X2128577Y3298296D1*
X2131668Y3292274D1*
X2131653Y3475958D1*
X2121151Y3482354D1*
X2112117Y3490069D1*
X2104401Y3499104D1*
X2098193Y3509233D1*
X2093647Y3520210D1*
X2090873Y3531762D1*
X2089941Y3543606D1*
X2090873Y3555450D1*
X2093647Y3567003D1*
X2098193Y3577979D1*
X2103201Y3586313D1*
X2031341Y3586319D1*
X2036264Y3577979D1*
X2040810Y3567003D1*
X2043584Y3555450D1*
X2044516Y3543606D1*
X2044282Y3537666D1*
X3331917Y3586360D2*
Y3467894D1*
X3290169D1*
X3290205Y3299515D1*
X3677543Y3299496D1*
X3682618Y3315496D1*
Y3475310D1*
X3673302Y3471599D1*
X3661750Y3468826D1*
X3649906Y3467894D1*
X3638061Y3468826D1*
X3626509Y3471599D1*
X3615533Y3476146D1*
X3605403Y3482354D1*
X3596369Y3490069D1*
X3588653Y3499104D1*
X3582445Y3509233D1*
X3577899Y3520210D1*
X3575125Y3531762D1*
X3574193Y3543606D1*
X3575125Y3555450D1*
X3578051Y3567417D1*
X3559124Y3586305D1*
X3331933Y3586319D1*
X3191614Y2721386D2*
X3308886D1*
Y2591614D1*
X3179114D1*
Y2721386D1*
X3191614D1*
X1599885Y2540549D2*
X1598743Y2533342D1*
X1596488Y2526402D1*
X1593176Y2519901D1*
X1589584Y2514883D1*
X1612311Y2514890D1*
X1616668Y2518509D1*
X1622889Y2522322D1*
X1629631Y2525114D1*
X1636726Y2526818D1*
X1644000Y2527390D1*
X1651274Y2526818D1*
X1660015Y2524507D1*
X1660000Y2656529D1*
X1620914Y2617359D1*
X1620400Y2611726D1*
X1618696Y2604631D1*
X1615904Y2597889D1*
X1612091Y2591668D1*
X1607352Y2586120D1*
X1601804Y2581381D1*
X1595583Y2577568D1*
X1588608Y2574710D1*
X1593176Y2568493D1*
X1596488Y2561992D1*
X1598743Y2555052D1*
X1599885Y2547845D1*
Y2540549D1*
X2795038Y2198789D2*
X2790694Y2195164D1*
X2784473Y2191351D1*
X2777731Y2188559D1*
X2770636Y2186855D1*
X2763362Y2186283D1*
X2756088Y2186855D1*
X2748993Y2188559D1*
X2742251Y2191351D1*
X2736030Y2195164D1*
X2730482Y2199903D1*
X2725743Y2205451D1*
X2721930Y2211672D1*
X2719138Y2218414D1*
X2717434Y2225509D1*
X2716862Y2232783D1*
X2717434Y2240057D1*
X2719138Y2247152D1*
X2721930Y2253894D1*
X2725743Y2260115D1*
X2730482Y2265663D1*
X2736030Y2270402D1*
X2742251Y2274215D1*
X2748993Y2277007D1*
X2756088Y2278711D1*
X2763362Y2279283D1*
X2770636Y2278711D1*
X2777731Y2277007D1*
X2784473Y2274215D1*
X2790694Y2270402D1*
X2795038Y2266777D1*
X3162337Y2266783D1*
X3169802Y2272431D1*
X3176303Y2275743D1*
X3183243Y2277998D1*
X3190450Y2279140D1*
X3197746D1*
X3204953Y2277998D1*
X3211893Y2275743D1*
X3218394Y2272431D1*
X3224297Y2268142D1*
X3229457Y2262982D1*
X3233746Y2257079D1*
X3237058Y2250578D1*
X3239313Y2243638D1*
X3240455Y2236431D1*
Y2229135D1*
X3239313Y2221928D1*
X3237058Y2214988D1*
X3233746Y2208487D1*
X3229457Y2202584D1*
X3224297Y2197424D1*
X3218394Y2193135D1*
X3211893Y2189823D1*
X3204953Y2187568D1*
X3197746Y2186426D1*
X3190450D1*
X3183243Y2187568D1*
X3176303Y2189823D1*
X3169802Y2193135D1*
X3163899Y2197424D1*
X3162422Y2198789D1*
X2795123Y2198783D1*
X2258337Y1905746D2*
X2257195Y1898539D1*
X2254940Y1891599D1*
X2251628Y1885098D1*
X2247339Y1879195D1*
X2242179Y1874035D1*
X2236276Y1869746D1*
X2229775Y1866434D1*
X2222835Y1864179D1*
X2215628Y1863037D1*
X2208332D1*
X2201125Y1864179D1*
X2194185Y1866434D1*
X2187684Y1869746D1*
X2181781Y1874035D1*
X2176621Y1879195D1*
X2172332Y1885098D1*
X2169020Y1891599D1*
X2166765Y1898539D1*
X2165623Y1905746D1*
Y1913042D1*
X2166765Y1920249D1*
X2169020Y1927189D1*
X2172332Y1933690D1*
X2176621Y1939593D1*
X2177986Y1941070D1*
X2177980Y2094794D1*
X2174361Y2099148D1*
X2170548Y2105369D1*
X2167756Y2112111D1*
X2166052Y2119206D1*
X2165480Y2126480D1*
X2166052Y2133754D1*
X2167756Y2140849D1*
X2170548Y2147591D1*
X2174361Y2153812D1*
X2179100Y2159360D1*
X2184648Y2164099D1*
X2190869Y2167912D1*
X2197611Y2170704D1*
X2204706Y2172408D1*
X2211980Y2172980D1*
X2219254Y2172408D1*
X2226349Y2170704D1*
X2233091Y2167912D1*
X2239312Y2164099D1*
X2244860Y2159360D1*
X2249599Y2153812D1*
X2253412Y2147591D1*
X2256204Y2140849D1*
X2257908Y2133754D1*
X2258480Y2126480D1*
X2257908Y2119206D1*
X2256204Y2112111D1*
X2253412Y2105369D1*
X2249599Y2099148D1*
X2245974Y2094804D1*
X2245980Y1941080D1*
X2249599Y1936726D1*
X2253412Y1930505D1*
X2256204Y1923763D1*
X2257908Y1916668D1*
X2258480Y1909394D1*
X2258337Y1905746D1*
D35*
X1394000Y2969000D3*
D36*
X1494000D3*
X1594000D3*
X1694000D3*
X1794000D3*
X1894000D3*
X1994000D3*
X2094000D3*
X2194000D3*
X2294000D3*
X2394000D3*
X2494000D3*
X2594000D3*
X2694000D3*
X2794000D3*
X2894000D3*
D35*
X1394000Y2369000D3*
D36*
X1494000D3*
X1594000D3*
X1694000D3*
X1794000D3*
X1894000D3*
X1994000D3*
X2094000D3*
X2194000D3*
X2294000D3*
X2394000D3*
X2494000D3*
X2594000D3*
X2694000D3*
X2794000D3*
X2894000D3*
D37*
X590850Y3543606D3*
D38*
X787701D3*
X984551D3*
D37*
X1181402D3*
D38*
X1378252D3*
X1575102D3*
D37*
X1771953D3*
D38*
X1968803D3*
X2165654D3*
D37*
X2665654D3*
D38*
X2862504D3*
X3059354D3*
D37*
X3256205D3*
D38*
X3453055D3*
X3649906D3*
D37*
X3846756D3*
D38*
X4043606D3*
X4240457D3*
D37*
X984551Y661717D3*
D38*
X787701D3*
X590850D3*
D37*
X1575102D3*
D38*
X1378252D3*
X1181402D3*
D37*
X2165654D3*
D38*
X1968803D3*
X1771953D3*
D37*
X3059354D3*
D38*
X2862504D3*
X2665654D3*
D37*
X3649906D3*
D38*
X3453055D3*
X3256205D3*
D37*
X4240457D3*
D38*
X4043606D3*
X3846756D3*
D39*
X3081500Y2081500D3*
D40*
X2781500D3*
D39*
X3081500Y1337406D3*
X2781500Y1211421D3*
X3081500Y1085437D3*
X3656500Y2081500D3*
D40*
X3356500D3*
D39*
X3656500Y1337406D3*
X3356500Y1211421D3*
X3656500Y1085437D3*
X4231500Y2069000D3*
D40*
X3931500D3*
D39*
X4231500Y1324906D3*
X3931500Y1198921D3*
X4231500Y1072937D3*
X3244000Y2956500D3*
D40*
Y2656500D3*
D39*
X3988094Y2956500D3*
X4114079Y2656500D3*
X4240063Y2956500D3*
X444000Y1656500D2*
D98*
X4381500D1*
Y469000D1*
X444000D1*
Y1656500D1*
X3744000Y3756500D2*
D23*
X4394000D1*
Y2581500D1*
X3744000D1*
Y3756500D1*
M02*
