%TF.GenerationSoftware,Novarm,DipTrace,3.0.0.2*%
%TF.CreationDate,2017-04-09T13:15:03+02:00*%
%FSLAX26Y26*%
%MOIN*%
%TF.FileFunction,Drawing,Bot*%
%TF.Part,Single*%
%AMOUTLINE9*5,1,4,0,0,0.108572,-135.0*%
%ADD11C,0.006*%
%TA.AperFunction,ComponentPad*%
%ADD31R,0.06378X0.06378*%
%ADD32C,0.06378*%
%ADD33R,0.098425X0.098425*%
%ADD34C,0.098425*%
%ADD35R,0.059055X0.059055*%
%ADD36C,0.059055*%
%ADD37R,0.066929X0.066929*%
%ADD38C,0.066929*%
%ADD39C,0.076772*%
%ADD40R,0.076772X0.076772*%
%ADD118OUTLINE9*%
G75*
G01*
%LPD*%
D31*
X1181500Y2969000D3*
D32*
X1281500D3*
X1381500D3*
X1481500D3*
X1581500D3*
X1681500D3*
X1781500D3*
X1881500D3*
X1981500D3*
X2081500D3*
X2181500D3*
X2281500D3*
X2381500D3*
X2481500D3*
X2581500D3*
X2681500D3*
D31*
X1181500Y2369000D3*
D32*
X1281500D3*
X1381500D3*
X1481500D3*
X1581500D3*
X1681500D3*
X1781500D3*
X1881500D3*
X1981500D3*
X2081500D3*
X2181500D3*
X2281500D3*
X2381500D3*
X2481500D3*
X2581500D3*
X2681500D3*
D33*
X590850Y3543606D3*
D34*
X787701D3*
X984551D3*
D33*
X1181402D3*
D34*
X1378252D3*
X1575102D3*
D33*
X1771953D3*
D34*
X1968803D3*
X2165654D3*
D33*
X2665654D3*
D34*
X2862504D3*
X3059354D3*
D33*
X3256205D3*
D34*
X3453055D3*
X3649906D3*
D33*
X3846756D3*
D34*
X4043606D3*
X4240457D3*
D33*
X984551Y661717D3*
D34*
X787701D3*
X590850D3*
D33*
X1575102D3*
D34*
X1378252D3*
X1181402D3*
D33*
X2165654D3*
D34*
X1968803D3*
X1771953D3*
D33*
X3059354D3*
D34*
X2862504D3*
X2665654D3*
D33*
X3649906D3*
D34*
X3453055D3*
X3256205D3*
D33*
X4240457D3*
D34*
X4043606D3*
X3846756D3*
D35*
X2856500Y2781500D3*
D36*
Y2681500D3*
Y2581500D3*
Y2481500D3*
Y2381500D3*
Y2281500D3*
Y2181500D3*
Y2081500D3*
Y1981500D3*
Y1881500D3*
D37*
X856500Y1006500D3*
D38*
Y1106500D3*
D37*
X1281500Y1006500D3*
D38*
Y1106500D3*
D37*
X1694000Y1006500D3*
D38*
Y1106500D3*
D37*
X2106500Y1019000D3*
D38*
Y1119000D3*
D39*
X2656492Y2156471D3*
D40*
X2356492D3*
D39*
X2656492Y1412377D3*
X2356492Y1286392D3*
X2656492Y1160408D3*
X3381492Y2168971D3*
D40*
X3081492D3*
D39*
X3381492Y1424877D3*
X3081492Y1298892D3*
X3381492Y1172908D3*
X3856492Y2156471D3*
D118*
X3556492D3*
D39*
X3856492Y1412377D3*
X3556492Y1286392D3*
X3856492Y1160408D3*
X4044008Y2044029D3*
D40*
X4344008D3*
D39*
X4044008Y2788123D3*
X4344008Y2914108D3*
X4044008Y3040092D3*
X394000Y394000D2*
D11*
X4437307D1*
Y3811323D1*
X394000D1*
Y394000D1*
M02*
