%TF.GenerationSoftware,Novarm,DipTrace,3.0.0.2*%
%TF.CreationDate,2017-04-09T13:15:02+02:00*%
%FSLAX26Y26*%
%MOIN*%
%TF.FileFunction,Soldermask,Bot*%
%TF.Part,Single*%
%AMOUTLINE10*5,1,4,0,0,0.119885,-135.0*%
%ADD76R,0.084772X0.084772*%
%ADD78C,0.084772*%
%ADD80C,0.074929*%
%ADD82R,0.074929X0.074929*%
%ADD84C,0.067055*%
%ADD86R,0.067055X0.067055*%
%ADD88C,0.106425*%
%ADD90R,0.106425X0.106425*%
%ADD92C,0.07178*%
%ADD94R,0.07178X0.07178*%
%ADD119OUTLINE10*%
G75*
G01*
%LPD*%
D94*
X1181500Y2969000D3*
D92*
X1281500D3*
X1381500D3*
X1481500D3*
X1581500D3*
X1681500D3*
X1781500D3*
X1881500D3*
X1981500D3*
X2081500D3*
X2181500D3*
X2281500D3*
X2381500D3*
X2481500D3*
X2581500D3*
X2681500D3*
D94*
X1181500Y2369000D3*
D92*
X1281500D3*
X1381500D3*
X1481500D3*
X1581500D3*
X1681500D3*
X1781500D3*
X1881500D3*
X1981500D3*
X2081500D3*
X2181500D3*
X2281500D3*
X2381500D3*
X2481500D3*
X2581500D3*
X2681500D3*
D90*
X590850Y3543606D3*
D88*
X787701D3*
X984551D3*
D90*
X1181402D3*
D88*
X1378252D3*
X1575102D3*
D90*
X1771953D3*
D88*
X1968803D3*
X2165654D3*
D90*
X2665654D3*
D88*
X2862504D3*
X3059354D3*
D90*
X3256205D3*
D88*
X3453055D3*
X3649906D3*
D90*
X3846756D3*
D88*
X4043606D3*
X4240457D3*
D90*
X984551Y661717D3*
D88*
X787701D3*
X590850D3*
D90*
X1575102D3*
D88*
X1378252D3*
X1181402D3*
D90*
X2165654D3*
D88*
X1968803D3*
X1771953D3*
D90*
X3059354D3*
D88*
X2862504D3*
X2665654D3*
D90*
X3649906D3*
D88*
X3453055D3*
X3256205D3*
D90*
X4240457D3*
D88*
X4043606D3*
X3846756D3*
D86*
X2856500Y2781500D3*
D84*
Y2681500D3*
Y2581500D3*
Y2481500D3*
Y2381500D3*
Y2281500D3*
Y2181500D3*
Y2081500D3*
Y1981500D3*
Y1881500D3*
D82*
X856500Y1006500D3*
D80*
Y1106500D3*
D82*
X1281500Y1006500D3*
D80*
Y1106500D3*
D82*
X1694000Y1006500D3*
D80*
Y1106500D3*
D82*
X2106500Y1019000D3*
D80*
Y1119000D3*
D78*
X2656492Y2156471D3*
D76*
X2356492D3*
D78*
X2656492Y1412377D3*
X2356492Y1286392D3*
X2656492Y1160408D3*
X3381492Y2168971D3*
D76*
X3081492D3*
D78*
X3381492Y1424877D3*
X3081492Y1298892D3*
X3381492Y1172908D3*
X3856492Y2156471D3*
D119*
X3556492D3*
D78*
X3856492Y1412377D3*
X3556492Y1286392D3*
X3856492Y1160408D3*
X4044008Y2044029D3*
D76*
X4344008D3*
D78*
X4044008Y2788123D3*
X4344008Y2914108D3*
X4044008Y3040092D3*
M02*
