G04 DipTrace 3.3.1.2*
G04 BottomMask.gbr*
%MOIN*%
G04 #@! TF.FileFunction,Soldermask,Bot*
G04 #@! TF.Part,Single*
%AMOUTLINE1*
4,1,4,
-0.042326,-0.042326,
-0.042326,0.042326,
0.042326,0.042326,
0.042326,-0.042326,
-0.042326,-0.042326,
0*%
%ADD64C,0.076778*%
%ADD70R,0.084652X0.084652*%
%ADD72C,0.084652*%
%ADD74C,0.106305*%
%ADD76R,0.106305X0.106305*%
%ADD78C,0.07166*%
%ADD80R,0.07166X0.07166*%
%ADD100OUTLINE1*%
%FSLAX26Y26*%
G04*
G70*
G90*
G75*
G01*
G04 BotMask*
%LPD*%
D80*
X756200Y2631200D3*
D78*
X856200D3*
X956200D3*
X1056200D3*
X1156200D3*
X1256200D3*
X1356200D3*
X1456200D3*
X1556200D3*
X1656200D3*
X1756200D3*
X1856200D3*
X1956200D3*
X2056200D3*
X2156200D3*
X2256200D3*
D80*
X756200Y2031200D3*
D78*
X856200D3*
X956200D3*
X1056200D3*
X1156200D3*
X1256200D3*
X1356200D3*
X1456200D3*
X1556200D3*
X1656200D3*
X1756200D3*
X1856200D3*
X1956200D3*
X2056200D3*
X2156200D3*
X2256200D3*
D76*
X590550Y3543306D3*
D74*
X787401D3*
X984251D3*
D76*
X1181102D3*
D74*
X1377952D3*
X1574802D3*
D76*
X1771653D3*
D74*
X1968503D3*
X2165354D3*
D76*
X2665354D3*
D74*
X2862204D3*
X3059054D3*
D76*
X3255905D3*
D74*
X3452755D3*
X3649606D3*
D76*
X3846456D3*
D74*
X4043306D3*
X4240157D3*
D76*
X984251Y661417D3*
D74*
X787401D3*
X590550D3*
D76*
X1574802D3*
D74*
X1377952D3*
X1181102D3*
D76*
X2165354D3*
D74*
X1968503D3*
X1771653D3*
D76*
X3059054D3*
D74*
X2862204D3*
X2665354D3*
D76*
X3649606D3*
D74*
X3452755D3*
X3255905D3*
D76*
X4240157D3*
D74*
X4043306D3*
X3846456D3*
D72*
X3031200Y2031200D3*
D70*
X2731200D3*
D72*
X3031200Y1287106D3*
X2731200Y1161121D3*
X3031200Y1035137D3*
X3643700Y2031200D3*
D70*
X3343700D3*
D72*
X3643700Y1287106D3*
X3343700Y1161121D3*
X3643700Y1035137D3*
X4268700Y2018700D3*
D100*
X3968700D3*
D72*
X4268700Y1274606D3*
X3968700Y1148621D3*
X4268700Y1022637D3*
X3968700Y2218700D3*
D70*
X4268700D3*
D72*
X3968700Y2962794D3*
X4268700Y3088779D3*
X3968700Y3214763D3*
D64*
X1206200Y2943700D3*
Y3043700D3*
Y3143700D3*
M02*
