%TF.GenerationSoftware,Novarm,DipTrace Beta,3.0.9.0*%
%TF.CreationDate,2017-03-15T19:41:17+02:00*%
%FSLAX26Y26*%
%MOIN*%
%TF.FileFunction,Legend,Bot*%
%TF.Part,Single*%
%ADD23C,0.01*%
%ADD106C,0.015439*%
G75*
G01*
%LPD*%
X2556500Y1831500D2*
D23*
X3156500D1*
Y856500D1*
X2556500D1*
Y1831500D1*
X3169000D2*
X3731500D1*
Y856500D1*
X3169000D1*
Y1831500D1*
X3744000D2*
X4319000D1*
Y869000D1*
X3744000D1*
Y1831500D1*
X2081500Y3656500D2*
X3156500D1*
Y2956500D1*
X2081500D1*
Y3656500D1*
X705487Y711068D2*
D106*
X695871Y715932D1*
X681500Y730191D1*
Y629822D1*
X1118623Y731315D2*
Y736068D1*
X1113870Y745685D1*
X1109117Y750438D1*
X1099500Y755191D1*
X1080377D1*
X1070871Y750438D1*
X1066117Y745685D1*
X1061254Y736068D1*
Y726562D1*
X1066117Y716945D1*
X1075624Y702685D1*
X1123487Y654822D1*
X1056500D1*
X1501370Y742691D2*
X1448864D1*
X1477494Y704445D1*
X1463124D1*
X1453617Y699692D1*
X1448864Y694938D1*
X1444000Y680568D1*
Y671062D1*
X1448864Y656692D1*
X1458371Y647075D1*
X1472741Y642322D1*
X1487111D1*
X1501370Y647075D1*
X1506123Y651939D1*
X1510987Y661445D1*
X1855377Y642322D2*
Y742691D1*
X1903240Y675815D1*
X1831500D1*
X1808409Y918815D2*
Y923568D1*
X1803656Y933185D1*
X1798903Y937938D1*
X1789286Y942691D1*
X1770163D1*
X1760656Y937938D1*
X1755903Y933185D1*
X1751039Y923568D1*
Y914062D1*
X1755903Y904445D1*
X1765409Y890185D1*
X1813273Y842322D1*
X1746286D1*
X1710544Y918815D2*
Y923568D1*
X1705791Y933185D1*
X1701037Y937938D1*
X1691421Y942691D1*
X1672297D1*
X1662791Y937938D1*
X1658038Y933185D1*
X1653174Y923568D1*
Y914062D1*
X1658038Y904445D1*
X1667544Y890185D1*
X1715408Y842322D1*
X1648421D1*
X1588802Y942691D2*
X1603172Y937938D1*
X1612789Y923568D1*
X1617542Y899692D1*
Y885321D1*
X1612789Y861445D1*
X1603172Y847075D1*
X1588802Y842322D1*
X1579296D1*
X1564926Y847075D1*
X1555419Y861445D1*
X1550556Y885321D1*
Y899692D1*
X1555419Y923568D1*
X1564926Y937938D1*
X1579296Y942691D1*
X1588802D1*
X1555419Y923568D2*
X1612789Y861445D1*
X1519677Y942802D2*
X1481431Y842322D1*
X1443184Y942802D1*
X1262487Y894938D2*
X1267240Y904555D1*
X1281610Y909308D1*
X1295981D1*
X1310351Y904555D1*
X1315104Y894938D1*
X1310351Y885432D1*
X1300734Y880568D1*
X1276857Y875815D1*
X1267240Y871062D1*
X1262487Y861445D1*
Y856692D1*
X1267240Y847185D1*
X1281610Y842322D1*
X1295981D1*
X1310351Y847185D1*
X1315104Y856692D1*
X1231609Y880568D2*
X1174239D1*
Y890185D1*
X1178992Y899802D1*
X1183745Y904555D1*
X1193362Y909308D1*
X1207732D1*
X1217239Y904555D1*
X1226856Y894938D1*
X1231609Y880568D1*
Y871062D1*
X1226856Y856692D1*
X1217239Y847185D1*
X1207732Y842322D1*
X1193362D1*
X1183745Y847185D1*
X1174239Y856692D1*
X1143360Y909308D2*
Y842322D1*
Y890185D2*
X1128990Y904555D1*
X1119373Y909308D1*
X1105114D1*
X1095497Y904555D1*
X1090744Y890185D1*
Y842322D1*
X1007249Y894938D2*
X1012002Y904555D1*
X1026372Y909308D1*
X1040742D1*
X1055112Y904555D1*
X1059865Y894938D1*
X1055112Y885432D1*
X1045495Y880568D1*
X1021619Y875815D1*
X1012002Y871062D1*
X1007249Y861445D1*
Y856692D1*
X1012002Y847185D1*
X1026372Y842322D1*
X1040742D1*
X1055112Y847185D1*
X1059865Y856692D1*
X976370Y880568D2*
X919000D1*
Y890185D1*
X923754Y899802D1*
X928507Y904555D1*
X938124Y909308D1*
X952494D1*
X962000Y904555D1*
X971617Y894938D1*
X976370Y880568D1*
Y871062D1*
X971617Y856692D1*
X962000Y847185D1*
X952494Y842322D1*
X938124D1*
X928507Y847185D1*
X919000Y856692D1*
X2686673Y947991D2*
X2696180Y943238D1*
X2705797Y933621D1*
X2710550Y924115D1*
Y904992D1*
X2705797Y895375D1*
X2696180Y885869D1*
X2686673Y881005D1*
X2672303Y876252D1*
X2648316D1*
X2634057Y881005D1*
X2624440Y885869D1*
X2614934Y895375D1*
X2610070Y904992D1*
Y924115D1*
X2614934Y933621D1*
X2624440Y943238D1*
X2634057Y947991D1*
X2648316D1*
Y924115D1*
X2662686Y978870D2*
Y1021870D1*
X2667550Y1036240D1*
X2672303Y1041103D1*
X2681810Y1045857D1*
X2691427D1*
X2700933Y1041103D1*
X2705797Y1036240D1*
X2710550Y1021870D1*
Y978870D1*
X2610070D1*
X2662686Y1012363D2*
X2610070Y1045857D1*
X2710550Y1105475D2*
X2705797Y1095858D1*
X2696180Y1086352D1*
X2686673Y1081488D1*
X2672303Y1076735D1*
X2648316D1*
X2634057Y1081488D1*
X2624440Y1086352D1*
X2614934Y1095858D1*
X2610070Y1105475D1*
Y1124599D1*
X2614933Y1134105D1*
X2624440Y1143722D1*
X2634057Y1148475D1*
X2648316Y1153228D1*
X2672303D1*
X2686673Y1148475D1*
X2696180Y1143722D1*
X2705797Y1134105D1*
X2710550Y1124599D1*
Y1105475D1*
Y1184107D2*
X2638810D1*
X2624440Y1188860D1*
X2614933Y1198477D1*
X2610070Y1212847D1*
Y1222353D1*
X2614933Y1236723D1*
X2624440Y1246340D1*
X2638810Y1251093D1*
X2710550D1*
Y1348958D2*
X2610070D1*
X2710550Y1281972D1*
X2610070D1*
X2710550Y1379837D2*
X2610070D1*
Y1413330D1*
X2614933Y1427700D1*
X2624440Y1437317D1*
X2634057Y1442070D1*
X2648316Y1446824D1*
X2672303D1*
X2686673Y1442070D1*
X2696180Y1437317D1*
X2705797Y1427700D1*
X2710550Y1413330D1*
Y1379837D1*
X2880501Y954164D2*
X2890008Y949411D1*
X2899625Y939794D1*
X2904378Y930288D1*
Y911164D1*
X2899625Y901547D1*
X2890008Y892041D1*
X2880501Y887177D1*
X2866131Y882424D1*
X2842144D1*
X2827885Y887177D1*
X2818268Y892041D1*
X2808762Y901547D1*
X2803898Y911164D1*
Y930288D1*
X2808762Y939794D1*
X2818268Y949411D1*
X2827885Y954164D1*
X2904378Y985043D2*
X2803898D1*
Y1042412D1*
X2904378Y1102031D2*
X2899625Y1092414D1*
X2890008Y1082908D1*
X2880501Y1078044D1*
X2866131Y1073291D1*
X2842144D1*
X2827885Y1078044D1*
X2818268Y1082908D1*
X2808762Y1092414D1*
X2803898Y1102031D1*
Y1121154D1*
X2808762Y1130661D1*
X2818268Y1140277D1*
X2827885Y1145031D1*
X2842144Y1149784D1*
X2866131D1*
X2880501Y1145031D1*
X2890008Y1140277D1*
X2899625Y1130661D1*
X2904378Y1121154D1*
Y1102031D1*
X2890008Y1247649D2*
X2899625Y1238143D1*
X2904378Y1223772D1*
Y1204649D1*
X2899625Y1190279D1*
X2890008Y1180662D1*
X2880501D1*
X2870884Y1185526D1*
X2866131Y1190279D1*
X2861378Y1199786D1*
X2851761Y1228526D1*
X2847008Y1238143D1*
X2842144Y1242896D1*
X2832638Y1247649D1*
X2818268D1*
X2808762Y1238143D1*
X2803898Y1223773D1*
Y1204649D1*
X2808762Y1190279D1*
X2818268Y1180662D1*
X2904378Y1340650D2*
Y1278527D1*
X2803898D1*
Y1340650D1*
X2856514Y1278527D2*
Y1316774D1*
X3107877Y907666D2*
X3103123Y898049D1*
X3093506Y888543D1*
X3084000Y883679D1*
X3069630Y878926D1*
X3045643D1*
X3031384Y883679D1*
X3021767Y888543D1*
X3012260Y898049D1*
X3007397Y907666D1*
Y926789D1*
X3012260Y936295D1*
X3021767Y945912D1*
X3031384Y950665D1*
X3045643Y955419D1*
X3069630D1*
X3084000Y950665D1*
X3093506Y945912D1*
X3103123Y936295D1*
X3107877Y926789D1*
Y907666D1*
X3055260Y986297D2*
Y1029407D1*
X3060013Y1043667D1*
X3064877Y1048531D1*
X3074383Y1053284D1*
X3088753D1*
X3098260Y1048531D1*
X3103123Y1043667D1*
X3107877Y1029407D1*
Y986297D1*
X3007397D1*
X3107877Y1146285D2*
Y1084162D1*
X3007397D1*
Y1146285D1*
X3060013Y1084162D2*
Y1122409D1*
X3107877Y1244150D2*
X3007397D1*
X3107877Y1177164D1*
X3007397D1*
X3286673Y960491D2*
X3296180Y955738D1*
X3305797Y946121D1*
X3310550Y936615D1*
Y917492D1*
X3305797Y907875D1*
X3296180Y898369D1*
X3286673Y893505D1*
X3272303Y888752D1*
X3248316D1*
X3234057Y893505D1*
X3224440Y898369D1*
X3214934Y907875D1*
X3210070Y917492D1*
Y936615D1*
X3214934Y946121D1*
X3224440Y955738D1*
X3234057Y960491D1*
X3248316D1*
Y936615D1*
X3262686Y991370D2*
Y1034370D1*
X3267550Y1048740D1*
X3272303Y1053603D1*
X3281810Y1058357D1*
X3291427D1*
X3300933Y1053603D1*
X3305797Y1048740D1*
X3310550Y1034370D1*
Y991370D1*
X3210070D1*
X3262686Y1024863D2*
X3210070Y1058357D1*
X3310550Y1117975D2*
X3305797Y1108358D1*
X3296180Y1098852D1*
X3286673Y1093988D1*
X3272303Y1089235D1*
X3248316D1*
X3234057Y1093988D1*
X3224440Y1098852D1*
X3214934Y1108358D1*
X3210070Y1117975D1*
Y1137099D1*
X3214933Y1146605D1*
X3224440Y1156222D1*
X3234057Y1160975D1*
X3248316Y1165728D1*
X3272303D1*
X3286673Y1160975D1*
X3296180Y1156222D1*
X3305797Y1146605D1*
X3310550Y1137099D1*
Y1117975D1*
Y1196607D2*
X3238810D1*
X3224440Y1201360D1*
X3214933Y1210977D1*
X3210070Y1225347D1*
Y1234853D1*
X3214933Y1249223D1*
X3224440Y1258840D1*
X3238810Y1263593D1*
X3310550D1*
Y1361458D2*
X3210070D1*
X3310550Y1294472D1*
X3210070D1*
X3310550Y1392337D2*
X3210070D1*
Y1425830D1*
X3214933Y1440200D1*
X3224440Y1449817D1*
X3234057Y1454570D1*
X3248316Y1459324D1*
X3272303D1*
X3286673Y1454570D1*
X3296180Y1449817D1*
X3305797Y1440200D1*
X3310550Y1425830D1*
Y1392337D1*
X3695377Y945166D2*
X3690623Y935549D1*
X3681006Y926043D1*
X3671500Y921179D1*
X3657130Y916426D1*
X3633143D1*
X3618884Y921179D1*
X3609267Y926043D1*
X3599760Y935549D1*
X3594897Y945166D1*
Y964289D1*
X3599760Y973795D1*
X3609267Y983412D1*
X3618884Y988165D1*
X3633143Y992919D1*
X3657130D1*
X3671500Y988165D1*
X3681006Y983412D1*
X3690623Y973795D1*
X3695377Y964289D1*
Y945166D1*
X3642760Y1023797D2*
Y1066907D1*
X3647513Y1081167D1*
X3652377Y1086031D1*
X3661883Y1090784D1*
X3676253D1*
X3685760Y1086031D1*
X3690623Y1081167D1*
X3695377Y1066907D1*
Y1023797D1*
X3594897D1*
X3695377Y1183785D2*
Y1121662D1*
X3594897D1*
Y1183785D1*
X3647513Y1121662D2*
Y1159909D1*
X3695377Y1281650D2*
X3594897D1*
X3695377Y1214664D1*
X3594897D1*
X3480501Y979164D2*
X3490008Y974411D1*
X3499625Y964794D1*
X3504378Y955288D1*
Y936164D1*
X3499625Y926547D1*
X3490008Y917041D1*
X3480501Y912177D1*
X3466131Y907424D1*
X3442144D1*
X3427885Y912177D1*
X3418268Y917041D1*
X3408762Y926547D1*
X3403898Y936164D1*
Y955288D1*
X3408762Y964794D1*
X3418268Y974411D1*
X3427885Y979164D1*
X3504378Y1010043D2*
X3403898D1*
Y1067412D1*
X3504378Y1127031D2*
X3499625Y1117414D1*
X3490008Y1107908D1*
X3480501Y1103044D1*
X3466131Y1098291D1*
X3442144D1*
X3427885Y1103044D1*
X3418268Y1107908D1*
X3408762Y1117414D1*
X3403898Y1127031D1*
Y1146154D1*
X3408762Y1155661D1*
X3418268Y1165277D1*
X3427885Y1170031D1*
X3442144Y1174784D1*
X3466131D1*
X3480501Y1170031D1*
X3490008Y1165277D1*
X3499625Y1155661D1*
X3504378Y1146154D1*
Y1127031D1*
X3490008Y1272649D2*
X3499625Y1263143D1*
X3504378Y1248772D1*
Y1229649D1*
X3499625Y1215279D1*
X3490008Y1205662D1*
X3480501D1*
X3470884Y1210526D1*
X3466131Y1215279D1*
X3461378Y1224786D1*
X3451761Y1253526D1*
X3447008Y1263143D1*
X3442144Y1267896D1*
X3432638Y1272649D1*
X3418268D1*
X3408762Y1263143D1*
X3403898Y1248773D1*
Y1229649D1*
X3408762Y1215279D1*
X3418268Y1205662D1*
X3504378Y1365650D2*
Y1303527D1*
X3403898D1*
Y1365650D1*
X3456514Y1303527D2*
Y1341774D1*
X3874173Y985491D2*
X3883680Y980738D1*
X3893297Y971121D1*
X3898050Y961615D1*
Y942492D1*
X3893297Y932875D1*
X3883680Y923369D1*
X3874173Y918505D1*
X3859803Y913752D1*
X3835816D1*
X3821557Y918505D1*
X3811940Y923369D1*
X3802434Y932875D1*
X3797570Y942492D1*
Y961615D1*
X3802434Y971121D1*
X3811940Y980738D1*
X3821557Y985491D1*
X3835816D1*
Y961615D1*
X3850186Y1016370D2*
Y1059370D1*
X3855050Y1073740D1*
X3859803Y1078603D1*
X3869310Y1083357D1*
X3878927D1*
X3888433Y1078603D1*
X3893297Y1073740D1*
X3898050Y1059370D1*
Y1016370D1*
X3797570D1*
X3850186Y1049863D2*
X3797570Y1083357D1*
X3898050Y1142975D2*
X3893297Y1133358D1*
X3883680Y1123852D1*
X3874173Y1118988D1*
X3859803Y1114235D1*
X3835816D1*
X3821557Y1118988D1*
X3811940Y1123852D1*
X3802434Y1133358D1*
X3797570Y1142975D1*
Y1162099D1*
X3802433Y1171605D1*
X3811940Y1181222D1*
X3821557Y1185975D1*
X3835816Y1190728D1*
X3859803D1*
X3874173Y1185975D1*
X3883680Y1181222D1*
X3893297Y1171605D1*
X3898050Y1162099D1*
Y1142975D1*
Y1221607D2*
X3826310D1*
X3811940Y1226360D1*
X3802433Y1235977D1*
X3797570Y1250347D1*
Y1259853D1*
X3802433Y1274223D1*
X3811940Y1283840D1*
X3826310Y1288593D1*
X3898050D1*
Y1386458D2*
X3797570D1*
X3898050Y1319472D1*
X3797570D1*
X3898050Y1417337D2*
X3797570D1*
Y1450830D1*
X3802433Y1465200D1*
X3811940Y1474817D1*
X3821557Y1479570D1*
X3835816Y1484324D1*
X3859803D1*
X3874173Y1479570D1*
X3883680Y1474817D1*
X3893297Y1465200D1*
X3898050Y1450830D1*
Y1417337D1*
X4068001Y991664D2*
X4077508Y986911D1*
X4087125Y977294D1*
X4091878Y967788D1*
Y948664D1*
X4087125Y939047D1*
X4077508Y929541D1*
X4068001Y924677D1*
X4053631Y919924D1*
X4029644D1*
X4015385Y924677D1*
X4005768Y929541D1*
X3996262Y939047D1*
X3991398Y948664D1*
Y967788D1*
X3996262Y977294D1*
X4005768Y986911D1*
X4015385Y991664D1*
X4091878Y1022543D2*
X3991398D1*
Y1079912D1*
X4091878Y1139531D2*
X4087125Y1129914D1*
X4077508Y1120408D1*
X4068001Y1115544D1*
X4053631Y1110791D1*
X4029644D1*
X4015385Y1115544D1*
X4005768Y1120408D1*
X3996262Y1129914D1*
X3991398Y1139531D1*
Y1158654D1*
X3996262Y1168161D1*
X4005768Y1177777D1*
X4015385Y1182531D1*
X4029644Y1187284D1*
X4053631D1*
X4068001Y1182531D1*
X4077508Y1177777D1*
X4087125Y1168161D1*
X4091878Y1158654D1*
Y1139531D1*
X4077508Y1285149D2*
X4087125Y1275643D1*
X4091878Y1261272D1*
Y1242149D1*
X4087125Y1227779D1*
X4077508Y1218162D1*
X4068001D1*
X4058384Y1223026D1*
X4053631Y1227779D1*
X4048878Y1237286D1*
X4039261Y1266026D1*
X4034508Y1275643D1*
X4029644Y1280396D1*
X4020138Y1285149D1*
X4005768D1*
X3996262Y1275643D1*
X3991398Y1261273D1*
Y1242149D1*
X3996262Y1227779D1*
X4005768Y1218162D1*
X4091878Y1378150D2*
Y1316027D1*
X3991398D1*
Y1378150D1*
X4044014Y1316027D2*
Y1354274D1*
X4270377Y970166D2*
X4265623Y960549D1*
X4256006Y951043D1*
X4246500Y946179D1*
X4232130Y941426D1*
X4208143D1*
X4193884Y946179D1*
X4184267Y951043D1*
X4174760Y960549D1*
X4169897Y970166D1*
Y989289D1*
X4174760Y998795D1*
X4184267Y1008412D1*
X4193884Y1013165D1*
X4208143Y1017919D1*
X4232130D1*
X4246500Y1013165D1*
X4256006Y1008412D1*
X4265623Y998795D1*
X4270377Y989289D1*
Y970166D1*
X4217760Y1048797D2*
Y1091907D1*
X4222513Y1106167D1*
X4227377Y1111031D1*
X4236883Y1115784D1*
X4251253D1*
X4260760Y1111031D1*
X4265623Y1106167D1*
X4270377Y1091907D1*
Y1048797D1*
X4169897D1*
X4270377Y1208785D2*
Y1146662D1*
X4169897D1*
Y1208785D1*
X4222513Y1146662D2*
Y1184909D1*
X4270377Y1306650D2*
X4169897D1*
X4270377Y1239664D1*
X4169897D1*
X2890853Y1682438D2*
X2847853D1*
X2833483Y1687302D1*
X2828619Y1692055D1*
X2823866Y1701562D1*
Y1711179D1*
X2828619Y1720685D1*
X2833483Y1725549D1*
X2847853Y1730302D1*
X2890853D1*
Y1629822D1*
X2857359Y1682438D2*
X2823866Y1629822D1*
X2792987Y1711068D2*
X2783371Y1715932D1*
X2769000Y1730191D1*
Y1629822D1*
X3596352Y1682438D2*
X3553353D1*
X3538983Y1687302D1*
X3534119Y1692055D1*
X3529366Y1701562D1*
Y1711179D1*
X3534119Y1720685D1*
X3538983Y1725549D1*
X3553353Y1730302D1*
X3596352D1*
Y1629822D1*
X3562859Y1682438D2*
X3529366Y1629822D1*
X3493623Y1706315D2*
Y1711068D1*
X3488870Y1720685D1*
X3484117Y1725438D1*
X3474500Y1730191D1*
X3455377D1*
X3445871Y1725438D1*
X3441117Y1720685D1*
X3436254Y1711068D1*
Y1701562D1*
X3441117Y1691945D1*
X3450624Y1677685D1*
X3498487Y1629822D1*
X3431500D1*
X4171352Y1682438D2*
X4128353D1*
X4113983Y1687302D1*
X4109119Y1692055D1*
X4104366Y1701562D1*
Y1711179D1*
X4109119Y1720685D1*
X4113983Y1725549D1*
X4128353Y1730302D1*
X4171352D1*
Y1629822D1*
X4137859Y1682438D2*
X4104366Y1629822D1*
X4063870Y1730191D2*
X4011364D1*
X4039994Y1691945D1*
X4025624D1*
X4016117Y1687192D1*
X4011364Y1682438D1*
X4006500Y1668068D1*
Y1658562D1*
X4011364Y1644192D1*
X4020871Y1634575D1*
X4035241Y1629822D1*
X4049611D1*
X4063870Y1634575D1*
X4068623Y1639439D1*
X4073487Y1648945D1*
X3821898Y3300085D2*
X3812391Y3304838D1*
X3802774Y3314455D1*
X3798021Y3323961D1*
Y3343084D1*
X3802774Y3352701D1*
X3812391Y3362208D1*
X3821898Y3367071D1*
X3836268Y3371824D1*
X3860255D1*
X3874514Y3367071D1*
X3884131Y3362208D1*
X3893637Y3352701D1*
X3898501Y3343084D1*
Y3323961D1*
X3893637Y3314455D1*
X3884131Y3304838D1*
X3874514Y3300085D1*
X3860255D1*
Y3323961D1*
X3845884Y3269206D2*
Y3226206D1*
X3841021Y3211836D1*
X3836268Y3206973D1*
X3826761Y3202219D1*
X3817144D1*
X3807638Y3206973D1*
X3802774Y3211836D1*
X3798021Y3226206D1*
Y3269206D1*
X3898501D1*
X3845884Y3235713D2*
X3898501Y3202219D1*
X3798021Y3142601D2*
X3802774Y3152218D1*
X3812391Y3161724D1*
X3821898Y3166588D1*
X3836268Y3171341D1*
X3860255D1*
X3874514Y3166588D1*
X3884131Y3161724D1*
X3893637Y3152218D1*
X3898501Y3142601D1*
Y3123478D1*
X3893637Y3113971D1*
X3884131Y3104354D1*
X3874514Y3099601D1*
X3860255Y3094848D1*
X3836268D1*
X3821898Y3099601D1*
X3812391Y3104354D1*
X3802774Y3113971D1*
X3798021Y3123478D1*
Y3142601D1*
Y3063969D2*
X3869761D1*
X3884131Y3059216D1*
X3893637Y3049599D1*
X3898501Y3035229D1*
Y3025723D1*
X3893637Y3011353D1*
X3884131Y3001736D1*
X3869761Y2996983D1*
X3798021D1*
Y2899118D2*
X3898501D1*
X3798021Y2966104D1*
X3898501D1*
X3798021Y2868239D2*
X3898501D1*
Y2834746D1*
X3893637Y2820376D1*
X3884131Y2810759D1*
X3874514Y2806006D1*
X3860255Y2801253D1*
X3836268D1*
X3821898Y2806006D1*
X3812391Y2810759D1*
X3802774Y2820376D1*
X3798021Y2834746D1*
Y2868239D1*
X4015726Y3293911D2*
X4006219Y3298664D1*
X3996602Y3308281D1*
X3991849Y3317787D1*
Y3336910D1*
X3996602Y3346527D1*
X4006219Y3356034D1*
X4015726Y3360897D1*
X4030096Y3365651D1*
X4054083D1*
X4068342Y3360897D1*
X4077959Y3356034D1*
X4087465Y3346527D1*
X4092329Y3336910D1*
Y3317787D1*
X4087465Y3308281D1*
X4077959Y3298664D1*
X4068342Y3293911D1*
X3991849Y3263032D2*
X4092329D1*
Y3205662D1*
X3991849Y3146044D2*
X3996602Y3155661D1*
X4006219Y3165167D1*
X4015726Y3170031D1*
X4030096Y3174784D1*
X4054083D1*
X4068342Y3170031D1*
X4077959Y3165167D1*
X4087465Y3155661D1*
X4092329Y3146044D1*
Y3126921D1*
X4087465Y3117414D1*
X4077959Y3107797D1*
X4068342Y3103044D1*
X4054083Y3098291D1*
X4030096D1*
X4015726Y3103044D1*
X4006219Y3107797D1*
X3996602Y3117414D1*
X3991849Y3126921D1*
Y3146044D1*
X4006219Y3000426D2*
X3996602Y3009932D1*
X3991849Y3024302D1*
Y3043426D1*
X3996602Y3057796D1*
X4006219Y3067413D1*
X4015726D1*
X4025343Y3062549D1*
X4030096Y3057796D1*
X4034849Y3048289D1*
X4044466Y3019549D1*
X4049219Y3009932D1*
X4054083Y3005179D1*
X4063589Y3000426D1*
X4077959D1*
X4087465Y3009932D1*
X4092329Y3024302D1*
Y3043426D1*
X4087465Y3057796D1*
X4077959Y3067412D1*
X3991849Y2907424D2*
Y2969547D1*
X4092329D1*
Y2907424D1*
X4039713Y2969547D2*
Y2931301D1*
X4195348Y3327910D2*
X4200101Y3337527D1*
X4209718Y3347034D1*
X4219224Y3351897D1*
X4233594Y3356650D1*
X4257581D1*
X4271841Y3351897D1*
X4281458Y3347034D1*
X4290964Y3337527D1*
X4295828Y3327910D1*
Y3308787D1*
X4290964Y3299281D1*
X4281458Y3289664D1*
X4271841Y3284911D1*
X4257581Y3280157D1*
X4233594D1*
X4219224Y3284911D1*
X4209718Y3289664D1*
X4200101Y3299281D1*
X4195348Y3308787D1*
Y3327910D1*
X4247964Y3249279D2*
Y3206169D1*
X4243211Y3191909D1*
X4238348Y3187045D1*
X4228841Y3182292D1*
X4214471D1*
X4204965Y3187045D1*
X4200101Y3191909D1*
X4195348Y3206169D1*
Y3249279D1*
X4295828D1*
X4195348Y3089291D2*
Y3151414D1*
X4295828D1*
Y3089291D1*
X4243211Y3151414D2*
Y3113167D1*
X4195348Y2991426D2*
X4295828D1*
X4195348Y3058412D1*
X4295828D1*
X4138605Y2594938D2*
X4095606D1*
X4081236Y2599802D1*
X4076372Y2604555D1*
X4071619Y2614062D1*
Y2623679D1*
X4076372Y2633185D1*
X4081236Y2638049D1*
X4095606Y2642802D1*
X4138605D1*
Y2542322D1*
X4105112Y2594938D2*
X4071619Y2542322D1*
X3992877D2*
Y2642691D1*
X4040740Y2575815D1*
X3969000D1*
X946635Y3331425D2*
X951388Y3340932D1*
X961005Y3350549D1*
X970511Y3355302D1*
X989634D1*
X999251Y3350549D1*
X1008758Y3340932D1*
X1013621Y3331425D1*
X1018375Y3317055D1*
Y3293068D1*
X1013621Y3278809D1*
X1008758Y3269192D1*
X999251Y3259685D1*
X989634Y3254822D1*
X970511D1*
X961005Y3259685D1*
X951388Y3269192D1*
X946635Y3278809D1*
Y3293068D1*
X970511D1*
X818554Y3302685D2*
X775444D1*
X761184Y3307438D1*
X756321Y3312302D1*
X751568Y3321808D1*
Y3336179D1*
X756321Y3345685D1*
X761184Y3350549D1*
X775444Y3355302D1*
X818554D1*
Y3254822D1*
X623487Y3302685D2*
X580377D1*
X566117Y3307438D1*
X561254Y3312302D1*
X556500Y3321808D1*
Y3336179D1*
X561254Y3345685D1*
X566117Y3350549D1*
X580377Y3355302D1*
X623487D1*
Y3254822D1*
X1042602Y3173568D2*
X1032986Y3178432D1*
X1018616Y3192691D1*
Y3092322D1*
X930367Y3192691D2*
X978120D1*
X982873Y3149692D1*
X978120Y3154445D1*
X963750Y3159308D1*
X949491D1*
X935120Y3154445D1*
X925504Y3144938D1*
X920750Y3130568D1*
Y3121062D1*
X925504Y3106692D1*
X935120Y3097075D1*
X949491Y3092322D1*
X963750D1*
X978120Y3097075D1*
X982873Y3101939D1*
X987737Y3111445D1*
X889872Y3142507D2*
X834602D1*
X794107Y3192691D2*
X741601D1*
X770230Y3154445D1*
X755860D1*
X746354Y3149692D1*
X741601Y3144938D1*
X736737Y3130568D1*
Y3121062D1*
X741601Y3106692D1*
X751107Y3097075D1*
X765477Y3092322D1*
X779847D1*
X794107Y3097075D1*
X798860Y3101939D1*
X803724Y3111445D1*
X677119Y3192691D2*
X691489Y3187938D1*
X701105Y3173568D1*
X705859Y3149692D1*
Y3135321D1*
X701105Y3111445D1*
X691489Y3097075D1*
X677119Y3092322D1*
X667612D1*
X653242Y3097075D1*
X643736Y3111445D1*
X638872Y3135321D1*
Y3149692D1*
X643736Y3173568D1*
X653242Y3187938D1*
X667612Y3192691D1*
X677119D1*
X643736Y3173568D2*
X701105Y3111445D1*
X607993Y3192802D2*
X569747Y3092322D1*
X531500Y3192802D1*
X969967Y2879822D2*
X1008325Y2980302D1*
X1046571Y2879822D1*
X1032201Y2913315D2*
X984338D1*
X867349Y2956425D2*
X872102Y2965932D1*
X881719Y2975549D1*
X891226Y2980302D1*
X910349D1*
X919966Y2975549D1*
X929472Y2965932D1*
X934336Y2956425D1*
X939089Y2942055D1*
Y2918068D1*
X934336Y2903809D1*
X929472Y2894192D1*
X919966Y2884685D1*
X910349Y2879822D1*
X891226D1*
X881719Y2884685D1*
X872102Y2894192D1*
X867349Y2903809D1*
X836471Y2879822D2*
X769484Y2980191D1*
X738605Y2980302D2*
Y2879822D1*
X705112D1*
X690742Y2884685D1*
X681125Y2894192D1*
X676372Y2903809D1*
X671619Y2918068D1*
Y2942055D1*
X676372Y2956425D1*
X681125Y2965932D1*
X690742Y2975549D1*
X705112Y2980302D1*
X738605D1*
X569000Y2956425D2*
X573754Y2965932D1*
X583371Y2975549D1*
X592877Y2980302D1*
X612000D1*
X621617Y2975549D1*
X631123Y2965932D1*
X635987Y2956425D1*
X640740Y2942055D1*
Y2918068D1*
X635987Y2903809D1*
X631123Y2894192D1*
X621617Y2884685D1*
X612000Y2879822D1*
X592877D1*
X583371Y2884685D1*
X573754Y2894192D1*
X569000Y2903809D1*
X1543752Y3343925D2*
X1548505Y3353432D1*
X1558122Y3363049D1*
X1567628Y3367802D1*
X1586751D1*
X1596368Y3363049D1*
X1605875Y3353432D1*
X1610738Y3343925D1*
X1615491Y3329555D1*
Y3305568D1*
X1610738Y3291309D1*
X1605875Y3281692D1*
X1596368Y3272185D1*
X1586751Y3267322D1*
X1567628D1*
X1558122Y3272185D1*
X1548505Y3281692D1*
X1543752Y3291309D1*
Y3305568D1*
X1567628D1*
X1339068Y3267322D2*
X1377425Y3367802D1*
X1415671Y3267322D1*
X1401301Y3300815D2*
X1353438D1*
X1210987Y3367802D2*
Y3267322D1*
X1167877D1*
X1153507Y3272185D1*
X1148754Y3276939D1*
X1144000Y3286445D1*
Y3300815D1*
X1148754Y3310432D1*
X1153507Y3315185D1*
X1167877Y3319938D1*
X1153507Y3324802D1*
X1148754Y3329555D1*
X1144000Y3339062D1*
Y3348679D1*
X1148754Y3358185D1*
X1153507Y3363049D1*
X1167877Y3367802D1*
X1210987D1*
Y3319938D2*
X1167877D1*
X1668238Y3144938D2*
X1625239D1*
X1610869Y3149802D1*
X1606005Y3154555D1*
X1601252Y3164062D1*
Y3173679D1*
X1606005Y3183185D1*
X1610869Y3188049D1*
X1625239Y3192802D1*
X1668238D1*
Y3092322D1*
X1634745Y3144938D2*
X1601252Y3092322D1*
X1503387Y3178432D2*
X1512893Y3188049D1*
X1527263Y3192802D1*
X1546386D1*
X1560756Y3188049D1*
X1570373Y3178432D1*
Y3168925D1*
X1565510Y3159308D1*
X1560756Y3154555D1*
X1551250Y3149802D1*
X1522510Y3140185D1*
X1512893Y3135432D1*
X1508140Y3130568D1*
X1503387Y3121062D1*
Y3106692D1*
X1512893Y3097185D1*
X1527263Y3092322D1*
X1546386D1*
X1560756Y3097185D1*
X1570373Y3106692D1*
X1472508Y3142507D2*
X1417239D1*
X1338497Y3092322D2*
Y3192691D1*
X1386360Y3125815D1*
X1314620D1*
X1259865Y3192691D2*
X1274125Y3187938D1*
X1278989Y3178432D1*
Y3168815D1*
X1274125Y3159308D1*
X1264619Y3154445D1*
X1245495Y3149692D1*
X1231125Y3144938D1*
X1221619Y3135321D1*
X1216866Y3125815D1*
Y3111445D1*
X1221619Y3101939D1*
X1226372Y3097075D1*
X1240742Y3092322D1*
X1259865D1*
X1274125Y3097075D1*
X1278989Y3101939D1*
X1283742Y3111445D1*
Y3125815D1*
X1278989Y3135321D1*
X1269372Y3144938D1*
X1255112Y3149692D1*
X1235989Y3154445D1*
X1226372Y3159308D1*
X1221619Y3168815D1*
Y3178432D1*
X1226372Y3187938D1*
X1240742Y3192691D1*
X1259865D1*
X1128617D2*
X1176370D1*
X1181123Y3149692D1*
X1176370Y3154445D1*
X1162000Y3159308D1*
X1147741D1*
X1133371Y3154445D1*
X1123754Y3144938D1*
X1119000Y3130568D1*
Y3121062D1*
X1123754Y3106692D1*
X1133371Y3097075D1*
X1147741Y3092322D1*
X1162000D1*
X1176370Y3097075D1*
X1181123Y3101939D1*
X1185987Y3111445D1*
X2170053Y3292322D2*
Y3392691D1*
X2217916Y3325815D1*
X2146176D1*
X1960726Y3392691D2*
X2008479D1*
X2013232Y3349692D1*
X2008479Y3354445D1*
X1994109Y3359308D1*
X1979849D1*
X1965479Y3354445D1*
X1955862Y3344938D1*
X1951109Y3330568D1*
Y3321062D1*
X1955862Y3306692D1*
X1965479Y3297075D1*
X1979849Y3292322D1*
X1994109D1*
X2008479Y3297075D1*
X2013232Y3301939D1*
X2018096Y3311445D1*
X1920230Y3392802D2*
X1881984Y3292322D1*
X1843737Y3392802D1*
X1812859Y3373568D2*
X1803242Y3378432D1*
X1788872Y3392691D1*
Y3292322D1*
X1757993Y3359308D2*
X1738870Y3292322D1*
X1719747Y3359308D1*
X1700624Y3292322D1*
X1681500Y3359308D1*
X3077134Y3317322D2*
X3029271Y3417691D1*
X3096258D1*
X2843821Y3403432D2*
X2848574Y3412938D1*
X2862944Y3417691D1*
X2872450D1*
X2886820Y3412938D1*
X2896437Y3398568D1*
X2901191Y3374692D1*
Y3350815D1*
X2896437Y3331692D1*
X2886820Y3322075D1*
X2872450Y3317322D1*
X2867697D1*
X2853438Y3322075D1*
X2843821Y3331692D1*
X2839068Y3346062D1*
Y3350815D1*
X2843821Y3365185D1*
X2853438Y3374692D1*
X2867697Y3379445D1*
X2872450D1*
X2886820Y3374692D1*
X2896437Y3365185D1*
X2901191Y3350815D1*
X2653617Y3417691D2*
X2701370D1*
X2706123Y3374692D1*
X2701370Y3379445D1*
X2687000Y3384308D1*
X2672741D1*
X2658371Y3379445D1*
X2648754Y3369938D1*
X2644000Y3355568D1*
Y3346062D1*
X2648754Y3331692D1*
X2658371Y3322075D1*
X2672741Y3317322D1*
X2687000D1*
X2701370Y3322075D1*
X2706123Y3326939D1*
X2710987Y3336445D1*
X3658011Y3406315D2*
Y3411068D1*
X3653258Y3420685D1*
X3648505Y3425438D1*
X3638888Y3430191D1*
X3619765D1*
X3610258Y3425438D1*
X3605505Y3420685D1*
X3600641Y3411068D1*
Y3401562D1*
X3605505Y3391945D1*
X3615011Y3377685D1*
X3662875Y3329822D1*
X3595888D1*
X3396068Y3406425D2*
X3400821Y3415932D1*
X3410438Y3425549D1*
X3419944Y3430302D1*
X3439068D1*
X3448684Y3425549D1*
X3458191Y3415932D1*
X3463055Y3406425D1*
X3467808Y3392055D1*
Y3368068D1*
X3463055Y3353809D1*
X3458191Y3344192D1*
X3448684Y3334685D1*
X3439068Y3329822D1*
X3419944D1*
X3410438Y3334685D1*
X3400821Y3344192D1*
X3396068Y3353809D1*
Y3368068D1*
X3419944D1*
X3267987Y3411068D2*
X3258371Y3415932D1*
X3244000Y3430191D1*
Y3329822D1*
X3640997Y3217691D2*
X3655367Y3212938D1*
X3664984Y3198568D1*
X3669737Y3174692D1*
Y3160321D1*
X3664984Y3136445D1*
X3655367Y3122075D1*
X3640997Y3117322D1*
X3631491D1*
X3617121Y3122075D1*
X3607614Y3136445D1*
X3602751Y3160321D1*
Y3174692D1*
X3607614Y3198568D1*
X3617121Y3212938D1*
X3631491Y3217691D1*
X3640997D1*
X3607614Y3198568D2*
X3664984Y3136445D1*
X3571872Y3167507D2*
X3516603D1*
X3485724Y3198568D2*
X3476107Y3203432D1*
X3461737Y3217691D1*
Y3117322D1*
X3402119Y3217691D2*
X3416489Y3212938D1*
X3426105Y3198568D1*
X3430859Y3174692D1*
Y3160321D1*
X3426105Y3136445D1*
X3416489Y3122075D1*
X3402119Y3117322D1*
X3392612D1*
X3378242Y3122075D1*
X3368736Y3136445D1*
X3363872Y3160321D1*
Y3174692D1*
X3368736Y3198568D1*
X3378242Y3212938D1*
X3392612Y3217691D1*
X3402119D1*
X3368736Y3198568D2*
X3426105Y3136445D1*
X3332993Y3217802D2*
X3294747Y3117322D1*
X3256500Y3217802D1*
X2939582Y3129822D2*
X2977939Y3230302D1*
X3016185Y3129822D1*
X3001815Y3163315D2*
X2953952D1*
X2908703Y3196808D2*
Y3129822D1*
Y3168068D2*
X2903840Y3182438D1*
X2894333Y3192055D1*
X2884716Y3196808D1*
X2870346D1*
X2782098Y3230302D2*
Y3129822D1*
Y3182438D2*
X2791604Y3192055D1*
X2801221Y3196808D1*
X2815591D1*
X2825098Y3192055D1*
X2834715Y3182438D1*
X2839468Y3168068D1*
Y3158562D1*
X2834715Y3144192D1*
X2825098Y3134685D1*
X2815591Y3129822D1*
X2801221D1*
X2791604Y3134685D1*
X2782098Y3144192D1*
X2751220Y3196808D2*
Y3148945D1*
X2746466Y3134685D1*
X2736849Y3129822D1*
X2722479D1*
X2712973Y3134685D1*
X2698603Y3148945D1*
Y3196808D2*
Y3129822D1*
X2667724Y3230302D2*
X2662971Y3225549D1*
X2658108Y3230302D1*
X2662971Y3235165D1*
X2667724Y3230302D1*
X2662971Y3196808D2*
Y3129822D1*
X2627229Y3196808D2*
Y3129822D1*
Y3177685D2*
X2612859Y3192055D1*
X2603242Y3196808D1*
X2588983D1*
X2579366Y3192055D1*
X2574612Y3177685D1*
Y3129822D1*
X2519858Y3196808D2*
X2529364Y3192055D1*
X2538981Y3182438D1*
X2543734Y3168068D1*
Y3158562D1*
X2538981Y3144192D1*
X2529364Y3134685D1*
X2519858Y3129822D1*
X2505487D1*
X2495871Y3134685D1*
X2486364Y3144192D1*
X2481500Y3158562D1*
Y3168068D1*
X2486364Y3182438D1*
X2495871Y3192055D1*
X2505487Y3196808D1*
X2519858D1*
X2474007Y1734308D2*
Y1667322D1*
Y1715185D2*
X2459637Y1729555D1*
X2450020Y1734308D1*
X2435761D1*
X2426144Y1729555D1*
X2421391Y1715185D1*
Y1667322D1*
Y1715185D2*
X2407021Y1729555D1*
X2397404Y1734308D1*
X2383144D1*
X2373527Y1729555D1*
X2368664Y1715185D1*
Y1667322D1*
X2337785Y1734308D2*
Y1686445D1*
X2333032Y1672185D1*
X2323415Y1667322D1*
X2309045D1*
X2299539Y1672185D1*
X2285168Y1686445D1*
Y1734308D2*
Y1667322D1*
X2254290Y1767802D2*
Y1667322D1*
X2209041Y1767802D2*
Y1686445D1*
X2204288Y1672185D1*
X2194671Y1667322D1*
X2185165D1*
X2223411Y1734308D2*
X2189918D1*
X2154286Y1767802D2*
X2149533Y1763049D1*
X2144670Y1767802D1*
X2149533Y1772665D1*
X2154286Y1767802D1*
X2149533Y1734308D2*
Y1667322D1*
X2113791Y1767802D2*
Y1667322D1*
X2065928Y1734308D2*
X2113791Y1686445D1*
X2094668Y1705568D2*
X2061174Y1667322D1*
X1977679Y1743815D2*
X1992049D1*
X2001556Y1739062D1*
X2006420Y1734308D1*
X2011173Y1724692D1*
Y1705568D1*
X2006420Y1700815D1*
X1996803D1*
X1977679Y1705568D1*
X1972926Y1696062D1*
X1968173D1*
X1958556Y1705568D1*
X1953803Y1729445D1*
X1958556Y1743815D1*
X1963309Y1753432D1*
X1972926Y1762938D1*
X1982433Y1767691D1*
X2001556D1*
X2011173Y1762938D1*
X2020679Y1753432D1*
X2025543Y1743815D1*
X2030296Y1729445D1*
Y1705568D1*
X2025543Y1691198D1*
X2020679Y1681692D1*
X2011173Y1672075D1*
X2001556Y1667322D1*
X1982433D1*
X1972926Y1672075D1*
X1963309Y1681692D1*
X1977679Y1748568D2*
Y1705568D1*
X1922924Y1734308D2*
Y1667322D1*
Y1715185D2*
X1908554Y1729555D1*
X1898937Y1734308D1*
X1884678D1*
X1875061Y1729555D1*
X1870308Y1715185D1*
Y1667322D1*
Y1715185D2*
X1855938Y1729555D1*
X1846321Y1734308D1*
X1832061D1*
X1822444Y1729555D1*
X1817581Y1715185D1*
Y1667322D1*
X1786702Y1734308D2*
Y1686445D1*
X1781949Y1672185D1*
X1772332Y1667322D1*
X1757962D1*
X1748456Y1672185D1*
X1734086Y1686445D1*
Y1734308D2*
Y1667322D1*
X1703207Y1767802D2*
Y1667322D1*
X1657959Y1767802D2*
Y1686445D1*
X1653205Y1672185D1*
X1643589Y1667322D1*
X1634082D1*
X1672329Y1734308D2*
X1638835D1*
X1603204Y1767802D2*
X1598450Y1763049D1*
X1593587Y1767802D1*
X1598450Y1772665D1*
X1603204Y1767802D1*
X1598450Y1734308D2*
Y1667322D1*
X1562708Y1767802D2*
Y1667322D1*
X1514845Y1734308D2*
X1562708Y1686445D1*
X1543585Y1705568D2*
X1510092Y1667322D1*
X1474460Y1676939D2*
X1479213Y1672075D1*
X1474460Y1667322D1*
X1469596Y1672075D1*
X1474460Y1676939D1*
X1414841Y1734308D2*
X1424348Y1729555D1*
X1433965Y1719938D1*
X1438718Y1705568D1*
Y1696062D1*
X1433965Y1681692D1*
X1424348Y1672185D1*
X1414841Y1667322D1*
X1400471D1*
X1390854Y1672185D1*
X1381348Y1681692D1*
X1376484Y1696062D1*
Y1705568D1*
X1381348Y1719938D1*
X1390854Y1729555D1*
X1400471Y1734308D1*
X1414841D1*
X1345606D2*
Y1667322D1*
Y1705568D2*
X1340742Y1719938D1*
X1331236Y1729555D1*
X1321619Y1734308D1*
X1307249D1*
X1219000Y1729555D2*
Y1652952D1*
X1223754Y1638692D1*
X1228507Y1633828D1*
X1238124Y1629075D1*
X1252494D1*
X1262000Y1633828D1*
X1219000Y1715185D2*
X1228507Y1724692D1*
X1238124Y1729555D1*
X1252494D1*
X1262000Y1724692D1*
X1271617Y1715185D1*
X1276370Y1700815D1*
Y1691198D1*
X1271617Y1676939D1*
X1262000Y1667322D1*
X1252494Y1662569D1*
X1238124D1*
X1228507Y1667322D1*
X1219000Y1676939D1*
X2429894Y1569000D2*
X2439511Y1559493D1*
X2449017Y1545123D1*
X2458634Y1526000D1*
X2463387Y1502013D1*
Y1482890D1*
X2458634Y1459013D1*
X2449017Y1439890D1*
X2439511Y1425520D1*
X2429894Y1416013D1*
X2341535Y1494938D2*
X2351152Y1504555D1*
X2360769Y1509308D1*
X2375029D1*
X2384645Y1504555D1*
X2394152Y1494938D1*
X2399016Y1480568D1*
Y1471062D1*
X2394152Y1456692D1*
X2384645Y1447185D1*
X2375029Y1442322D1*
X2360769D1*
X2351152Y1447185D1*
X2341535Y1456692D1*
X2310657Y1569000D2*
X2301040Y1559493D1*
X2291533Y1545123D1*
X2281917Y1526000D1*
X2277163Y1502013D1*
Y1482890D1*
X2281917Y1459013D1*
X2291533Y1439890D1*
X2301040Y1425520D1*
X2310657Y1416013D1*
X2144219Y1518815D2*
Y1523568D1*
X2139466Y1533185D1*
X2134713Y1537938D1*
X2125096Y1542691D1*
X2105973D1*
X2096466Y1537938D1*
X2091713Y1533185D1*
X2086849Y1523568D1*
Y1514062D1*
X2091713Y1504445D1*
X2101220Y1490185D1*
X2149083Y1442322D1*
X2082096D1*
X2022478Y1542691D2*
X2036848Y1537938D1*
X2046465Y1523568D1*
X2051218Y1499692D1*
Y1485321D1*
X2046465Y1461445D1*
X2036848Y1447075D1*
X2022478Y1442322D1*
X2012971D1*
X1998601Y1447075D1*
X1989095Y1461445D1*
X1984231Y1485321D1*
Y1499692D1*
X1989095Y1523568D1*
X1998601Y1537938D1*
X2012971Y1542691D1*
X2022478D1*
X1989095Y1523568D2*
X2046465Y1461445D1*
X1953353Y1523568D2*
X1943736Y1528432D1*
X1929366Y1542691D1*
Y1442322D1*
X1879364D2*
X1831500Y1542691D1*
X1898487D1*
M02*
