%TF.GenerationSoftware,Novarm,DipTrace,3.1.0.1*%
%TF.CreationDate,2017-07-09T15:58:04+02:00*%
%FSLAX26Y26*%
%MOIN*%
%TF.FileFunction,Copper,L2,Bot*%
%TF.Part,Single*%
%AMOUTLINE6*5,1,4,0,0,0.108572,-135.0*%
%TA.AperFunction,Conductor*%
%ADD14C,0.011*%
%ADD15C,0.015*%
%ADD16C,0.02*%
%ADD17C,0.085*%
%TA.AperFunction,CopperBalancing*%
%ADD19C,0.025*%
%TA.AperFunction,ComponentPad*%
%ADD35R,0.06378X0.06378*%
%ADD36C,0.06378*%
%ADD37R,0.098425X0.098425*%
%ADD38C,0.098425*%
%ADD39R,0.059055X0.059055*%
%ADD40C,0.059055*%
%ADD41R,0.066929X0.066929*%
%ADD42C,0.066929*%
%ADD43C,0.076772*%
%ADD44R,0.076772X0.076772*%
%TA.AperFunction,ViaPad*%
%ADD57C,0.04*%
%TA.AperFunction,ComponentPad*%
%ADD131OUTLINE6*%
G75*
G01*
%LPD*%
X3319000Y3358118D2*
D14*
X3231185D1*
Y3518587D1*
X3256205Y3543606D1*
X3669000Y3383618D2*
X3649906Y3402712D1*
Y3543606D1*
X3585193Y3608319D1*
X3157469D1*
X3136469Y3587319D1*
Y3341823D1*
X3031500Y2031500D2*
D16*
X3188996D1*
X3219000Y2061504D1*
Y2219000D1*
X2531500Y2519000D2*
Y2369000D1*
X1331815Y2446504D2*
X1112587Y2227276D1*
Y1994000D1*
X3294000Y2900413D2*
X3334000D1*
X3346500Y2912913D1*
X3494000D1*
X3219000Y2219000D2*
Y2825413D1*
X3294000Y2900413D1*
X2531500Y2369000D2*
Y1969000D1*
X1112587Y1994000D2*
X1024733Y1906146D1*
X832504D1*
X2131500Y2369000D2*
D14*
X2078890Y2421610D1*
Y3223315D1*
X2057890Y3244315D1*
X1878567D1*
X1771953Y3350929D1*
Y3543606D1*
X1931500Y2641622D2*
Y2969000D1*
X2008803Y3200500D2*
X1963000D1*
X1731500Y2969000D1*
X1418685Y1969000D2*
X1320654Y2067031D1*
Y2270654D1*
X1291933Y1419000D2*
D15*
Y1252287D1*
X1326933Y1217287D1*
X1581500D1*
Y1119000D1*
X1694000Y1006500D1*
X656500Y2221500D2*
D16*
Y2526024D1*
X844252Y2713776D1*
X823252Y2734776D1*
Y2979650D1*
X2959370Y3281500D2*
Y3612819D1*
X844252Y2713776D2*
X1150318D1*
X1188681Y2675413D1*
X1281500D1*
X1894000Y1614807D2*
D15*
Y1306500D1*
X3138476Y2854933D2*
D14*
Y2488390D1*
Y2408162D1*
X3164028Y2382610D1*
Y2173972D1*
X3143028Y2152972D1*
X2852972D1*
X2731500Y2031500D1*
X872504Y1419000D2*
D15*
Y1252287D1*
X907504Y1217287D1*
X1169000D1*
Y1119000D1*
X1281500Y1006500D1*
X1469000Y1614807D2*
Y1296067D1*
X623370Y1614807D2*
Y1306500D1*
X3581500Y3183035D2*
D14*
X3446500D1*
X744000Y1217287D2*
D15*
Y1119000D1*
X856500Y1006500D1*
X1169000Y2100413D2*
D14*
Y1967346D1*
X1219000Y1917346D1*
X1167800Y1866146D1*
X792504D1*
X2978370Y3167000D2*
X3099434D1*
X3171969Y3239535D1*
X856500Y2544000D2*
D16*
X964000D1*
X994000Y2574000D1*
Y2638276D1*
X3344000Y2031500D2*
D14*
Y2117374D1*
X3364028Y2137402D1*
Y2408418D1*
X3444000Y2488390D1*
X3394000Y2538390D1*
Y2871874D1*
X3969000Y2019000D2*
X3736894Y2251106D1*
Y2540953D1*
X3666685Y2611162D1*
Y2877587D1*
X1048370Y1614807D2*
D15*
Y1306500D1*
X944000Y2638276D2*
D14*
Y2653776D1*
X964000Y2673776D1*
X1129500D1*
X2131500Y2883154D2*
Y2969000D1*
X2731500Y1161421D2*
D17*
Y854275D1*
X2665654Y788429D1*
Y661717D1*
X3031500Y1287406D2*
X2862504Y1118409D1*
Y661717D1*
X3031500Y1035437D2*
X3059354Y1007583D1*
Y661717D1*
X3344000Y1161421D2*
Y876224D1*
X3256205Y788429D1*
Y661717D1*
X3644000Y1287406D2*
X3464000Y1107406D1*
Y672661D1*
X3453055Y661717D1*
X3644000Y1035437D2*
X3649906Y1029531D1*
Y661717D1*
X3969000Y1148921D2*
X3846756Y1026677D1*
Y661717D1*
X4269000Y1274906D2*
X4089000Y1094906D1*
Y925638D1*
X4043606Y880244D1*
Y661717D1*
X4269000Y1022937D2*
X4240457Y994394D1*
Y661717D1*
X4269000Y3089079D2*
X4240457Y3117622D1*
Y3543606D1*
X3969000Y2963094D2*
X3846756Y3085339D1*
Y3543606D1*
X3969000Y3215063D2*
Y3330949D1*
X4043606Y3405555D1*
Y3543606D1*
X1287535Y3104000D2*
D14*
Y3294000D1*
X1324295D1*
Y3273000D1*
X1378252Y3326957D1*
Y3543606D1*
X1324295Y3273000D2*
X1353295Y3244000D1*
X1550776D1*
X1181402Y3344673D2*
Y3543606D1*
X1269000Y2083154D2*
Y2285154D1*
X1290000Y2306154D1*
X1668654D1*
X1731500Y2369000D1*
X1474185Y2083154D2*
X1560889Y2169858D1*
X1632358D1*
X1831500Y2369000D1*
X1546000Y2083154D2*
X1669000D1*
X1910500D1*
X1931500Y2104154D1*
Y2369000D1*
X1948654Y2031500D2*
X2031500Y2114346D1*
Y2369000D1*
X2819000Y2219000D2*
X2878890Y2278890D1*
Y3181500D1*
X2899890Y3202500D1*
X3038354D1*
X3059354Y3223500D1*
Y3543606D1*
X2719000Y2219000D2*
X2778890Y2278890D1*
Y2402539D1*
X2806587Y2430236D1*
Y2823020D1*
X2778890Y2850717D1*
Y3459992D1*
X2862504Y3543606D1*
X1219000Y2084374D2*
D16*
Y1977346D1*
X1323433Y1872913D1*
X1510185D1*
X1531185Y1893913D1*
X1552185Y1872913D1*
X1628996D1*
X1668996Y1912913D1*
Y1964571D1*
X1818685D1*
X469866Y2544000D2*
Y2714000D1*
X499866Y2744000D1*
X649591D1*
X1575102Y3543606D2*
X1644315Y3474394D1*
Y3067913D1*
X1614315Y3037913D1*
X1381500D1*
X3453055Y3543606D2*
Y3404673D1*
X3406500Y3358118D1*
X1531185Y1893913D2*
Y1964571D1*
X2731500Y2369000D2*
Y2458456D1*
X2750087Y2477043D1*
Y2519000D1*
X1668996Y1912913D2*
X1698992D1*
X1718996Y1932917D1*
X2919000Y2219000D2*
X2968528Y2268528D1*
X3069472D1*
X3119000Y2219000D1*
X3406500Y3358118D2*
Y3152500D1*
X3534000Y3025000D1*
Y2856181D1*
X3631185Y2758996D1*
Y2682173D1*
X649591Y2744000D2*
Y2989650D1*
X679591Y3019650D1*
X1220422D1*
X1238685Y3037913D1*
X1262421D1*
X1241421Y3058913D1*
Y3104000D1*
X1201421Y3144000D1*
X3406500Y3152500D2*
X3385500Y3131500D1*
X3232969D1*
X3211969Y3152501D1*
X3160972Y3101504D1*
X2968366D1*
X2938370Y3131500D1*
X1201421Y3144000D2*
X984551Y3360870D1*
Y3543606D1*
X1220422Y3019650D2*
X1231185Y3008887D1*
Y2731504D1*
X1381500Y3037913D2*
X1262421D1*
X3631185Y2682173D2*
X3451398D1*
Y2612622D1*
X3211969Y3152501D2*
Y3276312D1*
X3181815Y3306465D1*
X1531185Y1964571D2*
X1434185Y2061571D1*
Y2139043D1*
X1521500Y2226358D1*
X2750087Y2519000D2*
Y2630059D1*
X2531500Y2848646D1*
Y2969000D1*
D57*
X1270614Y3627819D3*
X3319000Y3358118D3*
X3231185D3*
X3136469Y3341823D3*
X3669000Y3383618D3*
X2531500Y1969000D3*
X832504Y1906146D3*
X2531500Y2519000D3*
X1331815Y2446504D3*
X3494000Y2912913D3*
X3294000Y2900413D3*
X1112587Y1994000D3*
X1878567Y3244315D3*
X1931500Y2641622D3*
X2008803Y3200500D3*
X1320654Y2270654D3*
X1418685Y1969000D3*
X1291933Y1419000D3*
X1581500Y1217287D3*
X2959370Y3612819D3*
Y3281500D3*
X656500Y2221500D3*
X1281500Y2675413D3*
X823252Y2979650D3*
X1894000Y1306500D3*
Y1614807D3*
X3138476Y2488390D3*
Y2854933D3*
X872504Y1419000D3*
X1169000Y1217287D3*
X1469000Y1296067D3*
Y1614807D3*
X623370Y1306500D3*
Y1614807D3*
X3446500Y3183035D3*
X3581500D3*
X744000Y1217287D3*
X792504Y1866146D3*
X1219000Y1917346D3*
X1169000Y2100413D3*
X3171969Y3239535D3*
X2978370Y3167000D3*
X994000Y2638276D3*
X856500Y2544000D3*
X3444000Y2488390D3*
X3394000Y2871874D3*
X3666685Y2877587D3*
X3736894Y2540953D3*
X1048370Y1306500D3*
Y1614807D3*
X1129500Y2673776D3*
X944000Y2638276D3*
X2131500Y2883154D3*
X1287535Y3104000D3*
X1550776Y3244000D3*
X1181402Y3344673D3*
X1269000Y2083154D3*
X1474185D3*
X1546000D3*
X1669000D3*
X1948654Y2031500D3*
X469866Y2544000D3*
X1219000Y2084374D3*
X1718996Y1932917D3*
X1818685Y1964571D3*
X3631185Y2682173D3*
X2938370Y3131500D3*
X1231185Y2731504D3*
X3181815Y3306465D3*
X1521500Y2226358D3*
X2750087Y2519000D3*
X1531185Y1964571D3*
X3406500Y3358118D3*
X3451398Y2612622D3*
X1201421Y3144000D3*
X649591Y2744000D3*
X1381500Y3037913D3*
X496518Y3694131D2*
D19*
X3716107D1*
X496518Y3669262D2*
X1247024D1*
X1294188D2*
X3715856D1*
X496518Y3644394D2*
X1224668D1*
X1316543D2*
X2922743D1*
X2995995D2*
X3715569D1*
X496518Y3619525D2*
X1222371D1*
X1318876D2*
X2910866D1*
X3007873D2*
X3120932D1*
X3621743D2*
X3715317D1*
X496518Y3594656D2*
X512654D1*
X669049D2*
X729287D1*
X846102D2*
X1103200D1*
X1305706D2*
X1319833D1*
X1436648D2*
X1693746D1*
X1850177D2*
X1910379D1*
X2027230D2*
X2107239D1*
X2224054D2*
X2587441D1*
X2743873D2*
X2804074D1*
X496518Y3569787D2*
X512654D1*
X669049D2*
X714143D1*
X861245D2*
X1103200D1*
X1259631D2*
X1304725D1*
X1451791D2*
X1693746D1*
X1850177D2*
X1895271D1*
X2042337D2*
X2092096D1*
X2239198D2*
X2587441D1*
X2743873D2*
X2788967D1*
X3334419D2*
X3575979D1*
X496518Y3544919D2*
X512654D1*
X669049D2*
X709514D1*
X865910D2*
X1103200D1*
X1259631D2*
X1300060D1*
X1456456D2*
X1693746D1*
X1850177D2*
X1890606D1*
X2047002D2*
X2087467D1*
X2243863D2*
X2587441D1*
X2743873D2*
X2784302D1*
X3334419D2*
X3571709D1*
X496518Y3520050D2*
X512654D1*
X669049D2*
X713246D1*
X862142D2*
X1103200D1*
X1259631D2*
X1303792D1*
X1452724D2*
X1693746D1*
X1850177D2*
X1894338D1*
X2043270D2*
X2091199D1*
X2240095D2*
X2587441D1*
X2743873D2*
X2788034D1*
X3334419D2*
X3575441D1*
X496518Y3495181D2*
X512654D1*
X669049D2*
X726990D1*
X848398D2*
X1103200D1*
X1259631D2*
X1317536D1*
X1438944D2*
X1693746D1*
X1850177D2*
X1908118D1*
X2029490D2*
X2104943D1*
X2226351D2*
X2587441D1*
X2743873D2*
X2766324D1*
X3334419D2*
X3589220D1*
X496518Y3470312D2*
X512654D1*
X669049D2*
X766211D1*
X809177D2*
X1103200D1*
X1259631D2*
X1343767D1*
X1412749D2*
X1693746D1*
X1850177D2*
X1947303D1*
X1990305D2*
X2144164D1*
X2187130D2*
X2587441D1*
X3334419D2*
X3615416D1*
X3684397D2*
X3713738D1*
X496518Y3445444D2*
X1146907D1*
X1215888D2*
X1343767D1*
X1412749D2*
X1737453D1*
X1806470D2*
X2744399D1*
X3170966D2*
X3196683D1*
X3265701D2*
X3615416D1*
X3684397D2*
X3713487D1*
X496518Y3420575D2*
X1146907D1*
X1215888D2*
X1343767D1*
X1412749D2*
X1737453D1*
X1806470D2*
X2744399D1*
X3170966D2*
X3196683D1*
X3265701D2*
X3615416D1*
X3699720D2*
X3713236D1*
X496518Y3395706D2*
X1146907D1*
X1215888D2*
X1343767D1*
X1412749D2*
X1737453D1*
X1806470D2*
X2744399D1*
X3170966D2*
X3196683D1*
X3265701D2*
X3289121D1*
X3348880D2*
X3616169D1*
X496518Y3370837D2*
X1140448D1*
X1222347D2*
X1343767D1*
X1412749D2*
X1737453D1*
X1806470D2*
X2744399D1*
X3366212D2*
X3621803D1*
X496518Y3345969D2*
X1132410D1*
X1230385D2*
X1343767D1*
X1412749D2*
X1737848D1*
X1824663D2*
X2744399D1*
X3366392D2*
X3639207D1*
X3698787D2*
X3712447D1*
X496518Y3321100D2*
X1138833D1*
X1223998D2*
X1268016D1*
X1412211D2*
X1754031D1*
X1849531D2*
X2744399D1*
X3180583D2*
X3200559D1*
X3261825D2*
X3288367D1*
X3349634D2*
X3712195D1*
X496518Y3296231D2*
X1253124D1*
X1395273D2*
X1778899D1*
X1874399D2*
X2744399D1*
X3093851D2*
X3124807D1*
X3148108D2*
X3711908D1*
X496518Y3271362D2*
X1253052D1*
X1590878D2*
X1803767D1*
X2077503D2*
X2744399D1*
X3093851D2*
X3135572D1*
X3208358D2*
X3711657D1*
X496518Y3246493D2*
X1253052D1*
X1599705D2*
X1828634D1*
X2103484D2*
X2744399D1*
X3093851D2*
X3123479D1*
X3220451D2*
X3711406D1*
X496518Y3221625D2*
X1253052D1*
X1594036D2*
X1835488D1*
X2113388D2*
X2744399D1*
X3217365D2*
X3418053D1*
X3474941D2*
X3553049D1*
X3609938D2*
X3711119D1*
X496518Y3196756D2*
X1253052D1*
X1322034D2*
X1911491D1*
X2113388D2*
X2744399D1*
X3192712D2*
X3399572D1*
X3628418D2*
X3710868D1*
X496518Y3171887D2*
X1253052D1*
X1322034D2*
X1886623D1*
X2113388D2*
X2744399D1*
X3152091D2*
X3398855D1*
X3629136D2*
X3710617D1*
X496518Y3147018D2*
X1253052D1*
X1322034D2*
X1861756D1*
X2113388D2*
X2744399D1*
X2913390D2*
X2933867D1*
X3127224D2*
X3414572D1*
X3478422D2*
X3549604D1*
X3613418D2*
X3710329D1*
X496518Y3122150D2*
X1242215D1*
X1332835D2*
X1836888D1*
X2113388D2*
X2744399D1*
X2913390D2*
X2963580D1*
X2993160D2*
X3710078D1*
X496518Y3097281D2*
X1239021D1*
X1336064D2*
X1812020D1*
X2113388D2*
X2744399D1*
X2913390D2*
X3709827D1*
X496518Y3072412D2*
X1250899D1*
X1324151D2*
X1787152D1*
X2113388D2*
X2744399D1*
X2913390D2*
X3709576D1*
X496518Y3047543D2*
X1762285D1*
X2113388D2*
X2744399D1*
X2913390D2*
X3709289D1*
X496518Y3022675D2*
X803100D1*
X843374D2*
X1370609D1*
X1492376D2*
X1506000D1*
X1557003D2*
X1606009D1*
X1656977D2*
X1706018D1*
X2156987D2*
X2206028D1*
X2256996D2*
X2306002D1*
X2356969D2*
X2406011D1*
X2456979D2*
X2606030D1*
X2656997D2*
X2706003D1*
X2956989D2*
X3709038D1*
X496518Y2997806D2*
X777946D1*
X868565D2*
X1370609D1*
X2484789D2*
X2578219D1*
X2984799D2*
X3708786D1*
X496518Y2972937D2*
X774752D1*
X871759D2*
X1370609D1*
X2492253D2*
X2570755D1*
X2992263D2*
X3708499D1*
X496518Y2948068D2*
X784261D1*
X862250D2*
X1370609D1*
X2488521D2*
X2574487D1*
X2988495D2*
X3334191D1*
X3526937D2*
X3708248D1*
X496518Y2923199D2*
X784261D1*
X862250D2*
X1370609D1*
X1570209D2*
X1592768D1*
X1670218D2*
X1692777D1*
X1770227D2*
X1792786D1*
X1870200D2*
X1892795D1*
X1970210D2*
X1992769D1*
X2170228D2*
X2192787D1*
X2270202D2*
X2292796D1*
X2370211D2*
X2392770D1*
X2470220D2*
X2592788D1*
X2670203D2*
X2692797D1*
X2970230D2*
X3250976D1*
X3541865D2*
X3655140D1*
X3678225D2*
X3707997D1*
X496518Y2898331D2*
X784261D1*
X862250D2*
X1896994D1*
X1966011D2*
X2044406D1*
X2177943D2*
X2744399D1*
X2913390D2*
X3119281D1*
X3157689D2*
X3237806D1*
X3540645D2*
X3622557D1*
X496518Y2873462D2*
X784261D1*
X862250D2*
X1896994D1*
X1966011D2*
X2044406D1*
X2179486D2*
X2744399D1*
X2913390D2*
X3093337D1*
X3183633D2*
X3212939D1*
X3442968D2*
X3466891D1*
X3521124D2*
X3617856D1*
X496518Y2848593D2*
X784261D1*
X862250D2*
X1896994D1*
X1966011D2*
X2044406D1*
X2165097D2*
X2744471D1*
X2913390D2*
X3089928D1*
X3436761D2*
X3627832D1*
X496518Y2823724D2*
X784261D1*
X862250D2*
X1896994D1*
X1966011D2*
X2044406D1*
X2113388D2*
X2758143D1*
X2913390D2*
X3101518D1*
X3428507D2*
X3632174D1*
X496518Y2798856D2*
X784261D1*
X862250D2*
X1896994D1*
X1966011D2*
X2044406D1*
X2113388D2*
X2772102D1*
X2913390D2*
X3103958D1*
X3428507D2*
X3632174D1*
X496518Y2773987D2*
X784261D1*
X862250D2*
X1896994D1*
X1966011D2*
X2044406D1*
X2113388D2*
X2772102D1*
X2913390D2*
X3103958D1*
X3428507D2*
X3632174D1*
X496518Y2749118D2*
X784261D1*
X1161954D2*
X1896994D1*
X1966011D2*
X2044406D1*
X2113388D2*
X2772102D1*
X2913390D2*
X3103958D1*
X3428507D2*
X3632174D1*
X496518Y2724249D2*
X785804D1*
X1193963D2*
X1896994D1*
X1966011D2*
X2044406D1*
X2113388D2*
X2772102D1*
X2913390D2*
X3103958D1*
X3428507D2*
X3632174D1*
X496518Y2699381D2*
X775721D1*
X1323864D2*
X1896994D1*
X1966011D2*
X2044406D1*
X2113388D2*
X2772102D1*
X2913390D2*
X3103958D1*
X3428507D2*
X3632174D1*
X496518Y2674512D2*
X750853D1*
X859092D2*
X912368D1*
X1330502D2*
X1896133D1*
X1966872D2*
X2044406D1*
X2113388D2*
X2772102D1*
X2913390D2*
X3103958D1*
X3428507D2*
X3632174D1*
X496518Y2649643D2*
X725985D1*
X834224D2*
X896399D1*
X1322715D2*
X1883214D1*
X1979791D2*
X2044406D1*
X2113388D2*
X2772102D1*
X2913390D2*
X3103958D1*
X3428507D2*
X3632174D1*
X496518Y2624774D2*
X701117D1*
X809356D2*
X897009D1*
X1040989D2*
X1885654D1*
X1977351D2*
X2044406D1*
X2113388D2*
X2772102D1*
X2913390D2*
X3103958D1*
X3428507D2*
X3632174D1*
X496518Y2599906D2*
X676250D1*
X784489D2*
X915238D1*
X1032987D2*
X1908441D1*
X1954528D2*
X2044406D1*
X2113388D2*
X2772102D1*
X2913390D2*
X3103958D1*
X3428507D2*
X3634219D1*
X496518Y2575037D2*
X651382D1*
X759621D2*
X819392D1*
X1032987D2*
X2044406D1*
X2113388D2*
X2772102D1*
X2913390D2*
X3103958D1*
X3428507D2*
X3655068D1*
X496518Y2550168D2*
X626622D1*
X734753D2*
X807909D1*
X1024159D2*
X2044406D1*
X2113388D2*
X2494501D1*
X2568507D2*
X2772102D1*
X2913390D2*
X3103958D1*
X3429978D2*
X3679936D1*
X496518Y2525299D2*
X617507D1*
X709885D2*
X811425D1*
X999435D2*
X2044406D1*
X2113388D2*
X2482911D1*
X2580061D2*
X2772102D1*
X2913390D2*
X3103958D1*
X3474798D2*
X3690593D1*
X3783186D2*
X4020189D1*
X496518Y2500430D2*
X617507D1*
X695496D2*
X837764D1*
X875240D2*
X2044406D1*
X2113388D2*
X2486356D1*
X2576617D2*
X2772102D1*
X2913390D2*
X3091076D1*
X3491412D2*
X3702399D1*
X3771381D2*
X4317382D1*
X496518Y2475562D2*
X617507D1*
X695496D2*
X1293027D1*
X1370621D2*
X2044406D1*
X2113388D2*
X2492492D1*
X2570516D2*
X2772102D1*
X2913390D2*
X3091291D1*
X3491197D2*
X3702399D1*
X3771381D2*
X4318100D1*
X496518Y2450693D2*
X617507D1*
X695496D2*
X1281867D1*
X1380633D2*
X2044406D1*
X2113388D2*
X2492492D1*
X2570516D2*
X2772102D1*
X2913390D2*
X3103958D1*
X3473721D2*
X3702399D1*
X3771381D2*
X4318853D1*
X496518Y2425824D2*
X617507D1*
X695496D2*
X1256999D1*
X1492376D2*
X1515581D1*
X1547422D2*
X1615554D1*
X1647431D2*
X1715563D1*
X1747441D2*
X1815573D1*
X1847414D2*
X1915582D1*
X1947423D2*
X2015555D1*
X2147442D2*
X2215574D1*
X2247415D2*
X2315583D1*
X2347424D2*
X2415556D1*
X2447434D2*
X2492492D1*
X2570516D2*
X2615575D1*
X2647416D2*
X2754411D1*
X2947444D2*
X3103958D1*
X3429189D2*
X3702399D1*
X3771381D2*
X4319571D1*
X496518Y2400955D2*
X617507D1*
X695496D2*
X1232132D1*
X1343672D2*
X1370609D1*
X2682870D2*
X2744399D1*
X2982861D2*
X3104784D1*
X3404321D2*
X3702399D1*
X3771381D2*
X4320289D1*
X496518Y2376087D2*
X617507D1*
X695496D2*
X1207264D1*
X1315503D2*
X1370609D1*
X2691948D2*
X2744399D1*
X2991976D2*
X3122798D1*
X3398544D2*
X3702399D1*
X3771381D2*
X4321007D1*
X496518Y2351218D2*
X617507D1*
X695496D2*
X1182396D1*
X1290635D2*
X1370609D1*
X2689616D2*
X2744399D1*
X2989608D2*
X3129544D1*
X3398544D2*
X3702399D1*
X3771381D2*
X4321724D1*
X496518Y2326349D2*
X617507D1*
X695496D2*
X1157528D1*
X2073879D2*
X2089118D1*
X2173888D2*
X2189127D1*
X2273862D2*
X2289136D1*
X2373871D2*
X2389110D1*
X2473880D2*
X2489119D1*
X2573889D2*
X2589128D1*
X2673863D2*
X2744399D1*
X2973890D2*
X3129544D1*
X3398544D2*
X3702399D1*
X3771381D2*
X4322442D1*
X496518Y2301480D2*
X617507D1*
X695496D2*
X1132661D1*
X2065985D2*
X2492492D1*
X2570516D2*
X2744399D1*
X2913390D2*
X3129544D1*
X3398544D2*
X3702399D1*
X3771381D2*
X4323160D1*
X496518Y2276612D2*
X617507D1*
X695496D2*
X1107793D1*
X1216032D2*
X1234500D1*
X2065985D2*
X2492492D1*
X2570516D2*
X2728861D1*
X2913318D2*
X3129544D1*
X3398544D2*
X3702399D1*
X3771381D2*
X3936651D1*
X4001362D2*
X4201620D1*
X496518Y2251743D2*
X617507D1*
X695496D2*
X1082997D1*
X1191164D2*
X1234500D1*
X1365633D2*
X1666474D1*
X2065985D2*
X2492492D1*
X2570516D2*
X2660466D1*
X2899502D2*
X2971043D1*
X3066974D2*
X3129544D1*
X3666958D2*
X3702399D1*
X3784012D2*
X3910491D1*
X4027522D2*
X4201620D1*
X496518Y2226874D2*
X607819D1*
X705184D2*
X1073595D1*
X1166296D2*
X1234500D1*
X1355155D2*
X1641606D1*
X2065985D2*
X2492492D1*
X2570516D2*
X2660466D1*
X2876967D2*
X2961032D1*
X3076986D2*
X3129544D1*
X3676969D2*
X3713380D1*
X3808880D2*
X3902095D1*
X4035919D2*
X4201620D1*
X496518Y2202005D2*
X611802D1*
X701201D2*
X1073595D1*
X1151584D2*
X1234500D1*
X1355155D2*
X1616738D1*
X2065985D2*
X2492492D1*
X2570516D2*
X2660466D1*
X2874886D2*
X2963113D1*
X3074904D2*
X3129544D1*
X3674888D2*
X3738247D1*
X3833747D2*
X3903889D1*
X4034125D2*
X4201620D1*
X496518Y2177136D2*
X640078D1*
X672925D2*
X1073595D1*
X1151584D2*
X1234500D1*
X1355155D2*
X1520425D1*
X2065985D2*
X2492492D1*
X2570516D2*
X2660466D1*
X3258739D2*
X3279253D1*
X3458722D2*
X3479271D1*
X3558731D2*
X3579280D1*
X3658740D2*
X3763115D1*
X3858615D2*
X3916915D1*
X4021063D2*
X4201620D1*
X496518Y2152268D2*
X1073595D1*
X1151584D2*
X1234500D1*
X1355155D2*
X1495557D1*
X2065985D2*
X2492492D1*
X2570516D2*
X2804505D1*
X3257986D2*
X3329526D1*
X3398544D2*
X3787983D1*
X3883483D2*
X4327502D1*
X496518Y2127399D2*
X1073595D1*
X1209357D2*
X1234500D1*
X1355155D2*
X1457377D1*
X2065985D2*
X2492492D1*
X2570516D2*
X2779637D1*
X3164758D2*
X3179997D1*
X3257986D2*
X3311118D1*
X3396929D2*
X3812851D1*
X3908350D2*
X4328219D1*
X496518Y2102530D2*
X1073595D1*
X1355155D2*
X1429423D1*
X2063724D2*
X2492492D1*
X2570516D2*
X2754769D1*
X2850269D2*
X3179997D1*
X3257986D2*
X3309503D1*
X3378485D2*
X3837718D1*
X3933218D2*
X4328937D1*
X496518Y2077661D2*
X1073595D1*
X1357774D2*
X1425512D1*
X2042588D2*
X2492492D1*
X2570516D2*
X2664126D1*
X2825402D2*
X2983388D1*
X3079605D2*
X3179997D1*
X3257986D2*
X3276597D1*
X3411390D2*
X3595895D1*
X3692112D2*
X3862586D1*
X4026948D2*
X4238760D1*
X4299237D2*
X4329655D1*
X496518Y2052793D2*
X1073595D1*
X1203508D2*
X1231270D1*
X1382642D2*
X1436456D1*
X2017684D2*
X2492492D1*
X2570516D2*
X2664126D1*
X2800534D2*
X2967706D1*
X3256945D2*
X3276597D1*
X3411390D2*
X3580213D1*
X3707794D2*
X3887454D1*
X4036385D2*
X4211093D1*
X496518Y2027924D2*
X1073595D1*
X1203508D2*
X1312010D1*
X1407510D2*
X1899793D1*
X1997518D2*
X2492492D1*
X2570516D2*
X2664126D1*
X2798883D2*
X2964225D1*
X3239541D2*
X3276597D1*
X3411390D2*
X3576697D1*
X3711275D2*
X3901628D1*
X4036385D2*
X4202230D1*
X496518Y2003055D2*
X1064481D1*
X1203508D2*
X1336878D1*
X1452832D2*
X1909374D1*
X1987936D2*
X2492492D1*
X2570516D2*
X2664126D1*
X2798883D2*
X2970685D1*
X3214386D2*
X3276597D1*
X3411390D2*
X3583192D1*
X3704815D2*
X3901628D1*
X4036385D2*
X4203593D1*
X496518Y1978186D2*
X1042663D1*
X1205912D2*
X1361745D1*
X1466755D2*
X2483413D1*
X2579595D2*
X2664126D1*
X2798883D2*
X2992000D1*
X3070993D2*
X3276597D1*
X3411390D2*
X3604507D1*
X3683500D2*
X3901736D1*
X4036278D2*
X4216045D1*
X496518Y1953318D2*
X1017795D1*
X1250983D2*
X1372403D1*
X1464960D2*
X2485207D1*
X2577765D2*
X4333243D1*
X496518Y1928449D2*
X789213D1*
X1266664D2*
X1393431D1*
X1443932D2*
X2506236D1*
X2556773D2*
X4333961D1*
X496518Y1903580D2*
X762408D1*
X1265911D2*
X4334678D1*
X496518Y1878711D2*
X745219D1*
X1247395D2*
X4335432D1*
X496518Y1853843D2*
X745147D1*
X1203257D2*
X4336150D1*
X496518Y1828974D2*
X762085D1*
X822956D2*
X4336867D1*
X496518Y1804105D2*
X4337585D1*
X496518Y1779236D2*
X4338303D1*
X496518Y1754367D2*
X4339020D1*
X639193Y1729499D2*
X4339738D1*
X2566533Y1704630D2*
X4340456D1*
X1382297Y3027390D2*
X1489890D1*
Y3009986D1*
X1497179Y3016238D1*
X1504992Y3021026D1*
X1513457Y3024532D1*
X1522366Y3026671D1*
X1531500Y3027390D1*
X1540634Y3026671D1*
X1549543Y3024532D1*
X1558008Y3021026D1*
X1565821Y3016238D1*
X1572788Y3010288D1*
X1578738Y3003321D1*
X1581487Y2999149D1*
X1587100Y3006921D1*
X1593579Y3013400D1*
X1600991Y3018785D1*
X1609155Y3022945D1*
X1617869Y3025776D1*
X1626919Y3027210D1*
X1636081D1*
X1645131Y3025776D1*
X1653845Y3022945D1*
X1662009Y3018785D1*
X1669421Y3013400D1*
X1675900Y3006921D1*
X1681487Y2999149D1*
X1687100Y3006921D1*
X1693579Y3013400D1*
X1700991Y3018785D1*
X1709155Y3022945D1*
X1717869Y3025776D1*
X1726919Y3027210D1*
X1736081D1*
X1743357Y3026129D1*
X1929550Y3212305D1*
X1912308Y3212315D1*
X1908766Y3208956D1*
X1902863Y3204667D1*
X1896362Y3201355D1*
X1889422Y3199100D1*
X1882215Y3197958D1*
X1874919D1*
X1867712Y3199100D1*
X1860772Y3201355D1*
X1854271Y3204667D1*
X1848368Y3208956D1*
X1843208Y3214116D1*
X1838919Y3220019D1*
X1835607Y3226520D1*
X1833352Y3233460D1*
X1832210Y3240667D1*
X1832115Y3245526D1*
X1747620Y3330147D1*
X1744668Y3334209D1*
X1742389Y3338683D1*
X1740837Y3343459D1*
X1740051Y3348419D1*
X1739953Y3415234D1*
Y3467876D1*
X1696240Y3467894D1*
Y3619319D1*
X1847665D1*
Y3467894D1*
X1803923D1*
X1803953Y3364149D1*
X1877325Y3290812D1*
X1885841Y3290243D1*
X1892936Y3288539D1*
X1899678Y3285747D1*
X1905899Y3281934D1*
X1911447Y3277195D1*
X1912270Y3276305D1*
X2060401Y3276216D1*
X2065360Y3275431D1*
X2070136Y3273879D1*
X2074610Y3271600D1*
X2078672Y3268648D1*
X2101517Y3245942D1*
X2104779Y3242124D1*
X2107402Y3237843D1*
X2109324Y3233204D1*
X2110496Y3228321D1*
X2110890Y3223305D1*
Y3023620D1*
X2117869Y3025776D1*
X2126919Y3027210D1*
X2136081D1*
X2145131Y3025776D1*
X2153845Y3022945D1*
X2162009Y3018785D1*
X2169421Y3013400D1*
X2175900Y3006921D1*
X2181487Y2999149D1*
X2187100Y3006921D1*
X2193579Y3013400D1*
X2200991Y3018785D1*
X2209155Y3022945D1*
X2217869Y3025776D1*
X2226919Y3027210D1*
X2236081D1*
X2245131Y3025776D1*
X2253845Y3022945D1*
X2262009Y3018785D1*
X2269421Y3013400D1*
X2275900Y3006921D1*
X2281487Y2999149D1*
X2287100Y3006921D1*
X2293579Y3013400D1*
X2300991Y3018785D1*
X2309155Y3022945D1*
X2317869Y3025776D1*
X2326919Y3027210D1*
X2336081D1*
X2345131Y3025776D1*
X2353845Y3022945D1*
X2362009Y3018785D1*
X2369421Y3013400D1*
X2375900Y3006921D1*
X2381487Y2999149D1*
X2387100Y3006921D1*
X2393579Y3013400D1*
X2400991Y3018785D1*
X2409155Y3022945D1*
X2417869Y3025776D1*
X2426919Y3027210D1*
X2436081D1*
X2445131Y3025776D1*
X2453845Y3022945D1*
X2462009Y3018785D1*
X2469421Y3013400D1*
X2475900Y3006921D1*
X2481285Y2999509D1*
X2485445Y2991345D1*
X2488276Y2982631D1*
X2489710Y2973581D1*
Y2964419D1*
X2488276Y2955369D1*
X2485445Y2946655D1*
X2481285Y2938491D1*
X2475900Y2931079D1*
X2469421Y2924600D1*
X2462009Y2919215D1*
X2453845Y2915055D1*
X2445131Y2912224D1*
X2436081Y2910790D1*
X2426919D1*
X2417869Y2912224D1*
X2409155Y2915055D1*
X2400991Y2919215D1*
X2393579Y2924600D1*
X2387100Y2931079D1*
X2381513Y2938851D1*
X2375900Y2931079D1*
X2369421Y2924600D1*
X2362009Y2919215D1*
X2353845Y2915055D1*
X2345131Y2912224D1*
X2336081Y2910790D1*
X2326919D1*
X2317869Y2912224D1*
X2309155Y2915055D1*
X2300991Y2919215D1*
X2293579Y2924600D1*
X2287100Y2931079D1*
X2281513Y2938851D1*
X2275900Y2931079D1*
X2269421Y2924600D1*
X2262009Y2919215D1*
X2253845Y2915055D1*
X2245131Y2912224D1*
X2236081Y2910790D1*
X2226919D1*
X2217869Y2912224D1*
X2209155Y2915055D1*
X2200991Y2919215D1*
X2193579Y2924600D1*
X2187100Y2931079D1*
X2181513Y2938851D1*
X2175900Y2931079D1*
X2169421Y2924600D1*
X2163513Y2920219D1*
X2164380Y2916034D1*
X2169119Y2910486D1*
X2172932Y2904265D1*
X2175724Y2897523D1*
X2177428Y2890428D1*
X2178000Y2883154D1*
X2177428Y2875880D1*
X2175724Y2868785D1*
X2172932Y2862043D1*
X2169119Y2855822D1*
X2164380Y2850274D1*
X2158832Y2845535D1*
X2152611Y2841722D1*
X2145869Y2838930D1*
X2138774Y2837226D1*
X2131500Y2836654D1*
X2124226Y2837226D1*
X2117131Y2838930D1*
X2110895Y2841489D1*
X2110890Y2434832D1*
X2119609Y2426146D1*
X2126919Y2427210D1*
X2136081D1*
X2145131Y2425776D1*
X2153845Y2422945D1*
X2162009Y2418785D1*
X2169421Y2413400D1*
X2175900Y2406921D1*
X2181487Y2399149D1*
X2187100Y2406921D1*
X2193579Y2413400D1*
X2200991Y2418785D1*
X2209155Y2422945D1*
X2217869Y2425776D1*
X2226919Y2427210D1*
X2236081D1*
X2245131Y2425776D1*
X2253845Y2422945D1*
X2262009Y2418785D1*
X2269421Y2413400D1*
X2275900Y2406921D1*
X2281487Y2399149D1*
X2287100Y2406921D1*
X2293579Y2413400D1*
X2300991Y2418785D1*
X2309155Y2422945D1*
X2317869Y2425776D1*
X2326919Y2427210D1*
X2336081D1*
X2345131Y2425776D1*
X2353845Y2422945D1*
X2362009Y2418785D1*
X2369421Y2413400D1*
X2375900Y2406921D1*
X2381487Y2399149D1*
X2387100Y2406921D1*
X2393579Y2413400D1*
X2400991Y2418785D1*
X2409155Y2422945D1*
X2417869Y2425776D1*
X2426919Y2427210D1*
X2436081D1*
X2445131Y2425776D1*
X2453845Y2422945D1*
X2462009Y2418785D1*
X2469421Y2413400D1*
X2475900Y2406921D1*
X2481487Y2399149D1*
X2487100Y2406921D1*
X2493579Y2413400D1*
X2494999Y2414520D1*
X2495000Y2490181D1*
X2491852Y2494704D1*
X2488540Y2501205D1*
X2486285Y2508145D1*
X2485143Y2515352D1*
Y2522648D1*
X2486285Y2529855D1*
X2488540Y2536795D1*
X2491852Y2543296D1*
X2496141Y2549199D1*
X2501301Y2554359D1*
X2507204Y2558648D1*
X2513705Y2561960D1*
X2520645Y2564215D1*
X2527852Y2565357D1*
X2535148D1*
X2542355Y2564215D1*
X2549295Y2561960D1*
X2555796Y2558648D1*
X2561699Y2554359D1*
X2566859Y2549199D1*
X2571148Y2543296D1*
X2574460Y2536795D1*
X2576715Y2529855D1*
X2577857Y2522648D1*
Y2515352D1*
X2576715Y2508145D1*
X2574460Y2501205D1*
X2571148Y2494704D1*
X2567998Y2490246D1*
X2568000Y2414541D1*
X2572788Y2410288D1*
X2578738Y2403321D1*
X2581487Y2399149D1*
X2587100Y2406921D1*
X2593579Y2413400D1*
X2600991Y2418785D1*
X2609155Y2422945D1*
X2617869Y2425776D1*
X2626919Y2427210D1*
X2636081D1*
X2645131Y2425776D1*
X2653845Y2422945D1*
X2662009Y2418785D1*
X2669421Y2413400D1*
X2675900Y2406921D1*
X2681285Y2399509D1*
X2685445Y2391345D1*
X2688276Y2382631D1*
X2689710Y2373581D1*
Y2364419D1*
X2688276Y2355369D1*
X2685445Y2346655D1*
X2681285Y2338491D1*
X2675900Y2331079D1*
X2669421Y2324600D1*
X2662009Y2319215D1*
X2653845Y2315055D1*
X2645131Y2312224D1*
X2636081Y2310790D1*
X2626919D1*
X2617869Y2312224D1*
X2609155Y2315055D1*
X2600991Y2319215D1*
X2593579Y2324600D1*
X2587100Y2331079D1*
X2581513Y2338851D1*
X2575900Y2331079D1*
X2569421Y2324600D1*
X2568001Y2323480D1*
X2568000Y1997778D1*
X2571148Y1993296D1*
X2574460Y1986795D1*
X2576715Y1979855D1*
X2577857Y1972648D1*
Y1965352D1*
X2576715Y1958145D1*
X2574460Y1951205D1*
X2571148Y1944704D1*
X2566859Y1938801D1*
X2561699Y1933641D1*
X2555796Y1929352D1*
X2549295Y1926040D1*
X2542355Y1923785D1*
X2535148Y1922643D1*
X2527852D1*
X2520645Y1923785D1*
X2513705Y1926040D1*
X2507204Y1929352D1*
X2501301Y1933641D1*
X2496141Y1938801D1*
X2491852Y1944704D1*
X2488540Y1951205D1*
X2486285Y1958145D1*
X2485143Y1965352D1*
Y1972648D1*
X2486285Y1979855D1*
X2488540Y1986795D1*
X2491852Y1993296D1*
X2495002Y1997754D1*
X2495000Y2323428D1*
X2490212Y2327712D1*
X2484262Y2334679D1*
X2481513Y2338851D1*
X2475900Y2331079D1*
X2469421Y2324600D1*
X2462009Y2319215D1*
X2453845Y2315055D1*
X2445131Y2312224D1*
X2436081Y2310790D1*
X2426919D1*
X2417869Y2312224D1*
X2409155Y2315055D1*
X2400991Y2319215D1*
X2393579Y2324600D1*
X2387100Y2331079D1*
X2381513Y2338851D1*
X2375900Y2331079D1*
X2369421Y2324600D1*
X2362009Y2319215D1*
X2353845Y2315055D1*
X2345131Y2312224D1*
X2336081Y2310790D1*
X2326919D1*
X2317869Y2312224D1*
X2309155Y2315055D1*
X2300991Y2319215D1*
X2293579Y2324600D1*
X2287100Y2331079D1*
X2281513Y2338851D1*
X2275900Y2331079D1*
X2269421Y2324600D1*
X2262009Y2319215D1*
X2253845Y2315055D1*
X2245131Y2312224D1*
X2236081Y2310790D1*
X2226919D1*
X2217869Y2312224D1*
X2209155Y2315055D1*
X2200991Y2319215D1*
X2193579Y2324600D1*
X2187100Y2331079D1*
X2181513Y2338851D1*
X2175900Y2331079D1*
X2169421Y2324600D1*
X2162009Y2319215D1*
X2153845Y2315055D1*
X2145131Y2312224D1*
X2136081Y2310790D1*
X2126919D1*
X2117869Y2312224D1*
X2109155Y2315055D1*
X2100991Y2319215D1*
X2093579Y2324600D1*
X2087100Y2331079D1*
X2081513Y2338851D1*
X2075900Y2331079D1*
X2069421Y2324600D1*
X2063513Y2320219D1*
X2063401Y2111835D1*
X2062616Y2106876D1*
X2061064Y2102100D1*
X2058785Y2097626D1*
X2055833Y2093564D1*
X2008657Y2046248D1*
X1995133Y2032724D1*
X1995011Y2027852D1*
X1993869Y2020645D1*
X1991614Y2013705D1*
X1988302Y2007204D1*
X1984013Y2001301D1*
X1978853Y1996141D1*
X1972950Y1991852D1*
X1966449Y1988540D1*
X1959509Y1986285D1*
X1952302Y1985143D1*
X1945006D1*
X1937799Y1986285D1*
X1930859Y1988540D1*
X1924358Y1991852D1*
X1918455Y1996141D1*
X1913295Y2001301D1*
X1909006Y2007204D1*
X1905694Y2013705D1*
X1903439Y2020645D1*
X1902297Y2027852D1*
Y2035148D1*
X1903439Y2042355D1*
X1905694Y2049295D1*
X1906547Y2051147D1*
X1702766Y2051154D1*
X1696332Y2045535D1*
X1690111Y2041722D1*
X1683369Y2038930D1*
X1676274Y2037226D1*
X1669000Y2036654D1*
X1661726Y2037226D1*
X1654631Y2038930D1*
X1647889Y2041722D1*
X1641668Y2045535D1*
X1636120Y2050274D1*
X1635297Y2051164D1*
X1579756Y2051154D1*
X1573332Y2045535D1*
X1567111Y2041722D1*
X1560369Y2038930D1*
X1553274Y2037226D1*
X1546000Y2036654D1*
X1538726Y2037226D1*
X1531631Y2038930D1*
X1524889Y2041722D1*
X1518668Y2045535D1*
X1513120Y2050274D1*
X1510103Y2053638D1*
X1504384Y2047795D1*
X1498481Y2043506D1*
X1491980Y2040194D1*
X1485040Y2037939D1*
X1477833Y2036797D1*
X1470537D1*
X1463330Y2037939D1*
X1456390Y2040194D1*
X1449889Y2043506D1*
X1443986Y2047795D1*
X1438826Y2052955D1*
X1434537Y2058858D1*
X1431225Y2065359D1*
X1428970Y2072299D1*
X1427828Y2079506D1*
Y2086802D1*
X1428970Y2094009D1*
X1431225Y2100949D1*
X1434537Y2107450D1*
X1438826Y2113353D1*
X1443986Y2118513D1*
X1449889Y2122802D1*
X1456390Y2126114D1*
X1463330Y2128369D1*
X1470537Y2129511D1*
X1475396Y2129606D1*
X1540107Y2194191D1*
X1544169Y2197143D1*
X1548643Y2199422D1*
X1553419Y2200974D1*
X1558378Y2201759D1*
X1619129Y2201858D1*
X1727948Y2310703D1*
X1719643Y2311871D1*
X1689436Y2281821D1*
X1685374Y2278869D1*
X1680900Y2276590D1*
X1676124Y2275038D1*
X1671165Y2274253D1*
X1604350Y2274154D1*
X1367047D1*
X1367011Y2267006D1*
X1365869Y2259799D1*
X1363614Y2252859D1*
X1360302Y2246358D1*
X1356013Y2240455D1*
X1352644Y2236951D1*
X1352654Y2080288D1*
X1417450Y2015490D1*
X1422333Y2015357D1*
X1429540Y2014215D1*
X1436480Y2011960D1*
X1442981Y2008648D1*
X1448884Y2004359D1*
X1454044Y1999199D1*
X1458333Y1993296D1*
X1461645Y1986795D1*
X1463900Y1979855D1*
X1465042Y1972648D1*
Y1965352D1*
X1463900Y1958145D1*
X1461645Y1951205D1*
X1458333Y1944704D1*
X1454044Y1938801D1*
X1448884Y1933641D1*
X1442981Y1929352D1*
X1436480Y1926040D1*
X1429540Y1923785D1*
X1422333Y1922643D1*
X1415037D1*
X1407830Y1923785D1*
X1400890Y1926040D1*
X1394389Y1929352D1*
X1388486Y1933641D1*
X1383326Y1938801D1*
X1379037Y1944704D1*
X1375725Y1951205D1*
X1373470Y1958145D1*
X1372328Y1965352D1*
X1372233Y1970211D1*
X1298020Y2044411D1*
X1296332Y2045535D1*
X1290111Y2041722D1*
X1283369Y2038930D1*
X1276274Y2037226D1*
X1269000Y2036654D1*
X1261726Y2037226D1*
X1254631Y2038930D1*
X1247889Y2041722D1*
X1241668Y2045535D1*
X1236120Y2050274D1*
X1231381Y2055822D1*
X1227568Y2062043D1*
X1224776Y2068785D1*
X1223072Y2075880D1*
X1222500Y2083154D1*
X1223072Y2090428D1*
X1224776Y2097523D1*
X1227568Y2104265D1*
X1231381Y2110486D1*
X1236120Y2116034D1*
X1237010Y2116857D1*
X1237099Y2287665D1*
X1237884Y2292624D1*
X1239436Y2297400D1*
X1241715Y2301874D1*
X1244667Y2305936D1*
X1267373Y2328781D1*
X1271191Y2332043D1*
X1275472Y2334666D1*
X1280111Y2336588D1*
X1284994Y2337760D1*
X1290000Y2338154D1*
X1373110Y2338169D1*
Y2425115D1*
X1374172Y2427401D1*
X1489890Y2427390D1*
Y2409986D1*
X1497179Y2416238D1*
X1504992Y2421026D1*
X1513457Y2424532D1*
X1522366Y2426671D1*
X1531500Y2427390D1*
X1540634Y2426671D1*
X1549543Y2424532D1*
X1558008Y2421026D1*
X1565821Y2416238D1*
X1572788Y2410288D1*
X1578738Y2403321D1*
X1581487Y2399149D1*
X1587100Y2406921D1*
X1593579Y2413400D1*
X1600991Y2418785D1*
X1609155Y2422945D1*
X1617869Y2425776D1*
X1626919Y2427210D1*
X1636081D1*
X1645131Y2425776D1*
X1653845Y2422945D1*
X1662009Y2418785D1*
X1669421Y2413400D1*
X1675900Y2406921D1*
X1681487Y2399149D1*
X1687100Y2406921D1*
X1693579Y2413400D1*
X1700991Y2418785D1*
X1709155Y2422945D1*
X1717869Y2425776D1*
X1726919Y2427210D1*
X1736081D1*
X1745131Y2425776D1*
X1753845Y2422945D1*
X1762009Y2418785D1*
X1769421Y2413400D1*
X1775900Y2406921D1*
X1781487Y2399149D1*
X1787100Y2406921D1*
X1793579Y2413400D1*
X1800991Y2418785D1*
X1809155Y2422945D1*
X1817869Y2425776D1*
X1826919Y2427210D1*
X1836081D1*
X1845131Y2425776D1*
X1853845Y2422945D1*
X1862009Y2418785D1*
X1869421Y2413400D1*
X1875900Y2406921D1*
X1881487Y2399149D1*
X1887100Y2406921D1*
X1893579Y2413400D1*
X1900991Y2418785D1*
X1909155Y2422945D1*
X1917869Y2425776D1*
X1926919Y2427210D1*
X1936081D1*
X1945131Y2425776D1*
X1953845Y2422945D1*
X1962009Y2418785D1*
X1969421Y2413400D1*
X1975900Y2406921D1*
X1981487Y2399149D1*
X1987100Y2406921D1*
X1993579Y2413400D1*
X2000991Y2418785D1*
X2009155Y2422945D1*
X2017869Y2425776D1*
X2026919Y2427210D1*
X2036081D1*
X2045131Y2425776D1*
X2046906Y2425276D1*
X2046890Y2912685D1*
X2040634Y2911329D1*
X2031500Y2910610D1*
X2022366Y2911329D1*
X2013457Y2913468D1*
X2004992Y2916974D1*
X1997179Y2921762D1*
X1990212Y2927712D1*
X1984262Y2934679D1*
X1981513Y2938851D1*
X1975900Y2931079D1*
X1969421Y2924600D1*
X1963513Y2920219D1*
X1963500Y2675360D1*
X1966859Y2671821D1*
X1971148Y2665918D1*
X1974460Y2659417D1*
X1976715Y2652477D1*
X1977857Y2645270D1*
Y2637974D1*
X1976715Y2630767D1*
X1974460Y2623827D1*
X1971148Y2617326D1*
X1966859Y2611423D1*
X1961699Y2606263D1*
X1955796Y2601974D1*
X1949295Y2598662D1*
X1942355Y2596407D1*
X1935148Y2595265D1*
X1927852D1*
X1920645Y2596407D1*
X1913705Y2598662D1*
X1907204Y2601974D1*
X1901301Y2606263D1*
X1896141Y2611423D1*
X1891852Y2617326D1*
X1888540Y2623827D1*
X1886285Y2630767D1*
X1885143Y2637974D1*
Y2645270D1*
X1886285Y2652477D1*
X1888540Y2659417D1*
X1891852Y2665918D1*
X1896141Y2671821D1*
X1899510Y2675325D1*
X1899500Y2920191D1*
X1893579Y2924600D1*
X1887100Y2931079D1*
X1881513Y2938851D1*
X1875900Y2931079D1*
X1869421Y2924600D1*
X1862009Y2919215D1*
X1853845Y2915055D1*
X1845131Y2912224D1*
X1836081Y2910790D1*
X1826919D1*
X1817869Y2912224D1*
X1809155Y2915055D1*
X1800991Y2919215D1*
X1793579Y2924600D1*
X1787100Y2931079D1*
X1781513Y2938851D1*
X1775900Y2931079D1*
X1769421Y2924600D1*
X1762009Y2919215D1*
X1753845Y2915055D1*
X1745131Y2912224D1*
X1736081Y2910790D1*
X1726919D1*
X1717869Y2912224D1*
X1709155Y2915055D1*
X1700991Y2919215D1*
X1693579Y2924600D1*
X1687100Y2931079D1*
X1681513Y2938851D1*
X1675900Y2931079D1*
X1669421Y2924600D1*
X1662009Y2919215D1*
X1653845Y2915055D1*
X1645131Y2912224D1*
X1636081Y2910790D1*
X1626919D1*
X1617869Y2912224D1*
X1609155Y2915055D1*
X1600991Y2919215D1*
X1593579Y2924600D1*
X1587100Y2931079D1*
X1581513Y2938851D1*
X1575900Y2931079D1*
X1569421Y2924600D1*
X1562009Y2919215D1*
X1553845Y2915055D1*
X1545131Y2912224D1*
X1536081Y2910790D1*
X1526919D1*
X1517869Y2912224D1*
X1509155Y2915055D1*
X1500991Y2919215D1*
X1493579Y2924600D1*
X1489884Y2928067D1*
X1489890Y2910610D1*
X1373110D1*
Y3027390D1*
X1382297D1*
X2681487Y2938851D2*
X2678738Y2934679D1*
X2672788Y2927712D1*
X2665821Y2921762D1*
X2658008Y2916974D1*
X2649543Y2913468D1*
X2640634Y2911329D1*
X2631500Y2910610D1*
X2622366Y2911329D1*
X2613457Y2913468D1*
X2604992Y2916974D1*
X2597179Y2921762D1*
X2590212Y2927712D1*
X2584262Y2934679D1*
X2579474Y2942492D1*
X2575968Y2950957D1*
X2573829Y2959866D1*
X2573110Y2969000D1*
X2573829Y2978134D1*
X2575968Y2987043D1*
X2579474Y2995508D1*
X2584262Y3003321D1*
X2590212Y3010288D1*
X2597179Y3016238D1*
X2604992Y3021026D1*
X2613457Y3024532D1*
X2622366Y3026671D1*
X2631500Y3027390D1*
X2640634Y3026671D1*
X2649543Y3024532D1*
X2658008Y3021026D1*
X2665821Y3016238D1*
X2672788Y3010288D1*
X2678738Y3003321D1*
X2681487Y2999149D1*
X2687100Y3006921D1*
X2693579Y3013400D1*
X2700991Y3018785D1*
X2709155Y3022945D1*
X2717869Y3025776D1*
X2726919Y3027210D1*
X2736081D1*
X2745131Y3025776D1*
X2746906Y3025276D1*
X2746989Y3462503D1*
X2747774Y3467463D1*
X2749326Y3472238D1*
X2751605Y3476712D1*
X2754557Y3480775D1*
X2791355Y3517712D1*
X2788883Y3525932D1*
X2787723Y3531762D1*
X2787025Y3537666D1*
X2786791Y3543606D1*
X2787025Y3549547D1*
X2787723Y3555450D1*
X2788883Y3561281D1*
X2790497Y3567003D1*
X2792555Y3572580D1*
X2795044Y3577979D1*
X2797948Y3583166D1*
X2801251Y3588109D1*
X2804932Y3592778D1*
X2808967Y3597143D1*
X2813333Y3601179D1*
X2818001Y3604859D1*
X2822944Y3608162D1*
X2828131Y3611067D1*
X2833530Y3613556D1*
X2839107Y3615613D1*
X2844829Y3617227D1*
X2850660Y3618387D1*
X2856564Y3619086D1*
X2862504Y3619319D1*
X2868444Y3619086D1*
X2874348Y3618387D1*
X2880179Y3617227D1*
X2885900Y3615613D1*
X2891478Y3613556D1*
X2896877Y3611067D1*
X2902064Y3608162D1*
X2907007Y3604859D1*
X2915376Y3597758D1*
X2913442Y3605545D1*
X2912870Y3612819D1*
X2913442Y3620093D1*
X2915146Y3627188D1*
X2917938Y3633930D1*
X2921751Y3640151D1*
X2926490Y3645699D1*
X2932038Y3650438D1*
X2938259Y3654251D1*
X2945001Y3657043D1*
X2952096Y3658747D1*
X2959370Y3659319D1*
X2966644Y3658747D1*
X2973739Y3657043D1*
X2980481Y3654251D1*
X2986702Y3650438D1*
X2992250Y3645699D1*
X2996989Y3640151D1*
X3000802Y3633930D1*
X3003594Y3627188D1*
X3005298Y3620093D1*
X3005870Y3612819D1*
X3005298Y3605545D1*
X3003594Y3598450D1*
X3000614Y3591372D1*
X3005817Y3597143D1*
X3010183Y3601179D1*
X3014852Y3604859D1*
X3019795Y3608162D1*
X3024982Y3611067D1*
X3030380Y3613556D1*
X3035958Y3615613D1*
X3041680Y3617227D1*
X3047510Y3618387D1*
X3053414Y3619086D1*
X3059354Y3619319D1*
X3065295Y3619086D1*
X3071198Y3618387D1*
X3077029Y3617227D1*
X3082751Y3615613D1*
X3088328Y3613556D1*
X3093727Y3611067D1*
X3098914Y3608162D1*
X3107887Y3601682D1*
X3110580Y3606128D1*
X3113849Y3609953D1*
X3136687Y3632652D1*
X3140749Y3635604D1*
X3145223Y3637883D1*
X3149999Y3639435D1*
X3154958Y3640220D1*
X3221773Y3640319D1*
X3587704Y3640220D1*
X3592663Y3639435D1*
X3597439Y3637883D1*
X3601913Y3635604D1*
X3605975Y3632652D1*
X3624034Y3614732D1*
X3632231Y3617227D1*
X3638061Y3618387D1*
X3643965Y3619086D1*
X3649906Y3619319D1*
X3655846Y3619086D1*
X3661750Y3618387D1*
X3667580Y3617227D1*
X3673302Y3615613D1*
X3678879Y3613556D1*
X3684278Y3611067D1*
X3689465Y3608162D1*
X3694408Y3604859D1*
X3699077Y3601179D1*
X3703442Y3597143D1*
X3707478Y3592778D1*
X3711158Y3588109D1*
X3714461Y3583166D1*
X3717376Y3577958D1*
X3718867Y3718951D1*
X493993Y3706548D1*
X494000Y1731339D1*
X4343662Y1681667D1*
X4329933Y2154126D1*
X4204114Y2154114D1*
Y2283886D1*
X4326157D1*
X4319349Y2519274D1*
X3782109Y2530098D1*
X3779854Y2523158D1*
X3776542Y2516657D1*
X3772253Y2510754D1*
X3768884Y2507250D1*
X3768894Y2264394D1*
X3949344Y2083911D1*
X4009465Y2083804D1*
X4013572Y2083154D1*
X4017527Y2081869D1*
X4021232Y2079981D1*
X4024596Y2077537D1*
X4027537Y2074596D1*
X4029981Y2071232D1*
X4031869Y2067527D1*
X4033154Y2063572D1*
X4033804Y2059465D1*
X4033886Y1980614D1*
X4033560Y1976469D1*
X4032589Y1972425D1*
X4030998Y1968583D1*
X4028825Y1965038D1*
X4026124Y1961876D1*
X4022962Y1959175D1*
X4019417Y1957002D1*
X4015575Y1955411D1*
X4011531Y1954440D1*
X4007386Y1954114D1*
X3928535Y1954196D1*
X3924428Y1954846D1*
X3920473Y1956131D1*
X3916768Y1958019D1*
X3913404Y1960463D1*
X3910463Y1963404D1*
X3908019Y1966768D1*
X3906131Y1970473D1*
X3904846Y1974428D1*
X3904196Y1978535D1*
X3904114Y2038639D1*
X3712561Y2230324D1*
X3709610Y2234386D1*
X3707330Y2238860D1*
X3705778Y2243636D1*
X3704993Y2248595D1*
X3704894Y2315410D1*
Y2507211D1*
X3701535Y2510754D1*
X3697246Y2516657D1*
X3693934Y2523158D1*
X3691679Y2530098D1*
X3690537Y2537305D1*
X3690442Y2542164D1*
X3642352Y2590380D1*
X3639400Y2594442D1*
X3637121Y2598916D1*
X3635569Y2603692D1*
X3634784Y2608651D1*
X3634685Y2675466D1*
Y2843871D1*
X3631326Y2847388D1*
X3627037Y2853291D1*
X3623725Y2859792D1*
X3621470Y2866732D1*
X3620328Y2873939D1*
Y2881235D1*
X3621470Y2888442D1*
X3623725Y2895382D1*
X3627037Y2901883D1*
X3631326Y2907786D1*
X3636486Y2912946D1*
X3642389Y2917235D1*
X3648890Y2920547D1*
X3655830Y2922802D1*
X3663037Y2923944D1*
X3670333D1*
X3677540Y2922802D1*
X3684480Y2920547D1*
X3690981Y2917235D1*
X3696884Y2912946D1*
X3702044Y2907786D1*
X3706333Y2901883D1*
X3709645Y2895382D1*
X3710183Y2893923D1*
X3715291Y3379218D1*
X3714215Y3372763D1*
X3711960Y3365823D1*
X3708648Y3359322D1*
X3704359Y3353419D1*
X3699199Y3348259D1*
X3693296Y3343970D1*
X3686795Y3340658D1*
X3679855Y3338403D1*
X3672648Y3337261D1*
X3665352D1*
X3658145Y3338403D1*
X3651205Y3340658D1*
X3644704Y3343970D1*
X3638801Y3348259D1*
X3633641Y3353419D1*
X3629352Y3359322D1*
X3626040Y3365823D1*
X3623785Y3372763D1*
X3622643Y3379970D1*
X3622595Y3386026D1*
X3620341Y3390467D1*
X3618790Y3395242D1*
X3618004Y3400202D1*
X3617905Y3467017D1*
Y3475019D1*
X3610346Y3479051D1*
X3605403Y3482354D1*
X3600734Y3486034D1*
X3596369Y3490069D1*
X3592333Y3494435D1*
X3588653Y3499104D1*
X3585350Y3504047D1*
X3582445Y3509233D1*
X3579956Y3514632D1*
X3577899Y3520210D1*
X3576285Y3525932D1*
X3575125Y3531762D1*
X3574426Y3537666D1*
X3574193Y3543606D1*
X3574426Y3549547D1*
X3575125Y3555450D1*
X3576285Y3561281D1*
X3578807Y3569465D1*
X3571937Y3576319D1*
X3331886D1*
X3331917Y3467894D1*
X3263199D1*
X3263185Y3391880D1*
X3264888Y3390108D1*
X3285262Y3390118D1*
X3288801Y3393477D1*
X3294704Y3397766D1*
X3301205Y3401078D1*
X3308145Y3403333D1*
X3315352Y3404475D1*
X3322648D1*
X3329855Y3403333D1*
X3336795Y3401078D1*
X3343296Y3397766D1*
X3349199Y3393477D1*
X3354359Y3388317D1*
X3358648Y3382414D1*
X3361960Y3375913D1*
X3364215Y3368973D1*
X3365357Y3361766D1*
Y3354470D1*
X3364215Y3347263D1*
X3361960Y3340323D1*
X3358648Y3333822D1*
X3354359Y3327919D1*
X3349199Y3322759D1*
X3343296Y3318470D1*
X3336795Y3315158D1*
X3329855Y3312903D1*
X3322648Y3311761D1*
X3315352D1*
X3308145Y3312903D1*
X3301205Y3315158D1*
X3294704Y3318470D1*
X3288801Y3322759D1*
X3285297Y3326128D1*
X3264923Y3326118D1*
X3261384Y3322759D1*
X3255481Y3318470D1*
X3248980Y3315158D1*
X3242040Y3312903D1*
X3234833Y3311761D1*
X3227537D1*
X3220330Y3312903D1*
X3213390Y3315158D1*
X3206889Y3318470D1*
X3200986Y3322759D1*
X3195826Y3327919D1*
X3191537Y3333822D1*
X3188225Y3340323D1*
X3185970Y3347263D1*
X3184828Y3354470D1*
Y3361766D1*
X3185970Y3368973D1*
X3188225Y3375913D1*
X3191537Y3382414D1*
X3195826Y3388317D1*
X3199195Y3391821D1*
X3199185Y3467888D1*
X3180492Y3467894D1*
Y3576300D1*
X3170695Y3576319D1*
X3168469Y3568946D1*
Y3375566D1*
X3171828Y3372022D1*
X3176117Y3366119D1*
X3179429Y3359618D1*
X3181684Y3352678D1*
X3182826Y3345471D1*
Y3338175D1*
X3181684Y3330968D1*
X3179429Y3324028D1*
X3176117Y3317527D1*
X3171828Y3311624D1*
X3166668Y3306464D1*
X3160765Y3302175D1*
X3154264Y3298863D1*
X3147324Y3296608D1*
X3140117Y3295466D1*
X3132821D1*
X3125614Y3296608D1*
X3118674Y3298863D1*
X3112173Y3302175D1*
X3106270Y3306464D1*
X3101110Y3311624D1*
X3096821Y3317527D1*
X3093509Y3324028D1*
X3091351Y3330625D1*
X3091256Y3220990D1*
X3090470Y3216030D1*
X3088919Y3211254D1*
X3086639Y3206780D1*
X3083687Y3202718D1*
X3080130Y3199021D1*
X3096294Y3209115D1*
X3125499Y3238320D1*
X3125612Y3243183D1*
X3126754Y3250390D1*
X3129009Y3257330D1*
X3132321Y3263831D1*
X3136610Y3269734D1*
X3141770Y3274894D1*
X3147673Y3279183D1*
X3154174Y3282495D1*
X3161114Y3284750D1*
X3168321Y3285892D1*
X3175617D1*
X3182824Y3284750D1*
X3189764Y3282495D1*
X3196265Y3279183D1*
X3202168Y3274894D1*
X3207328Y3269734D1*
X3211617Y3263831D1*
X3214929Y3257330D1*
X3217184Y3250390D1*
X3218326Y3243183D1*
Y3235887D1*
X3217184Y3228680D1*
X3214929Y3221740D1*
X3211617Y3215239D1*
X3207328Y3209336D1*
X3202168Y3204176D1*
X3196265Y3199887D1*
X3189764Y3196575D1*
X3182824Y3194320D1*
X3175617Y3193178D1*
X3170758Y3193083D1*
X3120216Y3142667D1*
X3116154Y3139715D1*
X3111680Y3137436D1*
X3106904Y3135884D1*
X3101945Y3135099D1*
X3035130Y3135000D1*
X3012128D1*
X3005702Y3129381D1*
X2999481Y3125568D1*
X2992739Y3122776D1*
X2985644Y3121072D1*
X2978370Y3120500D1*
X2971096Y3121072D1*
X2964001Y3122776D1*
X2957259Y3125568D1*
X2951038Y3129381D1*
X2945490Y3134120D1*
X2940751Y3139668D1*
X2936938Y3145889D1*
X2934146Y3152631D1*
X2932442Y3159726D1*
X2931870Y3167000D1*
X2932007Y3170492D1*
X2913154Y3170500D1*
X2910890Y3163127D1*
Y3023645D1*
X2917869Y3025776D1*
X2926919Y3027210D1*
X2936081D1*
X2945131Y3025776D1*
X2953845Y3022945D1*
X2962009Y3018785D1*
X2969421Y3013400D1*
X2975900Y3006921D1*
X2981285Y2999509D1*
X2985445Y2991345D1*
X2988276Y2982631D1*
X2989710Y2973581D1*
Y2964419D1*
X2988276Y2955369D1*
X2985445Y2946655D1*
X2981285Y2938491D1*
X2975900Y2931079D1*
X2969421Y2924600D1*
X2962009Y2919215D1*
X2953845Y2915055D1*
X2945131Y2912224D1*
X2936081Y2910790D1*
X2926919D1*
X2917869Y2912224D1*
X2910886Y2914416D1*
X2910890Y2423662D1*
X2917869Y2425776D1*
X2926919Y2427210D1*
X2936081D1*
X2945131Y2425776D1*
X2953845Y2422945D1*
X2962009Y2418785D1*
X2969421Y2413400D1*
X2975900Y2406921D1*
X2981285Y2399509D1*
X2985445Y2391345D1*
X2988276Y2382631D1*
X2989710Y2373581D1*
Y2364419D1*
X2988276Y2355369D1*
X2985445Y2346655D1*
X2981285Y2338491D1*
X2975900Y2331079D1*
X2969421Y2324600D1*
X2962009Y2319215D1*
X2953845Y2315055D1*
X2945131Y2312224D1*
X2936081Y2310790D1*
X2926919D1*
X2917869Y2312224D1*
X2910886Y2314416D1*
X2910791Y2276379D1*
X2910006Y2271420D1*
X2908454Y2266644D1*
X2906175Y2262170D1*
X2903223Y2258108D1*
X2874139Y2228884D1*
X2874855Y2223396D1*
Y2214604D1*
X2873480Y2205921D1*
X2870763Y2197559D1*
X2866771Y2189726D1*
X2863465Y2184975D1*
X2974512Y2184972D1*
X2971229Y2189726D1*
X2967237Y2197559D1*
X2964520Y2205921D1*
X2963145Y2214604D1*
Y2223396D1*
X2964520Y2232079D1*
X2967237Y2240441D1*
X2971229Y2248274D1*
X2976396Y2255387D1*
X2982613Y2261604D1*
X2989726Y2266771D1*
X2997559Y2270763D1*
X3005921Y2273480D1*
X3014604Y2274855D1*
X3023396D1*
X3032079Y2273480D1*
X3040441Y2270763D1*
X3048274Y2266771D1*
X3055387Y2261604D1*
X3061604Y2255387D1*
X3066771Y2248274D1*
X3070763Y2240441D1*
X3073480Y2232079D1*
X3074855Y2223396D1*
Y2214604D1*
X3073480Y2205921D1*
X3070763Y2197559D1*
X3066771Y2189726D1*
X3063465Y2184975D1*
X3129747Y2184972D1*
X3132028Y2192345D1*
Y2369361D1*
X3114143Y2387380D1*
X3111192Y2391442D1*
X3108912Y2395916D1*
X3107360Y2400692D1*
X3106575Y2405651D1*
X3106476Y2454632D1*
X3100857Y2461058D1*
X3097044Y2467279D1*
X3094252Y2474021D1*
X3092548Y2481116D1*
X3091976Y2488390D1*
X3092548Y2495664D1*
X3094252Y2502759D1*
X3097044Y2509501D1*
X3100857Y2515722D1*
X3105596Y2521270D1*
X3106486Y2522093D1*
X3106476Y2821216D1*
X3103117Y2824734D1*
X3098828Y2830637D1*
X3095516Y2837138D1*
X3093261Y2844078D1*
X3092119Y2851285D1*
Y2858581D1*
X3093261Y2865788D1*
X3095516Y2872728D1*
X3098828Y2879229D1*
X3103117Y2885132D1*
X3108277Y2890292D1*
X3114180Y2894581D1*
X3120681Y2897893D1*
X3127621Y2900148D1*
X3134828Y2901290D1*
X3142124D1*
X3149331Y2900148D1*
X3156271Y2897893D1*
X3162772Y2894581D1*
X3168675Y2890292D1*
X3173835Y2885132D1*
X3178124Y2879229D1*
X3181436Y2872728D1*
X3183691Y2865788D1*
X3184833Y2858581D1*
Y2851285D1*
X3183691Y2844078D1*
X3181436Y2837138D1*
X3178124Y2830637D1*
X3173835Y2824734D1*
X3170466Y2821230D1*
X3170476Y2522107D1*
X3173835Y2518589D1*
X3178124Y2512686D1*
X3181436Y2506185D1*
X3182500Y2503777D1*
X3182612Y2828277D1*
X3183508Y2833934D1*
X3185278Y2839381D1*
X3187879Y2844484D1*
X3191245Y2849118D1*
X3225669Y2883701D1*
X3247821Y2905853D1*
X3248785Y2911268D1*
X3251040Y2918208D1*
X3254352Y2924709D1*
X3258641Y2930612D1*
X3263801Y2935772D1*
X3269704Y2940061D1*
X3276205Y2943373D1*
X3283145Y2945628D1*
X3290352Y2946770D1*
X3297648D1*
X3304855Y2945628D1*
X3311795Y2943373D1*
X3318296Y2940061D1*
X3320691Y2938722D1*
X3325046Y2942442D1*
X3329929Y2945435D1*
X3335221Y2947627D1*
X3340790Y2948964D1*
X3346500Y2949413D1*
X3465169D1*
X3469704Y2952561D1*
X3476205Y2955873D1*
X3483145Y2958128D1*
X3490352Y2959270D1*
X3497648D1*
X3504855Y2958128D1*
X3511795Y2955873D1*
X3518296Y2952561D1*
X3524199Y2948272D1*
X3529359Y2943112D1*
X3533648Y2937209D1*
X3536960Y2930708D1*
X3539215Y2923768D1*
X3540357Y2916561D1*
Y2909265D1*
X3539215Y2902058D1*
X3536960Y2895118D1*
X3533648Y2888617D1*
X3529359Y2882714D1*
X3524199Y2877554D1*
X3518296Y2873265D1*
X3511795Y2869953D1*
X3504855Y2867698D1*
X3497648Y2866556D1*
X3490352D1*
X3483145Y2867698D1*
X3476205Y2869953D1*
X3469704Y2873265D1*
X3465246Y2876415D1*
X3440281Y2876413D1*
X3440357Y2868226D1*
X3439215Y2861019D1*
X3436960Y2854079D1*
X3433648Y2847578D1*
X3429359Y2841675D1*
X3425990Y2838171D1*
X3426000Y2551679D1*
X3442788Y2534857D1*
X3447648Y2534747D1*
X3454855Y2533605D1*
X3461795Y2531350D1*
X3468296Y2528038D1*
X3474199Y2523749D1*
X3479359Y2518589D1*
X3483648Y2512686D1*
X3486960Y2506185D1*
X3489215Y2499245D1*
X3490357Y2492038D1*
Y2484742D1*
X3489215Y2477535D1*
X3486960Y2470595D1*
X3483648Y2464094D1*
X3479359Y2458191D1*
X3474199Y2453031D1*
X3468296Y2448742D1*
X3461795Y2445430D1*
X3454855Y2443175D1*
X3447648Y2442033D1*
X3442789Y2441938D1*
X3396012Y2395147D1*
X3396028Y2270084D1*
X3401687Y2272285D1*
X3410235Y2274338D1*
X3419000Y2275028D1*
X3427765Y2274338D1*
X3436313Y2272285D1*
X3444436Y2268921D1*
X3451932Y2264327D1*
X3458617Y2258617D1*
X3464327Y2251932D1*
X3469000Y2244264D1*
X3473673Y2251932D1*
X3479383Y2258617D1*
X3486068Y2264327D1*
X3493564Y2268921D1*
X3501687Y2272285D1*
X3510235Y2274338D1*
X3519000Y2275028D1*
X3527765Y2274338D1*
X3536313Y2272285D1*
X3544436Y2268921D1*
X3551932Y2264327D1*
X3558617Y2258617D1*
X3564327Y2251932D1*
X3569000Y2244264D1*
X3573673Y2251932D1*
X3579383Y2258617D1*
X3586068Y2264327D1*
X3593564Y2268921D1*
X3601687Y2272285D1*
X3610235Y2274338D1*
X3619000Y2275028D1*
X3627765Y2274338D1*
X3636313Y2272285D1*
X3644436Y2268921D1*
X3651932Y2264327D1*
X3658617Y2258617D1*
X3664327Y2251932D1*
X3668921Y2244436D1*
X3672285Y2236313D1*
X3674338Y2227765D1*
X3675028Y2219000D1*
X3674338Y2210235D1*
X3672285Y2201687D1*
X3668921Y2193564D1*
X3664327Y2186068D1*
X3658617Y2179383D1*
X3651932Y2173673D1*
X3644436Y2169079D1*
X3636313Y2165715D1*
X3627765Y2163662D1*
X3619000Y2162972D1*
X3610235Y2163662D1*
X3601687Y2165715D1*
X3593564Y2169079D1*
X3586068Y2173673D1*
X3579383Y2179383D1*
X3573673Y2186068D1*
X3569000Y2193736D1*
X3564327Y2186068D1*
X3558617Y2179383D1*
X3551932Y2173673D1*
X3544436Y2169079D1*
X3536313Y2165715D1*
X3527765Y2163662D1*
X3519000Y2162972D1*
X3510235Y2163662D1*
X3501687Y2165715D1*
X3493564Y2169079D1*
X3486068Y2173673D1*
X3479383Y2179383D1*
X3473673Y2186068D1*
X3469000Y2193736D1*
X3464327Y2186068D1*
X3458617Y2179383D1*
X3451932Y2173673D1*
X3444436Y2169079D1*
X3436313Y2165715D1*
X3427765Y2163662D1*
X3419000Y2162972D1*
X3410235Y2163662D1*
X3401687Y2165715D1*
X3396014Y2167950D1*
X3395929Y2134891D1*
X3395144Y2129932D1*
X3393592Y2125156D1*
X3391313Y2120682D1*
X3388361Y2116620D1*
X3376024Y2104143D1*
X3376000Y2096382D1*
X3408886Y2096386D1*
Y1966614D1*
X3279114D1*
Y2096386D1*
X3312020D1*
X3312099Y2119885D1*
X3312884Y2124844D1*
X3314436Y2129620D1*
X3316715Y2134094D1*
X3319667Y2138156D1*
X3332004Y2150633D1*
X3332028Y2164495D1*
X3323396Y2163145D1*
X3314604D1*
X3305921Y2164520D1*
X3297559Y2167237D1*
X3289726Y2171229D1*
X3282613Y2176396D1*
X3276396Y2182613D1*
X3271229Y2189726D1*
X3268921Y2193564D1*
X3264327Y2186068D1*
X3258617Y2179383D1*
X3255501Y2176501D1*
X3255388Y2058640D1*
X3254492Y2052983D1*
X3252722Y2047536D1*
X3250121Y2042433D1*
X3246755Y2037799D1*
X3214805Y2005691D1*
X3210450Y2001971D1*
X3205567Y1998978D1*
X3200275Y1996786D1*
X3194706Y1995449D1*
X3188985Y1995000D1*
X3085111D1*
X3080840Y1989360D1*
X3073640Y1982160D1*
X3065403Y1976176D1*
X3056331Y1971553D1*
X3046647Y1968407D1*
X3036591Y1966814D1*
X3026409D1*
X3016353Y1968407D1*
X3006669Y1971553D1*
X2997597Y1976176D1*
X2989360Y1982160D1*
X2982160Y1989360D1*
X2976176Y1997597D1*
X2971553Y2006669D1*
X2968407Y2016353D1*
X2966814Y2026409D1*
Y2036591D1*
X2968407Y2046647D1*
X2971553Y2056331D1*
X2976176Y2065403D1*
X2982160Y2073640D1*
X2989360Y2080840D1*
X2997597Y2086824D1*
X3006669Y2091447D1*
X3016353Y2094593D1*
X3026409Y2096186D1*
X3036591D1*
X3046647Y2094593D1*
X3056331Y2091447D1*
X3065403Y2086824D1*
X3073640Y2080840D1*
X3080840Y2073640D1*
X3085088Y2068001D1*
X3173853Y2068000D1*
X3182496Y2076619D1*
X3182500Y2147160D1*
X3163810Y2128639D1*
X3159748Y2125687D1*
X3155274Y2123408D1*
X3150498Y2121856D1*
X3145539Y2121071D1*
X3078724Y2120972D1*
X2866253D1*
X2796407Y2051152D1*
X2796386Y1966614D1*
X2666614D1*
Y2096386D1*
X2751122D1*
X2817752Y2163007D1*
X2810235Y2163662D1*
X2801687Y2165715D1*
X2793564Y2169079D1*
X2786068Y2173673D1*
X2779383Y2179383D1*
X2775024Y2184354D1*
X2775028Y2162972D1*
X2662973D1*
Y2275027D1*
X2729753D1*
X2746892Y2292147D1*
X2746989Y2405050D1*
X2747774Y2410009D1*
X2749326Y2414785D1*
X2751605Y2419259D1*
X2754557Y2423321D1*
X2774608Y2443512D1*
X2774587Y2809783D1*
X2754557Y2829935D1*
X2751605Y2833997D1*
X2749326Y2838471D1*
X2747774Y2843247D1*
X2746989Y2848206D1*
X2746890Y2912689D1*
X2740634Y2911329D1*
X2731500Y2910610D1*
X2722366Y2911329D1*
X2713457Y2913468D1*
X2704992Y2916974D1*
X2697179Y2921762D1*
X2690212Y2927712D1*
X2684262Y2934679D1*
X2681513Y2938851D1*
X524324Y3619319D2*
X666563D1*
Y3467894D1*
X515138D1*
Y3619319D1*
X524324D1*
X863180Y3537666D2*
X862481Y3531762D1*
X861321Y3525932D1*
X859708Y3520210D1*
X857650Y3514632D1*
X855161Y3509233D1*
X852256Y3504047D1*
X848954Y3499104D1*
X845273Y3494435D1*
X841238Y3490069D1*
X836872Y3486034D1*
X832204Y3482354D1*
X827261Y3479051D1*
X822074Y3476146D1*
X816675Y3473657D1*
X811097Y3471599D1*
X805376Y3469986D1*
X799545Y3468826D1*
X793641Y3468127D1*
X787701Y3467894D1*
X781760Y3468127D1*
X775857Y3468826D1*
X770026Y3469986D1*
X764304Y3471599D1*
X758727Y3473657D1*
X753328Y3476146D1*
X748141Y3479051D1*
X743198Y3482354D1*
X738529Y3486034D1*
X734164Y3490069D1*
X730128Y3494435D1*
X726448Y3499104D1*
X723145Y3504047D1*
X720240Y3509233D1*
X717751Y3514632D1*
X715694Y3520210D1*
X714080Y3525932D1*
X712920Y3531762D1*
X712222Y3537666D1*
X711988Y3543606D1*
X712222Y3549547D1*
X712920Y3555450D1*
X714080Y3561281D1*
X715694Y3567003D1*
X717751Y3572580D1*
X720240Y3577979D1*
X723145Y3583166D1*
X726448Y3588109D1*
X730128Y3592778D1*
X734164Y3597143D1*
X738529Y3601179D1*
X743198Y3604859D1*
X748141Y3608162D1*
X753328Y3611067D1*
X758727Y3613556D1*
X764304Y3615613D1*
X770026Y3617227D1*
X775857Y3618387D1*
X781760Y3619086D1*
X787701Y3619319D1*
X793641Y3619086D1*
X799545Y3618387D1*
X805376Y3617227D1*
X811097Y3615613D1*
X816675Y3613556D1*
X822074Y3611067D1*
X827261Y3608162D1*
X832204Y3604859D1*
X836872Y3601179D1*
X841238Y3597143D1*
X845273Y3592778D1*
X848954Y3588109D1*
X852256Y3583166D1*
X855161Y3577979D1*
X857650Y3572580D1*
X859708Y3567003D1*
X861321Y3561281D1*
X862481Y3555450D1*
X863180Y3549547D1*
X863413Y3543606D1*
X863180Y3537666D1*
X1114875Y3619319D2*
X1224932D1*
X1224258Y3624171D1*
Y3631467D1*
X1225399Y3638674D1*
X1227654Y3645614D1*
X1230966Y3652115D1*
X1235255Y3658018D1*
X1240415Y3663178D1*
X1246318Y3667467D1*
X1252819Y3670779D1*
X1259759Y3673034D1*
X1266966Y3674176D1*
X1274263D1*
X1281469Y3673034D1*
X1288409Y3670779D1*
X1294910Y3667467D1*
X1300814Y3663178D1*
X1305973Y3658018D1*
X1310262Y3652115D1*
X1313575Y3645614D1*
X1315829Y3638674D1*
X1316971Y3631467D1*
Y3624171D1*
X1315829Y3616964D1*
X1313575Y3610024D1*
X1310262Y3603523D1*
X1305973Y3597620D1*
X1300814Y3592460D1*
X1294910Y3588171D1*
X1288409Y3584858D1*
X1281469Y3582604D1*
X1274263Y3581462D1*
X1266966D1*
X1259759Y3582604D1*
X1257110Y3583351D1*
X1257114Y3467894D1*
X1213371D1*
X1213402Y3378431D1*
X1219021Y3372005D1*
X1222834Y3365784D1*
X1225626Y3359042D1*
X1227330Y3351947D1*
X1227902Y3344673D1*
X1227330Y3337399D1*
X1225626Y3330304D1*
X1222834Y3323562D1*
X1219021Y3317341D1*
X1214282Y3311793D1*
X1208734Y3307054D1*
X1202513Y3303241D1*
X1195771Y3300449D1*
X1188676Y3298745D1*
X1181402Y3298173D1*
X1174128Y3298745D1*
X1167033Y3300449D1*
X1160291Y3303241D1*
X1154070Y3307054D1*
X1148522Y3311793D1*
X1143783Y3317341D1*
X1139970Y3323562D1*
X1137178Y3330304D1*
X1135474Y3337399D1*
X1134902Y3344673D1*
X1135474Y3351947D1*
X1137178Y3359042D1*
X1139970Y3365784D1*
X1143783Y3372005D1*
X1148522Y3377553D1*
X1149412Y3378376D1*
X1149402Y3467863D1*
X1105689Y3467894D1*
Y3619319D1*
X1114875D1*
X1453731Y3537666D2*
X1453032Y3531762D1*
X1451873Y3525932D1*
X1450259Y3520210D1*
X1448201Y3514632D1*
X1445712Y3509233D1*
X1442808Y3504047D1*
X1439505Y3499104D1*
X1435824Y3494435D1*
X1431789Y3490069D1*
X1427423Y3486034D1*
X1422755Y3482354D1*
X1417812Y3479051D1*
X1410242Y3475047D1*
X1410153Y3324446D1*
X1409368Y3319487D1*
X1407816Y3314711D1*
X1405537Y3310237D1*
X1402585Y3306175D1*
X1372537Y3275987D1*
X1517035Y3276000D1*
X1520577Y3279359D1*
X1526480Y3283648D1*
X1532981Y3286960D1*
X1539921Y3289215D1*
X1547128Y3290357D1*
X1554424D1*
X1561631Y3289215D1*
X1568571Y3286960D1*
X1575072Y3283648D1*
X1580975Y3279359D1*
X1586135Y3274199D1*
X1590424Y3268296D1*
X1593736Y3261795D1*
X1595991Y3254855D1*
X1597133Y3247648D1*
Y3240352D1*
X1595991Y3233145D1*
X1593736Y3226205D1*
X1590424Y3219704D1*
X1586135Y3213801D1*
X1580975Y3208641D1*
X1575072Y3204352D1*
X1568571Y3201040D1*
X1561631Y3198785D1*
X1554424Y3197643D1*
X1547128D1*
X1539921Y3198785D1*
X1532981Y3201040D1*
X1526480Y3204352D1*
X1520577Y3208641D1*
X1517073Y3212010D1*
X1350784Y3212099D1*
X1345825Y3212884D1*
X1341049Y3214436D1*
X1336575Y3216716D1*
X1332513Y3219667D1*
X1319528Y3232512D1*
X1319535Y3137724D1*
X1322894Y3134199D1*
X1327183Y3128296D1*
X1330495Y3121795D1*
X1332750Y3114855D1*
X1333892Y3107648D1*
Y3100352D1*
X1332750Y3093145D1*
X1330495Y3086205D1*
X1327183Y3079704D1*
X1322894Y3073801D1*
X1317734Y3068641D1*
X1311831Y3064352D1*
X1305330Y3061040D1*
X1298390Y3058785D1*
X1291183Y3057643D1*
X1283887D1*
X1276680Y3058785D1*
X1269740Y3061040D1*
X1263239Y3064352D1*
X1257336Y3068641D1*
X1252176Y3073801D1*
X1247887Y3079704D1*
X1244575Y3086205D1*
X1242320Y3093145D1*
X1241178Y3100352D1*
Y3107648D1*
X1242320Y3114855D1*
X1244575Y3121795D1*
X1247887Y3128296D1*
X1252176Y3134199D1*
X1255545Y3137703D1*
X1255634Y3296511D1*
X1256419Y3301470D1*
X1257971Y3306246D1*
X1260250Y3310720D1*
X1263202Y3314782D1*
X1266753Y3318333D1*
X1270815Y3321285D1*
X1275289Y3323564D1*
X1280065Y3325116D1*
X1285024Y3325901D1*
X1324295Y3326000D1*
X1329311Y3325604D1*
X1334146Y3328106D1*
X1346250Y3340210D1*
X1346252Y3474979D1*
X1338692Y3479051D1*
X1333749Y3482354D1*
X1329081Y3486034D1*
X1324715Y3490069D1*
X1320680Y3494435D1*
X1316999Y3499104D1*
X1313696Y3504047D1*
X1310792Y3509233D1*
X1308303Y3514632D1*
X1306245Y3520210D1*
X1304631Y3525932D1*
X1303472Y3531762D1*
X1302773Y3537666D1*
X1302539Y3543606D1*
X1302773Y3549547D1*
X1303472Y3555450D1*
X1304631Y3561281D1*
X1306245Y3567003D1*
X1308303Y3572580D1*
X1310792Y3577979D1*
X1313696Y3583166D1*
X1316999Y3588109D1*
X1320680Y3592778D1*
X1324715Y3597143D1*
X1329081Y3601179D1*
X1333749Y3604859D1*
X1338692Y3608162D1*
X1343879Y3611067D1*
X1349278Y3613556D1*
X1354855Y3615613D1*
X1360577Y3617227D1*
X1366408Y3618387D1*
X1372312Y3619086D1*
X1378252Y3619319D1*
X1384192Y3619086D1*
X1390096Y3618387D1*
X1395927Y3617227D1*
X1401648Y3615613D1*
X1407226Y3613556D1*
X1412625Y3611067D1*
X1417812Y3608162D1*
X1422755Y3604859D1*
X1427423Y3601179D1*
X1431789Y3597143D1*
X1435824Y3592778D1*
X1439505Y3588109D1*
X1442808Y3583166D1*
X1445712Y3577979D1*
X1448201Y3572580D1*
X1450259Y3567003D1*
X1451873Y3561281D1*
X1453032Y3555450D1*
X1453731Y3549547D1*
X1453965Y3543606D1*
X1453731Y3537666D1*
X2044282D2*
X2043584Y3531762D1*
X2042424Y3525932D1*
X2040810Y3520210D1*
X2038752Y3514632D1*
X2036264Y3509233D1*
X2033359Y3504047D1*
X2030056Y3499104D1*
X2026375Y3494435D1*
X2022340Y3490069D1*
X2017975Y3486034D1*
X2013306Y3482354D1*
X2008363Y3479051D1*
X2003176Y3476146D1*
X1997777Y3473657D1*
X1992200Y3471599D1*
X1986478Y3469986D1*
X1980647Y3468826D1*
X1974743Y3468127D1*
X1968803Y3467894D1*
X1962863Y3468127D1*
X1956959Y3468826D1*
X1951128Y3469986D1*
X1945407Y3471599D1*
X1939829Y3473657D1*
X1934430Y3476146D1*
X1929243Y3479051D1*
X1924300Y3482354D1*
X1919632Y3486034D1*
X1915266Y3490069D1*
X1911231Y3494435D1*
X1907550Y3499104D1*
X1904248Y3504047D1*
X1901343Y3509233D1*
X1898854Y3514632D1*
X1896796Y3520210D1*
X1895182Y3525932D1*
X1894023Y3531762D1*
X1893324Y3537666D1*
X1893091Y3543606D1*
X1893324Y3549547D1*
X1894023Y3555450D1*
X1895182Y3561281D1*
X1896796Y3567003D1*
X1898854Y3572580D1*
X1901343Y3577979D1*
X1904248Y3583166D1*
X1907550Y3588109D1*
X1911231Y3592778D1*
X1915266Y3597143D1*
X1919632Y3601179D1*
X1924300Y3604859D1*
X1929243Y3608162D1*
X1934430Y3611067D1*
X1939829Y3613556D1*
X1945407Y3615613D1*
X1951128Y3617227D1*
X1956959Y3618387D1*
X1962863Y3619086D1*
X1968803Y3619319D1*
X1974743Y3619086D1*
X1980647Y3618387D1*
X1986478Y3617227D1*
X1992200Y3615613D1*
X1997777Y3613556D1*
X2003176Y3611067D1*
X2008363Y3608162D1*
X2013306Y3604859D1*
X2017975Y3601179D1*
X2022340Y3597143D1*
X2026375Y3592778D1*
X2030056Y3588109D1*
X2033359Y3583166D1*
X2036264Y3577979D1*
X2038752Y3572580D1*
X2040810Y3567003D1*
X2042424Y3561281D1*
X2043584Y3555450D1*
X2044282Y3549547D1*
X2044516Y3543606D1*
X2044282Y3537666D1*
X2241133D2*
X2240434Y3531762D1*
X2239274Y3525932D1*
X2237661Y3520210D1*
X2235603Y3514632D1*
X2233114Y3509233D1*
X2230209Y3504047D1*
X2226906Y3499104D1*
X2223226Y3494435D1*
X2219190Y3490069D1*
X2214825Y3486034D1*
X2210156Y3482354D1*
X2205213Y3479051D1*
X2200026Y3476146D1*
X2194628Y3473657D1*
X2189050Y3471599D1*
X2183328Y3469986D1*
X2177498Y3468826D1*
X2171594Y3468127D1*
X2165654Y3467894D1*
X2159713Y3468127D1*
X2153809Y3468826D1*
X2147979Y3469986D1*
X2142257Y3471599D1*
X2136680Y3473657D1*
X2131281Y3476146D1*
X2126094Y3479051D1*
X2121151Y3482354D1*
X2116482Y3486034D1*
X2112117Y3490069D1*
X2108081Y3494435D1*
X2104401Y3499104D1*
X2101098Y3504047D1*
X2098193Y3509233D1*
X2095704Y3514632D1*
X2093647Y3520210D1*
X2092033Y3525932D1*
X2090873Y3531762D1*
X2090174Y3537666D1*
X2089941Y3543606D1*
X2090174Y3549547D1*
X2090873Y3555450D1*
X2092033Y3561281D1*
X2093647Y3567003D1*
X2095704Y3572580D1*
X2098193Y3577979D1*
X2101098Y3583166D1*
X2104401Y3588109D1*
X2108081Y3592778D1*
X2112117Y3597143D1*
X2116482Y3601179D1*
X2121151Y3604859D1*
X2126094Y3608162D1*
X2131281Y3611067D1*
X2136680Y3613556D1*
X2142257Y3615613D1*
X2147979Y3617227D1*
X2153809Y3618387D1*
X2159713Y3619086D1*
X2165654Y3619319D1*
X2171594Y3619086D1*
X2177498Y3618387D1*
X2183328Y3617227D1*
X2189050Y3615613D1*
X2194628Y3613556D1*
X2200026Y3611067D1*
X2205213Y3608162D1*
X2210156Y3604859D1*
X2214825Y3601179D1*
X2219190Y3597143D1*
X2223226Y3592778D1*
X2226906Y3588109D1*
X2230209Y3583166D1*
X2233114Y3577979D1*
X2235603Y3572580D1*
X2237661Y3567003D1*
X2239274Y3561281D1*
X2240434Y3555450D1*
X2241133Y3549547D1*
X2241366Y3543606D1*
X2241133Y3537666D1*
X2599127Y3619319D2*
X2741366D1*
Y3467894D1*
X2589941D1*
Y3619319D1*
X2599127D1*
X3104459Y3482828D2*
X3098914Y3479051D1*
X3091344Y3475047D1*
X3091354Y3353097D1*
X3093509Y3359618D1*
X3096821Y3366119D1*
X3101110Y3372022D1*
X3104479Y3375526D1*
X3104469Y3482812D1*
X3716651Y3507957D2*
X3711158Y3499104D1*
X3707478Y3494435D1*
X3703442Y3490069D1*
X3699077Y3486034D1*
X3694408Y3482354D1*
X3689465Y3479051D1*
X3681895Y3475047D1*
X3681906Y3428310D1*
X3686795Y3426578D1*
X3693296Y3423266D1*
X3699199Y3418977D1*
X3704359Y3413817D1*
X3708648Y3407914D1*
X3711960Y3401413D1*
X3714215Y3394473D1*
X3715372Y3386882D1*
X3716645Y3507820D1*
X3708686Y2026409D2*
X3707093Y2016353D1*
X3703947Y2006669D1*
X3699324Y1997597D1*
X3693340Y1989360D1*
X3686140Y1982160D1*
X3677903Y1976176D1*
X3668831Y1971553D1*
X3659147Y1968407D1*
X3649091Y1966814D1*
X3638909D1*
X3628853Y1968407D1*
X3619169Y1971553D1*
X3610097Y1976176D1*
X3601860Y1982160D1*
X3594660Y1989360D1*
X3588676Y1997597D1*
X3584053Y2006669D1*
X3580907Y2016353D1*
X3579314Y2026409D1*
Y2036591D1*
X3580907Y2046647D1*
X3584053Y2056331D1*
X3588676Y2065403D1*
X3594660Y2073640D1*
X3601860Y2080840D1*
X3610097Y2086824D1*
X3619169Y2091447D1*
X3628853Y2094593D1*
X3638909Y2096186D1*
X3649091D1*
X3659147Y2094593D1*
X3668831Y2091447D1*
X3677903Y2086824D1*
X3686140Y2080840D1*
X3693340Y2073640D1*
X3699324Y2065403D1*
X3703947Y2056331D1*
X3707093Y2046647D1*
X3708686Y2036591D1*
Y2026409D1*
X4333865Y2018463D2*
X4333087Y2008850D1*
X4330710Y1998949D1*
X4326814Y1989542D1*
X4321494Y1980861D1*
X4314881Y1973119D1*
X4307139Y1966506D1*
X4298458Y1961186D1*
X4289051Y1957290D1*
X4279150Y1954913D1*
X4269000Y1954114D1*
X4258850Y1954913D1*
X4248949Y1957290D1*
X4239542Y1961186D1*
X4230861Y1966506D1*
X4223119Y1973119D1*
X4216506Y1980861D1*
X4211186Y1989542D1*
X4207290Y1998949D1*
X4204913Y2008850D1*
X4204114Y2019000D1*
X4204913Y2029150D1*
X4207290Y2039051D1*
X4211186Y2048458D1*
X4216506Y2057139D1*
X4223119Y2064881D1*
X4230861Y2071494D1*
X4239542Y2076814D1*
X4248949Y2080710D1*
X4258850Y2083087D1*
X4269000Y2083886D1*
X4279150Y2083087D1*
X4289051Y2080710D1*
X4298458Y2076814D1*
X4307139Y2071494D1*
X4314881Y2064881D1*
X4321494Y2057139D1*
X4326814Y2048458D1*
X4330710Y2039051D1*
X4333087Y2029150D1*
X4333748Y2022520D1*
X4033686Y2213909D2*
X4032093Y2203853D1*
X4028947Y2194169D1*
X4024324Y2185097D1*
X4018340Y2176860D1*
X4011140Y2169660D1*
X4002903Y2163676D1*
X3993831Y2159053D1*
X3984147Y2155907D1*
X3974091Y2154314D1*
X3963909D1*
X3953853Y2155907D1*
X3944169Y2159053D1*
X3935097Y2163676D1*
X3926860Y2169660D1*
X3919660Y2176860D1*
X3913676Y2185097D1*
X3909053Y2194169D1*
X3905907Y2203853D1*
X3904314Y2213909D1*
Y2224091D1*
X3905907Y2234147D1*
X3909053Y2243831D1*
X3913676Y2252903D1*
X3919660Y2261140D1*
X3926860Y2268340D1*
X3935097Y2274324D1*
X3944169Y2278947D1*
X3953853Y2282093D1*
X3963909Y2283686D1*
X3974091D1*
X3984147Y2282093D1*
X3993831Y2278947D1*
X4002903Y2274324D1*
X4011140Y2268340D1*
X4018340Y2261140D1*
X4024324Y2252903D1*
X4028947Y2243831D1*
X4032093Y2234147D1*
X4033686Y2224091D1*
Y2213909D1*
X786437Y1912245D2*
X787289Y1917001D1*
X789544Y1923941D1*
X792856Y1930442D1*
X797145Y1936345D1*
X802305Y1941505D1*
X808208Y1945794D1*
X814709Y1949106D1*
X821649Y1951361D1*
X828856Y1952503D1*
X836152D1*
X843359Y1951361D1*
X850299Y1949106D1*
X856800Y1945794D1*
X861258Y1942644D1*
X1009592Y1942646D1*
X1066393Y1999425D1*
X1067372Y2004855D1*
X1069627Y2011795D1*
X1072939Y2018296D1*
X1076089Y2022754D1*
X1076199Y2230140D1*
X1077095Y2235797D1*
X1078865Y2241244D1*
X1081466Y2246347D1*
X1084832Y2250981D1*
X1119256Y2285564D1*
X1285633Y2451941D1*
X1286600Y2457359D1*
X1288855Y2464299D1*
X1292167Y2470800D1*
X1296456Y2476703D1*
X1301616Y2481863D1*
X1307519Y2486152D1*
X1314020Y2489464D1*
X1320960Y2491719D1*
X1328167Y2492861D1*
X1335463D1*
X1342670Y2491719D1*
X1349610Y2489464D1*
X1356111Y2486152D1*
X1362014Y2481863D1*
X1367174Y2476703D1*
X1371463Y2470800D1*
X1374775Y2464299D1*
X1377030Y2457359D1*
X1378172Y2450152D1*
Y2442856D1*
X1377030Y2435649D1*
X1374775Y2428709D1*
X1371463Y2422208D1*
X1367174Y2416305D1*
X1362014Y2411145D1*
X1356111Y2406856D1*
X1349610Y2403544D1*
X1342670Y2401289D1*
X1337290Y2400364D1*
X1149076Y2212146D1*
X1149087Y2142410D1*
X1154631Y2144637D1*
X1161726Y2146341D1*
X1169000Y2146913D1*
X1176274Y2146341D1*
X1183369Y2144637D1*
X1190111Y2141845D1*
X1196332Y2138032D1*
X1201880Y2133293D1*
X1206619Y2127745D1*
X1210432Y2121524D1*
X1213224Y2114782D1*
X1214928Y2107687D1*
X1215500Y2100413D1*
X1214928Y2093139D1*
X1213224Y2086044D1*
X1210432Y2079302D1*
X1206619Y2073081D1*
X1201880Y2067533D1*
X1200990Y2066710D1*
X1201000Y1980596D1*
X1217788Y1963813D1*
X1222648Y1963703D1*
X1229855Y1962561D1*
X1236795Y1960306D1*
X1243296Y1956994D1*
X1249199Y1952705D1*
X1254359Y1947545D1*
X1258648Y1941642D1*
X1261960Y1935141D1*
X1264215Y1928201D1*
X1265357Y1920994D1*
Y1913698D1*
X1264215Y1906491D1*
X1261960Y1899551D1*
X1258648Y1893050D1*
X1254359Y1887147D1*
X1249199Y1881987D1*
X1243296Y1877698D1*
X1236795Y1874386D1*
X1229855Y1872131D1*
X1222648Y1870989D1*
X1217789Y1870894D1*
X1188582Y1841813D1*
X1184520Y1838861D1*
X1180046Y1836582D1*
X1175270Y1835030D1*
X1170311Y1834245D1*
X1103496Y1834146D1*
X826218D1*
X822703Y1830787D1*
X816800Y1826498D1*
X810299Y1823186D1*
X803359Y1820931D1*
X796152Y1819789D1*
X788856D1*
X781649Y1820931D1*
X774709Y1823186D1*
X768208Y1826498D1*
X762305Y1830787D1*
X757145Y1835947D1*
X752856Y1841850D1*
X749544Y1848351D1*
X747289Y1855291D1*
X746147Y1862498D1*
Y1869794D1*
X747289Y1877001D1*
X749544Y1883941D1*
X752856Y1890442D1*
X757145Y1896345D1*
X762305Y1901505D1*
X768208Y1905794D1*
X774709Y1909106D1*
X781649Y1911361D1*
X786405Y1912213D1*
X702857Y2217852D2*
X701715Y2210645D1*
X699460Y2203705D1*
X696148Y2197204D1*
X691859Y2191301D1*
X686699Y2186141D1*
X680796Y2181852D1*
X674295Y2178540D1*
X667355Y2176285D1*
X660148Y2175143D1*
X652852D1*
X645645Y2176285D1*
X638705Y2178540D1*
X632204Y2181852D1*
X626301Y2186141D1*
X621141Y2191301D1*
X616852Y2197204D1*
X613540Y2203705D1*
X611285Y2210645D1*
X610143Y2217852D1*
Y2225148D1*
X611285Y2232355D1*
X613540Y2239295D1*
X616852Y2245796D1*
X620002Y2250254D1*
X620112Y2528888D1*
X621008Y2534545D1*
X622778Y2539992D1*
X625379Y2545095D1*
X628745Y2549729D1*
X663169Y2584312D1*
X793109Y2714252D1*
X790730Y2718205D1*
X788538Y2723497D1*
X787201Y2729066D1*
X786752Y2734776D1*
Y2950835D1*
X783604Y2955354D1*
X780292Y2961855D1*
X778037Y2968795D1*
X776895Y2976002D1*
Y2983298D1*
X778037Y2990505D1*
X780292Y2997445D1*
X783604Y3003946D1*
X787893Y3009849D1*
X793053Y3015009D1*
X798956Y3019298D1*
X805457Y3022610D1*
X812397Y3024865D1*
X819604Y3026007D1*
X826900D1*
X834107Y3024865D1*
X841047Y3022610D1*
X847548Y3019298D1*
X853451Y3015009D1*
X858611Y3009849D1*
X862900Y3003946D1*
X866212Y2997445D1*
X868467Y2990505D1*
X869609Y2983298D1*
Y2976002D1*
X868467Y2968795D1*
X866212Y2961855D1*
X862900Y2955354D1*
X859750Y2950896D1*
X859752Y2750242D1*
X1150318Y2750276D1*
X1156028Y2749827D1*
X1161597Y2748490D1*
X1166889Y2746298D1*
X1171772Y2743305D1*
X1176127Y2739585D1*
X1203810Y2711903D1*
X1252663Y2711913D1*
X1257204Y2715061D1*
X1263705Y2718373D1*
X1270645Y2720628D1*
X1277852Y2721770D1*
X1285148D1*
X1292355Y2720628D1*
X1299295Y2718373D1*
X1305796Y2715061D1*
X1311699Y2710772D1*
X1316859Y2705612D1*
X1321148Y2699709D1*
X1324460Y2693208D1*
X1326715Y2686268D1*
X1327857Y2679061D1*
Y2671765D1*
X1326715Y2664558D1*
X1324460Y2657618D1*
X1321148Y2651117D1*
X1316859Y2645214D1*
X1311699Y2640054D1*
X1305796Y2635765D1*
X1299295Y2632453D1*
X1292355Y2630198D1*
X1285148Y2629056D1*
X1277852D1*
X1270645Y2630198D1*
X1263705Y2632453D1*
X1257204Y2635765D1*
X1252746Y2638915D1*
X1185817Y2639025D1*
X1180160Y2639921D1*
X1174713Y2641691D1*
X1169610Y2644292D1*
X1167218Y2645891D1*
X1159699Y2638417D1*
X1153796Y2634128D1*
X1147295Y2630816D1*
X1140355Y2628561D1*
X1133148Y2627419D1*
X1125852D1*
X1118645Y2628561D1*
X1111705Y2630816D1*
X1105204Y2634128D1*
X1099301Y2638417D1*
X1095797Y2641786D1*
X1040400Y2641776D1*
X1040357Y2634628D1*
X1039215Y2627421D1*
X1036960Y2620481D1*
X1033648Y2613980D1*
X1030498Y2609522D1*
X1030388Y2571136D1*
X1029492Y2565479D1*
X1027722Y2560032D1*
X1025121Y2554929D1*
X1021755Y2550295D1*
X989809Y2518191D1*
X985454Y2514471D1*
X980571Y2511478D1*
X975279Y2509286D1*
X969710Y2507949D1*
X963989Y2507500D1*
X885306D1*
X880796Y2504352D1*
X874295Y2501040D1*
X867355Y2498785D1*
X860148Y2497643D1*
X852852D1*
X845645Y2498785D1*
X838705Y2501040D1*
X832204Y2504352D1*
X826301Y2508641D1*
X821141Y2513801D1*
X816852Y2519704D1*
X813540Y2526205D1*
X811285Y2533145D1*
X810143Y2540352D1*
Y2547648D1*
X811285Y2554855D1*
X813540Y2561795D1*
X816852Y2568296D1*
X821141Y2574199D1*
X826301Y2579359D1*
X832204Y2583648D1*
X838705Y2586960D1*
X845645Y2589215D1*
X852852Y2590357D1*
X860148D1*
X867355Y2589215D1*
X874295Y2586960D1*
X880796Y2583648D1*
X885254Y2580498D1*
X948902Y2580500D1*
X957500Y2589119D1*
Y2593772D1*
X951274Y2592348D1*
X944000Y2591776D1*
X936726Y2592348D1*
X929631Y2594052D1*
X922889Y2596844D1*
X916668Y2600657D1*
X911120Y2605396D1*
X906381Y2610944D1*
X902568Y2617165D1*
X899776Y2623907D1*
X898072Y2631002D1*
X897500Y2638276D1*
X898072Y2645550D1*
X899776Y2652645D1*
X902568Y2659387D1*
X906381Y2665608D1*
X911120Y2671156D1*
X916668Y2675895D1*
X918743Y2677282D1*
X859405Y2677276D1*
X692977Y2510882D1*
X693000Y2250326D1*
X696148Y2245796D1*
X699460Y2239295D1*
X701715Y2232355D1*
X702857Y2225148D1*
Y2217852D1*
X3480203Y3151045D2*
X3476699Y3147676D1*
X3470796Y3143387D1*
X3464295Y3140075D1*
X3457355Y3137820D1*
X3450148Y3136678D1*
X3442852D1*
X3435645Y3137820D1*
X3428705Y3140075D1*
X3422204Y3143387D1*
X3416301Y3147676D1*
X3411141Y3152836D1*
X3406852Y3158739D1*
X3403540Y3165240D1*
X3401285Y3172180D1*
X3400143Y3179387D1*
Y3186683D1*
X3401285Y3193890D1*
X3403540Y3200830D1*
X3406852Y3207331D1*
X3411141Y3213234D1*
X3416301Y3218394D1*
X3422204Y3222683D1*
X3428705Y3225995D1*
X3435645Y3228250D1*
X3442852Y3229392D1*
X3450148D1*
X3457355Y3228250D1*
X3464295Y3225995D1*
X3470796Y3222683D1*
X3476699Y3218394D1*
X3480203Y3215025D1*
X3547729Y3215035D1*
X3554168Y3220654D1*
X3560389Y3224467D1*
X3567131Y3227259D1*
X3574226Y3228963D1*
X3581500Y3229535D1*
X3588774Y3228963D1*
X3595869Y3227259D1*
X3602611Y3224467D1*
X3608832Y3220654D1*
X3614380Y3215915D1*
X3619119Y3210367D1*
X3622932Y3204146D1*
X3625724Y3197404D1*
X3627428Y3190309D1*
X3628000Y3183035D1*
X3627428Y3175761D1*
X3625724Y3168666D1*
X3622932Y3161924D1*
X3619119Y3155703D1*
X3614380Y3150155D1*
X3608832Y3145416D1*
X3602611Y3141603D1*
X3595869Y3138811D1*
X3588774Y3137107D1*
X3581500Y3136535D1*
X3574226Y3137107D1*
X3567131Y3138811D1*
X3560389Y3141603D1*
X3554168Y3145416D1*
X3548620Y3150155D1*
X3547797Y3151045D1*
X3480271Y3151035D1*
D35*
X1431500Y2969000D3*
D36*
X1531500D3*
X1631500D3*
X1731500D3*
X1831500D3*
X1931500D3*
X2031500D3*
X2131500D3*
X2231500D3*
X2331500D3*
X2431500D3*
X2531500D3*
X2631500D3*
X2731500D3*
X2831500D3*
X2931500D3*
D35*
X1431500Y2369000D3*
D36*
X1531500D3*
X1631500D3*
X1731500D3*
X1831500D3*
X1931500D3*
X2031500D3*
X2131500D3*
X2231500D3*
X2331500D3*
X2431500D3*
X2531500D3*
X2631500D3*
X2731500D3*
X2831500D3*
X2931500D3*
D37*
X590850Y3543606D3*
D38*
X787701D3*
X984551D3*
D37*
X1181402D3*
D38*
X1378252D3*
X1575102D3*
D37*
X1771953D3*
D38*
X1968803D3*
X2165654D3*
D37*
X2665654D3*
D38*
X2862504D3*
X3059354D3*
D37*
X3256205D3*
D38*
X3453055D3*
X3649906D3*
D37*
X3846756D3*
D38*
X4043606D3*
X4240457D3*
D37*
X984551Y661717D3*
D38*
X787701D3*
X590850D3*
D37*
X1575102D3*
D38*
X1378252D3*
X1181402D3*
D37*
X2165654D3*
D38*
X1968803D3*
X1771953D3*
D37*
X3059354D3*
D38*
X2862504D3*
X2665654D3*
D37*
X3649906D3*
D38*
X3453055D3*
X3256205D3*
D37*
X4240457D3*
D38*
X4043606D3*
X3846756D3*
D39*
X2719000Y2219000D3*
D40*
X2819000D3*
X2919000D3*
X3019000D3*
X3119000D3*
X3219000D3*
X3319000D3*
X3419000D3*
X3519000D3*
X3619000D3*
D41*
X856500Y1006500D3*
D42*
Y1106500D3*
D41*
X1281500Y1006500D3*
D42*
Y1106500D3*
D41*
X1694000Y1006500D3*
D42*
Y1106500D3*
D41*
X2106500Y1019000D3*
D42*
Y1119000D3*
D43*
X3031500Y2031500D3*
D44*
X2731500D3*
D43*
X3031500Y1287406D3*
X2731500Y1161421D3*
X3031500Y1035437D3*
X3644000Y2031500D3*
D44*
X3344000D3*
D43*
X3644000Y1287406D3*
X3344000Y1161421D3*
X3644000Y1035437D3*
X4269000Y2019000D3*
D131*
X3969000D3*
D43*
X4269000Y1274906D3*
X3969000Y1148921D3*
X4269000Y1022937D3*
X3969000Y2219000D3*
D44*
X4269000D3*
D43*
X3969000Y2963094D3*
X4269000Y3089079D3*
X3969000Y3215063D3*
M02*
