%TF.GenerationSoftware,Novarm,DipTrace,3.1.0.1*%
%TF.CreationDate,2017-07-12T16:09:04+02:00*%
%FSLAX26Y26*%
%MOIN*%
%TF.FileFunction,Copper,L2,Bot*%
%TF.Part,Single*%
%AMOUTLINE6*5,1,4,0,0,0.108572,-135.0*%
%TA.AperFunction,Conductor*%
%ADD14C,0.011*%
%ADD15C,0.015*%
%ADD16C,0.02*%
%ADD17C,0.085*%
%TA.AperFunction,CopperBalancing*%
%ADD19C,0.025*%
%TA.AperFunction,ComponentPad*%
%ADD25R,0.062992X0.062992*%
%ADD26C,0.062992*%
%ADD35R,0.06378X0.06378*%
%ADD36C,0.06378*%
%ADD37R,0.098425X0.098425*%
%ADD38C,0.098425*%
%ADD39R,0.059055X0.059055*%
%ADD40C,0.059055*%
%ADD41R,0.066929X0.066929*%
%ADD42C,0.066929*%
%ADD43C,0.076772*%
%ADD44R,0.076772X0.076772*%
%TA.AperFunction,ViaPad*%
%ADD56C,0.04*%
%TA.AperFunction,ComponentPad*%
%ADD129OUTLINE6*%
G75*
G01*
%LPD*%
X3354500Y3069000D2*
D14*
X3319000Y3104500D1*
Y3358118D1*
X3256205Y3420913D1*
Y3543606D1*
X3649906D2*
Y3069181D1*
X3599724Y3019000D1*
X2506500Y3215000D2*
Y2981500D1*
X2132886Y3144000D2*
X2244000D1*
X2406500Y2981500D1*
X1968803Y3543606D2*
D16*
Y3129311D1*
X1938803Y3099311D1*
X1675776D1*
X2606500Y2531500D2*
Y2381500D1*
X2709390Y2278610D1*
X2839886D1*
X3028610D1*
X3194000Y2444000D1*
X3644000Y2031500D2*
X3544000Y2131500D1*
Y2225413D1*
X1258685Y2769000D2*
Y2391579D1*
X1151972Y2284866D1*
X3744000Y2237913D2*
Y1981500D1*
X3031500Y1856500D2*
Y2031500D1*
X3544000Y2225413D2*
X3356500D1*
X1675776Y3099311D2*
X1606402Y3168685D1*
X1506500D1*
X2839886Y1969000D2*
Y2278610D1*
X3969000Y2219000D2*
X4069000D1*
X4269000Y2019000D1*
X3744000Y2237913D2*
X3871157D1*
X3890071Y2219000D1*
X3969000D1*
X3544000Y2225413D2*
X3648780D1*
X3661280Y2237913D1*
X3744000D1*
X1151972Y2284866D2*
Y1900134D1*
X1771953Y3543606D2*
D14*
Y3225185D1*
X1750953Y3204185D1*
X1480110D1*
X1459110Y3183185D1*
Y2704358D1*
X1480110Y2683358D1*
X2185496D1*
X2206500Y2662354D1*
Y2381500D1*
X1956500Y2875091D2*
X1906500Y2925091D1*
Y2981500D1*
X1844000Y2910587D2*
X1826500D1*
X1806500Y2930587D1*
Y2981500D1*
X1719000Y2875087D2*
X1706500Y2887587D1*
Y2981500D1*
X1856933Y1433764D2*
D15*
X1537720D1*
X1431500Y1539984D1*
X1368035Y1791146D2*
D14*
X1680301D1*
X1819000Y1929846D1*
Y2098433D1*
X1820654Y2100087D1*
X2184185Y2270654D2*
Y2136591D1*
X2268685Y2052091D1*
X1656500Y1019000D2*
D15*
X1781500D1*
X1278528Y3194197D2*
D16*
X1375500D1*
X1396500Y3173197D1*
Y3090087D1*
X1356500Y3050087D1*
X3546870Y3069000D2*
Y3624819D1*
X3516870Y3654819D1*
X1685102D1*
X1655102Y3624819D1*
Y3330091D1*
X1625102Y3300091D1*
X1481394D1*
X1375500Y3194197D1*
X1356500Y3050087D2*
Y2740512D1*
X1331500Y2715512D1*
Y2453138D1*
X2731500Y2031500D2*
D14*
X2453890Y2309110D1*
Y2418020D1*
X2347382Y2524528D1*
X1194000Y1217287D2*
D15*
Y1144000D1*
X1331500Y1006500D1*
X744000D2*
X869000D1*
X1619000Y1864453D2*
D14*
X619000D1*
X1668685Y1987496D2*
X1650264Y2005917D1*
Y2334110D1*
X3253528Y2951693D2*
Y3025976D1*
X3231500Y3048004D1*
X2168898Y2542783D2*
D16*
X1501144D1*
X1371500Y2413138D1*
X1288685D1*
Y2693016D1*
X1298685Y2703016D1*
Y2809000D1*
X1218685D1*
X1100705Y2691020D1*
Y2650571D1*
X1070705Y2620571D1*
X1024000D1*
X994000Y2650571D1*
Y3054000D1*
X2368386Y2644000D2*
X3194000D1*
X1218685Y2729004D2*
Y2809000D1*
X3546870Y2919000D2*
D14*
Y2791685D1*
X3344000Y1722642D2*
Y2031500D1*
X3274528Y2100972D1*
Y2489028D1*
X3844000Y2161106D2*
Y1687142D1*
X3823000Y1666142D1*
X2439654D1*
X2418654Y1687142D1*
Y2306154D1*
X2397654Y2327154D1*
X2174890D1*
X2153890Y2348154D1*
Y2481783D1*
X2132890Y2502783D1*
X2013799D1*
X3969000Y2019000D2*
X3844000D1*
Y2161106D1*
X1060705Y2669571D2*
Y2745189D1*
X1218685Y2903169D1*
X948350Y2419000D2*
D16*
X1031500Y2335850D1*
Y2214063D1*
X2731500Y1161421D2*
D17*
Y854276D1*
X2665654Y788429D1*
Y661717D1*
X3031500Y1287406D2*
X2862504Y1118409D1*
Y661717D1*
X3031500Y1035437D2*
Y816283D1*
X3059354Y788429D1*
Y661717D1*
X3344000Y1161421D2*
Y876224D1*
X3256205Y788429D1*
Y661717D1*
X3644000Y1287406D2*
X3464000Y1107406D1*
Y672661D1*
X3453055Y661717D1*
X3644000Y1035437D2*
Y667622D1*
X3649906Y661717D1*
X3969000Y1148921D2*
X3846756Y1026677D1*
Y661717D1*
X4269000Y1274906D2*
X4089000Y1094906D1*
Y833823D1*
X4043606Y788429D1*
Y661717D1*
X4269000Y1022937D2*
Y816972D1*
X4240457Y788429D1*
Y661717D1*
X4269000Y3089079D2*
Y3515063D1*
X4240457Y3543606D1*
X3969000Y2963094D2*
X3846756Y3085339D1*
Y3543606D1*
X3969000Y3215063D2*
Y3330949D1*
X4043606Y3405555D1*
Y3543606D1*
X1378252D2*
D14*
X1457469Y3464390D1*
X1615102D1*
X1181402Y3433531D2*
Y3543606D1*
X1575102Y906500D2*
D15*
Y661717D1*
X1719000Y2095654D2*
D14*
Y2219362D1*
X1806500Y2306862D1*
Y2381500D1*
X1969000Y2095654D2*
Y2210866D1*
X1906500Y2273366D1*
Y2381500D1*
X2031500Y2087587D2*
X2006500Y2112587D1*
Y2381500D1*
X2319000Y2095654D2*
Y2285154D1*
X2298000Y2306154D1*
X2127500D1*
X2106500Y2327154D1*
Y2381500D1*
X3194000Y2044000D2*
X3239028Y2089028D1*
Y2468031D1*
X3218028Y2489031D1*
X3154768D1*
X3076799Y2567000D1*
X2353293D1*
X2101705Y2818587D1*
X1669413D1*
X1506500Y2981500D1*
X3194000Y2844000D2*
X3059354Y2978646D1*
Y3543606D1*
X3194000Y2944000D2*
X3124067Y3013933D1*
Y3587319D1*
X3103067Y3608319D1*
X2927217D1*
X2862504Y3543606D1*
X2855087Y2744000D2*
D16*
X2636500D1*
X2606500Y2774000D1*
Y2981500D1*
X881500Y2094000D2*
Y2606500D1*
X3194000Y2544000D2*
X3253528Y2603528D1*
Y2684472D1*
X3194000Y2744000D1*
X2383154Y2151484D2*
Y2029567D1*
X2319000Y1965413D1*
Y1925413D1*
X2806500Y2381500D2*
Y2475941D1*
X2855087Y2524528D1*
X1426110Y2594122D2*
X1642000D1*
X1112913Y3069000D2*
X1162913Y3119000D1*
X1283154D1*
X781500Y2973213D2*
X902287Y3094000D1*
X1022709D1*
X1047709Y3069000D1*
X1112913D1*
X881500Y2606500D2*
X781500Y2706500D1*
Y2973213D1*
X3406500Y3398118D2*
X3453055Y3444673D1*
Y3543606D1*
X3387126Y2866189D2*
Y2919000D1*
X3406500Y2938374D1*
Y3398118D1*
X3194000Y2744000D2*
X3264937D1*
X3387126Y2866189D1*
X1770654Y2112913D2*
Y1970134D1*
X1740654Y1940134D1*
X1446776D1*
X1919000Y2096874D2*
X1862961Y2152913D1*
X1790654D1*
X1770654Y2132913D1*
Y2112913D1*
X1877350Y1977071D2*
Y2055224D1*
X1919000Y2096874D1*
X2119000Y1925413D2*
X2067343Y1977071D1*
X1877350D1*
X2319000Y1925413D2*
X2119000D1*
D56*
X1270614Y3627819D3*
X3354500Y3069000D3*
X3319000Y3358118D3*
X3599724Y3019000D3*
X2506500Y3215000D3*
X2132886Y3144000D3*
X1151972Y1900134D3*
X3031500Y1856500D3*
X2606500Y2531500D3*
X1506500Y3168685D3*
X1258685Y2769000D3*
X3356500Y2225413D3*
X2839886Y1969000D3*
X3744000Y1981500D3*
X1675776Y3099311D3*
X3744000Y2237913D3*
X3544000Y2225413D3*
X1151972Y2284866D3*
X1956500Y2875091D3*
X1844000Y2910587D3*
X1719000Y2875087D3*
X1431500Y1539984D3*
X1856933Y1433764D3*
X1820654Y2100087D3*
X1368035Y1791146D3*
X1819000Y1929846D3*
X2268685Y2052091D3*
X2184185Y2270654D3*
X1656500Y1019000D3*
X1278528Y3194197D3*
X3546870Y3069000D3*
X1331500Y2453138D3*
X1356500Y3050087D3*
X2347382Y2524528D3*
X1194000Y1217287D3*
X744000Y1006500D3*
X619000Y1864453D3*
X1619000D3*
X1650264Y2334110D3*
X1668685Y1987496D3*
X3231500Y3048004D3*
X3253528Y2951693D3*
X2368386Y2644000D3*
X2168898Y2542783D3*
X994000Y3054000D3*
X1218685Y2729004D3*
X3546870Y2791685D3*
Y2919000D3*
X3274528Y2489028D3*
X3344000Y1722642D3*
X2013799Y2502783D3*
X3844000Y2161106D3*
X1218685Y2903169D3*
X1060705Y2669571D3*
X1031500Y2214063D3*
X948350Y2419000D3*
X1615102Y3464390D3*
X1181402Y3433531D3*
X1575102Y906500D3*
X1719000Y2095654D3*
X1969000D3*
X2031500Y2087587D3*
X2319000Y2095654D3*
X2855087Y2744000D3*
X1446776Y1940134D3*
X1642000Y2594122D3*
X1283154Y3119000D3*
X3387126Y2866189D3*
X2383154Y2151484D3*
X1919000Y2096874D3*
X1426110Y2594122D3*
X2319000Y1925413D3*
X3406500Y3398118D3*
X2855087Y2524528D3*
X1877350Y1977071D3*
X1112913Y3069000D3*
X1770654Y2112913D3*
X2119000Y1925413D3*
X781500Y2973213D3*
X508563Y3694131D2*
D19*
X3728690D1*
X508240Y3669262D2*
X1247012D1*
X1294211D2*
X1649668D1*
X3552295D2*
X3728367D1*
X507953Y3644394D2*
X1224655D1*
X1316567D2*
X1625409D1*
X3576552D2*
X3728043D1*
X676070Y3619525D2*
X752383D1*
X823016D2*
X1222358D1*
X1318864D2*
X1619094D1*
X1699667D2*
X2894921D1*
X3135357D2*
X3502297D1*
X3582869D2*
X3727757D1*
X676070Y3594656D2*
X720123D1*
X855276D2*
X1106202D1*
X1305694D2*
X1323983D1*
X1432545D2*
X1619094D1*
X1847151D2*
X1914529D1*
X2023091D2*
X2107227D1*
X2224077D2*
X2587429D1*
X2743861D2*
X2808224D1*
X3154627D2*
X3180990D1*
X3331428D2*
X3510873D1*
X3582869D2*
X3595631D1*
X3704193D2*
X3727434D1*
X676070Y3569787D2*
X706739D1*
X868660D2*
X1106202D1*
X1256605D2*
X1307907D1*
X1448585D2*
X1619094D1*
X1847151D2*
X1898453D1*
X2039131D2*
X2092119D1*
X2239185D2*
X2587429D1*
X2743861D2*
X2792184D1*
X2932827D2*
X2989009D1*
X3155560D2*
X3180990D1*
X3331428D2*
X3510873D1*
X676070Y3544919D2*
X702505D1*
X872895D2*
X1106202D1*
X1256605D2*
X1303063D1*
X1453465D2*
X1619094D1*
X1847151D2*
X1893609D1*
X2044012D2*
X2087455D1*
X2243850D2*
X2587429D1*
X2743861D2*
X2787304D1*
X2937707D2*
X2984165D1*
X3155560D2*
X3180990D1*
X3331428D2*
X3510873D1*
X676070Y3520050D2*
X705913D1*
X869486D2*
X1106202D1*
X1256605D2*
X1306974D1*
X1449554D2*
X1619094D1*
X1847151D2*
X1897520D1*
X2040100D2*
X2091186D1*
X2240118D2*
X2587429D1*
X2743861D2*
X2791215D1*
X2933795D2*
X2988076D1*
X3155560D2*
X3180990D1*
X3331428D2*
X3510873D1*
X676070Y3495181D2*
X718150D1*
X857249D2*
X1106202D1*
X1256605D2*
X1321507D1*
X1470188D2*
X1581882D1*
X1847151D2*
X1912052D1*
X2025530D2*
X2104966D1*
X2226339D2*
X2587429D1*
X2743861D2*
X2805748D1*
X2919262D2*
X3002609D1*
X3155560D2*
X3180990D1*
X3331428D2*
X3510873D1*
X3706633D2*
X3726178D1*
X676070Y3470312D2*
X746857D1*
X828542D2*
X1149908D1*
X1212898D2*
X1408024D1*
X1691091D2*
X1740455D1*
X1803444D2*
X1932794D1*
X2004790D2*
X2144152D1*
X2187154D2*
X2587429D1*
X2743861D2*
X3027871D1*
X3155560D2*
X3224697D1*
X3287722D2*
X3510873D1*
X3681407D2*
X3725856D1*
X505549Y3445444D2*
X1137062D1*
X1225744D2*
X1432891D1*
X1691091D2*
X1740455D1*
X1803444D2*
X1932794D1*
X2004790D2*
X3027871D1*
X3155560D2*
X3224697D1*
X3287722D2*
X3510873D1*
X3681407D2*
X3725531D1*
X505261Y3420575D2*
X1137385D1*
X1225421D2*
X1619094D1*
X1691091D2*
X1740455D1*
X1803444D2*
X1932794D1*
X2004790D2*
X3027871D1*
X3155560D2*
X3224697D1*
X3300066D2*
X3510873D1*
X3681407D2*
X3725209D1*
X504938Y3395706D2*
X1157408D1*
X1205398D2*
X1619094D1*
X1691091D2*
X1740455D1*
X1803444D2*
X1932794D1*
X2004790D2*
X3027871D1*
X3155560D2*
X3237902D1*
X3343378D2*
X3510873D1*
X3681407D2*
X3724923D1*
X504651Y3370837D2*
X1619094D1*
X1691091D2*
X1740455D1*
X1803444D2*
X1932794D1*
X2004790D2*
X3027871D1*
X3155560D2*
X3262769D1*
X3363114D2*
X3510873D1*
X3681407D2*
X3724598D1*
X504365Y3345969D2*
X1619094D1*
X1691091D2*
X1740455D1*
X1803444D2*
X1932794D1*
X2004790D2*
X3027871D1*
X3155560D2*
X3274719D1*
X3363257D2*
X3510873D1*
X3681407D2*
X3724276D1*
X504041Y3321100D2*
X1452520D1*
X1689870D2*
X1740455D1*
X1803444D2*
X1932794D1*
X2004790D2*
X3027871D1*
X3155560D2*
X3287493D1*
X3350483D2*
X3510873D1*
X3681407D2*
X3723953D1*
X503755Y3296231D2*
X1427652D1*
X1671102D2*
X1740455D1*
X1803444D2*
X1932794D1*
X2004790D2*
X3027871D1*
X3155560D2*
X3287493D1*
X3350483D2*
X3510873D1*
X3681407D2*
X3723630D1*
X503467Y3271362D2*
X1402785D1*
X1644836D2*
X1740455D1*
X1803444D2*
X1932794D1*
X2004790D2*
X3027871D1*
X3155560D2*
X3287493D1*
X3350483D2*
X3510873D1*
X3681407D2*
X3723343D1*
X503144Y3246493D2*
X1377917D1*
X1477686D2*
X1740455D1*
X1803444D2*
X1932794D1*
X2004790D2*
X2473999D1*
X2538997D2*
X3027871D1*
X3155560D2*
X3287493D1*
X3350483D2*
X3510873D1*
X3681407D2*
X3723020D1*
X502857Y3221625D2*
X1242274D1*
X1803228D2*
X1932794D1*
X2004790D2*
X2461009D1*
X2551988D2*
X3027871D1*
X3155560D2*
X3287493D1*
X3350483D2*
X3510873D1*
X3681407D2*
X3722697D1*
X502570Y3196756D2*
X1232585D1*
X1787045D2*
X1932794D1*
X2004790D2*
X2464526D1*
X2548507D2*
X3027871D1*
X3155560D2*
X3287493D1*
X3350483D2*
X3510873D1*
X3681407D2*
X3722374D1*
X502247Y3171887D2*
X1238686D1*
X1653089D2*
X1932794D1*
X2004790D2*
X2097000D1*
X2254472D2*
X2475004D1*
X2537993D2*
X3027871D1*
X3155560D2*
X3287493D1*
X3350483D2*
X3510873D1*
X3681407D2*
X3722087D1*
X501961Y3147018D2*
X1360513D1*
X1677957D2*
X1932794D1*
X2004790D2*
X2086988D1*
X2284507D2*
X2475004D1*
X2537993D2*
X3027871D1*
X3155560D2*
X3287493D1*
X3350483D2*
X3510873D1*
X3681407D2*
X3721764D1*
X501673Y3122150D2*
X1360513D1*
X1490605D2*
X1603054D1*
X2004037D2*
X2092765D1*
X2309375D2*
X2475004D1*
X2537993D2*
X3027871D1*
X3155560D2*
X3287493D1*
X3350483D2*
X3510873D1*
X3681407D2*
X3721441D1*
X501350Y3097281D2*
X987138D1*
X1000878D2*
X1353803D1*
X1490605D2*
X1627923D1*
X1986633D2*
X2247211D1*
X2334243D2*
X2475004D1*
X2537993D2*
X3027871D1*
X3155560D2*
X3288427D1*
X3390063D2*
X3510873D1*
X3681407D2*
X3721118D1*
X501063Y3072412D2*
X952079D1*
X1035917D2*
X1316663D1*
X1490605D2*
X1639081D1*
X1961262D2*
X2272079D1*
X2359110D2*
X2475004D1*
X2537993D2*
X3027871D1*
X3155560D2*
X3193010D1*
X3269995D2*
X3307589D1*
X3400362D2*
X3501005D1*
X3681407D2*
X3720831D1*
X500776Y3047543D2*
X948491D1*
X1039505D2*
X1310562D1*
X1403837D2*
X1427617D1*
X1490605D2*
X2296946D1*
X2383978D2*
X2475004D1*
X2537993D2*
X3027871D1*
X3155560D2*
X3185510D1*
X3277495D2*
X3314156D1*
X3394836D2*
X3506531D1*
X3671790D2*
X3720508D1*
X500453Y3022675D2*
X958000D1*
X1029996D2*
X1320215D1*
X1392785D2*
X1427617D1*
X1646055D2*
X1666965D1*
X1746064D2*
X1766937D1*
X1846038D2*
X1866946D1*
X1946047D2*
X1966955D1*
X2046056D2*
X2066965D1*
X2146066D2*
X2166938D1*
X2246039D2*
X2266948D1*
X2446058D2*
X2466966D1*
X2546067D2*
X2662606D1*
X3158825D2*
X3193621D1*
X3285030D2*
X3553862D1*
X3646921D2*
X3720185D1*
X500165Y2997806D2*
X958000D1*
X1029996D2*
X1320503D1*
X1392497D2*
X1427617D1*
X2561928D2*
X2647930D1*
X3183693D2*
X3222041D1*
X3285030D2*
X3559244D1*
X3640211D2*
X3719862D1*
X499879Y2972937D2*
X958000D1*
X1029996D2*
X1320503D1*
X1392497D2*
X1427617D1*
X2563722D2*
X2646243D1*
X3294001D2*
X3719539D1*
X499556Y2948068D2*
X958000D1*
X1029996D2*
X1320503D1*
X1392497D2*
X1427617D1*
X2553172D2*
X2656112D1*
X3299383D2*
X3512021D1*
X3581720D2*
X3719252D1*
X499269Y2923199D2*
X958000D1*
X1029996D2*
X1177575D1*
X1259798D2*
X1320503D1*
X1392497D2*
X1427617D1*
X1951896D2*
X2700787D1*
X2712245D2*
X2800761D1*
X2812248D2*
X2900770D1*
X2912249D2*
X3000780D1*
X3012206D2*
X3071291D1*
X3288906D2*
X3501076D1*
X3592665D2*
X3718929D1*
X498946Y2898331D2*
X958000D1*
X1029996D2*
X1170327D1*
X1264428D2*
X1320503D1*
X1392497D2*
X1427617D1*
X1995783D2*
X3096159D1*
X3249541D2*
X3506100D1*
X3587642D2*
X3718606D1*
X498659Y2873462D2*
X958000D1*
X1029996D2*
X1145459D1*
X1252945D2*
X1320503D1*
X1392497D2*
X1427617D1*
X2002457D2*
X3121028D1*
X3240605D2*
X3515358D1*
X3578383D2*
X3718283D1*
X498371Y2848593D2*
X958000D1*
X1029996D2*
X1120592D1*
X1207622D2*
X1320503D1*
X1392497D2*
X1427617D1*
X1993487D2*
X3138682D1*
X3249325D2*
X3515358D1*
X3578383D2*
X3717996D1*
X498049Y2823724D2*
X958000D1*
X1029996D2*
X1095723D1*
X1392497D2*
X1427617D1*
X2140073D2*
X3142486D1*
X3245486D2*
X3514963D1*
X3578778D2*
X3717673D1*
X497761Y2798856D2*
X958000D1*
X1029996D2*
X1070856D1*
X1392497D2*
X1427617D1*
X2164941D2*
X3163693D1*
X3224314D2*
X3501471D1*
X3592270D2*
X3717350D1*
X497475Y2773987D2*
X958000D1*
X1029996D2*
X1045988D1*
X1392497D2*
X1427617D1*
X2189808D2*
X3504629D1*
X3589113D2*
X3717028D1*
X497151Y2749118D2*
X958000D1*
X1392497D2*
X1427617D1*
X2214676D2*
X3535417D1*
X3558324D2*
X3716705D1*
X496865Y2724249D2*
X958000D1*
X1388299D2*
X1427617D1*
X2239545D2*
X3716417D1*
X4012331D2*
X4378768D1*
X496577Y2699381D2*
X958000D1*
X1158928D2*
X1184322D1*
X1367487D2*
X1428047D1*
X2264412D2*
X4378480D1*
X496255Y2674512D2*
X958000D1*
X1136715D2*
X1222682D1*
X1367487D2*
X1445451D1*
X2289280D2*
X2334877D1*
X3239887D2*
X4378194D1*
X495967Y2649643D2*
X524017D1*
X639001D2*
X958000D1*
X1136680D2*
X1222682D1*
X1367487D2*
X2175012D1*
X3249218D2*
X4377942D1*
X495680Y2624774D2*
X524017D1*
X639001D2*
X969913D1*
X1124802D2*
X1222682D1*
X1367487D2*
X2175012D1*
X3245916D2*
X4377655D1*
X495357Y2599906D2*
X524017D1*
X639001D2*
X994781D1*
X1099898D2*
X1222682D1*
X1367487D2*
X2175012D1*
X2363883D2*
X3162043D1*
X3225965D2*
X4377369D1*
X495071Y2575037D2*
X524017D1*
X639001D2*
X1222682D1*
X1367487D2*
X1489588D1*
X3112283D2*
X4377081D1*
X494783Y2550168D2*
X1222682D1*
X1367487D2*
X1458656D1*
X3137151D2*
X4376794D1*
X494461Y2525299D2*
X1222682D1*
X1367487D2*
X1433789D1*
X2652068D2*
X3074988D1*
X3162018D2*
X3248021D1*
X3301034D2*
X4376507D1*
X494173Y2500430D2*
X1222682D1*
X1367487D2*
X1408921D1*
X1508655D2*
X1967853D1*
X2642488D2*
X3099856D1*
X3319012D2*
X4376220D1*
X493886Y2475562D2*
X1222682D1*
X1371290D2*
X1384052D1*
X1483787D2*
X1977362D1*
X2642488D2*
X3124723D1*
X3318402D2*
X4375933D1*
X493563Y2450693D2*
X916051D1*
X980655D2*
X1222682D1*
X1458920D2*
X2122406D1*
X2642488D2*
X3138898D1*
X3306022D2*
X4375681D1*
X493276Y2425824D2*
X902882D1*
X993824D2*
X1222682D1*
X1647025D2*
X1665995D1*
X1746997D2*
X1770777D1*
X1842235D2*
X1870786D1*
X1942207D2*
X1970795D1*
X2042217D2*
X2070769D1*
X2642488D2*
X2665980D1*
X2747018D2*
X2865999D1*
X2947001D2*
X2966008D1*
X3047010D2*
X3125944D1*
X3306022D2*
X4375395D1*
X492953Y2400955D2*
X906255D1*
X1016289D2*
X1218197D1*
X1409184D2*
X1445594D1*
X2764063D2*
X2848953D1*
X3064055D2*
X3101075D1*
X3306022D2*
X4375108D1*
X492667Y2376087D2*
X938730D1*
X1041156D2*
X1193328D1*
X1290874D2*
X1445594D1*
X2767150D2*
X2845867D1*
X3306022D2*
X4374820D1*
X492379Y2351218D2*
X966253D1*
X1063762D2*
X1168461D1*
X1268196D2*
X1445594D1*
X2758932D2*
X2854084D1*
X3306022D2*
X4374533D1*
X492056Y2326349D2*
X991121D1*
X1067495D2*
X1136381D1*
X1243327D2*
X1445594D1*
X1567398D2*
X1584825D1*
X1838000D2*
X1874984D1*
X2037983D2*
X2075003D1*
X2728178D2*
X2884837D1*
X2928161D2*
X2984811D1*
X3306022D2*
X4374247D1*
X491769Y2301480D2*
X995499D1*
X1067495D2*
X1109252D1*
X1218459D2*
X1618772D1*
X1837497D2*
X1874984D1*
X2037983D2*
X2088675D1*
X3306022D2*
X4373959D1*
X491482Y2276612D2*
X995499D1*
X1067495D2*
X1106776D1*
X1197180D2*
X1618772D1*
X1819770D2*
X1874984D1*
X2037983D2*
X2138589D1*
X2350497D2*
X2387160D1*
X3306022D2*
X3721621D1*
X3766381D2*
X3943887D1*
X3994101D2*
X4204622D1*
X4333386D2*
X4373672D1*
X491159Y2251743D2*
X995499D1*
X1067495D2*
X1115962D1*
X1187958D2*
X1618772D1*
X1794903D2*
X1884601D1*
X2037983D2*
X2142501D1*
X2350497D2*
X2387160D1*
X3306022D2*
X3319360D1*
X4078572D2*
X4204622D1*
X4333386D2*
X4373421D1*
X490871Y2226874D2*
X987425D1*
X1075568D2*
X1115962D1*
X1187958D2*
X1618772D1*
X1770035D2*
X1909470D1*
X2037983D2*
X2152693D1*
X2350497D2*
X2387160D1*
X4111012D2*
X4204622D1*
X4333386D2*
X4373134D1*
X490585Y2202005D2*
X987210D1*
X1075783D2*
X1115962D1*
X1187958D2*
X1618772D1*
X1750514D2*
X1934337D1*
X2037983D2*
X2152693D1*
X2350497D2*
X2387160D1*
X3675235D2*
X3707984D1*
X3780016D2*
X3826689D1*
X4135879D2*
X4204622D1*
X4333386D2*
X4372846D1*
X490261Y2177136D2*
X1006013D1*
X1056980D2*
X1115962D1*
X1187958D2*
X1618772D1*
X1750514D2*
X1937495D1*
X2037983D2*
X2152693D1*
X2350497D2*
X2387160D1*
X3306022D2*
X3508003D1*
X3579997D2*
X3707984D1*
X3780016D2*
X3801068D1*
X3886951D2*
X3920921D1*
X4017067D2*
X4060978D1*
X4160748D2*
X4204622D1*
X4333386D2*
X4372560D1*
X489975Y2152268D2*
X1115962D1*
X1187958D2*
X1618772D1*
X1750514D2*
X1937495D1*
X2037983D2*
X2152693D1*
X2350497D2*
X2387160D1*
X3306022D2*
X3508003D1*
X3579997D2*
X3707984D1*
X3780016D2*
X3798915D1*
X3889104D2*
X4085845D1*
X4185615D2*
X4372273D1*
X489688Y2127399D2*
X524017D1*
X639001D2*
X1115962D1*
X1187958D2*
X1618772D1*
X1751232D2*
X1784306D1*
X1857018D2*
X1936777D1*
X2051510D2*
X2154164D1*
X2351252D2*
X2387160D1*
X3306022D2*
X3508253D1*
X3597976D2*
X3707984D1*
X3780016D2*
X3812516D1*
X3875504D2*
X4110713D1*
X4210483D2*
X4371986D1*
X489365Y2102530D2*
X524017D1*
X639001D2*
X1115962D1*
X1187958D2*
X1618772D1*
X1866600D2*
X1923535D1*
X2074836D2*
X2174726D1*
X2364457D2*
X2387160D1*
X3316465D2*
X3523109D1*
X3622844D2*
X3707984D1*
X3780016D2*
X3812516D1*
X3875504D2*
X4135580D1*
X4235350D2*
X4371698D1*
X489077Y2077661D2*
X524017D1*
X639001D2*
X1115962D1*
X1187958D2*
X1618772D1*
X1761100D2*
X1780896D1*
X1860428D2*
X1926909D1*
X2076343D2*
X2199593D1*
X2361119D2*
X2387160D1*
X3408400D2*
X3547978D1*
X3687722D2*
X3707984D1*
X3780016D2*
X3812516D1*
X3875504D2*
X3916220D1*
X4021768D2*
X4160449D1*
X4291223D2*
X4371412D1*
X488790Y2052793D2*
X524017D1*
X639001D2*
X1115962D1*
X1187958D2*
X1618772D1*
X1681760D2*
X1709056D1*
X1728912D2*
X1787499D1*
X1850488D2*
X1959062D1*
X1978907D2*
X2002875D1*
X2060123D2*
X2222702D1*
X2328932D2*
X2387160D1*
X3408400D2*
X3572845D1*
X3780016D2*
X3812516D1*
X3875504D2*
X3904630D1*
X4033395D2*
X4185316D1*
X4323339D2*
X4371160D1*
X488467Y2027924D2*
X1115962D1*
X1187958D2*
X1618772D1*
X1687251D2*
X1787499D1*
X1850488D2*
X2230022D1*
X2307365D2*
X2387160D1*
X3408400D2*
X3579735D1*
X3780016D2*
X3812516D1*
X4033395D2*
X4205268D1*
X4332740D2*
X4370873D1*
X488181Y2003055D2*
X1115962D1*
X1187958D2*
X1618915D1*
X1711795D2*
X1787499D1*
X1850488D2*
X2387160D1*
X3408400D2*
X3586552D1*
X3784286D2*
X3812516D1*
X4033395D2*
X4206703D1*
X4331304D2*
X4370587D1*
X487894Y1978186D2*
X1115962D1*
X1187958D2*
X1623688D1*
X1713661D2*
X1787499D1*
X1850488D2*
X2387160D1*
X3408400D2*
X3610093D1*
X3677925D2*
X3698117D1*
X3789885D2*
X3812516D1*
X3875504D2*
X3904738D1*
X4033251D2*
X4219980D1*
X4318028D2*
X4370299D1*
X487571Y1953318D2*
X1115962D1*
X1187958D2*
X1639261D1*
X1698088D2*
X1779891D1*
X1858131D2*
X2387160D1*
X3375493D2*
X3708379D1*
X3779622D2*
X3812516D1*
X3875504D2*
X4370012D1*
X487283Y1928449D2*
X1115962D1*
X1187958D2*
X1773038D1*
X1864986D2*
X2387160D1*
X3375493D2*
X3812516D1*
X3875504D2*
X4369724D1*
X486961Y1903580D2*
X597508D1*
X640509D2*
X1106094D1*
X1197827D2*
X1597492D1*
X1640493D2*
X1749210D1*
X1856157D2*
X2387160D1*
X3375493D2*
X3812516D1*
X3875504D2*
X4369438D1*
X486673Y1878711D2*
X575403D1*
X1662598D2*
X1724343D1*
X1811374D2*
X2387160D1*
X3375493D2*
X3812516D1*
X3875504D2*
X4369151D1*
X486386Y1853843D2*
X574327D1*
X1663675D2*
X1699475D1*
X1786507D2*
X2387160D1*
X3375493D2*
X3812516D1*
X3875504D2*
X4368900D1*
X486063Y1828974D2*
X591336D1*
X646681D2*
X1344042D1*
X1391996D2*
X1591320D1*
X1646665D2*
X1674608D1*
X1761639D2*
X2387160D1*
X3375493D2*
X3812516D1*
X3875504D2*
X4368613D1*
X485777Y1804105D2*
X1324018D1*
X1736770D2*
X2387160D1*
X3375493D2*
X3812516D1*
X3875504D2*
X4368325D1*
X485490Y1779236D2*
X1323696D1*
X1711903D2*
X2387160D1*
X3375493D2*
X3812516D1*
X3875504D2*
X4368038D1*
X485167Y1754367D2*
X1342320D1*
X1393753D2*
X2387160D1*
X3376248D2*
X3812516D1*
X3875504D2*
X4367752D1*
X484879Y1729499D2*
X2387160D1*
X3389453D2*
X3812516D1*
X3875504D2*
X4367465D1*
X484592Y1704630D2*
X2387160D1*
X3386080D2*
X3812516D1*
X3875504D2*
X4367177D1*
X484269Y1679761D2*
X2388093D1*
X3874535D2*
X4366890D1*
X535690Y2661496D2*
X636496D1*
Y2551504D1*
X526504D1*
Y2661496D1*
X535690D1*
Y2148996D2*
X636496D1*
Y2039004D1*
X526504D1*
Y2148996D1*
X535690D1*
X1488106Y3036890D2*
X1561890D1*
Y3014319D1*
X1567333Y3020667D1*
X1573942Y3026311D1*
X1581353Y3030853D1*
X1589383Y3034178D1*
X1597835Y3036207D1*
X1606500Y3036890D1*
X1615165Y3036207D1*
X1623617Y3034178D1*
X1631647Y3030853D1*
X1639058Y3026311D1*
X1645667Y3020667D1*
X1651311Y3014058D1*
X1655853Y3006647D1*
X1656486Y3005273D1*
X1659273Y3010441D1*
X1664382Y3017472D1*
X1670528Y3023618D1*
X1677559Y3028727D1*
X1685303Y3032673D1*
X1693570Y3035360D1*
X1702154Y3036719D1*
X1710846D1*
X1719430Y3035360D1*
X1727697Y3032673D1*
X1735441Y3028727D1*
X1742472Y3023618D1*
X1748618Y3017472D1*
X1753727Y3010441D1*
X1756486Y3005273D1*
X1759273Y3010441D1*
X1764382Y3017472D1*
X1770528Y3023618D1*
X1777559Y3028727D1*
X1785303Y3032673D1*
X1793570Y3035360D1*
X1802154Y3036719D1*
X1810846D1*
X1819430Y3035360D1*
X1827697Y3032673D1*
X1835441Y3028727D1*
X1842472Y3023618D1*
X1848618Y3017472D1*
X1853727Y3010441D1*
X1856486Y3005273D1*
X1859273Y3010441D1*
X1864382Y3017472D1*
X1870528Y3023618D1*
X1877559Y3028727D1*
X1885303Y3032673D1*
X1893570Y3035360D1*
X1902154Y3036719D1*
X1910846D1*
X1919430Y3035360D1*
X1927697Y3032673D1*
X1935441Y3028727D1*
X1942472Y3023618D1*
X1948618Y3017472D1*
X1953727Y3010441D1*
X1956486Y3005273D1*
X1959273Y3010441D1*
X1964382Y3017472D1*
X1970528Y3023618D1*
X1977559Y3028727D1*
X1985303Y3032673D1*
X1993570Y3035360D1*
X2002154Y3036719D1*
X2010846D1*
X2019430Y3035360D1*
X2027697Y3032673D1*
X2035441Y3028727D1*
X2042472Y3023618D1*
X2048618Y3017472D1*
X2053727Y3010441D1*
X2056486Y3005273D1*
X2059273Y3010441D1*
X2064382Y3017472D1*
X2070528Y3023618D1*
X2077559Y3028727D1*
X2085303Y3032673D1*
X2093570Y3035360D1*
X2102154Y3036719D1*
X2110846D1*
X2119430Y3035360D1*
X2127697Y3032673D1*
X2135441Y3028727D1*
X2142472Y3023618D1*
X2148618Y3017472D1*
X2153727Y3010441D1*
X2156486Y3005273D1*
X2159273Y3010441D1*
X2164382Y3017472D1*
X2170528Y3023618D1*
X2177559Y3028727D1*
X2185303Y3032673D1*
X2193570Y3035360D1*
X2202154Y3036719D1*
X2210846D1*
X2219430Y3035360D1*
X2227697Y3032673D1*
X2235441Y3028727D1*
X2242472Y3023618D1*
X2248618Y3017472D1*
X2253727Y3010441D1*
X2256486Y3005273D1*
X2259273Y3010441D1*
X2264382Y3017472D1*
X2270528Y3023618D1*
X2277559Y3028727D1*
X2285303Y3032673D1*
X2293570Y3035360D1*
X2302154Y3036719D1*
X2310252Y3036743D1*
X2231999Y3114988D1*
X2165306Y3115000D1*
X2161136Y3110923D1*
X2155614Y3106911D1*
X2149533Y3103811D1*
X2143041Y3101702D1*
X2136299Y3100634D1*
X2129472D1*
X2122731Y3101702D1*
X2116239Y3103811D1*
X2110157Y3106911D1*
X2104635Y3110923D1*
X2099808Y3115749D1*
X2095797Y3121272D1*
X2092697Y3127353D1*
X2090588Y3133845D1*
X2089520Y3140587D1*
Y3147413D1*
X2090588Y3154155D1*
X2092697Y3160647D1*
X2095797Y3166728D1*
X2099808Y3172251D1*
X2104635Y3177077D1*
X2110157Y3181089D1*
X2116239Y3184189D1*
X2122731Y3186298D1*
X2129472Y3187366D1*
X2136299D1*
X2143041Y3186298D1*
X2149533Y3184189D1*
X2155614Y3181089D1*
X2161136Y3177077D1*
X2165266Y3173005D1*
X2246276Y3172911D1*
X2250770Y3172198D1*
X2255098Y3170793D1*
X2259152Y3168727D1*
X2262835Y3166051D1*
X2322967Y3106045D1*
X2393634Y3035378D1*
X2402154Y3036719D1*
X2410846D1*
X2419430Y3035360D1*
X2427697Y3032673D1*
X2435441Y3028727D1*
X2442472Y3023618D1*
X2448618Y3017472D1*
X2453727Y3010441D1*
X2456486Y3005273D1*
X2459273Y3010441D1*
X2464382Y3017472D1*
X2470528Y3023618D1*
X2477488Y3028680D1*
X2477500Y3182559D1*
X2473423Y3186749D1*
X2469411Y3192272D1*
X2466311Y3198353D1*
X2464202Y3204845D1*
X2463134Y3211587D1*
Y3218413D1*
X2464202Y3225155D1*
X2466311Y3231647D1*
X2469411Y3237728D1*
X2473423Y3243251D1*
X2478249Y3248077D1*
X2483772Y3252089D1*
X2489853Y3255189D1*
X2496345Y3257298D1*
X2503087Y3258366D1*
X2509913D1*
X2516655Y3257298D1*
X2523147Y3255189D1*
X2529228Y3252089D1*
X2534751Y3248077D1*
X2539577Y3243251D1*
X2543589Y3237728D1*
X2546689Y3231647D1*
X2548798Y3225155D1*
X2549866Y3218413D1*
Y3211587D1*
X2548798Y3204845D1*
X2546689Y3198353D1*
X2543589Y3192272D1*
X2539577Y3186749D1*
X2535505Y3182619D1*
X2535500Y3028726D1*
X2542472Y3023618D1*
X2548618Y3017472D1*
X2553727Y3010441D1*
X2557673Y3002697D1*
X2560360Y2994430D1*
X2561719Y2985846D1*
Y2977154D1*
X2560360Y2968570D1*
X2557673Y2960303D1*
X2553727Y2952559D1*
X2548618Y2945528D1*
X2542472Y2939382D1*
X2535441Y2934273D1*
X2527697Y2930327D1*
X2519430Y2927640D1*
X2510846Y2926281D1*
X2502154D1*
X2493570Y2927640D1*
X2485303Y2930327D1*
X2477559Y2934273D1*
X2470528Y2939382D1*
X2464382Y2945528D1*
X2459273Y2952559D1*
X2456514Y2957727D1*
X2453727Y2952559D1*
X2448618Y2945528D1*
X2442472Y2939382D1*
X2435441Y2934273D1*
X2427697Y2930327D1*
X2419430Y2927640D1*
X2410846Y2926281D1*
X2402154D1*
X2393570Y2927640D1*
X2385303Y2930327D1*
X2377559Y2934273D1*
X2370528Y2939382D1*
X2364382Y2945528D1*
X2359273Y2952559D1*
X2356514Y2957727D1*
X2353727Y2952559D1*
X2348618Y2945528D1*
X2342472Y2939382D1*
X2335441Y2934273D1*
X2327697Y2930327D1*
X2319430Y2927640D1*
X2310846Y2926281D1*
X2302154D1*
X2293570Y2927640D1*
X2285303Y2930327D1*
X2277559Y2934273D1*
X2270528Y2939382D1*
X2264382Y2945528D1*
X2259273Y2952559D1*
X2256514Y2957727D1*
X2253727Y2952559D1*
X2248618Y2945528D1*
X2242472Y2939382D1*
X2235441Y2934273D1*
X2227697Y2930327D1*
X2219430Y2927640D1*
X2210846Y2926281D1*
X2202154D1*
X2193570Y2927640D1*
X2185303Y2930327D1*
X2177559Y2934273D1*
X2170528Y2939382D1*
X2164382Y2945528D1*
X2159273Y2952559D1*
X2156514Y2957727D1*
X2153727Y2952559D1*
X2148618Y2945528D1*
X2142472Y2939382D1*
X2135441Y2934273D1*
X2127697Y2930327D1*
X2119430Y2927640D1*
X2110846Y2926281D1*
X2102154D1*
X2093570Y2927640D1*
X2085303Y2930327D1*
X2077559Y2934273D1*
X2070528Y2939382D1*
X2064382Y2945528D1*
X2059273Y2952559D1*
X2056514Y2957727D1*
X2053727Y2952559D1*
X2048618Y2945528D1*
X2042472Y2939382D1*
X2035441Y2934273D1*
X2027697Y2930327D1*
X2019430Y2927640D1*
X2010846Y2926281D1*
X2002154D1*
X1993570Y2927640D1*
X1985303Y2930327D1*
X1977559Y2934273D1*
X1970528Y2939382D1*
X1964382Y2945528D1*
X1959273Y2952559D1*
X1956514Y2957727D1*
X1953727Y2952559D1*
X1948618Y2945528D1*
X1942472Y2939382D1*
X1937178Y2935433D1*
X1954080Y2918524D1*
X1959913Y2918457D1*
X1966655Y2917388D1*
X1973147Y2915280D1*
X1979228Y2912181D1*
X1984751Y2908169D1*
X1989577Y2903343D1*
X1993589Y2897820D1*
X1996689Y2891738D1*
X1998798Y2885245D1*
X1999866Y2878504D1*
Y2871678D1*
X1998798Y2864936D1*
X1996689Y2858445D1*
X1993589Y2852362D1*
X1990164Y2847584D1*
X2103980Y2847497D1*
X2108475Y2846786D1*
X2112803Y2845379D1*
X2116857Y2843314D1*
X2120539Y2840639D1*
X2180673Y2780631D1*
X2325685Y2635619D1*
X2325020Y2640587D1*
Y2647413D1*
X2326088Y2654155D1*
X2328197Y2660647D1*
X2331297Y2666728D1*
X2335308Y2672251D1*
X2340135Y2677077D1*
X2345657Y2681089D1*
X2351739Y2684189D1*
X2358231Y2686298D1*
X2364972Y2687366D1*
X2371799D1*
X2378541Y2686298D1*
X2385033Y2684189D1*
X2391114Y2681089D1*
X2396102Y2677499D1*
X3152923Y2677500D1*
X3156504Y2681496D1*
X3162831Y2686900D1*
X3169927Y2691248D1*
X3177614Y2694432D1*
X3185705Y2696375D1*
X3194000Y2697028D1*
X3202295Y2696375D1*
X3210386Y2694432D1*
X3218073Y2691248D1*
X3225169Y2686900D1*
X3231496Y2681496D1*
X3236900Y2675169D1*
X3241248Y2668073D1*
X3244432Y2660386D1*
X3246375Y2652295D1*
X3247028Y2644000D1*
X3246375Y2635705D1*
X3244432Y2627614D1*
X3241248Y2619927D1*
X3236900Y2612831D1*
X3231496Y2606504D1*
X3225169Y2601100D1*
X3218073Y2596752D1*
X3210386Y2593568D1*
X3202295Y2591625D1*
X3194000Y2590972D1*
X3185705Y2591625D1*
X3177614Y2593568D1*
X3169927Y2596752D1*
X3162831Y2601100D1*
X3156504Y2606504D1*
X3152942Y2610493D1*
X2396115Y2610500D1*
X2391114Y2606911D1*
X2385033Y2603811D1*
X2378541Y2601702D1*
X2371799Y2600634D1*
X2364972D1*
X2359945Y2601361D1*
X2365319Y2595986D1*
X3079075Y2595911D1*
X3083570Y2595199D1*
X3087896Y2593793D1*
X3091951Y2591727D1*
X3095633Y2589052D1*
X3155766Y2529045D1*
X3166804Y2518007D1*
X3220303Y2517942D1*
X3224798Y2517230D1*
X3229126Y2515824D1*
X3233181Y2513757D1*
X3236869Y2511077D1*
X3241450Y2517280D1*
X3246277Y2522106D1*
X3251799Y2526118D1*
X3257882Y2529217D1*
X3264373Y2531325D1*
X3271115Y2532394D1*
X3277941D1*
X3284682Y2531325D1*
X3291175Y2529217D1*
X3297257Y2526118D1*
X3302780Y2522106D1*
X3307606Y2517280D1*
X3311618Y2511757D1*
X3314717Y2505675D1*
X3316825Y2499182D1*
X3317894Y2492441D1*
Y2485615D1*
X3316825Y2478873D1*
X3314717Y2472382D1*
X3311618Y2466299D1*
X3307606Y2460777D1*
X3303533Y2456648D1*
X3303528Y2112997D1*
X3323123Y2093390D1*
X3405886Y2093386D1*
Y1969614D1*
X3372980D1*
X3373000Y1755084D1*
X3377077Y1750892D1*
X3381089Y1745370D1*
X3384189Y1739289D1*
X3386298Y1732797D1*
X3387366Y1726055D1*
Y1719230D1*
X3386298Y1712487D1*
X3384189Y1705995D1*
X3381089Y1699913D1*
X3377664Y1695135D1*
X3810969Y1695142D1*
X3815000Y1705514D1*
Y2128697D1*
X3810923Y2132856D1*
X3806911Y2138378D1*
X3803811Y2144459D1*
X3801702Y2150951D1*
X3800634Y2157693D1*
Y2164518D1*
X3801702Y2171261D1*
X3803811Y2177753D1*
X3806911Y2183835D1*
X3810923Y2189357D1*
X3815749Y2194184D1*
X3821272Y2198196D1*
X3827353Y2201295D1*
X3833845Y2203404D1*
X3840097Y2204413D1*
X3777465D1*
X3777500Y2009223D1*
X3781089Y2004228D1*
X3784189Y1998147D1*
X3786298Y1991655D1*
X3787366Y1984913D1*
Y1978087D1*
X3786298Y1971345D1*
X3784189Y1964853D1*
X3781089Y1958772D1*
X3777077Y1953249D1*
X3772251Y1948423D1*
X3766728Y1944411D1*
X3760647Y1941311D1*
X3754155Y1939202D1*
X3747413Y1938134D1*
X3740587D1*
X3733845Y1939202D1*
X3727353Y1941311D1*
X3721272Y1944411D1*
X3715749Y1948423D1*
X3710923Y1953249D1*
X3706911Y1958772D1*
X3703811Y1964853D1*
X3701702Y1971345D1*
X3700634Y1978087D1*
Y1984913D1*
X3701702Y1991655D1*
X3703811Y1998147D1*
X3706911Y2004228D1*
X3710501Y2009217D1*
X3710500Y2204449D1*
X3675138Y2204413D1*
X3670537Y2199940D1*
X3666283Y2196849D1*
X3661600Y2194463D1*
X3656601Y2192839D1*
X3651408Y2192016D1*
X3593661Y2191913D1*
X3577478D1*
X3577500Y2145356D1*
X3630895Y2091982D1*
X3639144Y2093196D1*
X3648856D1*
X3658448Y2091676D1*
X3667682Y2088675D1*
X3676335Y2084266D1*
X3684192Y2078558D1*
X3691058Y2071692D1*
X3696766Y2063835D1*
X3701175Y2055182D1*
X3704176Y2045948D1*
X3705696Y2036356D1*
Y2026644D1*
X3704176Y2017052D1*
X3701175Y2007818D1*
X3696766Y1999165D1*
X3691058Y1991308D1*
X3684192Y1984442D1*
X3676335Y1978734D1*
X3667682Y1974325D1*
X3658448Y1971324D1*
X3648856Y1969804D1*
X3639144D1*
X3629552Y1971324D1*
X3620318Y1974325D1*
X3611665Y1978734D1*
X3603808Y1984442D1*
X3596942Y1991308D1*
X3591234Y1999165D1*
X3586825Y2007818D1*
X3583824Y2017052D1*
X3582304Y2026644D1*
Y2036356D1*
X3583554Y2044588D1*
X3518526Y2109743D1*
X3515437Y2113996D1*
X3513050Y2118680D1*
X3511425Y2123680D1*
X3510604Y2128871D1*
X3510500Y2191894D1*
X3384280Y2191913D1*
X3379228Y2188323D1*
X3373147Y2185224D1*
X3366655Y2183115D1*
X3359913Y2182047D1*
X3353087D1*
X3346345Y2183115D1*
X3339853Y2185224D1*
X3333772Y2188323D1*
X3328249Y2192336D1*
X3323423Y2197161D1*
X3319411Y2202684D1*
X3316311Y2208766D1*
X3314202Y2215259D1*
X3313134Y2222000D1*
Y2228825D1*
X3314202Y2235568D1*
X3316311Y2242060D1*
X3319411Y2248142D1*
X3323423Y2253664D1*
X3328249Y2258491D1*
X3333772Y2262503D1*
X3339853Y2265602D1*
X3346345Y2267711D1*
X3353087Y2268780D1*
X3359913D1*
X3366655Y2267711D1*
X3373147Y2265602D1*
X3379228Y2262503D1*
X3384217Y2258912D1*
X3516220Y2258913D1*
X3521272Y2262503D1*
X3527353Y2265602D1*
X3533845Y2267711D1*
X3540587Y2268780D1*
X3547413D1*
X3554155Y2267711D1*
X3560647Y2265602D1*
X3566728Y2262503D1*
X3571717Y2258912D1*
X3635092Y2259101D1*
X3639524Y2263387D1*
X3643776Y2266476D1*
X3648461Y2268864D1*
X3653459Y2270487D1*
X3658652Y2271310D1*
X3716219Y2271413D1*
X3721272Y2275003D1*
X3727353Y2278102D1*
X3733845Y2280211D1*
X3740587Y2281280D1*
X3747413D1*
X3754155Y2280211D1*
X3760647Y2278102D1*
X3766728Y2275003D1*
X3771717Y2271412D1*
X3873786Y2271310D1*
X3878979Y2270487D1*
X3883978Y2268864D1*
X3888661Y2266476D1*
X3892915Y2263387D1*
X3903955Y2252492D1*
X3916949Y2252500D1*
X3921942Y2259192D1*
X3928808Y2266058D1*
X3936665Y2271766D1*
X3945318Y2276175D1*
X3954552Y2279176D1*
X3964144Y2280696D1*
X3973856D1*
X3983448Y2279176D1*
X3992682Y2276175D1*
X4001335Y2271766D1*
X4009192Y2266058D1*
X4016058Y2259192D1*
X4020996Y2252487D1*
X4071629Y2252396D1*
X4076820Y2251575D1*
X4081820Y2249950D1*
X4086504Y2247563D1*
X4090756Y2244474D1*
X4131663Y2203714D1*
X4255919Y2079458D1*
X4264144Y2080696D1*
X4273856D1*
X4283448Y2079176D1*
X4292682Y2076175D1*
X4301335Y2071766D1*
X4309192Y2066058D1*
X4316058Y2059192D1*
X4321766Y2051335D1*
X4326175Y2042682D1*
X4329176Y2033448D1*
X4330696Y2023856D1*
Y2014144D1*
X4329176Y2004552D1*
X4326175Y1995318D1*
X4321766Y1986665D1*
X4316058Y1978808D1*
X4309192Y1971942D1*
X4301335Y1966234D1*
X4292682Y1961825D1*
X4283448Y1958824D1*
X4273856Y1957304D1*
X4264144D1*
X4254552Y1958824D1*
X4245318Y1961825D1*
X4236665Y1966234D1*
X4228808Y1971942D1*
X4221942Y1978808D1*
X4216234Y1986665D1*
X4211825Y1995318D1*
X4208824Y2004552D1*
X4207304Y2014144D1*
Y2023856D1*
X4208554Y2032088D1*
X4055134Y2185490D1*
X4021022Y2185500D1*
X4016058Y2178808D1*
X4009192Y2171942D1*
X4001335Y2166234D1*
X3992682Y2161825D1*
X3983448Y2158824D1*
X3973856Y2157304D1*
X3964144D1*
X3954552Y2158824D1*
X3945318Y2161825D1*
X3936665Y2166234D1*
X3928808Y2171942D1*
X3921942Y2178808D1*
X3917004Y2185513D1*
X3887442Y2185604D1*
X3882251Y2186425D1*
X3879709Y2187143D1*
X3879192Y2186675D1*
X3882759Y2180854D1*
X3885371Y2174549D1*
X3886965Y2167911D1*
X3887500Y2161106D1*
X3886965Y2154301D1*
X3885371Y2147664D1*
X3882759Y2141357D1*
X3879192Y2135537D1*
X3874759Y2130346D1*
X3873005Y2128726D1*
X3873000Y2048035D1*
X3907121Y2048000D1*
X3907186Y2059230D1*
X3908264Y2064648D1*
X3910577Y2069664D1*
X3913997Y2074003D1*
X3918336Y2077423D1*
X3923352Y2079736D1*
X3928770Y2080814D1*
X4007386Y2080886D1*
X4012871Y2080236D1*
X4018055Y2078324D1*
X4022648Y2075256D1*
X4026398Y2071199D1*
X4029097Y2066379D1*
X4030597Y2061062D1*
X4030886Y2057386D1*
X4030814Y1978770D1*
X4029736Y1973352D1*
X4027423Y1968336D1*
X4024003Y1963997D1*
X4019664Y1960577D1*
X4014648Y1958264D1*
X4009230Y1957186D1*
X3930614Y1957114D1*
X3925129Y1957764D1*
X3919945Y1959676D1*
X3915352Y1962744D1*
X3911602Y1966801D1*
X3908903Y1971621D1*
X3907403Y1976938D1*
X3907114Y1980621D1*
Y1989980D1*
X3873009Y1990000D1*
X3872911Y1684866D1*
X3872199Y1680373D1*
X3870793Y1676045D1*
X3868727Y1671990D1*
X3866052Y1668308D1*
X3856056Y1658186D1*
X4369164Y1656539D1*
X4381354Y2731255D1*
X3729778Y2719119D1*
X3726936Y2719864D1*
X3724345Y2721251D1*
X3722150Y2723203D1*
X3720471Y2725615D1*
X3719403Y2728353D1*
X3719003Y2731268D1*
X3731341Y3706517D1*
X506325Y3718953D1*
X481651Y1668984D1*
X2401932Y1662824D1*
X2396602Y1668308D1*
X2393928Y1671990D1*
X2391861Y1676045D1*
X2390455Y1680373D1*
X2389743Y1684866D1*
X2389654Y1769819D1*
Y2294123D1*
X2379281Y2298154D1*
X2344940D1*
X2346581Y2294115D1*
X2347643Y2289690D1*
X2348000Y2285146D1*
Y2128089D1*
X2352077Y2123906D1*
X2356089Y2118383D1*
X2359189Y2112301D1*
X2361298Y2105808D1*
X2362366Y2099067D1*
Y2092241D1*
X2361298Y2085499D1*
X2359189Y2079008D1*
X2356089Y2072925D1*
X2352077Y2067403D1*
X2347251Y2062576D1*
X2341728Y2058564D1*
X2335647Y2055466D1*
X2329155Y2053356D1*
X2322413Y2052289D1*
X2315587D1*
X2312182Y2052692D1*
X2311650Y2045286D1*
X2310056Y2038648D1*
X2307444Y2032343D1*
X2303877Y2026522D1*
X2299444Y2021332D1*
X2294253Y2016899D1*
X2288433Y2013332D1*
X2282127Y2010720D1*
X2275490Y2009126D1*
X2268685Y2008591D1*
X2261881Y2009126D1*
X2255243Y2010720D1*
X2248937Y2013332D1*
X2243117Y2016899D1*
X2237927Y2021332D1*
X2233492Y2026522D1*
X2229927Y2032343D1*
X2227314Y2038648D1*
X2225720Y2045286D1*
X2225185Y2052091D1*
X2225278Y2054478D1*
X2162133Y2117757D1*
X2159458Y2121438D1*
X2157392Y2125493D1*
X2155986Y2129822D1*
X2155274Y2134316D1*
X2155185Y2219268D1*
Y2238251D1*
X2151108Y2242403D1*
X2147096Y2247925D1*
X2143996Y2254008D1*
X2141887Y2260499D1*
X2140819Y2267241D1*
Y2274067D1*
X2141185Y2277154D1*
X2125224Y2277243D1*
X2120730Y2277955D1*
X2116402Y2279361D1*
X2112348Y2281428D1*
X2108665Y2284102D1*
X2085993Y2306648D1*
X2083038Y2310108D1*
X2080660Y2313988D1*
X2078919Y2318193D1*
X2077857Y2322617D1*
X2077500Y2327154D1*
Y2334295D1*
X2070528Y2339382D1*
X2064382Y2345528D1*
X2059273Y2352559D1*
X2056514Y2357727D1*
X2053727Y2352559D1*
X2048618Y2345528D1*
X2042472Y2339382D1*
X2035512Y2334320D1*
X2035500Y2130921D1*
X2041655Y2129885D1*
X2048147Y2127776D1*
X2054228Y2124677D1*
X2059751Y2120664D1*
X2064577Y2115839D1*
X2068589Y2110316D1*
X2071689Y2104234D1*
X2073798Y2097741D1*
X2074866Y2091000D1*
Y2084175D1*
X2073798Y2077432D1*
X2071689Y2070940D1*
X2068589Y2064858D1*
X2064577Y2059336D1*
X2059751Y2054509D1*
X2054228Y2050497D1*
X2048147Y2047398D1*
X2041655Y2045289D1*
X2034913Y2044220D1*
X2028087D1*
X2021345Y2045289D1*
X2014853Y2047398D1*
X2008772Y2050497D1*
X2003249Y2054509D1*
X1998423Y2059336D1*
X1996415Y2061882D1*
X1991728Y2058564D1*
X1985647Y2055466D1*
X1979155Y2053356D1*
X1972413Y2052289D1*
X1965587D1*
X1958845Y2053356D1*
X1952353Y2055466D1*
X1946272Y2058564D1*
X1940749Y2062576D1*
X1935923Y2067403D1*
X1931911Y2072925D1*
X1928811Y2079008D1*
X1926702Y2085499D1*
X1925634Y2092241D1*
Y2099067D1*
X1926702Y2105808D1*
X1928811Y2112301D1*
X1931911Y2118383D1*
X1935923Y2123906D1*
X1939995Y2128034D1*
X1940000Y2198822D1*
X1884449Y2254531D1*
X1881773Y2258214D1*
X1879707Y2262268D1*
X1878302Y2266596D1*
X1877589Y2271091D1*
X1877500Y2334333D1*
X1870528Y2339382D1*
X1864382Y2345528D1*
X1859273Y2352559D1*
X1856514Y2357727D1*
X1853727Y2352559D1*
X1848618Y2345528D1*
X1842472Y2339382D1*
X1835512Y2334320D1*
X1835411Y2304587D1*
X1834698Y2300092D1*
X1833293Y2295764D1*
X1831227Y2291710D1*
X1828551Y2288028D1*
X1768545Y2227894D1*
X1748017Y2207366D1*
X1748000Y2128109D1*
X1752077Y2123906D1*
X1756089Y2118383D1*
X1759189Y2112301D1*
X1761298Y2105808D1*
X1762366Y2099067D1*
Y2092241D1*
X1761298Y2085499D1*
X1759189Y2079008D1*
X1756089Y2072925D1*
X1752077Y2067403D1*
X1747251Y2062576D1*
X1741728Y2058564D1*
X1735647Y2055466D1*
X1729155Y2053356D1*
X1722413Y2052289D1*
X1715587D1*
X1708845Y2053356D1*
X1702353Y2055466D1*
X1696272Y2058564D1*
X1690749Y2062576D1*
X1685923Y2067403D1*
X1681911Y2072925D1*
X1679264Y2078026D1*
Y2029705D1*
X1685332Y2027685D1*
X1691413Y2024585D1*
X1696936Y2020573D1*
X1701762Y2015747D1*
X1705774Y2010224D1*
X1708874Y2004143D1*
X1710983Y1997651D1*
X1712051Y1990909D1*
Y1984083D1*
X1710983Y1977341D1*
X1708874Y1970849D1*
X1705774Y1964768D1*
X1701762Y1959245D1*
X1696936Y1954419D1*
X1691413Y1950406D1*
X1685332Y1947307D1*
X1678840Y1945198D1*
X1672098Y1944130D1*
X1665272D1*
X1658530Y1945198D1*
X1652038Y1947307D1*
X1645957Y1950406D1*
X1640434Y1954419D1*
X1635608Y1959245D1*
X1631596Y1964768D1*
X1628496Y1970849D1*
X1626387Y1977341D1*
X1625319Y1984083D1*
X1625340Y1991081D1*
X1623471Y1994819D1*
X1622066Y1999147D1*
X1621353Y2003642D1*
X1621264Y2088594D1*
Y2301710D1*
X1617186Y2305860D1*
X1613175Y2311382D1*
X1610075Y2317463D1*
X1608194Y2323146D1*
X1601919Y2323290D1*
X1592869Y2324723D1*
X1584155Y2327555D1*
X1575991Y2331714D1*
X1568579Y2337100D1*
X1564885Y2340567D1*
X1564890Y2323110D1*
X1448110D1*
Y2439890D1*
X1564890D1*
Y2422486D1*
X1572180Y2428739D1*
X1579992Y2433526D1*
X1588457Y2437031D1*
X1597366Y2439171D1*
X1606500Y2439890D1*
X1615634Y2439171D1*
X1624543Y2437031D1*
X1633008Y2433526D1*
X1640820Y2428739D1*
X1647787Y2422787D1*
X1653739Y2415820D1*
X1656487Y2411650D1*
X1662100Y2419421D1*
X1668579Y2425900D1*
X1675991Y2431286D1*
X1684155Y2435445D1*
X1692869Y2438277D1*
X1701919Y2439710D1*
X1711081D1*
X1720131Y2438277D1*
X1728845Y2435445D1*
X1737009Y2431286D1*
X1744421Y2425900D1*
X1750900Y2419421D1*
X1756286Y2412009D1*
X1758202Y2408587D1*
X1761689Y2414058D1*
X1767333Y2420667D1*
X1773942Y2426311D1*
X1781353Y2430853D1*
X1789383Y2434178D1*
X1797835Y2436207D1*
X1806500Y2436890D1*
X1815165Y2436207D1*
X1823617Y2434178D1*
X1831647Y2430853D1*
X1839058Y2426311D1*
X1845667Y2420667D1*
X1851311Y2414058D1*
X1855853Y2406647D1*
X1856486Y2405273D1*
X1859273Y2410441D1*
X1864382Y2417472D1*
X1870528Y2423618D1*
X1877559Y2428727D1*
X1885303Y2432673D1*
X1893570Y2435360D1*
X1902154Y2436719D1*
X1910846D1*
X1919430Y2435360D1*
X1927697Y2432673D1*
X1935441Y2428727D1*
X1942472Y2423618D1*
X1948618Y2417472D1*
X1953727Y2410441D1*
X1956486Y2405273D1*
X1959273Y2410441D1*
X1964382Y2417472D1*
X1970528Y2423618D1*
X1977559Y2428727D1*
X1985303Y2432673D1*
X1993570Y2435360D1*
X2002154Y2436719D1*
X2010846D1*
X2019430Y2435360D1*
X2027697Y2432673D1*
X2035441Y2428727D1*
X2042472Y2423618D1*
X2048618Y2417472D1*
X2053727Y2410441D1*
X2056486Y2405273D1*
X2059273Y2410441D1*
X2064382Y2417472D1*
X2070528Y2423618D1*
X2077559Y2428727D1*
X2085303Y2432673D1*
X2093570Y2435360D1*
X2102154Y2436719D1*
X2110846D1*
X2119430Y2435360D1*
X2124875Y2433714D1*
X2124890Y2469765D1*
X2114517Y2473783D1*
X2046230D1*
X2042050Y2469705D1*
X2036528Y2465693D1*
X2030446Y2462594D1*
X2023954Y2460486D1*
X2017213Y2459417D1*
X2010386D1*
X2003644Y2460486D1*
X1997152Y2462594D1*
X1991071Y2465693D1*
X1985549Y2469705D1*
X1980722Y2474531D1*
X1976709Y2480054D1*
X1973610Y2486136D1*
X1971501Y2492629D1*
X1970433Y2499370D1*
Y2506196D1*
X1970798Y2509283D1*
X1515052D1*
X1393257Y2387664D1*
X1389004Y2384575D1*
X1384320Y2382188D1*
X1379320Y2380563D1*
X1374129Y2379741D1*
X1316382Y2379638D1*
X1290007D1*
X1287248Y2374075D1*
X1284159Y2369823D1*
X1243399Y2328916D1*
X1195264Y2280782D1*
X1194270Y2274711D1*
X1192160Y2268219D1*
X1189062Y2262138D1*
X1185471Y2257150D1*
X1185472Y1927854D1*
X1189062Y1922862D1*
X1192160Y1916781D1*
X1194270Y1910289D1*
X1195337Y1903547D1*
Y1896720D1*
X1194950Y1893449D1*
X1586546Y1893453D1*
X1590749Y1897530D1*
X1596272Y1901543D1*
X1602353Y1904642D1*
X1608845Y1906751D1*
X1615587Y1907819D1*
X1622413D1*
X1629155Y1906751D1*
X1635647Y1904642D1*
X1641728Y1901543D1*
X1647251Y1897530D1*
X1652077Y1892703D1*
X1656089Y1887181D1*
X1659189Y1881100D1*
X1661298Y1874608D1*
X1662366Y1867866D1*
Y1861041D1*
X1661298Y1854298D1*
X1659189Y1847806D1*
X1656089Y1841724D1*
X1652077Y1836202D1*
X1647251Y1831375D1*
X1641728Y1827364D1*
X1635647Y1824264D1*
X1629155Y1822155D1*
X1622413Y1821087D1*
X1615587D1*
X1608845Y1822155D1*
X1602353Y1824264D1*
X1596272Y1827364D1*
X1590749Y1831375D1*
X1586619Y1835448D1*
X651454Y1835453D1*
X647251Y1831375D1*
X641728Y1827364D1*
X635647Y1824264D1*
X629155Y1822155D1*
X622413Y1821087D1*
X615587D1*
X608845Y1822155D1*
X602353Y1824264D1*
X596272Y1827364D1*
X590749Y1831375D1*
X585923Y1836202D1*
X581911Y1841724D1*
X578811Y1847806D1*
X576702Y1854298D1*
X575634Y1861041D1*
Y1867866D1*
X576702Y1874608D1*
X578811Y1881100D1*
X581911Y1887181D1*
X585923Y1892703D1*
X590749Y1897530D1*
X596272Y1901543D1*
X602353Y1904642D1*
X608845Y1906751D1*
X615587Y1907819D1*
X622413D1*
X629155Y1906751D1*
X635647Y1904642D1*
X641728Y1901543D1*
X647251Y1897530D1*
X651381Y1893458D1*
X1108999Y1893453D1*
X1108472Y1900134D1*
X1109008Y1906938D1*
X1110601Y1913576D1*
X1113213Y1919883D1*
X1116780Y1925702D1*
X1118472Y1927850D1*
Y2257146D1*
X1114882Y2262138D1*
X1111783Y2268219D1*
X1109675Y2274711D1*
X1108606Y2281453D1*
Y2288280D1*
X1109675Y2295021D1*
X1111783Y2301513D1*
X1114882Y2307594D1*
X1118894Y2313117D1*
X1123720Y2317944D1*
X1129243Y2321955D1*
X1135325Y2325055D1*
X1141818Y2327164D1*
X1147883Y2328152D1*
X1225188Y2405457D1*
X1225185Y2686009D1*
X1218685Y2685504D1*
X1211881Y2686039D1*
X1205243Y2687633D1*
X1198937Y2690245D1*
X1193117Y2693812D1*
X1187927Y2698245D1*
X1183492Y2703436D1*
X1179927Y2709256D1*
X1177314Y2715562D1*
X1176306Y2719255D1*
X1134203Y2677143D1*
X1134102Y2647942D1*
X1133280Y2642751D1*
X1131655Y2637751D1*
X1129269Y2633067D1*
X1126178Y2628815D1*
X1094394Y2596883D1*
X1090396Y2593469D1*
X1085913Y2590722D1*
X1081058Y2588710D1*
X1075946Y2587483D1*
X1070705Y2587071D1*
X1021371Y2587175D1*
X1016180Y2587996D1*
X1011180Y2589621D1*
X1006496Y2592008D1*
X1002244Y2595097D1*
X970312Y2626883D1*
X966898Y2630881D1*
X964151Y2635362D1*
X962139Y2640219D1*
X960912Y2645331D1*
X960500Y2650571D1*
Y3026243D1*
X956911Y3031272D1*
X953811Y3037353D1*
X951702Y3043845D1*
X950634Y3050587D1*
Y3057413D1*
X951702Y3064155D1*
X953811Y3070647D1*
X956911Y3076728D1*
X960923Y3082251D1*
X965749Y3087077D1*
X971272Y3091089D1*
X977353Y3094189D1*
X983845Y3096298D1*
X990587Y3097366D1*
X997413D1*
X1004155Y3096298D1*
X1010647Y3094189D1*
X1016728Y3091089D1*
X1022251Y3087077D1*
X1027077Y3082251D1*
X1031089Y3076728D1*
X1034189Y3070647D1*
X1036298Y3064155D1*
X1037366Y3057413D1*
Y3050587D1*
X1036298Y3043845D1*
X1034189Y3037353D1*
X1031089Y3031272D1*
X1027499Y3026283D1*
X1027627Y2697822D1*
X1031699Y2701951D1*
X1031794Y2747465D1*
X1032507Y2751959D1*
X1033912Y2756287D1*
X1035979Y2760341D1*
X1038654Y2764024D1*
X1098660Y2824156D1*
X1175264Y2900761D1*
X1175319Y2906581D1*
X1176387Y2913324D1*
X1178496Y2919816D1*
X1181596Y2925898D1*
X1185608Y2931420D1*
X1190434Y2936247D1*
X1195957Y2940259D1*
X1202038Y2943358D1*
X1208530Y2945467D1*
X1215272Y2946535D1*
X1222098D1*
X1228840Y2945467D1*
X1235332Y2943358D1*
X1241413Y2940259D1*
X1246936Y2936247D1*
X1251762Y2931420D1*
X1255774Y2925898D1*
X1258874Y2919816D1*
X1260983Y2913324D1*
X1262051Y2906581D1*
Y2899756D1*
X1260983Y2893014D1*
X1258874Y2886522D1*
X1255774Y2880441D1*
X1251762Y2874919D1*
X1246936Y2870092D1*
X1241413Y2866079D1*
X1235332Y2862980D1*
X1228840Y2860871D1*
X1222098Y2859803D1*
X1216299Y2859762D1*
X1089713Y2733185D1*
X1090008Y2727699D1*
X1196928Y2834474D1*
X1201181Y2837563D1*
X1205865Y2839950D1*
X1210865Y2841575D1*
X1216056Y2842396D1*
X1273803Y2842500D1*
X1301314Y2842396D1*
X1306505Y2841575D1*
X1311505Y2839950D1*
X1316189Y2837563D1*
X1320441Y2834474D1*
X1323000Y2832375D1*
Y3022311D1*
X1319411Y3027358D1*
X1316311Y3033440D1*
X1314202Y3039932D1*
X1313134Y3046675D1*
Y3053500D1*
X1314202Y3060241D1*
X1316311Y3066734D1*
X1319411Y3072816D1*
X1323423Y3078339D1*
X1328249Y3083164D1*
X1333772Y3087177D1*
X1339853Y3090276D1*
X1346345Y3092385D1*
X1352411Y3093373D1*
X1362982Y3103945D1*
X1363000Y3159307D1*
X1357127Y3160697D1*
X1306280D1*
X1301257Y3157108D1*
X1295175Y3154008D1*
X1288682Y3151899D1*
X1281941Y3150831D1*
X1275115D1*
X1268373Y3151899D1*
X1261882Y3154008D1*
X1255799Y3157108D1*
X1250277Y3161119D1*
X1245450Y3165946D1*
X1241438Y3171469D1*
X1238340Y3177550D1*
X1236230Y3184042D1*
X1235163Y3190783D1*
Y3197610D1*
X1236230Y3204352D1*
X1238340Y3210844D1*
X1241438Y3216925D1*
X1245450Y3222448D1*
X1250277Y3227274D1*
X1255799Y3231287D1*
X1261882Y3234386D1*
X1268373Y3236495D1*
X1275115Y3237563D1*
X1281941D1*
X1288682Y3236495D1*
X1295175Y3234386D1*
X1301257Y3231287D1*
X1306244Y3227696D1*
X1361600Y3227697D1*
X1459638Y3325564D1*
X1463890Y3328655D1*
X1468573Y3331041D1*
X1473573Y3332665D1*
X1478765Y3333488D1*
X1536512Y3333591D1*
X1611259D1*
X1621587Y3343951D1*
X1621602Y3421344D1*
X1615102Y3420890D1*
X1608297Y3421425D1*
X1601660Y3423020D1*
X1595353Y3425631D1*
X1589533Y3429198D1*
X1584343Y3433631D1*
X1582722Y3435385D1*
X1455193Y3435479D1*
X1450698Y3436192D1*
X1446370Y3437597D1*
X1442316Y3439663D1*
X1438634Y3442339D1*
X1404915Y3475930D1*
X1395227Y3472903D1*
X1383957Y3471118D1*
X1372547D1*
X1361277Y3472903D1*
X1350427Y3476429D1*
X1340260Y3481609D1*
X1331029Y3488315D1*
X1322961Y3496383D1*
X1316255Y3505614D1*
X1311075Y3515781D1*
X1307549Y3526631D1*
X1305764Y3537902D1*
Y3549311D1*
X1307549Y3560581D1*
X1311075Y3571432D1*
X1316255Y3581598D1*
X1322961Y3590829D1*
X1331029Y3598898D1*
X1340260Y3605604D1*
X1350427Y3610783D1*
X1361277Y3614310D1*
X1372547Y3616094D1*
X1383957D1*
X1395227Y3614310D1*
X1406077Y3610783D1*
X1416244Y3605604D1*
X1425475Y3598898D1*
X1433543Y3590829D1*
X1440249Y3581598D1*
X1445429Y3571432D1*
X1448955Y3560581D1*
X1450740Y3549311D1*
Y3537902D1*
X1448955Y3526631D1*
X1445870Y3516972D1*
X1469475Y3493395D1*
X1582668Y3493390D1*
X1586850Y3497467D1*
X1592373Y3501480D1*
X1598455Y3504579D1*
X1604948Y3506688D1*
X1611689Y3507756D1*
X1618514D1*
X1621602Y3507391D1*
X1621705Y3627448D1*
X1622528Y3632639D1*
X1624152Y3637639D1*
X1626538Y3642323D1*
X1629629Y3646576D1*
X1661413Y3678507D1*
X1665411Y3681921D1*
X1669894Y3684668D1*
X1674749Y3686680D1*
X1679861Y3687907D1*
X1685113Y3688319D1*
X3519499Y3688215D1*
X3524690Y3687394D1*
X3529690Y3685769D1*
X3534374Y3683382D1*
X3538626Y3680293D1*
X3570558Y3648507D1*
X3573972Y3644509D1*
X3576719Y3640028D1*
X3578731Y3635171D1*
X3579958Y3630059D1*
X3580370Y3624808D1*
Y3564857D1*
X3582728Y3571432D1*
X3587908Y3581598D1*
X3594614Y3590829D1*
X3602682Y3598898D1*
X3611913Y3605604D1*
X3622080Y3610783D1*
X3632930Y3614310D1*
X3644201Y3616094D1*
X3655610D1*
X3666881Y3614310D1*
X3677731Y3610783D1*
X3687898Y3605604D1*
X3697129Y3598898D1*
X3705197Y3590829D1*
X3711903Y3581598D1*
X3717083Y3571432D1*
X3720609Y3560581D1*
X3722394Y3549311D1*
Y3537902D1*
X3720609Y3526631D1*
X3717083Y3515781D1*
X3711903Y3505614D1*
X3705197Y3496383D1*
X3697129Y3488315D1*
X3687898Y3481609D1*
X3678886Y3476961D1*
X3678816Y3066907D1*
X3678104Y3062412D1*
X3676698Y3058084D1*
X3674633Y3054029D1*
X3671957Y3050348D1*
X3643135Y3021399D1*
X3643091Y3015587D1*
X3642022Y3008845D1*
X3639913Y3002353D1*
X3636814Y2996272D1*
X3632802Y2990749D1*
X3627975Y2985923D1*
X3622453Y2981911D1*
X3616370Y2978811D1*
X3609879Y2976702D1*
X3603136Y2975634D1*
X3596311D1*
X3589570Y2976702D1*
X3583077Y2978811D1*
X3576995Y2981911D1*
X3571472Y2985923D1*
X3566647Y2990749D1*
X3562634Y2996272D1*
X3559535Y3002353D1*
X3557427Y3008845D1*
X3556358Y3015587D1*
Y3022413D1*
X3556934Y3026681D1*
X3550283Y3025634D1*
X3543457D1*
X3536715Y3026702D1*
X3530223Y3028811D1*
X3524142Y3031911D1*
X3518619Y3035923D1*
X3513793Y3040749D1*
X3509780Y3046272D1*
X3506681Y3052353D1*
X3504572Y3058845D1*
X3503504Y3065587D1*
Y3072413D1*
X3504572Y3079155D1*
X3506681Y3085647D1*
X3509780Y3091728D1*
X3513371Y3096717D1*
X3513370Y3610959D1*
X3503009Y3621303D1*
X3131079Y3621319D1*
X3146119Y3606154D1*
X3148794Y3602471D1*
X3150860Y3598417D1*
X3152266Y3594089D1*
X3152978Y3589594D1*
X3153067Y3504642D1*
Y3025911D1*
X3182000Y2997013D1*
X3224547Y2997028D1*
X3224528Y3005052D1*
X3218058Y3006633D1*
X3211752Y3009245D1*
X3205932Y3012812D1*
X3200741Y3017245D1*
X3196308Y3022436D1*
X3192741Y3028256D1*
X3190129Y3034562D1*
X3188535Y3041199D1*
X3188000Y3048004D1*
X3188535Y3054808D1*
X3190129Y3061446D1*
X3192741Y3067752D1*
X3196308Y3073572D1*
X3200741Y3078764D1*
X3205932Y3083197D1*
X3211752Y3086762D1*
X3218058Y3089375D1*
X3224696Y3090969D1*
X3231500Y3091504D1*
X3238304Y3090969D1*
X3244942Y3089375D1*
X3251248Y3086762D1*
X3257068Y3083197D1*
X3262259Y3078764D1*
X3266692Y3073572D1*
X3270259Y3067752D1*
X3272871Y3061446D1*
X3274465Y3054808D1*
X3275000Y3048004D1*
X3274904Y3045564D1*
X3278255Y3041129D1*
X3280320Y3037073D1*
X3281727Y3032745D1*
X3282438Y3028252D1*
X3282528Y2984100D1*
X3286606Y2979944D1*
X3290618Y2974421D1*
X3293717Y2968340D1*
X3295825Y2961848D1*
X3296894Y2955106D1*
Y2948280D1*
X3295825Y2941538D1*
X3293717Y2935046D1*
X3290618Y2928965D1*
X3286606Y2923442D1*
X3281780Y2918615D1*
X3276257Y2914604D1*
X3270175Y2911504D1*
X3263682Y2909395D1*
X3256941Y2908327D1*
X3250115D1*
X3247028Y2908693D1*
Y2890972D1*
X3218643D1*
X3225169Y2886900D1*
X3231496Y2881496D1*
X3236900Y2875169D1*
X3241248Y2868073D1*
X3244432Y2860386D1*
X3246375Y2852295D1*
X3247028Y2844000D1*
X3246375Y2835705D1*
X3244432Y2827614D1*
X3241248Y2819927D1*
X3236900Y2812831D1*
X3231496Y2806504D1*
X3225169Y2801100D1*
X3218073Y2796752D1*
X3210386Y2793568D1*
X3202295Y2791625D1*
X3194000Y2790972D1*
X3185705Y2791625D1*
X3177614Y2793568D1*
X3169927Y2796752D1*
X3162831Y2801100D1*
X3156504Y2806504D1*
X3151100Y2812831D1*
X3146752Y2819927D1*
X3143568Y2827614D1*
X3141625Y2835705D1*
X3140972Y2844000D1*
X3141625Y2852295D1*
X3142136Y2854864D1*
X3052029Y2944959D1*
X3047787Y2940213D1*
X3040820Y2934261D1*
X3033008Y2929474D1*
X3024543Y2925969D1*
X3015634Y2923829D1*
X3006500Y2923110D1*
X2997366Y2923829D1*
X2988457Y2925969D1*
X2979992Y2929474D1*
X2972180Y2934261D1*
X2965213Y2940213D1*
X2959261Y2947180D1*
X2956513Y2951350D1*
X2950900Y2943579D1*
X2944421Y2937100D1*
X2937009Y2931714D1*
X2928845Y2927555D1*
X2920131Y2924723D1*
X2911081Y2923290D1*
X2901919D1*
X2892869Y2924723D1*
X2884155Y2927555D1*
X2875991Y2931714D1*
X2868579Y2937100D1*
X2862100Y2943579D1*
X2856513Y2951350D1*
X2850900Y2943579D1*
X2844421Y2937100D1*
X2837009Y2931714D1*
X2828845Y2927555D1*
X2820131Y2924723D1*
X2811081Y2923290D1*
X2801919D1*
X2792869Y2924723D1*
X2784155Y2927555D1*
X2775991Y2931714D1*
X2768579Y2937100D1*
X2762100Y2943579D1*
X2756513Y2951350D1*
X2750900Y2943579D1*
X2744421Y2937100D1*
X2737009Y2931714D1*
X2728845Y2927555D1*
X2720131Y2924723D1*
X2711081Y2923290D1*
X2701919D1*
X2692869Y2924723D1*
X2684155Y2927555D1*
X2675991Y2931714D1*
X2668579Y2937100D1*
X2662100Y2943579D1*
X2656714Y2950991D1*
X2652555Y2959155D1*
X2649723Y2967869D1*
X2648290Y2976919D1*
Y2986081D1*
X2649723Y2995131D1*
X2652555Y3003845D1*
X2656714Y3012009D1*
X2662100Y3019421D1*
X2668579Y3025900D1*
X2675991Y3031286D1*
X2684155Y3035445D1*
X2692869Y3038277D1*
X2701919Y3039710D1*
X2711081D1*
X2720131Y3038277D1*
X2728845Y3035445D1*
X2737009Y3031286D1*
X2744421Y3025900D1*
X2750900Y3019421D1*
X2756487Y3011650D1*
X2762100Y3019421D1*
X2768579Y3025900D1*
X2775991Y3031286D1*
X2784155Y3035445D1*
X2792869Y3038277D1*
X2801919Y3039710D1*
X2811081D1*
X2820131Y3038277D1*
X2828845Y3035445D1*
X2837009Y3031286D1*
X2844421Y3025900D1*
X2850900Y3019421D1*
X2856487Y3011650D1*
X2862100Y3019421D1*
X2868579Y3025900D1*
X2875991Y3031286D1*
X2884155Y3035445D1*
X2892869Y3038277D1*
X2901919Y3039710D1*
X2911081D1*
X2920131Y3038277D1*
X2928845Y3035445D1*
X2937009Y3031286D1*
X2944421Y3025900D1*
X2950900Y3019421D1*
X2956487Y3011650D1*
X2962100Y3019421D1*
X2968579Y3025900D1*
X2975991Y3031286D1*
X2984155Y3035445D1*
X2992869Y3038277D1*
X3001919Y3039710D1*
X3011081D1*
X3020131Y3038277D1*
X3028845Y3035445D1*
X3030357Y3034748D1*
X3030354Y3476898D1*
X3021362Y3481609D1*
X3012131Y3488315D1*
X3004063Y3496383D1*
X2997357Y3505614D1*
X2992177Y3515781D1*
X2988651Y3526631D1*
X2986866Y3537902D1*
Y3549311D1*
X2988651Y3560581D1*
X2992177Y3571432D1*
X2996081Y3579322D1*
X2939256Y3579319D1*
X2930139Y3570228D1*
X2933207Y3560581D1*
X2934992Y3549311D1*
Y3537902D1*
X2933207Y3526631D1*
X2929681Y3515781D1*
X2924501Y3505614D1*
X2917795Y3496383D1*
X2909727Y3488315D1*
X2900496Y3481609D1*
X2890329Y3476429D1*
X2879479Y3472903D1*
X2868209Y3471118D1*
X2856799D1*
X2845529Y3472903D1*
X2834678Y3476429D1*
X2824512Y3481609D1*
X2815281Y3488315D1*
X2807213Y3496383D1*
X2800507Y3505614D1*
X2795327Y3515781D1*
X2791801Y3526631D1*
X2790016Y3537902D1*
Y3549311D1*
X2791801Y3560581D1*
X2795327Y3571432D1*
X2800507Y3581598D1*
X2807213Y3590829D1*
X2815281Y3598898D1*
X2824512Y3605604D1*
X2834678Y3610783D1*
X2845529Y3614310D1*
X2856799Y3616094D1*
X2868209D1*
X2879479Y3614310D1*
X2889138Y3611224D1*
X2899217Y3621331D1*
X1699013Y3621319D1*
X1688618Y3610958D1*
X1688499Y3327463D1*
X1687676Y3322270D1*
X1686052Y3317272D1*
X1683665Y3312588D1*
X1680576Y3308335D1*
X1648790Y3276403D1*
X1644793Y3272990D1*
X1640311Y3270243D1*
X1635454Y3268231D1*
X1630343Y3267004D1*
X1625102Y3266591D1*
X1495238D1*
X1422744Y3194064D1*
X1426349Y3188406D1*
X1428361Y3183549D1*
X1429588Y3178437D1*
X1430000Y3173197D1*
X1429896Y3087458D1*
X1429075Y3082266D1*
X1427450Y3077266D1*
X1425063Y3072583D1*
X1421974Y3068331D1*
X1399812Y3046024D1*
X1398798Y3039932D1*
X1396689Y3033440D1*
X1393589Y3027358D1*
X1389999Y3022370D1*
X1389896Y2737883D1*
X1389075Y2732692D1*
X1387450Y2727692D1*
X1385063Y2723008D1*
X1381974Y2718756D1*
X1364990Y2701625D1*
X1365000Y2480865D1*
X1368589Y2475866D1*
X1371689Y2469785D1*
X1373879Y2462887D1*
X1479388Y2568257D1*
X1483642Y2571346D1*
X1488325Y2573734D1*
X1493324Y2575357D1*
X1498517Y2576180D1*
X1556262Y2576283D1*
X2141139D1*
X2146169Y2579873D1*
X2152251Y2582971D1*
X2158743Y2585081D1*
X2165486Y2586148D1*
X2172311D1*
X2177496Y2585391D1*
X2177500Y2650308D1*
X2167123Y2654358D1*
X1477835Y2654448D1*
X1473340Y2655159D1*
X1469012Y2656566D1*
X1464958Y2658631D1*
X1461276Y2661306D1*
X1438604Y2683852D1*
X1435648Y2687312D1*
X1433270Y2691192D1*
X1431529Y2695396D1*
X1430467Y2699822D1*
X1430110Y2704358D1*
X1430199Y3185461D1*
X1430911Y3189955D1*
X1432318Y3194283D1*
X1434383Y3198337D1*
X1437058Y3202020D1*
X1459604Y3224692D1*
X1463064Y3227647D1*
X1466944Y3230025D1*
X1471148Y3231766D1*
X1475573Y3232828D1*
X1480119Y3233185D1*
X1738942D1*
X1742953Y3243558D1*
Y3470883D1*
X1699240Y3470894D1*
Y3616319D1*
X1844665D1*
Y3470894D1*
X1800923D1*
X1800864Y3222909D1*
X1800152Y3218415D1*
X1798745Y3214087D1*
X1796680Y3210033D1*
X1794005Y3206350D1*
X1771459Y3183678D1*
X1767999Y3180723D1*
X1764119Y3178345D1*
X1759915Y3176604D1*
X1755490Y3175542D1*
X1750953Y3175185D1*
X1647283D1*
X1679848Y3142614D1*
X1685930Y3141609D1*
X1692423Y3139500D1*
X1698505Y3136400D1*
X1703492Y3132810D1*
X1924920Y3132811D1*
X1935287Y3143172D1*
X1935303Y3479075D1*
X1926064Y3484781D1*
X1917387Y3492190D1*
X1909978Y3500867D1*
X1904016Y3510596D1*
X1899650Y3521136D1*
X1896986Y3532231D1*
X1896091Y3543606D1*
X1896986Y3554982D1*
X1899650Y3566076D1*
X1904016Y3576617D1*
X1909978Y3586345D1*
X1917387Y3595022D1*
X1926064Y3602432D1*
X1935793Y3608394D1*
X1946333Y3612760D1*
X1957428Y3615424D1*
X1968803Y3616319D1*
X1980178Y3615424D1*
X1991273Y3612760D1*
X2001814Y3608394D1*
X2011542Y3602432D1*
X2020219Y3595022D1*
X2027629Y3586345D1*
X2033591Y3576617D1*
X2037957Y3566076D1*
X2040621Y3554982D1*
X2041516Y3543606D1*
X2040621Y3532231D1*
X2037957Y3521136D1*
X2033591Y3510596D1*
X2027629Y3500867D1*
X2020219Y3492190D1*
X2011542Y3484781D1*
X2002301Y3479092D1*
X2002199Y3126682D1*
X2001378Y3121491D1*
X1999753Y3116491D1*
X1997366Y3111807D1*
X1994277Y3107555D1*
X1962491Y3075623D1*
X1958493Y3072209D1*
X1954012Y3069462D1*
X1949155Y3067450D1*
X1944043Y3066223D1*
X1938803Y3065811D1*
X1703510D1*
X1698505Y3062222D1*
X1692423Y3059122D1*
X1685930Y3057013D1*
X1679189Y3055945D1*
X1672364D1*
X1665621Y3057013D1*
X1659130Y3059122D1*
X1653047Y3062222D1*
X1647525Y3066234D1*
X1642698Y3071060D1*
X1638686Y3076583D1*
X1635587Y3082664D1*
X1633478Y3089156D1*
X1632490Y3095222D1*
X1592535Y3135176D1*
X1534239Y3135185D1*
X1529228Y3131596D1*
X1523147Y3128496D1*
X1516655Y3126387D1*
X1509913Y3125319D1*
X1503087D1*
X1496345Y3126387D1*
X1489853Y3128496D1*
X1488121Y3129295D1*
X1488110Y3036886D1*
X2640004Y2425564D2*
X2645667Y2420667D1*
X2651311Y2414058D1*
X2654765Y2408588D1*
X2659261Y2415820D1*
X2665213Y2422787D1*
X2672180Y2428739D1*
X2679992Y2433526D1*
X2688457Y2437031D1*
X2697366Y2439171D1*
X2706500Y2439890D1*
X2715634Y2439171D1*
X2724543Y2437031D1*
X2733008Y2433526D1*
X2740820Y2428739D1*
X2747787Y2422787D1*
X2753739Y2415820D1*
X2758526Y2408008D1*
X2762031Y2399543D1*
X2764171Y2390634D1*
X2764890Y2381500D1*
X2764171Y2372366D1*
X2762031Y2363457D1*
X2758526Y2354992D1*
X2753739Y2347180D1*
X2747787Y2340213D1*
X2740820Y2334261D1*
X2733008Y2329474D1*
X2724543Y2325969D1*
X2715634Y2323829D1*
X2711988Y2323398D1*
X2723285Y2312091D1*
X3014749Y2312110D1*
X3031235Y2328612D1*
X3024543Y2325969D1*
X3015634Y2323829D1*
X3006500Y2323110D1*
X2997366Y2323829D1*
X2988457Y2325969D1*
X2979992Y2329474D1*
X2972180Y2334261D1*
X2965213Y2340213D1*
X2959261Y2347180D1*
X2956513Y2351350D1*
X2950900Y2343579D1*
X2944421Y2337100D1*
X2937009Y2331714D1*
X2928845Y2327555D1*
X2920131Y2324723D1*
X2911081Y2323290D1*
X2901919D1*
X2892869Y2324723D1*
X2884155Y2327555D1*
X2875991Y2331714D1*
X2868579Y2337100D1*
X2862100Y2343579D1*
X2856714Y2350991D1*
X2852555Y2359155D1*
X2849723Y2367869D1*
X2848290Y2376919D1*
Y2386081D1*
X2849723Y2395131D1*
X2852555Y2403845D1*
X2856714Y2412009D1*
X2862100Y2419421D1*
X2868579Y2425900D1*
X2875991Y2431286D1*
X2884155Y2435445D1*
X2892869Y2438277D1*
X2901919Y2439710D1*
X2911081D1*
X2920131Y2438277D1*
X2928845Y2435445D1*
X2937009Y2431286D1*
X2944421Y2425900D1*
X2950900Y2419421D1*
X2956487Y2411650D1*
X2962100Y2419421D1*
X2968579Y2425900D1*
X2975991Y2431286D1*
X2984155Y2435445D1*
X2992869Y2438277D1*
X3001919Y2439710D1*
X3011081D1*
X3020131Y2438277D1*
X3028845Y2435445D1*
X3037009Y2431286D1*
X3044421Y2425900D1*
X3050900Y2419421D1*
X3056286Y2412009D1*
X3060445Y2403845D1*
X3063277Y2395131D1*
X3064710Y2386081D1*
Y2376919D1*
X3063277Y2367869D1*
X3060445Y2359155D1*
X3059298Y2356667D1*
X3141256Y2438633D1*
X3140972Y2444000D1*
X3141625Y2452295D1*
X3143568Y2460386D1*
X3144181Y2462050D1*
X3139615Y2464304D1*
X3135934Y2466979D1*
X3075801Y2526987D1*
X3064762Y2538024D1*
X2649526Y2538000D1*
X2650000Y2531500D1*
X2649465Y2524696D1*
X2647871Y2518058D1*
X2645259Y2511752D1*
X2641692Y2505932D1*
X2639999Y2503783D1*
X2640000Y2425606D1*
X517324Y3626319D2*
X673563D1*
Y3460894D1*
X508138D1*
Y3626319D1*
X517324D1*
X870159Y3537117D2*
X869395Y3530667D1*
X868129Y3524298D1*
X866365Y3518047D1*
X864117Y3511954D1*
X861398Y3506055D1*
X858224Y3500388D1*
X854617Y3494990D1*
X850596Y3489888D1*
X846188Y3485119D1*
X841419Y3480711D1*
X836318Y3476690D1*
X830919Y3473083D1*
X825252Y3469909D1*
X819353Y3467190D1*
X813260Y3464942D1*
X807009Y3463178D1*
X800640Y3461912D1*
X794190Y3461148D1*
X787701Y3460894D1*
X781211Y3461148D1*
X774761Y3461912D1*
X768392Y3463178D1*
X762142Y3464942D1*
X756049Y3467190D1*
X750150Y3469909D1*
X744483Y3473083D1*
X739084Y3476690D1*
X733983Y3480711D1*
X729214Y3485119D1*
X724806Y3489888D1*
X720785Y3494990D1*
X717177Y3500388D1*
X714004Y3506055D1*
X711285Y3511954D1*
X709037Y3518047D1*
X707273Y3524298D1*
X706007Y3530667D1*
X705243Y3537117D1*
X704988Y3543606D1*
X705243Y3550096D1*
X706007Y3556546D1*
X707273Y3562915D1*
X709037Y3569165D1*
X711285Y3575259D1*
X714004Y3581157D1*
X717177Y3586824D1*
X720785Y3592223D1*
X724806Y3597324D1*
X729214Y3602093D1*
X733983Y3606501D1*
X739084Y3610522D1*
X744483Y3614130D1*
X750150Y3617303D1*
X756049Y3620022D1*
X762142Y3622270D1*
X768392Y3624034D1*
X774761Y3625301D1*
X781211Y3626064D1*
X787701Y3626319D1*
X794190Y3626064D1*
X800640Y3625301D1*
X807009Y3624034D1*
X813260Y3622270D1*
X819353Y3620022D1*
X825252Y3617303D1*
X830919Y3614130D1*
X836318Y3610522D1*
X841419Y3606501D1*
X846188Y3602093D1*
X850596Y3597324D1*
X854617Y3592223D1*
X858224Y3586824D1*
X861398Y3581157D1*
X864117Y3575259D1*
X866365Y3569165D1*
X868129Y3562915D1*
X869395Y3556546D1*
X870159Y3550096D1*
X870413Y3543606D1*
X870159Y3537117D1*
X1117875Y3616319D2*
X1225564D1*
X1224257Y3624171D1*
Y3631467D1*
X1225399Y3638675D1*
X1227654Y3645614D1*
X1230966Y3652115D1*
X1235256Y3658018D1*
X1240415Y3663177D1*
X1246318Y3667467D1*
X1252819Y3670780D1*
X1259759Y3673034D1*
X1266966Y3674176D1*
X1274262D1*
X1281470Y3673034D1*
X1288409Y3670780D1*
X1294911Y3667467D1*
X1300814Y3663177D1*
X1305972Y3658018D1*
X1310262Y3652115D1*
X1313575Y3645614D1*
X1315829Y3638675D1*
X1316971Y3631467D1*
Y3624171D1*
X1315829Y3616963D1*
X1313575Y3610024D1*
X1310262Y3603522D1*
X1305972Y3597619D1*
X1300814Y3592461D1*
X1294911Y3588171D1*
X1288409Y3584858D1*
X1281470Y3582604D1*
X1274262Y3581462D1*
X1266966D1*
X1259759Y3582604D1*
X1254117Y3584379D1*
X1254114Y3470894D1*
X1210371D1*
X1210402Y3465990D1*
X1214480Y3461782D1*
X1218492Y3456260D1*
X1221591Y3450177D1*
X1223699Y3443686D1*
X1224768Y3436944D1*
Y3430118D1*
X1223699Y3423377D1*
X1221591Y3416885D1*
X1218492Y3410802D1*
X1214480Y3405280D1*
X1209654Y3400453D1*
X1204131Y3396441D1*
X1198049Y3393343D1*
X1191556Y3391232D1*
X1184815Y3390165D1*
X1177990D1*
X1171247Y3391232D1*
X1164756Y3393343D1*
X1158673Y3396441D1*
X1153151Y3400453D1*
X1148324Y3405280D1*
X1144312Y3410802D1*
X1141213Y3416885D1*
X1139104Y3423377D1*
X1138037Y3430118D1*
Y3436944D1*
X1139104Y3443686D1*
X1141213Y3450177D1*
X1144312Y3456260D1*
X1148324Y3461782D1*
X1152396Y3465911D1*
X1152402Y3470886D1*
X1108689Y3470894D1*
Y3616319D1*
X1117875D1*
X2241133Y3537665D2*
X2240434Y3531762D1*
X2239274Y3525932D1*
X2237660Y3520210D1*
X2235602Y3514633D1*
X2233114Y3509234D1*
X2230209Y3504046D1*
X2226907Y3499104D1*
X2223226Y3494434D1*
X2219190Y3490070D1*
X2214825Y3486034D1*
X2210156Y3482353D1*
X2205214Y3479051D1*
X2200026Y3476146D1*
X2194627Y3473657D1*
X2189050Y3471600D1*
X2183328Y3469986D1*
X2177497Y3468825D1*
X2171594Y3468127D1*
X2165654Y3467894D1*
X2159713Y3468127D1*
X2153810Y3468825D1*
X2147979Y3469986D1*
X2142257Y3471600D1*
X2136680Y3473657D1*
X2131281Y3476146D1*
X2126093Y3479051D1*
X2121151Y3482353D1*
X2116482Y3486034D1*
X2112117Y3490070D1*
X2108081Y3494434D1*
X2104400Y3499104D1*
X2101098Y3504046D1*
X2098193Y3509234D1*
X2095705Y3514633D1*
X2093647Y3520210D1*
X2092033Y3525932D1*
X2090873Y3531762D1*
X2090175Y3537665D1*
X2089941Y3543606D1*
X2090175Y3549547D1*
X2090873Y3555450D1*
X2092033Y3561281D1*
X2093647Y3567003D1*
X2095705Y3572580D1*
X2098193Y3577979D1*
X2101098Y3583167D1*
X2104400Y3588109D1*
X2108081Y3592778D1*
X2112117Y3597143D1*
X2116482Y3601178D1*
X2121151Y3604860D1*
X2126093Y3608161D1*
X2131281Y3611067D1*
X2136680Y3613555D1*
X2142257Y3615613D1*
X2147979Y3617227D1*
X2153810Y3618387D1*
X2159713Y3619085D1*
X2165654Y3619319D1*
X2171594Y3619085D1*
X2177497Y3618387D1*
X2183328Y3617227D1*
X2189050Y3615613D1*
X2194627Y3613555D1*
X2200026Y3611067D1*
X2205214Y3608161D1*
X2210156Y3604860D1*
X2214825Y3601178D1*
X2219190Y3597143D1*
X2223226Y3592778D1*
X2226907Y3588109D1*
X2230209Y3583167D1*
X2233114Y3577979D1*
X2235602Y3572580D1*
X2237660Y3567003D1*
X2239274Y3561281D1*
X2240434Y3555450D1*
X2241133Y3549547D1*
X2241366Y3543606D1*
X2241133Y3537665D1*
X2599127Y3619319D2*
X2741366D1*
Y3467894D1*
X2589941D1*
Y3619319D1*
X2599127D1*
X3192678Y3616319D2*
X3328917D1*
Y3470894D1*
X3285175D1*
X3285205Y3432904D1*
X3316573Y3401556D1*
X3322413Y3401484D1*
X3329155Y3400416D1*
X3335647Y3398307D1*
X3341728Y3395207D1*
X3347251Y3391196D1*
X3352077Y3386369D1*
X3356089Y3380846D1*
X3359189Y3374765D1*
X3361298Y3368273D1*
X3362366Y3361531D1*
Y3354705D1*
X3361298Y3347963D1*
X3359189Y3341471D1*
X3356089Y3335390D1*
X3352077Y3329867D1*
X3348005Y3325738D1*
X3348000Y3116509D1*
X3354500Y3112500D1*
X3361304Y3111965D1*
X3367942Y3110371D1*
X3374248Y3107759D1*
X3380068Y3104192D1*
X3385259Y3099759D1*
X3389692Y3094568D1*
X3393259Y3088748D1*
X3395871Y3082442D1*
X3397465Y3075804D1*
X3398000Y3069000D1*
X3397465Y3062196D1*
X3395871Y3055558D1*
X3393259Y3049252D1*
X3389692Y3043432D1*
X3385259Y3038241D1*
X3380068Y3033808D1*
X3374248Y3030241D1*
X3367942Y3027629D1*
X3361304Y3026035D1*
X3354500Y3025500D1*
X3347696Y3026035D1*
X3341058Y3027629D1*
X3334752Y3030241D1*
X3328932Y3033808D1*
X3323741Y3038241D1*
X3319308Y3043432D1*
X3315741Y3049252D1*
X3313129Y3055558D1*
X3311535Y3062196D1*
X3311000Y3069000D1*
X3311093Y3071386D1*
X3296949Y3085665D1*
X3294273Y3089348D1*
X3292207Y3093402D1*
X3290802Y3097730D1*
X3290089Y3102224D1*
X3290000Y3187177D1*
Y3325726D1*
X3285923Y3329867D1*
X3281911Y3335390D1*
X3278811Y3341471D1*
X3276702Y3347963D1*
X3275634Y3354705D1*
X3275593Y3360504D1*
X3234154Y3402079D1*
X3231478Y3405761D1*
X3229412Y3409815D1*
X3228007Y3414143D1*
X3227294Y3418638D1*
X3227205Y3470900D1*
X3183492Y3470894D1*
Y3616319D1*
X3192678D1*
X4216301Y2280886D2*
X4330886D1*
Y2157114D1*
X4207114D1*
Y2280886D1*
X4216301D1*
X1864020Y2096675D2*
X1862951Y2089932D1*
X1860843Y2083440D1*
X1857744Y2077358D1*
X1853732Y2071836D1*
X1848906Y2067009D1*
X1847993Y2066291D1*
X1848000Y1962252D1*
X1852077Y1958097D1*
X1856089Y1952575D1*
X1859189Y1946492D1*
X1861298Y1940001D1*
X1862366Y1933259D1*
Y1926433D1*
X1861298Y1919692D1*
X1859189Y1913199D1*
X1856089Y1907117D1*
X1852077Y1901594D1*
X1847251Y1896768D1*
X1841728Y1892756D1*
X1835647Y1889657D1*
X1829155Y1887549D1*
X1822413Y1886480D1*
X1816614Y1886440D1*
X1699134Y1769094D1*
X1695453Y1766420D1*
X1691398Y1764353D1*
X1687070Y1762948D1*
X1682575Y1762235D1*
X1597623Y1762146D1*
X1400440D1*
X1396286Y1758068D1*
X1390764Y1754056D1*
X1384681Y1750957D1*
X1378190Y1748848D1*
X1371448Y1747780D1*
X1364622D1*
X1357881Y1748848D1*
X1351388Y1750957D1*
X1345306Y1754056D1*
X1339783Y1758068D1*
X1334957Y1762895D1*
X1330945Y1768417D1*
X1327846Y1774499D1*
X1325738Y1780991D1*
X1324669Y1787734D1*
Y1794559D1*
X1325738Y1801301D1*
X1327846Y1807793D1*
X1330945Y1813875D1*
X1334957Y1819398D1*
X1339783Y1824223D1*
X1345306Y1828236D1*
X1351388Y1831335D1*
X1357881Y1833444D1*
X1364622Y1834512D1*
X1371448D1*
X1378190Y1833444D1*
X1384681Y1831335D1*
X1390764Y1828236D1*
X1396286Y1824223D1*
X1400415Y1820151D1*
X1668278Y1820146D1*
X1775575Y1927433D1*
X1775634Y1933259D1*
X1776702Y1940001D1*
X1778811Y1946492D1*
X1781911Y1952575D1*
X1785923Y1958097D1*
X1789995Y1962226D1*
X1789895Y2069328D1*
X1785462Y2074518D1*
X1781895Y2080339D1*
X1779283Y2086644D1*
X1777689Y2093282D1*
X1777154Y2100087D1*
X1777689Y2106892D1*
X1779283Y2113529D1*
X1781895Y2119836D1*
X1785462Y2125656D1*
X1789895Y2130846D1*
X1795085Y2135280D1*
X1800906Y2138845D1*
X1807211Y2141458D1*
X1813849Y2143051D1*
X1820654Y2143587D1*
X1827459Y2143051D1*
X1834096Y2141458D1*
X1840403Y2138845D1*
X1846223Y2135280D1*
X1851413Y2130846D1*
X1855846Y2125656D1*
X1859413Y2119836D1*
X1862025Y2113529D1*
X1863618Y2106892D1*
X1864154Y2100087D1*
X1864020Y2096675D1*
X3590236Y2788272D2*
X3589168Y2781530D1*
X3587059Y2775038D1*
X3583959Y2768957D1*
X3579948Y2763434D1*
X3575121Y2758608D1*
X3569598Y2754596D1*
X3563517Y2751496D1*
X3557025Y2749387D1*
X3550283Y2748319D1*
X3543457D1*
X3536715Y2749387D1*
X3530223Y2751496D1*
X3524142Y2754596D1*
X3518619Y2758608D1*
X3513793Y2763434D1*
X3509780Y2768957D1*
X3506681Y2775038D1*
X3504572Y2781530D1*
X3503504Y2788272D1*
Y2795098D1*
X3504572Y2801840D1*
X3506681Y2808332D1*
X3509780Y2814413D1*
X3513793Y2819936D1*
X3517865Y2824066D1*
X3517870Y2886598D1*
X3513793Y2890749D1*
X3509780Y2896272D1*
X3506681Y2902353D1*
X3504572Y2908845D1*
X3503504Y2915587D1*
Y2922413D1*
X3504572Y2929155D1*
X3506681Y2935647D1*
X3509780Y2941728D1*
X3513793Y2947251D1*
X3518619Y2952077D1*
X3524142Y2956089D1*
X3530223Y2959189D1*
X3536715Y2961298D1*
X3543457Y2962366D1*
X3550283D1*
X3557025Y2961298D1*
X3563517Y2959189D1*
X3569598Y2956089D1*
X3575121Y2952077D1*
X3579948Y2947251D1*
X3583959Y2941728D1*
X3587059Y2935647D1*
X3589168Y2929155D1*
X3590236Y2922413D1*
Y2915587D1*
X3589168Y2908845D1*
X3587059Y2902353D1*
X3583959Y2896272D1*
X3579948Y2890749D1*
X3575875Y2886619D1*
X3575870Y2824087D1*
X3579948Y2819936D1*
X3583959Y2814413D1*
X3587059Y2808332D1*
X3589168Y2801840D1*
X3590236Y2795098D1*
Y2788272D1*
X1074866Y2210650D2*
X1073798Y2203908D1*
X1071689Y2197416D1*
X1068589Y2191335D1*
X1064577Y2185812D1*
X1059751Y2180986D1*
X1054228Y2176974D1*
X1048147Y2173874D1*
X1041655Y2171765D1*
X1034913Y2170697D1*
X1028087D1*
X1021345Y2171765D1*
X1014853Y2173874D1*
X1008772Y2176974D1*
X1003249Y2180986D1*
X998423Y2185812D1*
X994411Y2191335D1*
X991311Y2197416D1*
X989202Y2203908D1*
X988134Y2210650D1*
Y2217476D1*
X989202Y2224218D1*
X991311Y2230710D1*
X994411Y2236791D1*
X998001Y2241780D1*
X998000Y2321967D1*
X944301Y2375673D1*
X938196Y2376702D1*
X931703Y2378811D1*
X925621Y2381911D1*
X920098Y2385923D1*
X915273Y2390749D1*
X911260Y2396272D1*
X908161Y2402353D1*
X906052Y2408845D1*
X904984Y2415587D1*
Y2422413D1*
X906052Y2429155D1*
X908161Y2435647D1*
X911260Y2441728D1*
X915273Y2447251D1*
X920098Y2452077D1*
X925621Y2456089D1*
X931703Y2459189D1*
X938196Y2461298D1*
X944937Y2462366D1*
X951762D1*
X958505Y2461298D1*
X964997Y2459189D1*
X971079Y2456089D1*
X976601Y2452077D1*
X981428Y2447251D1*
X985440Y2441728D1*
X988539Y2435647D1*
X990648Y2429155D1*
X991636Y2423089D1*
X1056974Y2357606D1*
X1060063Y2353354D1*
X1062450Y2348669D1*
X1064075Y2343671D1*
X1064896Y2338479D1*
X1065000Y2280732D1*
Y2241798D1*
X1068589Y2236791D1*
X1071689Y2230710D1*
X1073798Y2224218D1*
X1074866Y2217476D1*
Y2210650D1*
D25*
X581500Y2606500D3*
D26*
X881500D3*
D25*
X581500Y2094000D3*
D26*
X881500D3*
D35*
X1506500Y2981500D3*
D36*
X1606500D3*
X1706500D3*
X1806500D3*
X1906500D3*
X2006500D3*
X2106500D3*
X2206500D3*
X2306500D3*
X2406500D3*
X2506500D3*
X2606500D3*
X2706500D3*
X2806500D3*
X2906500D3*
X3006500D3*
D35*
X1506500Y2381500D3*
D36*
X1606500D3*
X1706500D3*
X1806500D3*
X1906500D3*
X2006500D3*
X2106500D3*
X2206500D3*
X2306500D3*
X2406500D3*
X2506500D3*
X2606500D3*
X2706500D3*
X2806500D3*
X2906500D3*
X3006500D3*
D37*
X590850Y3543606D3*
D38*
X787701D3*
X984551D3*
D37*
X1181402D3*
D38*
X1378252D3*
X1575102D3*
D37*
X1771953D3*
D38*
X1968803D3*
X2165654D3*
D37*
X2665654D3*
D38*
X2862504D3*
X3059354D3*
D37*
X3256205D3*
D38*
X3453055D3*
X3649906D3*
D37*
X3846756D3*
D38*
X4043606D3*
X4240457D3*
D37*
X984551Y661717D3*
D38*
X787701D3*
X590850D3*
D37*
X1575102D3*
D38*
X1378252D3*
X1181402D3*
D37*
X2165654D3*
D38*
X1968803D3*
X1771953D3*
D37*
X3059354D3*
D38*
X2862504D3*
X2665654D3*
D37*
X3649906D3*
D38*
X3453055D3*
X3256205D3*
D37*
X4240457D3*
D38*
X4043606D3*
X3846756D3*
D39*
X3194000Y2944000D3*
D40*
Y2844000D3*
Y2744000D3*
Y2644000D3*
Y2544000D3*
Y2444000D3*
Y2344000D3*
Y2244000D3*
Y2144000D3*
Y2044000D3*
D41*
X869000Y1006500D3*
D42*
Y1106500D3*
D41*
X1331500Y1006500D3*
D42*
Y1106500D3*
D41*
X1781500Y1019000D3*
D42*
Y1119000D3*
D41*
X2256500Y1031500D3*
D42*
Y1131500D3*
D43*
X3031500Y2031500D3*
D44*
X2731500D3*
D43*
X3031500Y1287406D3*
X2731500Y1161421D3*
X3031500Y1035437D3*
X3644000Y2031500D3*
D44*
X3344000D3*
D43*
X3644000Y1287406D3*
X3344000Y1161421D3*
X3644000Y1035437D3*
X4269000Y2019000D3*
D129*
X3969000D3*
D43*
X4269000Y1274906D3*
X3969000Y1148921D3*
X4269000Y1022937D3*
X3969000Y2219000D3*
D44*
X4269000D3*
D43*
X3969000Y2963094D3*
X4269000Y3089079D3*
X3969000Y3215063D3*
M02*
