%TF.GenerationSoftware,Novarm,DipTrace Beta,3.0.9.0*%
%TF.CreationDate,2017-03-15T19:41:13+02:00*%
%FSLAX26Y26*%
%MOIN*%
%TF.FileFunction,Copper,L2,Bot*%
%TF.Part,Single*%
%TA.AperFunction,Conductor*%
%ADD14C,0.015*%
%ADD15C,0.02*%
%ADD16C,0.03*%
%ADD18C,0.085*%
%ADD19C,0.076772*%
%TA.AperFunction,CopperBalancing*%
%ADD21C,0.025*%
%TA.AperFunction,Nonconductor*%
%ADD23C,0.01*%
%TA.AperFunction,ComponentPad*%
%ADD35R,0.06378X0.06378*%
%ADD36C,0.06378*%
%ADD37R,0.098425X0.098425*%
%ADD38C,0.098425*%
%ADD39C,0.076772*%
%ADD40R,0.076772X0.076772*%
%ADD51R,0.066929X0.066929*%
%ADD52C,0.066929*%
%TA.AperFunction,ViaPad*%
%ADD53C,0.04*%
%TA.AperFunction,Nonconductor*%
%ADD108C,0.015*%
G75*
G01*
%LPD*%
X2569000Y2899394D2*
D14*
X2618390D1*
X2643390Y2924394D1*
Y3211520D1*
X2700870Y3269000D1*
X2738370Y3306500D1*
Y3585319D1*
X2763370Y3610319D1*
X3189492D1*
X3256205Y3543606D1*
X2280902Y3368996D2*
X2573528D1*
X2598528Y3343996D1*
Y3053390D1*
X2573528Y3028390D1*
X2453390D1*
X2394000Y2969000D1*
X3656500Y2081500D2*
D16*
Y2906500D1*
X3606500Y2956500D1*
X3244000D1*
X4231500Y2069000D2*
X4131500D1*
Y1977701D1*
X3081500Y2081500D2*
X3008114Y2008114D1*
X2854886D1*
X938528Y2906697D2*
Y2825189D1*
X548142Y2434803D1*
Y2149783D1*
X613134Y2084791D1*
X1968803Y3543606D2*
Y3440299D1*
X1794000Y3265496D1*
X2914886Y1881307D2*
X2854886D1*
Y1758606D1*
X2804886Y1708606D1*
X1749472D1*
X4131500Y1977701D2*
X4035106Y1881307D1*
X2914886D1*
X2854886Y2008114D2*
X2544000D1*
X2494000Y2058114D1*
Y2369000D1*
X2165654Y3543606D2*
D14*
Y3431342D1*
X2186421Y3410575D1*
Y3068390D1*
X2161421Y3043390D1*
X1868390D1*
X1843390Y3018390D1*
Y2852764D1*
X1881500Y2814654D1*
Y2581500D1*
X2094000Y2369000D1*
X2194000D2*
X2243390Y2418390D1*
Y3518606D1*
X2268390Y3543606D1*
X2665654D1*
X2862504D2*
Y3372240D1*
X2843390Y3353126D1*
Y2706303D1*
X2818390Y2681303D1*
X2401028D1*
X2376028Y2656303D1*
Y2418390D1*
X2343390D1*
X2294000Y2369000D1*
X3059354Y3543606D2*
X2943390Y3427642D1*
Y2681303D1*
X2918390Y2656303D1*
X2435421D1*
X2410418Y2631300D1*
Y2385418D1*
X2394000Y2369000D1*
X1494000Y2969000D2*
X1651815Y3126815D1*
Y3423469D1*
X1771953Y3543606D1*
X2191028Y2843803D2*
X2068390D1*
X2043390Y2868803D1*
Y2993390D1*
X2018390Y3018390D1*
X1943390D1*
X1894000Y2969000D1*
X1794000Y2618803D2*
Y2969000D1*
X1743390Y2494004D2*
Y2919610D1*
X1694000Y2969000D1*
X1584472Y2544197D2*
X1594000Y2553725D1*
Y2969000D1*
X1406500Y1163217D2*
D15*
X1494000D1*
X1519000Y1138217D1*
Y971500D1*
X1559000Y931500D1*
X1719000D1*
X1519000Y1138217D2*
X1681500Y1300717D1*
Y1594433D1*
X2119000Y1599000D2*
X2048016Y1528016D1*
Y1039984D1*
X2156500Y931500D1*
X613134Y2319000D2*
D16*
X673626Y2258508D1*
X1094000D1*
Y2876657D1*
X1462465Y3245122D1*
Y3577819D1*
X1512465Y3627819D1*
X2028020D1*
X2053020Y3602819D1*
X2078020Y3627819D1*
X2492287D1*
X2529000Y3591106D1*
X2053020Y3602819D2*
Y3242598D1*
X2138921Y3156697D1*
X1131500Y1584433D2*
D15*
Y1162815D1*
Y1094000D1*
X1294000Y931500D1*
X2781500Y2081500D2*
D14*
X2988752D1*
X3013752Y2106500D1*
Y2305953D1*
X3061248Y2353449D1*
X1644000Y2481697D2*
X1332114D1*
X1307114Y2506697D1*
Y2974020D1*
X2509472Y2843803D2*
X2584669D1*
X2659472Y2769000D1*
X2743390Y2852918D1*
Y3151520D1*
X2760870Y3169000D1*
X544000Y1242287D2*
D15*
Y971500D1*
X584000Y931500D1*
X869000D1*
X2051028Y2750909D2*
D14*
Y2602484D1*
X2143390Y2510122D1*
Y2313827D1*
X2318386Y2138831D1*
Y1978807D1*
X2343386Y1953807D1*
X3169000D1*
X3194000Y1978807D1*
Y2302780D1*
X1844000Y2544000D2*
Y1953807D1*
X1869000Y1928807D1*
X3219000D1*
X3244000Y1953807D1*
Y2302783D1*
X2338528Y2455890D2*
X2351028Y2468390D1*
Y2824398D1*
X2501028Y2769000D2*
X2434614Y2835414D1*
Y2899394D1*
X3035008Y2924748D2*
Y3178989D1*
X3322917Y3466898D1*
Y3645319D1*
X3297917Y3670319D1*
X1086264D1*
X1061264Y3645319D1*
Y3337996D1*
X1036264Y3312996D1*
X530642D1*
X505642Y3287996D1*
Y1839130D1*
X530642Y1814130D1*
X890910D1*
X915912Y1839132D1*
Y1986087D1*
X940912Y2011087D1*
X1480496D1*
X1505496Y2036087D1*
Y2186012D1*
X1480496Y2211012D1*
X1307114D1*
X1282114Y2236012D1*
Y2419197D1*
X1307114Y2444197D1*
X1388528D1*
X1681500D1*
Y2796775D1*
X1634472Y2843803D1*
X2351024Y1769000D2*
X2686028D1*
X2711028Y1794000D1*
Y1866303D1*
X2686028Y1891303D1*
X2070004D1*
X766996Y2744197D2*
D16*
X869000Y2846201D1*
Y3122504D1*
X2303528Y2544000D2*
D14*
Y2841969D1*
X2343390Y2881831D1*
Y3146504D1*
X2318398Y3171496D1*
Y3281496D1*
X2343398Y3306496D1*
X2439614D1*
X2553528D1*
X3356500Y2081500D2*
Y2365949D1*
X3331500Y2390949D1*
X3005890D1*
X3931500Y2069000D2*
Y1990614D1*
X3492433D1*
X3467433Y2015614D1*
Y2403449D1*
X3442433Y2428449D1*
X2894079D1*
X2778528Y2544000D1*
X3128528Y2550260D2*
Y2631500D1*
X3153528Y2656500D1*
X3244000D1*
X3167996Y2735142D2*
X3148528D1*
X3128528Y2715142D1*
Y2681500D1*
X3153528Y2656500D1*
X3584492Y2550260D2*
X3266402D1*
X3870654Y2486520D2*
Y2040614D1*
X3845654Y2015614D1*
X3577126D1*
X3552126Y2040614D1*
Y2428449D1*
X3527126Y2453449D1*
X2981382D1*
X2816028Y2618803D1*
X3371992Y2587760D2*
X3225618D1*
X3150618Y2512760D1*
X3047071D1*
X2941028Y2618803D1*
X3091028D2*
Y2772642D1*
X3116028Y2797642D1*
X3374197D1*
X2143390Y2924394D2*
X2125890Y2919610D1*
X2094000Y2951500D1*
Y2969000D1*
X2143390Y2924394D2*
Y2919610D1*
X2125890D1*
X2163528Y2618803D2*
Y2763409D1*
X2138528Y2788409D1*
X2019000D1*
X1994000Y2813409D1*
Y2969000D1*
X2665654Y661717D2*
D18*
Y788430D1*
X2781500Y904276D1*
Y1211421D1*
X2862504Y661717D2*
X2901500Y700713D1*
Y1157406D1*
X3081500Y1337406D1*
X3059354Y661717D2*
Y788429D1*
X3081500Y810575D1*
Y1085437D1*
X3256205Y661717D2*
Y788429D1*
X3356500Y888724D1*
Y1211421D1*
X3453055Y661717D2*
X3476500Y685161D1*
Y1157406D1*
X3656500Y1337406D1*
X3649906Y661717D2*
X3656500Y668311D1*
Y1085437D1*
X3846756Y661717D2*
Y788429D1*
X3931500Y873173D1*
Y1198921D1*
X4043606Y661717D2*
X4051500Y669610D1*
Y1144906D1*
X4231500Y1324906D1*
X4240457Y661717D2*
Y788429D1*
X4231500Y797386D1*
Y1072937D1*
X3846756Y3543606D2*
Y2769000D1*
X4001579D1*
X4056884Y2713695D1*
D19*
X4114079Y2656500D1*
X4043606Y3543606D2*
D18*
Y3127898D1*
X3988094Y3072386D1*
Y2956500D1*
X4240457Y3543606D2*
Y3177091D1*
X4240063Y3176697D1*
Y2956500D1*
X1327031Y3269000D2*
D14*
X1378252Y3320221D1*
Y3543606D1*
X1206697Y3319669D2*
Y3414244D1*
X1181402Y3439539D1*
Y3543606D1*
X1831500Y750929D2*
D15*
X1791953D1*
X1771953Y730929D1*
Y661717D1*
X1406500Y2064492D2*
D14*
X995008D1*
X931862D1*
X744000Y1876630D1*
X1794000Y2369000D2*
X1707110Y2282110D1*
X1605496D1*
X1580496Y2257110D1*
Y1988284D1*
X1395535Y1803323D1*
X1605496Y2282110D2*
X1580496Y2307110D1*
X1331500D1*
X1894000Y2369000D2*
Y2305594D1*
X2131500Y2068094D1*
X3261913Y3265496D2*
D16*
X3453055Y3456638D1*
Y3543606D1*
X2638528Y1843803D2*
X2361972D1*
X993528Y3114512D2*
Y2684992D1*
X2384614Y3231500D2*
X2501028D1*
X2551028Y3181500D1*
Y3119000D1*
X984551Y3543606D2*
Y3407307D1*
X2324614Y3742819D2*
X1034551D1*
X984551Y3692819D1*
Y3543606D1*
X3453055D2*
Y3692819D1*
X3403055Y3742819D1*
X2324614D1*
X1749472Y1769197D2*
X1650496D1*
X1595500Y1714201D1*
X1271890D1*
X1022504Y1963587D1*
X2361972Y1843803D2*
X2354472Y1836303D1*
X1816578D1*
X1749472Y1769197D1*
X993528Y2684992D2*
Y2604784D1*
X947508Y2558764D1*
D53*
X1270614Y3627819D3*
X1467996Y2113980D3*
X2192996Y2126480D3*
X2569000Y2899394D3*
X2700870Y3269000D3*
X2280902Y3368996D3*
X1749472Y1708606D3*
X613134Y2084791D3*
X2914886Y1881307D3*
X1794000Y3265496D3*
X938528Y2906697D3*
X2854886Y2008114D3*
X4131500Y1977701D3*
X2191028Y2843803D3*
X1794000Y2618803D3*
X1743390Y2494004D3*
X1584472Y2544197D3*
X1406500Y1163217D3*
X1681500Y1594433D3*
X2119000Y1599000D3*
X613134Y2319000D3*
X2529000Y3591106D3*
X2138921Y3156697D3*
X1094000Y2258508D3*
X1131500Y1584433D3*
Y1162815D3*
X3061248Y2353449D3*
X1307114Y2974020D3*
X1644000Y2481697D3*
X2760870Y3169000D3*
X2509472Y2843803D3*
X2659472Y2769000D3*
X544000Y1242287D3*
X3194000Y2302780D3*
X2051028Y2750909D3*
X3244000Y2302783D3*
X1844000Y2544000D3*
X2351028Y2824398D3*
X2338528Y2455890D3*
X2434614Y2899394D3*
X2501028Y2769000D3*
X1388528Y2444197D3*
X1634472Y2843803D3*
X3035008Y2924748D3*
X2070004Y1891303D3*
X2351024Y1769000D3*
X869000Y3122504D3*
X766996Y2744197D3*
X2553528Y3306496D3*
X2303528Y2544000D3*
X2439614Y3306496D3*
X3005890Y2390949D3*
X2778528Y2544000D3*
X3128528Y2550260D3*
X3167996Y2735142D3*
X3266402Y2550260D3*
X3584492D3*
X2816028Y2618803D3*
X3870654Y2486520D3*
X2941028Y2618803D3*
X3371992Y2587760D3*
X3374197Y2797642D3*
X3091028Y2618803D3*
X2143390Y2924394D3*
X2163528Y2618803D3*
X1327031Y3269000D3*
X1206697Y3319669D3*
X1831500Y750929D3*
X995008Y2064492D3*
X1406500D3*
X744000Y1876630D3*
X1395535Y1803323D3*
X1331500Y2307110D3*
X2131500Y2068094D3*
X947508Y2558764D3*
X993528Y3114512D3*
X2324614Y3742819D3*
X3261913Y3265496D3*
X2361972Y1843803D3*
X2638528D3*
X2551028Y3119000D3*
X1022504Y1963587D3*
X2384614Y3231500D3*
X993528Y2684992D3*
X984551Y3407307D3*
X1749472Y1769197D3*
X496036Y3719131D2*
D21*
X3729024D1*
X495597Y3694262D2*
X1059640D1*
X3324552D2*
X3729024D1*
X495157Y3669394D2*
X1034786D1*
X3349405D2*
X3729024D1*
X494718Y3644525D2*
X1024776D1*
X3359415D2*
X3729024D1*
X494278Y3619656D2*
X1024776D1*
X1097745D2*
X1222335D1*
X1318888D2*
X1443136D1*
X3359415D2*
X3729024D1*
X493839Y3594787D2*
X512618D1*
X669083D2*
X729415D1*
X845987D2*
X1024776D1*
X1305851D2*
X1319942D1*
X3359415D2*
X3591622D1*
X3708194D2*
X3729024D1*
X493351Y3569919D2*
X512618D1*
X669083D2*
X714229D1*
X861173D2*
X1024776D1*
X1259610D2*
X1304757D1*
X1515714D2*
X1693722D1*
X1850187D2*
X1895333D1*
X2774845D2*
X2789005D1*
X3132853D2*
X3177999D1*
X3359415D2*
X3576437D1*
X492911Y3545050D2*
X512618D1*
X669083D2*
X709493D1*
X865909D2*
X1024776D1*
X1259610D2*
X1300069D1*
X1506437D2*
X1693722D1*
X1850187D2*
X1890597D1*
X3137540D2*
X3177999D1*
X3359415D2*
X3571700D1*
X492472Y3520181D2*
X512618D1*
X669083D2*
X713204D1*
X862198D2*
X1024776D1*
X1259610D2*
X1303731D1*
X1506437D2*
X1693722D1*
X1850187D2*
X1894308D1*
X2774845D2*
X2787989D1*
X3133829D2*
X3177999D1*
X3359415D2*
X3575411D1*
X492032Y3495312D2*
X512618D1*
X669083D2*
X726876D1*
X848526D2*
X1024776D1*
X1259610D2*
X1317452D1*
X1506437D2*
X1673116D1*
X1850187D2*
X1907979D1*
X2774845D2*
X2801681D1*
X3120157D2*
X3177999D1*
X3359415D2*
X3589083D1*
X3710733D2*
X3729024D1*
X491593Y3470444D2*
X512618D1*
X669083D2*
X765694D1*
X809708D2*
X1024776D1*
X1259610D2*
X1341769D1*
X1506437D2*
X1648214D1*
X1850187D2*
X1924825D1*
X2774845D2*
X2825997D1*
X3081339D2*
X3177999D1*
X3359415D2*
X3627901D1*
X3671866D2*
X3729024D1*
X491153Y3445575D2*
X1024776D1*
X1097745D2*
X1144894D1*
X1225919D2*
X1341769D1*
X1506437D2*
X1623507D1*
X1724503D2*
X1912911D1*
X2774845D2*
X2825997D1*
X3011905D2*
X3251046D1*
X3351896D2*
X3729024D1*
X490714Y3420706D2*
X1024776D1*
X1097745D2*
X1150606D1*
X1242569D2*
X1341769D1*
X1506437D2*
X1615304D1*
X1699601D2*
X1888058D1*
X2774845D2*
X2825997D1*
X2987003D2*
X3226144D1*
X3327286D2*
X3729024D1*
X490226Y3395837D2*
X1024776D1*
X1097745D2*
X1170187D1*
X1243204D2*
X1341769D1*
X1506437D2*
X1615304D1*
X1688321D2*
X1863155D1*
X1985489D2*
X2009054D1*
X2774845D2*
X2825997D1*
X2979874D2*
X3201290D1*
X3302433D2*
X3729024D1*
X489786Y3370969D2*
X1024776D1*
X1097745D2*
X1170187D1*
X1243204D2*
X1341769D1*
X1506437D2*
X1615304D1*
X1688321D2*
X1838302D1*
X1960636D2*
X2009054D1*
X2774845D2*
X2811983D1*
X2979874D2*
X3176437D1*
X3277530D2*
X3729024D1*
X489347Y3346100D2*
X520431D1*
X1097745D2*
X1165938D1*
X1247452D2*
X1341769D1*
X1506437D2*
X1615304D1*
X1688321D2*
X1813448D1*
X1935782D2*
X2009054D1*
X2774845D2*
X2806905D1*
X2979874D2*
X3151534D1*
X3252677D2*
X3729024D1*
X1093351Y3321231D2*
X1157735D1*
X1255655D2*
X1328683D1*
X1506437D2*
X1615304D1*
X1688321D2*
X1788546D1*
X1910929D2*
X2009054D1*
X2279874D2*
X2307589D1*
X2774845D2*
X2806905D1*
X2979874D2*
X3126681D1*
X3227823D2*
X3729024D1*
X1070206Y3296362D2*
X1163937D1*
X1249454D2*
X1286935D1*
X1404972D2*
X1418478D1*
X1506437D2*
X1615304D1*
X1688321D2*
X1756710D1*
X1886026D2*
X2009054D1*
X2773331D2*
X2806905D1*
X2979874D2*
X3101827D1*
X3202970D2*
X3729024D1*
X542130Y3271493D2*
X1278097D1*
X1380069D2*
X1418478D1*
X1506437D2*
X1615304D1*
X1688321D2*
X1745382D1*
X1861173D2*
X2009054D1*
X2358976D2*
X2406515D1*
X2472745D2*
X2520431D1*
X2753946D2*
X2806905D1*
X2979874D2*
X3076925D1*
X3178067D2*
X3729024D1*
X542130Y3246625D2*
X1283761D1*
X1370304D2*
X1402804D1*
X1506437D2*
X1615304D1*
X1688321D2*
X1748995D1*
X1839005D2*
X2009054D1*
X2354874D2*
X2562032D1*
X2744132D2*
X2806905D1*
X2979874D2*
X3052071D1*
X3153214D2*
X3729024D1*
X542130Y3221756D2*
X1377950D1*
X1499259D2*
X1615304D1*
X1688321D2*
X1775704D1*
X1812296D2*
X2014669D1*
X2354874D2*
X2562032D1*
X2704190D2*
X2806905D1*
X2979874D2*
X3027218D1*
X3128360D2*
X3729024D1*
X542130Y3196887D2*
X1353048D1*
X1475382D2*
X1615304D1*
X1688321D2*
X2037569D1*
X2354874D2*
X2562032D1*
X2679874D2*
X2721163D1*
X2979874D2*
X3003634D1*
X3103458D2*
X3729024D1*
X542130Y3172018D2*
X1328194D1*
X1450528D2*
X1615304D1*
X1688321D2*
X2062423D1*
X2368448D2*
X2562032D1*
X2679874D2*
X2711983D1*
X2979874D2*
X2998507D1*
X3078604D2*
X3729024D1*
X542130Y3147150D2*
X827071D1*
X910929D2*
X1303341D1*
X1425675D2*
X1615304D1*
X1688321D2*
X2087276D1*
X2379874D2*
X2562032D1*
X2679874D2*
X2706905D1*
X2979874D2*
X2998507D1*
X3071476D2*
X3729024D1*
X542130Y3122281D2*
X819991D1*
X918009D2*
X1278438D1*
X1400772D2*
X1596700D1*
X1687979D2*
X2105147D1*
X2279874D2*
X2306905D1*
X2379874D2*
X2562032D1*
X2679874D2*
X2706905D1*
X2779874D2*
X2806905D1*
X2979874D2*
X2998507D1*
X3071476D2*
X3729024D1*
X542130Y3097412D2*
X825021D1*
X912979D2*
X1253585D1*
X1375919D2*
X1571847D1*
X1672989D2*
X2149923D1*
X2279874D2*
X2306905D1*
X2379874D2*
X2562032D1*
X2679874D2*
X2706905D1*
X2779874D2*
X2806905D1*
X2979874D2*
X2998507D1*
X3071476D2*
X3729024D1*
X542130Y3072543D2*
X825021D1*
X912979D2*
X1228731D1*
X1351065D2*
X1546993D1*
X1648087D2*
X1848409D1*
X2279874D2*
X2306905D1*
X2379874D2*
X2562032D1*
X2679874D2*
X2706905D1*
X2779874D2*
X2806905D1*
X2979874D2*
X2998507D1*
X3071476D2*
X3729024D1*
X542130Y3047675D2*
X825021D1*
X912979D2*
X1203829D1*
X1326212D2*
X1522091D1*
X1623233D2*
X1822091D1*
X2279874D2*
X2306905D1*
X2379874D2*
X2422091D1*
X2679874D2*
X2706905D1*
X2779874D2*
X2806905D1*
X2979874D2*
X2998507D1*
X3071476D2*
X3729024D1*
X542130Y3022806D2*
X825021D1*
X912979D2*
X1178976D1*
X1301310D2*
X1333126D1*
X1454874D2*
X1468819D1*
X1619181D2*
X1668819D1*
X1719181D2*
X1768819D1*
X2979874D2*
X2998507D1*
X3071476D2*
X3729024D1*
X542130Y2997937D2*
X825021D1*
X912979D2*
X1154122D1*
X2979874D2*
X2998507D1*
X3071476D2*
X3191573D1*
X3611026D2*
X3729024D1*
X542130Y2973068D2*
X825021D1*
X912979D2*
X1129220D1*
X2454728D2*
X2533272D1*
X2979874D2*
X2998507D1*
X3071476D2*
X3178780D1*
X3651114D2*
X3729024D1*
X542130Y2948199D2*
X825021D1*
X962003D2*
X1104366D1*
X1226700D2*
X1265938D1*
X2451065D2*
X2536935D1*
X3077677D2*
X3177169D1*
X3675968D2*
X3729024D1*
X542130Y2923331D2*
X825021D1*
X984464D2*
X1079513D1*
X1201847D2*
X1270626D1*
X1532901D2*
X1555099D1*
X1932901D2*
X1955099D1*
X2476993D2*
X2526632D1*
X3083976D2*
X3185714D1*
X3696915D2*
X3729024D1*
X542130Y2898462D2*
X825021D1*
X986808D2*
X1056222D1*
X1176993D2*
X1270626D1*
X1343595D2*
X1557491D1*
X1879874D2*
X1957491D1*
X2483585D2*
X2519991D1*
X2779874D2*
X2806905D1*
X2879874D2*
X2906905D1*
X2979874D2*
X2994161D1*
X3075870D2*
X3212472D1*
X3275528D2*
X3603390D1*
X3700479D2*
X3729024D1*
X542130Y2873593D2*
X825021D1*
X982511D2*
X1050021D1*
X1152091D2*
X1270626D1*
X1343595D2*
X1557491D1*
X1879874D2*
X1957491D1*
X2378849D2*
X2393429D1*
X2779874D2*
X2806905D1*
X2879874D2*
X2906905D1*
X2979874D2*
X3612521D1*
X3700479D2*
X3729024D1*
X542130Y2848724D2*
X810372D1*
X982511D2*
X1050021D1*
X1137979D2*
X1270626D1*
X1343595D2*
X1557491D1*
X1897989D2*
X1957491D1*
X2779630D2*
X2806905D1*
X2879874D2*
X2906905D1*
X2979874D2*
X3612521D1*
X3700479D2*
X3729024D1*
X542130Y2823856D2*
X785470D1*
X982511D2*
X1050021D1*
X1137979D2*
X1270626D1*
X1343595D2*
X1557491D1*
X1916739D2*
X1957491D1*
X2764884D2*
X2806905D1*
X2879874D2*
X2906905D1*
X2979874D2*
X3091915D1*
X3415128D2*
X3612521D1*
X3700479D2*
X3729024D1*
X542130Y2798987D2*
X760616D1*
X973185D2*
X1050021D1*
X1137979D2*
X1270626D1*
X1343595D2*
X1557491D1*
X1830509D2*
X1844991D1*
X1918009D2*
X1960714D1*
X2392472D2*
X2420479D1*
X2539054D2*
X2578927D1*
X2740030D2*
X2806905D1*
X2879874D2*
X2906905D1*
X2979874D2*
X3066817D1*
X3423185D2*
X3612521D1*
X3700479D2*
X3729024D1*
X542130Y2774118D2*
X728878D1*
X948624D2*
X1050021D1*
X1137979D2*
X1270626D1*
X1343595D2*
X1557491D1*
X1630509D2*
X1644991D1*
X1830509D2*
X1844991D1*
X1918009D2*
X1982735D1*
X2387491D2*
X2445333D1*
X2549747D2*
X2603780D1*
X2715177D2*
X2806905D1*
X2879874D2*
X2906905D1*
X2979874D2*
X3054562D1*
X3416788D2*
X3612521D1*
X3700479D2*
X3729024D1*
X542130Y2749249D2*
X718282D1*
X923771D2*
X1050021D1*
X1137979D2*
X1270626D1*
X1343595D2*
X1557491D1*
X1630509D2*
X1644991D1*
X1830509D2*
X1844991D1*
X1918009D2*
X2002071D1*
X2099991D2*
X2127022D1*
X2387491D2*
X2456417D1*
X2545646D2*
X2614864D1*
X2704093D2*
X2806905D1*
X2879874D2*
X2906905D1*
X2979874D2*
X3054562D1*
X3214786D2*
X3612521D1*
X3700479D2*
X3729024D1*
X542130Y2724381D2*
X722433D1*
X898868D2*
X1050021D1*
X1137979D2*
X1270626D1*
X1343595D2*
X1557491D1*
X1630509D2*
X1644991D1*
X1830509D2*
X1844991D1*
X1918009D2*
X2010323D1*
X2091739D2*
X2127022D1*
X2387491D2*
X2485421D1*
X2516642D2*
X2643868D1*
X2675040D2*
X2806905D1*
X2879874D2*
X2906905D1*
X2979874D2*
X3054562D1*
X3215714D2*
X3612521D1*
X3700479D2*
X3729024D1*
X542130Y2699512D2*
X751632D1*
X874015D2*
X1050021D1*
X1137979D2*
X1270626D1*
X1343595D2*
X1557491D1*
X1630509D2*
X1644991D1*
X1830509D2*
X1844991D1*
X1918009D2*
X2014522D1*
X2087491D2*
X2127022D1*
X2879190D2*
X2906905D1*
X2979874D2*
X3054562D1*
X3311368D2*
X3612521D1*
X3700479D2*
X3729024D1*
X542130Y2674643D2*
X726827D1*
X849161D2*
X1050021D1*
X1137979D2*
X1270626D1*
X1343595D2*
X1557491D1*
X1630509D2*
X1644991D1*
X1830509D2*
X1844991D1*
X1918009D2*
X2014522D1*
X2087491D2*
X2127022D1*
X2979239D2*
X3054562D1*
X3311368D2*
X3612521D1*
X3700479D2*
X3729024D1*
X542130Y2649774D2*
X701925D1*
X824308D2*
X1050021D1*
X1137979D2*
X1270626D1*
X1343595D2*
X1557491D1*
X1630509D2*
X1644991D1*
X1831192D2*
X1844991D1*
X1918009D2*
X2014522D1*
X2087491D2*
X2126339D1*
X2978214D2*
X3053829D1*
X3311368D2*
X3612521D1*
X3700479D2*
X3729024D1*
X542130Y2624906D2*
X677071D1*
X799405D2*
X1050021D1*
X1137979D2*
X1270626D1*
X1343595D2*
X1557491D1*
X1630509D2*
X1644991D1*
X1918009D2*
X2014522D1*
X2087491D2*
X2114913D1*
X2989640D2*
X3042452D1*
X3311368D2*
X3341524D1*
X3402481D2*
X3612521D1*
X3700479D2*
X3729024D1*
X542130Y2600037D2*
X652218D1*
X774552D2*
X1050021D1*
X1137979D2*
X1270626D1*
X1343595D2*
X1557491D1*
X1630509D2*
X1644991D1*
X1918009D2*
X2014620D1*
X2104044D2*
X2118478D1*
X2446915D2*
X2770968D1*
X3010343D2*
X3045968D1*
X3419327D2*
X3612521D1*
X3700479D2*
X3729024D1*
X542130Y2575168D2*
X627315D1*
X749698D2*
X1050021D1*
X1137979D2*
X1270626D1*
X1343595D2*
X1547286D1*
X1630509D2*
X1644991D1*
X1938419D2*
X2027755D1*
X2128897D2*
X2144942D1*
X2182120D2*
X2206905D1*
X2446915D2*
X2741524D1*
X3035245D2*
X3072481D1*
X3700479D2*
X3729024D1*
X542130Y2550299D2*
X602462D1*
X724796D2*
X1050021D1*
X1137979D2*
X1270626D1*
X1343595D2*
X1535860D1*
X1779874D2*
X1795431D1*
X1963272D2*
X2052657D1*
X2153800D2*
X2206905D1*
X2446915D2*
X2729952D1*
X3060099D2*
X3079513D1*
X3700479D2*
X4378585D1*
X542130Y2525430D2*
X577608D1*
X699942D2*
X1050021D1*
X1137979D2*
X1270626D1*
X1343595D2*
X1539425D1*
X1780167D2*
X1798849D1*
X1988126D2*
X2077511D1*
X2176212D2*
X2206905D1*
X2446915D2*
X2733419D1*
X3700479D2*
X3842696D1*
X3898624D2*
X4378243D1*
X675089Y2500562D2*
X1050021D1*
X1137979D2*
X1271163D1*
X1791935D2*
X1807491D1*
X2012979D2*
X2102364D1*
X2179874D2*
X2206905D1*
X2446915D2*
X2759444D1*
X3189005D2*
X3612521D1*
X3700479D2*
X3823849D1*
X3917472D2*
X4377901D1*
X650187Y2475693D2*
X1050021D1*
X1137979D2*
X1287569D1*
X1788614D2*
X1807491D1*
X2037882D2*
X2106905D1*
X2179874D2*
X2206905D1*
X2446915D2*
X2796261D1*
X3555460D2*
X3612521D1*
X3700479D2*
X3822921D1*
X3918399D2*
X4377560D1*
X625333Y2450824D2*
X1050021D1*
X1137979D2*
X1263155D1*
X1763126D2*
X1807491D1*
X2062735D2*
X2106905D1*
X2179874D2*
X2206905D1*
X2446915D2*
X2821163D1*
X3580216D2*
X3612521D1*
X3700479D2*
X3834151D1*
X3907120D2*
X4377218D1*
X600479Y2425955D2*
X1050021D1*
X1137979D2*
X1246310D1*
X1712687D2*
X1778634D1*
X2446915D2*
X2478634D1*
X2509366D2*
X2578634D1*
X2609366D2*
X2778634D1*
X2809366D2*
X2846017D1*
X3588614D2*
X3612521D1*
X3700479D2*
X3834151D1*
X3907120D2*
X4376876D1*
X592130Y2401087D2*
X1050021D1*
X1137979D2*
X1245626D1*
X2645304D2*
X2742696D1*
X3588614D2*
X3612521D1*
X3700479D2*
X3834151D1*
X3907120D2*
X4376583D1*
X592130Y2376218D2*
X1050021D1*
X1137979D2*
X1245626D1*
X2654435D2*
X2733565D1*
X3391397D2*
X3430929D1*
X3588614D2*
X3612521D1*
X3700479D2*
X3834151D1*
X3907120D2*
X4376241D1*
X649015Y2351349D2*
X1050021D1*
X1137979D2*
X1245626D1*
X2652140D2*
X2735860D1*
X2952140D2*
X2979024D1*
X3110196D2*
X3319991D1*
X3393009D2*
X3430929D1*
X3588614D2*
X3612521D1*
X3700479D2*
X3834151D1*
X3907120D2*
X4375899D1*
X666837Y2326480D2*
X1050021D1*
X1137979D2*
X1245626D1*
X2537979D2*
X2551496D1*
X2636515D2*
X2751485D1*
X2836515D2*
X2851497D1*
X2936515D2*
X2984151D1*
X3101651D2*
X3151485D1*
X3286515D2*
X3319991D1*
X3393009D2*
X3430929D1*
X3588614D2*
X3612521D1*
X3700479D2*
X3834151D1*
X3907120D2*
X4375558D1*
X691690Y2301612D2*
X1050021D1*
X1137979D2*
X1245626D1*
X1777188D2*
X1807491D1*
X2537979D2*
X2977267D1*
X3059952D2*
X3144991D1*
X3293009D2*
X3319991D1*
X3393009D2*
X3430929D1*
X3588614D2*
X3612521D1*
X3700479D2*
X3834151D1*
X3907120D2*
X4375216D1*
X1139298Y2276743D2*
X1245626D1*
X1752286D2*
X1807491D1*
X2537979D2*
X2977267D1*
X3050235D2*
X3152950D1*
X3285001D2*
X3319991D1*
X3393009D2*
X3430929D1*
X3588614D2*
X3612521D1*
X3700479D2*
X3834151D1*
X3907120D2*
X4374874D1*
X592130Y2251874D2*
X619112D1*
X1142521D2*
X1245626D1*
X1318595D2*
X1544015D1*
X1725138D2*
X1807491D1*
X2537979D2*
X2977267D1*
X3050235D2*
X3157491D1*
X3280509D2*
X3319991D1*
X3393009D2*
X3430929D1*
X3588614D2*
X3612521D1*
X3700479D2*
X3834151D1*
X3907120D2*
X4374532D1*
X592130Y2227005D2*
X644112D1*
X1130704D2*
X1246847D1*
X1515079D2*
X1544015D1*
X1616983D2*
X1807491D1*
X2537979D2*
X2977267D1*
X3050235D2*
X3157491D1*
X3280509D2*
X3319991D1*
X3393009D2*
X3430929D1*
X3588614D2*
X3612521D1*
X3700479D2*
X3834151D1*
X3907120D2*
X4374190D1*
X592130Y2202136D2*
X1265401D1*
X1616983D2*
X1807491D1*
X2537979D2*
X2977267D1*
X3050235D2*
X3157491D1*
X3280509D2*
X3319991D1*
X3393009D2*
X3430929D1*
X3588614D2*
X3612521D1*
X3700479D2*
X3834151D1*
X3907120D2*
X4373849D1*
X592130Y2177268D2*
X1300558D1*
X1616983D2*
X1807491D1*
X2537979D2*
X2977267D1*
X3050235D2*
X3157491D1*
X3280509D2*
X3319991D1*
X3393009D2*
X3430929D1*
X3588614D2*
X3612521D1*
X3700479D2*
X3834151D1*
X3907120D2*
X4373556D1*
X606681Y2152399D2*
X1439278D1*
X1616983D2*
X1807491D1*
X2537979D2*
X2977267D1*
X3050235D2*
X3157491D1*
X3280509D2*
X3319991D1*
X3393009D2*
X3430929D1*
X3588614D2*
X3612521D1*
X3700479D2*
X3834151D1*
X3907120D2*
X4373214D1*
X633976Y2127530D2*
X1421017D1*
X1616983D2*
X1807491D1*
X2537979D2*
X2714132D1*
X2848868D2*
X2977267D1*
X3129728D2*
X3157491D1*
X3588614D2*
X3608272D1*
X3704728D2*
X3834151D1*
X3998868D2*
X4200997D1*
X4262003D2*
X4372872D1*
X658585Y2102661D2*
X965938D1*
X1024063D2*
X1377462D1*
X1616983D2*
X1807491D1*
X2537979D2*
X2714132D1*
X3720353D2*
X3834151D1*
X3998868D2*
X4104757D1*
X4289493D2*
X4372530D1*
X542130Y2077793D2*
X558956D1*
X661612D2*
X894601D1*
X1616983D2*
X1807491D1*
X2537979D2*
X2714132D1*
X3723771D2*
X3834151D1*
X3998868D2*
X4088448D1*
X4298282D2*
X4372188D1*
X542130Y2052924D2*
X576778D1*
X649503D2*
X869747D1*
X1616983D2*
X1807491D1*
X2560343D2*
X2714132D1*
X3142276D2*
X3157491D1*
X3717276D2*
X3832394D1*
X3998868D2*
X4087521D1*
X4296866D2*
X4371847D1*
X542130Y2028055D2*
X844845D1*
X1616983D2*
X1807491D1*
X3120792D2*
X3157491D1*
X3998868D2*
X4087521D1*
X4284317D2*
X4371505D1*
X542130Y2003186D2*
X819991D1*
X1523136D2*
X1544015D1*
X1616983D2*
X1807491D1*
X3064347D2*
X3157491D1*
X3280509D2*
X3433321D1*
X3968009D2*
X4087521D1*
X4175479D2*
X4371163D1*
X542130Y1978318D2*
X795138D1*
X1492032D2*
X1519942D1*
X1615470D2*
X1807491D1*
X3280509D2*
X3454171D1*
X3965665D2*
X4070968D1*
X4180509D2*
X4370870D1*
X542130Y1953449D2*
X770235D1*
X952384D2*
X1495089D1*
X1596231D2*
X1807491D1*
X3280509D2*
X4046065D1*
X4173673D2*
X4370528D1*
X542130Y1928580D2*
X745382D1*
X952384D2*
X1470235D1*
X1571378D2*
X1818673D1*
X3269327D2*
X4021212D1*
X4143546D2*
X4370187D1*
X542130Y1903711D2*
X703683D1*
X952384D2*
X1445382D1*
X1546476D2*
X1843575D1*
X4118692D2*
X4369845D1*
X542130Y1878843D2*
X695040D1*
X952384D2*
X1420479D1*
X1521622D2*
X2022726D1*
X4093790D2*
X4369503D1*
X542130Y1853974D2*
X700899D1*
X952384D2*
X1395626D1*
X1496769D2*
X2039767D1*
X2100235D2*
X2672774D1*
X4068937D2*
X4369161D1*
X950870Y1829105D2*
X1354317D1*
X1471866D2*
X2674532D1*
X2898868D2*
X4368819D1*
X461661Y1804236D2*
X489962D1*
X931583D2*
X1346554D1*
X1447013D2*
X2318185D1*
X2383878D2*
X2670724D1*
X2898868D2*
X4368478D1*
X461222Y1779367D2*
X1353194D1*
X1437882D2*
X2303194D1*
X2898868D2*
X4368136D1*
X460782Y1754499D2*
X1739474D1*
X1759464D2*
X2304366D1*
X2898673D2*
X4367843D1*
X460294Y1729630D2*
X1705489D1*
X2887101D2*
X4367501D1*
X459854Y1704761D2*
X1700655D1*
X2862198D2*
X4367159D1*
X459415Y1679892D2*
X1710421D1*
X2837345D2*
X4366817D1*
X1348110Y3027390D2*
X1452390D1*
Y3009958D1*
X1459679Y3016238D1*
X1467492Y3021026D1*
X1475957Y3024532D1*
X1484866Y3026671D1*
X1494000Y3027390D1*
X1503538Y3026591D1*
X1617836Y3140920D1*
X1617920Y3426136D1*
X1618754Y3431406D1*
X1620403Y3436480D1*
X1622825Y3441234D1*
X1625961Y3445550D1*
X1696240Y3515977D1*
Y3586302D1*
X1529631Y3586319D1*
X1503934Y3560598D1*
X1503837Y3241866D1*
X1502818Y3235434D1*
X1500806Y3229241D1*
X1497850Y3223438D1*
X1494022Y3218170D1*
X1447616Y3171583D1*
X1294904Y3018871D1*
X1303466Y3020377D1*
X1310762D1*
X1317969Y3019235D1*
X1324909Y3016980D1*
X1331410Y3013668D1*
X1335600Y3010730D1*
X1335610Y3027390D1*
X1348110D1*
X1452390Y2928025D2*
Y2910610D1*
X1341110D1*
X1341114Y2520749D1*
X1357114Y2515697D1*
X1547690D1*
X1543040Y2523086D1*
X1540248Y2529828D1*
X1538544Y2536923D1*
X1537972Y2544197D1*
X1538544Y2551471D1*
X1540248Y2558566D1*
X1543040Y2565308D1*
X1546853Y2571529D1*
X1551592Y2577077D1*
X1557140Y2581816D1*
X1560022Y2583742D1*
X1560000Y2921547D1*
X1552712Y2927712D1*
X1546762Y2934679D1*
X1544013Y2938851D1*
X1538400Y2931079D1*
X1531921Y2924600D1*
X1524509Y2919215D1*
X1516345Y2915055D1*
X1507631Y2912224D1*
X1498581Y2910790D1*
X1489419D1*
X1480369Y2912224D1*
X1471655Y2915055D1*
X1463491Y2919215D1*
X1456079Y2924600D1*
X1452384Y2928067D1*
X1600093Y3027031D2*
X1607631Y3025776D1*
X1616345Y3022945D1*
X1624509Y3018785D1*
X1631921Y3013400D1*
X1638400Y3006921D1*
X1643987Y2999149D1*
X1649600Y3006921D1*
X1656079Y3013400D1*
X1663491Y3018785D1*
X1671655Y3022945D1*
X1680369Y3025776D1*
X1689419Y3027210D1*
X1698581D1*
X1707631Y3025776D1*
X1716345Y3022945D1*
X1724509Y3018785D1*
X1731921Y3013400D1*
X1738400Y3006921D1*
X1743987Y2999149D1*
X1749600Y3006921D1*
X1756079Y3013400D1*
X1763491Y3018785D1*
X1771655Y3022945D1*
X1780369Y3025776D1*
X1789419Y3027210D1*
X1798581D1*
X1807631Y3025776D1*
X1810061Y3025091D1*
X1811978Y3031401D1*
X1814400Y3036155D1*
X1817536Y3040471D1*
X1846309Y3069244D1*
X1850625Y3072380D1*
X1855379Y3074802D1*
X1860453Y3076451D1*
X1865722Y3077285D1*
X1968390Y3077390D1*
X2147345D1*
X2152421Y3093390D1*
Y3112189D1*
X2146195Y3110769D1*
X2138921Y3110197D1*
X2131647Y3110769D1*
X2124552Y3112473D1*
X2117810Y3115265D1*
X2111589Y3119078D1*
X2106041Y3123817D1*
X2101302Y3129365D1*
X2097489Y3135586D1*
X2094741Y3142207D1*
X2021463Y3215646D1*
X2017635Y3220914D1*
X2014679Y3226717D1*
X2012667Y3232910D1*
X2011648Y3239342D1*
X2011520Y3305098D1*
Y3481123D1*
X2010303Y3468606D1*
X2010175Y3437043D1*
X2009157Y3430611D1*
X2007144Y3424418D1*
X2004188Y3418615D1*
X2000360Y3413347D1*
X1953954Y3366760D1*
X1838186Y3250992D1*
X1835432Y3244385D1*
X1831619Y3238164D1*
X1826880Y3232616D1*
X1821332Y3227877D1*
X1815111Y3224064D1*
X1808369Y3221272D1*
X1801274Y3219568D1*
X1794000Y3218996D1*
X1786726Y3219568D1*
X1779631Y3221272D1*
X1772889Y3224064D1*
X1766668Y3227877D1*
X1761120Y3232616D1*
X1756381Y3238164D1*
X1752568Y3244385D1*
X1749776Y3251127D1*
X1748072Y3258222D1*
X1747500Y3265496D1*
X1748072Y3272770D1*
X1749776Y3279865D1*
X1752568Y3286607D1*
X1756381Y3292828D1*
X1761120Y3298376D1*
X1766668Y3303115D1*
X1772889Y3306928D1*
X1779510Y3309676D1*
X1927310Y3457496D1*
X1927303Y3480289D1*
X1919632Y3486034D1*
X1911231Y3494435D1*
X1904248Y3504047D1*
X1898854Y3514632D1*
X1895182Y3525932D1*
X1893324Y3537666D1*
Y3549547D1*
X1895182Y3561281D1*
X1898854Y3572580D1*
X1904248Y3583166D1*
X1906351Y3586313D1*
X1847698Y3586319D1*
X1847665Y3467894D1*
X1744296D1*
X1685820Y3409390D1*
X1685710Y3124147D1*
X1684876Y3118878D1*
X1683227Y3113804D1*
X1680805Y3109050D1*
X1677669Y3104734D1*
X1605146Y3032063D1*
X1600140Y3027056D1*
X1943987Y2938851D2*
X1938400Y2931079D1*
X1931921Y2924600D1*
X1924509Y2919215D1*
X1916345Y2915055D1*
X1907631Y2912224D1*
X1898581Y2910790D1*
X1889419D1*
X1880369Y2912224D1*
X1877387Y2913065D1*
X1877390Y2866876D1*
X1907354Y2836735D1*
X1910490Y2832419D1*
X1912912Y2827665D1*
X1914561Y2822591D1*
X1915395Y2817322D1*
X1915500Y2714654D1*
Y2595562D1*
X2084494Y2426590D1*
X2094000Y2427390D1*
X2103134Y2426671D1*
X2109406Y2425276D1*
X2109390Y2496102D1*
X2025174Y2580403D1*
X2022038Y2584719D1*
X2019616Y2589473D1*
X2017967Y2594547D1*
X2017133Y2599816D1*
X2017028Y2702484D1*
Y2719232D1*
X2013409Y2723577D1*
X2009596Y2729798D1*
X2006804Y2736540D1*
X2005100Y2743635D1*
X2004528Y2750909D1*
X2005012Y2757433D1*
X1999015Y2760902D1*
X1994958Y2764367D1*
X1968146Y2791328D1*
X1965010Y2795644D1*
X1962588Y2800398D1*
X1960939Y2805472D1*
X1960105Y2810741D1*
X1960000Y2913409D1*
Y2921563D1*
X1952712Y2927712D1*
X1946762Y2934679D1*
X1944013Y2938851D1*
X2277387Y3024935D2*
X2284866Y3026671D1*
X2294000Y3027390D1*
X2303134Y3026671D1*
X2309406Y3025276D1*
X2309390Y3132466D1*
X2292544Y3149415D1*
X2289408Y3153731D1*
X2286986Y3158485D1*
X2285337Y3163559D1*
X2284503Y3168828D1*
X2284398Y3271496D1*
X2284503Y3284164D1*
X2285337Y3289433D1*
X2286986Y3294507D1*
X2289408Y3299261D1*
X2292544Y3303577D1*
X2319356Y3330538D1*
X2323734Y3334217D1*
X2323528Y3334996D1*
X2312639D1*
X2305198Y3329348D1*
X2298697Y3326036D1*
X2291757Y3323781D1*
X2284550Y3322639D1*
X2277382Y3322634D1*
X2277390Y3025002D1*
X2452210Y2964419D2*
X2450776Y2955369D1*
X2447945Y2946655D1*
X2446843Y2944264D1*
X2455725Y2940826D1*
X2461946Y2937013D1*
X2467494Y2932274D1*
X2472233Y2926726D1*
X2476046Y2920505D1*
X2478838Y2913763D1*
X2480542Y2906668D1*
X2481114Y2899394D1*
X2480542Y2892120D1*
X2478838Y2885025D1*
X2476046Y2878283D1*
X2472233Y2872062D1*
X2468608Y2867718D1*
X2469824Y2868099D1*
X2474113Y2874002D1*
X2479273Y2879162D1*
X2485176Y2883451D1*
X2491677Y2886763D1*
X2498617Y2889018D1*
X2505824Y2890160D1*
X2513120D1*
X2520327Y2889018D1*
X2523908Y2888002D1*
X2522643Y2895746D1*
Y2903042D1*
X2523785Y2910249D1*
X2526040Y2917189D1*
X2529352Y2923690D1*
X2533641Y2929593D1*
X2538801Y2934753D1*
X2544123Y2938654D1*
X2540055Y2946655D1*
X2537224Y2955369D1*
X2535790Y2964419D1*
Y2973581D1*
X2537224Y2982631D1*
X2540055Y2991345D1*
X2541472Y2994419D1*
X2467424Y2994390D1*
X2451640Y2978557D1*
X2452390Y2969000D1*
X2452210Y2964419D1*
X2389544Y2910785D2*
X2380369Y2912224D1*
X2377387Y2913065D1*
X2377285Y2879163D1*
X2376451Y2873894D1*
X2374802Y2868820D1*
X2373496Y2866059D1*
X2375324Y2864046D1*
X2381227Y2859757D1*
X2386387Y2854597D1*
X2390676Y2848694D1*
X2393988Y2842193D1*
X2396243Y2835253D1*
X2397385Y2828046D1*
Y2820750D1*
X2396243Y2813543D1*
X2393988Y2806603D1*
X2390676Y2800102D1*
X2386387Y2794199D1*
X2385022Y2792722D1*
X2385028Y2711263D1*
X2390521Y2713639D1*
X2395709Y2714884D1*
X2401028Y2715303D1*
X2804299D1*
X2809390Y2731303D1*
Y2912699D1*
X2803134Y2911329D1*
X2794000Y2910610D1*
X2784866Y2911329D1*
X2777387Y2913065D1*
X2777285Y2850250D1*
X2776451Y2844981D1*
X2774802Y2839907D1*
X2772380Y2835153D1*
X2769244Y2830837D1*
X2705940Y2767384D1*
X2704687Y2758145D1*
X2702432Y2751205D1*
X2699120Y2744704D1*
X2694831Y2738801D1*
X2689671Y2733641D1*
X2683768Y2729352D1*
X2677267Y2726040D1*
X2670327Y2723785D1*
X2663120Y2722643D1*
X2655824D1*
X2648617Y2723785D1*
X2641677Y2726040D1*
X2635176Y2729352D1*
X2629273Y2733641D1*
X2624113Y2738801D1*
X2619824Y2744704D1*
X2616512Y2751205D1*
X2614257Y2758145D1*
X2613115Y2765352D1*
X2613036Y2767361D1*
X2570555Y2809834D1*
X2541163Y2809803D1*
X2536804Y2806184D1*
X2532362Y2803368D1*
X2538647Y2796332D1*
X2542460Y2790111D1*
X2545252Y2783369D1*
X2546956Y2776274D1*
X2547528Y2769000D1*
X2546956Y2761726D1*
X2545252Y2754631D1*
X2542460Y2747889D1*
X2538647Y2741668D1*
X2533908Y2736120D1*
X2528360Y2731381D1*
X2522139Y2727568D1*
X2515397Y2724776D1*
X2508302Y2723072D1*
X2501028Y2722500D1*
X2493754Y2723072D1*
X2486659Y2724776D1*
X2479917Y2727568D1*
X2473696Y2731381D1*
X2468148Y2736120D1*
X2463409Y2741668D1*
X2459596Y2747889D1*
X2456804Y2754631D1*
X2455100Y2761726D1*
X2454592Y2767361D1*
X2408760Y2813333D1*
X2405624Y2817649D1*
X2403202Y2822403D1*
X2401553Y2827477D1*
X2400719Y2832746D1*
X2400614Y2867689D1*
X2396995Y2872062D1*
X2393182Y2878283D1*
X2390390Y2885025D1*
X2388686Y2892120D1*
X2388114Y2899394D1*
X2388686Y2906668D1*
X2389550Y2910785D1*
X2377387Y3024935D2*
X2384866Y3026671D1*
X2394000Y3027390D1*
X2403538Y3026591D1*
X2431309Y3054244D1*
X2435625Y3057380D1*
X2440379Y3059802D1*
X2445453Y3061451D1*
X2450722Y3062285D1*
X2559494Y3062390D1*
X2564528Y3078390D1*
X2564383Y3261281D1*
X2557176Y3260139D1*
X2549880D1*
X2542673Y3261281D1*
X2535733Y3263536D1*
X2529232Y3266848D1*
X2523329Y3271137D1*
X2521852Y3272502D1*
X2471350Y3272496D1*
X2463910Y3266848D1*
X2457409Y3263536D1*
X2450469Y3261281D1*
X2443262Y3260139D1*
X2435966D1*
X2428759Y3261281D1*
X2421819Y3263536D1*
X2415318Y3266848D1*
X2409415Y3271137D1*
X2407938Y3272502D1*
X2357436Y3272496D1*
X2352398Y3256496D1*
Y3185549D1*
X2369244Y3168585D1*
X2372380Y3164269D1*
X2374802Y3159515D1*
X2376451Y3154441D1*
X2377285Y3149172D1*
X2377390Y3046504D1*
Y3024971D1*
X2677387Y3024935D2*
X2684866Y3026671D1*
X2694000Y3027390D1*
X2703134Y3026671D1*
X2709406Y3025276D1*
X2709495Y3154188D1*
X2710329Y3159457D1*
X2711978Y3164531D1*
X2713284Y3167292D1*
X2715655Y3179855D1*
X2717910Y3186795D1*
X2721222Y3193296D1*
X2725511Y3199199D1*
X2730671Y3204359D1*
X2736574Y3208648D1*
X2743075Y3211960D1*
X2750015Y3214215D1*
X2757222Y3215357D1*
X2764518D1*
X2771725Y3214215D1*
X2778665Y3211960D1*
X2785166Y3208648D1*
X2791069Y3204359D1*
X2796229Y3199199D1*
X2800518Y3193296D1*
X2803830Y3186795D1*
X2806085Y3179855D1*
X2807227Y3172648D1*
Y3165352D1*
X2806085Y3158145D1*
X2803830Y3151205D1*
X2800518Y3144704D1*
X2796229Y3138801D1*
X2791069Y3133641D1*
X2785166Y3129352D1*
X2777367Y3125561D1*
X2777390Y3025006D1*
X2784866Y3026671D1*
X2794000Y3027390D1*
X2803134Y3026671D1*
X2809406Y3025276D1*
X2809495Y3355794D1*
X2810329Y3361063D1*
X2811978Y3366137D1*
X2814400Y3370891D1*
X2817536Y3375207D1*
X2828498Y3386317D1*
X2828504Y3476000D1*
X2822944Y3479051D1*
X2813333Y3486034D1*
X2804932Y3494435D1*
X2797948Y3504047D1*
X2792555Y3514632D1*
X2788883Y3525932D1*
X2787025Y3537666D1*
Y3549547D1*
X2788883Y3561281D1*
X2792555Y3572580D1*
X2794275Y3576313D1*
X2777431Y3576319D1*
X2772370Y3560319D1*
X2772265Y3303832D1*
X2771431Y3298563D1*
X2769782Y3293489D1*
X2767360Y3288735D1*
X2764224Y3284419D1*
X2747324Y3267370D1*
X2746798Y3261726D1*
X2745094Y3254631D1*
X2742302Y3247889D1*
X2738489Y3241668D1*
X2733750Y3236120D1*
X2728202Y3231381D1*
X2721981Y3227568D1*
X2715239Y3224776D1*
X2708144Y3223072D1*
X2702509Y3222564D1*
X2677368Y3197415D1*
X2677390Y3024948D1*
X2909406Y2912724D2*
X2903134Y2911329D1*
X2894000Y2910610D1*
X2884866Y2911329D1*
X2877387Y2913065D1*
X2877285Y2703635D1*
X2876451Y2698366D1*
X2874802Y2693292D1*
X2873496Y2690531D1*
X2904317Y2690303D1*
X2909390Y2706303D1*
Y2912699D1*
X1810027Y2312899D2*
X1803134Y2311329D1*
X1794000Y2310610D1*
X1784462Y2311409D1*
X1729191Y2256256D1*
X1724875Y2253120D1*
X1720121Y2250698D1*
X1715047Y2249049D1*
X1709778Y2248215D1*
X1619561Y2248110D1*
X1614496Y2232110D1*
X1614391Y1985616D1*
X1613557Y1980347D1*
X1611908Y1975273D1*
X1609486Y1970519D1*
X1606350Y1966203D1*
X1533827Y1893532D1*
X1442021Y1801725D1*
X1440750Y1792468D1*
X1438495Y1785528D1*
X1435183Y1779027D1*
X1430894Y1773124D1*
X1425734Y1767964D1*
X1419831Y1763675D1*
X1413330Y1760363D1*
X1406390Y1758108D1*
X1399183Y1756966D1*
X1391887D1*
X1384680Y1758108D1*
X1377740Y1760363D1*
X1371239Y1763675D1*
X1365336Y1767964D1*
X1360176Y1773124D1*
X1355887Y1779027D1*
X1352575Y1785528D1*
X1350320Y1792468D1*
X1349178Y1799675D1*
Y1806971D1*
X1350320Y1814178D1*
X1352575Y1821118D1*
X1355887Y1827619D1*
X1360176Y1833522D1*
X1365336Y1838682D1*
X1371239Y1842971D1*
X1377740Y1846283D1*
X1384680Y1848538D1*
X1391887Y1849680D1*
X1393896Y1849759D1*
X1546509Y2002381D1*
X1546601Y2259778D1*
X1547435Y2265047D1*
X1549084Y2270121D1*
X1550390Y2272882D1*
X1505496Y2273110D1*
X1363260D1*
X1355796Y2267462D1*
X1349295Y2264150D1*
X1342355Y2261895D1*
X1335148Y2260753D1*
X1327852D1*
X1320645Y2261895D1*
X1316100Y2263266D1*
X1316114Y2250105D1*
X1332114Y2245012D1*
X1483164Y2244907D1*
X1488433Y2244073D1*
X1493507Y2242424D1*
X1498261Y2240002D1*
X1502577Y2236866D1*
X1529538Y2210054D1*
X1533003Y2205997D1*
X1535790Y2201448D1*
X1537832Y2196519D1*
X1539077Y2191331D1*
X1539496Y2186012D1*
X1539391Y2033419D1*
X1538557Y2028150D1*
X1536908Y2023076D1*
X1534486Y2018322D1*
X1531350Y2014006D1*
X1504538Y1987045D1*
X1500481Y1983580D1*
X1495932Y1980793D1*
X1491003Y1978751D1*
X1485815Y1977506D1*
X1480496Y1977087D1*
X954959D1*
X949912Y1961087D1*
X949807Y1836464D1*
X948973Y1831195D1*
X947324Y1826121D1*
X944902Y1821367D1*
X941766Y1817051D1*
X914952Y1790088D1*
X910895Y1786623D1*
X906346Y1783836D1*
X901417Y1781794D1*
X896229Y1780549D1*
X890910Y1780130D1*
X527974Y1780235D1*
X522705Y1781069D1*
X517631Y1782718D1*
X512877Y1785140D1*
X508561Y1788276D1*
X481600Y1815088D1*
X478135Y1819145D1*
X475348Y1823694D1*
X473306Y1828623D1*
X472061Y1833811D1*
X471642Y1839130D1*
X471547Y2493977D1*
X456726Y1668964D1*
X1725104Y1669000D1*
X1719273Y1673247D1*
X1714113Y1678407D1*
X1709824Y1684310D1*
X1706512Y1690811D1*
X1704257Y1697751D1*
X1703115Y1704958D1*
Y1712254D1*
X1704257Y1719461D1*
X1706512Y1726401D1*
X1709824Y1732902D1*
X1714113Y1738805D1*
X1719273Y1743965D1*
X1725176Y1748254D1*
X1731677Y1751566D1*
X1738617Y1753821D1*
X1745824Y1754963D1*
X1753120D1*
X1760327Y1753821D1*
X1767267Y1751566D1*
X1770466Y1750092D1*
X2308505Y1750106D1*
X2305809Y1758145D1*
X2304667Y1765352D1*
Y1772648D1*
X2305809Y1779855D1*
X2308064Y1786795D1*
X2311376Y1793296D1*
X2315665Y1799199D1*
X2320825Y1804359D1*
X2326728Y1808648D1*
X2333229Y1811960D1*
X2340169Y1814215D1*
X2347376Y1815357D1*
X2354672D1*
X2361879Y1814215D1*
X2368819Y1811960D1*
X2375320Y1808648D1*
X2381223Y1804359D1*
X2382700Y1802994D1*
X2671971Y1803000D1*
X2677028Y1819000D1*
Y1852252D1*
X2661028Y1857303D1*
X2101702D1*
X2097336Y1853684D1*
X2091115Y1849871D1*
X2084373Y1847079D1*
X2077278Y1845375D1*
X2070004Y1844803D1*
X2062730Y1845375D1*
X2055635Y1847079D1*
X2048893Y1849871D1*
X2042672Y1853684D1*
X2037124Y1858423D1*
X2032385Y1863971D1*
X2028572Y1870192D1*
X2025780Y1876934D1*
X2024076Y1884029D1*
X2023504Y1891303D1*
X2023642Y1894823D1*
X1866332Y1894912D1*
X1861063Y1895746D1*
X1855989Y1897395D1*
X1851235Y1899817D1*
X1846919Y1902953D1*
X1819958Y1929765D1*
X1816493Y1933822D1*
X1813706Y1938371D1*
X1811664Y1943300D1*
X1810419Y1948488D1*
X1810000Y1953807D1*
Y2312840D1*
X2177387Y2424935D2*
X2184866Y2426671D1*
X2194000Y2427390D1*
X2203538Y2426591D1*
X2209422Y2432506D1*
X2209390Y2611115D1*
X2207752Y2604434D1*
X2204960Y2597692D1*
X2201147Y2591471D1*
X2196408Y2585923D1*
X2190860Y2581184D1*
X2184639Y2577371D1*
X2177897Y2574579D1*
X2170802Y2572875D1*
X2163528Y2572303D1*
X2156254Y2572875D1*
X2149159Y2574579D1*
X2142417Y2577371D1*
X2136196Y2581184D1*
X2130648Y2585923D1*
X2125909Y2591471D1*
X2122096Y2597692D1*
X2119304Y2604434D1*
X2117600Y2611529D1*
X2117028Y2618803D1*
X2117600Y2626077D1*
X2119304Y2633172D1*
X2122096Y2639914D1*
X2125909Y2646135D1*
X2129534Y2650479D1*
X2129528Y2749321D1*
X2113528Y2754409D1*
X2097366D1*
X2097385Y2747261D1*
X2096243Y2740054D1*
X2093988Y2733114D1*
X2090676Y2726613D1*
X2086387Y2720710D1*
X2085022Y2719233D1*
X2085028Y2616583D1*
X2169244Y2532203D1*
X2172380Y2527887D1*
X2174802Y2523133D1*
X2176451Y2518059D1*
X2177285Y2512790D1*
X2177390Y2425015D1*
X2543987Y2338851D2*
X2538400Y2331079D1*
X2535494Y2327936D1*
X2535500Y2075299D1*
X2561221Y2049583D1*
X2716607Y2049614D1*
X2716614Y2146386D1*
X2846386D1*
Y2115477D1*
X2974713Y2115500D1*
X2979752Y2131500D1*
X2979857Y2308621D1*
X2980691Y2313890D1*
X2982340Y2318964D1*
X2984762Y2323718D1*
X2987898Y2328034D1*
X3004177Y2344461D1*
X2995035Y2345734D1*
X2988095Y2347989D1*
X2981594Y2351301D1*
X2975691Y2355590D1*
X2970531Y2360750D1*
X2966242Y2366653D1*
X2962930Y2373154D1*
X2960675Y2380094D1*
X2959533Y2387301D1*
X2959528Y2394469D1*
X2946583Y2394449D1*
X2949532Y2387043D1*
X2951671Y2378134D1*
X2952390Y2369000D1*
X2951671Y2359866D1*
X2949532Y2350957D1*
X2946026Y2342492D1*
X2941238Y2334679D1*
X2935288Y2327712D1*
X2928321Y2321762D1*
X2920508Y2316974D1*
X2912043Y2313468D1*
X2903134Y2311329D1*
X2894000Y2310610D1*
X2884866Y2311329D1*
X2875957Y2313468D1*
X2867492Y2316974D1*
X2859679Y2321762D1*
X2852712Y2327712D1*
X2846762Y2334679D1*
X2844013Y2338851D1*
X2838400Y2331079D1*
X2831921Y2324600D1*
X2824509Y2319215D1*
X2816345Y2315055D1*
X2807631Y2312224D1*
X2798581Y2310790D1*
X2789419D1*
X2780369Y2312224D1*
X2771655Y2315055D1*
X2763491Y2319215D1*
X2756079Y2324600D1*
X2749600Y2331079D1*
X2744215Y2338491D1*
X2740055Y2346655D1*
X2737224Y2355369D1*
X2735790Y2364419D1*
Y2373581D1*
X2737224Y2382631D1*
X2740055Y2391345D1*
X2744215Y2399509D1*
X2749600Y2406921D1*
X2756079Y2413400D1*
X2763491Y2418785D1*
X2771655Y2422945D1*
X2780369Y2425776D1*
X2789419Y2427210D1*
X2798581D1*
X2807631Y2425776D1*
X2816345Y2422945D1*
X2824509Y2418785D1*
X2831921Y2413400D1*
X2838400Y2406921D1*
X2843987Y2399149D1*
X2849600Y2406921D1*
X2856079Y2413400D1*
X2858878Y2415606D1*
X2776919Y2497526D1*
X2767673Y2498785D1*
X2760733Y2501040D1*
X2754232Y2504352D1*
X2748329Y2508641D1*
X2743169Y2513801D1*
X2738880Y2519704D1*
X2735568Y2526205D1*
X2733313Y2533145D1*
X2732171Y2540352D1*
Y2547648D1*
X2733313Y2554855D1*
X2735568Y2561795D1*
X2738880Y2568296D1*
X2743169Y2574199D1*
X2748329Y2579359D1*
X2754232Y2583648D1*
X2760733Y2586960D1*
X2767673Y2589215D1*
X2774880Y2590357D1*
X2779141Y2590476D1*
X2774596Y2597692D1*
X2771804Y2604434D1*
X2770100Y2611529D1*
X2769528Y2618803D1*
X2769666Y2622323D1*
X2449494Y2622303D1*
X2444418Y2606300D1*
Y2399806D1*
X2449600Y2406921D1*
X2456079Y2413400D1*
X2463491Y2418785D1*
X2471655Y2422945D1*
X2480369Y2425776D1*
X2489419Y2427210D1*
X2498581D1*
X2507631Y2425776D1*
X2516345Y2422945D1*
X2524509Y2418785D1*
X2531921Y2413400D1*
X2538400Y2406921D1*
X2543987Y2399149D1*
X2549600Y2406921D1*
X2556079Y2413400D1*
X2563491Y2418785D1*
X2571655Y2422945D1*
X2580369Y2425776D1*
X2589419Y2427210D1*
X2598581D1*
X2607631Y2425776D1*
X2616345Y2422945D1*
X2624509Y2418785D1*
X2631921Y2413400D1*
X2638400Y2406921D1*
X2643785Y2399509D1*
X2647945Y2391345D1*
X2650776Y2382631D1*
X2652210Y2373581D1*
Y2364419D1*
X2650776Y2355369D1*
X2647945Y2346655D1*
X2643785Y2338491D1*
X2638400Y2331079D1*
X2631921Y2324600D1*
X2624509Y2319215D1*
X2616345Y2315055D1*
X2607631Y2312224D1*
X2598581Y2310790D1*
X2589419D1*
X2580369Y2312224D1*
X2571655Y2315055D1*
X2563491Y2319215D1*
X2556079Y2324600D1*
X2549600Y2331079D1*
X2544013Y2338851D1*
X527638Y3619319D2*
X666563D1*
Y3467894D1*
X515138D1*
Y3619319D1*
X527638D1*
X863180Y3537666D2*
X861321Y3525932D1*
X857650Y3514632D1*
X852256Y3504047D1*
X845273Y3494435D1*
X836872Y3486034D1*
X827261Y3479051D1*
X816675Y3473657D1*
X805376Y3469986D1*
X793641Y3468127D1*
X781760D1*
X770026Y3469986D1*
X758727Y3473657D1*
X748141Y3479051D1*
X738529Y3486034D1*
X730128Y3494435D1*
X723145Y3504047D1*
X717751Y3514632D1*
X714080Y3525932D1*
X712222Y3537666D1*
Y3549547D1*
X714080Y3561281D1*
X717751Y3572580D1*
X723145Y3583166D1*
X730128Y3592778D1*
X738529Y3601179D1*
X748141Y3608162D1*
X758727Y3613556D1*
X770026Y3617227D1*
X781760Y3619086D1*
X793641D1*
X805376Y3617227D1*
X816675Y3613556D1*
X827261Y3608162D1*
X836872Y3601179D1*
X845273Y3592778D1*
X852256Y3583166D1*
X857650Y3572580D1*
X861321Y3561281D1*
X863180Y3549547D1*
Y3537666D1*
X1118189Y3619319D2*
X1224878D1*
X1224114Y3627819D1*
X1224934Y3636338D1*
X1100310Y3636319D1*
X1095264Y3620319D1*
X1095159Y3335328D1*
X1094325Y3330059D1*
X1092676Y3324985D1*
X1090254Y3320231D1*
X1087118Y3315915D1*
X1060306Y3288954D1*
X1056249Y3285489D1*
X1051700Y3282702D1*
X1046771Y3280660D1*
X1041583Y3279414D1*
X1036264Y3278996D1*
X544711D1*
X539642Y3262996D1*
Y2485017D1*
X754165Y2699517D1*
X745885Y2702765D1*
X739664Y2706578D1*
X734116Y2711317D1*
X729377Y2716865D1*
X725564Y2723086D1*
X722772Y2729828D1*
X721068Y2736923D1*
X720496Y2744197D1*
X721068Y2751471D1*
X722772Y2758566D1*
X725564Y2765308D1*
X729377Y2771529D1*
X734116Y2777077D1*
X739664Y2781816D1*
X745885Y2785629D1*
X752506Y2788377D1*
X827524Y2863415D1*
X827500Y3101523D1*
X824776Y3108135D1*
X823072Y3115230D1*
X822500Y3122504D1*
X823072Y3129778D1*
X824776Y3136873D1*
X827568Y3143615D1*
X831381Y3149836D1*
X836120Y3155384D1*
X841668Y3160123D1*
X847889Y3163936D1*
X854631Y3166728D1*
X861726Y3168432D1*
X869000Y3169004D1*
X876274Y3168432D1*
X883369Y3166728D1*
X890111Y3163936D1*
X896332Y3160123D1*
X901880Y3155384D1*
X906619Y3149836D1*
X910432Y3143615D1*
X913224Y3136873D1*
X914928Y3129778D1*
X915500Y3122504D1*
X914928Y3115230D1*
X913224Y3108135D1*
X910486Y3101510D1*
X910500Y2943842D1*
X917417Y2948129D1*
X924159Y2950921D1*
X931254Y2952625D1*
X938528Y2953197D1*
X945802Y2952625D1*
X952897Y2950921D1*
X959639Y2948129D1*
X965860Y2944316D1*
X971408Y2939577D1*
X976147Y2934029D1*
X979960Y2927808D1*
X982752Y2921066D1*
X984456Y2913971D1*
X985028Y2906697D1*
X984456Y2899423D1*
X982752Y2892328D1*
X980014Y2885703D1*
X979900Y2821933D1*
X978881Y2815501D1*
X976869Y2809308D1*
X973913Y2803505D1*
X970085Y2798237D1*
X923679Y2751650D1*
X589633Y2417604D1*
X589642Y2359168D1*
X595339Y2361960D1*
X602279Y2364215D1*
X609486Y2365357D1*
X616782D1*
X623989Y2364215D1*
X630929Y2361960D1*
X637430Y2358648D1*
X643333Y2354359D1*
X648493Y2349199D1*
X652782Y2343296D1*
X656094Y2336795D1*
X657314Y2333490D1*
X690851Y2299973D1*
X1052483Y2300008D1*
X1052628Y2879913D1*
X1053647Y2886345D1*
X1055659Y2892538D1*
X1058615Y2898341D1*
X1062443Y2903609D1*
X1108849Y2950196D1*
X1421005Y3262352D1*
X1420965Y3481108D1*
X1412224Y3475961D1*
X1412147Y3317553D1*
X1411313Y3312284D1*
X1409664Y3307210D1*
X1407242Y3302456D1*
X1404106Y3298140D1*
X1373533Y3267419D1*
X1372246Y3258145D1*
X1369991Y3251205D1*
X1366679Y3244704D1*
X1362390Y3238801D1*
X1357230Y3233641D1*
X1351327Y3229352D1*
X1344826Y3226040D1*
X1337886Y3223785D1*
X1330679Y3222643D1*
X1323383D1*
X1316176Y3223785D1*
X1309236Y3226040D1*
X1302735Y3229352D1*
X1296832Y3233641D1*
X1291672Y3238801D1*
X1287383Y3244704D1*
X1284071Y3251205D1*
X1281816Y3258145D1*
X1280674Y3265352D1*
Y3272648D1*
X1281816Y3279855D1*
X1284071Y3286795D1*
X1287383Y3293296D1*
X1291672Y3299199D1*
X1296832Y3304359D1*
X1302735Y3308648D1*
X1309236Y3311960D1*
X1316176Y3314215D1*
X1323383Y3315357D1*
X1325392Y3315436D1*
X1344249Y3334301D1*
X1344252Y3475934D1*
X1333749Y3482354D1*
X1324715Y3490069D1*
X1316999Y3499104D1*
X1310792Y3509233D1*
X1306245Y3520210D1*
X1303472Y3531762D1*
X1302539Y3543606D1*
X1303472Y3555450D1*
X1306245Y3567003D1*
X1310792Y3577979D1*
X1316999Y3588109D1*
X1324715Y3597143D1*
X1333749Y3604859D1*
X1343879Y3611067D1*
X1354855Y3615613D1*
X1366408Y3618387D1*
X1378252Y3619319D1*
X1390096Y3618387D1*
X1401648Y3615613D1*
X1412625Y3611067D1*
X1422755Y3604859D1*
X1427884Y3600753D1*
X1433120Y3607164D1*
X1433372Y3607397D1*
X1462295Y3636339D1*
X1316325Y3636319D1*
X1317114Y3627819D1*
X1316542Y3620545D1*
X1314838Y3613450D1*
X1312046Y3606708D1*
X1308233Y3600487D1*
X1303495Y3594938D1*
X1297946Y3590200D1*
X1291725Y3586387D1*
X1284983Y3583595D1*
X1277888Y3581891D1*
X1270614Y3581319D1*
X1263340Y3581891D1*
X1257110Y3583351D1*
X1257114Y3467894D1*
X1215366D1*
X1215402Y3453616D1*
X1232551Y3436325D1*
X1235687Y3432009D1*
X1238109Y3427255D1*
X1239758Y3422181D1*
X1240592Y3416912D1*
X1240697Y3351402D1*
X1246345Y3343965D1*
X1249657Y3337464D1*
X1251912Y3330524D1*
X1253054Y3323317D1*
Y3316021D1*
X1251912Y3308814D1*
X1249657Y3301874D1*
X1246345Y3295373D1*
X1242056Y3289470D1*
X1236896Y3284310D1*
X1230993Y3280021D1*
X1224492Y3276709D1*
X1217552Y3274454D1*
X1210345Y3273312D1*
X1203049D1*
X1195842Y3274454D1*
X1188902Y3276709D1*
X1182401Y3280021D1*
X1176498Y3284310D1*
X1171338Y3289470D1*
X1167049Y3295373D1*
X1163737Y3301874D1*
X1161482Y3308814D1*
X1160340Y3316021D1*
Y3323317D1*
X1161482Y3330524D1*
X1163737Y3337464D1*
X1167049Y3343965D1*
X1171338Y3349868D1*
X1172703Y3351345D1*
X1172697Y3400187D1*
X1155548Y3417458D1*
X1152412Y3421774D1*
X1149990Y3426528D1*
X1148341Y3431602D1*
X1147506Y3436872D1*
X1147402Y3467909D1*
X1105689Y3467894D1*
Y3619319D1*
X1118189D1*
X3134834Y3537666D2*
X3132975Y3525932D1*
X3129304Y3514632D1*
X3123910Y3504047D1*
X3116927Y3494435D1*
X3108526Y3486034D1*
X3098914Y3479051D1*
X3088328Y3473657D1*
X3077029Y3469986D1*
X3065295Y3468127D1*
X3053414D1*
X3041680Y3469986D1*
X3035544Y3471752D1*
X2977365Y3413533D1*
X2977285Y2678635D1*
X2976451Y2673366D1*
X2974802Y2668292D1*
X2972380Y2663538D1*
X2969244Y2659222D1*
X2967328Y2657158D1*
X2973908Y2651683D1*
X2978647Y2646135D1*
X2982460Y2639914D1*
X2985252Y2633172D1*
X2986956Y2626077D1*
X2987464Y2620442D1*
X3061158Y2546757D1*
X3082178Y2546760D1*
X3082171Y2553908D1*
X3083313Y2561115D1*
X3085568Y2568055D1*
X3087689Y2572428D1*
X3080173Y2573588D1*
X3073233Y2575843D1*
X3066732Y2579155D1*
X3060829Y2583444D1*
X3055669Y2588604D1*
X3051380Y2594507D1*
X3048068Y2601008D1*
X3045813Y2607948D1*
X3044671Y2615155D1*
Y2622451D1*
X3045813Y2629658D1*
X3048068Y2636598D1*
X3051380Y2643099D1*
X3055669Y2649002D1*
X3057034Y2650479D1*
X3057133Y2775310D1*
X3057967Y2780579D1*
X3059616Y2785653D1*
X3062038Y2790407D1*
X3065174Y2794723D1*
X3091986Y2821684D1*
X3096043Y2825149D1*
X3100592Y2827936D1*
X3105521Y2829978D1*
X3110709Y2831223D1*
X3116028Y2831642D1*
X3342444D1*
X3349901Y2837290D1*
X3356402Y2840602D1*
X3363342Y2842857D1*
X3370549Y2843999D1*
X3377845D1*
X3385052Y2842857D1*
X3391992Y2840602D1*
X3398493Y2837290D1*
X3404396Y2833001D1*
X3409556Y2827841D1*
X3413845Y2821938D1*
X3417157Y2815437D1*
X3419412Y2808497D1*
X3420554Y2801290D1*
Y2793994D1*
X3419412Y2786787D1*
X3417157Y2779847D1*
X3413845Y2773346D1*
X3409556Y2767443D1*
X3404396Y2762283D1*
X3398493Y2757994D1*
X3391992Y2754682D1*
X3385052Y2752427D1*
X3377845Y2751285D1*
X3370549D1*
X3363342Y2752427D1*
X3356402Y2754682D1*
X3349901Y2757994D1*
X3343998Y2762283D1*
X3342521Y2763648D1*
X3204715Y2763642D1*
X3209428Y2756253D1*
X3212220Y2749511D1*
X3213924Y2742416D1*
X3214496Y2735142D1*
X3213924Y2727868D1*
X3212394Y2721390D1*
X3308886Y2721386D1*
Y2621727D1*
X3340315Y2621760D1*
X3344660Y2625379D1*
X3350881Y2629192D1*
X3357623Y2631984D1*
X3364718Y2633688D1*
X3371992Y2634260D1*
X3379266Y2633688D1*
X3386361Y2631984D1*
X3393103Y2629192D1*
X3399324Y2625379D1*
X3404872Y2620640D1*
X3409611Y2615092D1*
X3413424Y2608871D1*
X3416216Y2602129D1*
X3417920Y2595034D1*
X3418492Y2587760D1*
X3418354Y2584240D1*
X3552779Y2584260D1*
X3560196Y2589908D1*
X3566697Y2593220D1*
X3573637Y2595475D1*
X3580844Y2596617D1*
X3588140D1*
X3595347Y2595475D1*
X3602287Y2593220D1*
X3608788Y2589908D1*
X3615016Y2585319D1*
X3615000Y2889361D1*
X3589279Y2915031D1*
X3293854Y2915000D1*
X3286140Y2907160D1*
X3277903Y2901176D1*
X3268831Y2896553D1*
X3259147Y2893407D1*
X3249091Y2891814D1*
X3238909D1*
X3228853Y2893407D1*
X3219169Y2896553D1*
X3210097Y2901176D1*
X3201860Y2907160D1*
X3194660Y2914360D1*
X3188676Y2922597D1*
X3184053Y2931669D1*
X3180907Y2941353D1*
X3179314Y2951409D1*
Y2961591D1*
X3180907Y2971647D1*
X3184053Y2981331D1*
X3188676Y2990403D1*
X3194660Y2998640D1*
X3201860Y3005840D1*
X3210097Y3011824D1*
X3219169Y3016447D1*
X3228853Y3019593D1*
X3238909Y3021186D1*
X3249091D1*
X3259147Y3019593D1*
X3268831Y3016447D1*
X3277903Y3011824D1*
X3286140Y3005840D1*
X3293845Y2997999D1*
X3609756Y2997872D1*
X3616188Y2996853D1*
X3622381Y2994841D1*
X3628184Y2991885D1*
X3633452Y2988057D1*
X3680039Y2941651D1*
X3688057Y2933452D1*
X3691885Y2928184D1*
X3694841Y2922381D1*
X3696853Y2916188D1*
X3697872Y2909756D1*
X3698000Y2844000D1*
Y2131354D1*
X3705840Y2123640D1*
X3711824Y2115403D1*
X3716447Y2106331D1*
X3719593Y2096647D1*
X3721186Y2086591D1*
Y2076409D1*
X3719593Y2066353D1*
X3716447Y2056669D1*
X3712943Y2049594D1*
X3831569Y2049614D1*
X3836654Y2065614D1*
Y2454823D1*
X3833035Y2459188D1*
X3829222Y2465409D1*
X3826430Y2472151D1*
X3824726Y2479246D1*
X3824154Y2486520D1*
X3824726Y2493794D1*
X3826430Y2500889D1*
X3829222Y2507631D1*
X3833035Y2513852D1*
X3837774Y2519400D1*
X3843322Y2524139D1*
X3849543Y2527952D1*
X3856285Y2530744D1*
X3863380Y2532448D1*
X3870654Y2533020D1*
X3877928Y2532448D1*
X3885023Y2530744D1*
X3891765Y2527952D1*
X3897986Y2524139D1*
X3903534Y2519400D1*
X3908273Y2513852D1*
X3912086Y2507631D1*
X3914878Y2500889D1*
X3916582Y2493794D1*
X3917154Y2486520D1*
X3916582Y2479246D1*
X3914878Y2472151D1*
X3912086Y2465409D1*
X3908273Y2459188D1*
X3904648Y2454844D1*
X3904654Y2133932D1*
X3996386Y2133886D1*
Y2004114D1*
X3965478D1*
X3965395Y1987946D1*
X3964561Y1982677D1*
X3962912Y1977603D1*
X3960490Y1972849D1*
X3957354Y1968533D1*
X3953581Y1964760D1*
X3949265Y1961624D1*
X3944511Y1959202D1*
X3939437Y1957553D1*
X3934168Y1956719D1*
X3831500Y1956614D1*
X3489765Y1956719D1*
X3484496Y1957553D1*
X3479422Y1959202D1*
X3474668Y1961624D1*
X3470352Y1964760D1*
X3443391Y1991572D1*
X3439926Y1995629D1*
X3437139Y2000178D1*
X3435097Y2005107D1*
X3433851Y2010295D1*
X3433433Y2015614D1*
Y2389393D1*
X3417433Y2394449D1*
X3376076D1*
X3384007Y2385934D1*
X3386794Y2381385D1*
X3388836Y2376456D1*
X3390081Y2371268D1*
X3390500Y2365949D1*
Y2146369D1*
X3421386Y2146386D1*
Y2016614D1*
X3291614D1*
Y2146386D1*
X3322523D1*
X3322500Y2351861D1*
X3306500Y2356949D1*
X3107623D1*
X3107605Y2349801D1*
X3106463Y2342594D1*
X3104208Y2335654D1*
X3100896Y2329153D1*
X3096607Y2323250D1*
X3091447Y2318090D1*
X3085544Y2313801D1*
X3079043Y2310489D1*
X3072103Y2308234D1*
X3064896Y2307092D1*
X3062887Y2307013D1*
X3047759Y2291877D1*
X3047752Y2136959D1*
X3056669Y2141447D1*
X3066353Y2144593D1*
X3076409Y2146186D1*
X3086591D1*
X3096647Y2144593D1*
X3106331Y2141447D1*
X3115403Y2136824D1*
X3123640Y2130840D1*
X3130840Y2123640D1*
X3136824Y2115403D1*
X3141447Y2106331D1*
X3144593Y2096647D1*
X3146186Y2086591D1*
Y2076409D1*
X3144593Y2066353D1*
X3141447Y2056669D1*
X3136824Y2047597D1*
X3130840Y2039360D1*
X3123640Y2032160D1*
X3115403Y2026176D1*
X3106331Y2021553D1*
X3096647Y2018407D1*
X3086591Y2016814D1*
X3075599Y2016910D1*
X3046453Y1987763D1*
X3154958Y1987807D1*
X3160000Y2003807D1*
Y2271043D1*
X3154352Y2278484D1*
X3151040Y2284985D1*
X3148785Y2291925D1*
X3147643Y2299132D1*
Y2306428D1*
X3148785Y2313635D1*
X3151040Y2320575D1*
X3154352Y2327076D1*
X3158641Y2332979D1*
X3163801Y2338139D1*
X3169704Y2342428D1*
X3176205Y2345740D1*
X3183145Y2347995D1*
X3190352Y2349137D1*
X3197648D1*
X3204855Y2347995D1*
X3211795Y2345740D1*
X3218972Y2341976D1*
X3226205Y2345743D1*
X3233145Y2347998D1*
X3240352Y2349140D1*
X3247648D1*
X3254855Y2347998D1*
X3261795Y2345743D1*
X3268296Y2342431D1*
X3274199Y2338142D1*
X3279359Y2332982D1*
X3283648Y2327079D1*
X3286960Y2320578D1*
X3289215Y2313638D1*
X3290357Y2306431D1*
Y2299135D1*
X3289215Y2291928D1*
X3286960Y2284988D1*
X3283648Y2278487D1*
X3279359Y2272584D1*
X3277994Y2271107D1*
X3277895Y1951139D1*
X3277061Y1945870D1*
X3275412Y1940796D1*
X3272990Y1936042D1*
X3269854Y1931726D1*
X3261102Y1922825D1*
X4017962Y1922807D1*
X4087348Y1992239D1*
X4090014Y1998695D1*
X4090128Y2072256D1*
X4091147Y2078688D1*
X4093159Y2084881D1*
X4096115Y2090684D1*
X4099943Y2095952D1*
X4104548Y2100557D1*
X4109816Y2104385D1*
X4115619Y2107341D1*
X4121812Y2109353D1*
X4128244Y2110372D1*
X4181646Y2110500D1*
X4189360Y2118340D1*
X4197597Y2124324D1*
X4206669Y2128947D1*
X4216353Y2132093D1*
X4226409Y2133686D1*
X4236591D1*
X4246647Y2132093D1*
X4256331Y2128947D1*
X4265403Y2124324D1*
X4273640Y2118340D1*
X4280840Y2111140D1*
X4286824Y2102903D1*
X4291447Y2093831D1*
X4294593Y2084147D1*
X4296186Y2074091D1*
Y2063909D1*
X4294593Y2053853D1*
X4291447Y2044169D1*
X4286824Y2035097D1*
X4280840Y2026860D1*
X4273640Y2019660D1*
X4265403Y2013676D1*
X4256331Y2009053D1*
X4246647Y2005907D1*
X4236591Y2004314D1*
X4226409D1*
X4216353Y2005907D1*
X4206669Y2009053D1*
X4197597Y2013676D1*
X4189360Y2019660D1*
X4181655Y2027501D1*
X4172955Y2027500D1*
X4173000Y1998639D1*
X4175724Y1992070D1*
X4177428Y1984975D1*
X4178000Y1977701D1*
X4177428Y1970427D1*
X4175724Y1963332D1*
X4172932Y1956590D1*
X4169119Y1950369D1*
X4164380Y1944821D1*
X4158832Y1940082D1*
X4152611Y1936269D1*
X4145990Y1933521D1*
X4062058Y1849750D1*
X4056790Y1845922D1*
X4050987Y1842966D1*
X4044794Y1840954D1*
X4038362Y1839935D1*
X3972606Y1839807D1*
X2935838D1*
X2929255Y1837083D1*
X2922160Y1835379D1*
X2914886Y1834807D1*
X2907612Y1835379D1*
X2900517Y1837083D1*
X2896379Y1838675D1*
X2896258Y1755350D1*
X2895239Y1748918D1*
X2893227Y1742725D1*
X2890271Y1736922D1*
X2886443Y1731654D1*
X2840037Y1685067D1*
X2831838Y1677049D1*
X2826570Y1673221D1*
X2820767Y1670265D1*
X2817355Y1669037D1*
X4369146Y1669000D1*
X4381330Y2569037D1*
X3742045Y2569154D1*
X3738325Y2570362D1*
X3735161Y2572661D1*
X3732862Y2575825D1*
X3731654Y2579545D1*
X3731500Y2594000D1*
Y3743951D1*
X493773Y3731278D1*
X486327Y3316745D1*
X508561Y3338850D1*
X512877Y3341986D1*
X517631Y3344408D1*
X522705Y3346057D1*
X527974Y3346891D1*
X630642Y3346996D1*
X1022195D1*
X1027264Y3362996D1*
X1027369Y3647987D1*
X1028203Y3653256D1*
X1029852Y3658330D1*
X1032274Y3663084D1*
X1035410Y3667400D1*
X1062222Y3694361D1*
X1066279Y3697826D1*
X1070828Y3700613D1*
X1075757Y3702655D1*
X1080945Y3703901D1*
X1086264Y3704319D1*
X3300585Y3704214D1*
X3305854Y3703380D1*
X3310928Y3701731D1*
X3315682Y3699309D1*
X3319998Y3696173D1*
X3346959Y3669361D1*
X3350424Y3665304D1*
X3353211Y3660755D1*
X3355253Y3655826D1*
X3356499Y3650638D1*
X3356917Y3645319D1*
X3356812Y3464230D1*
X3355978Y3458961D1*
X3354329Y3453887D1*
X3351907Y3449133D1*
X3348771Y3444817D1*
X3276248Y3372146D1*
X3068984Y3164882D1*
X3069008Y2956479D1*
X3074656Y2949044D1*
X3077968Y2942543D1*
X3080223Y2935603D1*
X3081365Y2928396D1*
Y2921100D1*
X3080223Y2913893D1*
X3077968Y2906953D1*
X3074656Y2900452D1*
X3070367Y2894549D1*
X3065207Y2889389D1*
X3059304Y2885100D1*
X3052803Y2881788D1*
X3045863Y2879533D1*
X3038656Y2878391D1*
X3031360D1*
X3024153Y2879533D1*
X3017213Y2881788D1*
X3010712Y2885100D1*
X3004809Y2889389D1*
X2999649Y2894549D1*
X2995360Y2900452D1*
X2992048Y2906953D1*
X2989793Y2913893D1*
X2988651Y2921100D1*
Y2928396D1*
X2989793Y2935603D1*
X2992048Y2942543D1*
X2995360Y2949044D1*
X2999649Y2954947D1*
X3001014Y2956424D1*
X3001113Y3181657D1*
X3001947Y3186926D1*
X3003596Y3192000D1*
X3006018Y3196754D1*
X3009154Y3201070D1*
X3081677Y3273741D1*
X3275821Y3467885D1*
X3180492Y3467894D1*
Y3571263D1*
X3175367Y3576361D1*
X3127627Y3576319D1*
X3131361Y3567003D1*
X3134135Y3555450D1*
X3135067Y3543606D1*
X3134834Y3537666D1*
X3725385D2*
X3723526Y3525932D1*
X3719855Y3514632D1*
X3714461Y3504047D1*
X3707478Y3494435D1*
X3699077Y3486034D1*
X3689465Y3479051D1*
X3678879Y3473657D1*
X3667580Y3469986D1*
X3655846Y3468127D1*
X3643965D1*
X3632231Y3469986D1*
X3620932Y3473657D1*
X3610346Y3479051D1*
X3600734Y3486034D1*
X3592333Y3494435D1*
X3585350Y3504047D1*
X3579956Y3514632D1*
X3576285Y3525932D1*
X3574426Y3537666D1*
Y3549547D1*
X3576285Y3561281D1*
X3579956Y3572580D1*
X3585350Y3583166D1*
X3592333Y3592778D1*
X3600734Y3601179D1*
X3610346Y3608162D1*
X3620932Y3613556D1*
X3632231Y3617227D1*
X3643965Y3619086D1*
X3655846D1*
X3667580Y3617227D1*
X3678879Y3613556D1*
X3689465Y3608162D1*
X3699077Y3601179D1*
X3707478Y3592778D1*
X3714461Y3583166D1*
X3719855Y3572580D1*
X3723526Y3561281D1*
X3725385Y3549547D1*
Y3537666D1*
X3600057Y2049594D2*
X3596553Y2056669D1*
X3593407Y2066353D1*
X3591814Y2076409D1*
Y2086591D1*
X3593407Y2096647D1*
X3596553Y2106331D1*
X3601176Y2115403D1*
X3607160Y2123640D1*
X3615001Y2131345D1*
X3614691Y2514901D1*
X3608788Y2510612D1*
X3602287Y2507300D1*
X3595347Y2505045D1*
X3588140Y2503903D1*
X3580844D1*
X3573637Y2505045D1*
X3566697Y2507300D1*
X3560196Y2510612D1*
X3554293Y2514901D1*
X3552816Y2516266D1*
X3298115Y2516260D1*
X3290698Y2510612D1*
X3284197Y2507300D1*
X3277257Y2505045D1*
X3270050Y2503903D1*
X3262754D1*
X3255547Y2505045D1*
X3248607Y2507300D1*
X3242106Y2510612D1*
X3236203Y2514901D1*
X3231043Y2520061D1*
X3226754Y2525964D1*
X3223442Y2532465D1*
X3222097Y2536179D1*
X3174376Y2488456D1*
X3181382Y2487449D1*
X3529794Y2487344D1*
X3535063Y2486510D1*
X3540137Y2484861D1*
X3544891Y2482439D1*
X3549207Y2479303D1*
X3576168Y2452491D1*
X3579633Y2448434D1*
X3582420Y2443885D1*
X3584462Y2438956D1*
X3585708Y2433768D1*
X3586126Y2428449D1*
Y2054670D1*
X1421869Y2108392D2*
X1421496Y2113980D1*
X1422069Y2121255D1*
X1423772Y2128350D1*
X1426564Y2135091D1*
X1430377Y2141312D1*
X1435116Y2146861D1*
X1440664Y2151600D1*
X1446886Y2155412D1*
X1453627Y2158204D1*
X1460722Y2159908D1*
X1467996Y2160480D1*
X1471516Y2160342D1*
X1471496Y2171976D1*
X1455496Y2177012D1*
X1304446Y2177117D1*
X1299177Y2177951D1*
X1294103Y2179600D1*
X1289349Y2182022D1*
X1285033Y2185158D1*
X1258072Y2211970D1*
X1254607Y2216027D1*
X1251820Y2220576D1*
X1249778Y2225505D1*
X1248533Y2230693D1*
X1248114Y2236012D1*
X1248219Y2421865D1*
X1249053Y2427134D1*
X1250702Y2432208D1*
X1253124Y2436962D1*
X1256260Y2441278D1*
X1283072Y2468239D1*
X1287129Y2471704D1*
X1289686Y2473375D1*
X1290395Y2475333D1*
X1281260Y2484616D1*
X1278124Y2488932D1*
X1275702Y2493686D1*
X1274053Y2498760D1*
X1273219Y2504029D1*
X1273114Y2606697D1*
Y2942293D1*
X1267466Y2949724D1*
X1264154Y2956225D1*
X1261899Y2963165D1*
X1260757Y2970372D1*
Y2977668D1*
X1262298Y2986289D1*
X1135460Y2859427D1*
X1135500Y2279440D1*
X1138224Y2272877D1*
X1139928Y2265782D1*
X1140500Y2258508D1*
X1139928Y2251234D1*
X1138224Y2244139D1*
X1135432Y2237397D1*
X1131619Y2231176D1*
X1126880Y2225628D1*
X1121332Y2220889D1*
X1115111Y2217076D1*
X1108369Y2214284D1*
X1101274Y2212580D1*
X1094000Y2212008D1*
X1086726Y2212580D1*
X1079631Y2214284D1*
X1073006Y2217022D1*
X670370Y2217136D1*
X663938Y2218155D1*
X657745Y2220167D1*
X651942Y2223123D1*
X646674Y2226951D1*
X598602Y2274842D1*
X592023Y2277568D1*
X589622Y2278913D1*
X589642Y2166981D1*
X627654Y2128961D1*
X634245Y2126223D1*
X640466Y2122410D1*
X646014Y2117671D1*
X650753Y2112123D1*
X654566Y2105902D1*
X657358Y2099160D1*
X659062Y2092065D1*
X659634Y2084791D1*
X659062Y2077517D1*
X657358Y2070422D1*
X654566Y2063680D1*
X650753Y2057459D1*
X646014Y2051911D1*
X640466Y2047172D1*
X634245Y2043359D1*
X627503Y2040567D1*
X620408Y2038863D1*
X613134Y2038291D1*
X605860Y2038863D1*
X598765Y2040567D1*
X592023Y2043359D1*
X585802Y2047172D1*
X580254Y2051911D1*
X575515Y2057459D1*
X571702Y2063680D1*
X568954Y2070301D1*
X539629Y2099606D1*
X539642Y1853182D1*
X555642Y1848130D1*
X707253D1*
X702568Y1855519D1*
X699776Y1862261D1*
X698072Y1869356D1*
X697500Y1876630D1*
X698072Y1883904D1*
X699776Y1890999D1*
X702568Y1897741D1*
X706381Y1903962D1*
X711120Y1909510D1*
X716668Y1914249D1*
X722889Y1918062D1*
X729631Y1920854D1*
X736726Y1922558D1*
X742361Y1923066D1*
X909781Y2090346D1*
X914097Y2093482D1*
X918851Y2095904D1*
X923925Y2097553D1*
X929194Y2098387D1*
X963258Y2098492D1*
X970712Y2104140D1*
X977213Y2107452D1*
X984153Y2109707D1*
X991360Y2110849D1*
X998656D1*
X1005863Y2109707D1*
X1012803Y2107452D1*
X1019304Y2104140D1*
X1025207Y2099851D1*
X1026684Y2098486D1*
X1374744Y2098492D1*
X1382204Y2104140D1*
X1388705Y2107452D1*
X1395645Y2109707D1*
X1402852Y2110849D1*
X1410148D1*
X1417355Y2109707D1*
X1421846Y2108356D1*
X2209406Y2801111D2*
X2201883Y2798588D1*
X2194676Y2797446D1*
X2187380D1*
X2180173Y2798588D1*
X2174692Y2800305D1*
X2189382Y2785490D1*
X2192518Y2781174D1*
X2194940Y2776420D1*
X2196589Y2771346D1*
X2197423Y2766077D1*
X2197528Y2663409D1*
Y2650567D1*
X2203176Y2643099D1*
X2206488Y2636598D1*
X2208743Y2629658D1*
X2209403Y2626343D1*
X2209390Y2801056D1*
X1840357Y2615155D2*
X1839215Y2607948D1*
X1836960Y2601008D1*
X1833648Y2594507D1*
X1828730Y2587923D1*
X1836726Y2589928D1*
X1844000Y2590500D1*
X1847520Y2590362D1*
X1847500Y2800592D1*
X1828007Y2820064D1*
X1828000Y2650494D1*
X1831619Y2646135D1*
X1835432Y2639914D1*
X1838224Y2633172D1*
X1839928Y2626077D1*
X1840500Y2618803D1*
X1840357Y2615155D1*
X1630829Y2540549D2*
X1629687Y2533342D1*
X1626722Y2524861D1*
X1633145Y2526912D1*
X1640352Y2528054D1*
X1647520Y2528059D1*
X1647500Y2782722D1*
X1632841Y2797351D1*
X1627977Y2797783D1*
X1628000Y2560553D1*
X1630400Y2551471D1*
X1630972Y2544197D1*
X1630829Y2540549D1*
X1715487Y2444541D2*
X1715082Y2438878D1*
X1713836Y2433690D1*
X1711794Y2428761D1*
X1709682Y2425198D1*
X1716345Y2422945D1*
X1724509Y2418785D1*
X1731921Y2413400D1*
X1738400Y2406921D1*
X1743987Y2399149D1*
X1749600Y2406921D1*
X1756079Y2413400D1*
X1763491Y2418785D1*
X1771655Y2422945D1*
X1780369Y2425776D1*
X1789419Y2427210D1*
X1798581D1*
X1807631Y2425776D1*
X1810027Y2425101D1*
X1810000Y2512254D1*
X1804352Y2519704D1*
X1801040Y2526205D1*
X1798785Y2533145D1*
X1797643Y2540352D1*
Y2547648D1*
X1798785Y2554855D1*
X1801040Y2561795D1*
X1804352Y2568296D1*
X1809270Y2574880D1*
X1801274Y2572875D1*
X1794000Y2572303D1*
X1786726Y2572875D1*
X1779631Y2574579D1*
X1777369Y2575413D1*
X1777390Y2525714D1*
X1783038Y2518300D1*
X1786350Y2511799D1*
X1788605Y2504859D1*
X1789747Y2497652D1*
Y2490356D1*
X1788605Y2483149D1*
X1786350Y2476209D1*
X1783038Y2469708D1*
X1778749Y2463805D1*
X1773589Y2458645D1*
X1767686Y2454356D1*
X1761185Y2451044D1*
X1754245Y2448789D1*
X1747038Y2447647D1*
X1739742D1*
X1732535Y2448789D1*
X1725595Y2451044D1*
X1719094Y2454356D1*
X1715487Y2456835D1*
X1715395Y2441529D1*
X1714561Y2436260D1*
X1712912Y2431186D1*
X1710275Y2426111D1*
X3506544Y2024614D2*
X3522169D1*
X3519790Y2030107D1*
X3518545Y2035295D1*
X3518126Y2040614D1*
Y2414393D1*
X3502126Y2419449D1*
X3497390D1*
X3499769Y2413956D1*
X3501015Y2408768D1*
X3501433Y2403449D1*
Y2029670D1*
X3519065Y2032677D1*
X3518231Y2037946D1*
X3518126Y2040614D1*
D35*
X1394000Y2969000D3*
D36*
X1494000D3*
X1594000D3*
X1694000D3*
X1794000D3*
X1894000D3*
X1994000D3*
X2094000D3*
X2194000D3*
X2294000D3*
X2394000D3*
X2494000D3*
X2594000D3*
X2694000D3*
X2794000D3*
X2894000D3*
D35*
X1394000Y2369000D3*
D36*
X1494000D3*
X1594000D3*
X1694000D3*
X1794000D3*
X1894000D3*
X1994000D3*
X2094000D3*
X2194000D3*
X2294000D3*
X2394000D3*
X2494000D3*
X2594000D3*
X2694000D3*
X2794000D3*
X2894000D3*
D37*
X590850Y3543606D3*
D38*
X787701D3*
X984551D3*
D37*
X1181402D3*
D38*
X1378252D3*
X1575102D3*
D37*
X1771953D3*
D38*
X1968803D3*
X2165654D3*
D37*
X2665654D3*
D38*
X2862504D3*
X3059354D3*
D37*
X3256205D3*
D38*
X3453055D3*
X3649906D3*
D37*
X3846756D3*
D38*
X4043606D3*
X4240457D3*
D37*
X984551Y661717D3*
D38*
X787701D3*
X590850D3*
D37*
X1575102D3*
D38*
X1378252D3*
X1181402D3*
D37*
X2165654D3*
D38*
X1968803D3*
X1771953D3*
D37*
X3059354D3*
D38*
X2862504D3*
X2665654D3*
D37*
X3649906D3*
D38*
X3453055D3*
X3256205D3*
D37*
X4240457D3*
D38*
X4043606D3*
X3846756D3*
D39*
X3081500Y2081500D3*
D40*
X2781500D3*
D39*
X3081500Y1337406D3*
X2781500Y1211421D3*
X3081500Y1085437D3*
X3656500Y2081500D3*
D40*
X3356500D3*
D39*
X3656500Y1337406D3*
X3356500Y1211421D3*
X3656500Y1085437D3*
X4231500Y2069000D3*
D40*
X3931500D3*
D39*
X4231500Y1324906D3*
X3931500Y1198921D3*
X4231500Y1072937D3*
X3244000Y2956500D3*
D40*
Y2656500D3*
D39*
X3988094Y2956500D3*
X4114079Y2656500D3*
X4240063Y2956500D3*
D51*
X1719000Y931500D3*
D52*
Y1031500D3*
D51*
X2156500Y931500D3*
D52*
Y1031500D3*
D51*
X1294000Y931500D3*
D52*
Y1031500D3*
D51*
X869000Y931500D3*
D52*
Y1031500D3*
X444000Y1656500D2*
D108*
X4381500D1*
Y469000D1*
X444000D1*
Y1656500D1*
X3744000Y3756500D2*
D23*
X4394000D1*
Y2581500D1*
X3744000D1*
Y3756500D1*
M02*
