%TF.GenerationSoftware,Novarm,DipTrace Beta,3.0.9.0*%
%TF.CreationDate,2017-03-15T19:41:16+02:00*%
%FSLAX26Y26*%
%MOIN*%
%TF.FileFunction,Soldermask,Bot*%
%TF.Part,Single*%
%ADD61C,0.074929*%
%ADD63R,0.074929X0.074929*%
%ADD81R,0.084772X0.084772*%
%ADD83C,0.084772*%
%ADD85C,0.106425*%
%ADD87R,0.106425X0.106425*%
%ADD89C,0.07178*%
%ADD91R,0.07178X0.07178*%
G75*
G01*
%LPD*%
D91*
X1394000Y2969000D3*
D89*
X1494000D3*
X1594000D3*
X1694000D3*
X1794000D3*
X1894000D3*
X1994000D3*
X2094000D3*
X2194000D3*
X2294000D3*
X2394000D3*
X2494000D3*
X2594000D3*
X2694000D3*
X2794000D3*
X2894000D3*
D91*
X1394000Y2369000D3*
D89*
X1494000D3*
X1594000D3*
X1694000D3*
X1794000D3*
X1894000D3*
X1994000D3*
X2094000D3*
X2194000D3*
X2294000D3*
X2394000D3*
X2494000D3*
X2594000D3*
X2694000D3*
X2794000D3*
X2894000D3*
D87*
X590850Y3543606D3*
D85*
X787701D3*
X984551D3*
D87*
X1181402D3*
D85*
X1378252D3*
X1575102D3*
D87*
X1771953D3*
D85*
X1968803D3*
X2165654D3*
D87*
X2665654D3*
D85*
X2862504D3*
X3059354D3*
D87*
X3256205D3*
D85*
X3453055D3*
X3649906D3*
D87*
X3846756D3*
D85*
X4043606D3*
X4240457D3*
D87*
X984551Y661717D3*
D85*
X787701D3*
X590850D3*
D87*
X1575102D3*
D85*
X1378252D3*
X1181402D3*
D87*
X2165654D3*
D85*
X1968803D3*
X1771953D3*
D87*
X3059354D3*
D85*
X2862504D3*
X2665654D3*
D87*
X3649906D3*
D85*
X3453055D3*
X3256205D3*
D87*
X4240457D3*
D85*
X4043606D3*
X3846756D3*
D83*
X3081500Y2081500D3*
D81*
X2781500D3*
D83*
X3081500Y1337406D3*
X2781500Y1211421D3*
X3081500Y1085437D3*
X3656500Y2081500D3*
D81*
X3356500D3*
D83*
X3656500Y1337406D3*
X3356500Y1211421D3*
X3656500Y1085437D3*
X4231500Y2069000D3*
D81*
X3931500D3*
D83*
X4231500Y1324906D3*
X3931500Y1198921D3*
X4231500Y1072937D3*
X3244000Y2956500D3*
D81*
Y2656500D3*
D83*
X3988094Y2956500D3*
X4114079Y2656500D3*
X4240063Y2956500D3*
D63*
X1719000Y931500D3*
D61*
Y1031500D3*
D63*
X2156500Y931500D3*
D61*
Y1031500D3*
D63*
X1294000Y931500D3*
D61*
Y1031500D3*
D63*
X869000Y931500D3*
D61*
Y1031500D3*
M02*
