%TF.GenerationSoftware,Novarm,DipTrace,3.0.0.2*%
%TF.CreationDate,2017-03-04T22:17:08+02:00*%
%FSLAX26Y26*%
%MOIN*%
%TF.FileFunction,Copper,L2,Bot*%
%TF.Part,Single*%
%TA.AperFunction,Conductor*%
%ADD14C,0.015*%
%ADD16C,0.03*%
%ADD17C,0.023622*%
%ADD18C,0.085*%
%TA.AperFunction,CopperBalancing*%
%ADD21C,0.025*%
%TA.AperFunction,ComponentPad*%
%ADD35R,0.06378X0.06378*%
%ADD36C,0.06378*%
%ADD37R,0.098425X0.098425*%
%ADD38C,0.098425*%
%ADD39C,0.076772*%
%ADD40R,0.076772X0.076772*%
%TA.AperFunction,ViaPad*%
%ADD51C,0.04*%
%TA.AperFunction,Nonconductor*%
%ADD101C,0.015*%
G75*
G01*
%LPD*%
X2045516Y3269000D2*
D14*
Y3680319D1*
X2070516Y3705319D1*
X3094492D1*
X3256205Y3543606D1*
Y3475882D1*
X3356500Y3375587D1*
X1281500Y2684992D2*
X1519614D1*
X1544614Y2659992D1*
Y2443390D1*
X1569614Y2418390D1*
X1918390D1*
X1943390Y2393390D1*
Y2344610D1*
X1968390Y2319610D1*
X2118390D1*
X2143390Y2344610D1*
Y2446181D1*
X2268390Y2571181D1*
Y2830217D1*
X2293390Y2855217D1*
X2369000D1*
X2394000Y2880217D1*
Y2969000D1*
X1498394Y3454398D2*
Y3270804D1*
X1286799Y3059209D1*
Y2950031D1*
X1226500Y2889732D1*
X2218394Y3454398D2*
Y3128004D1*
X2294000Y3052398D1*
Y2969000D1*
X1231500Y2687130D2*
Y2702492D1*
X1251500Y2722492D1*
X1312748D1*
X1325248Y2709992D1*
X1518390D1*
X1543390Y2734992D1*
Y2993390D1*
X1568390Y3018390D1*
X1918390D1*
X1943390Y2993390D1*
Y2943803D1*
X1968390Y2918803D1*
X2143803D1*
X2194000Y2969000D1*
X570535Y1803323D2*
D16*
X613134Y1845921D1*
Y2139472D1*
X3081500Y2081500D2*
Y2931500D1*
X3244000Y3094000D1*
X1940496Y1886953D2*
X1952346Y1898803D1*
X2469000D1*
X2543606Y1824197D1*
X3485083D1*
X3656500Y1995614D1*
Y2081500D1*
X613134Y2139472D2*
X1036500D1*
Y2724071D1*
X1106028Y2793598D1*
Y3103469D1*
X1097189Y3324669D2*
Y3627819D1*
X1884591D1*
X1968803Y3543606D1*
X1106028Y3103469D2*
Y3315831D1*
X1097189Y3324669D1*
X1106028Y2793598D2*
X1131028Y2768598D1*
X1436500D1*
X3656500Y2081500D2*
X3729886Y2154886D1*
X4145614D1*
X4231500Y2069000D1*
X2469000Y1898803D2*
X2494000Y1923803D1*
Y2369000D1*
X2094000D2*
D14*
Y2681004D1*
X2243390Y2830394D1*
Y3018390D1*
X2165654Y3096126D1*
Y3543606D1*
X2194000Y2369000D2*
X2268386Y2294614D1*
X2318390D1*
X2343390Y2319614D1*
Y2607098D1*
X2368390Y2632098D1*
X2718390D1*
X2743390Y2657098D1*
Y3465870D1*
X2665654Y3543606D1*
X2294000Y2369000D2*
Y2747492D1*
X2319000Y2772492D1*
X2618390D1*
X2643390Y2797492D1*
Y3201252D1*
X2598941Y3245701D1*
Y3610319D1*
X2795791D1*
X2862504Y3543606D1*
X3059354D2*
X2843390Y3327642D1*
Y2805213D1*
X2768390Y2730213D1*
Y2632098D1*
X2743390Y2607098D1*
X2419000D1*
X2394000Y2582098D1*
Y2369000D1*
X1726421Y3265496D2*
X1771953Y3311028D1*
Y3543606D1*
X2063528Y2881303D2*
X1919000D1*
X1894000Y2906303D1*
Y2969000D1*
X2191028Y2831307D2*
X1819000D1*
X1794000Y2856307D1*
Y2969000D1*
X2443165Y2430890D2*
X2560665Y2548390D1*
X2787236D1*
X2791028Y2544598D1*
X2029000Y2480890D2*
Y2781307D1*
X2004000Y2806307D1*
X1719000D1*
X1694000Y2831307D1*
Y2969000D1*
X1594000Y2544197D2*
Y2969000D1*
X979000Y2194472D2*
D16*
X854472Y2319000D1*
X613134D1*
X2410969Y3632819D2*
Y3269000D1*
X897425Y2768803D2*
Y3255469D1*
X698492Y3454402D1*
X612780Y2469000D2*
X552780Y2529000D1*
Y2768803D1*
X897425D1*
X613134Y2319000D2*
X612780Y2469000D1*
X3128921Y3194000D2*
D14*
X2968390D1*
X2943390Y3169000D1*
Y2808909D1*
X2821972Y2687492D1*
X2781500Y2081500D2*
X2847386Y2015614D1*
X3261795D1*
X3286795Y2040614D1*
Y2315949D1*
Y2444000D1*
X3237098D1*
X3136500Y2544598D1*
X1166500Y2011260D2*
Y2418394D1*
X2343390Y2918803D2*
Y3087839D1*
X2262228Y3169000D1*
X2343390Y3250161D1*
Y3430811D1*
X3249295Y2252780D2*
Y2406500D1*
X2551028Y2734992D2*
X2351028D1*
X3619000Y2486524D2*
X4208154D1*
X4233154Y2511524D1*
Y2624024D1*
X4208154Y2649024D1*
X3681504D1*
X2043390Y3012764D2*
Y3219000D1*
X1984752D1*
Y3369000D1*
X1741028Y2619000D2*
X1631500Y2728528D1*
Y2843803D1*
X1129000Y2544598D2*
Y2078626D1*
X1104000Y2053626D1*
X879846D1*
X729846Y2011520D2*
X809451Y2091126D1*
X1066500D1*
X1091500Y2116126D1*
Y2468390D1*
X2069965Y1694000D2*
X729846D1*
X704846Y1719000D1*
Y1956500D1*
X845654D1*
X1443390Y2068094D2*
Y2544598D1*
X607780Y2698811D2*
D16*
X698795D1*
X981500Y2416106D1*
X3356500Y2081500D2*
D14*
Y2454126D1*
X3266028Y2544598D1*
X3428528Y2527169D2*
X3484886D1*
Y2315949D1*
X3244000Y2794000D2*
X3403528D1*
X3428528Y2769000D1*
Y2611520D1*
X2431500Y2480890D2*
Y2557098D1*
X2456500Y2582098D1*
X2955890D1*
X2980890Y2607098D1*
Y3087764D1*
X4055654Y2574020D2*
X3348909D1*
X3303528Y2619402D1*
X4170654Y2524024D2*
X3578528D1*
X2094000Y3406500D2*
Y2969000D1*
X1768390Y3180496D2*
X1984748D1*
X2009748Y3155496D1*
Y3058138D1*
X1994000Y3042390D1*
Y2969000D1*
X2665654Y661717D2*
D18*
Y788429D1*
X2781500Y904276D1*
Y1211421D1*
X2862504Y661717D2*
X2901500Y700713D1*
Y1157406D1*
X3081500Y1337406D1*
X3059354Y661717D2*
Y788429D1*
X3081500Y810575D1*
Y1085437D1*
X3256205Y661717D2*
Y788429D1*
X3356500Y888724D1*
Y1211421D1*
X3453055Y661717D2*
X3476500Y685161D1*
Y1157406D1*
X3656500Y1337406D1*
X3649906Y661717D2*
X3656500Y668311D1*
Y1085437D1*
X3846756Y661717D2*
Y788429D1*
X3931500Y873173D1*
Y1198921D1*
X4043606Y661717D2*
X4051500Y669610D1*
Y1144906D1*
X4231500Y1324906D1*
X4240457Y661717D2*
Y788429D1*
X4231500Y797386D1*
Y1072937D1*
X4114079Y2794000D2*
X3846756Y3061323D1*
Y3543606D1*
X4043606D2*
Y3265399D1*
X3988094Y3209887D1*
Y3094000D1*
X4240457Y3543606D2*
X4240063Y3094000D1*
X1231500Y3048469D2*
D14*
Y3176205D1*
X1324295Y3269000D1*
X1378252Y3322957D1*
Y3543606D1*
X1181500Y3048469D2*
X1163902Y3066067D1*
Y3269000D1*
Y3418142D1*
X1181402Y3435642D1*
Y3543606D1*
X1694000Y2369000D2*
Y2093094D1*
X837780Y2378488D2*
X727780D1*
X1794000Y2369000D2*
Y2181457D1*
Y2101953D1*
X1586047Y1894000D1*
X1131500D1*
Y1866787D1*
X1194965Y1803323D1*
X1131500Y1894000D2*
X1106500Y1919000D1*
X742346D1*
X1894000Y2369000D2*
X1844000Y2319000D1*
Y2144449D1*
X1869000Y2119449D1*
Y1994858D1*
X1639965Y1765823D1*
X1869000Y2119449D2*
X2081500D1*
X1639965Y1765823D2*
X1031343D1*
X933035Y1864130D1*
X3429886Y2467169D2*
D16*
Y1963114D1*
X3379886Y1913114D1*
X2698528D1*
X3345417Y3543606D2*
X3453055D1*
X984551D2*
Y3122504D1*
X1575102Y3543606D2*
Y3184315D1*
X1636913Y3122504D1*
X2494000Y2969000D2*
Y3478307D1*
X2501504Y3485811D1*
X1749472Y1769197D2*
X2351028D1*
X2698528D1*
X1981500Y2703409D2*
X1926500Y2758409D1*
X1791500D1*
X1736500Y2703409D1*
X2351028Y1843803D2*
Y1769197D1*
X2694000Y2369000D2*
Y2457917D1*
X2651028Y2500890D1*
X2698528Y1913114D2*
X2694000Y1917642D1*
Y2369000D1*
X1636913Y3122504D2*
D17*
X1640417Y3119000D1*
X1962248D1*
X2351028Y1769197D2*
D16*
Y1708409D1*
D51*
X3356500Y3375587D3*
X2045516Y3269000D3*
X1281500Y2684992D3*
X1226500Y2889732D3*
X1498394Y3454398D3*
X2218394D3*
X1231500Y2687130D3*
X1097189Y3324669D3*
X1940496Y1886953D3*
X1436500Y2768598D3*
X570535Y1803323D3*
X1106028Y3103469D3*
X613134Y2139472D3*
X1726421Y3265496D3*
X2063528Y2881303D3*
X2191028Y2831307D3*
X2791028Y2544598D3*
X2443165Y2430890D3*
X2029000Y2480890D3*
X1594000Y2544197D3*
X979000Y2194472D3*
X2410969Y3269000D3*
Y3632819D3*
X698492Y3454402D3*
X897425Y2768803D3*
X613134Y2319000D3*
X612780Y2469000D3*
X2821972Y2687492D3*
X3128921Y3194000D3*
X3136500Y2544598D3*
X3286795Y2315949D3*
X1166500Y2418394D3*
Y2011260D3*
X2343390Y3430811D3*
Y2918803D3*
X2262228Y3169000D3*
X3249295Y2406500D3*
Y2252780D3*
X2351028Y2734992D3*
X2551028D3*
X3681504Y2649024D3*
X3619000Y2486524D3*
X1984752Y3369000D3*
X2043390Y3012764D3*
Y3219000D3*
X1631500Y2843803D3*
X1741028Y2619000D3*
X879846Y2053626D3*
X1129000Y2544598D3*
X1091500Y2468390D3*
X729846Y2011520D3*
X845654Y1956500D3*
X2069965Y1694000D3*
X1443390Y2544598D3*
Y2068094D3*
X981500Y2416106D3*
X607780Y2698811D3*
X3266028Y2544598D3*
X3484886Y2315949D3*
X3428528Y2527169D3*
Y2611520D3*
X2980890Y3087764D3*
X2431500Y2480890D3*
X3303528Y2619402D3*
X4055654Y2574020D3*
X3578528Y2524024D3*
X4170654D3*
X2094000Y3406500D3*
X1768390Y3180496D3*
X1231500Y3048469D3*
X1324295Y3269000D3*
X1181500Y3048469D3*
X1163902Y3269000D3*
X1694000Y2093094D3*
X727780Y2378488D3*
X837780D3*
X1794000Y2181457D3*
X1194965Y1803323D3*
X742346Y1919000D3*
X1639965Y1765823D3*
X2081500Y2119449D3*
X933035Y1864130D3*
X3345417Y3543606D3*
X984551Y3122504D3*
X2651028Y2500890D3*
X2698528Y1769197D3*
Y1913114D3*
X1962248Y3119000D3*
X1736500Y2703409D3*
X2501504Y3485811D3*
X3429886Y2467169D3*
X2351028Y1708409D3*
Y1843803D3*
X1749472Y1769197D3*
X1981500Y2703409D3*
X1636913Y3122504D3*
X483829Y3694131D2*
D21*
X2011983D1*
X3156241D2*
X3667794D1*
X483682Y3669262D2*
X1092794D1*
X1889005D2*
X2009005D1*
X2085001D2*
X2379610D1*
X2442325D2*
X3080001D1*
X3181094D2*
X3668673D1*
X483537Y3644394D2*
X1056661D1*
X1929190D2*
X2009005D1*
X2082022D2*
X2363449D1*
X2458487D2*
X3104854D1*
X3205997D2*
X3669551D1*
X483390Y3619525D2*
X1053194D1*
X1954043D2*
X2009005D1*
X2082022D2*
X2363887D1*
X2458047D2*
X2563741D1*
X2837150D2*
X3129709D1*
X3230850D2*
X3670430D1*
X483243Y3594656D2*
X512618D1*
X669083D2*
X729269D1*
X846134D2*
X1053194D1*
X2082022D2*
X2107247D1*
X2224063D2*
X2366963D1*
X2454971D2*
X2562471D1*
X2920938D2*
X3000949D1*
X3117765D2*
X3154610D1*
X3334415D2*
X3591475D1*
X483047Y3569787D2*
X512618D1*
X669083D2*
X714181D1*
X861222D2*
X1053194D1*
X1259610D2*
X1304709D1*
X1451798D2*
X1693722D1*
X1850186D2*
X1881466D1*
X2082022D2*
X2092110D1*
X2239201D2*
X2366963D1*
X2454971D2*
X2562471D1*
X2743887D2*
X2785762D1*
X2936026D2*
X2985811D1*
X3132902D2*
X3177999D1*
X3334415D2*
X3576387D1*
X482902Y3544919D2*
X512618D1*
X669083D2*
X709493D1*
X865909D2*
X1053194D1*
X1259610D2*
X1300070D1*
X1456437D2*
X1693722D1*
X1850186D2*
X1890597D1*
X2243839D2*
X2366963D1*
X2454971D2*
X2562471D1*
X2743887D2*
X2784298D1*
X2940714D2*
X2981173D1*
X3137541D2*
X3177999D1*
X3334415D2*
X3571701D1*
X482755Y3520050D2*
X512618D1*
X669083D2*
X713253D1*
X862150D2*
X1053194D1*
X1259610D2*
X1303781D1*
X1452726D2*
X1693722D1*
X1850186D2*
X1894357D1*
X2082022D2*
X2091189D1*
X2240127D2*
X2366963D1*
X2454971D2*
X2562471D1*
X2743887D2*
X2788058D1*
X2936954D2*
X2984883D1*
X3133829D2*
X3177999D1*
X3334415D2*
X3575459D1*
X482609Y3495181D2*
X512618D1*
X848379D2*
X1053194D1*
X1259610D2*
X1317550D1*
X1438957D2*
X1473555D1*
X1523234D2*
X1693722D1*
X1850186D2*
X1908126D1*
X2082022D2*
X2104953D1*
X2243253D2*
X2366963D1*
X2454971D2*
X2562471D1*
X2764639D2*
X2801827D1*
X2923185D2*
X2960373D1*
X3120059D2*
X3177999D1*
X3334415D2*
X3589181D1*
X482462Y3470312D2*
X512618D1*
X744669D2*
X766231D1*
X809171D2*
X1053194D1*
X1259610D2*
X1341769D1*
X1414738D2*
X1452218D1*
X1544571D2*
X1693722D1*
X1850186D2*
X1947335D1*
X1990274D2*
X2009005D1*
X2082022D2*
X2129171D1*
X2264591D2*
X2316378D1*
X2454971D2*
X2562471D1*
X2779581D2*
X2841037D1*
X2883975D2*
X2935518D1*
X3080850D2*
X3177999D1*
X3334415D2*
X3628438D1*
X482266Y3445444D2*
X650362D1*
X768643D2*
X1053194D1*
X1217911D2*
X1341769D1*
X1414738D2*
X1450265D1*
X1546525D2*
X1735470D1*
X1808438D2*
X2009005D1*
X2266543D2*
X2296749D1*
X2454971D2*
X2562471D1*
X2635441D2*
X2706906D1*
X2779874D2*
X2910617D1*
X3011759D2*
X3236055D1*
X3337198D2*
X3676583D1*
X482121Y3420575D2*
X664083D1*
X793497D2*
X1053194D1*
X1214346D2*
X1341769D1*
X1414738D2*
X1461886D1*
X1534903D2*
X1735470D1*
X1808438D2*
X2009005D1*
X2254874D2*
X2295529D1*
X2454971D2*
X2562471D1*
X2635441D2*
X2706906D1*
X2779874D2*
X2885762D1*
X2986906D2*
X3260958D1*
X3370743D2*
X3677462D1*
X481974Y3395706D2*
X696017D1*
X818350D2*
X1053194D1*
X1200382D2*
X1341769D1*
X1414738D2*
X1461886D1*
X1534903D2*
X1735470D1*
X1808438D2*
X1944210D1*
X2254874D2*
X2306906D1*
X2454971D2*
X2562471D1*
X2635441D2*
X2706906D1*
X2779874D2*
X2860909D1*
X2962003D2*
X3285811D1*
X3400919D2*
X3678341D1*
X481827Y3370837D2*
X720870D1*
X843205D2*
X1053194D1*
X1200382D2*
X1341769D1*
X1414738D2*
X1461886D1*
X1534903D2*
X1735470D1*
X1808438D2*
X1935811D1*
X2254874D2*
X2306906D1*
X2454971D2*
X2562471D1*
X2635441D2*
X2706906D1*
X2779874D2*
X2836007D1*
X2937150D2*
X3307735D1*
X3405265D2*
X3679219D1*
X481681Y3345969D2*
X745773D1*
X868106D2*
X1053194D1*
X1200382D2*
X1341769D1*
X1414738D2*
X1461886D1*
X1534903D2*
X1735470D1*
X1808438D2*
X1941866D1*
X2254874D2*
X2306906D1*
X2454971D2*
X2562471D1*
X2635441D2*
X2706906D1*
X2779874D2*
X2812277D1*
X2912295D2*
X3318135D1*
X3394865D2*
X3680098D1*
X481534Y3321100D2*
X770626D1*
X892959D2*
X1048311D1*
X1200382D2*
X1325850D1*
X1414689D2*
X1461886D1*
X1534903D2*
X1731466D1*
X1808438D2*
X1948262D1*
X2254874D2*
X2306906D1*
X2454971D2*
X2562471D1*
X2635441D2*
X2706906D1*
X2779874D2*
X2806906D1*
X2887394D2*
X3680978D1*
X481339Y3296231D2*
X795479D1*
X917814D2*
X1057882D1*
X1204093D2*
X1284102D1*
X1402091D2*
X1461886D1*
X1534903D2*
X1689034D1*
X1805070D2*
X1948262D1*
X2254874D2*
X2306906D1*
X2454971D2*
X2562471D1*
X2635441D2*
X2706906D1*
X2779874D2*
X2806906D1*
X2879874D2*
X3681857D1*
X481193Y3271362D2*
X820382D1*
X938223D2*
X1062033D1*
X1212833D2*
X1275362D1*
X1377238D2*
X1448409D1*
X1534903D2*
X1677803D1*
X1782853D2*
X1948262D1*
X2254874D2*
X2306906D1*
X2459903D2*
X2562471D1*
X2635441D2*
X2706906D1*
X2779874D2*
X2806906D1*
X2879874D2*
X3682735D1*
X481046Y3246493D2*
X845235D1*
X941398D2*
X1062033D1*
X1207071D2*
X1251241D1*
X1367471D2*
X1423507D1*
X1524650D2*
X1681466D1*
X1771378D2*
X1948262D1*
X2254874D2*
X2289181D1*
X2454142D2*
X2562471D1*
X2648722D2*
X2706906D1*
X2779874D2*
X2806906D1*
X2879874D2*
X3683614D1*
X480899Y3221625D2*
X853438D1*
X941398D2*
X1062033D1*
X1200382D2*
X1226339D1*
X1327482D2*
X1398654D1*
X1499795D2*
X1708517D1*
X1792570D2*
X1948262D1*
X2254874D2*
X2264260D1*
X2365421D2*
X2572433D1*
X2673087D2*
X2706906D1*
X2779874D2*
X2806906D1*
X2879874D2*
X2946114D1*
X3168839D2*
X3684493D1*
X480753Y3196756D2*
X853438D1*
X941398D2*
X1062033D1*
X1302627D2*
X1373799D1*
X1474894D2*
X1722335D1*
X2340567D2*
X2597335D1*
X2679874D2*
X2706906D1*
X2779874D2*
X2806906D1*
X2879874D2*
X2920577D1*
X3177823D2*
X3685373D1*
X480558Y3171887D2*
X853438D1*
X941398D2*
X1062033D1*
X1277726D2*
X1348898D1*
X1450041D2*
X1720186D1*
X2315665D2*
X2606906D1*
X2679874D2*
X2706906D1*
X2779874D2*
X2806906D1*
X2879874D2*
X2907003D1*
X3172306D2*
X3686251D1*
X480411Y3147018D2*
X853438D1*
X941398D2*
X1062033D1*
X1268009D2*
X1324043D1*
X1425186D2*
X1733614D1*
X2334757D2*
X2606906D1*
X2679874D2*
X2706906D1*
X2779874D2*
X2806906D1*
X2879874D2*
X2906906D1*
X2979874D2*
X3204073D1*
X3283927D2*
X3687130D1*
X480265Y3122150D2*
X853438D1*
X941398D2*
X1060958D1*
X1268009D2*
X1299190D1*
X1400285D2*
X1973262D1*
X2359659D2*
X2606906D1*
X2679874D2*
X2706906D1*
X2779874D2*
X2806906D1*
X2879874D2*
X2906906D1*
X3014689D2*
X3183029D1*
X3304971D2*
X3688009D1*
X480118Y3097281D2*
X853438D1*
X941398D2*
X1057442D1*
X1375430D2*
X1973262D1*
X2378555D2*
X2606906D1*
X2679874D2*
X2706906D1*
X2779874D2*
X2806906D1*
X2879874D2*
X2906906D1*
X3028898D2*
X3176681D1*
X3311319D2*
X3688887D1*
X479971Y3072412D2*
X853438D1*
X941398D2*
X1062033D1*
X1350577D2*
X1973262D1*
X2130509D2*
X2138782D1*
X2379874D2*
X2606906D1*
X2679874D2*
X2706906D1*
X2779874D2*
X2806906D1*
X2879874D2*
X2906906D1*
X3027286D2*
X3161251D1*
X3307706D2*
X3689766D1*
X479825Y3047543D2*
X853438D1*
X941398D2*
X1062033D1*
X1325675D2*
X1548409D1*
X1938370D2*
X1957882D1*
X2130509D2*
X2163693D1*
X2379874D2*
X2606906D1*
X2679874D2*
X2706906D1*
X2779874D2*
X2806906D1*
X2879874D2*
X2906906D1*
X3017374D2*
X3136349D1*
X3291789D2*
X3690646D1*
X479630Y3022675D2*
X853438D1*
X941398D2*
X1062033D1*
X1323282D2*
X1333110D1*
X1454874D2*
X1468526D1*
X2130509D2*
X2168526D1*
X2419474D2*
X2568526D1*
X3017374D2*
X3111495D1*
X3233829D2*
X3691525D1*
X479483Y2997806D2*
X853438D1*
X941398D2*
X1062033D1*
X1149991D2*
X1250314D1*
X1323282D2*
X1333110D1*
X2447306D2*
X2540694D1*
X3017374D2*
X3086642D1*
X3208975D2*
X3692403D1*
X479337Y2972937D2*
X853438D1*
X941398D2*
X1062033D1*
X1149991D2*
X1250314D1*
X1323282D2*
X1333110D1*
X2454777D2*
X2533223D1*
X3017374D2*
X3061789D1*
X3184122D2*
X3693282D1*
X479190Y2948068D2*
X853438D1*
X941398D2*
X1062033D1*
X1149991D2*
X1234249D1*
X1323234D2*
X1333093D1*
X2451017D2*
X2536983D1*
X3017374D2*
X3040987D1*
X3159219D2*
X3694161D1*
X479043Y2923199D2*
X853438D1*
X941398D2*
X1062033D1*
X1149991D2*
X1191719D1*
X1310538D2*
X1333126D1*
X1632706D2*
X1655294D1*
X1732706D2*
X1755294D1*
X1832706D2*
X1855294D1*
X2432706D2*
X2555294D1*
X3017374D2*
X3037521D1*
X3134366D2*
X3695041D1*
X478849Y2898331D2*
X853438D1*
X941398D2*
X1062033D1*
X1149991D2*
X1178291D1*
X1285685D2*
X1506906D1*
X1630509D2*
X1657491D1*
X1730509D2*
X1757491D1*
X1830509D2*
X1858467D1*
X2173917D2*
X2206906D1*
X2430509D2*
X2606906D1*
X2679874D2*
X2706906D1*
X2779874D2*
X2806906D1*
X2879874D2*
X2906906D1*
X3017374D2*
X3037521D1*
X3125479D2*
X3695919D1*
X478702Y2873462D2*
X853438D1*
X941398D2*
X1062033D1*
X1149991D2*
X1180441D1*
X1272550D2*
X1506906D1*
X1730509D2*
X1757491D1*
X1830509D2*
X1876290D1*
X2111857D2*
X2168917D1*
X2429825D2*
X2606906D1*
X2679874D2*
X2706906D1*
X2779874D2*
X2806906D1*
X2879874D2*
X2906906D1*
X3017374D2*
X3037521D1*
X3125479D2*
X3696798D1*
X478555Y2848593D2*
X853438D1*
X941398D2*
X1062033D1*
X1149991D2*
X1202315D1*
X1250675D2*
X1506906D1*
X1730509D2*
X1758419D1*
X2412930D2*
X2606906D1*
X2679874D2*
X2706906D1*
X2779874D2*
X2806906D1*
X2879874D2*
X2906906D1*
X3017374D2*
X3037521D1*
X3125479D2*
X3176631D1*
X3311369D2*
X3697677D1*
X478409Y2823724D2*
X853438D1*
X941398D2*
X1062033D1*
X1149991D2*
X1506906D1*
X2384269D2*
X2606906D1*
X2679874D2*
X2706906D1*
X2779874D2*
X2806906D1*
X2879874D2*
X2906906D1*
X3017374D2*
X3037521D1*
X3125479D2*
X3176631D1*
X3422501D2*
X3698555D1*
X478262Y2798856D2*
X521701D1*
X941398D2*
X1050118D1*
X1474307D2*
X1506906D1*
X1668009D2*
X1675908D1*
X2679874D2*
X2706906D1*
X3017374D2*
X3037521D1*
X3125479D2*
X3176631D1*
X3449259D2*
X3699386D1*
X478117Y2773987D2*
X509102D1*
X946134D2*
X1025265D1*
X1485197D2*
X1506906D1*
X1668009D2*
X1705978D1*
X2065470D2*
X2136398D1*
X2670450D2*
X2706906D1*
X3017374D2*
X3037521D1*
X3125479D2*
X3176631D1*
X3464639D2*
X3700265D1*
X477921Y2749118D2*
X508810D1*
X942033D2*
X1000949D1*
X1481241D2*
X1506906D1*
X1668009D2*
X1992501D1*
X2065470D2*
X2111543D1*
X2212686D2*
X2231906D1*
X2645597D2*
X2706906D1*
X2934171D2*
X2944446D1*
X3017374D2*
X3037521D1*
X3125479D2*
X3176631D1*
X3311369D2*
X3392062D1*
X3465030D2*
X3701143D1*
X477774Y2724249D2*
X508810D1*
X734513D2*
X881613D1*
X913223D2*
X992501D1*
X1097843D2*
X1200997D1*
X1686319D2*
X1992501D1*
X2065470D2*
X2086690D1*
X2187833D2*
X2231906D1*
X2598770D2*
X2706906D1*
X2909318D2*
X2944406D1*
X3017374D2*
X3037521D1*
X3125479D2*
X3392062D1*
X3465030D2*
X3702022D1*
X477627Y2699381D2*
X508810D1*
X759415D2*
X992501D1*
X1080509D2*
X1184151D1*
X1711222D2*
X1992501D1*
X2162930D2*
X2231906D1*
X2383438D2*
X2518625D1*
X2583438D2*
X2706906D1*
X2884415D2*
X2944406D1*
X3017374D2*
X3037521D1*
X3125479D2*
X3392062D1*
X3465030D2*
X3702902D1*
X477482Y2674512D2*
X508810D1*
X784269D2*
X992501D1*
X1080509D2*
X1184249D1*
X1736075D2*
X1992501D1*
X2138077D2*
X2231906D1*
X2330509D2*
X2706906D1*
X2869131D2*
X2944406D1*
X3017374D2*
X3037521D1*
X3125479D2*
X3392062D1*
X3465030D2*
X3640109D1*
X477335Y2649643D2*
X508810D1*
X596769D2*
X686789D1*
X809122D2*
X992501D1*
X1080509D2*
X1201486D1*
X1314201D2*
X1504415D1*
X1630509D2*
X1659835D1*
X1778507D2*
X1992501D1*
X2130509D2*
X2231906D1*
X2851505D2*
X2944406D1*
X3017374D2*
X3037521D1*
X3125479D2*
X3265694D1*
X3341349D2*
X3392062D1*
X3465030D2*
X3632491D1*
X4258097D2*
X4317697D1*
X477139Y2624774D2*
X508810D1*
X596769D2*
X711642D1*
X834025D2*
X992501D1*
X1080509D2*
X1508126D1*
X1630509D2*
X1684689D1*
X1789689D2*
X1992501D1*
X2130509D2*
X2231906D1*
X2804093D2*
X2944406D1*
X3017374D2*
X3037521D1*
X3125479D2*
X3254854D1*
X3352238D2*
X3381466D1*
X3475577D2*
X3639327D1*
X4269621D2*
X4318673D1*
X476993Y2599906D2*
X508810D1*
X596769D2*
X736543D1*
X858878D2*
X992501D1*
X1080509D2*
X1508126D1*
X1630509D2*
X1696114D1*
X1785929D2*
X1992501D1*
X2130509D2*
X2231906D1*
X3016593D2*
X3037521D1*
X3125479D2*
X3258810D1*
X4096769D2*
X4196651D1*
X4269621D2*
X4319650D1*
X476846Y2575037D2*
X508810D1*
X596769D2*
X761398D1*
X883731D2*
X992501D1*
X1080509D2*
X1091344D1*
X1166642D2*
X1405734D1*
X1481046D2*
X1508126D1*
X1631290D2*
X1723361D1*
X1758682D2*
X1992501D1*
X2130509D2*
X2221701D1*
X2999406D2*
X3037521D1*
X3174161D2*
X3228390D1*
X4104630D2*
X4196651D1*
X4269621D2*
X4320577D1*
X476701Y2550168D2*
X508810D1*
X596769D2*
X786251D1*
X908634D2*
X992501D1*
X1177677D2*
X1394747D1*
X1492033D2*
X1508126D1*
X1642618D2*
X1992501D1*
X2130509D2*
X2196798D1*
X2970010D2*
X3037521D1*
X3185147D2*
X3217354D1*
X4269621D2*
X4321554D1*
X476554Y2525299D2*
X508957D1*
X617667D2*
X811154D1*
X933487D2*
X992501D1*
X1173819D2*
X1398605D1*
X1488175D2*
X1508126D1*
X1639005D2*
X1992501D1*
X2130509D2*
X2171945D1*
X2468009D2*
X2487033D1*
X2835831D2*
X3037521D1*
X3206387D2*
X3221211D1*
X3335879D2*
X3379562D1*
X3521378D2*
X3529562D1*
X4269621D2*
X4322482D1*
X476407Y2500430D2*
X520186D1*
X649551D2*
X836007D1*
X958341D2*
X992501D1*
X1165470D2*
X1406906D1*
X1479874D2*
X1508126D1*
X1612198D2*
X1984298D1*
X2130509D2*
X2147091D1*
X2248185D2*
X2257529D1*
X2563273D2*
X2773995D1*
X2808047D2*
X3037521D1*
X3231241D2*
X3248995D1*
X3360782D2*
X3388009D1*
X3521378D2*
X3535958D1*
X4267765D2*
X4323458D1*
X476211Y2475562D2*
X545041D1*
X661319D2*
X860861D1*
X983194D2*
X992501D1*
X1165470D2*
X1406906D1*
X1479874D2*
X1508126D1*
X1581094D2*
X1980294D1*
X2223331D2*
X2257491D1*
X2538419D2*
X3037521D1*
X3125479D2*
X3154953D1*
X3385391D2*
X3448409D1*
X3521378D2*
X3571310D1*
X4247745D2*
X4324434D1*
X476066Y2450693D2*
X567550D1*
X658047D2*
X885762D1*
X1202433D2*
X1406906D1*
X1479874D2*
X1508126D1*
X1931437D2*
X1991134D1*
X2198478D2*
X2257491D1*
X2513517D2*
X3037521D1*
X3125479D2*
X3179854D1*
X3393009D2*
X3448409D1*
X3521378D2*
X3586886D1*
X3651114D2*
X4325362D1*
X475919Y2425824D2*
X568917D1*
X656875D2*
X910617D1*
X1214883D2*
X1333126D1*
X1961514D2*
X1978077D1*
X2009953D2*
X2057491D1*
X2209953D2*
X2257491D1*
X2509953D2*
X2578047D1*
X2609953D2*
X2778047D1*
X2809953D2*
X2878047D1*
X2909953D2*
X3037521D1*
X3125479D2*
X3204513D1*
X3393009D2*
X3448409D1*
X3521378D2*
X4326339D1*
X475773Y2400955D2*
X568966D1*
X656925D2*
X684591D1*
X880997D2*
X935030D1*
X1212101D2*
X1333126D1*
X2645353D2*
X2742647D1*
X2945353D2*
X3037521D1*
X3125479D2*
X3200606D1*
X3393009D2*
X3448409D1*
X3521378D2*
X4327266D1*
X475626Y2376087D2*
X569014D1*
X656974D2*
X678829D1*
X886710D2*
X955343D1*
X1202970D2*
X1333126D1*
X2654434D2*
X2733566D1*
X2954434D2*
X3037521D1*
X3125479D2*
X3211642D1*
X3393009D2*
X3448409D1*
X3521378D2*
X4328243D1*
X475430Y2351218D2*
X569063D1*
X883097D2*
X992501D1*
X1202970D2*
X1333126D1*
X2652139D2*
X2735861D1*
X2952139D2*
X3037521D1*
X3125479D2*
X3212814D1*
X3393009D2*
X3448409D1*
X3521378D2*
X4329171D1*
X475285Y2326349D2*
X564718D1*
X908291D2*
X992501D1*
X1202970D2*
X1333126D1*
X1536369D2*
X1551657D1*
X1636369D2*
X1651657D1*
X1736369D2*
X1751657D1*
X2436369D2*
X2449978D1*
X2537979D2*
X2551660D1*
X2636369D2*
X2751631D1*
X2836369D2*
X2851657D1*
X2936369D2*
X3037521D1*
X3125479D2*
X3212814D1*
X3393009D2*
X3437081D1*
X3532706D2*
X4330147D1*
X475138Y2301480D2*
X567550D1*
X933146D2*
X992501D1*
X1202970D2*
X1406906D1*
X1479874D2*
X1657491D1*
X1730509D2*
X1757491D1*
X1880509D2*
X1935958D1*
X2150822D2*
X2210958D1*
X2374650D2*
X2450021D1*
X2537979D2*
X3037521D1*
X3125479D2*
X3212814D1*
X3393009D2*
X3438205D1*
X3531583D2*
X4331125D1*
X474991Y2276612D2*
X591525D1*
X634757D2*
X835714D1*
X958047D2*
X992501D1*
X1202970D2*
X1406906D1*
X1479874D2*
X1657491D1*
X1730509D2*
X1757491D1*
X1880509D2*
X2235811D1*
X2350967D2*
X2450021D1*
X2537979D2*
X3037521D1*
X3125479D2*
X3206857D1*
X3393009D2*
X3457589D1*
X3512198D2*
X4332051D1*
X474845Y2251743D2*
X860567D1*
X982902D2*
X992501D1*
X1202970D2*
X1406906D1*
X1479874D2*
X1657491D1*
X1730509D2*
X1757491D1*
X1880509D2*
X2450021D1*
X2537979D2*
X3037521D1*
X3125479D2*
X3200314D1*
X3393009D2*
X4333029D1*
X474698Y2226874D2*
X885421D1*
X1202970D2*
X1406906D1*
X1479874D2*
X1657491D1*
X1730509D2*
X1757491D1*
X1880509D2*
X2450021D1*
X2537979D2*
X3037521D1*
X3125479D2*
X3208175D1*
X3393009D2*
X4333957D1*
X474503Y2202005D2*
X910274D1*
X1202970D2*
X1406906D1*
X1479874D2*
X1657491D1*
X1730509D2*
X1749777D1*
X1880509D2*
X2450021D1*
X2537979D2*
X3037521D1*
X3125479D2*
X3250314D1*
X3393009D2*
X4334933D1*
X474357Y2177136D2*
X583370D1*
X1202970D2*
X1406906D1*
X1479874D2*
X1657491D1*
X1730509D2*
X1745186D1*
X1880509D2*
X2450021D1*
X2537979D2*
X3037521D1*
X3125479D2*
X3250314D1*
X3393009D2*
X3690987D1*
X4184513D2*
X4335909D1*
X474210Y2152268D2*
X565938D1*
X1202970D2*
X1406906D1*
X1479874D2*
X1657491D1*
X1730509D2*
X1755294D1*
X2116934D2*
X2450021D1*
X2537979D2*
X3037521D1*
X3125479D2*
X3250314D1*
X3393009D2*
X3666085D1*
X4209415D2*
X4336837D1*
X474063Y2127399D2*
X565743D1*
X1202970D2*
X1406906D1*
X1479874D2*
X1657491D1*
X1730509D2*
X1757491D1*
X2129825D2*
X2450021D1*
X2537979D2*
X2714131D1*
X2848869D2*
X3033126D1*
X3129874D2*
X3250314D1*
X3423869D2*
X3608126D1*
X4262295D2*
X4337814D1*
X473917Y2102530D2*
X569161D1*
X1202970D2*
X1406906D1*
X1479874D2*
X1645967D1*
X2127335D2*
X2450021D1*
X2537979D2*
X2714131D1*
X2848869D2*
X3017598D1*
X3145402D2*
X3250314D1*
X3423869D2*
X3592598D1*
X3738711D2*
X3864131D1*
X3998869D2*
X4136789D1*
X4289542D2*
X4338741D1*
X473722Y2077661D2*
X569161D1*
X657121D2*
X745430D1*
X1202970D2*
X1395382D1*
X1491398D2*
X1647627D1*
X1820255D2*
X1832491D1*
X1905509D2*
X2058614D1*
X2104386D2*
X2450021D1*
X2537979D2*
X2714131D1*
X2848869D2*
X3014230D1*
X3148770D2*
X3250314D1*
X3423869D2*
X3589230D1*
X3723770D2*
X3864131D1*
X3998869D2*
X4161690D1*
X4298282D2*
X4339718D1*
X473575Y2052793D2*
X569161D1*
X657121D2*
X705929D1*
X821671D2*
X830879D1*
X1202970D2*
X1396993D1*
X1489786D2*
X1668282D1*
X1795402D2*
X1832491D1*
X1905509D2*
X2450021D1*
X2537979D2*
X2714131D1*
X2860782D2*
X3020822D1*
X3142178D2*
X3248409D1*
X3423869D2*
X3595822D1*
X3717178D2*
X3864131D1*
X3998869D2*
X4166182D1*
X4296818D2*
X4340694D1*
X473429Y2027924D2*
X569161D1*
X657121D2*
X683858D1*
X796818D2*
X838594D1*
X1212394D2*
X1417453D1*
X1469327D2*
X1669406D1*
X1770547D2*
X1832491D1*
X1905509D2*
X2450021D1*
X2537979D2*
X2714131D1*
X3423869D2*
X3612521D1*
X3700479D2*
X3864131D1*
X3998869D2*
X4178781D1*
X4284219D2*
X4341622D1*
X473282Y2003055D2*
X569161D1*
X657121D2*
X681613D1*
X778067D2*
X1118234D1*
X1214786D2*
X1644551D1*
X1745646D2*
X1826631D1*
X1905509D2*
X2450021D1*
X2537979D2*
X2809395D1*
X3299795D2*
X3602755D1*
X3700479D2*
X4342598D1*
X473135Y1978186D2*
X569161D1*
X657121D2*
X676193D1*
X889298D2*
X1131319D1*
X1201701D2*
X1619650D1*
X1720791D2*
X1801778D1*
X1901114D2*
X2450021D1*
X2537979D2*
X3577902D1*
X3696671D2*
X4343526D1*
X472941Y1953318D2*
X569161D1*
X657121D2*
X668379D1*
X894522D2*
X1594795D1*
X1695938D2*
X1776875D1*
X1878018D2*
X2450021D1*
X2537979D2*
X3553047D1*
X3675382D2*
X4344503D1*
X472794Y1928449D2*
X569161D1*
X657121D2*
X668379D1*
X1147598D2*
X1569942D1*
X1671085D2*
X1752022D1*
X1853165D2*
X1917013D1*
X2537979D2*
X3528146D1*
X3650529D2*
X4345430D1*
X472647Y1903580D2*
X569161D1*
X657121D2*
X668379D1*
X1646182D2*
X1727169D1*
X1828262D2*
X1894551D1*
X2532706D2*
X3503291D1*
X3625626D2*
X4346407D1*
X472501Y1878711D2*
X569161D1*
X657121D2*
X668379D1*
X768058D2*
X886398D1*
X979678D2*
X1094991D1*
X1621329D2*
X1702266D1*
X1803409D2*
X1892209D1*
X2550285D2*
X3478438D1*
X3600773D2*
X4347383D1*
X472354Y1853843D2*
X559883D1*
X657121D2*
X668379D1*
X741349D2*
X885177D1*
X993887D2*
X1097579D1*
X1195010D2*
X1677413D1*
X1778555D2*
X1905343D1*
X1975626D2*
X2452803D1*
X3575919D2*
X4348311D1*
X472209Y1828974D2*
X529269D1*
X653507D2*
X668379D1*
X741349D2*
X900118D1*
X1018741D2*
X1118770D1*
X1236270D2*
X1652559D1*
X1753702D2*
X2477657D1*
X3551017D2*
X4349289D1*
X472013Y1804105D2*
X521554D1*
X632510D2*
X668379D1*
X741349D2*
X942501D1*
X1043643D2*
X1143625D1*
X1243937D2*
X1611055D1*
X1728799D2*
X2502510D1*
X3526163D2*
X4350215D1*
X471866Y1779236D2*
X528243D1*
X612833D2*
X668379D1*
X741349D2*
X967354D1*
X1703946D2*
X4351193D1*
X471719Y1754367D2*
X668379D1*
X741349D2*
X992257D1*
X1687541D2*
X4352169D1*
X1085441Y1729499D2*
X1608419D1*
X1671475D2*
X2037423D1*
X2102482D2*
X4353097D1*
X1348110Y3027390D2*
X1452390D1*
Y3009958D1*
X1459680Y3016239D1*
X1467492Y3021026D1*
X1475957Y3024531D1*
X1484866Y3026671D1*
X1494000Y3027390D1*
X1503134Y3026671D1*
X1512043Y3024531D1*
X1520508Y3021026D1*
X1522087Y3020142D1*
X1546308Y3044244D1*
X1550625Y3047379D1*
X1555378Y3049802D1*
X1560453Y3051450D1*
X1565722Y3052285D1*
X1668390Y3052390D1*
X1921058Y3052285D1*
X1926327Y3051450D1*
X1931402Y3049802D1*
X1936155Y3047379D1*
X1940471Y3044244D1*
X1960005Y3024857D1*
X1960105Y3045058D1*
X1960940Y3050327D1*
X1962588Y3055402D1*
X1965010Y3060155D1*
X1968146Y3064471D1*
X1975794Y3072266D1*
X1975748Y3141390D1*
X1959748Y3146496D1*
X1800129D1*
X1792686Y3140848D1*
X1786185Y3137535D1*
X1779245Y3135281D1*
X1772038Y3134139D1*
X1764741D1*
X1757534Y3135281D1*
X1750594Y3137535D1*
X1744093Y3140848D1*
X1738190Y3145138D1*
X1733031Y3150297D1*
X1728741Y3156199D1*
X1725429Y3162701D1*
X1723175Y3169640D1*
X1722033Y3176848D1*
Y3184144D1*
X1723175Y3191352D1*
X1725429Y3198291D1*
X1728741Y3204793D1*
X1733031Y3210696D1*
X1738190Y3215854D1*
X1744093Y3220144D1*
X1750594Y3223457D1*
X1757534Y3225711D1*
X1764741Y3226853D1*
X1772038D1*
X1779245Y3225711D1*
X1786185Y3223457D1*
X1792686Y3220144D1*
X1798589Y3215854D1*
X1800066Y3214490D1*
X1951056Y3214496D1*
X1950752Y3219000D1*
Y3337311D1*
X1947133Y3341668D1*
X1943320Y3347890D1*
X1940528Y3354631D1*
X1938824Y3361726D1*
X1938252Y3369000D1*
X1938824Y3376274D1*
X1940528Y3383369D1*
X1943320Y3390110D1*
X1947133Y3396332D1*
X1951871Y3401881D1*
X1957420Y3406619D1*
X1963642Y3410432D1*
X1970383Y3413224D1*
X1977478Y3414928D1*
X1984752Y3415500D1*
X1992026Y3414928D1*
X1999121Y3413224D1*
X2005862Y3410432D1*
X2011526Y3406992D1*
X2011516Y3481060D1*
X2003176Y3476146D1*
X1992199Y3471600D1*
X1980647Y3468825D1*
X1968803Y3467894D1*
X1956959Y3468825D1*
X1945407Y3471600D1*
X1934430Y3476146D1*
X1924301Y3482353D1*
X1915266Y3490070D1*
X1907550Y3499104D1*
X1901343Y3509234D1*
X1896797Y3520210D1*
X1894022Y3531762D1*
X1893091Y3543606D1*
X1894022Y3555450D1*
X1894734Y3559026D1*
X1867402Y3586319D1*
X1847627D1*
X1847665Y3467894D1*
X1805917D1*
X1805848Y3308360D1*
X1805013Y3303091D1*
X1803365Y3298016D1*
X1800942Y3293262D1*
X1797807Y3288946D1*
X1772896Y3263887D1*
X1771636Y3254640D1*
X1769382Y3247701D1*
X1766070Y3241199D1*
X1761780Y3235297D1*
X1756621Y3230138D1*
X1750718Y3225848D1*
X1744217Y3222535D1*
X1737277Y3220281D1*
X1730070Y3219139D1*
X1722773D1*
X1715566Y3220281D1*
X1708626Y3222535D1*
X1702125Y3225848D1*
X1696222Y3230138D1*
X1691063Y3235297D1*
X1686773Y3241199D1*
X1683461Y3247701D1*
X1681206Y3254640D1*
X1680064Y3261848D1*
Y3269144D1*
X1681206Y3276352D1*
X1683461Y3283291D1*
X1686773Y3289793D1*
X1691063Y3295696D1*
X1696222Y3300854D1*
X1702125Y3305144D1*
X1708626Y3308457D1*
X1715566Y3310711D1*
X1722773Y3311853D1*
X1724782Y3311932D1*
X1737976Y3325135D1*
X1737953Y3467912D1*
X1696240Y3467894D1*
Y3586302D1*
X1440791Y3586319D1*
X1445713Y3577979D1*
X1450259Y3567003D1*
X1453033Y3555450D1*
X1453965Y3543606D1*
X1453033Y3531762D1*
X1450259Y3520210D1*
X1445713Y3509234D1*
X1439505Y3499104D1*
X1431789Y3490070D1*
X1422755Y3482353D1*
X1412224Y3475961D1*
X1412147Y3320289D1*
X1411312Y3315020D1*
X1409664Y3309945D1*
X1407241Y3305192D1*
X1404106Y3300875D1*
X1370770Y3267392D1*
X1369510Y3258144D1*
X1367256Y3251205D1*
X1363944Y3244703D1*
X1359654Y3238801D1*
X1354495Y3233642D1*
X1348592Y3229352D1*
X1342091Y3226039D1*
X1335151Y3223785D1*
X1327944Y3222643D1*
X1325934Y3222564D1*
X1265508Y3162129D1*
X1265500Y3086020D1*
X1464428Y3284921D1*
X1464394Y3422709D1*
X1460774Y3427066D1*
X1456962Y3433287D1*
X1454169Y3440029D1*
X1452466Y3447123D1*
X1451894Y3454398D1*
X1452466Y3461672D1*
X1454169Y3468766D1*
X1456962Y3475508D1*
X1460774Y3481730D1*
X1465513Y3487278D1*
X1471062Y3492017D1*
X1477283Y3495829D1*
X1484025Y3498622D1*
X1491119Y3500325D1*
X1498394Y3500898D1*
X1505668Y3500325D1*
X1512762Y3498622D1*
X1519504Y3495829D1*
X1525726Y3492017D1*
X1531274Y3487278D1*
X1536013Y3481730D1*
X1539825Y3475508D1*
X1542618Y3468766D1*
X1544322Y3461672D1*
X1544894Y3454398D1*
X1544322Y3447123D1*
X1542618Y3440029D1*
X1539825Y3433287D1*
X1536013Y3427066D1*
X1532387Y3422722D1*
X1532289Y3268136D1*
X1531454Y3262867D1*
X1529806Y3257793D1*
X1527383Y3253039D1*
X1524248Y3248723D1*
X1451724Y3176052D1*
X1320765Y3045092D1*
X1320694Y2947364D1*
X1319860Y2942094D1*
X1318211Y2937020D1*
X1315789Y2932266D1*
X1312654Y2927950D1*
X1272965Y2888114D1*
X1271715Y2878877D1*
X1269461Y2871937D1*
X1266148Y2865436D1*
X1261858Y2859533D1*
X1256699Y2854374D1*
X1250797Y2850084D1*
X1244295Y2846772D1*
X1237356Y2844517D1*
X1230148Y2843375D1*
X1222852D1*
X1215644Y2844517D1*
X1208705Y2846772D1*
X1202203Y2850084D1*
X1196301Y2854374D1*
X1191142Y2859533D1*
X1186852Y2865436D1*
X1183539Y2871937D1*
X1181285Y2878877D1*
X1180143Y2886084D1*
Y2893381D1*
X1181285Y2900588D1*
X1183539Y2907528D1*
X1186852Y2914029D1*
X1191142Y2919932D1*
X1196301Y2925091D1*
X1202203Y2929381D1*
X1208705Y2932693D1*
X1215644Y2934948D1*
X1222852Y2936089D1*
X1224861Y2936168D1*
X1252833Y2964148D1*
X1252610Y3007037D1*
X1245869Y3004244D1*
X1238774Y3002541D1*
X1231500Y3001969D1*
X1224226Y3002541D1*
X1217131Y3004244D1*
X1210390Y3007037D1*
X1206528Y3009273D1*
X1199295Y3005508D1*
X1192356Y3003253D1*
X1185148Y3002112D1*
X1177852D1*
X1170644Y3003253D1*
X1163705Y3005508D1*
X1157203Y3008820D1*
X1151301Y3013110D1*
X1147507Y3016793D1*
X1147528Y2810744D1*
X1156028Y2810098D1*
X1415549D1*
X1422131Y2812823D1*
X1429226Y2814526D1*
X1436500Y2815098D1*
X1443774Y2814526D1*
X1450869Y2812823D1*
X1457610Y2810030D1*
X1463832Y2806218D1*
X1469381Y2801479D1*
X1474119Y2795930D1*
X1477932Y2789709D1*
X1480724Y2782967D1*
X1482428Y2775873D1*
X1483000Y2768598D1*
X1482428Y2761324D1*
X1480724Y2754230D1*
X1477932Y2747488D1*
X1475934Y2743982D1*
X1504301Y2743992D1*
X1509390Y2759992D1*
Y2912677D1*
X1503134Y2911329D1*
X1494000Y2910610D1*
X1484866Y2911329D1*
X1475957Y2913469D1*
X1467492Y2916974D1*
X1459680Y2921761D1*
X1452385Y2928067D1*
X1452390Y2910610D1*
X1335610D1*
Y3027390D1*
X1348110D1*
X1643987Y2938850D2*
X1638400Y2931079D1*
X1631921Y2924600D1*
X1627978Y2921533D1*
X1628000Y2890143D1*
X1635148Y2890160D1*
X1642356Y2889018D1*
X1649295Y2886764D1*
X1655797Y2883451D1*
X1660008Y2880495D1*
X1660000Y2921492D1*
X1652713Y2927713D1*
X1646761Y2934680D1*
X1644013Y2938850D1*
X1743987D2*
X1738400Y2931079D1*
X1731921Y2924600D1*
X1727978Y2921533D1*
X1728000Y2845416D1*
X1744000Y2840307D1*
X1763971D1*
X1761664Y2845801D1*
X1760419Y2850988D1*
X1760000Y2856307D1*
Y2921492D1*
X1752713Y2927713D1*
X1746761Y2934680D1*
X1744013Y2938850D1*
X1843987D2*
X1838400Y2931079D1*
X1831921Y2924600D1*
X1827978Y2921533D1*
X1828000Y2870416D1*
X1844000Y2865307D1*
X1886920D1*
X1868146Y2884222D1*
X1865010Y2888538D1*
X1862588Y2893291D1*
X1860940Y2898366D1*
X1860105Y2903635D1*
X1860000Y2921488D1*
X1852713Y2927713D1*
X1846761Y2934680D1*
X1844013Y2938850D1*
X2127978Y3016467D2*
X2135287Y3010287D1*
X2141239Y3003320D1*
X2143987Y2999150D1*
X2149600Y3006921D1*
X2156079Y3013400D1*
X2163491Y3018786D1*
X2171655Y3022945D1*
X2180369Y3025777D1*
X2186804Y3026900D1*
X2139799Y3074045D1*
X2136664Y3078361D1*
X2134241Y3083114D1*
X2132593Y3088189D1*
X2131759Y3093458D1*
X2131654Y3196126D1*
X2131619Y3379168D1*
X2127993Y3374824D1*
X2128000Y3016509D1*
X2209407Y2912724D2*
X2203134Y2911329D1*
X2194000Y2910610D1*
X2184462Y2911409D1*
X2165885Y2892949D1*
X2161568Y2889814D1*
X2156815Y2887391D1*
X2151740Y2885743D1*
X2146471Y2884908D1*
X2109867Y2884803D1*
X2109885Y2877655D1*
X2108743Y2870448D1*
X2107144Y2865287D1*
X2159283Y2865307D1*
X2166731Y2870955D1*
X2173232Y2874268D1*
X2180172Y2876522D1*
X2187379Y2877664D1*
X2194676D1*
X2201883Y2876522D1*
X2209406Y2873999D1*
X2209390Y2912669D1*
X2452210Y2964419D2*
X2450777Y2955369D1*
X2447945Y2946655D1*
X2443786Y2938491D1*
X2438400Y2931079D1*
X2431921Y2924600D1*
X2427978Y2921533D1*
X2427895Y2877549D1*
X2427060Y2872280D1*
X2425412Y2867205D1*
X2422990Y2862451D1*
X2419854Y2858135D1*
X2393042Y2831175D1*
X2388984Y2827710D1*
X2384436Y2824923D1*
X2379507Y2822881D1*
X2374319Y2821635D1*
X2369000Y2821217D1*
X2307428D1*
X2311063Y2805552D1*
X2316332Y2806387D1*
X2494000Y2806492D1*
X2604303D1*
X2609390Y2822492D1*
Y2912677D1*
X2603134Y2911329D1*
X2594000Y2910610D1*
X2584866Y2911329D1*
X2575957Y2913469D1*
X2567492Y2916974D1*
X2559680Y2921761D1*
X2552713Y2927713D1*
X2546761Y2934680D1*
X2541974Y2942492D1*
X2538469Y2950957D1*
X2536329Y2959866D1*
X2535610Y2969000D1*
X2536329Y2978134D1*
X2538469Y2987043D1*
X2541974Y2995508D1*
X2546761Y3003320D1*
X2552713Y3010287D1*
X2559680Y3016239D1*
X2567492Y3021026D1*
X2575957Y3024531D1*
X2584866Y3026671D1*
X2594000Y3027390D1*
X2603134Y3026671D1*
X2609407Y3025276D1*
X2609390Y3187189D1*
X2573087Y3223619D1*
X2569951Y3227936D1*
X2567529Y3232689D1*
X2565881Y3237764D1*
X2565046Y3243033D1*
X2564941Y3345701D1*
X2565046Y3612987D1*
X2565881Y3618256D1*
X2567529Y3623331D1*
X2569951Y3628084D1*
X2573087Y3632400D1*
X2576860Y3636173D1*
X2581176Y3639308D1*
X2585929Y3641731D1*
X2591004Y3643379D1*
X2596273Y3644214D1*
X2698941Y3644319D1*
X2798459Y3644214D1*
X2803728Y3643379D1*
X2808803Y3641731D1*
X2813556Y3639308D1*
X2817873Y3636173D1*
X2838719Y3615475D1*
X2850660Y3618387D1*
X2862504Y3619319D1*
X2874348Y3618387D1*
X2885900Y3615613D1*
X2896877Y3611067D1*
X2907007Y3604860D1*
X2916041Y3597143D1*
X2923757Y3588109D1*
X2929965Y3577979D1*
X2934510Y3567003D1*
X2937285Y3555450D1*
X2938217Y3543606D1*
X2937285Y3531762D1*
X2934510Y3520210D1*
X2929965Y3509234D1*
X2923757Y3499104D1*
X2916041Y3490070D1*
X2907007Y3482353D1*
X2896877Y3476146D1*
X2885900Y3471600D1*
X2874348Y3468825D1*
X2862504Y3467894D1*
X2850660Y3468825D1*
X2839108Y3471600D1*
X2828131Y3476146D1*
X2818001Y3482353D1*
X2808967Y3490070D1*
X2801251Y3499104D1*
X2795043Y3509234D1*
X2790497Y3520210D1*
X2787723Y3531762D1*
X2786791Y3543606D1*
X2787723Y3555450D1*
X2790650Y3567417D1*
X2781665Y3576361D1*
X2741348Y3576319D1*
X2741366Y3515950D1*
X2769244Y3487951D1*
X2772379Y3483635D1*
X2774802Y3478882D1*
X2776450Y3473807D1*
X2777285Y3468538D1*
X2777390Y3365870D1*
Y3025001D1*
X2784866Y3026671D1*
X2794000Y3027390D1*
X2803134Y3026671D1*
X2809407Y3025276D1*
X2809495Y3330310D1*
X2810329Y3335579D1*
X2811978Y3340654D1*
X2814400Y3345407D1*
X2817535Y3349723D1*
X2890059Y3422394D1*
X2987458Y3519794D1*
X2984573Y3531762D1*
X2983642Y3543606D1*
X2984573Y3555450D1*
X2987348Y3567003D1*
X2991894Y3577979D1*
X2998101Y3588109D1*
X3005818Y3597143D1*
X3014852Y3604860D1*
X3024982Y3611067D1*
X3035958Y3615613D1*
X3047510Y3618387D1*
X3059354Y3619319D1*
X3071198Y3618387D1*
X3082751Y3615613D1*
X3093727Y3611067D1*
X3103857Y3604860D1*
X3112891Y3597143D1*
X3120608Y3588109D1*
X3126815Y3577979D1*
X3131361Y3567003D1*
X3134135Y3555450D1*
X3135067Y3543606D1*
X3134135Y3531762D1*
X3131361Y3520210D1*
X3126815Y3509234D1*
X3120608Y3499104D1*
X3112891Y3490070D1*
X3103857Y3482353D1*
X3093727Y3476146D1*
X3082751Y3471600D1*
X3071198Y3468825D1*
X3059354Y3467894D1*
X3047510Y3468825D1*
X3035543Y3471752D1*
X2877375Y3313543D1*
X2877390Y3024957D1*
X2884866Y3026671D1*
X2894000Y3027390D1*
X2903134Y3026671D1*
X2909407Y3025276D1*
X2909495Y3171668D1*
X2910329Y3176937D1*
X2911978Y3182012D1*
X2914400Y3186765D1*
X2917535Y3191081D1*
X2944348Y3218042D1*
X2948406Y3221507D1*
X2952954Y3224294D1*
X2957883Y3226336D1*
X2963071Y3227581D1*
X2968390Y3228000D1*
X3097247D1*
X3101589Y3231619D1*
X3107811Y3235432D1*
X3114552Y3238224D1*
X3121647Y3239928D1*
X3128921Y3240500D1*
X3136196Y3239928D1*
X3143290Y3238224D1*
X3150031Y3235432D1*
X3156253Y3231619D1*
X3161802Y3226881D1*
X3166541Y3221332D1*
X3170353Y3215110D1*
X3173146Y3208369D1*
X3174849Y3201274D1*
X3175421Y3194000D1*
X3174849Y3186726D1*
X3173146Y3179631D1*
X3170353Y3172890D1*
X3166541Y3166668D1*
X3161802Y3161119D1*
X3156253Y3156381D1*
X3150031Y3152568D1*
X3143290Y3149776D1*
X3136196Y3148072D1*
X3128921Y3147500D1*
X3121647Y3148072D1*
X3114552Y3149776D1*
X3107811Y3152568D1*
X3101589Y3156381D1*
X3097245Y3160007D1*
X2982486Y3160000D1*
X2977390Y3144000D1*
Y3134088D1*
X2984538Y3134121D1*
X2991745Y3132979D1*
X2998685Y3130724D1*
X3005186Y3127412D1*
X3011089Y3123122D1*
X3016248Y3117963D1*
X3020538Y3112060D1*
X3023850Y3105559D1*
X3026105Y3098619D1*
X3027247Y3091412D1*
Y3084115D1*
X3026105Y3076908D1*
X3023850Y3069969D1*
X3020538Y3063467D1*
X3016248Y3057564D1*
X3014883Y3056088D1*
X3014785Y2604430D1*
X3013950Y2599161D1*
X3012302Y2594087D1*
X3009879Y2589333D1*
X3006744Y2585017D1*
X2979932Y2558056D1*
X2975874Y2554592D1*
X2971325Y2551804D1*
X2966396Y2549762D1*
X2961209Y2548517D1*
X2955890Y2548098D1*
X2837385D1*
Y2540950D1*
X2836243Y2533743D1*
X2833988Y2526803D1*
X2830676Y2520302D1*
X2826386Y2514399D1*
X2821227Y2509240D1*
X2815324Y2504950D1*
X2808823Y2501638D1*
X2801883Y2499383D1*
X2794676Y2498241D1*
X2787379D1*
X2780172Y2499383D1*
X2773232Y2501638D1*
X2766731Y2504950D1*
X2760828Y2509240D1*
X2755660Y2514411D1*
X2574688Y2514390D1*
X2489655Y2429297D1*
X2489520Y2427227D1*
X2498581Y2427210D1*
X2507631Y2425777D1*
X2516345Y2422945D1*
X2524509Y2418786D1*
X2531921Y2413400D1*
X2538400Y2406921D1*
X2543987Y2399150D1*
X2549600Y2406921D1*
X2556079Y2413400D1*
X2563491Y2418786D1*
X2571655Y2422945D1*
X2580369Y2425777D1*
X2589419Y2427210D1*
X2598581D1*
X2607631Y2425777D1*
X2616345Y2422945D1*
X2624509Y2418786D1*
X2631921Y2413400D1*
X2638400Y2406921D1*
X2643786Y2399509D1*
X2647945Y2391345D1*
X2650777Y2382631D1*
X2652210Y2373581D1*
Y2364419D1*
X2650777Y2355369D1*
X2647945Y2346655D1*
X2643786Y2338491D1*
X2638400Y2331079D1*
X2631921Y2324600D1*
X2624509Y2319214D1*
X2616345Y2315055D1*
X2607631Y2312223D1*
X2598581Y2310790D1*
X2589419D1*
X2580369Y2312223D1*
X2571655Y2315055D1*
X2563491Y2319214D1*
X2556079Y2324600D1*
X2549600Y2331079D1*
X2544013Y2338850D1*
X2538400Y2331079D1*
X2535495Y2327936D1*
X2535373Y1920547D1*
X2534353Y1914115D1*
X2532341Y1907921D1*
X2529385Y1902119D1*
X2527345Y1899121D1*
X2560803Y1865689D1*
X3467874Y1865697D1*
X3615009Y2012814D1*
X3615000Y2031601D1*
X3607160Y2039360D1*
X3601176Y2047597D1*
X3596554Y2056669D1*
X3593407Y2066353D1*
X3591814Y2076409D1*
Y2086591D1*
X3593407Y2096647D1*
X3596554Y2106331D1*
X3601176Y2115403D1*
X3607160Y2123640D1*
X3614360Y2130840D1*
X3622597Y2136824D1*
X3631669Y2141446D1*
X3641353Y2144593D1*
X3651409Y2146186D1*
X3662402Y2146091D1*
X3702933Y2186442D1*
X3708202Y2190270D1*
X3714004Y2193227D1*
X3720198Y2195239D1*
X3726630Y2196259D1*
X3792386Y2196386D1*
X4148870Y2196259D1*
X4155302Y2195239D1*
X4161496Y2193227D1*
X4167298Y2190270D1*
X4172567Y2186442D1*
X4219154Y2140037D1*
X4225610Y2133580D1*
X4231500Y2133886D1*
X4241651Y2133087D1*
X4251551Y2130710D1*
X4260958Y2126814D1*
X4269639Y2121493D1*
X4277381Y2114881D1*
X4283993Y2107139D1*
X4289314Y2098458D1*
X4293210Y2089051D1*
X4295587Y2079151D1*
X4296386Y2069000D1*
X4295587Y2058849D1*
X4293210Y2048949D1*
X4289314Y2039542D1*
X4283993Y2030861D1*
X4277381Y2023119D1*
X4269639Y2016507D1*
X4260958Y2011186D1*
X4251551Y2007290D1*
X4241651Y2004913D1*
X4231500Y2004114D1*
X4221349Y2004913D1*
X4211449Y2007290D1*
X4202042Y2011186D1*
X4193361Y2016507D1*
X4185619Y2023119D1*
X4179007Y2030861D1*
X4173686Y2039542D1*
X4169790Y2048949D1*
X4167413Y2058849D1*
X4166614Y2069000D1*
X4166799Y2075010D1*
X4128441Y2113370D1*
X3996346Y2113386D1*
X3996386Y2004114D1*
X3866614D1*
Y2113440D1*
X3747030Y2113386D1*
X3721148Y2087458D1*
X3721186Y2076409D1*
X3719593Y2066353D1*
X3716446Y2056669D1*
X3711824Y2047597D1*
X3705840Y2039360D1*
X3697999Y2031655D1*
X3697873Y1992358D1*
X3696853Y1985927D1*
X3694841Y1979732D1*
X3691885Y1973930D1*
X3688056Y1968661D1*
X3641651Y1922075D1*
X3512035Y1792640D1*
X3506766Y1788812D1*
X3500965Y1785856D1*
X3494770Y1783844D1*
X3488339Y1782824D1*
X3422583Y1782697D1*
X2540350Y1782824D1*
X2533919Y1783844D1*
X2527724Y1785856D1*
X2521923Y1788812D1*
X2516655Y1792640D1*
X2470067Y1839046D1*
X2451803Y1857311D1*
X1976276Y1857303D1*
X1970696Y1851594D1*
X1964793Y1847304D1*
X1958291Y1843992D1*
X1951352Y1841738D1*
X1944144Y1840596D1*
X1936848D1*
X1929640Y1841738D1*
X1922701Y1843992D1*
X1916199Y1847304D1*
X1910297Y1851594D1*
X1905138Y1856753D1*
X1900848Y1862656D1*
X1897535Y1869157D1*
X1895281Y1876097D1*
X1894139Y1883304D1*
Y1890601D1*
X1895281Y1897808D1*
X1897535Y1904748D1*
X1900848Y1911249D1*
X1905138Y1917152D1*
X1910297Y1922311D1*
X1916199Y1926601D1*
X1922701Y1929913D1*
X1926552Y1931297D1*
X1933505Y1935780D1*
X1939522Y1938272D1*
X1945854Y1939793D1*
X1952346Y1940303D1*
X2451810D1*
X2452500Y1948803D1*
Y2327954D1*
X2446761Y2334680D1*
X2444013Y2338850D1*
X2438400Y2331079D1*
X2431921Y2324600D1*
X2424509Y2319214D1*
X2416345Y2315055D1*
X2407631Y2312223D1*
X2398581Y2310790D1*
X2389419D1*
X2380369Y2312223D1*
X2376766Y2313240D1*
X2374802Y2306602D1*
X2372379Y2301849D1*
X2369244Y2297533D1*
X2340471Y2268760D1*
X2336155Y2265625D1*
X2331402Y2263202D1*
X2326327Y2261554D1*
X2321058Y2260719D1*
X2268386Y2260614D1*
X2263067Y2261033D1*
X2257879Y2262278D1*
X2252950Y2264320D1*
X2248402Y2267108D1*
X2244344Y2270572D1*
X2203499Y2311417D1*
X2194000Y2310610D1*
X2184866Y2311329D1*
X2175957Y2313469D1*
X2167492Y2316974D1*
X2165133Y2318295D1*
X2140471Y2293756D1*
X2136155Y2290621D1*
X2131402Y2288198D1*
X2126327Y2286550D1*
X2121058Y2285715D1*
X2018390Y2285610D1*
X1965722Y2285715D1*
X1960453Y2286550D1*
X1955378Y2288198D1*
X1950625Y2290621D1*
X1946308Y2293756D1*
X1922122Y2317794D1*
X1912043Y2313469D1*
X1903134Y2311329D1*
X1894000Y2310610D1*
X1884462Y2311409D1*
X1877957Y2304873D1*
X1878000Y2158501D1*
X1894000Y2153449D1*
X2049811D1*
X2054168Y2157068D1*
X2060390Y2160881D1*
X2067131Y2163673D1*
X2074226Y2165377D1*
X2081500Y2165949D1*
X2088774Y2165377D1*
X2095869Y2163673D1*
X2102610Y2160881D1*
X2108832Y2157068D1*
X2114381Y2152329D1*
X2119119Y2146781D1*
X2122932Y2140559D1*
X2125724Y2133818D1*
X2127428Y2126723D1*
X2128000Y2119449D1*
X2127428Y2112175D1*
X2125724Y2105080D1*
X2122932Y2098339D1*
X2119119Y2092117D1*
X2114381Y2086568D1*
X2108832Y2081829D1*
X2102610Y2078017D1*
X2095869Y2075224D1*
X2088774Y2073521D1*
X2081500Y2072949D1*
X2074226Y2073521D1*
X2067131Y2075224D1*
X2060390Y2078017D1*
X2054168Y2081829D1*
X2049824Y2085455D1*
X1903033Y2085449D1*
X1902895Y1992190D1*
X1902060Y1986921D1*
X1900412Y1981846D1*
X1897990Y1977093D1*
X1894854Y1972777D1*
X1822331Y1900106D1*
X1686469Y1764243D1*
X1685180Y1754967D1*
X1682925Y1748028D1*
X1679613Y1741526D1*
X1675323Y1735623D1*
X1670164Y1730465D1*
X1667346Y1728000D1*
X2038196D1*
X2045668Y1733648D1*
X2052169Y1736961D1*
X2059109Y1739215D1*
X2066316Y1740357D1*
X2073613D1*
X2080820Y1739215D1*
X2087760Y1736961D1*
X2094261Y1733648D1*
X2100164Y1729358D1*
X2103455Y1726220D1*
X4355983Y1719042D1*
X4319482Y2668735D1*
X4238171Y2667093D1*
X4259008Y2646105D1*
X4262143Y2641789D1*
X4264566Y2637035D1*
X4266214Y2631961D1*
X4267049Y2626692D1*
X4267154Y2524024D1*
X4267049Y2508856D1*
X4266214Y2503587D1*
X4264566Y2498512D1*
X4262143Y2493759D1*
X4259008Y2489442D1*
X4232196Y2462482D1*
X4228138Y2459017D1*
X4223589Y2456230D1*
X4218660Y2454188D1*
X4213472Y2452942D1*
X4208154Y2452524D1*
X3650682D1*
X3646332Y2448904D1*
X3640110Y2445092D1*
X3633369Y2442299D1*
X3626274Y2440596D1*
X3619000Y2440024D1*
X3611726Y2440596D1*
X3604631Y2442299D1*
X3597890Y2445092D1*
X3591668Y2448904D1*
X3586119Y2453643D1*
X3581381Y2459192D1*
X3577568Y2465413D1*
X3574776Y2472155D1*
X3573360Y2477808D1*
X3564159Y2479799D1*
X3557417Y2482592D1*
X3551196Y2486404D1*
X3545647Y2491143D1*
X3540908Y2496692D1*
X3537096Y2502913D1*
X3534303Y2509655D1*
X3532600Y2516749D1*
X3532028Y2524024D1*
X3532600Y2531298D1*
X3534911Y2540039D1*
X3516346Y2540020D1*
X3517946Y2535106D1*
X3518781Y2529837D1*
X3518886Y2427169D1*
Y2347629D1*
X3522505Y2343281D1*
X3526318Y2337059D1*
X3529110Y2330318D1*
X3530814Y2323223D1*
X3531386Y2315949D1*
X3530814Y2308675D1*
X3529110Y2301580D1*
X3526318Y2294839D1*
X3522505Y2288617D1*
X3517766Y2283068D1*
X3512218Y2278329D1*
X3505996Y2274517D1*
X3499255Y2271724D1*
X3492160Y2270021D1*
X3484886Y2269449D1*
X3477612Y2270021D1*
X3470517Y2271724D1*
X3463776Y2274517D1*
X3457554Y2278329D1*
X3452005Y2283068D1*
X3447266Y2288617D1*
X3443454Y2294839D1*
X3440661Y2301580D1*
X3438958Y2308675D1*
X3438386Y2315949D1*
X3438958Y2323223D1*
X3440661Y2330318D1*
X3443454Y2337059D1*
X3447266Y2343281D1*
X3450892Y2347625D1*
X3450886Y2486408D1*
X3442896Y2482945D1*
X3435802Y2481241D1*
X3428528Y2480669D1*
X3421253Y2481241D1*
X3414159Y2482945D1*
X3407417Y2485738D1*
X3401196Y2489550D1*
X3395647Y2494289D1*
X3390908Y2499837D1*
X3387096Y2506059D1*
X3384303Y2512801D1*
X3382600Y2519895D1*
X3382028Y2527169D1*
X3382600Y2534444D1*
X3383882Y2540042D1*
X3346241Y2540125D1*
X3340972Y2540959D1*
X3335898Y2542608D1*
X3331144Y2545030D1*
X3326828Y2548165D1*
X3305222Y2569623D1*
X3308988Y2562394D1*
X3311243Y2555454D1*
X3312385Y2548247D1*
X3312463Y2546238D1*
X3382354Y2476207D1*
X3385490Y2471891D1*
X3387912Y2467138D1*
X3389560Y2462063D1*
X3390395Y2456794D1*
X3390500Y2354126D1*
Y2146362D1*
X3421386Y2146386D1*
Y2016614D1*
X3310837Y2016572D1*
X3283877Y1989760D1*
X3279560Y1986625D1*
X3274807Y1984202D1*
X3269732Y1982554D1*
X3264463Y1981719D1*
X3161795Y1981614D1*
X2844718Y1981719D1*
X2839449Y1982554D1*
X2834374Y1984202D1*
X2829621Y1986625D1*
X2825304Y1989760D1*
X2798312Y2016604D1*
X2716614Y2016614D1*
Y2146386D1*
X2846386D1*
Y2064697D1*
X2861509Y2049573D1*
X3024974Y2049614D1*
X3021554Y2056669D1*
X3018407Y2066353D1*
X3016814Y2076409D1*
Y2086591D1*
X3018407Y2096647D1*
X3021554Y2106331D1*
X3026176Y2115403D1*
X3032160Y2123640D1*
X3040001Y2131345D1*
X3040127Y2934756D1*
X3041147Y2941188D1*
X3043159Y2947382D1*
X3046115Y2953184D1*
X3049944Y2958453D1*
X3096349Y3005039D1*
X3179386Y3088076D1*
X3179314Y3099091D1*
X3180907Y3109147D1*
X3184054Y3118831D1*
X3188676Y3127903D1*
X3194660Y3136140D1*
X3201860Y3143340D1*
X3210097Y3149324D1*
X3219169Y3153946D1*
X3228853Y3157093D1*
X3238909Y3158686D1*
X3249091D1*
X3259147Y3157093D1*
X3268831Y3153946D1*
X3277903Y3149324D1*
X3286140Y3143340D1*
X3293340Y3136140D1*
X3299324Y3127903D1*
X3303946Y3118831D1*
X3307093Y3109147D1*
X3308686Y3099091D1*
Y3088909D1*
X3307093Y3078853D1*
X3303946Y3069169D1*
X3299324Y3060097D1*
X3293340Y3051860D1*
X3286140Y3044660D1*
X3277903Y3038676D1*
X3268831Y3034054D1*
X3259147Y3030907D1*
X3249091Y3029314D1*
X3238098Y3029409D1*
X3122982Y2914291D1*
X3123000Y2589068D1*
X3129226Y2590526D1*
X3136500Y2591098D1*
X3143774Y2590526D1*
X3150869Y2588823D1*
X3157610Y2586030D1*
X3163832Y2582218D1*
X3169381Y2577479D1*
X3174119Y2571930D1*
X3177932Y2565709D1*
X3180724Y2558967D1*
X3182428Y2551873D1*
X3182936Y2546238D1*
X3251175Y2478008D1*
X3284556Y2478000D1*
X3264406Y2498136D1*
X3258753Y2498671D1*
X3251659Y2500374D1*
X3244917Y2503167D1*
X3238696Y2506979D1*
X3233147Y2511718D1*
X3228408Y2517266D1*
X3224596Y2523488D1*
X3221803Y2530230D1*
X3220100Y2537324D1*
X3219528Y2544598D1*
X3220100Y2551873D1*
X3221803Y2558967D1*
X3224596Y2565709D1*
X3228408Y2571930D1*
X3233147Y2577479D1*
X3238696Y2582218D1*
X3244917Y2586030D1*
X3251659Y2588823D1*
X3258753Y2590526D1*
X3266640Y2591075D1*
X3262096Y2598291D1*
X3259303Y2605033D1*
X3257600Y2612127D1*
X3257028Y2619402D1*
X3257600Y2626676D1*
X3259303Y2633770D1*
X3262096Y2640512D1*
X3265908Y2646734D1*
X3270647Y2652282D1*
X3276196Y2657021D1*
X3282417Y2660833D1*
X3289159Y2663626D1*
X3296253Y2665329D1*
X3303528Y2665902D1*
X3310802Y2665329D1*
X3317896Y2663626D1*
X3324638Y2660833D1*
X3330860Y2657021D1*
X3336408Y2652282D1*
X3341147Y2646734D1*
X3344959Y2640512D1*
X3347752Y2633770D1*
X3349455Y2626676D1*
X3349963Y2621041D1*
X3363028Y2607984D1*
X3382161Y2608020D1*
X3382171Y2615168D1*
X3383312Y2622375D1*
X3385567Y2629315D1*
X3388879Y2635816D1*
X3393169Y2641719D1*
X3394534Y2643196D1*
X3394528Y2754928D1*
X3378528Y2760000D1*
X3308850D1*
X3308886Y2729114D1*
X3179114D1*
Y2858886D1*
X3308886D1*
Y2827978D1*
X3406196Y2827895D1*
X3411465Y2827060D1*
X3416539Y2825412D1*
X3421293Y2822990D1*
X3425609Y2819854D1*
X3452570Y2793042D1*
X3456034Y2788984D1*
X3458822Y2784436D1*
X3460864Y2779507D1*
X3462109Y2774319D1*
X3462528Y2769000D1*
Y2643268D1*
X3468176Y2635816D1*
X3471488Y2629315D1*
X3473743Y2622375D1*
X3474885Y2615168D1*
X3474890Y2608000D1*
X3659602Y2608020D1*
X3654172Y2611404D1*
X3648623Y2616143D1*
X3643885Y2621692D1*
X3640072Y2627913D1*
X3637280Y2634655D1*
X3635576Y2641749D1*
X3635004Y2649024D1*
X3635576Y2656298D1*
X3637280Y2663392D1*
X3640072Y2670134D1*
X3643885Y2676356D1*
X3648623Y2681904D1*
X3654172Y2686643D1*
X3660394Y2690455D1*
X3667135Y2693248D1*
X3674230Y2694951D1*
X3681504Y2695524D1*
X3688778Y2694951D1*
X3695873Y2693248D1*
X3702614Y2690455D1*
X3705812Y2688664D1*
X3678102Y3473381D1*
X3667580Y3469986D1*
X3655846Y3468127D1*
X3643965D1*
X3632231Y3469986D1*
X3620932Y3473657D1*
X3610345Y3479051D1*
X3600734Y3486034D1*
X3592333Y3494434D1*
X3585350Y3504046D1*
X3579957Y3514633D1*
X3576285Y3525932D1*
X3574427Y3537665D1*
Y3549547D1*
X3576285Y3561281D1*
X3579957Y3572580D1*
X3585350Y3583167D1*
X3592333Y3592778D1*
X3600734Y3601178D1*
X3610345Y3608161D1*
X3620932Y3613555D1*
X3632231Y3617227D1*
X3643965Y3619085D1*
X3655846D1*
X3667580Y3617227D1*
X3673101Y3615671D1*
X3669436Y3718930D1*
X3131016Y3716858D1*
X3228571Y3619324D1*
X3331917Y3619319D1*
Y3467894D1*
X3312240D1*
X3358104Y3422066D1*
X3367356Y3420802D1*
X3374295Y3418547D1*
X3380797Y3415235D1*
X3386699Y3410945D1*
X3391858Y3405786D1*
X3396148Y3399883D1*
X3399461Y3393382D1*
X3401715Y3386442D1*
X3402857Y3379235D1*
Y3371938D1*
X3401715Y3364731D1*
X3399461Y3357791D1*
X3396148Y3351290D1*
X3391858Y3345387D1*
X3386699Y3340228D1*
X3380797Y3335938D1*
X3374295Y3332626D1*
X3367356Y3330371D1*
X3360148Y3329230D1*
X3352852D1*
X3345644Y3330371D1*
X3338705Y3332626D1*
X3332203Y3335938D1*
X3326301Y3340228D1*
X3321142Y3345387D1*
X3316852Y3351290D1*
X3313539Y3357791D1*
X3311285Y3364731D1*
X3310143Y3371938D1*
X3310064Y3373948D1*
X3230350Y3453801D1*
X3227215Y3458117D1*
X3224793Y3462870D1*
X3223764Y3465747D1*
X3219417Y3467894D1*
X3180492D1*
Y3571262D1*
X3080419Y3671310D1*
X2437021Y3671319D1*
X2443849Y3665699D1*
X2448588Y3660151D1*
X2452400Y3653929D1*
X2455193Y3647188D1*
X2456896Y3640093D1*
X2457469Y3632819D1*
X2456896Y3625545D1*
X2455193Y3618450D1*
X2452454Y3611825D1*
X2452469Y3289996D1*
X2455193Y3283369D1*
X2456896Y3276274D1*
X2457469Y3269000D1*
X2456896Y3261726D1*
X2455193Y3254631D1*
X2452400Y3247890D1*
X2448588Y3241668D1*
X2443849Y3236119D1*
X2438301Y3231381D1*
X2432079Y3227568D1*
X2425337Y3224776D1*
X2418243Y3223072D1*
X2410969Y3222500D1*
X2403694Y3223072D1*
X2396600Y3224776D1*
X2389858Y3227568D1*
X2383636Y3231381D1*
X2378088Y3236119D1*
X2375478Y3238969D1*
X2372379Y3232396D1*
X2369244Y3228080D1*
X2310290Y3168978D1*
X2369244Y3109920D1*
X2372379Y3105604D1*
X2374802Y3100850D1*
X2376450Y3095776D1*
X2377285Y3090507D1*
X2377390Y3024997D1*
X2384866Y3026671D1*
X2394000Y3027390D1*
X2403134Y3026671D1*
X2412043Y3024531D1*
X2420508Y3021026D1*
X2428320Y3016239D1*
X2435287Y3010287D1*
X2441239Y3003320D1*
X2446026Y2995508D1*
X2449531Y2987043D1*
X2451671Y2978134D1*
X2452390Y2969000D1*
X2452210Y2964419D1*
X2709407Y2912724D2*
X2703134Y2911329D1*
X2694000Y2910610D1*
X2684866Y2911329D1*
X2677387Y2913064D1*
X2677285Y2794824D1*
X2676450Y2789555D1*
X2674802Y2784480D1*
X2672379Y2779727D1*
X2669244Y2775411D1*
X2642432Y2748450D1*
X2638374Y2744986D1*
X2633825Y2742198D1*
X2628896Y2740156D1*
X2623709Y2738911D1*
X2618390Y2738492D1*
X2597442D1*
X2597385Y2731344D1*
X2596243Y2724136D1*
X2593988Y2717197D1*
X2590676Y2710696D1*
X2586386Y2704793D1*
X2581227Y2699634D1*
X2575324Y2695344D1*
X2568823Y2692031D1*
X2561883Y2689777D1*
X2554676Y2688635D1*
X2547379D1*
X2540172Y2689777D1*
X2533232Y2692031D1*
X2526731Y2695344D1*
X2520828Y2699634D1*
X2519352Y2700999D1*
X2382717Y2700992D1*
X2378360Y2697373D1*
X2372138Y2693560D1*
X2365396Y2690768D1*
X2358302Y2689064D1*
X2351028Y2688492D1*
X2343753Y2689064D1*
X2336659Y2690768D1*
X2329917Y2693560D1*
X2327988Y2694640D1*
X2328186Y2639979D1*
X2346308Y2657953D1*
X2350625Y2661088D1*
X2355378Y2663510D1*
X2360453Y2665159D1*
X2365722Y2665993D1*
X2468390Y2666098D1*
X2704278D1*
X2709390Y2682098D1*
Y2912714D1*
X2677387Y3024936D2*
X2684866Y3026671D1*
X2694000Y3027390D1*
X2703134Y3026671D1*
X2709407Y3025276D1*
X2709390Y3451776D1*
X2693281Y3467896D1*
X2632919Y3467894D1*
X2632941Y3259782D1*
X2669244Y3223333D1*
X2672379Y3219017D1*
X2674802Y3214264D1*
X2676450Y3209189D1*
X2677285Y3203920D1*
X2677390Y3101252D1*
Y3024933D1*
X2809407Y2912724D2*
X2803134Y2911329D1*
X2794000Y2910610D1*
X2784866Y2911329D1*
X2777387Y2913064D1*
X2777390Y2787306D1*
X2809430Y2819337D1*
X2809390Y2912684D1*
X2909407Y2912724D2*
X2903134Y2911329D1*
X2894000Y2910610D1*
X2884866Y2911329D1*
X2877387Y2913064D1*
X2877285Y2802545D1*
X2876450Y2797276D1*
X2874802Y2792201D1*
X2872379Y2787448D1*
X2869244Y2783131D1*
X2820234Y2733972D1*
X2909417Y2823021D1*
X2909390Y2912669D1*
X1348110Y2427390D2*
X1409390D1*
Y2512870D1*
X1403741Y2520302D1*
X1400429Y2526803D1*
X1398175Y2533743D1*
X1397033Y2540950D1*
Y2548247D1*
X1398175Y2555454D1*
X1400429Y2562394D1*
X1403741Y2568895D1*
X1408031Y2574798D1*
X1413190Y2579957D1*
X1419093Y2584247D1*
X1425594Y2587559D1*
X1432534Y2589814D1*
X1439741Y2590955D1*
X1447038D1*
X1454245Y2589814D1*
X1461185Y2587559D1*
X1467686Y2584247D1*
X1473589Y2579957D1*
X1478748Y2574798D1*
X1483038Y2568895D1*
X1486350Y2562394D1*
X1488605Y2555454D1*
X1489747Y2548247D1*
Y2540950D1*
X1488605Y2533743D1*
X1486350Y2526803D1*
X1483038Y2520302D1*
X1478748Y2514399D1*
X1477383Y2512923D1*
X1477390Y2425018D1*
X1484866Y2426671D1*
X1494000Y2427390D1*
X1503134Y2426671D1*
X1512043Y2424531D1*
X1518085Y2422143D1*
X1514320Y2427954D1*
X1512278Y2432883D1*
X1511033Y2438071D1*
X1510614Y2443390D1*
Y2645881D1*
X1494614Y2650992D1*
X1313218D1*
X1305797Y2645344D1*
X1299295Y2642031D1*
X1292356Y2639777D1*
X1285148Y2638635D1*
X1277852D1*
X1270644Y2639777D1*
X1263705Y2642031D1*
X1257203Y2645344D1*
X1254844Y2646921D1*
X1249295Y2644169D1*
X1242356Y2641915D1*
X1235148Y2640773D1*
X1227852D1*
X1220644Y2641915D1*
X1213705Y2644169D1*
X1207203Y2647482D1*
X1201301Y2651772D1*
X1196142Y2656930D1*
X1191852Y2662833D1*
X1188539Y2669335D1*
X1186285Y2676274D1*
X1185143Y2683482D1*
Y2690778D1*
X1186285Y2697986D1*
X1188539Y2704925D1*
X1191852Y2711427D1*
X1196142Y2717329D1*
X1201301Y2722488D1*
X1207789Y2727105D1*
X1127772Y2727226D1*
X1121340Y2728245D1*
X1115146Y2730257D1*
X1109344Y2733214D1*
X1106345Y2735253D1*
X1077954Y2706836D1*
X1078000Y2512890D1*
X1084226Y2514318D1*
X1093281Y2514820D1*
X1089352Y2520302D1*
X1086039Y2526803D1*
X1083785Y2533743D1*
X1082643Y2540950D1*
Y2548247D1*
X1083785Y2555454D1*
X1086039Y2562394D1*
X1089352Y2568895D1*
X1093642Y2574798D1*
X1098801Y2579957D1*
X1104703Y2584247D1*
X1111205Y2587559D1*
X1118144Y2589814D1*
X1125352Y2590955D1*
X1132648D1*
X1139856Y2589814D1*
X1146795Y2587559D1*
X1153297Y2584247D1*
X1159199Y2579957D1*
X1164358Y2574798D1*
X1168648Y2568895D1*
X1171961Y2562394D1*
X1174215Y2555454D1*
X1175357Y2548247D1*
Y2540950D1*
X1174215Y2533743D1*
X1171961Y2526803D1*
X1168648Y2520302D1*
X1164358Y2514399D1*
X1162993Y2512923D1*
X1163000Y2464765D1*
X1170148Y2464751D1*
X1177356Y2463609D1*
X1184295Y2461354D1*
X1190797Y2458042D1*
X1196699Y2453752D1*
X1201858Y2448593D1*
X1206148Y2442690D1*
X1209461Y2436189D1*
X1211715Y2429249D1*
X1212857Y2422042D1*
Y2414745D1*
X1211715Y2407538D1*
X1209461Y2400598D1*
X1206148Y2394097D1*
X1201858Y2388194D1*
X1200493Y2386718D1*
X1200500Y2042954D1*
X1204119Y2038592D1*
X1207932Y2032370D1*
X1210724Y2025629D1*
X1212428Y2018534D1*
X1213000Y2011260D1*
X1212428Y2003986D1*
X1210724Y1996891D1*
X1207932Y1990150D1*
X1204119Y1983928D1*
X1199381Y1978379D1*
X1193832Y1973640D1*
X1187610Y1969828D1*
X1180869Y1967035D1*
X1173774Y1965332D1*
X1166500Y1964760D1*
X1159226Y1965332D1*
X1152131Y1967035D1*
X1145390Y1969828D1*
X1139168Y1973640D1*
X1133619Y1978379D1*
X1128881Y1983928D1*
X1125068Y1990150D1*
X1122276Y1996891D1*
X1120572Y2003986D1*
X1120000Y2011260D1*
X1120572Y2018534D1*
X1122047Y2024819D1*
X1117012Y2022214D1*
X1111937Y2020566D1*
X1106668Y2019731D1*
X1004000Y2019626D1*
X911568D1*
X904143Y2013978D1*
X897642Y2010665D1*
X890702Y2008411D1*
X883495Y2007269D1*
X876198D1*
X868991Y2008411D1*
X862051Y2010665D1*
X855550Y2013978D1*
X849647Y2018268D1*
X844488Y2023427D1*
X840198Y2029329D1*
X836886Y2035831D1*
X834631Y2042770D1*
X833490Y2049978D1*
X833484Y2057146D1*
X823483Y2057126D1*
X776352Y2009942D1*
X775062Y2000664D1*
X772807Y1993724D1*
X771320Y1990500D1*
X813978D1*
X818322Y1994119D1*
X824543Y1997932D1*
X831285Y2000724D1*
X838379Y2002428D1*
X845654Y2003000D1*
X852928Y2002428D1*
X860022Y2000724D1*
X866764Y1997932D1*
X872986Y1994119D1*
X878534Y1989381D1*
X883273Y1983832D1*
X887085Y1977610D1*
X889878Y1970869D1*
X891581Y1963774D1*
X892154Y1956500D1*
X892016Y1952980D1*
X1109168Y1952895D1*
X1114437Y1952060D1*
X1119512Y1950412D1*
X1124265Y1947990D1*
X1128581Y1944854D1*
X1145630Y1927954D1*
X1571979Y1928000D1*
X1690352Y2046738D1*
X1683144Y2047879D1*
X1676205Y2050134D1*
X1669703Y2053446D1*
X1663801Y2057736D1*
X1658642Y2062895D1*
X1654352Y2068798D1*
X1651039Y2075299D1*
X1648785Y2082239D1*
X1647643Y2089446D1*
Y2096743D1*
X1648785Y2103950D1*
X1651039Y2110890D1*
X1654352Y2117391D1*
X1658642Y2123294D1*
X1660007Y2124770D1*
X1660000Y2321562D1*
X1652713Y2327713D1*
X1646761Y2334680D1*
X1644013Y2338850D1*
X1638400Y2331079D1*
X1631921Y2324600D1*
X1624509Y2319214D1*
X1616345Y2315055D1*
X1607631Y2312223D1*
X1598581Y2310790D1*
X1589419D1*
X1580369Y2312223D1*
X1571655Y2315055D1*
X1563491Y2319214D1*
X1556079Y2324600D1*
X1549600Y2331079D1*
X1544013Y2338850D1*
X1538400Y2331079D1*
X1531921Y2324600D1*
X1524509Y2319214D1*
X1516345Y2315055D1*
X1507631Y2312223D1*
X1498581Y2310790D1*
X1489419D1*
X1480369Y2312223D1*
X1477387Y2313064D1*
X1477390Y2099823D1*
X1483038Y2092391D1*
X1486350Y2085890D1*
X1488605Y2078950D1*
X1489747Y2071743D1*
Y2064446D1*
X1488605Y2057239D1*
X1486350Y2050299D1*
X1483038Y2043798D1*
X1478748Y2037895D1*
X1473589Y2032736D1*
X1467686Y2028446D1*
X1461185Y2025134D1*
X1454245Y2022879D1*
X1447038Y2021738D1*
X1439741D1*
X1432534Y2022879D1*
X1425594Y2025134D1*
X1419093Y2028446D1*
X1413190Y2032736D1*
X1408031Y2037895D1*
X1403741Y2043798D1*
X1400429Y2050299D1*
X1398175Y2057239D1*
X1397033Y2064446D1*
Y2071743D1*
X1398175Y2078950D1*
X1400429Y2085890D1*
X1403741Y2092391D1*
X1408031Y2098294D1*
X1409396Y2099770D1*
X1409390Y2310623D1*
X1335610Y2310610D1*
Y2427390D1*
X1348110D1*
X1743987Y2338850D2*
X1738400Y2331079D1*
X1731921Y2324600D1*
X1727978Y2321533D1*
X1728000Y2124811D1*
X1733648Y2117391D1*
X1736961Y2110890D1*
X1739215Y2103950D1*
X1740370Y2096387D1*
X1760016Y2116052D1*
X1760000Y2149756D1*
X1756381Y2154125D1*
X1752568Y2160346D1*
X1749776Y2167088D1*
X1748072Y2174182D1*
X1747500Y2181457D1*
X1748072Y2188731D1*
X1749776Y2195825D1*
X1752568Y2202567D1*
X1756381Y2208789D1*
X1760007Y2213133D1*
X1760000Y2321545D1*
X1752713Y2327713D1*
X1746761Y2334680D1*
X1744013Y2338850D1*
X1965133Y2419705D2*
X1971655Y2422945D1*
X1980369Y2425777D1*
X1989419Y2427210D1*
X1998581D1*
X2007631Y2425777D1*
X2016345Y2422945D1*
X2024509Y2418786D1*
X2031921Y2413400D1*
X2038400Y2406921D1*
X2043987Y2399150D1*
X2049600Y2406921D1*
X2056079Y2413400D1*
X2060022Y2416467D1*
X2060000Y2446197D1*
X2053297Y2441241D1*
X2046795Y2437929D1*
X2039856Y2435675D1*
X2032648Y2434533D1*
X2025352D1*
X2018144Y2435675D1*
X2011205Y2437929D1*
X2004703Y2441241D1*
X1998801Y2445531D1*
X1993642Y2450690D1*
X1989352Y2456593D1*
X1986039Y2463094D1*
X1983785Y2470034D1*
X1982643Y2477241D1*
Y2484538D1*
X1983785Y2491745D1*
X1986039Y2498685D1*
X1989352Y2505186D1*
X1993642Y2511089D1*
X1995007Y2512566D1*
X1995000Y2767266D1*
X1979000Y2772307D1*
X1716332Y2772412D1*
X1711063Y2773247D1*
X1705988Y2774895D1*
X1701235Y2777318D1*
X1696919Y2780453D1*
X1669958Y2807265D1*
X1666280Y2811643D1*
X1665500Y2806303D1*
Y2742583D1*
X1742652Y2665458D1*
X1748302Y2664928D1*
X1755396Y2663224D1*
X1762138Y2660432D1*
X1768360Y2656619D1*
X1773908Y2651881D1*
X1778647Y2646332D1*
X1782459Y2640110D1*
X1785252Y2633369D1*
X1786955Y2626274D1*
X1787528Y2619000D1*
X1786955Y2611726D1*
X1785252Y2604631D1*
X1782459Y2597890D1*
X1778647Y2591668D1*
X1773908Y2586119D1*
X1768360Y2581381D1*
X1762138Y2577568D1*
X1755396Y2574776D1*
X1748302Y2573072D1*
X1741028Y2572500D1*
X1733753Y2573072D1*
X1726659Y2574776D1*
X1719917Y2577568D1*
X1713696Y2581381D1*
X1708147Y2586119D1*
X1703408Y2591668D1*
X1699596Y2597890D1*
X1696803Y2604631D1*
X1695100Y2611726D1*
X1694592Y2617361D1*
X1628010Y2683933D1*
X1628000Y2575885D1*
X1631619Y2571529D1*
X1635432Y2565307D1*
X1638224Y2558566D1*
X1639928Y2551471D1*
X1640500Y2544197D1*
X1639928Y2536923D1*
X1638224Y2529828D1*
X1635432Y2523087D1*
X1631619Y2516865D1*
X1626881Y2511316D1*
X1621332Y2506577D1*
X1615110Y2502765D1*
X1608369Y2499972D1*
X1601274Y2498269D1*
X1594000Y2497697D1*
X1586726Y2498269D1*
X1578600Y2500353D1*
X1578614Y2457501D1*
X1594614Y2452390D1*
X1921058Y2452285D1*
X1926327Y2451450D1*
X1931402Y2449802D1*
X1936155Y2447379D1*
X1940471Y2444244D1*
X1965114Y2419748D1*
X2177387Y2424936D2*
X2184866Y2426671D1*
X2194000Y2427390D1*
X2203134Y2426671D1*
X2212043Y2424531D1*
X2220508Y2421026D1*
X2228320Y2416239D1*
X2235287Y2410287D1*
X2241239Y2403320D1*
X2243987Y2399150D1*
X2249600Y2406921D1*
X2256079Y2413400D1*
X2260022Y2416467D1*
X2260000Y2514752D1*
X2177354Y2432062D1*
X2843987Y2338850D2*
X2838400Y2331079D1*
X2831921Y2324600D1*
X2824509Y2319214D1*
X2816345Y2315055D1*
X2807631Y2312223D1*
X2798581Y2310790D1*
X2789419D1*
X2780369Y2312223D1*
X2771655Y2315055D1*
X2763491Y2319214D1*
X2756079Y2324600D1*
X2749600Y2331079D1*
X2744214Y2338491D1*
X2740055Y2346655D1*
X2737223Y2355369D1*
X2735790Y2364419D1*
Y2373581D1*
X2737223Y2382631D1*
X2740055Y2391345D1*
X2744214Y2399509D1*
X2749600Y2406921D1*
X2756079Y2413400D1*
X2763491Y2418786D1*
X2771655Y2422945D1*
X2780369Y2425777D1*
X2789419Y2427210D1*
X2798581D1*
X2807631Y2425777D1*
X2816345Y2422945D1*
X2824509Y2418786D1*
X2831921Y2413400D1*
X2838400Y2406921D1*
X2843987Y2399150D1*
X2849600Y2406921D1*
X2856079Y2413400D1*
X2863491Y2418786D1*
X2871655Y2422945D1*
X2880369Y2425777D1*
X2889419Y2427210D1*
X2898581D1*
X2907631Y2425777D1*
X2916345Y2422945D1*
X2924509Y2418786D1*
X2931921Y2413400D1*
X2938400Y2406921D1*
X2943786Y2399509D1*
X2947945Y2391345D1*
X2950777Y2382631D1*
X2952210Y2373581D1*
Y2364419D1*
X2950777Y2355369D1*
X2947945Y2346655D1*
X2943786Y2338491D1*
X2938400Y2331079D1*
X2931921Y2324600D1*
X2924509Y2319214D1*
X2916345Y2315055D1*
X2907631Y2312223D1*
X2898581Y2310790D1*
X2889419D1*
X2880369Y2312223D1*
X2871655Y2315055D1*
X2863491Y2319214D1*
X2856079Y2324600D1*
X2849600Y2331079D1*
X2844013Y2338850D1*
X527638Y3619319D2*
X666563D1*
Y3488215D1*
X671160Y3492021D1*
X677382Y3495833D1*
X684123Y3498626D1*
X691218Y3500329D1*
X698492Y3500902D1*
X705766Y3500329D1*
X712861Y3498626D1*
X719602Y3495833D1*
X725824Y3492021D1*
X731373Y3487282D1*
X736112Y3481734D1*
X739924Y3475512D1*
X742672Y3468891D1*
X928982Y3282421D1*
X932810Y3277152D1*
X935766Y3271350D1*
X937778Y3265156D1*
X938798Y3258724D1*
X938925Y3192969D1*
Y2789795D1*
X941650Y2783172D1*
X943353Y2776077D1*
X943925Y2768803D1*
X943353Y2761529D1*
X941650Y2754434D1*
X938857Y2747693D1*
X935045Y2741471D1*
X930306Y2735923D1*
X924757Y2731184D1*
X918535Y2727371D1*
X911794Y2724579D1*
X904699Y2722875D1*
X897425Y2722303D1*
X890151Y2722875D1*
X883056Y2724579D1*
X876432Y2727318D1*
X729017Y2727303D1*
X994997Y2461299D1*
X995127Y2727327D1*
X996147Y2733759D1*
X998159Y2739953D1*
X1001115Y2745755D1*
X1004944Y2751024D1*
X1051349Y2797610D1*
X1064573Y2810833D1*
X1064528Y3082514D1*
X1061803Y3089100D1*
X1060100Y3096194D1*
X1059528Y3103469D1*
X1060100Y3110743D1*
X1061803Y3117837D1*
X1064542Y3124462D1*
X1064308Y3291789D1*
X1059570Y3297337D1*
X1055757Y3303559D1*
X1052965Y3310301D1*
X1051261Y3317395D1*
X1050689Y3324669D1*
X1051261Y3331944D1*
X1052965Y3339038D1*
X1055703Y3345663D1*
X1055816Y3631075D1*
X1056836Y3637507D1*
X1058848Y3643701D1*
X1061804Y3649503D1*
X1065633Y3654772D1*
X1070236Y3659375D1*
X1075505Y3663203D1*
X1081307Y3666160D1*
X1087501Y3668172D1*
X1093933Y3669192D1*
X1159689Y3669319D1*
X1887846Y3669192D1*
X1894278Y3668172D1*
X1900472Y3666160D1*
X1906274Y3663203D1*
X1911543Y3659375D1*
X1953399Y3617699D1*
X1962862Y3619085D1*
X1974744D1*
X1986478Y3617227D1*
X1997777Y3613555D1*
X2008364Y3608161D1*
X2011510Y3606059D1*
X2011621Y3682987D1*
X2012455Y3688256D1*
X2014104Y3693331D1*
X2016526Y3698084D1*
X2019661Y3702400D1*
X2029726Y3712613D1*
X481421Y3706423D1*
X469077Y1731412D1*
X670845Y1730815D1*
X670951Y1959168D1*
X671786Y1964437D1*
X673434Y1969512D1*
X675857Y1974265D1*
X678992Y1978581D1*
X682765Y1982354D1*
X687081Y1985490D1*
X690198Y1987223D1*
X686886Y1993724D1*
X684631Y2000664D1*
X683490Y2007871D1*
Y2015168D1*
X684631Y2022375D1*
X686886Y2029315D1*
X690198Y2035816D1*
X694488Y2041719D1*
X699647Y2046878D1*
X705550Y2051168D1*
X712051Y2054480D1*
X718991Y2056735D1*
X726198Y2057877D1*
X728207Y2057955D1*
X768194Y2097951D1*
X654615Y2097972D1*
X654507Y1842665D1*
X653487Y1836234D1*
X651475Y1830039D1*
X648518Y1824238D1*
X644690Y1818969D1*
X614685Y1788782D1*
X611967Y1782213D1*
X608155Y1775991D1*
X603416Y1770442D1*
X597867Y1765703D1*
X591646Y1761891D1*
X584904Y1759098D1*
X577810Y1757395D1*
X570535Y1756823D1*
X563261Y1757395D1*
X556167Y1759098D1*
X549425Y1761891D1*
X543203Y1765703D1*
X537655Y1770442D1*
X532916Y1775991D1*
X529104Y1782213D1*
X526311Y1788954D1*
X524608Y1796049D1*
X524035Y1803323D1*
X524608Y1810597D1*
X526311Y1817692D1*
X529104Y1824433D1*
X532916Y1830655D1*
X537655Y1836203D1*
X543203Y1840942D1*
X549425Y1844755D1*
X556046Y1847503D1*
X571677Y1863155D1*
X571634Y2118529D1*
X568909Y2125104D1*
X567206Y2132198D1*
X566634Y2139472D1*
X567206Y2146747D1*
X568909Y2153841D1*
X571702Y2160583D1*
X575514Y2166804D1*
X580253Y2172353D1*
X585802Y2177092D1*
X592024Y2180904D1*
X598765Y2183697D1*
X605860Y2185400D1*
X613134Y2185972D1*
X620408Y2185400D1*
X627503Y2183697D1*
X634127Y2180958D1*
X933789Y2180972D1*
X837270Y2277512D1*
X634112Y2277500D1*
X627503Y2274776D1*
X620408Y2273072D1*
X613134Y2272500D1*
X605860Y2273072D1*
X598765Y2274776D1*
X592024Y2277568D1*
X585802Y2281381D1*
X580253Y2286119D1*
X575514Y2291668D1*
X571702Y2297890D1*
X568909Y2304631D1*
X567206Y2311726D1*
X566634Y2319000D1*
X567206Y2326274D1*
X568909Y2333369D1*
X571601Y2339890D1*
X571329Y2447954D1*
X568600Y2454510D1*
X521223Y2502047D1*
X517395Y2507316D1*
X514438Y2513118D1*
X512427Y2519312D1*
X511407Y2525744D1*
X511280Y2591500D1*
X511407Y2772059D1*
X512427Y2778491D1*
X514438Y2784685D1*
X517395Y2790487D1*
X521223Y2795756D1*
X525827Y2800360D1*
X531096Y2804188D1*
X536898Y2807144D1*
X543092Y2809156D1*
X549524Y2810176D1*
X615280Y2810303D1*
X855953D1*
X855925Y3238286D1*
X683949Y3410255D1*
X677382Y3412970D1*
X671160Y3416782D1*
X665612Y3421521D1*
X660873Y3427070D1*
X657060Y3433291D1*
X654268Y3440033D1*
X652564Y3447127D1*
X651992Y3454402D1*
X652564Y3461676D1*
X654024Y3467906D1*
X515138Y3467894D1*
Y3619319D1*
X527638D1*
X863180Y3537665D2*
X861322Y3525932D1*
X857650Y3514633D1*
X852256Y3504046D1*
X845273Y3494434D1*
X836873Y3486034D1*
X827261Y3479051D1*
X816675Y3473657D1*
X805375Y3469986D1*
X793642Y3468127D1*
X781760D1*
X770026Y3469986D1*
X758727Y3473657D1*
X748140Y3479051D1*
X738529Y3486034D1*
X730129Y3494434D1*
X723146Y3504046D1*
X717752Y3514633D1*
X714080Y3525932D1*
X712222Y3537665D1*
Y3549547D1*
X714080Y3561281D1*
X717752Y3572580D1*
X723146Y3583167D1*
X730129Y3592778D1*
X738529Y3601178D1*
X748140Y3608161D1*
X758727Y3613555D1*
X770026Y3617227D1*
X781760Y3619085D1*
X793642D1*
X805375Y3617227D1*
X816675Y3613555D1*
X827261Y3608161D1*
X836873Y3601178D1*
X845273Y3592778D1*
X852256Y3583167D1*
X857650Y3572580D1*
X861322Y3561281D1*
X863180Y3549547D1*
Y3537665D1*
X1257114Y3586360D2*
Y3467894D1*
X1215366D1*
X1215297Y3432974D1*
X1214462Y3427705D1*
X1212814Y3422630D1*
X1210391Y3417877D1*
X1207256Y3413560D1*
X1197882Y3404039D1*
X1197902Y3300710D1*
X1203550Y3293297D1*
X1206862Y3286795D1*
X1209117Y3279856D1*
X1210259Y3272648D1*
Y3265352D1*
X1209117Y3258144D1*
X1206862Y3251205D1*
X1203550Y3244703D1*
X1199260Y3238801D1*
X1197895Y3237324D1*
X1197919Y3181524D1*
X1199164Y3186711D1*
X1201206Y3191640D1*
X1203993Y3196189D1*
X1207458Y3200247D1*
X1277789Y3270577D1*
X1279080Y3279856D1*
X1281335Y3286795D1*
X1284647Y3293297D1*
X1288937Y3299199D1*
X1294096Y3304358D1*
X1299999Y3308648D1*
X1306500Y3311961D1*
X1313440Y3314215D1*
X1320647Y3315357D1*
X1322656Y3315436D1*
X1344276Y3337063D1*
X1344252Y3475936D1*
X1333749Y3482353D1*
X1324715Y3490070D1*
X1316999Y3499104D1*
X1310791Y3509234D1*
X1306245Y3520210D1*
X1303471Y3531762D1*
X1302539Y3543606D1*
X1303471Y3555450D1*
X1306245Y3567003D1*
X1310791Y3577979D1*
X1315799Y3586314D1*
X1257100Y3586319D1*
X2241133Y3537665D2*
X2239274Y3525932D1*
X2235602Y3514633D1*
X2230209Y3504046D1*
X2227513Y3500010D1*
X2236189Y3497358D1*
X2242690Y3494046D1*
X2248593Y3489756D1*
X2253752Y3484597D1*
X2258042Y3478694D1*
X2261354Y3472193D1*
X2263609Y3465253D1*
X2264751Y3458046D1*
Y3450749D1*
X2263609Y3443542D1*
X2261354Y3436602D1*
X2258042Y3430101D1*
X2253752Y3424198D1*
X2252387Y3422722D1*
X2252394Y3214407D1*
X2260589Y3215436D1*
X2309415Y3264270D1*
X2309390Y3399136D1*
X2305770Y3403479D1*
X2301958Y3409701D1*
X2299165Y3416442D1*
X2297462Y3423537D1*
X2296890Y3430811D1*
X2297462Y3438085D1*
X2299165Y3445180D1*
X2301958Y3451921D1*
X2305770Y3458143D1*
X2310509Y3463692D1*
X2316058Y3468430D1*
X2322280Y3472243D1*
X2329021Y3475035D1*
X2336115Y3476739D1*
X2343390Y3477311D1*
X2350664Y3476739D1*
X2357759Y3475035D1*
X2364500Y3472243D1*
X2369476Y3469262D1*
X2369469Y3611823D1*
X2366744Y3618450D1*
X2365041Y3625545D1*
X2364469Y3632819D1*
X2365041Y3640093D1*
X2366744Y3647188D1*
X2369537Y3653929D1*
X2373349Y3660151D1*
X2378088Y3665699D1*
X2384976Y3671333D1*
X2084580Y3671319D1*
X2079516Y3655319D1*
X2079631Y3450724D1*
X2086726Y3452428D1*
X2094000Y3453000D1*
X2101274Y3452428D1*
X2108369Y3450724D1*
X2115110Y3447932D1*
X2121332Y3444119D1*
X2126881Y3439381D1*
X2131659Y3433773D1*
X2131654Y3475959D1*
X2121151Y3482353D1*
X2112117Y3490070D1*
X2104400Y3499104D1*
X2098193Y3509234D1*
X2093647Y3520210D1*
X2090873Y3531762D1*
X2089941Y3543606D1*
X2090873Y3555450D1*
X2093647Y3567003D1*
X2098193Y3577979D1*
X2104400Y3588109D1*
X2112117Y3597143D1*
X2121151Y3604860D1*
X2131281Y3611067D1*
X2142257Y3615613D1*
X2153810Y3618387D1*
X2165654Y3619319D1*
X2177497Y3618387D1*
X2189050Y3615613D1*
X2200026Y3611067D1*
X2210156Y3604860D1*
X2219190Y3597143D1*
X2226907Y3588109D1*
X2233114Y3577979D1*
X2237660Y3567003D1*
X2240434Y3555450D1*
X2241366Y3543606D1*
X2241133Y3537665D1*
X3146186Y2076409D2*
X3144593Y2066353D1*
X3141446Y2056669D1*
X3137942Y2049594D1*
X3247727Y2049614D1*
X3252795Y2065614D1*
Y2206386D1*
X3245647Y2206423D1*
X3238440Y2207564D1*
X3231500Y2209819D1*
X3224999Y2213131D1*
X3219096Y2217421D1*
X3213937Y2222580D1*
X3209647Y2228483D1*
X3206335Y2234984D1*
X3204080Y2241924D1*
X3202938Y2249131D1*
Y2256428D1*
X3204080Y2263635D1*
X3206335Y2270575D1*
X3209647Y2277076D1*
X3213937Y2282979D1*
X3215302Y2284455D1*
X3215295Y2374801D1*
X3211676Y2379168D1*
X3207864Y2385390D1*
X3205071Y2392131D1*
X3203367Y2399226D1*
X3202795Y2406500D1*
X3203367Y2413774D1*
X3205071Y2420869D1*
X3207093Y2425940D1*
X3134923Y2498092D1*
X3125644Y2499383D1*
X3122996Y2500130D1*
X3123000Y2131353D1*
X3130840Y2123640D1*
X3136824Y2115403D1*
X3141446Y2106331D1*
X3144593Y2096647D1*
X3146186Y2086591D1*
Y2076409D1*
X2160862Y2795921D2*
X2159352Y2797314D1*
X2158346Y2793434D1*
X2160867Y2795954D1*
X2153528Y2797307D1*
X2058948D1*
X2061336Y2791814D1*
X2062581Y2786626D1*
X2063000Y2781307D1*
Y2694930D1*
X2066493Y2700988D1*
X2069958Y2705046D1*
X2158346Y2793434D1*
X659136Y2465352D2*
X657995Y2458144D1*
X655740Y2451205D1*
X654312Y2448110D1*
X654537Y2360455D1*
X684819Y2360693D1*
X682564Y2367633D1*
X681423Y2374840D1*
Y2382136D1*
X682564Y2389344D1*
X684819Y2396283D1*
X688131Y2402785D1*
X692421Y2408688D1*
X697580Y2413846D1*
X703483Y2418136D1*
X709984Y2421449D1*
X716924Y2423703D1*
X724131Y2424845D1*
X731428D1*
X738635Y2423703D1*
X745575Y2421449D1*
X752076Y2418136D1*
X757979Y2413846D1*
X759455Y2412482D1*
X806051Y2412488D1*
X813483Y2418136D1*
X819984Y2421449D1*
X826924Y2423703D1*
X834131Y2424845D1*
X841428D1*
X848635Y2423703D1*
X855575Y2421449D1*
X862076Y2418136D1*
X867979Y2413846D1*
X873138Y2408688D1*
X877428Y2402785D1*
X880740Y2396283D1*
X882995Y2389344D1*
X884136Y2382136D1*
Y2374840D1*
X882995Y2367633D1*
X880740Y2360693D1*
X877134Y2353753D1*
X883818Y2348345D1*
X993509Y2238654D1*
X995000Y2239472D1*
Y2371650D1*
X988774Y2370178D1*
X981500Y2369606D1*
X974226Y2370178D1*
X967131Y2371882D1*
X960390Y2374675D1*
X954168Y2378487D1*
X948619Y2383226D1*
X943881Y2388774D1*
X940068Y2394996D1*
X937320Y2401617D1*
X681570Y2657346D1*
X628727Y2657311D1*
X622148Y2654587D1*
X615054Y2652883D1*
X607780Y2652311D1*
X600505Y2652883D1*
X594276Y2654343D1*
X594280Y2546196D1*
X627320Y2513150D1*
X633890Y2510432D1*
X640112Y2506619D1*
X645660Y2501881D1*
X650399Y2496332D1*
X654211Y2490110D1*
X657004Y2483369D1*
X658707Y2476274D1*
X659280Y2469000D1*
X659136Y2465352D1*
X2868408Y2685853D2*
X2867900Y2680218D1*
X2866197Y2673123D1*
X2863404Y2666382D1*
X2859592Y2660160D1*
X2854853Y2654612D1*
X2849304Y2649873D1*
X2843083Y2646060D1*
X2836341Y2643268D1*
X2829247Y2641564D1*
X2821972Y2640992D1*
X2814698Y2641564D1*
X2807604Y2643268D1*
X2802378Y2645362D1*
X2802285Y2629430D1*
X2801450Y2624161D1*
X2799802Y2619087D1*
X2798496Y2616325D1*
X2844000Y2616098D1*
X2941803D1*
X2946890Y2632098D1*
Y2764374D1*
X2868444Y2685879D1*
X3713180Y2615030D2*
X3708836Y2611404D1*
X3703349Y2608003D1*
X4023958Y2608020D1*
X4028322Y2611639D1*
X4033808Y2615041D1*
X3713182Y2615024D1*
X2465493Y2512566D2*
X2470442Y2506241D1*
X2512311Y2548119D1*
X2470587Y2548098D1*
X2465500Y2532098D1*
Y2512615D1*
X4102010Y2570371D2*
X4100869Y2563164D1*
X4099270Y2558004D1*
X4138928Y2558024D1*
X4146357Y2563672D1*
X4152858Y2566984D1*
X4159798Y2569239D1*
X4167005Y2570381D1*
X4174302D1*
X4181509Y2569239D1*
X4188449Y2566984D1*
X4194950Y2563672D1*
X4199161Y2560715D1*
X4199154Y2609912D1*
X4183154Y2615024D1*
X4077538D1*
X4082986Y2611639D1*
X4088534Y2606900D1*
X4093273Y2601352D1*
X4097085Y2595130D1*
X4099878Y2588388D1*
X4101581Y2581294D1*
X4102154Y2574020D1*
X4102010Y2570371D1*
X1196604Y1849759D2*
X1202239Y1849251D1*
X1209333Y1847547D1*
X1216075Y1844755D1*
X1222297Y1840942D1*
X1227845Y1836203D1*
X1232584Y1830655D1*
X1236396Y1824433D1*
X1239189Y1817692D1*
X1240892Y1810597D1*
X1241465Y1803323D1*
X1241327Y1799803D1*
X1608247Y1799823D1*
X1615668Y1805471D1*
X1622169Y1808783D1*
X1629109Y1811038D1*
X1636316Y1812180D1*
X1638325Y1812259D1*
X1834995Y2008937D1*
X1835000Y2105357D1*
X1828000Y2106457D1*
X1827581Y2096634D1*
X1826336Y2091446D1*
X1824294Y2086517D1*
X1821507Y2081969D1*
X1818042Y2077911D1*
X1608129Y1868146D1*
X1603812Y1865010D1*
X1599059Y1862588D1*
X1593984Y1860940D1*
X1588715Y1860105D1*
X1486047Y1860000D1*
X1186388D1*
X1196594Y1849777D1*
X774022Y1885007D2*
X769678Y1881381D1*
X763457Y1877568D1*
X756715Y1874776D1*
X749621Y1873072D1*
X742346Y1872500D1*
X738827Y1872638D1*
X738846Y1733112D1*
X744038Y1730581D1*
X1612903Y1728000D1*
X1608289Y1731829D1*
X1028675Y1731928D1*
X1023406Y1732762D1*
X1018331Y1734411D1*
X1013577Y1736833D1*
X1009261Y1739969D1*
X936591Y1812492D1*
X931446Y1817636D1*
X922180Y1818915D1*
X915240Y1821169D1*
X908739Y1824482D1*
X902836Y1828772D1*
X897677Y1833930D1*
X893387Y1839833D1*
X890075Y1846335D1*
X887820Y1853274D1*
X886678Y1860482D1*
Y1867778D1*
X887820Y1874986D1*
X890075Y1881925D1*
X891503Y1885020D1*
X774029Y1885000D1*
X974568Y1885020D2*
X977260Y1878499D1*
X978963Y1871404D1*
X979471Y1865769D1*
X1045430Y1799818D1*
X1148579Y1799823D1*
X1144407Y1805798D1*
X1105646Y1844706D1*
X1102510Y1849022D1*
X1100088Y1853776D1*
X1098440Y1858850D1*
X1097605Y1864119D1*
X1097500Y1879923D1*
X1081500Y1885000D1*
X974615D1*
X2128014Y2478888D2*
X2234425Y2585301D1*
X2234390Y2773281D1*
X2127978Y2666899D1*
X2128000Y2478904D1*
D35*
X1394000Y2969000D3*
D36*
X1494000D3*
X1594000D3*
X1694000D3*
X1794000D3*
X1894000D3*
X1994000D3*
X2094000D3*
X2194000D3*
X2294000D3*
X2394000D3*
X2494000D3*
X2594000D3*
X2694000D3*
X2794000D3*
X2894000D3*
D35*
X1394000Y2369000D3*
D36*
X1494000D3*
X1594000D3*
X1694000D3*
X1794000D3*
X1894000D3*
X1994000D3*
X2094000D3*
X2194000D3*
X2294000D3*
X2394000D3*
X2494000D3*
X2594000D3*
X2694000D3*
X2794000D3*
X2894000D3*
D37*
X590850Y3543606D3*
D38*
X787701D3*
X984551D3*
D37*
X1181402D3*
D38*
X1378252D3*
X1575102D3*
D37*
X1771953D3*
D38*
X1968803D3*
X2165654D3*
D37*
X2665654D3*
D38*
X2862504D3*
X3059354D3*
D37*
X3256205D3*
D38*
X3453055D3*
X3649906D3*
D37*
X3846756D3*
D38*
X4043606D3*
X4240457D3*
D37*
X984551Y661717D3*
D38*
X787701D3*
X590850D3*
D37*
X1575102D3*
D38*
X1378252D3*
X1181402D3*
D37*
X2165654D3*
D38*
X1968803D3*
X1771953D3*
D37*
X3059354D3*
D38*
X2862504D3*
X2665654D3*
D37*
X3649906D3*
D38*
X3453055D3*
X3256205D3*
D37*
X4240457D3*
D38*
X4043606D3*
X3846756D3*
D39*
X3081500Y2081500D3*
D40*
X2781500D3*
D39*
X3081500Y1337406D3*
X2781500Y1211421D3*
X3081500Y1085437D3*
X3656500Y2081500D3*
D40*
X3356500D3*
D39*
X3656500Y1337406D3*
X3356500Y1211421D3*
X3656500Y1085437D3*
X4231500Y2069000D3*
D40*
X3931500D3*
D39*
X4231500Y1324906D3*
X3931500Y1198921D3*
X4231500Y1072937D3*
X3244000Y3094000D3*
D40*
Y2794000D3*
D39*
X3988094Y3094000D3*
X4114079Y2794000D3*
X4240063Y3094000D3*
X444000Y1656500D2*
D101*
X4381500D1*
Y469000D1*
X444000D1*
Y1656500D1*
X3719000Y3756500D2*
X4356500D1*
Y2706500D1*
X3719000D1*
Y3756500D1*
M02*
