G04 DipTrace 3.3.1.2*
G04 BottomSilk.gbr*
%MOIN*%
G04 #@! TF.FileFunction,Legend,Bot*
G04 #@! TF.Part,Single*
%ADD22C,0.01*%
%ADD97C,0.015439*%
%FSLAX26Y26*%
G04*
G70*
G90*
G75*
G01*
G04 BotSilk*
%LPD*%
X2081200Y3656200D2*
D22*
X3156200D1*
Y2956200D1*
X2081200D1*
Y3656200D1*
X705187Y710768D2*
D97*
X695571Y715632D1*
X681200Y729891D1*
Y629522D1*
X1118323Y731015D2*
Y735768D1*
X1113570Y745385D1*
X1108817Y750138D1*
X1099200Y754891D1*
X1080077D1*
X1070571Y750138D1*
X1065817Y745385D1*
X1060954Y735768D1*
Y726262D1*
X1065817Y716645D1*
X1075324Y702385D1*
X1123187Y654522D1*
X1056200D1*
X1501070Y742391D2*
X1448564D1*
X1477194Y704145D1*
X1462824D1*
X1453317Y699392D1*
X1448564Y694638D1*
X1443700Y680268D1*
Y670762D1*
X1448564Y656392D1*
X1458071Y646775D1*
X1472441Y642022D1*
X1486811D1*
X1501070Y646775D1*
X1505823Y651639D1*
X1510687Y661145D1*
X1855077Y642022D2*
Y742391D1*
X1902940Y675515D1*
X1831200D1*
X1808109Y918515D2*
Y923268D1*
X1803356Y932885D1*
X1798603Y937638D1*
X1788986Y942391D1*
X1769863D1*
X1760356Y937638D1*
X1755603Y932885D1*
X1750739Y923268D1*
Y913762D1*
X1755603Y904145D1*
X1765109Y889885D1*
X1812973Y842022D1*
X1745986D1*
X1710244Y918515D2*
Y923268D1*
X1705491Y932885D1*
X1700737Y937638D1*
X1691121Y942391D1*
X1671997D1*
X1662491Y937638D1*
X1657738Y932885D1*
X1652874Y923268D1*
Y913762D1*
X1657738Y904145D1*
X1667244Y889885D1*
X1715108Y842022D1*
X1648121D1*
X1588502Y942391D2*
X1602872Y937638D1*
X1612489Y923268D1*
X1617242Y899392D1*
Y885021D1*
X1612489Y861145D1*
X1602872Y846775D1*
X1588502Y842022D1*
X1578996D1*
X1564626Y846775D1*
X1555119Y861145D1*
X1550256Y885021D1*
Y899392D1*
X1555119Y923268D1*
X1564626Y937638D1*
X1578996Y942391D1*
X1588502D1*
X1555119Y923268D2*
X1612489Y861145D1*
X1519377Y942502D2*
X1481131Y842022D1*
X1442884Y942502D1*
X1262187Y894638D2*
X1266940Y904255D1*
X1281310Y909008D1*
X1295681D1*
X1310051Y904255D1*
X1314804Y894638D1*
X1310051Y885132D1*
X1300434Y880268D1*
X1276557Y875515D1*
X1266940Y870762D1*
X1262187Y861145D1*
Y856392D1*
X1266940Y846885D1*
X1281310Y842022D1*
X1295681D1*
X1310051Y846885D1*
X1314804Y856392D1*
X1231309Y880268D2*
X1173939D1*
Y889885D1*
X1178692Y899502D1*
X1183445Y904255D1*
X1193062Y909008D1*
X1207432D1*
X1216939Y904255D1*
X1226556Y894638D1*
X1231309Y880268D1*
Y870762D1*
X1226556Y856392D1*
X1216939Y846885D1*
X1207432Y842022D1*
X1193062D1*
X1183445Y846885D1*
X1173939Y856392D1*
X1143060Y909008D2*
Y842022D1*
Y889885D2*
X1128690Y904255D1*
X1119073Y909008D1*
X1104814D1*
X1095197Y904255D1*
X1090444Y889885D1*
Y842022D1*
X1006949Y894638D2*
X1011702Y904255D1*
X1026072Y909008D1*
X1040442D1*
X1054812Y904255D1*
X1059565Y894638D1*
X1054812Y885132D1*
X1045195Y880268D1*
X1021319Y875515D1*
X1011702Y870762D1*
X1006949Y861145D1*
Y856392D1*
X1011702Y846885D1*
X1026072Y842022D1*
X1040442D1*
X1054812Y846885D1*
X1059565Y856392D1*
X976070Y880268D2*
X918700D1*
Y889885D1*
X923454Y899502D1*
X928207Y904255D1*
X937824Y909008D1*
X952194D1*
X961700Y904255D1*
X971317Y894638D1*
X976070Y880268D1*
Y870762D1*
X971317Y856392D1*
X961700Y846885D1*
X952194Y842022D1*
X937824D1*
X928207Y846885D1*
X918700Y856392D1*
X2890553Y1682138D2*
X2847553D1*
X2833183Y1687002D1*
X2828319Y1691755D1*
X2823566Y1701262D1*
Y1710879D1*
X2828319Y1720385D1*
X2833183Y1725249D1*
X2847553Y1730002D1*
X2890553D1*
Y1629522D1*
X2857059Y1682138D2*
X2823566Y1629522D1*
X2792687Y1710768D2*
X2783071Y1715632D1*
X2768700Y1729891D1*
Y1629522D1*
X3596052Y1682138D2*
X3553053D1*
X3538683Y1687002D1*
X3533819Y1691755D1*
X3529066Y1701262D1*
Y1710879D1*
X3533819Y1720385D1*
X3538683Y1725249D1*
X3553053Y1730002D1*
X3596052D1*
Y1629522D1*
X3562559Y1682138D2*
X3529066Y1629522D1*
X3493323Y1706015D2*
Y1710768D1*
X3488570Y1720385D1*
X3483817Y1725138D1*
X3474200Y1729891D1*
X3455077D1*
X3445571Y1725138D1*
X3440817Y1720385D1*
X3435954Y1710768D1*
Y1701262D1*
X3440817Y1691645D1*
X3450324Y1677385D1*
X3498187Y1629522D1*
X3431200D1*
X4171052Y1682138D2*
X4128053D1*
X4113683Y1687002D1*
X4108819Y1691755D1*
X4104066Y1701262D1*
Y1710879D1*
X4108819Y1720385D1*
X4113683Y1725249D1*
X4128053Y1730002D1*
X4171052D1*
Y1629522D1*
X4137559Y1682138D2*
X4104066Y1629522D1*
X4063570Y1729891D2*
X4011064D1*
X4039694Y1691645D1*
X4025324D1*
X4015817Y1686892D1*
X4011064Y1682138D1*
X4006200Y1667768D1*
Y1658262D1*
X4011064Y1643892D1*
X4020571Y1634275D1*
X4034941Y1629522D1*
X4049311D1*
X4063570Y1634275D1*
X4068323Y1639139D1*
X4073187Y1648645D1*
X4138305Y2594638D2*
X4095306D1*
X4080936Y2599502D1*
X4076072Y2604255D1*
X4071319Y2613762D1*
Y2623379D1*
X4076072Y2632885D1*
X4080936Y2637749D1*
X4095306Y2642502D1*
X4138305D1*
Y2542022D1*
X4104812Y2594638D2*
X4071319Y2542022D1*
X3992577D2*
Y2642391D1*
X4040440Y2575515D1*
X3968700D1*
M02*
