%TF.GenerationSoftware,Novarm,DipTrace,3.1.0.1*%
%TF.CreationDate,2017-07-10T16:32:20+02:00*%
%FSLAX26Y26*%
%MOIN*%
%TF.FileFunction,Legend,Bot*%
%TF.Part,Single*%
%ADD22C,0.01*%
%ADD121C,0.015439*%
G75*
G01*
%LPD*%
X2081500Y3656500D2*
D22*
X3156500D1*
Y2956500D1*
X2081500D1*
Y3656500D1*
X705487Y711068D2*
D121*
X695871Y715932D1*
X681500Y730191D1*
Y629822D1*
X1118623Y731315D2*
Y736068D1*
X1113870Y745685D1*
X1109117Y750438D1*
X1099500Y755191D1*
X1080377D1*
X1070871Y750438D1*
X1066117Y745685D1*
X1061254Y736068D1*
Y726562D1*
X1066117Y716945D1*
X1075624Y702685D1*
X1123487Y654822D1*
X1056500D1*
X1501370Y742691D2*
X1448864D1*
X1477494Y704445D1*
X1463124D1*
X1453617Y699692D1*
X1448864Y694938D1*
X1444000Y680568D1*
Y671062D1*
X1448864Y656692D1*
X1458371Y647075D1*
X1472741Y642322D1*
X1487111D1*
X1501370Y647075D1*
X1506123Y651939D1*
X1510987Y661445D1*
X1855377Y642322D2*
Y742691D1*
X1903240Y675815D1*
X1831500D1*
X1808409Y918815D2*
Y923568D1*
X1803656Y933185D1*
X1798903Y937938D1*
X1789286Y942691D1*
X1770163D1*
X1760656Y937938D1*
X1755903Y933185D1*
X1751039Y923568D1*
Y914062D1*
X1755903Y904445D1*
X1765409Y890185D1*
X1813273Y842322D1*
X1746286D1*
X1710544Y918815D2*
Y923568D1*
X1705791Y933185D1*
X1701037Y937938D1*
X1691421Y942691D1*
X1672297D1*
X1662791Y937938D1*
X1658038Y933185D1*
X1653174Y923568D1*
Y914062D1*
X1658038Y904445D1*
X1667544Y890185D1*
X1715408Y842322D1*
X1648421D1*
X1588802Y942691D2*
X1603172Y937938D1*
X1612789Y923568D1*
X1617542Y899692D1*
Y885321D1*
X1612789Y861445D1*
X1603172Y847075D1*
X1588802Y842322D1*
X1579296D1*
X1564926Y847075D1*
X1555419Y861445D1*
X1550556Y885321D1*
Y899692D1*
X1555419Y923568D1*
X1564926Y937938D1*
X1579296Y942691D1*
X1588802D1*
X1555419Y923568D2*
X1612789Y861445D1*
X1519677Y942802D2*
X1481431Y842322D1*
X1443184Y942802D1*
X1262487Y894938D2*
X1267240Y904555D1*
X1281610Y909308D1*
X1295981D1*
X1310351Y904555D1*
X1315104Y894938D1*
X1310351Y885432D1*
X1300734Y880568D1*
X1276857Y875815D1*
X1267240Y871062D1*
X1262487Y861445D1*
Y856692D1*
X1267240Y847185D1*
X1281610Y842322D1*
X1295981D1*
X1310351Y847185D1*
X1315104Y856692D1*
X1231609Y880568D2*
X1174239D1*
Y890185D1*
X1178992Y899802D1*
X1183745Y904555D1*
X1193362Y909308D1*
X1207732D1*
X1217239Y904555D1*
X1226856Y894938D1*
X1231609Y880568D1*
Y871062D1*
X1226856Y856692D1*
X1217239Y847185D1*
X1207732Y842322D1*
X1193362D1*
X1183745Y847185D1*
X1174239Y856692D1*
X1143360Y909308D2*
Y842322D1*
Y890185D2*
X1128990Y904555D1*
X1119373Y909308D1*
X1105114D1*
X1095497Y904555D1*
X1090744Y890185D1*
Y842322D1*
X1007249Y894938D2*
X1012002Y904555D1*
X1026372Y909308D1*
X1040742D1*
X1055112Y904555D1*
X1059865Y894938D1*
X1055112Y885432D1*
X1045495Y880568D1*
X1021619Y875815D1*
X1012002Y871062D1*
X1007249Y861445D1*
Y856692D1*
X1012002Y847185D1*
X1026372Y842322D1*
X1040742D1*
X1055112Y847185D1*
X1059865Y856692D1*
X976370Y880568D2*
X919000D1*
Y890185D1*
X923754Y899802D1*
X928507Y904555D1*
X938124Y909308D1*
X952494D1*
X962000Y904555D1*
X971617Y894938D1*
X976370Y880568D1*
Y871062D1*
X971617Y856692D1*
X962000Y847185D1*
X952494Y842322D1*
X938124D1*
X928507Y847185D1*
X919000Y856692D1*
X2890853Y1682438D2*
X2847853D1*
X2833483Y1687302D1*
X2828619Y1692055D1*
X2823866Y1701562D1*
Y1711179D1*
X2828619Y1720685D1*
X2833483Y1725549D1*
X2847853Y1730302D1*
X2890853D1*
Y1629822D1*
X2857359Y1682438D2*
X2823866Y1629822D1*
X2792987Y1711068D2*
X2783371Y1715932D1*
X2769000Y1730191D1*
Y1629822D1*
X3596352Y1682438D2*
X3553353D1*
X3538983Y1687302D1*
X3534119Y1692055D1*
X3529366Y1701562D1*
Y1711179D1*
X3534119Y1720685D1*
X3538983Y1725549D1*
X3553353Y1730302D1*
X3596352D1*
Y1629822D1*
X3562859Y1682438D2*
X3529366Y1629822D1*
X3493623Y1706315D2*
Y1711068D1*
X3488870Y1720685D1*
X3484117Y1725438D1*
X3474500Y1730191D1*
X3455377D1*
X3445871Y1725438D1*
X3441117Y1720685D1*
X3436254Y1711068D1*
Y1701562D1*
X3441117Y1691945D1*
X3450624Y1677685D1*
X3498487Y1629822D1*
X3431500D1*
X4171352Y1682438D2*
X4128353D1*
X4113983Y1687302D1*
X4109119Y1692055D1*
X4104366Y1701562D1*
Y1711179D1*
X4109119Y1720685D1*
X4113983Y1725549D1*
X4128353Y1730302D1*
X4171352D1*
Y1629822D1*
X4137859Y1682438D2*
X4104366Y1629822D1*
X4063870Y1730191D2*
X4011364D1*
X4039994Y1691945D1*
X4025624D1*
X4016117Y1687192D1*
X4011364Y1682438D1*
X4006500Y1668068D1*
Y1658562D1*
X4011364Y1644192D1*
X4020871Y1634575D1*
X4035241Y1629822D1*
X4049611D1*
X4063870Y1634575D1*
X4068623Y1639439D1*
X4073487Y1648945D1*
X4138605Y2594938D2*
X4095606D1*
X4081236Y2599802D1*
X4076372Y2604555D1*
X4071619Y2614062D1*
Y2623679D1*
X4076372Y2633185D1*
X4081236Y2638049D1*
X4095606Y2642802D1*
X4138605D1*
Y2542322D1*
X4105112Y2594938D2*
X4071619Y2542322D1*
X3992877D2*
Y2642691D1*
X4040740Y2575815D1*
X3969000D1*
X946635Y3331425D2*
X951388Y3340932D1*
X961005Y3350549D1*
X970511Y3355302D1*
X989634D1*
X999251Y3350549D1*
X1008758Y3340932D1*
X1013621Y3331425D1*
X1018375Y3317055D1*
Y3293068D1*
X1013621Y3278809D1*
X1008758Y3269192D1*
X999251Y3259685D1*
X989634Y3254822D1*
X970511D1*
X961005Y3259685D1*
X951388Y3269192D1*
X946635Y3278809D1*
Y3293068D1*
X970511D1*
X818554Y3302685D2*
X775444D1*
X761184Y3307438D1*
X756321Y3312302D1*
X751568Y3321808D1*
Y3336179D1*
X756321Y3345685D1*
X761184Y3350549D1*
X775444Y3355302D1*
X818554D1*
Y3254822D1*
X623487Y3302685D2*
X580377D1*
X566117Y3307438D1*
X561254Y3312302D1*
X556500Y3321808D1*
Y3336179D1*
X561254Y3345685D1*
X566117Y3350549D1*
X580377Y3355302D1*
X623487D1*
Y3254822D1*
X1042602Y3173568D2*
X1032986Y3178432D1*
X1018616Y3192691D1*
Y3092322D1*
X930367Y3192691D2*
X978120D1*
X982873Y3149692D1*
X978120Y3154445D1*
X963750Y3159308D1*
X949491D1*
X935120Y3154445D1*
X925504Y3144938D1*
X920750Y3130568D1*
Y3121062D1*
X925504Y3106692D1*
X935120Y3097075D1*
X949491Y3092322D1*
X963750D1*
X978120Y3097075D1*
X982873Y3101939D1*
X987737Y3111445D1*
X889872Y3142507D2*
X834602D1*
X794107Y3192691D2*
X741601D1*
X770230Y3154445D1*
X755860D1*
X746354Y3149692D1*
X741601Y3144938D1*
X736737Y3130568D1*
Y3121062D1*
X741601Y3106692D1*
X751107Y3097075D1*
X765477Y3092322D1*
X779847D1*
X794107Y3097075D1*
X798860Y3101939D1*
X803724Y3111445D1*
X677119Y3192691D2*
X691489Y3187938D1*
X701105Y3173568D1*
X705859Y3149692D1*
Y3135321D1*
X701105Y3111445D1*
X691489Y3097075D1*
X677119Y3092322D1*
X667612D1*
X653242Y3097075D1*
X643736Y3111445D1*
X638872Y3135321D1*
Y3149692D1*
X643736Y3173568D1*
X653242Y3187938D1*
X667612Y3192691D1*
X677119D1*
X643736Y3173568D2*
X701105Y3111445D1*
X607993Y3192802D2*
X569747Y3092322D1*
X531500Y3192802D1*
X969967Y2879822D2*
X1008325Y2980302D1*
X1046571Y2879822D1*
X1032201Y2913315D2*
X984338D1*
X867349Y2956425D2*
X872102Y2965932D1*
X881719Y2975549D1*
X891226Y2980302D1*
X910349D1*
X919966Y2975549D1*
X929472Y2965932D1*
X934336Y2956425D1*
X939089Y2942055D1*
Y2918068D1*
X934336Y2903809D1*
X929472Y2894192D1*
X919966Y2884685D1*
X910349Y2879822D1*
X891226D1*
X881719Y2884685D1*
X872102Y2894192D1*
X867349Y2903809D1*
X836471Y2879822D2*
X769484Y2980191D1*
X738605Y2980302D2*
Y2879822D1*
X705112D1*
X690742Y2884685D1*
X681125Y2894192D1*
X676372Y2903809D1*
X671619Y2918068D1*
Y2942055D1*
X676372Y2956425D1*
X681125Y2965932D1*
X690742Y2975549D1*
X705112Y2980302D1*
X738605D1*
X569000Y2956425D2*
X573754Y2965932D1*
X583371Y2975549D1*
X592877Y2980302D1*
X612000D1*
X621617Y2975549D1*
X631123Y2965932D1*
X635987Y2956425D1*
X640740Y2942055D1*
Y2918068D1*
X635987Y2903809D1*
X631123Y2894192D1*
X621617Y2884685D1*
X612000Y2879822D1*
X592877D1*
X583371Y2884685D1*
X573754Y2894192D1*
X569000Y2903809D1*
X1543752Y3343925D2*
X1548505Y3353432D1*
X1558122Y3363049D1*
X1567628Y3367802D1*
X1586751D1*
X1596368Y3363049D1*
X1605875Y3353432D1*
X1610738Y3343925D1*
X1615491Y3329555D1*
Y3305568D1*
X1610738Y3291309D1*
X1605875Y3281692D1*
X1596368Y3272185D1*
X1586751Y3267322D1*
X1567628D1*
X1558122Y3272185D1*
X1548505Y3281692D1*
X1543752Y3291309D1*
Y3305568D1*
X1567628D1*
X1339068Y3267322D2*
X1377425Y3367802D1*
X1415671Y3267322D1*
X1401301Y3300815D2*
X1353438D1*
X1210987Y3367802D2*
Y3267322D1*
X1167877D1*
X1153507Y3272185D1*
X1148754Y3276939D1*
X1144000Y3286445D1*
Y3300815D1*
X1148754Y3310432D1*
X1153507Y3315185D1*
X1167877Y3319938D1*
X1153507Y3324802D1*
X1148754Y3329555D1*
X1144000Y3339062D1*
Y3348679D1*
X1148754Y3358185D1*
X1153507Y3363049D1*
X1167877Y3367802D1*
X1210987D1*
Y3319938D2*
X1167877D1*
X1668238Y3144938D2*
X1625239D1*
X1610869Y3149802D1*
X1606005Y3154555D1*
X1601252Y3164062D1*
Y3173679D1*
X1606005Y3183185D1*
X1610869Y3188049D1*
X1625239Y3192802D1*
X1668238D1*
Y3092322D1*
X1634745Y3144938D2*
X1601252Y3092322D1*
X1503387Y3178432D2*
X1512893Y3188049D1*
X1527263Y3192802D1*
X1546386D1*
X1560756Y3188049D1*
X1570373Y3178432D1*
Y3168925D1*
X1565510Y3159308D1*
X1560756Y3154555D1*
X1551250Y3149802D1*
X1522510Y3140185D1*
X1512893Y3135432D1*
X1508140Y3130568D1*
X1503387Y3121062D1*
Y3106692D1*
X1512893Y3097185D1*
X1527263Y3092322D1*
X1546386D1*
X1560756Y3097185D1*
X1570373Y3106692D1*
X1472508Y3142507D2*
X1417239D1*
X1338497Y3092322D2*
Y3192691D1*
X1386360Y3125815D1*
X1314620D1*
X1259865Y3192691D2*
X1274125Y3187938D1*
X1278989Y3178432D1*
Y3168815D1*
X1274125Y3159308D1*
X1264619Y3154445D1*
X1245495Y3149692D1*
X1231125Y3144938D1*
X1221619Y3135321D1*
X1216866Y3125815D1*
Y3111445D1*
X1221619Y3101939D1*
X1226372Y3097075D1*
X1240742Y3092322D1*
X1259865D1*
X1274125Y3097075D1*
X1278989Y3101939D1*
X1283742Y3111445D1*
Y3125815D1*
X1278989Y3135321D1*
X1269372Y3144938D1*
X1255112Y3149692D1*
X1235989Y3154445D1*
X1226372Y3159308D1*
X1221619Y3168815D1*
Y3178432D1*
X1226372Y3187938D1*
X1240742Y3192691D1*
X1259865D1*
X1128617D2*
X1176370D1*
X1181123Y3149692D1*
X1176370Y3154445D1*
X1162000Y3159308D1*
X1147741D1*
X1133371Y3154445D1*
X1123754Y3144938D1*
X1119000Y3130568D1*
Y3121062D1*
X1123754Y3106692D1*
X1133371Y3097075D1*
X1147741Y3092322D1*
X1162000D1*
X1176370Y3097075D1*
X1181123Y3101939D1*
X1185987Y3111445D1*
X1960726Y3392691D2*
X2008479D1*
X2013232Y3349692D1*
X2008479Y3354445D1*
X1994109Y3359308D1*
X1979849D1*
X1965479Y3354445D1*
X1955862Y3344938D1*
X1951109Y3330568D1*
Y3321062D1*
X1955862Y3306692D1*
X1965479Y3297075D1*
X1979849Y3292322D1*
X1994109D1*
X2008479Y3297075D1*
X2013232Y3301939D1*
X2018096Y3311445D1*
X1920230Y3392802D2*
X1881984Y3292322D1*
X1843737Y3392802D1*
X1812859Y3373568D2*
X1803242Y3378432D1*
X1788872Y3392691D1*
Y3292322D1*
X1757993Y3359308D2*
X1738870Y3292322D1*
X1719747Y3359308D1*
X1700624Y3292322D1*
X1681500Y3359308D1*
X3658011Y3406315D2*
Y3411068D1*
X3653258Y3420685D1*
X3648505Y3425438D1*
X3638888Y3430191D1*
X3619765D1*
X3610258Y3425438D1*
X3605505Y3420685D1*
X3600641Y3411068D1*
Y3401562D1*
X3605505Y3391945D1*
X3615011Y3377685D1*
X3662875Y3329822D1*
X3595888D1*
X3396068Y3406425D2*
X3400821Y3415932D1*
X3410438Y3425549D1*
X3419944Y3430302D1*
X3439068D1*
X3448684Y3425549D1*
X3458191Y3415932D1*
X3463055Y3406425D1*
X3467808Y3392055D1*
Y3368068D1*
X3463055Y3353809D1*
X3458191Y3344192D1*
X3448684Y3334685D1*
X3439068Y3329822D1*
X3419944D1*
X3410438Y3334685D1*
X3400821Y3344192D1*
X3396068Y3353809D1*
Y3368068D1*
X3419944D1*
X3267987Y3411068D2*
X3258371Y3415932D1*
X3244000Y3430191D1*
Y3329822D1*
X3640997Y3217691D2*
X3655367Y3212938D1*
X3664984Y3198568D1*
X3669737Y3174692D1*
Y3160321D1*
X3664984Y3136445D1*
X3655367Y3122075D1*
X3640997Y3117322D1*
X3631491D1*
X3617121Y3122075D1*
X3607614Y3136445D1*
X3602751Y3160321D1*
Y3174692D1*
X3607614Y3198568D1*
X3617121Y3212938D1*
X3631491Y3217691D1*
X3640997D1*
X3607614Y3198568D2*
X3664984Y3136445D1*
X3571872Y3167507D2*
X3516603D1*
X3485724Y3198568D2*
X3476107Y3203432D1*
X3461737Y3217691D1*
Y3117322D1*
X3402119Y3217691D2*
X3416489Y3212938D1*
X3426105Y3198568D1*
X3430859Y3174692D1*
Y3160321D1*
X3426105Y3136445D1*
X3416489Y3122075D1*
X3402119Y3117322D1*
X3392612D1*
X3378242Y3122075D1*
X3368736Y3136445D1*
X3363872Y3160321D1*
Y3174692D1*
X3368736Y3198568D1*
X3378242Y3212938D1*
X3392612Y3217691D1*
X3402119D1*
X3368736Y3198568D2*
X3426105Y3136445D1*
X3332993Y3217802D2*
X3294747Y3117322D1*
X3256500Y3217802D1*
X2622644Y1767802D2*
Y1667322D1*
X2656138Y1767802D2*
X2589151D1*
X2558272D2*
Y1667322D1*
X2500903D1*
X2470024Y1717507D2*
X2414755D1*
X2336013Y1667322D2*
Y1767691D1*
X2383876Y1700815D1*
X2312136D1*
X2281258Y1767802D2*
X2276505Y1763049D1*
X2271641Y1767802D1*
X2276505Y1772665D1*
X2281258Y1767802D1*
X2276505Y1734308D2*
Y1667322D1*
X2216886Y1734308D2*
X2226392Y1729555D1*
X2236009Y1719938D1*
X2240762Y1705568D1*
Y1696062D1*
X2236009Y1681692D1*
X2226392Y1672185D1*
X2216886Y1667322D1*
X2202516D1*
X2192899Y1672185D1*
X2183393Y1681692D1*
X2178529Y1696062D1*
Y1705568D1*
X2183393Y1719938D1*
X2192899Y1729555D1*
X2202516Y1734308D1*
X2216886D1*
X2147650Y1667322D2*
X2080664Y1767691D1*
X2044922Y1743815D2*
Y1748568D1*
X2040168Y1758185D1*
X2035415Y1762938D1*
X2025798Y1767691D1*
X2006675D1*
X1997169Y1762938D1*
X1992415Y1758185D1*
X1987552Y1748568D1*
Y1739062D1*
X1992415Y1729445D1*
X2001922Y1715185D1*
X2049785Y1667322D1*
X1982799D1*
X1894550Y1734308D2*
Y1667322D1*
Y1719938D2*
X1904057Y1729555D1*
X1913674Y1734308D1*
X1927933D1*
X1937550Y1729555D1*
X1947056Y1719938D1*
X1951920Y1705568D1*
Y1696062D1*
X1947056Y1681692D1*
X1937550Y1672185D1*
X1927933Y1667322D1*
X1913674D1*
X1904057Y1672185D1*
X1894550Y1681692D1*
X1839795Y1734308D2*
X1849302Y1729555D1*
X1858919Y1719938D1*
X1863672Y1705568D1*
Y1696062D1*
X1858919Y1681692D1*
X1849302Y1672185D1*
X1839795Y1667322D1*
X1825425D1*
X1815808Y1672185D1*
X1806302Y1681692D1*
X1801438Y1696062D1*
Y1705568D1*
X1806302Y1719938D1*
X1815808Y1729555D1*
X1825425Y1734308D1*
X1839795D1*
X1770560Y1667322D2*
X1703573Y1767691D1*
X1672695Y1748568D2*
X1663078Y1753432D1*
X1648708Y1767691D1*
Y1667322D1*
X1617829Y1734308D2*
X1598706Y1667322D1*
X1579583Y1734308D1*
X1560459Y1667322D1*
X1541336Y1734308D1*
X1510458Y1667322D2*
X1443471Y1767691D1*
X1412592Y1734308D2*
Y1667322D1*
Y1715185D2*
X1398222Y1729555D1*
X1388605Y1734308D1*
X1374346D1*
X1364729Y1729555D1*
X1359976Y1715185D1*
Y1667322D1*
Y1715185D2*
X1345606Y1729555D1*
X1335989Y1734308D1*
X1321729D1*
X1312112Y1729555D1*
X1307249Y1715185D1*
Y1667322D1*
X1276370Y1767802D2*
Y1667322D1*
Y1719938D2*
X1266753Y1729555D1*
X1257247Y1734308D1*
X1242877D1*
X1233371Y1729555D1*
X1223754Y1719938D1*
X1219000Y1705568D1*
Y1696062D1*
X1223754Y1681692D1*
X1233371Y1672185D1*
X1242877Y1667322D1*
X1257247D1*
X1266753Y1672185D1*
X1276370Y1681692D1*
X2633145Y1526589D2*
X2614022Y1459603D1*
X2594899Y1526589D1*
X2575776Y1459603D1*
X2556652Y1526589D1*
X2525774D2*
X2506651Y1459603D1*
X2487527Y1526589D1*
X2468404Y1459603D1*
X2449281Y1526589D1*
X2418402D2*
X2399279Y1459603D1*
X2380156Y1526589D1*
X2361032Y1459603D1*
X2341909Y1526589D1*
X2306278Y1469220D2*
X2311031Y1464356D1*
X2306278Y1459603D1*
X2301414Y1464356D1*
X2306278Y1469220D1*
X2256165Y1560083D2*
Y1478726D1*
X2251412Y1464466D1*
X2241795Y1459603D1*
X2232289D1*
X2270535Y1526589D2*
X2237042D1*
X2201410Y1497849D2*
X2144041D1*
Y1507466D1*
X2148794Y1517083D1*
X2153547Y1521836D1*
X2163164Y1526589D1*
X2177534D1*
X2187040Y1521836D1*
X2196657Y1512219D1*
X2201410Y1497849D1*
Y1488343D1*
X2196657Y1473973D1*
X2187040Y1464466D1*
X2177534Y1459603D1*
X2163164D1*
X2153547Y1464466D1*
X2144041Y1473973D1*
X2055682Y1512219D2*
X2065299Y1521836D1*
X2074916Y1526589D1*
X2089175D1*
X2098792Y1521836D1*
X2108298Y1512219D1*
X2113162Y1497849D1*
Y1488343D1*
X2108298Y1473973D1*
X2098792Y1464466D1*
X2089175Y1459603D1*
X2074916D1*
X2065299Y1464466D1*
X2055682Y1473973D1*
X2024803Y1560083D2*
Y1459603D1*
Y1507466D2*
X2010433Y1521836D1*
X2000816Y1526589D1*
X1986446D1*
X1976940Y1521836D1*
X1972187Y1507466D1*
Y1459603D1*
X1941308Y1509787D2*
X1886039D1*
X1855160Y1560083D2*
Y1459603D1*
X1800405Y1526589D2*
X1809912Y1521836D1*
X1819528Y1512219D1*
X1824282Y1497849D1*
Y1488343D1*
X1819528Y1473973D1*
X1809912Y1464466D1*
X1800405Y1459603D1*
X1786035D1*
X1776418Y1464466D1*
X1766912Y1473973D1*
X1762048Y1488343D1*
Y1497849D1*
X1766912Y1512219D1*
X1776418Y1521836D1*
X1786035Y1526589D1*
X1800405D1*
X1673800Y1521836D2*
Y1445233D1*
X1678553Y1430973D1*
X1683306Y1426109D1*
X1692923Y1421356D1*
X1707293D1*
X1716800Y1426109D1*
X1673800Y1507466D2*
X1683306Y1516972D1*
X1692923Y1521836D1*
X1707293D1*
X1716800Y1516972D1*
X1726416Y1507466D1*
X1731170Y1493096D1*
Y1483479D1*
X1726416Y1469220D1*
X1716800Y1459603D1*
X1707293Y1454849D1*
X1692923D1*
X1683306Y1459603D1*
X1673800Y1469220D1*
X1642921Y1560083D2*
X1638168Y1555329D1*
X1633304Y1560083D1*
X1638168Y1564946D1*
X1642921Y1560083D1*
X1638168Y1526589D2*
Y1459603D1*
X1544946Y1512219D2*
X1554563Y1521836D1*
X1564179Y1526589D1*
X1578439D1*
X1588056Y1521836D1*
X1597562Y1512219D1*
X1602426Y1497849D1*
Y1488343D1*
X1597562Y1473973D1*
X1588056Y1464466D1*
X1578439Y1459603D1*
X1564179D1*
X1554563Y1464466D1*
X1544946Y1473973D1*
X1509314Y1469220D2*
X1514067Y1464356D1*
X1509314Y1459603D1*
X1504450Y1464356D1*
X1509314Y1469220D1*
X1473572Y1526589D2*
Y1459603D1*
Y1497849D2*
X1468708Y1512219D1*
X1459202Y1521836D1*
X1449585Y1526589D1*
X1435215D1*
X1404336D2*
Y1478726D1*
X1399583Y1464466D1*
X1389966Y1459603D1*
X1375596D1*
X1366090Y1464466D1*
X1351720Y1478726D1*
Y1526589D2*
Y1459603D1*
M02*
