%TF.GenerationSoftware,Novarm,DipTrace,3.0.0.2*%
%TF.CreationDate,2017-03-07T09:53:10+02:00*%
%FSLAX26Y26*%
%MOIN*%
%TF.FileFunction,Drawing,Bot*%
%TF.Part,Single*%
%ADD11C,0.006*%
%TA.AperFunction,ComponentPad*%
%ADD35R,0.06378X0.06378*%
%ADD36C,0.06378*%
%ADD37R,0.098425X0.098425*%
%ADD38C,0.098425*%
%ADD39R,0.066929X0.066929*%
%ADD40C,0.066929*%
%ADD41C,0.076772*%
%ADD42R,0.076772X0.076772*%
G75*
G01*
%LPD*%
D35*
X1394000Y2969000D3*
D36*
X1494000D3*
X1594000D3*
X1694000D3*
X1794000D3*
X1894000D3*
X1994000D3*
X2094000D3*
X2194000D3*
X2294000D3*
X2394000D3*
X2494000D3*
X2594000D3*
X2694000D3*
X2794000D3*
X2894000D3*
D35*
X1394000Y2369000D3*
D36*
X1494000D3*
X1594000D3*
X1694000D3*
X1794000D3*
X1894000D3*
X1994000D3*
X2094000D3*
X2194000D3*
X2294000D3*
X2394000D3*
X2494000D3*
X2594000D3*
X2694000D3*
X2794000D3*
X2894000D3*
D37*
X590850Y3543606D3*
D38*
X787701D3*
X984551D3*
D37*
X1181402D3*
D38*
X1378252D3*
X1575102D3*
D37*
X1771953D3*
D38*
X1968803D3*
X2165654D3*
D37*
X2665654D3*
D38*
X2862504D3*
X3059354D3*
D37*
X3256205D3*
D38*
X3453055D3*
X3649906D3*
D37*
X3846756D3*
D38*
X4043606D3*
X4240457D3*
D37*
X984551Y661717D3*
D38*
X787701D3*
X590850D3*
D37*
X1575102D3*
D38*
X1378252D3*
X1181402D3*
D37*
X2165654D3*
D38*
X1968803D3*
X1771953D3*
D37*
X3059354D3*
D38*
X2862504D3*
X2665654D3*
D37*
X3649906D3*
D38*
X3453055D3*
X3256205D3*
D37*
X4240457D3*
D38*
X4043606D3*
X3846756D3*
D39*
X869000Y931500D3*
D40*
Y1031500D3*
D39*
X1294000Y931500D3*
D40*
Y1031500D3*
D39*
X1719000Y931500D3*
D40*
Y1031500D3*
D39*
X2156500Y931500D3*
D40*
Y1031500D3*
D41*
X3081500Y2081500D3*
D42*
X2781500D3*
D41*
X3081500Y1337406D3*
X2781500Y1211421D3*
X3081500Y1085437D3*
X3656500Y2081500D3*
D42*
X3356500D3*
D41*
X3656500Y1337406D3*
X3356500Y1211421D3*
X3656500Y1085437D3*
X4231500Y2069000D3*
D42*
X3931500D3*
D41*
X4231500Y1324906D3*
X3931500Y1198921D3*
X4231500Y1072937D3*
X3244000Y2956500D3*
D42*
Y2656500D3*
D41*
X3988094Y2956500D3*
X4114079Y2656500D3*
X4240063Y2956500D3*
X394000Y394000D2*
D11*
X4437307D1*
Y3811323D1*
X394000D1*
Y394000D1*
M02*
