%TF.GenerationSoftware,Novarm,DipTrace,3.1.0.1*%
%TF.CreationDate,2017-07-10T10:23:36+02:00*%
%FSLAX26Y26*%
%MOIN*%
%TF.FileFunction,Soldermask,Bot*%
%TF.Part,Single*%
%AMOUTLINE7*5,1,4,0,0,0.119885,-135.0*%
%ADD86R,0.084772X0.084772*%
%ADD88C,0.084772*%
%ADD90C,0.074929*%
%ADD92R,0.074929X0.074929*%
%ADD94C,0.067055*%
%ADD96R,0.067055X0.067055*%
%ADD98C,0.106425*%
%ADD100R,0.106425X0.106425*%
%ADD102C,0.07178*%
%ADD104R,0.07178X0.07178*%
%ADD118C,0.070992*%
%ADD120R,0.070992X0.070992*%
%ADD132OUTLINE7*%
G75*
G01*
%LPD*%
D120*
X844000Y2469000D3*
D118*
X544000D3*
D120*
X1294000Y2606500D3*
D118*
X994000D3*
D104*
X1506500Y2981500D3*
D102*
X1606500D3*
X1706500D3*
X1806500D3*
X1906500D3*
X2006500D3*
X2106500D3*
X2206500D3*
X2306500D3*
X2406500D3*
X2506500D3*
X2606500D3*
X2706500D3*
X2806500D3*
X2906500D3*
X3006500D3*
D104*
X1506500Y2381500D3*
D102*
X1606500D3*
X1706500D3*
X1806500D3*
X1906500D3*
X2006500D3*
X2106500D3*
X2206500D3*
X2306500D3*
X2406500D3*
X2506500D3*
X2606500D3*
X2706500D3*
X2806500D3*
X2906500D3*
X3006500D3*
D100*
X590850Y3543606D3*
D98*
X787701D3*
X984551D3*
D100*
X1181402D3*
D98*
X1378252D3*
X1575102D3*
D100*
X1771953D3*
D98*
X1968803D3*
X2165654D3*
D100*
X2665654D3*
D98*
X2862504D3*
X3059354D3*
D100*
X3256205D3*
D98*
X3453055D3*
X3649906D3*
D100*
X3846756D3*
D98*
X4043606D3*
X4240457D3*
D100*
X984551Y661717D3*
D98*
X787701D3*
X590850D3*
D100*
X1575102D3*
D98*
X1378252D3*
X1181402D3*
D100*
X2165654D3*
D98*
X1968803D3*
X1771953D3*
D100*
X3059354D3*
D98*
X2862504D3*
X2665654D3*
D100*
X3649906D3*
D98*
X3453055D3*
X3256205D3*
D100*
X4240457D3*
D98*
X4043606D3*
X3846756D3*
D96*
X2469000Y2206500D3*
D94*
X2569000D3*
X2669000D3*
X2769000D3*
X2869000D3*
X2969000D3*
X3069000D3*
X3169000D3*
X3269000D3*
X3369000D3*
D92*
X856500Y1006500D3*
D90*
Y1106500D3*
D92*
X1281500Y1006500D3*
D90*
Y1106500D3*
D92*
X1694000Y1006500D3*
D90*
Y1106500D3*
D92*
X2106500Y1019000D3*
D90*
Y1119000D3*
D88*
X3031500Y2031500D3*
D86*
X2731500D3*
D88*
X3031500Y1287406D3*
X2731500Y1161421D3*
X3031500Y1035437D3*
X3644000Y2031500D3*
D86*
X3344000D3*
D88*
X3644000Y1287406D3*
X3344000Y1161421D3*
X3644000Y1035437D3*
X4269000Y2019000D3*
D132*
X3969000D3*
D88*
X4269000Y1274906D3*
X3969000Y1148921D3*
X4269000Y1022937D3*
X3969000Y2219000D3*
D86*
X4269000D3*
D88*
X3969000Y2963094D3*
X4269000Y3089079D3*
X3969000Y3215063D3*
M02*
