%TF.GenerationSoftware,Novarm,DipTrace,3.3.1.2*%
%TF.CreationDate,2019-02-23T16:05:27+02:00*%
%FSLAX26Y26*%
%MOIN*%
%TF.FileFunction,Drawing,Bot*%
%TF.Part,Single*%
%AMOUTLINE0*
4,1,4,
-0.038386,-0.038386,
-0.038386,0.038386,
0.038386,0.038386,
0.038386,-0.038386,
-0.038386,-0.038386,
0*%
%ADD11C,0.005512*%
%TA.AperFunction,ComponentPad*%
%ADD31R,0.06378X0.06378*%
%ADD32C,0.06378*%
%ADD33R,0.098425X0.098425*%
%ADD34C,0.098425*%
%ADD35C,0.076772*%
%ADD36R,0.076772X0.076772*%
%ADD42C,0.068898*%
%ADD99OUTLINE0*%
G75*
G01*
%LPD*%
D31*
X756200Y2631200D3*
D32*
X856200D3*
X956200D3*
X1056200D3*
X1156200D3*
X1256200D3*
X1356200D3*
X1456200D3*
X1556200D3*
X1656200D3*
X1756200D3*
X1856200D3*
X1956200D3*
X2056200D3*
X2156200D3*
X2256200D3*
D31*
X756200Y2031200D3*
D32*
X856200D3*
X956200D3*
X1056200D3*
X1156200D3*
X1256200D3*
X1356200D3*
X1456200D3*
X1556200D3*
X1656200D3*
X1756200D3*
X1856200D3*
X1956200D3*
X2056200D3*
X2156200D3*
X2256200D3*
D33*
X590550Y3543306D3*
D34*
X787401D3*
X984251D3*
D33*
X1181102D3*
D34*
X1377952D3*
X1574802D3*
D33*
X1771653D3*
D34*
X1968503D3*
X2165354D3*
D33*
X2665354D3*
D34*
X2862204D3*
X3059054D3*
D33*
X3255905D3*
D34*
X3452755D3*
X3649606D3*
D33*
X3846456D3*
D34*
X4043306D3*
X4240157D3*
D33*
X984251Y661417D3*
D34*
X787401D3*
X590550D3*
D33*
X1574802D3*
D34*
X1377952D3*
X1181102D3*
D33*
X2165354D3*
D34*
X1968503D3*
X1771653D3*
D33*
X3059054D3*
D34*
X2862204D3*
X2665354D3*
D33*
X3649606D3*
D34*
X3452755D3*
X3255905D3*
D33*
X4240157D3*
D34*
X4043306D3*
X3846456D3*
D35*
X3031200Y2031200D3*
D36*
X2731200D3*
D35*
X3031200Y1287106D3*
X2731200Y1161121D3*
X3031200Y1035137D3*
X3643700Y2031200D3*
D36*
X3343700D3*
D35*
X3643700Y1287106D3*
X3343700Y1161121D3*
X3643700Y1035137D3*
X4268700Y2018700D3*
D99*
X3968700D3*
D35*
X4268700Y1274606D3*
X3968700Y1148621D3*
X4268700Y1022637D3*
X3968700Y2218700D3*
D36*
X4268700D3*
D35*
X3968700Y2962794D3*
X4268700Y3088779D3*
X3968700Y3214763D3*
D42*
X1206200Y2943700D3*
Y3043700D3*
Y3143700D3*
X393700Y393700D2*
D11*
X4437007D1*
Y3811023D1*
X393700D1*
Y393700D1*
M02*
