%TF.GenerationSoftware,Novarm,DipTrace Beta,3.0.9.0*%
%TF.CreationDate,2017-03-15T19:41:23+02:00*%
%FSLAX26Y26*%
%MOIN*%
%TF.FileFunction,Plated,1,2,PTH,Drill*%
%TF.Part,Single*%
%TA.AperFunction,ViaDrill*%
%ADD54C,0.019*%
%TA.AperFunction,ComponentDrill*%
%ADD55C,0.040157*%
%ADD56C,0.051181*%
%ADD57C,0.043307*%
G75*
G01*
D55*
X1394000Y2969000D3*
X1494000D3*
X1594000D3*
X1694000D3*
X1794000D3*
X1894000D3*
X1994000D3*
X2094000D3*
X2194000D3*
X2294000D3*
X2394000D3*
X2494000D3*
X2594000D3*
X2694000D3*
X2794000D3*
X2894000D3*
X1394000Y2369000D3*
X1494000D3*
X1594000D3*
X1694000D3*
X1794000D3*
X1894000D3*
X1994000D3*
X2094000D3*
X2194000D3*
X2294000D3*
X2394000D3*
X2494000D3*
X2594000D3*
X2694000D3*
X2794000D3*
X2894000D3*
D56*
X590850Y3543606D3*
X787701D3*
X984551D3*
X1181402D3*
X1378252D3*
X1575102D3*
X1771953D3*
X1968803D3*
X2165654D3*
X2665654D3*
X2862504D3*
X3059354D3*
X3256205D3*
X3453055D3*
X3649906D3*
X3846756D3*
X4043606D3*
X4240457D3*
X984551Y661717D3*
X787701D3*
X590850D3*
X1575102D3*
X1378252D3*
X1181402D3*
X2165654D3*
X1968803D3*
X1771953D3*
X3059354D3*
X2862504D3*
X2665654D3*
X3649906D3*
X3453055D3*
X3256205D3*
X4240457D3*
X4043606D3*
X3846756D3*
X3081500Y2081500D3*
X2781500D3*
X3081500Y1337406D3*
X2781500Y1211421D3*
X3081500Y1085437D3*
X3656500Y2081500D3*
X3356500D3*
X3656500Y1337406D3*
X3356500Y1211421D3*
X3656500Y1085437D3*
X4231500Y2069000D3*
X3931500D3*
X4231500Y1324906D3*
X3931500Y1198921D3*
X4231500Y1072937D3*
X3244000Y2956500D3*
Y2656500D3*
X3988094Y2956500D3*
X4114079Y2656500D3*
X4240063Y2956500D3*
D57*
X1719000Y931500D3*
Y1031500D3*
X2156500Y931500D3*
Y1031500D3*
X1294000Y931500D3*
Y1031500D3*
X869000Y931500D3*
Y1031500D3*
D54*
X1270614Y3627819D3*
X1467996Y2113980D3*
X2192996Y2126480D3*
X2569000Y2899394D3*
X2700870Y3269000D3*
X2280902Y3368996D3*
X1749472Y1708606D3*
X613134Y2084791D3*
X2914886Y1881307D3*
X1794000Y3265496D3*
X938528Y2906697D3*
X2854886Y2008114D3*
X4131500Y1977701D3*
X2191028Y2843803D3*
X1794000Y2618803D3*
X1743390Y2494004D3*
X1584472Y2544197D3*
X1406500Y1163217D3*
X1681500Y1594433D3*
X2119000Y1599000D3*
X613134Y2319000D3*
X2529000Y3591106D3*
X2138921Y3156697D3*
X1094000Y2258508D3*
X1131500Y1584433D3*
Y1162815D3*
X3061248Y2353449D3*
X1307114Y2974020D3*
X1644000Y2481697D3*
X2760870Y3169000D3*
X2509472Y2843803D3*
X2659472Y2769000D3*
X544000Y1242287D3*
X3194000Y2302780D3*
X2051028Y2750909D3*
X3244000Y2302783D3*
X1844000Y2544000D3*
X2351028Y2824398D3*
X2338528Y2455890D3*
X2434614Y2899394D3*
X2501028Y2769000D3*
X1388528Y2444197D3*
X1634472Y2843803D3*
X3035008Y2924748D3*
X2070004Y1891303D3*
X2351024Y1769000D3*
X869000Y3122504D3*
X766996Y2744197D3*
X2553528Y3306496D3*
X2303528Y2544000D3*
X2439614Y3306496D3*
X3005890Y2390949D3*
X2778528Y2544000D3*
X3128528Y2550260D3*
X3167996Y2735142D3*
X3266402Y2550260D3*
X3584492D3*
X2816028Y2618803D3*
X3870654Y2486520D3*
X2941028Y2618803D3*
X3371992Y2587760D3*
X3374197Y2797642D3*
X3091028Y2618803D3*
X2143390Y2924394D3*
X2163528Y2618803D3*
X1327031Y3269000D3*
X1206697Y3319669D3*
X1831500Y750929D3*
X995008Y2064492D3*
X1406500D3*
X744000Y1876630D3*
X1395535Y1803323D3*
X1331500Y2307110D3*
X2131500Y2068094D3*
X947508Y2558764D3*
X993528Y3114512D3*
X2324614Y3742819D3*
X3261913Y3265496D3*
X2361972Y1843803D3*
X2638528D3*
X2551028Y3119000D3*
X1022504Y1963587D3*
X2384614Y3231500D3*
X993528Y2684992D3*
X984551Y3407307D3*
X1749472Y1769197D3*
M02*
