%TF.GenerationSoftware,Novarm,DipTrace,3.1.0.1*%
%TF.CreationDate,2017-07-09T15:58:17+02:00*%
%FSLAX26Y26*%
%MOIN*%
%TF.FileFunction,Plated,1,2,PTH,Drill*%
%TF.Part,Single*%
%TA.AperFunction,ViaDrill*%
%ADD58C,0.019*%
%TA.AperFunction,ComponentDrill*%
%ADD59C,0.040157*%
%ADD60C,0.051181*%
%ADD61C,0.035433*%
%ADD62C,0.043307*%
G75*
G01*
D59*
X1431500Y2969000D3*
X1531500D3*
X1631500D3*
X1731500D3*
X1831500D3*
X1931500D3*
X2031500D3*
X2131500D3*
X2231500D3*
X2331500D3*
X2431500D3*
X2531500D3*
X2631500D3*
X2731500D3*
X2831500D3*
X2931500D3*
X1431500Y2369000D3*
X1531500D3*
X1631500D3*
X1731500D3*
X1831500D3*
X1931500D3*
X2031500D3*
X2131500D3*
X2231500D3*
X2331500D3*
X2431500D3*
X2531500D3*
X2631500D3*
X2731500D3*
X2831500D3*
X2931500D3*
D60*
X590850Y3543606D3*
X787701D3*
X984551D3*
X1181402D3*
X1378252D3*
X1575102D3*
X1771953D3*
X1968803D3*
X2165654D3*
X2665654D3*
X2862504D3*
X3059354D3*
X3256205D3*
X3453055D3*
X3649906D3*
X3846756D3*
X4043606D3*
X4240457D3*
X984551Y661717D3*
X787701D3*
X590850D3*
X1575102D3*
X1378252D3*
X1181402D3*
X2165654D3*
X1968803D3*
X1771953D3*
X3059354D3*
X2862504D3*
X2665654D3*
X3649906D3*
X3453055D3*
X3256205D3*
X4240457D3*
X4043606D3*
X3846756D3*
D61*
X2719000Y2219000D3*
X2819000D3*
X2919000D3*
X3019000D3*
X3119000D3*
X3219000D3*
X3319000D3*
X3419000D3*
X3519000D3*
X3619000D3*
D62*
X856500Y1006500D3*
Y1106500D3*
X1281500Y1006500D3*
Y1106500D3*
X1694000Y1006500D3*
Y1106500D3*
X2106500Y1019000D3*
Y1119000D3*
D60*
X3031500Y2031500D3*
X2731500D3*
X3031500Y1287406D3*
X2731500Y1161421D3*
X3031500Y1035437D3*
X3644000Y2031500D3*
X3344000D3*
X3644000Y1287406D3*
X3344000Y1161421D3*
X3644000Y1035437D3*
X4269000Y2019000D3*
X3969000D3*
X4269000Y1274906D3*
X3969000Y1148921D3*
X4269000Y1022937D3*
X3969000Y2219000D3*
X4269000D3*
X3969000Y2963094D3*
X4269000Y3089079D3*
X3969000Y3215063D3*
D58*
X1270614Y3627819D3*
X3319000Y3358118D3*
X3231185D3*
X3136469Y3341823D3*
X3669000Y3383618D3*
X2531500Y1969000D3*
X832504Y1906146D3*
X2531500Y2519000D3*
X1331815Y2446504D3*
X3494000Y2912913D3*
X3294000Y2900413D3*
X1112587Y1994000D3*
X1878567Y3244315D3*
X1931500Y2641622D3*
X2008803Y3200500D3*
X1320654Y2270654D3*
X1418685Y1969000D3*
X1291933Y1419000D3*
X1581500Y1217287D3*
X2959370Y3612819D3*
Y3281500D3*
X656500Y2221500D3*
X1281500Y2675413D3*
X823252Y2979650D3*
X1894000Y1306500D3*
Y1614807D3*
X3138476Y2488390D3*
Y2854933D3*
X872504Y1419000D3*
X1169000Y1217287D3*
X1469000Y1296067D3*
Y1614807D3*
X623370Y1306500D3*
Y1614807D3*
X3446500Y3183035D3*
X3581500D3*
X744000Y1217287D3*
X792504Y1866146D3*
X1219000Y1917346D3*
X1169000Y2100413D3*
X3171969Y3239535D3*
X2978370Y3167000D3*
X994000Y2638276D3*
X856500Y2544000D3*
X3444000Y2488390D3*
X3394000Y2871874D3*
X3666685Y2877587D3*
X3736894Y2540953D3*
X1048370Y1306500D3*
Y1614807D3*
X1129500Y2673776D3*
X944000Y2638276D3*
X2131500Y2883154D3*
X1287535Y3104000D3*
X1550776Y3244000D3*
X1181402Y3344673D3*
X1269000Y2083154D3*
X1474185D3*
X1546000D3*
X1669000D3*
X1948654Y2031500D3*
X469866Y2544000D3*
X1219000Y2084374D3*
X1718996Y1932917D3*
X1818685Y1964571D3*
X3631185Y2682173D3*
X2938370Y3131500D3*
X1231185Y2731504D3*
X3181815Y3306465D3*
X1521500Y2226358D3*
X2750087Y2519000D3*
X1531185Y1964571D3*
X3406500Y3358118D3*
X3451398Y2612622D3*
X1201421Y3144000D3*
X649591Y2744000D3*
X1381500Y3037913D3*
M02*
