%TF.GenerationSoftware,Novarm,DipTrace,3.1.0.1*%
%TF.CreationDate,2017-07-10T16:32:30+02:00*%
%FSLAX26Y26*%
%MOIN*%
%TF.FileFunction,Plated,1,2,PTH,Drill*%
%TF.Part,Single*%
%TA.AperFunction,ViaDrill*%
%ADD57C,0.019*%
%TA.AperFunction,ComponentDrill*%
%ADD58C,0.03937*%
%ADD59C,0.040157*%
%ADD60C,0.051181*%
%ADD61C,0.035433*%
%ADD62C,0.043307*%
G75*
G01*
D58*
X581500Y2606500D3*
X881500D3*
X581500Y2094000D3*
X881500D3*
D59*
X1506500Y2981500D3*
X1606500D3*
X1706500D3*
X1806500D3*
X1906500D3*
X2006500D3*
X2106500D3*
X2206500D3*
X2306500D3*
X2406500D3*
X2506500D3*
X2606500D3*
X2706500D3*
X2806500D3*
X2906500D3*
X3006500D3*
X1506500Y2381500D3*
X1606500D3*
X1706500D3*
X1806500D3*
X1906500D3*
X2006500D3*
X2106500D3*
X2206500D3*
X2306500D3*
X2406500D3*
X2506500D3*
X2606500D3*
X2706500D3*
X2806500D3*
X2906500D3*
X3006500D3*
D60*
X590850Y3543606D3*
X787701D3*
X984551D3*
X1181402D3*
X1378252D3*
X1575102D3*
X1771953D3*
X1968803D3*
X2165654D3*
X2665654D3*
X2862504D3*
X3059354D3*
X3256205D3*
X3453055D3*
X3649906D3*
X3846756D3*
X4043606D3*
X4240457D3*
X984551Y661717D3*
X787701D3*
X590850D3*
X1575102D3*
X1378252D3*
X1181402D3*
X2165654D3*
X1968803D3*
X1771953D3*
X3059354D3*
X2862504D3*
X2665654D3*
X3649906D3*
X3453055D3*
X3256205D3*
X4240457D3*
X4043606D3*
X3846756D3*
D61*
X3194000Y2944000D3*
Y2844000D3*
Y2744000D3*
Y2644000D3*
Y2544000D3*
Y2444000D3*
Y2344000D3*
Y2244000D3*
Y2144000D3*
Y2044000D3*
D62*
X869000Y1006500D3*
Y1106500D3*
X1331500Y1006500D3*
Y1106500D3*
X1781500Y1019000D3*
Y1119000D3*
X2256500Y1031500D3*
Y1131500D3*
D60*
X3031500Y2031500D3*
X2731500D3*
X3031500Y1287406D3*
X2731500Y1161421D3*
X3031500Y1035437D3*
X3644000Y2031500D3*
X3344000D3*
X3644000Y1287406D3*
X3344000Y1161421D3*
X3644000Y1035437D3*
X4269000Y2019000D3*
X3969000D3*
X4269000Y1274906D3*
X3969000Y1148921D3*
X4269000Y1022937D3*
X3969000Y2219000D3*
X4269000D3*
X3969000Y2963094D3*
X4269000Y3089079D3*
X3969000Y3215063D3*
D57*
X1270614Y3627819D3*
X3354500Y3069000D3*
X3319000Y3358118D3*
X3599724Y3019000D3*
X2506500Y3215000D3*
X2132886Y3144000D3*
X1151972Y1900134D3*
X3031500Y1856500D3*
X2606500Y2531500D3*
X1506500Y3168685D3*
X1258685Y2769000D3*
X3356500Y2225413D3*
X2839886Y1969000D3*
X3744000Y1981500D3*
X1675776Y3099311D3*
X3744000Y2237913D3*
X3544000Y2225413D3*
X1151972Y2284866D3*
X1956500Y2875091D3*
X1844000Y2910587D3*
X1719000Y2875087D3*
X1431500Y1539984D3*
X1856933Y1433764D3*
X1820654Y2100087D3*
X1368035Y1791146D3*
X1819000Y1929846D3*
X2268685Y2052091D3*
X2184185Y2270654D3*
X1656500Y1019000D3*
X1278528Y3194197D3*
X3546870Y3069000D3*
X1331500Y2453138D3*
X1356500Y3050087D3*
X2347382Y2524528D3*
X1194000Y1217287D3*
X744000Y1006500D3*
X619000Y1864453D3*
X1619000D3*
X1650264Y2334110D3*
X1668685Y1987496D3*
X3231500Y3048004D3*
X3253528Y2951693D3*
X2368386Y2644000D3*
X2168898Y2542783D3*
X994000Y3054000D3*
X1218685Y2729004D3*
X3546870Y2791685D3*
Y2919000D3*
X3274528Y2489028D3*
X3344000Y1722642D3*
X2013799Y2502783D3*
X3844000Y2161106D3*
X1218685Y2903169D3*
X1060705Y2669571D3*
X1031500Y2214063D3*
X948350Y2419000D3*
X1615102Y3464390D3*
X1181402Y3433531D3*
X1575102Y906500D3*
X1719000Y2095654D3*
X1969000D3*
X2031500Y2087587D3*
X2319000Y2095654D3*
X2855087Y2744000D3*
X1446776Y1940134D3*
X1642000Y2594122D3*
X1283154Y3119000D3*
X3387126Y2866189D3*
X2383154Y2151484D3*
X1919000Y2096874D3*
X1426110Y2594122D3*
X2319000Y1925413D3*
X3406500Y3398118D3*
X2855087Y2524528D3*
X1877350Y1977071D3*
X1112913Y3069000D3*
X1770654Y2112913D3*
X2119000Y1925413D3*
X781500Y2973213D3*
M02*
