%TF.GenerationSoftware,Novarm,DipTrace,3.3.1.2*%
%TF.CreationDate,2019-02-23T16:05:37+02:00*%
%FSLAX26Y26*%
%MOIN*%
%TF.FileFunction,Plated,1,2,PTH,Drill*%
%TF.Part,Single*%
%TA.AperFunction,ViaDrill*%
%ADD49C,0.019*%
%TA.AperFunction,ComponentDrill*%
%ADD50C,0.040157*%
%ADD51C,0.051181*%
%ADD52C,0.045276*%
G75*
G01*
D50*
X756200Y2631200D3*
X856200D3*
X956200D3*
X1056200D3*
X1156200D3*
X1256200D3*
X1356200D3*
X1456200D3*
X1556200D3*
X1656200D3*
X1756200D3*
X1856200D3*
X1956200D3*
X2056200D3*
X2156200D3*
X2256200D3*
X756200Y2031200D3*
X856200D3*
X956200D3*
X1056200D3*
X1156200D3*
X1256200D3*
X1356200D3*
X1456200D3*
X1556200D3*
X1656200D3*
X1756200D3*
X1856200D3*
X1956200D3*
X2056200D3*
X2156200D3*
X2256200D3*
D51*
X590550Y3543306D3*
X787401D3*
X984251D3*
X1181102D3*
X1377952D3*
X1574802D3*
X1771653D3*
X1968503D3*
X2165354D3*
X2665354D3*
X2862204D3*
X3059054D3*
X3255905D3*
X3452755D3*
X3649606D3*
X3846456D3*
X4043306D3*
X4240157D3*
X984251Y661417D3*
X787401D3*
X590550D3*
X1574802D3*
X1377952D3*
X1181102D3*
X2165354D3*
X1968503D3*
X1771653D3*
X3059054D3*
X2862204D3*
X2665354D3*
X3649606D3*
X3452755D3*
X3255905D3*
X4240157D3*
X4043306D3*
X3846456D3*
X3031200Y2031200D3*
X2731200D3*
X3031200Y1287106D3*
X2731200Y1161121D3*
X3031200Y1035137D3*
X3643700Y2031200D3*
X3343700D3*
X3643700Y1287106D3*
X3343700Y1161121D3*
X3643700Y1035137D3*
X4268700Y2018700D3*
X3968700D3*
X4268700Y1274606D3*
X3968700Y1148621D3*
X4268700Y1022637D3*
X3968700Y2218700D3*
X4268700D3*
X3968700Y2962794D3*
X4268700Y3088779D3*
X3968700Y3214763D3*
D49*
X1631200Y1493700D3*
X1218700Y1481200D3*
X793700Y1493700D3*
X468700D3*
X793700Y2143700D3*
X1606200D3*
X1031200Y1831200D3*
X1481200D3*
X843700Y2431200D3*
X981200D3*
X1906200Y2481200D3*
X1106200Y2431200D3*
X1331200Y2406200D3*
X1543700D3*
X1756200D3*
X1681200Y2468700D3*
X1468700Y2481200D3*
D52*
X1206200Y2943700D3*
Y3043700D3*
Y3143700D3*
D49*
X3256200Y3349787D3*
X809822Y3281200D3*
X584822Y3303936D3*
X1646200Y3306204D3*
X1606200Y2735090D3*
X1456200D3*
X1385200Y2789267D3*
X1556200Y2824326D3*
X593385Y2774771D3*
X1024255Y3143700D3*
X1781200Y3036924D3*
X2069369Y2491700D3*
Y2281527D3*
X2799586Y1936121D3*
X2821865Y2752050D3*
X2771865Y2512700D3*
X2643385Y1971621D3*
Y1871200D3*
X2966700Y1937617D3*
X3085086D3*
X3059054Y2491700D3*
X3424424Y2890838D3*
Y3106200D3*
X1306550Y2092046D3*
X1551633Y1618700D3*
X488109Y2943704D3*
X1821200Y2998570D3*
X3281200Y2625570D3*
X3094554Y3218700D3*
X1266814Y3306204D3*
X2033869Y2114090D3*
X2008503Y3293503D3*
X568700Y2479200D3*
X1915704Y3196669D3*
X1679546Y1831200D3*
X1219015Y2479200D3*
M02*
