%TF.GenerationSoftware,Novarm,DipTrace,3.0.0.2*%
%TF.CreationDate,2017-03-05T11:55:05+02:00*%
%FSLAX26Y26*%
%MOIN*%
%TF.FileFunction,Plated,1,2,PTH,Drill*%
%TF.Part,Single*%
%TA.AperFunction,ViaDrill*%
%ADD52C,0.019*%
%TA.AperFunction,ComponentDrill*%
%ADD53C,0.040157*%
%ADD54C,0.051181*%
G75*
G01*
D53*
X1394000Y2969000D3*
X1494000D3*
X1594000D3*
X1694000D3*
X1794000D3*
X1894000D3*
X1994000D3*
X2094000D3*
X2194000D3*
X2294000D3*
X2394000D3*
X2494000D3*
X2594000D3*
X2694000D3*
X2794000D3*
X2894000D3*
X1394000Y2369000D3*
X1494000D3*
X1594000D3*
X1694000D3*
X1794000D3*
X1894000D3*
X1994000D3*
X2094000D3*
X2194000D3*
X2294000D3*
X2394000D3*
X2494000D3*
X2594000D3*
X2694000D3*
X2794000D3*
X2894000D3*
D54*
X590850Y3543606D3*
X787701D3*
X984551D3*
X1181402D3*
X1378252D3*
X1575102D3*
X1771953D3*
X1968803D3*
X2165654D3*
X2665654D3*
X2862504D3*
X3059354D3*
X3256205D3*
X3453055D3*
X3649906D3*
X3846756D3*
X4043606D3*
X4240457D3*
X984551Y661717D3*
X787701D3*
X590850D3*
X1575102D3*
X1378252D3*
X1181402D3*
X2165654D3*
X1968803D3*
X1771953D3*
X3059354D3*
X2862504D3*
X2665654D3*
X3649906D3*
X3453055D3*
X3256205D3*
X4240457D3*
X4043606D3*
X3846756D3*
X3081500Y2081500D3*
X2781500D3*
X3081500Y1337406D3*
X2781500Y1211421D3*
X3081500Y1085437D3*
X3656500Y2081500D3*
X3356500D3*
X3656500Y1337406D3*
X3356500Y1211421D3*
X3656500Y1085437D3*
X4231500Y2069000D3*
X3931500D3*
X4231500Y1324906D3*
X3931500Y1198921D3*
X4231500Y1072937D3*
X3244000Y2956500D3*
Y2656500D3*
X3988094Y2956500D3*
X4114079Y2656500D3*
X4240063Y2956500D3*
D52*
X2680890Y3030890D3*
X2732366Y3269000D3*
X2943390Y2873996D3*
X2764728Y3219000D3*
X2414469Y3409000D3*
X1780890Y3043390D3*
X1549630Y3219000D3*
X3656500Y2394000D3*
X943488Y2679992D3*
X608134Y2062358D3*
X4231500Y2297996D3*
X3008118Y1708606D3*
X1690890Y3040890D3*
X1919000Y1708606D3*
X1716996Y3265496D3*
X1556500Y2898992D3*
X1853528Y2618803D3*
X2394000Y2430890D3*
X1553528Y2544197D3*
X2329469Y3144197D3*
X613134Y2379000D3*
X2329469Y3324000D3*
X1094000Y2258508D3*
X3156598Y2147386D3*
X1644000Y2480890D3*
X1231500Y2974020D3*
X2743390Y3169000D3*
X2431500Y2899394D3*
X2696972Y2713409D3*
X2356500Y2488390D3*
X3113803Y2383331D3*
X2763362Y2232783D3*
X3194098D3*
X3159492Y2513390D3*
X2351028Y2822091D3*
X2334472Y2678413D3*
X1844000Y3118390D3*
X2088929Y3274000D3*
X2643390Y2769000D3*
X2562130Y3219000D3*
X1643390Y3371504D3*
X1574472Y2619000D3*
X1634472Y2843803D3*
X2211980Y1909394D3*
Y2126480D3*
X2257366Y3068390D3*
X1432110Y2562579D3*
X1194000Y2343508D3*
X1344610Y1935823D3*
X938528Y2744197D3*
X607780D3*
X2790890Y2455890D3*
X3313803Y2353449D3*
X2943390Y1929000D3*
X3870654Y2486520D3*
X2659472Y2550890D3*
X2821972Y2618803D3*
X3128528D3*
X1884472Y2544598D3*
X2216028Y2703409D3*
X1327031Y3269000D3*
X1206697Y3319669D3*
X744000Y1898323D3*
X1880890Y2206500D3*
X1569000Y1905823D3*
X2094000Y2075598D3*
X3261913Y3085894D3*
X3081012Y2292780D3*
X1204965Y1850823D3*
X2460890Y2440890D3*
X3611913Y3320496D3*
X984551Y2981500D3*
X3446795Y2408335D3*
X3249102Y2292780D3*
X2788528Y2790890D3*
X2494004Y3127701D3*
X2281500Y1949000D3*
X3446795Y2489118D3*
X1749472Y1769197D3*
M02*
