%TF.GenerationSoftware,Novarm,DipTrace,3.0.0.2*%
%TF.CreationDate,2017-03-05T12:29:03+02:00*%
%FSLAX26Y26*%
%MOIN*%
%TF.FileFunction,Plated,1,2,PTH,Drill*%
%TF.Part,Single*%
%TA.AperFunction,ViaDrill*%
%ADD52C,0.019*%
%TA.AperFunction,ComponentDrill*%
%ADD53C,0.040157*%
%ADD54C,0.051181*%
G75*
G01*
D53*
X1394000Y2969000D3*
X1494000D3*
X1594000D3*
X1694000D3*
X1794000D3*
X1894000D3*
X1994000D3*
X2094000D3*
X2194000D3*
X2294000D3*
X2394000D3*
X2494000D3*
X2594000D3*
X2694000D3*
X2794000D3*
X2894000D3*
X1394000Y2369000D3*
X1494000D3*
X1594000D3*
X1694000D3*
X1794000D3*
X1894000D3*
X1994000D3*
X2094000D3*
X2194000D3*
X2294000D3*
X2394000D3*
X2494000D3*
X2594000D3*
X2694000D3*
X2794000D3*
X2894000D3*
D54*
X590850Y3543606D3*
X787701D3*
X984551D3*
X1181402D3*
X1378252D3*
X1575102D3*
X1771953D3*
X1968803D3*
X2165654D3*
X2665654D3*
X2862504D3*
X3059354D3*
X3256205D3*
X3453055D3*
X3649906D3*
X3846756D3*
X4043606D3*
X4240457D3*
X984551Y661717D3*
X787701D3*
X590850D3*
X1575102D3*
X1378252D3*
X1181402D3*
X2165654D3*
X1968803D3*
X1771953D3*
X3059354D3*
X2862504D3*
X2665654D3*
X3649906D3*
X3453055D3*
X3256205D3*
X4240457D3*
X4043606D3*
X3846756D3*
X3081500Y2081500D3*
X2781500D3*
X3081500Y1337406D3*
X2781500Y1211421D3*
X3081500Y1085437D3*
X3656500Y2081500D3*
X3356500D3*
X3656500Y1337406D3*
X3356500Y1211421D3*
X3656500Y1085437D3*
X4231500Y2069000D3*
X3931500D3*
X4231500Y1324906D3*
X3931500Y1198921D3*
X4231500Y1072937D3*
X3244000Y2956500D3*
Y2656500D3*
X3988094Y2956500D3*
X4114079Y2656500D3*
X4240063Y2956500D3*
D52*
X2681500Y2899394D3*
X2764728Y3269000D3*
X2837764Y3018390D3*
X2771228Y3206500D3*
X2465890Y3299394D3*
X3220618Y2869000D3*
X4018154Y2394000D3*
X1919000Y1968594D3*
X1794000Y3265496D3*
X1156500Y2816894D3*
X857508Y1803323D3*
X3880654Y2394000D3*
X1919000Y1708606D3*
X1794000Y2618803D3*
X2343390Y2488409D3*
X1434472Y2544197D3*
X613134Y2373488D3*
X1094000Y2258508D3*
X2211972Y3156697D3*
X1270614Y3627819D3*
X2211972Y3360496D3*
X2634614Y2544000D3*
X1644000Y2488606D3*
X1236894Y2974020D3*
X2503528Y2769000D3*
X2735870Y3169000D3*
X2643390Y2769000D3*
X2943390Y2325236D3*
Y1953114D3*
X2191028Y2779591D3*
X2328528Y2618803D3*
X2660870Y3059890D3*
X2700870Y3219000D3*
X1543390Y2898992D3*
X3322917Y3059890D3*
X1574472Y2619000D3*
X2986795Y2819000D3*
X1634472Y2843803D3*
X1291028Y2443390D3*
X1467996Y2113980D3*
X1253528Y2544598D3*
Y1963587D3*
X2592996Y1944752D3*
X2744000D3*
X2491028Y1769000D3*
X2555496Y1909394D3*
X938528Y3265496D3*
Y2744197D3*
X607780D3*
X2153528Y2544000D3*
X2948469Y3336894D3*
X2818394Y2490890D3*
X3435142Y2081500D3*
X2821972Y2544000D3*
X3931500Y2290496D3*
X2971972Y2544000D3*
X3096854Y2805890D3*
Y2661894D3*
X2971972Y2490890D3*
X3624748Y2172508D3*
X2003528Y2494004D3*
X1281500Y3543606D3*
X1206697Y3417169D3*
X1830496Y2206500D3*
X1569000Y1876953D3*
X2370654Y2123591D3*
X2019000Y2023594D3*
X993528Y3110890D3*
X2813528Y2819000D3*
X1022504Y1963587D3*
X943843Y2100594D3*
X3577268Y3122504D3*
X2494000Y3040890D3*
X1749472Y1769197D3*
X3524492Y2504669D3*
X2174472Y2619000D3*
X2201028Y2719591D3*
X2361972Y1844000D3*
X2351028Y2769000D3*
M02*
