%TF.GenerationSoftware,Novarm,DipTrace,3.1.0.1*%
%TF.CreationDate,2017-07-10T10:23:47+02:00*%
%FSLAX26Y26*%
%MOIN*%
%TF.FileFunction,Plated,1,2,PTH,Drill*%
%TF.Part,Single*%
%TA.AperFunction,ViaDrill*%
%ADD57C,0.019*%
%TA.AperFunction,ComponentDrill*%
%ADD58C,0.03937*%
%ADD59C,0.040157*%
%ADD60C,0.051181*%
%ADD61C,0.035433*%
%ADD62C,0.043307*%
G75*
G01*
D58*
X844000Y2469000D3*
X544000D3*
X1294000Y2606500D3*
X994000D3*
D59*
X1506500Y2981500D3*
X1606500D3*
X1706500D3*
X1806500D3*
X1906500D3*
X2006500D3*
X2106500D3*
X2206500D3*
X2306500D3*
X2406500D3*
X2506500D3*
X2606500D3*
X2706500D3*
X2806500D3*
X2906500D3*
X3006500D3*
X1506500Y2381500D3*
X1606500D3*
X1706500D3*
X1806500D3*
X1906500D3*
X2006500D3*
X2106500D3*
X2206500D3*
X2306500D3*
X2406500D3*
X2506500D3*
X2606500D3*
X2706500D3*
X2806500D3*
X2906500D3*
X3006500D3*
D60*
X590850Y3543606D3*
X787701D3*
X984551D3*
X1181402D3*
X1378252D3*
X1575102D3*
X1771953D3*
X1968803D3*
X2165654D3*
X2665654D3*
X2862504D3*
X3059354D3*
X3256205D3*
X3453055D3*
X3649906D3*
X3846756D3*
X4043606D3*
X4240457D3*
X984551Y661717D3*
X787701D3*
X590850D3*
X1575102D3*
X1378252D3*
X1181402D3*
X2165654D3*
X1968803D3*
X1771953D3*
X3059354D3*
X2862504D3*
X2665654D3*
X3649906D3*
X3453055D3*
X3256205D3*
X4240457D3*
X4043606D3*
X3846756D3*
D61*
X2469000Y2206500D3*
X2569000D3*
X2669000D3*
X2769000D3*
X2869000D3*
X2969000D3*
X3069000D3*
X3169000D3*
X3269000D3*
X3369000D3*
D62*
X856500Y1006500D3*
Y1106500D3*
X1281500Y1006500D3*
Y1106500D3*
X1694000Y1006500D3*
Y1106500D3*
X2106500Y1019000D3*
Y1119000D3*
D60*
X3031500Y2031500D3*
X2731500D3*
X3031500Y1287406D3*
X2731500Y1161421D3*
X3031500Y1035437D3*
X3644000Y2031500D3*
X3344000D3*
X3644000Y1287406D3*
X3344000Y1161421D3*
X3644000Y1035437D3*
X4269000Y2019000D3*
X3969000D3*
X4269000Y1274906D3*
X3969000Y1148921D3*
X4269000Y1022937D3*
X3969000Y2219000D3*
X4269000D3*
X3969000Y2963094D3*
X4269000Y3089079D3*
X3969000Y3215063D3*
D57*
X1270614Y3627819D3*
X3319000Y3358118D3*
X3649906Y3104189D3*
X2406500Y3169000D3*
X2306500Y3219000D3*
X944000Y1781843D3*
X2606500Y2531500D3*
X628134Y2001972D3*
X2532504Y1958000D3*
X1694315Y3181500D3*
X3531500Y2786874D3*
X2283154Y3319000D3*
X3144000Y2775413D3*
X1112587Y1994000D3*
X2164571Y3254500D3*
X2006500Y2610933D3*
X1906500Y2683587D3*
X1864685Y2648087D3*
X1291933Y1419000D3*
X1581500Y1217287D3*
X1309752Y2931500D3*
X2988370Y3487591D3*
Y3273311D3*
X1894000Y1306500D3*
Y1614807D3*
X3231500Y2725587D3*
X3211894Y2353453D3*
X872504Y1419000D3*
X1169000Y1217287D3*
X1469000Y1296067D3*
Y1614807D3*
X623370Y1306500D3*
Y1614807D3*
X744000Y1217287D3*
X880535Y1866146D3*
X1169000Y2100413D3*
Y1917346D3*
X1499000Y2083154D3*
X1581500Y1897421D3*
X2799626Y3231500D3*
X3319000Y3187882D3*
X1973154Y2178984D3*
X899591Y2756504D3*
X1447110D3*
X3549394Y2353453D3*
X3431500Y2746874D3*
X3770295Y2388953D3*
X3831500Y2759374D3*
X3917996Y2340358D3*
X1048370Y1306500D3*
Y1614807D3*
X856500Y2976528D3*
X1274394D3*
X906500Y3012028D3*
X1057004D3*
X2214571Y3256500D3*
X1686795Y3303831D3*
X1913276Y3269000D3*
X1369000Y2087587D3*
X1669000Y2083154D3*
X2106500Y2031500D3*
X1903276Y3360811D3*
X1669000Y1912913D3*
X1418685Y1984280D3*
X1531815Y1939453D3*
X2948370Y3131500D3*
X1418685Y2081433D3*
X1217346Y2083154D3*
X1391504Y2319000D3*
X989567Y1944315D3*
X2825087Y2531500D3*
X3453055Y3358118D3*
X1131500Y3162587D3*
X1319000D3*
X989567Y2218685D3*
X1933154Y2138984D3*
X663606Y2744000D3*
M02*
