%TF.GenerationSoftware,Novarm,DipTrace,3.0.0.2*%
%TF.CreationDate,2017-04-09T13:15:07+02:00*%
%FSLAX26Y26*%
%MOIN*%
%TF.FileFunction,Plated,1,2,PTH,Drill*%
%TF.Part,Single*%
%TA.AperFunction,ViaDrill*%
%ADD53C,0.019*%
%TA.AperFunction,ComponentDrill*%
%ADD54C,0.040157*%
%ADD55C,0.051181*%
%ADD56C,0.035433*%
%ADD57C,0.043307*%
G75*
G01*
D54*
X1181500Y2969000D3*
X1281500D3*
X1381500D3*
X1481500D3*
X1581500D3*
X1681500D3*
X1781500D3*
X1881500D3*
X1981500D3*
X2081500D3*
X2181500D3*
X2281500D3*
X2381500D3*
X2481500D3*
X2581500D3*
X2681500D3*
X1181500Y2369000D3*
X1281500D3*
X1381500D3*
X1481500D3*
X1581500D3*
X1681500D3*
X1781500D3*
X1881500D3*
X1981500D3*
X2081500D3*
X2181500D3*
X2281500D3*
X2381500D3*
X2481500D3*
X2581500D3*
X2681500D3*
D55*
X590850Y3543606D3*
X787701D3*
X984551D3*
X1181402D3*
X1378252D3*
X1575102D3*
X1771953D3*
X1968803D3*
X2165654D3*
X2665654D3*
X2862504D3*
X3059354D3*
X3256205D3*
X3453055D3*
X3649906D3*
X3846756D3*
X4043606D3*
X4240457D3*
X984551Y661717D3*
X787701D3*
X590850D3*
X1575102D3*
X1378252D3*
X1181402D3*
X2165654D3*
X1968803D3*
X1771953D3*
X3059354D3*
X2862504D3*
X2665654D3*
X3649906D3*
X3453055D3*
X3256205D3*
X4240457D3*
X4043606D3*
X3846756D3*
D56*
X2856500Y2781500D3*
Y2681500D3*
Y2581500D3*
Y2481500D3*
Y2381500D3*
Y2281500D3*
Y2181500D3*
Y2081500D3*
Y1981500D3*
Y1881500D3*
D57*
X856500Y1006500D3*
Y1106500D3*
X1281500Y1006500D3*
Y1106500D3*
X1694000Y1006500D3*
Y1106500D3*
X2106500Y1019000D3*
Y1119000D3*
D55*
X2656492Y2156471D3*
X2356492D3*
X2656492Y1412377D3*
X2356492Y1286392D3*
X2656492Y1160408D3*
X3381492Y2168971D3*
X3081492D3*
X3381492Y1424877D3*
X3081492Y1298892D3*
X3381492Y1172908D3*
X3856492Y2156471D3*
X3556492D3*
X3856492Y1412377D3*
X3556492Y1286392D3*
X3856492Y1160408D3*
X4044008Y2044029D3*
X4344008D3*
X4044008Y2788123D3*
X4344008Y2914108D3*
X4044008Y3040092D3*
D53*
X1270614Y3627819D3*
X1431500Y2637780D3*
X1457091Y2505689D3*
X2831500Y3256500D3*
X3319000Y3306465D3*
X3044098Y3206500D3*
X3669000Y3306465D3*
X544000Y3256500D3*
X744000D3*
X2181500Y3244000D3*
X1981500Y3194000D3*
X1088157Y2704000D3*
X880535Y1866146D3*
X3606500Y2852071D3*
X1060929Y1994000D3*
X2281500Y2519000D3*
X1968803Y3294000D3*
X1286894Y3156500D3*
X3406500Y2852071D3*
X1802071Y3294000D3*
X1728890Y2908583D3*
X1675315Y3404000D3*
X1369000Y1419000D3*
X1781500D3*
X544000Y2464472D3*
Y2280992D3*
X1894000Y1306500D3*
Y1531500D3*
X3106500Y2813980D3*
X3106598Y2428449D3*
X944000Y1419000D3*
X1469000Y1306500D3*
Y1531500D3*
X544000Y1306500D3*
X619000Y1531500D3*
X3044098Y3156500D3*
X3581500D3*
X440563Y1419000D3*
X744000Y1306500D3*
X3144000Y2519000D3*
Y2619000D3*
X1169000Y2152071D3*
Y1969000D3*
X1581500Y2152071D3*
Y1956500D3*
X2831500Y2862028D3*
Y3156500D3*
X3081492Y2271028D3*
X3446500Y2758583D3*
X3444098Y2428449D3*
X3556492D3*
X3706500Y2463280D3*
X969000Y1306500D3*
X1044000Y1531500D3*
X1324295Y3246780D3*
X1481402Y3194000D3*
X1206697Y3294000D3*
X1531185Y2031500D3*
X2448429Y2519000D3*
X1869000Y1964571D3*
X3383843Y3358118D3*
X1269000Y1964571D3*
X813370Y2856500D3*
X1713154Y2084374D3*
X756500Y2368803D3*
X1469000Y2138980D3*
X1138528Y3196701D3*
X2742130Y3106500D3*
X1269000Y2138980D3*
X1481500Y1964571D3*
X807780Y2554236D3*
X1481402Y3294000D3*
M02*
