G04 DipTrace 3.3.1.2*
G04 Plated_Through.gbr*
%MOIN*%
G04 #@! TF.FileFunction,Plated,1,2,PTH,Drill*
G04 #@! TF.Part,Single*
G04 Drill Symbols*
G04 D=0.019 - Cross*
G04 D=0.040157 - X*
G04 D=0.045276 - Y*
G04 D=0.051181 - T*
%ADD10C,0.00787*%
%FSLAX26Y26*%
G04*
G70*
G90*
G75*
G01*
X732600Y2654800D2*
D10*
X779800Y2607600D1*
Y2654800D2*
X732600Y2607600D1*
X832600Y2654800D2*
X879800Y2607600D1*
Y2654800D2*
X832600Y2607600D1*
X932600Y2654800D2*
X979800Y2607600D1*
Y2654800D2*
X932600Y2607600D1*
X1032600Y2654800D2*
X1079800Y2607600D1*
Y2654800D2*
X1032600Y2607600D1*
X1132600Y2654800D2*
X1179800Y2607600D1*
Y2654800D2*
X1132600Y2607600D1*
X1232600Y2654800D2*
X1279800Y2607600D1*
Y2654800D2*
X1232600Y2607600D1*
X1332600Y2654800D2*
X1379800Y2607600D1*
Y2654800D2*
X1332600Y2607600D1*
X1432600Y2654800D2*
X1479800Y2607600D1*
Y2654800D2*
X1432600Y2607600D1*
X1532600Y2654800D2*
X1579800Y2607600D1*
Y2654800D2*
X1532600Y2607600D1*
X1632600Y2654800D2*
X1679800Y2607600D1*
Y2654800D2*
X1632600Y2607600D1*
X1732600Y2654800D2*
X1779800Y2607600D1*
Y2654800D2*
X1732600Y2607600D1*
X1832600Y2654800D2*
X1879800Y2607600D1*
Y2654800D2*
X1832600Y2607600D1*
X1932600Y2654800D2*
X1979800Y2607600D1*
Y2654800D2*
X1932600Y2607600D1*
X2032600Y2654800D2*
X2079800Y2607600D1*
Y2654800D2*
X2032600Y2607600D1*
X2132600Y2654800D2*
X2179800Y2607600D1*
Y2654800D2*
X2132600Y2607600D1*
X2232600Y2654800D2*
X2279800Y2607600D1*
Y2654800D2*
X2232600Y2607600D1*
X732600Y2054800D2*
X779800Y2007600D1*
Y2054800D2*
X732600Y2007600D1*
X832600Y2054800D2*
X879800Y2007600D1*
Y2054800D2*
X832600Y2007600D1*
X932600Y2054800D2*
X979800Y2007600D1*
Y2054800D2*
X932600Y2007600D1*
X1032600Y2054800D2*
X1079800Y2007600D1*
Y2054800D2*
X1032600Y2007600D1*
X1132600Y2054800D2*
X1179800Y2007600D1*
Y2054800D2*
X1132600Y2007600D1*
X1232600Y2054800D2*
X1279800Y2007600D1*
Y2054800D2*
X1232600Y2007600D1*
X1332600Y2054800D2*
X1379800Y2007600D1*
Y2054800D2*
X1332600Y2007600D1*
X1432600Y2054800D2*
X1479800Y2007600D1*
Y2054800D2*
X1432600Y2007600D1*
X1532600Y2054800D2*
X1579800Y2007600D1*
Y2054800D2*
X1532600Y2007600D1*
X1632600Y2054800D2*
X1679800Y2007600D1*
Y2054800D2*
X1632600Y2007600D1*
X1732600Y2054800D2*
X1779800Y2007600D1*
Y2054800D2*
X1732600Y2007600D1*
X1832600Y2054800D2*
X1879800Y2007600D1*
Y2054800D2*
X1832600Y2007600D1*
X1932600Y2054800D2*
X1979800Y2007600D1*
Y2054800D2*
X1932600Y2007600D1*
X2032600Y2054800D2*
X2079800Y2007600D1*
Y2054800D2*
X2032600Y2007600D1*
X2132600Y2054800D2*
X2179800Y2007600D1*
Y2054800D2*
X2132600Y2007600D1*
X2232600Y2054800D2*
X2279800Y2007600D1*
Y2054800D2*
X2232600Y2007600D1*
X566950Y3543306D2*
X614150D1*
X590550D2*
Y3519706D1*
X763801Y3543306D2*
X811001D1*
X787401D2*
Y3519706D1*
X960651Y3543306D2*
X1007851D1*
X984251D2*
Y3519706D1*
X1157502Y3543306D2*
X1204702D1*
X1181102D2*
Y3519706D1*
X1354352Y3543306D2*
X1401552D1*
X1377952D2*
Y3519706D1*
X1551202Y3543306D2*
X1598402D1*
X1574802D2*
Y3519706D1*
X1748053Y3543306D2*
X1795253D1*
X1771653D2*
Y3519706D1*
X1944903Y3543306D2*
X1992103D1*
X1968503D2*
Y3519706D1*
X2141754Y3543306D2*
X2188954D1*
X2165354D2*
Y3519706D1*
X2641754Y3543306D2*
X2688954D1*
X2665354D2*
Y3519706D1*
X2838604Y3543306D2*
X2885804D1*
X2862204D2*
Y3519706D1*
X3035454Y3543306D2*
X3082654D1*
X3059054D2*
Y3519706D1*
X3232305Y3543306D2*
X3279505D1*
X3255905D2*
Y3519706D1*
X3429155Y3543306D2*
X3476355D1*
X3452755D2*
Y3519706D1*
X3626006Y3543306D2*
X3673206D1*
X3649606D2*
Y3519706D1*
X3822856Y3543306D2*
X3870056D1*
X3846456D2*
Y3519706D1*
X4019706Y3543306D2*
X4066906D1*
X4043306D2*
Y3519706D1*
X4216557Y3543306D2*
X4263757D1*
X4240157D2*
Y3519706D1*
X960651Y661417D2*
X1007851D1*
X984251D2*
Y637817D1*
X763801Y661417D2*
X811001D1*
X787401D2*
Y637817D1*
X566950Y661417D2*
X614150D1*
X590550D2*
Y637817D1*
X1551202Y661417D2*
X1598402D1*
X1574802D2*
Y637817D1*
X1354352Y661417D2*
X1401552D1*
X1377952D2*
Y637817D1*
X1157502Y661417D2*
X1204702D1*
X1181102D2*
Y637817D1*
X2141754Y661417D2*
X2188954D1*
X2165354D2*
Y637817D1*
X1944903Y661417D2*
X1992103D1*
X1968503D2*
Y637817D1*
X1748053Y661417D2*
X1795253D1*
X1771653D2*
Y637817D1*
X3035454Y661417D2*
X3082654D1*
X3059054D2*
Y637817D1*
X2838604Y661417D2*
X2885804D1*
X2862204D2*
Y637817D1*
X2641754Y661417D2*
X2688954D1*
X2665354D2*
Y637817D1*
X3626006Y661417D2*
X3673206D1*
X3649606D2*
Y637817D1*
X3429155Y661417D2*
X3476355D1*
X3452755D2*
Y637817D1*
X3232305Y661417D2*
X3279505D1*
X3255905D2*
Y637817D1*
X4216557Y661417D2*
X4263757D1*
X4240157D2*
Y637817D1*
X4019706Y661417D2*
X4066906D1*
X4043306D2*
Y637817D1*
X3822856Y661417D2*
X3870056D1*
X3846456D2*
Y637817D1*
X3007600Y2031200D2*
X3054800D1*
X3031200D2*
Y2007600D1*
X2707600Y2031200D2*
X2754800D1*
X2731200D2*
Y2007600D1*
X3007600Y1287106D2*
X3054800D1*
X3031200D2*
Y1263506D1*
X2707600Y1161121D2*
X2754800D1*
X2731200D2*
Y1137521D1*
X3007600Y1035137D2*
X3054800D1*
X3031200D2*
Y1011537D1*
X3620100Y2031200D2*
X3667300D1*
X3643700D2*
Y2007600D1*
X3320100Y2031200D2*
X3367300D1*
X3343700D2*
Y2007600D1*
X3620100Y1287106D2*
X3667300D1*
X3643700D2*
Y1263506D1*
X3320100Y1161121D2*
X3367300D1*
X3343700D2*
Y1137521D1*
X3620100Y1035137D2*
X3667300D1*
X3643700D2*
Y1011537D1*
X4245100Y2018700D2*
X4292300D1*
X4268700D2*
Y1995100D1*
X3945100Y2018700D2*
X3992300D1*
X3968700D2*
Y1995100D1*
X4245100Y1274606D2*
X4292300D1*
X4268700D2*
Y1251006D1*
X3945100Y1148621D2*
X3992300D1*
X3968700D2*
Y1125021D1*
X4245100Y1022637D2*
X4292300D1*
X4268700D2*
Y999037D1*
X3945100Y2218700D2*
X3992300D1*
X3968700D2*
Y2195100D1*
X4245100Y2218700D2*
X4292300D1*
X4268700D2*
Y2195100D1*
X3945100Y2962794D2*
X3992300D1*
X3968700D2*
Y2939194D1*
X4245100Y3088779D2*
X4292300D1*
X4268700D2*
Y3065179D1*
X3945100Y3214763D2*
X3992300D1*
X3968700D2*
Y3191163D1*
X1631200Y1517300D2*
Y1470100D1*
X1607600Y1493700D2*
X1654800D1*
X1218700Y1504800D2*
Y1457600D1*
X1195100Y1481200D2*
X1242300D1*
X793700Y1517300D2*
Y1470100D1*
X770100Y1493700D2*
X817300D1*
X468700Y1517300D2*
Y1470100D1*
X445100Y1493700D2*
X492300D1*
X793700Y2167300D2*
Y2120100D1*
X770100Y2143700D2*
X817300D1*
X1606200Y2167300D2*
Y2120100D1*
X1582600Y2143700D2*
X1629800D1*
X1031200Y1854800D2*
Y1807600D1*
X1007600Y1831200D2*
X1054800D1*
X1481200Y1854800D2*
Y1807600D1*
X1457600Y1831200D2*
X1504800D1*
X843700Y2454800D2*
Y2407600D1*
X820100Y2431200D2*
X867300D1*
X981200Y2454800D2*
Y2407600D1*
X957600Y2431200D2*
X1004800D1*
X1906200Y2504800D2*
Y2457600D1*
X1882600Y2481200D2*
X1929800D1*
X1106200Y2454800D2*
Y2407600D1*
X1082600Y2431200D2*
X1129800D1*
X1331200Y2429800D2*
Y2382600D1*
X1307600Y2406200D2*
X1354800D1*
X1543700Y2429800D2*
Y2382600D1*
X1520100Y2406200D2*
X1567300D1*
X1756200Y2429800D2*
Y2382600D1*
X1732600Y2406200D2*
X1779800D1*
X1681200Y2492300D2*
Y2445100D1*
X1657600Y2468700D2*
X1704800D1*
X1468700Y2504800D2*
Y2457600D1*
X1445100Y2481200D2*
X1492300D1*
X1182600Y2967300D2*
X1206200Y2943700D1*
X1229800Y2967300D1*
X1206200Y2943700D2*
Y2920100D1*
X1182600Y3067300D2*
X1206200Y3043700D1*
X1229800Y3067300D1*
X1206200Y3043700D2*
Y3020100D1*
X1182600Y3167300D2*
X1206200Y3143700D1*
X1229800Y3167300D1*
X1206200Y3143700D2*
Y3120100D1*
X3256200Y3373387D2*
Y3326187D1*
X3232600Y3349787D2*
X3279800D1*
X809822Y3304800D2*
Y3257600D1*
X786222Y3281200D2*
X833422D1*
X584822Y3327536D2*
Y3280336D1*
X561222Y3303936D2*
X608422D1*
X1646200Y3329804D2*
Y3282604D1*
X1622600Y3306204D2*
X1669800D1*
X1606200Y2758690D2*
Y2711490D1*
X1582600Y2735090D2*
X1629800D1*
X1456200Y2758690D2*
Y2711490D1*
X1432600Y2735090D2*
X1479800D1*
X1385200Y2812867D2*
Y2765667D1*
X1361600Y2789267D2*
X1408800D1*
X1556200Y2847926D2*
Y2800726D1*
X1532600Y2824326D2*
X1579800D1*
X593385Y2798371D2*
Y2751171D1*
X569785Y2774771D2*
X616985D1*
X1024255Y3167300D2*
Y3120100D1*
X1000655Y3143700D2*
X1047855D1*
X1781200Y3060524D2*
Y3013324D1*
X1757600Y3036924D2*
X1804800D1*
X2069369Y2515300D2*
Y2468100D1*
X2045769Y2491700D2*
X2092969D1*
X2069369Y2305127D2*
Y2257927D1*
X2045769Y2281527D2*
X2092969D1*
X2799586Y1959721D2*
Y1912521D1*
X2775986Y1936121D2*
X2823186D1*
X2821865Y2775650D2*
Y2728450D1*
X2798265Y2752050D2*
X2845465D1*
X2771865Y2536300D2*
Y2489100D1*
X2748265Y2512700D2*
X2795465D1*
X2643385Y1995221D2*
Y1948021D1*
X2619785Y1971621D2*
X2666985D1*
X2643385Y1894800D2*
Y1847600D1*
X2619785Y1871200D2*
X2666985D1*
X2966700Y1961217D2*
Y1914017D1*
X2943100Y1937617D2*
X2990300D1*
X3085086Y1961217D2*
Y1914017D1*
X3061486Y1937617D2*
X3108686D1*
X3059054Y2515300D2*
Y2468100D1*
X3035454Y2491700D2*
X3082654D1*
X3424424Y2914438D2*
Y2867238D1*
X3400824Y2890838D2*
X3448024D1*
X3424424Y3129800D2*
Y3082600D1*
X3400824Y3106200D2*
X3448024D1*
X1306550Y2115646D2*
Y2068446D1*
X1282950Y2092046D2*
X1330150D1*
X1551633Y1642300D2*
Y1595100D1*
X1528033Y1618700D2*
X1575233D1*
X488109Y2967304D2*
Y2920104D1*
X464509Y2943704D2*
X511709D1*
X1821200Y3022170D2*
Y2974970D1*
X1797600Y2998570D2*
X1844800D1*
X3281200Y2649170D2*
Y2601970D1*
X3257600Y2625570D2*
X3304800D1*
X3094554Y3242300D2*
Y3195100D1*
X3070954Y3218700D2*
X3118154D1*
X1266814Y3329804D2*
Y3282604D1*
X1243214Y3306204D2*
X1290414D1*
X2033869Y2137690D2*
Y2090490D1*
X2010269Y2114090D2*
X2057469D1*
X2008503Y3317103D2*
Y3269903D1*
X1984903Y3293503D2*
X2032103D1*
X568700Y2502800D2*
Y2455600D1*
X545100Y2479200D2*
X592300D1*
X1915704Y3220269D2*
Y3173069D1*
X1892104Y3196669D2*
X1939304D1*
X1679546Y1854800D2*
Y1807600D1*
X1655946Y1831200D2*
X1703146D1*
X1219015Y2502800D2*
Y2455600D1*
X1195415Y2479200D2*
X1242615D1*
M02*
