%TF.GenerationSoftware,Novarm,DipTrace,3.0.0.2*%
%TF.CreationDate,2017-03-04T22:17:07+02:00*%
%FSLAX26Y26*%
%MOIN*%
%TF.FileFunction,Copper,L1,Top*%
%TF.Part,Single*%
%TA.AperFunction,Conductor*%
%ADD14C,0.015*%
%ADD15C,0.02*%
%ADD16C,0.03*%
%ADD17C,0.023622*%
%ADD18C,0.085*%
%ADD19C,0.076772*%
%ADD20C,0.025591*%
%TA.AperFunction,CopperBalancing*%
%ADD21C,0.025*%
%ADD26R,0.124016X0.062992*%
%ADD28R,0.062992X0.124016*%
%ADD29R,0.059055X0.051181*%
%ADD31R,0.031496X0.062992*%
%ADD32R,0.043307X0.049213*%
%ADD34R,0.062992X0.031496*%
%TA.AperFunction,ComponentPad*%
%ADD35R,0.06378X0.06378*%
%ADD36C,0.06378*%
%ADD37R,0.098425X0.098425*%
%ADD38C,0.098425*%
%ADD39C,0.076772*%
%ADD40R,0.076772X0.076772*%
%ADD42R,0.025591X0.041339*%
%ADD43R,0.070866X0.062992*%
%ADD44R,0.07874X0.023622*%
%ADD46R,0.108268X0.03937*%
%ADD47R,0.242126X0.218504*%
%ADD48R,0.023622X0.07874*%
%ADD49R,0.07874X0.098425*%
%ADD50R,0.066929X0.086614*%
%TA.AperFunction,ViaPad*%
%ADD51C,0.04*%
%TA.AperFunction,Nonconductor*%
%ADD101C,0.015*%
G75*
G01*
%LPD*%
X3356500Y3375587D2*
D14*
Y3281303D1*
X2045516Y3269000D2*
X2119000D1*
X3649906Y3543606D2*
Y3429846D1*
X3644000Y3423941D1*
Y3281303D1*
X3691028D1*
Y3159886D1*
X3183732D1*
X3149110Y3125264D1*
X2973508D1*
X2948508Y3150264D1*
Y3267996D1*
X2573508D1*
Y3139693D1*
X2413469D1*
X2388469Y3164693D1*
Y3219000D1*
X2331598D1*
X590850Y3543606D2*
D15*
Y3256500D1*
X519000D1*
X787701Y3543606D2*
Y3404413D1*
X719000Y3335713D1*
Y3256500D1*
X1281500Y2684992D2*
D14*
Y2756500D1*
X1226500Y2889732D2*
X1156500D1*
X1131500Y2864732D1*
Y2756500D1*
X2218394Y3454398D2*
X1498394D1*
X1181500Y2756500D2*
Y2825870D1*
X1231500D1*
Y2756500D1*
Y2687130D1*
X3819000Y2444000D2*
D16*
X3757346D1*
Y2409000D1*
X3956500D1*
Y2444000D1*
X1097189Y3324669D2*
X1394000D1*
X1444000Y3274669D1*
Y3194000D1*
X3244000Y3094000D2*
Y3019000D1*
X3194000Y2969000D1*
X3106500D1*
X3569000Y2219000D2*
Y2119886D1*
X3607386Y2081500D1*
X3656500D1*
X1131500Y2969098D2*
D17*
X1117839D1*
Y3091657D1*
X1106028Y3103469D1*
X570535Y1803323D2*
D16*
X644000D1*
X1436500Y2768598D2*
X1556500D1*
X613134Y2139472D2*
X519000D1*
X4119000Y2444000D2*
X4175654D1*
X4244000D1*
X3956500D2*
X4119000D1*
X4131500Y2231500D2*
Y2069000D1*
X4231500D1*
X4119000Y2444000D2*
Y2310496D1*
X4131500Y2297996D1*
Y2231500D1*
X3081500Y2081500D2*
X3032386D1*
X2994000Y2119886D1*
Y2219000D1*
X3656500Y2081500D2*
X3543114Y1968114D1*
X3194886D1*
X3081500Y2081500D1*
X1031500Y1803323D2*
X1049965D1*
Y1918740D1*
X1056500D1*
X1469000Y1803646D2*
X1370024D1*
X1265378Y1699000D1*
X1031500D1*
Y1803323D1*
X1919000Y1803646D2*
Y1699000D1*
X1469000D1*
Y1803646D1*
X1940496Y1886953D2*
X1939000D1*
X1919000Y1866953D1*
Y1803646D1*
X1106028Y3103469D2*
X1046028Y3043469D1*
Y2906697D1*
X981500D1*
X644000Y1803323D2*
Y1699000D1*
X822272D1*
X926594Y1803323D1*
X1031500D1*
X1726421Y3265496D2*
D14*
Y3111524D1*
X1643390Y3028492D1*
Y2936894D1*
X1618390Y2911894D1*
X1581500D1*
X1556500Y2886894D1*
Y2843402D1*
X2063528Y2881303D2*
Y2863803D1*
X2083528Y2843803D1*
X2131500D1*
X2191028Y2831307D2*
X2218390Y2803945D1*
Y2619402D1*
X2281500D1*
X2791028Y2544598D2*
X2881500D1*
X2029000Y2480890D2*
X2143390D1*
X2193390Y2430890D1*
X2443165D1*
X1594000Y2544197D2*
X1681500D1*
X869000Y1467118D2*
D15*
X744000D1*
Y1468677D1*
X1294000Y1169000D2*
X1366500D1*
X1406500Y1209000D1*
Y1331500D1*
X1719000Y1169000D2*
X1791500D1*
X1831500Y1209000D1*
Y1331500D1*
X2410969Y3269000D2*
D16*
X2331598D1*
X698492Y3454402D2*
Y3667819D1*
X748492Y3717819D1*
X2325969D1*
X2410969Y3632819D1*
X897425Y2768803D2*
X981500D1*
X613134Y2319000D2*
X519000D1*
X612780Y2469000D2*
X518646D1*
X979000Y2194472D2*
X991972Y2181500D1*
X1244000D1*
X2581500Y2544598D2*
D14*
Y2478390D1*
X2606500Y2453390D1*
X2706500D1*
X2731500Y2478390D1*
Y2544598D1*
X869000Y1169000D2*
D15*
X941500D1*
X981500Y1209000D1*
Y1331500D1*
X2821972Y2687492D2*
D14*
X2756500D1*
X2731500Y2662492D1*
Y2619402D1*
X3128921Y3194000D2*
X3036913D1*
X1294000Y1356882D2*
D15*
Y1335386D1*
X1181500D1*
Y1331500D1*
X2781500Y2081500D2*
D14*
X2860142Y2160142D1*
Y2219000D1*
X3286795Y2315949D2*
X3169098D1*
X3136500Y2544598D2*
X3044000D1*
X3644000Y3206500D2*
X3506500Y3206697D1*
X531500Y1554236D2*
D15*
X566937D1*
Y1551984D1*
X644000D1*
Y1468677D1*
X1294000Y1058764D2*
X1435870D1*
X1475870Y1098764D1*
Y1469000D1*
X1469000D1*
X1719000Y1058764D2*
X1879000D1*
X1919000Y1098764D1*
Y1469000D1*
X1166500Y2418394D2*
D14*
X1806500D1*
X1831500Y2443394D1*
Y2544197D1*
X1166500Y2011260D2*
X1056500D1*
X869000Y1058764D2*
D15*
X1010870D1*
X1050870Y1098764D1*
Y1468677D1*
X1031500D1*
X1294000Y1467118D2*
X1196524D1*
X1194965Y1468677D1*
X1131500D1*
X1719000Y1467118D2*
Y1469000D1*
X1569000D1*
X1719000Y1356882D2*
X1607898D1*
X1606500Y1331500D1*
X1607898Y1356882D2*
X1606500Y1355484D1*
Y1331500D1*
X2156500Y1467118D2*
Y1469000D1*
X2019000D1*
X2343390Y3430811D2*
D14*
X3481500D1*
X3506500Y3405811D1*
Y3281500D1*
X2343390Y2918803D2*
X2406500D1*
X2431500Y2893803D1*
Y2843803D1*
X2262228Y3169000D2*
X2331598D1*
X531500Y1444000D2*
D15*
X544000D1*
Y1331500D1*
X3249295Y2252780D2*
D14*
X3121744D1*
X3088559Y2285965D1*
X2168390D1*
X2143390Y2310965D1*
Y2418390D1*
X2118390Y2443390D1*
X1941028D1*
X1916028Y2468390D1*
Y2843803D1*
X1981500D1*
X3249295Y2406500D2*
X3206500D1*
X1981500Y2843803D2*
X2038528D1*
Y2794000D1*
X2063528Y2769000D1*
X2131500D1*
X2431500Y2544197D2*
X2480665D1*
Y2453390D1*
X2505665Y2428390D1*
X3005885D1*
X3080157Y2354118D1*
X3406500D1*
Y2406500D1*
X2281500Y2544598D2*
X2431500Y2544197D1*
X2351028Y2734992D2*
Y2843803D1*
X2281500D1*
X3681504Y2649024D2*
Y2687492D1*
X3656504Y2712492D1*
X3024291D1*
X2974295Y2662496D1*
X2881500D1*
Y2619402D1*
X3619000Y2486524D2*
Y2406500D1*
X2881500Y2619402D2*
X2876303D1*
Y2709992D1*
X2851303Y2734992D1*
X2551028D1*
X2156500Y1356882D2*
D15*
X2032898D1*
X2031500Y1331500D1*
X2032898Y1356882D2*
X2031500Y1355484D1*
Y1331500D1*
X1984752Y3369000D2*
D14*
X3181500D1*
X3206500Y3344000D1*
Y3281500D1*
X2043390Y3012764D2*
Y2943803D1*
X2018390Y2918803D1*
X1916028D1*
X1891028Y2893803D1*
Y2843803D1*
X1844000D1*
X2043390Y3219000D2*
X2119000D1*
X1631500Y2843803D2*
X1694000D1*
X1741028Y2619000D2*
X1681500D1*
X1694000Y2843803D2*
Y2893807D1*
X1818394D1*
X1843394Y2918807D1*
Y3025264D1*
X1868394Y3050264D1*
X2919000D1*
X2944000Y3025264D1*
Y2819000D1*
X879846Y2053626D2*
X519000D1*
Y2011520D1*
X1129000Y2544598D2*
X1244000D1*
X1091500Y2468390D2*
X1494000D1*
X1519000Y2493390D1*
Y2544197D1*
X729846Y2011520D2*
X656500D1*
X845654Y1956500D2*
Y2011520D1*
X794000D1*
X2069965Y1694000D2*
Y1818803D1*
X2094965Y1843803D1*
X2144000D1*
X931500Y2011520D2*
Y2261008D1*
X956500Y2286008D1*
X1918390D1*
X1943390Y2311008D1*
Y2393390D1*
X1968390Y2418390D1*
X2019000D1*
X2044000Y2393390D1*
Y2285965D1*
X2069000Y2260965D1*
X2626028D1*
X2651028Y2235965D1*
Y1746701D1*
X2626028Y1721701D1*
X2431500D1*
Y1769197D1*
X2119000Y3169000D2*
X1906504D1*
X1868390Y3207114D1*
Y3306500D1*
X1893390Y3331500D1*
X2469000D1*
X2494000Y3306500D1*
Y3194000D1*
X1906504Y3169000D2*
X1906500Y3119000D1*
X1443390Y2544598D2*
X1381500D1*
X1443390Y2068094D2*
X1556500D1*
Y1988587D1*
X1869000Y1988543D2*
Y1887091D1*
X1819000D1*
Y1844000D1*
X2169000Y1988543D2*
Y1902909D1*
X2201028Y1870882D1*
Y1794000D1*
X2226028Y1769000D1*
X2281500D1*
X2456500Y1988543D2*
X2474000D1*
Y1897091D1*
X2626028D1*
Y1769000D1*
X2569000D1*
X981500Y2416106D2*
D16*
Y2481697D1*
X519000Y2856500D2*
Y3122287D1*
X569000Y3172287D1*
X869000D1*
Y3194000D1*
X607780Y2698811D2*
Y2856500D1*
X519000D1*
X518646Y2648528D2*
Y2643811D1*
X587780D1*
X607780Y2663811D1*
Y2698811D1*
X2844000Y3194000D2*
D14*
X2923508D1*
Y3242996D1*
X2598508D1*
Y3114693D1*
X2331598D1*
Y3119000D1*
X2210870D1*
X2185870Y3144000D1*
Y3281500D1*
X2160870Y3306500D1*
X1906500D1*
Y3244000D1*
X3356500Y2081500D2*
Y2181087D1*
X3369098Y2193685D1*
Y2315949D1*
X3266028Y2544598D2*
X3206500D1*
X3369098Y2315949D2*
X3410142D1*
X3435142Y2290949D1*
Y2219000D1*
X3931500Y2069000D2*
X3997642Y2135142D1*
Y2231500D1*
X3581598Y2315949D2*
X3484886D1*
X3997642Y2231500D2*
Y2290949D1*
X3972642Y2315949D1*
X3581598D1*
X3428528Y2527169D2*
X3425957D1*
X3408528Y2544598D1*
X3369000D1*
X3244000Y2794000D2*
X3180496D1*
X3155496Y2819000D1*
Y2835142D1*
X3106500D1*
X3428528Y2611520D2*
X3466028Y2574020D1*
Y2544598D1*
X3519000D1*
X3106500Y2835142D2*
X2999295D1*
X2974295Y2810142D1*
Y2753449D1*
X2949295Y2728449D1*
X2906598D1*
X1981500Y2544598D2*
X2066500D1*
X2131500D1*
X2980890Y3087764D2*
X2711913D1*
X2686913Y3112764D1*
Y3194000D1*
X2431500Y2480890D2*
X2218390D1*
X2193390Y2505890D1*
Y2619402D1*
X2131500D1*
X3356500Y3206500D2*
X3303626D1*
X3303429Y3206697D1*
X3206500D1*
X3819000Y2536520D2*
X3739845D1*
X3714846Y2511520D1*
Y2383335D1*
X3739846Y2358335D1*
X4005890D1*
X4030890Y2333335D1*
Y2003114D1*
X4055890Y1978114D1*
X4297386D1*
X4322386Y2003114D1*
Y2586520D1*
X4297386Y2611520D1*
X3653528D1*
X3628528Y2636520D1*
Y2662492D1*
X3603528Y2687492D1*
X3069000D1*
X3044000Y2662492D1*
Y2619402D1*
X3956500Y2536520D2*
Y2578626D1*
X3628528D1*
X3603528Y2603626D1*
Y2637492D1*
X3578528Y2662492D1*
X3206500D1*
Y2619402D1*
X3303528D2*
X3369000D1*
X4055654Y2574020D2*
Y2556521D1*
X4075655Y2536520D1*
X4119000D1*
X3578528Y2524024D2*
Y2619402D1*
X3519000D1*
X4170654Y2524024D2*
X4183150Y2536520D1*
X4244000D1*
X869000Y1356882D2*
D15*
Y1335386D1*
X744000D1*
Y1331500D1*
X2094000Y3406500D2*
D14*
X1830890D1*
X1805890Y3381500D1*
Y3070004D1*
X1772642D1*
Y3119000D1*
X1768390Y3180496D2*
X1772642Y3184748D1*
Y3244000D1*
X2781500Y1211421D2*
D19*
Y1206500D1*
D18*
X2656500Y1081500D1*
Y670870D1*
X2665654Y661717D1*
X3081500Y1337406D2*
D19*
Y1331500D1*
D18*
X2906500Y1156500D1*
Y705713D1*
X2862504Y661717D1*
X3081500Y1085437D2*
D19*
Y1004551D1*
D18*
Y683862D1*
X3059354Y661717D1*
X3356500Y1211421D2*
D19*
Y1194000D1*
D18*
X3294000Y1131500D1*
Y699512D1*
X3256205Y661717D1*
X3656500Y1337406D2*
D19*
Y1331500D1*
D18*
X3469000Y1144000D1*
Y677661D1*
X3453055Y661717D1*
X3656500Y1085437D2*
D19*
Y1004551D1*
D18*
Y668311D1*
X3649906Y661717D1*
X3931500Y1198921D2*
D19*
Y1118035D1*
D18*
X3861717Y869577D1*
Y661717D1*
X3846756D1*
X4043606D2*
Y1137012D1*
X4174304Y1267710D1*
D19*
X4231500Y1324906D1*
Y1072937D2*
Y992051D1*
D18*
Y670673D1*
X4240457Y661717D1*
X3846756Y3543606D2*
Y3061323D1*
X4056883Y2851196D1*
D19*
X4114079Y2794000D1*
X4043606Y3543606D2*
D18*
Y3149512D1*
D19*
X3988094Y3094000D1*
X4240063D2*
Y3174886D1*
D18*
Y3543213D1*
X4240457Y3543606D1*
X1231500Y3048469D2*
D14*
Y2969098D1*
X1324295Y3269000D2*
X1281500D1*
X1181500Y3048469D2*
Y2969098D1*
X1163902Y3269000D2*
X1206697D1*
X787701Y661717D2*
D15*
Y740929D1*
X744000Y784630D1*
Y931500D1*
X590850Y661717D2*
Y740929D1*
X544000Y787780D1*
Y931500D1*
X984551Y661717D2*
Y819402D1*
X981500Y822453D1*
Y931500D1*
X1181402Y661717D2*
Y931500D1*
X1181500D1*
X1575102Y661717D2*
X1606500Y693114D1*
Y931500D1*
X1378252Y661717D2*
Y740929D1*
X1406500Y769177D1*
Y931500D1*
X1968803Y661717D2*
Y740929D1*
X2031500Y803626D1*
Y931500D1*
X1771953Y661717D2*
Y740929D1*
X1831500Y800476D1*
Y931500D1*
X727780Y2378488D2*
D14*
X462016D1*
X437016Y2353488D1*
Y1944000D1*
X462016Y1919000D1*
X519000D1*
X1694000Y2093094D2*
X1556500D1*
Y2181500D1*
X1694000Y2369000D2*
X1636008Y2311008D1*
X998823D1*
X931343Y2378488D1*
X837780D1*
X519000Y1919000D2*
Y1874130D1*
X744000D1*
Y1803323D1*
X1794000Y2181457D2*
X1869000D1*
X1194965Y1803323D2*
X1131500D1*
X742346Y1919000D2*
X656500D1*
X1639965Y1765823D2*
X1569000D1*
Y1803646D1*
X2081500Y2119449D2*
X2099000Y2101949D1*
X2169000D1*
Y2181457D1*
X933035Y1864130D2*
X794000D1*
Y1919000D1*
X2456500Y2181457D2*
Y2101949D1*
X2431500Y2076949D1*
X2044000D1*
X1993996Y2126953D1*
Y2269610D1*
X1985394Y2261008D1*
X1472346D1*
X1289433Y2078094D1*
X995654D1*
X970654Y2053094D1*
Y1919000D1*
X931500D1*
X1994000Y2369000D2*
X1993996Y2269610D1*
X2044000Y2076949D2*
X2019000Y2051949D1*
Y1803646D1*
X1993996Y2269610D2*
D3*
X1694000Y2769000D2*
D16*
X1844000D1*
X1819000Y1769197D2*
X1749472D1*
X984551Y3543606D2*
X1068764Y3627819D1*
X1462465D1*
Y3543606D1*
X1575102D1*
X1244000Y2619402D2*
X981500D1*
Y2694000D1*
X2651028Y2500890D2*
Y2619402D1*
X2581500D1*
X3331697Y2406500D2*
Y2467169D1*
X3429886D1*
X2281500Y1843803D2*
X2351028D1*
X2494000Y2969000D2*
X2496028Y2966972D1*
Y2844000D1*
X2521028Y2819000D1*
X2496028Y2794000D1*
Y2769000D1*
X2431500D1*
X2698528Y1913114D2*
Y1769197D1*
X1962248Y3119000D2*
D17*
X2119000D1*
X3331697Y2467169D2*
D20*
X3131697D1*
Y2406500D1*
X1981500Y2769000D2*
D16*
Y2703409D1*
X2351028Y1708409D2*
X2144000D1*
Y1769000D1*
X1636913Y3122504D2*
Y3194000D1*
X981500Y2619402D2*
Y2556500D1*
X1381500Y2619402D2*
X1244000D1*
X1519000Y2619000D2*
X1446430D1*
X1446029Y2619402D1*
X1381500D1*
X1736500Y2703409D2*
X1519000D1*
Y2619000D1*
X1844000Y2769000D2*
Y2703409D1*
X1831500D1*
X1736500D1*
X2431500Y2769000D2*
Y2679992D1*
X2281500D1*
Y2769000D1*
X2521028Y2819000D2*
D3*
D20*
X2869197D1*
X1831500Y2619000D2*
D16*
Y2703409D1*
X1749472Y1769197D2*
X1636717Y1881953D1*
X1244000D1*
Y1988587D1*
X2501504Y3485811D2*
Y3577819D1*
X2551504Y3627819D1*
X3345417D1*
Y3543606D1*
X1575102D2*
Y3662819D1*
X2199890D1*
X2376898Y3485811D1*
X2501504D1*
X1244098Y3178449D2*
X1291894D1*
Y2969098D1*
X1281500D1*
X1061913Y3194000D2*
D20*
Y3178449D1*
X1244098D1*
X984551Y3122504D2*
D16*
Y3131028D1*
X996028Y3142504D1*
Y3194000D1*
X1061913D1*
X981500Y2981500D2*
Y3042091D1*
X996028Y3056618D1*
Y3102504D1*
X984551Y3113980D1*
Y3122504D1*
X719000Y2856500D2*
Y2981500D1*
X981500D1*
X782425Y2558764D2*
Y2703811D1*
X732425Y2753811D1*
X719000D1*
Y2856500D1*
X981500Y2556500D2*
X782425D1*
Y2558764D1*
X2431500Y2619000D2*
Y2679992D1*
X2581500Y2619402D2*
Y2674000D1*
X2501028D1*
Y2619000D1*
X2431500D1*
X3429886Y2467169D2*
D20*
X3544197D1*
Y2406500D1*
X782425Y2558764D2*
D16*
X782780Y2229236D1*
X2431500Y1844000D2*
X2496028D1*
X2496224Y1843803D1*
X2569000D1*
X2351028D2*
Y1858803D1*
X2371028Y1878803D1*
X2431500D1*
Y1844000D1*
X1981500Y2703409D2*
Y2619402D1*
D51*
X3356500Y3375587D3*
X2045516Y3269000D3*
X1281500Y2684992D3*
X1226500Y2889732D3*
X1498394Y3454398D3*
X2218394D3*
X1231500Y2687130D3*
X1097189Y3324669D3*
X1940496Y1886953D3*
X1436500Y2768598D3*
X570535Y1803323D3*
X1106028Y3103469D3*
X613134Y2139472D3*
X1726421Y3265496D3*
X2063528Y2881303D3*
X2191028Y2831307D3*
X2791028Y2544598D3*
X2443165Y2430890D3*
X2029000Y2480890D3*
X1594000Y2544197D3*
X979000Y2194472D3*
X2410969Y3269000D3*
Y3632819D3*
X698492Y3454402D3*
X897425Y2768803D3*
X613134Y2319000D3*
X612780Y2469000D3*
X2821972Y2687492D3*
X3128921Y3194000D3*
X3136500Y2544598D3*
X3286795Y2315949D3*
X1166500Y2418394D3*
Y2011260D3*
X2343390Y3430811D3*
Y2918803D3*
X2262228Y3169000D3*
X3249295Y2406500D3*
Y2252780D3*
X2351028Y2734992D3*
X2551028D3*
X3681504Y2649024D3*
X3619000Y2486524D3*
X1984752Y3369000D3*
X2043390Y3012764D3*
Y3219000D3*
X1631500Y2843803D3*
X1741028Y2619000D3*
X879846Y2053626D3*
X1129000Y2544598D3*
X1091500Y2468390D3*
X729846Y2011520D3*
X845654Y1956500D3*
X2069965Y1694000D3*
X1443390Y2544598D3*
Y2068094D3*
X981500Y2416106D3*
X607780Y2698811D3*
X3266028Y2544598D3*
X3484886Y2315949D3*
X3428528Y2527169D3*
Y2611520D3*
X2980890Y3087764D3*
X2431500Y2480890D3*
X3303528Y2619402D3*
X4055654Y2574020D3*
X3578528Y2524024D3*
X4170654D3*
X2094000Y3406500D3*
X1768390Y3180496D3*
X1231500Y3048469D3*
X1324295Y3269000D3*
X1181500Y3048469D3*
X1163902Y3269000D3*
X1694000Y2093094D3*
X727780Y2378488D3*
X837780D3*
X1794000Y2181457D3*
X1194965Y1803323D3*
X742346Y1919000D3*
X1639965Y1765823D3*
X2081500Y2119449D3*
X933035Y1864130D3*
X3345417Y3543606D3*
X984551Y3122504D3*
X2651028Y2500890D3*
X2698528Y1769197D3*
Y1913114D3*
X1962248Y3119000D3*
X1736500Y2703409D3*
X2501504Y3485811D3*
X3429886Y2467169D3*
X2351028Y1708409D3*
Y1843803D3*
X1749472Y1769197D3*
X1981500Y2703409D3*
X1636913Y3122504D3*
X488663Y3719131D2*
D21*
X688643D1*
X2385831D2*
X3682491D1*
X484000Y3694262D2*
X664034D1*
X2410685D2*
X3682491D1*
X484000Y3669394D2*
X654513D1*
X761222D2*
X1531661D1*
X2254483D2*
X2313205D1*
X2442178D2*
X3682491D1*
X484000Y3644525D2*
X654513D1*
X742471D2*
X1024289D1*
X1502921D2*
X1531125D1*
X2279337D2*
X2338106D1*
X2458487D2*
X2507051D1*
X3385879D2*
X3682491D1*
X484000Y3619656D2*
X654513D1*
X742471D2*
X999434D1*
X1506437D2*
X1531125D1*
X1619083D2*
X2181906D1*
X2304239D2*
X2362959D1*
X2458047D2*
X2482150D1*
X3389395D2*
X3682491D1*
X484000Y3594787D2*
X512618D1*
X845987D2*
X926241D1*
X1506437D2*
X1516818D1*
X1633390D2*
X1693722D1*
X1850186D2*
X1910518D1*
X2027091D2*
X2107345D1*
X2329093D2*
X2381710D1*
X2440226D2*
X2461154D1*
X3511369D2*
X3591622D1*
X484000Y3569919D2*
X512618D1*
X861173D2*
X911055D1*
X1072013D2*
X1103194D1*
X1259610D2*
X1304757D1*
X1648575D2*
X1693722D1*
X1850186D2*
X1895333D1*
X2042277D2*
X2092159D1*
X2353946D2*
X2457541D1*
X2554777D2*
X2587423D1*
X2743887D2*
X2789034D1*
X2935978D2*
X2985861D1*
X3132853D2*
X3177999D1*
X3526554D2*
X3576437D1*
X484000Y3545050D2*
X512618D1*
X865909D2*
X906369D1*
X1062735D2*
X1103194D1*
X1259610D2*
X1300070D1*
X1653311D2*
X1693722D1*
X1850186D2*
X1890597D1*
X2047013D2*
X2087471D1*
X2243839D2*
X2256466D1*
X2378849D2*
X2457541D1*
X2545499D2*
X2587423D1*
X2743887D2*
X2784298D1*
X2940714D2*
X2981173D1*
X3137541D2*
X3177999D1*
X3531241D2*
X3571701D1*
X484000Y3520181D2*
X512618D1*
X862198D2*
X910030D1*
X1059025D2*
X1103194D1*
X1259610D2*
X1303731D1*
X1649601D2*
X1693722D1*
X1850186D2*
X1894307D1*
X2043302D2*
X2091134D1*
X2240127D2*
X2281369D1*
X2545499D2*
X2587423D1*
X2743887D2*
X2788009D1*
X2937003D2*
X2984835D1*
X3133829D2*
X3177999D1*
X3527530D2*
X3575411D1*
X484000Y3495312D2*
X512618D1*
X848526D2*
X923751D1*
X1045353D2*
X1103194D1*
X1259610D2*
X1317453D1*
X1439054D2*
X1473799D1*
X1635929D2*
X1693722D1*
X1850186D2*
X1907979D1*
X2029630D2*
X2104854D1*
X2243009D2*
X2306222D1*
X2549503D2*
X2587423D1*
X2743887D2*
X2801681D1*
X2923331D2*
X2998555D1*
X3120157D2*
X3177999D1*
X3334415D2*
X3392257D1*
X3513858D2*
X3589083D1*
X484000Y3470444D2*
X512618D1*
X826701D2*
X962570D1*
X1006534D2*
X1103194D1*
X1259610D2*
X1356270D1*
X1400235D2*
X1452266D1*
X2264542D2*
X2316573D1*
X2547891D2*
X2587423D1*
X2743887D2*
X2840499D1*
X2884463D2*
X3037374D1*
X3081339D2*
X3177999D1*
X3334415D2*
X3431075D1*
X3475041D2*
X3613399D1*
X484000Y3445575D2*
X551875D1*
X629825D2*
X650314D1*
X826701D2*
X1450215D1*
X2266543D2*
X2296798D1*
X3517325D2*
X3613399D1*
X484000Y3420706D2*
X551875D1*
X629825D2*
X663937D1*
X733047D2*
X748702D1*
X826701D2*
X1463839D1*
X2252921D2*
X2295479D1*
X3539542D2*
X3607491D1*
X484000Y3395837D2*
X551875D1*
X629825D2*
X725021D1*
X825675D2*
X1772579D1*
X3204874D2*
X3312130D1*
X3400870D2*
X3465890D1*
X3543009D2*
X3607491D1*
X484000Y3370969D2*
X551875D1*
X629825D2*
X700167D1*
X808341D2*
X1090353D1*
X1104016D2*
X1769406D1*
X1845938D2*
X1935811D1*
X3230118D2*
X3307735D1*
X3405265D2*
X3469991D1*
X3543009D2*
X3607491D1*
X484000Y3346100D2*
X551875D1*
X629825D2*
X681514D1*
X783487D2*
X1053438D1*
X1433731D2*
X1769406D1*
X1842374D2*
X1857442D1*
X3242911D2*
X3318038D1*
X3394962D2*
X3469991D1*
X3543009D2*
X3607491D1*
X629825Y3321231D2*
X650606D1*
X787394D2*
X1048311D1*
X1458634D2*
X1769406D1*
X2527139D2*
X3147970D1*
X3265030D2*
X3297970D1*
X3415030D2*
X3447970D1*
X3565030D2*
X3585470D1*
X629825Y3296362D2*
X650606D1*
X787394D2*
X1057785D1*
X1481875D2*
X1689131D1*
X2218937D2*
X2263253D1*
X2530509D2*
X2552266D1*
X2969718D2*
X3147970D1*
X3265030D2*
X3297970D1*
X3415030D2*
X3447970D1*
X3565030D2*
X3585470D1*
X629825Y3271493D2*
X650606D1*
X787394D2*
X1114962D1*
X1373234D2*
X1386001D1*
X1487979D2*
X1677803D1*
X1951261D2*
X1996602D1*
X2222354D2*
X2263253D1*
X2984806D2*
X3147970D1*
X3265030D2*
X3297970D1*
X3415030D2*
X3447970D1*
X3565030D2*
X3585470D1*
X628458Y3246625D2*
X650606D1*
X960001D2*
X970891D1*
X1535001D2*
X1545891D1*
X1951261D2*
X2002266D1*
X2222354D2*
X2263205D1*
X3127921D2*
X3147970D1*
X3265030D2*
X3297970D1*
X3415030D2*
X3447970D1*
X3565030D2*
X3585470D1*
X604483Y3221756D2*
X650606D1*
X1285879D2*
X1352999D1*
X1535001D2*
X1545891D1*
X1951261D2*
X1994454D1*
X2222354D2*
X2263205D1*
X3415030D2*
X3447970D1*
X1331534Y3196887D2*
X1352999D1*
X1535001D2*
X1545891D1*
X3415030D2*
X3447970D1*
X484000Y3172018D2*
X507541D1*
X1335879D2*
X1352962D1*
X1535001D2*
X1545891D1*
X1842374D2*
X1852928D1*
X1335879Y3147150D2*
X1352962D1*
X1535001D2*
X1545891D1*
X1842374D2*
X1861739D1*
X580167Y3122281D2*
X935567D1*
X1035001D2*
X1061007D1*
X1151066D2*
X1247921D1*
X1335879D2*
X1587911D1*
X1842374D2*
X1861739D1*
X2635001D2*
X2650391D1*
X2727970D2*
X2925949D1*
X3304874D2*
X3682491D1*
X562979Y3097412D2*
X942891D1*
X1158194D2*
X1247921D1*
X1335879D2*
X1595285D1*
X1842374D2*
X1861739D1*
X2630265D2*
X2654073D1*
X3311319D2*
X3682491D1*
X562979Y3072543D2*
X950802D1*
X1335879D2*
X1636886D1*
X3027335D2*
X3180245D1*
X3307755D2*
X3682491D1*
X562979Y3047675D2*
X937911D1*
X1335879D2*
X1612814D1*
X1713126D2*
X1744503D1*
X3006974D2*
X3196066D1*
X3291934D2*
X3682491D1*
X562979Y3022806D2*
X712618D1*
X1454874D2*
X1468819D1*
X1519181D2*
X1568819D1*
X1719181D2*
X1768819D1*
X2980509D2*
X3186642D1*
X3287979D2*
X3682491D1*
X562979Y2997937D2*
X678390D1*
X2980509D2*
X3046017D1*
X3282266D2*
X3682491D1*
X562979Y2973068D2*
X675021D1*
X2980509D2*
X3046017D1*
X3259219D2*
X3682491D1*
X562979Y2948199D2*
X675021D1*
X2980509D2*
X3046017D1*
X3234366D2*
X3682491D1*
X587394Y2923331D2*
X650606D1*
X787394D2*
X922970D1*
X1322306D2*
X1333136D1*
X1532902D2*
X1542354D1*
X2132902D2*
X2155098D1*
X2232902D2*
X2255098D1*
X2540030D2*
X2555098D1*
X2632902D2*
X2655098D1*
X2732902D2*
X2755098D1*
X2832902D2*
X2855098D1*
X2980509D2*
X3682491D1*
X587394Y2898462D2*
X650606D1*
X787394D2*
X922970D1*
X1089201D2*
X1114669D1*
X1274650D2*
X1522042D1*
X2109269D2*
X2299093D1*
X2540030D2*
X2907491D1*
X2980509D2*
X3682491D1*
X787394Y2873593D2*
X922970D1*
X1073526D2*
X1096211D1*
X1272598D2*
X1497970D1*
X2212882D2*
X2222937D1*
X2540030D2*
X2907491D1*
X2980509D2*
X3046017D1*
X3166983D2*
X3682491D1*
X787394Y2848724D2*
X1094991D1*
X1259171D2*
X1497970D1*
X1752530D2*
X1785470D1*
X3311369D2*
X3682491D1*
X787394Y2823856D2*
X1094991D1*
X1268009D2*
X1497970D1*
X1752530D2*
X1785470D1*
X3311369D2*
X3682491D1*
X787394Y2798987D2*
X859542D1*
X1040030D2*
X1090694D1*
X1322306D2*
X1398799D1*
X3013711D2*
X3046017D1*
X3311369D2*
X3682491D1*
X484000Y2774118D2*
X563790D1*
X651749D2*
X675021D1*
X773282D2*
X848751D1*
X1040030D2*
X1090694D1*
X1322306D2*
X1387814D1*
X1615030D2*
X1635470D1*
X2578654D2*
X2827413D1*
X3010782D2*
X3149825D1*
X3311369D2*
X3682491D1*
X484000Y2749249D2*
X563790D1*
X651749D2*
X675265D1*
X798135D2*
X852755D1*
X1040030D2*
X1090694D1*
X1322306D2*
X1391719D1*
X1615030D2*
X1635470D1*
X3010538D2*
X3176631D1*
X3311369D2*
X3682491D1*
X484000Y2724381D2*
X563790D1*
X651749D2*
X687277D1*
X820938D2*
X881173D1*
X913663D2*
X923003D1*
X1040030D2*
X1090694D1*
X1322306D2*
X1419601D1*
X1453409D2*
X1480685D1*
X2040030D2*
X2072970D1*
X484000Y2699512D2*
X558761D1*
X656778D2*
X725558D1*
X826407D2*
X922970D1*
X1040030D2*
X1090694D1*
X1328165D2*
X1475021D1*
X2030314D2*
X2181906D1*
X2616739D2*
X2717941D1*
X1040030Y2674643D2*
X1184201D1*
X1329337D2*
X1475021D1*
X2025479D2*
X2181906D1*
X2625479D2*
X2697238D1*
X1577530Y2649774D2*
X1622970D1*
X2040030D2*
X2072970D1*
X3102530D2*
X3147970D1*
X3730509D2*
X4342062D1*
X1577530Y2624906D2*
X1622970D1*
X2040030D2*
X2072970D1*
X2340030D2*
X2372970D1*
X2790030D2*
X2822970D1*
X2940030D2*
X2985470D1*
X3102530D2*
X3147970D1*
X4334562D2*
X4342402D1*
X484000Y2600037D2*
X632345D1*
X1577530D2*
X1622970D1*
X2040030D2*
X2072970D1*
X2340030D2*
X2372970D1*
X2790030D2*
X2822970D1*
X2940030D2*
X2985470D1*
X3102530D2*
X3147970D1*
X484000Y2575168D2*
X632345D1*
X1040030D2*
X1091475D1*
X1302530D2*
X1322970D1*
X1759073D2*
X1773012D1*
X2497159D2*
X2522970D1*
X2940030D2*
X2985470D1*
X484000Y2550299D2*
X632345D1*
X1040030D2*
X1080343D1*
X1302530D2*
X1322970D1*
X1740030D2*
X1772970D1*
X2940030D2*
X2985470D1*
X484000Y2525430D2*
X632345D1*
X1040030D2*
X1084151D1*
X1302530D2*
X1322970D1*
X1740030D2*
X1772970D1*
X2940030D2*
X2985470D1*
X3646963D2*
X3681319D1*
X3869669D2*
X3905831D1*
X4007169D2*
X4036202D1*
X1040030Y2500562D2*
X1055441D1*
X1612589D2*
X1622936D1*
X1740030D2*
X1772970D1*
X2808438D2*
X2822970D1*
X2940030D2*
X2985470D1*
X3665811D2*
X3678325D1*
X3869669D2*
X3905831D1*
X4007169D2*
X4068331D1*
X1550529Y2475693D2*
X1794991D1*
X1868009D2*
X1879562D1*
X2517130D2*
X2545138D1*
X2767862D2*
X3090841D1*
X3666739D2*
X3678360D1*
X3869669D2*
X3905831D1*
X1868009Y2450824D2*
X1884445D1*
X3034025D2*
X3089913D1*
X3660782D2*
X3678320D1*
X3869669D2*
X3905831D1*
X1029434Y2425955D2*
X1069991D1*
X1863175D2*
X1878634D1*
X3058878D2*
X3089913D1*
X3453898D2*
X3502413D1*
X3660782D2*
X3678320D1*
X1028018Y2401087D2*
X1120822D1*
X3448282D2*
X3502413D1*
X3660782D2*
X3678320D1*
X4007169D2*
X4068331D1*
X4169669D2*
X4193331D1*
X1007902Y2376218D2*
X1144406D1*
X1188566D2*
X1333126D1*
X2954434D2*
X3007491D1*
X3448282D2*
X3502413D1*
X3660782D2*
X3679122D1*
X4038566D2*
X4075021D1*
X4162979D2*
X4285909D1*
X1009025Y2351349D2*
X1333126D1*
X2952139D2*
X3032345D1*
X3442862D2*
X3452266D1*
X3517521D2*
X3539815D1*
X3623379D2*
X3696261D1*
X4062198D2*
X4075039D1*
X4162979D2*
X4285909D1*
X2936514Y2326480D2*
X3057882D1*
X4067374D2*
X4075005D1*
X4164151D2*
X4285909D1*
X4067374Y2301612D2*
X4075980D1*
X4175333D2*
X4285909D1*
X3314298Y2276743D2*
X3327268D1*
X3512394D2*
X3524231D1*
X3623379D2*
X3952902D1*
X4067374D2*
X4086739D1*
X4176261D2*
X4285909D1*
X484000Y2251874D2*
X632735D1*
X972941D2*
X1183517D1*
X1304483D2*
X1412667D1*
X2683585D2*
X2815402D1*
X2904874D2*
X2949239D1*
X3038761D2*
X3072091D1*
X3298282D2*
X3332589D1*
X3479874D2*
X3524239D1*
X3613761D2*
X3952902D1*
X4067374D2*
X4086739D1*
X4176261D2*
X4285909D1*
X484000Y2227005D2*
X632735D1*
X1014738D2*
X1183517D1*
X1304483D2*
X1387765D1*
X1616983D2*
X1782150D1*
X1929483D2*
X1957491D1*
X2030459D2*
X2065109D1*
X2687491D2*
X2815402D1*
X2904874D2*
X2949239D1*
X3038761D2*
X3097091D1*
X3290518D2*
X3332589D1*
X3479874D2*
X3524239D1*
X3613761D2*
X3952902D1*
X4067374D2*
X4086739D1*
X4176261D2*
X4285909D1*
X484000Y2202136D2*
X632735D1*
X1304483D2*
X1362911D1*
X1464054D2*
X1496017D1*
X1616983D2*
X1749874D1*
X1929483D2*
X1957491D1*
X2030459D2*
X2108517D1*
X2229483D2*
X2396017D1*
X2516983D2*
X2614522D1*
X2687491D2*
X2815402D1*
X2904874D2*
X2949239D1*
X3038761D2*
X3327315D1*
X3479874D2*
X3524239D1*
X3613761D2*
X3952902D1*
X4067374D2*
X4086739D1*
X4176261D2*
X4285909D1*
X1304483Y2177268D2*
X1338058D1*
X1439151D2*
X1496017D1*
X1616983D2*
X1745186D1*
X1929483D2*
X1957491D1*
X2030459D2*
X2108517D1*
X2229483D2*
X2396017D1*
X2516983D2*
X2614522D1*
X2687491D2*
X2815402D1*
X2904874D2*
X2949239D1*
X3038761D2*
X3319991D1*
X3479874D2*
X3524239D1*
X3613761D2*
X3952902D1*
X4067374D2*
X4086739D1*
X4176261D2*
X4285909D1*
X1304483Y2152399D2*
X1313143D1*
X1414298D2*
X1496017D1*
X1616983D2*
X1755197D1*
X1929483D2*
X1957491D1*
X2030459D2*
X2046211D1*
X2229483D2*
X2396017D1*
X2516983D2*
X2614522D1*
X2687491D2*
X2801827D1*
X2895743D2*
X2950021D1*
X3037979D2*
X3319991D1*
X3393009D2*
X3525021D1*
X3612979D2*
X3961154D1*
X4067374D2*
X4087521D1*
X4175479D2*
X4285909D1*
X968009Y2127530D2*
X1183517D1*
X1389445D2*
X1496017D1*
X1616983D2*
X1660274D1*
X1727726D2*
X1808517D1*
X1929483D2*
X1957491D1*
X2229483D2*
X2396017D1*
X2516983D2*
X2614522D1*
X2687491D2*
X2714131D1*
X2878117D2*
X2950021D1*
X3129727D2*
X3289131D1*
X3423869D2*
X3525021D1*
X3704727D2*
X3864131D1*
X4067374D2*
X4087521D1*
X4175479D2*
X4200997D1*
X4262003D2*
X4285909D1*
X1364542Y2102661D2*
X1409786D1*
X1476993D2*
X1496017D1*
X1741983D2*
X1808517D1*
X1929483D2*
X1967745D1*
X2516983D2*
X2614522D1*
X2687491D2*
X2714131D1*
X2853214D2*
X2953781D1*
X3145353D2*
X3289131D1*
X3423869D2*
X3528781D1*
X3720353D2*
X3864131D1*
X4067374D2*
X4087521D1*
X484000Y2077793D2*
X492598D1*
X1339689D2*
X1395430D1*
X1740421D2*
X1992598D1*
X2482902D2*
X2614522D1*
X2687491D2*
X2714131D1*
X2848869D2*
X2974923D1*
X3148770D2*
X3289131D1*
X3423869D2*
X3549923D1*
X3723770D2*
X3864131D1*
X4067374D2*
X4087521D1*
X1314786Y2052924D2*
X1396945D1*
X1616983D2*
X1668087D1*
X1719913D2*
X1808517D1*
X1929483D2*
X1982541D1*
X2516983D2*
X2614522D1*
X2687491D2*
X2714131D1*
X2848869D2*
X2999777D1*
X3171231D2*
X3289131D1*
X3423869D2*
X3566769D1*
X3717277D2*
X3864131D1*
X4067374D2*
X4090743D1*
X1304483Y2028055D2*
X1417257D1*
X1469522D2*
X1496017D1*
X1616983D2*
X1808517D1*
X1929483D2*
X1982491D1*
X2055509D2*
X2108517D1*
X2229483D2*
X2396017D1*
X2516983D2*
X2614522D1*
X2687491D2*
X2714131D1*
X2848869D2*
X3042209D1*
X3196134D2*
X3289131D1*
X3423869D2*
X3541866D1*
X3695791D2*
X3864131D1*
X4067374D2*
X4122335D1*
X569669Y2003186D2*
X605831D1*
X1304483D2*
X1496017D1*
X1616983D2*
X1808517D1*
X1929483D2*
X1982491D1*
X2055509D2*
X2108517D1*
X2229483D2*
X2396017D1*
X2516983D2*
X2614522D1*
X2687491D2*
X3098654D1*
X3639346D2*
X3994406D1*
X569669Y1978318D2*
X605831D1*
X1304483D2*
X1496017D1*
X1616983D2*
X1808517D1*
X1929483D2*
X1982491D1*
X2055509D2*
X2108517D1*
X2229483D2*
X2396017D1*
X2516983D2*
X2614522D1*
X2687491D2*
X3123507D1*
X3614493D2*
X4005098D1*
X569669Y1953449D2*
X605831D1*
X1107169D2*
X1183517D1*
X1304483D2*
X1496017D1*
X1616983D2*
X1808517D1*
X1929483D2*
X1982491D1*
X2055509D2*
X2108517D1*
X2229483D2*
X2396017D1*
X2516983D2*
X2614522D1*
X2724161D2*
X3148361D1*
X3589639D2*
X4030001D1*
X4323282D2*
X4350850D1*
X569669Y1928580D2*
X605831D1*
X1107169D2*
X1183517D1*
X1304483D2*
X1496017D1*
X1616983D2*
X1808517D1*
X1963711D2*
X1982491D1*
X2055509D2*
X2108517D1*
X2229483D2*
X2396017D1*
X2744865D2*
X3179806D1*
X3558194D2*
X4351193D1*
X844669Y1903711D2*
X880831D1*
X1107169D2*
X1183517D1*
X1676114D2*
X1786837D1*
X2055509D2*
X2108517D1*
X2229483D2*
X2334786D1*
X2746573D2*
X4351486D1*
X982169Y1878843D2*
X1005831D1*
X1107169D2*
X1200118D1*
X1701017D2*
X1760470D1*
X2055509D2*
X2085470D1*
X2742521D2*
X4351827D1*
X1193986Y1853974D2*
X1210861D1*
X1725870D2*
X1760470D1*
X2742521D2*
X4352121D1*
X484000Y1829105D2*
X529318D1*
X806486D2*
X891182D1*
X1236173D2*
X1334298D1*
X1750723D2*
X1760454D1*
X2742521D2*
X4352462D1*
X484000Y1804236D2*
X521554D1*
X806486D2*
X866329D1*
X1243937D2*
X1309445D1*
X2742521D2*
X4352755D1*
X484000Y1779367D2*
X528194D1*
X806486D2*
X841475D1*
X1237295D2*
X1284591D1*
X2340030D2*
X2372970D1*
X2490030D2*
X2510470D1*
X2746378D2*
X4353097D1*
X484000Y1754499D2*
X581514D1*
X806486D2*
X816622D1*
X938957D2*
X969014D1*
X1193986D2*
X1259689D1*
X1382071D2*
X1406514D1*
X2359651D2*
X2372961D1*
X2745157D2*
X4353390D1*
X1357169Y1729630D2*
X1425021D1*
X2725430D2*
X4353682D1*
X2528001Y3251996D2*
X2539508Y3252193D1*
X2539613Y3270664D1*
X2540448Y3275933D1*
X2542096Y3281008D1*
X2544518Y3285761D1*
X2547654Y3290077D1*
X2551427Y3293850D1*
X2555743Y3296986D1*
X2560496Y3299408D1*
X2565571Y3301056D1*
X2570840Y3301891D1*
X2673508Y3301996D1*
X2951176Y3301891D1*
X2956445Y3301056D1*
X2961520Y3299408D1*
X2966273Y3296986D1*
X2970589Y3293850D1*
X2974362Y3290077D1*
X2977497Y3285761D1*
X2979920Y3281008D1*
X2981568Y3275933D1*
X2982403Y3270664D1*
X2982508Y3252029D1*
X3125421Y3251996D1*
Y3240325D1*
X3132570Y3240357D1*
X3139777Y3239215D1*
X3146717Y3236961D1*
X3150467Y3235188D1*
X3150472Y3333591D1*
X3168881D1*
X3156500Y3335000D1*
X2513580D1*
X2521507Y3326484D1*
X2524294Y3321936D1*
X2526336Y3317007D1*
X2527581Y3311819D1*
X2528000Y3306500D1*
Y3251959D1*
X2755450Y3136004D2*
X2720881D1*
X2720913Y3126861D1*
X2736913Y3121764D1*
X2928954D1*
X2921001Y3130280D1*
X2918052Y3135178D1*
X2907508Y3136004D1*
X2755492Y3136052D1*
X2652912Y3136004D2*
X2632501D1*
X2632403Y3112025D1*
X2631568Y3106756D1*
X2629920Y3101681D1*
X2627497Y3096928D1*
X2624362Y3092612D1*
X2620589Y3088839D1*
X2616273Y3085703D1*
X2613631Y3084255D1*
X2667369Y3084264D1*
X2659407Y3092780D1*
X2656619Y3097328D1*
X2654577Y3102257D1*
X2653332Y3107445D1*
X2652913Y3112764D1*
Y3135957D1*
X940076Y3136004D2*
X889100D1*
X881824Y3132819D1*
X875492Y3131298D1*
X869000Y3130787D1*
X586139D1*
X560470Y3105067D1*
X560500Y2932199D1*
X584870Y2932213D1*
Y2897984D1*
X611035Y2897873D1*
X617467Y2896853D1*
X623661Y2894841D1*
X629463Y2891885D1*
X634732Y2888056D1*
X639336Y2883453D1*
X643164Y2878184D1*
X646121Y2872382D1*
X648133Y2866188D1*
X649152Y2859756D1*
X649280Y2794000D1*
Y2719831D1*
X652004Y2713180D1*
X653707Y2706085D1*
X654280Y2698811D1*
X654060Y2694525D1*
X733055Y2694516D1*
X715067Y2712480D1*
X709312Y2713458D1*
X703118Y2715470D1*
X697316Y2718427D1*
X692047Y2722255D1*
X687444Y2726858D1*
X683615Y2732127D1*
X680659Y2737929D1*
X678647Y2744123D1*
X677627Y2750555D1*
X677500Y2780812D1*
X653130Y2780787D1*
Y2932213D1*
X677495D1*
X677627Y2984756D1*
X678647Y2991188D1*
X680659Y2997382D1*
X683615Y3003184D1*
X687444Y3008451D1*
X692049Y3013056D1*
X697316Y3016885D1*
X703118Y3019841D1*
X709312Y3021853D1*
X715744Y3022873D1*
X781500Y3023000D1*
X925495D1*
X925472Y3033591D1*
X939975D1*
X940127Y3045346D1*
X941147Y3051778D1*
X943159Y3057972D1*
X946115Y3063774D1*
X949944Y3069043D1*
X952407Y3071669D1*
X954528Y3081618D1*
Y3085378D1*
X950976Y3089587D1*
X944903Y3098207D1*
X941591Y3104709D1*
X939336Y3111648D1*
X938194Y3118856D1*
Y3126152D1*
X939336Y3133360D1*
X940083Y3136008D1*
X1150421Y3139155D2*
Y3136004D1*
X1139240D1*
X1143647Y3130801D1*
X1147459Y3124579D1*
X1150252Y3117837D1*
X1151955Y3110743D1*
X1152215Y3108547D1*
X1154274Y3103496D1*
X1155678Y3097651D1*
X1156150Y3091657D1*
Y3087409D1*
X1163705Y3091429D1*
X1170644Y3093684D1*
X1177852Y3094825D1*
X1185148D1*
X1192356Y3093684D1*
X1199295Y3091429D1*
X1206472Y3087664D1*
X1213705Y3091429D1*
X1220644Y3093684D1*
X1227852Y3094825D1*
X1235148D1*
X1242356Y3093684D1*
X1250396Y3090921D1*
X1250394Y3131257D1*
X1204803Y3131280D1*
Y3139140D1*
X1150398Y3139154D1*
X1072833Y3136004D2*
X1036993D1*
X1035496Y3129680D1*
X1032824Y3123341D1*
X1033004Y3121345D1*
X1035496Y3115328D1*
X1037017Y3108996D1*
X1037528Y3102504D1*
Y3093667D1*
X1061878Y3118009D1*
X1064596Y3124579D1*
X1068408Y3130801D1*
X1072828Y3136004D1*
X1301996Y2251991D2*
Y2138709D1*
X1415272Y2252017D1*
X1302033Y2252008D1*
X1186004Y2112084D2*
Y2140013D1*
X988717Y2140127D1*
X982285Y2141147D1*
X976091Y2143159D1*
X970289Y2146115D1*
X967290Y2148155D1*
X965500Y2148508D1*
Y2096017D1*
X973572Y2103949D1*
X977888Y2107084D1*
X982642Y2109507D1*
X987717Y2111155D1*
X992986Y2111990D1*
X1170654Y2112094D1*
X1186034D1*
X1186004Y2223021D2*
Y2252025D1*
X970587Y2252008D1*
X971726Y2240400D1*
X979000Y2240972D1*
X986274Y2240400D1*
X993369Y2238697D1*
X1000110Y2235904D1*
X1006332Y2232092D1*
X1011881Y2227353D1*
X1015692Y2222980D1*
X1185967Y2223000D1*
X1301996Y2046479D2*
Y1923432D1*
X1498541Y1923453D1*
X1498504Y2034112D1*
X1475104Y2034094D1*
X1467686Y2028446D1*
X1461185Y2025134D1*
X1454245Y2022879D1*
X1447038Y2021738D1*
X1439741D1*
X1432534Y2022879D1*
X1425594Y2025134D1*
X1419093Y2028446D1*
X1413190Y2032736D1*
X1408031Y2037895D1*
X1403741Y2043798D1*
X1400429Y2050299D1*
X1398175Y2057239D1*
X1397033Y2064446D1*
Y2071743D1*
X1398175Y2078950D1*
X1400429Y2085890D1*
X1403741Y2092391D1*
X1408031Y2098294D1*
X1413190Y2103453D1*
X1419093Y2107743D1*
X1425594Y2111055D1*
X1432534Y2113310D1*
X1439741Y2114451D1*
X1447038D1*
X1454245Y2113310D1*
X1461185Y2111055D1*
X1467686Y2107743D1*
X1473589Y2103453D1*
X1475066Y2102088D1*
X1498517Y2102094D1*
X1498504Y2227025D1*
X1486419Y2227008D1*
X1311514Y2052240D1*
X1307198Y2049105D1*
X1302083Y2046549D1*
X1202533Y1900079D2*
X1186004D1*
Y1969072D1*
X1180869Y1967035D1*
X1173774Y1965332D1*
X1166500Y1964760D1*
X1159226Y1965332D1*
X1152131Y1967035D1*
X1145390Y1969828D1*
X1139168Y1973640D1*
X1134824Y1977266D1*
X1104635Y1977260D1*
X1104654Y1873118D1*
X1191465Y1873130D1*
Y1849643D1*
X1198613Y1849680D1*
X1205820Y1848538D1*
X1212760Y1846283D1*
X1219261Y1842971D1*
X1225164Y1838681D1*
X1230323Y1833522D1*
X1234613Y1827619D1*
X1237925Y1821118D1*
X1240180Y1814178D1*
X1241322Y1806971D1*
Y1799675D1*
X1240180Y1792467D1*
X1237925Y1785528D1*
X1234613Y1779026D1*
X1230323Y1773123D1*
X1225164Y1767965D1*
X1219261Y1763675D1*
X1212760Y1760362D1*
X1205820Y1758108D1*
X1198613Y1756966D1*
X1191472Y1756961D1*
X1191465Y1740463D1*
X1248248Y1740500D1*
X1343072Y1835202D1*
X1348661Y1839210D1*
X1349217Y1840453D1*
X1240744Y1840580D1*
X1234312Y1841600D1*
X1228118Y1843612D1*
X1222316Y1846568D1*
X1217047Y1850396D1*
X1212444Y1855000D1*
X1208615Y1860269D1*
X1205659Y1866071D1*
X1203647Y1872265D1*
X1202627Y1878697D1*
X1202500Y1900068D1*
X1367552Y3251996D2*
X1402513D1*
X1402500Y3257525D1*
X1376780Y3283199D1*
X1368560Y3283169D1*
X1370223Y3276274D1*
X1370795Y3269000D1*
X1370223Y3261726D1*
X1368520Y3254631D1*
X1367547Y3251995D1*
X1037528Y2577878D2*
Y2429606D1*
X1025955D1*
X1027428Y2423381D1*
X1028000Y2416106D1*
X1027428Y2408832D1*
X1025724Y2401738D1*
X1022932Y2394996D1*
X1019119Y2388774D1*
X1014381Y2383226D1*
X1008832Y2378487D1*
X1002610Y2374675D1*
X995869Y2371882D1*
X987825Y2370067D1*
X1012940Y2344974D1*
X1335591Y2345008D1*
X1335610Y2384390D1*
X1198248Y2384394D1*
X1190797Y2378745D1*
X1184295Y2375433D1*
X1177356Y2373178D1*
X1170148Y2372037D1*
X1162852D1*
X1155644Y2373178D1*
X1148705Y2375433D1*
X1142203Y2378745D1*
X1136301Y2383035D1*
X1131142Y2388194D1*
X1126852Y2394097D1*
X1123539Y2400598D1*
X1121285Y2407538D1*
X1120143Y2414745D1*
Y2422042D1*
X1121285Y2429249D1*
X1122696Y2433900D1*
X1115797Y2428741D1*
X1109295Y2425429D1*
X1102356Y2423175D1*
X1095148Y2422033D1*
X1087852D1*
X1080644Y2423175D1*
X1073705Y2425429D1*
X1067203Y2428741D1*
X1061301Y2433031D1*
X1056142Y2438190D1*
X1051852Y2444093D1*
X1048539Y2450594D1*
X1046285Y2457534D1*
X1045143Y2464741D1*
Y2472038D1*
X1046285Y2479245D1*
X1048539Y2486185D1*
X1051852Y2492686D1*
X1056142Y2498589D1*
X1061301Y2503748D1*
X1067203Y2508038D1*
X1073705Y2511350D1*
X1080644Y2513605D1*
X1087852Y2514747D1*
X1093281Y2514820D1*
X1089352Y2520302D1*
X1086039Y2526803D1*
X1083785Y2533743D1*
X1082643Y2540950D1*
Y2548247D1*
X1083785Y2555454D1*
X1086039Y2562394D1*
X1089352Y2568895D1*
X1093642Y2574798D1*
X1096591Y2577915D1*
X1037505Y2577902D1*
X1037480Y2746091D2*
X1037528Y2660886D1*
X1187995Y2660902D1*
X1187972Y2670757D1*
X1185572Y2679856D1*
X1185000Y2687130D1*
X1185138Y2690622D1*
X1093189Y2690630D1*
Y2822370D1*
X1097535D1*
X1097605Y2867400D1*
X1098440Y2872669D1*
X1100088Y2877744D1*
X1102510Y2882497D1*
X1105646Y2886814D1*
X1121925Y2903240D1*
X1093189Y2903228D1*
X1092958Y2939966D1*
X1088466Y2944522D1*
X1087528Y2943469D1*
X1087400Y2903441D1*
X1086381Y2897009D1*
X1084369Y2890815D1*
X1081412Y2885013D1*
X1077584Y2879744D1*
X1072980Y2875140D1*
X1067711Y2871312D1*
X1061909Y2868356D1*
X1055715Y2866344D1*
X1049283Y2865324D1*
X1037483Y2865197D1*
X1037528Y2854606D1*
X925472D1*
Y2940007D1*
X760455Y2940000D1*
X765630Y2932213D1*
X784870D1*
Y2780787D1*
X764118D1*
X813982Y2730764D1*
X817810Y2725495D1*
X820766Y2719693D1*
X822778Y2713499D1*
X823798Y2707067D1*
X823925Y2694484D1*
X925490Y2694516D1*
X925472Y2727310D1*
X918365Y2727303D1*
X911794Y2724579D1*
X904699Y2722875D1*
X897425Y2722303D1*
X890151Y2722875D1*
X883056Y2724579D1*
X876315Y2727371D1*
X870093Y2731184D1*
X864545Y2735923D1*
X859806Y2741471D1*
X855993Y2747693D1*
X853201Y2754434D1*
X851497Y2761529D1*
X850925Y2768803D1*
X851497Y2776077D1*
X853201Y2783172D1*
X855993Y2789913D1*
X859806Y2796135D1*
X864545Y2801684D1*
X870093Y2806423D1*
X876315Y2810235D1*
X883056Y2813028D1*
X890151Y2814731D1*
X897425Y2815303D1*
X904699Y2814731D1*
X911794Y2813028D1*
X918419Y2810289D1*
X925501Y2810303D1*
X925472Y2820894D1*
X1037528D1*
X1037479Y2716713D1*
X1614496Y2226990D2*
Y2127088D1*
X1662311Y2127094D1*
X1666668Y2130714D1*
X1672890Y2134526D1*
X1679631Y2137319D1*
X1686726Y2139022D1*
X1694000Y2139594D1*
X1701274Y2139022D1*
X1708369Y2137319D1*
X1715110Y2134526D1*
X1721332Y2130714D1*
X1726881Y2125975D1*
X1731619Y2120427D1*
X1735432Y2114205D1*
X1738224Y2107463D1*
X1739928Y2100369D1*
X1740500Y2093094D1*
X1739928Y2085820D1*
X1738224Y2078726D1*
X1735432Y2071984D1*
X1731619Y2065762D1*
X1726881Y2060214D1*
X1721332Y2055475D1*
X1715110Y2051663D1*
X1708369Y2048870D1*
X1701274Y2047167D1*
X1694000Y2046594D1*
X1686726Y2047167D1*
X1679631Y2048870D1*
X1672890Y2051663D1*
X1666668Y2055475D1*
X1662324Y2059101D1*
X1614459Y2059094D1*
X1614496Y1923432D1*
X1639972Y1923325D1*
X1646404Y1922306D1*
X1652598Y1920294D1*
X1658400Y1917337D1*
X1663669Y1913509D1*
X1710256Y1867104D1*
X1762978Y1814382D1*
X1762972Y1896091D1*
X1786264D1*
X1788706Y1902526D1*
X1791493Y1907075D1*
X1794958Y1911133D1*
X1799016Y1914597D1*
X1803564Y1917385D1*
X1808865Y1919531D1*
X1811004Y1925035D1*
Y2077051D1*
X1926996D1*
Y1931495D1*
X1933222Y1932881D1*
X1940496Y1933453D1*
X1947770Y1932881D1*
X1954865Y1931177D1*
X1961606Y1928385D1*
X1967828Y1924572D1*
X1973377Y1919833D1*
X1978115Y1914285D1*
X1981928Y1908063D1*
X1985010Y1900293D1*
X1985105Y2054617D1*
X1985940Y2059886D1*
X1987588Y2064961D1*
X1990010Y2069714D1*
X1993146Y2074030D1*
X1995959Y2076992D1*
X1968142Y2104871D1*
X1965007Y2109188D1*
X1962584Y2113941D1*
X1960936Y2119016D1*
X1960101Y2124285D1*
X1959996Y2227001D1*
X1927045Y2227008D1*
X1926996Y2092949D1*
X1811004D1*
Y2138213D1*
X1804856Y2136241D1*
X1797648Y2135100D1*
X1790352D1*
X1783144Y2136241D1*
X1776205Y2138496D1*
X1769703Y2141808D1*
X1763801Y2146098D1*
X1758642Y2151257D1*
X1754352Y2157160D1*
X1751039Y2163661D1*
X1748785Y2170601D1*
X1747643Y2177808D1*
Y2185105D1*
X1748785Y2192312D1*
X1751039Y2199252D1*
X1754352Y2205753D1*
X1758642Y2211656D1*
X1763801Y2216815D1*
X1769703Y2221105D1*
X1776205Y2224417D1*
X1784894Y2227020D1*
X1614545Y2227008D1*
X2226996Y2226948D2*
Y2110932D1*
X2398541Y2110949D1*
X2398504Y2226982D1*
X2226955Y2226965D1*
X2111004Y2155400D2*
Y2226982D1*
X2066332Y2227070D1*
X2061063Y2227904D1*
X2055988Y2229552D1*
X2051235Y2231975D1*
X2046919Y2235110D1*
X2028005Y2253875D1*
X2027996Y2141046D1*
X2036786Y2132247D1*
X2040068Y2140559D1*
X2043881Y2146781D1*
X2048619Y2152329D1*
X2054168Y2157068D1*
X2060390Y2160881D1*
X2067131Y2163673D1*
X2074226Y2165377D1*
X2081500Y2165949D1*
X2088774Y2165377D1*
X2095869Y2163673D1*
X2102610Y2160881D1*
X2108832Y2157068D1*
X2110993Y2155364D1*
X2226996Y2042920D2*
Y1900035D1*
X2219916D1*
X2225472Y1895894D1*
X2329475D1*
X2344075Y1910360D1*
X2349344Y1914188D1*
X2355146Y1917144D1*
X2361340Y1919156D1*
X2367772Y1920176D1*
X2398518Y1920303D1*
X2398504Y2042955D1*
X2226959Y2042949D1*
X2135151Y1900035D2*
X2111004D1*
Y2042955D1*
X2058112Y2042949D1*
X2053000Y2026949D1*
Y1873482D1*
X2078356Y1873453D1*
X2084458Y1876139D1*
X2087406Y1876940D1*
X2087972Y1879213D1*
Y1895894D1*
X2135776D1*
X2135373Y1897974D1*
X2514496Y2226948D2*
Y2092949D1*
X2489252D1*
X2486794Y2086513D1*
X2484007Y2081965D1*
X2479678Y2077045D1*
X2514496Y2077051D1*
Y1931104D1*
X2617017Y1931091D1*
X2617028Y2221945D1*
X2601028Y2226965D1*
X2514455D1*
X1864252Y3084001D2*
Y3163201D1*
X1842535Y3185033D1*
X1840669Y3187450D1*
X1839890Y3181500D1*
X1839883Y3069827D1*
X1848409Y3077770D1*
X1852958Y3080558D1*
X1857887Y3082600D1*
X1863458Y3083891D1*
X1739853Y3061004D2*
X1730394D1*
Y3067400D1*
X1690283Y3027302D1*
X1698581Y3027210D1*
X1707631Y3025777D1*
X1716345Y3022945D1*
X1724509Y3018786D1*
X1731921Y3013400D1*
X1738400Y3006921D1*
X1743987Y2999150D1*
X1749600Y3006921D1*
X1756079Y3013400D1*
X1763491Y3018786D1*
X1771655Y3022945D1*
X1780369Y3025777D1*
X1789419Y3027210D1*
X1798581D1*
X1807631Y3025777D1*
X1809407Y3025276D1*
X1809812Y3030583D1*
X1811209Y3036423D1*
X1805890Y3036004D1*
X1769974Y3036109D1*
X1764705Y3036944D1*
X1759630Y3038592D1*
X1754877Y3041014D1*
X1750560Y3044150D1*
X1746787Y3047923D1*
X1743652Y3052239D1*
X1741230Y3056992D1*
X1740201Y3059869D1*
X1008346Y1873151D2*
Y2042722D1*
X1004654Y2028094D1*
X1004549Y1916332D1*
X1003714Y1911063D1*
X1002066Y1905988D1*
X999643Y1901235D1*
X996508Y1896919D1*
X992735Y1893146D1*
X988419Y1890010D1*
X983665Y1887588D1*
X980789Y1886559D1*
X979654Y1882606D1*
Y1873085D1*
X1008303Y1873130D1*
X1948748Y3272552D2*
Y3203021D1*
X1999717Y3203000D1*
X1997462Y3211726D1*
X1996890Y3219000D1*
X1997462Y3226274D1*
X1999165Y3233369D1*
X2001958Y3240110D1*
X2005303Y3245633D1*
X2002555Y3251205D1*
X2000301Y3258144D1*
X1999159Y3265352D1*
X1999154Y3272520D1*
X1948711Y3272500D1*
X3867119Y2495106D2*
X3867154Y2450526D1*
X3908371Y2450500D1*
X3908346Y2544642D1*
X3867193Y2544626D1*
X3867105Y2485413D1*
X567119Y1970106D2*
X567154Y1908143D1*
X608307Y1908130D1*
X608346Y2019642D1*
X567199Y2019626D1*
X567105Y1960413D1*
X481442Y2062626D2*
X486227D1*
X488706Y2069062D1*
X491493Y2073610D1*
X494958Y2077668D1*
X499016Y2081133D1*
X503564Y2083920D1*
X508493Y2085962D1*
X513681Y2087207D1*
X519000Y2087626D1*
X848151D1*
X852514Y2091245D1*
X855936Y2093490D1*
X635217Y2093484D1*
Y2098513D1*
X627503Y2095248D1*
X620408Y2093545D1*
X613134Y2092972D1*
X605860Y2093545D1*
X599630Y2095004D1*
X599634Y2093287D1*
X481518D1*
X481500Y2062604D1*
X486664Y2064133D1*
X488706Y2069062D1*
X491493Y2073610D1*
X494958Y2077668D1*
X499016Y2081133D1*
X503564Y2083920D1*
X508493Y2085962D1*
X513681Y2087207D1*
X519344Y2087613D1*
X3036248Y2251948D2*
Y2161004D1*
X3035516D1*
X3035500Y2137017D1*
X3043361Y2133993D1*
X3052042Y2139314D1*
X3061449Y2143210D1*
X3071349Y2145587D1*
X3081500Y2146386D1*
X3091651Y2145587D1*
X3101551Y2143210D1*
X3110958Y2139314D1*
X3119639Y2133993D1*
X3127381Y2127381D1*
X3133993Y2119639D1*
X3139314Y2110958D1*
X3143210Y2101551D1*
X3145587Y2091651D1*
X3146386Y2081500D1*
X3146201Y2075490D1*
X3212112Y2009579D1*
X3525990Y2009614D1*
X3573259Y2056949D1*
X3537444Y2092933D1*
X3533615Y2098202D1*
X3530659Y2104004D1*
X3528647Y2110198D1*
X3527627Y2116630D1*
X3527500Y2161049D1*
X3526752Y2161004D1*
Y2276996D1*
X3542328D1*
X3542303Y2281915D1*
X3516608Y2281949D1*
X3509182Y2276301D1*
X3502681Y2272988D1*
X3495741Y2270734D1*
X3488534Y2269592D1*
X3481238D1*
X3477402Y2270063D1*
X3477390Y2161004D1*
X3392894D1*
Y2169451D1*
X3390500Y2156087D1*
Y2146370D1*
X3421386Y2146386D1*
Y2016614D1*
X3291614D1*
Y2146386D1*
X3322522D1*
X3322605Y2183755D1*
X3323440Y2189024D1*
X3325088Y2194098D1*
X3327510Y2198852D1*
X3330646Y2203168D1*
X3335115Y2207786D1*
X3335098Y2268734D1*
X3329803Y2268780D1*
X3329756Y2298154D1*
X3326444Y2291652D1*
X3322154Y2285749D1*
X3316995Y2280591D1*
X3311092Y2276301D1*
X3304591Y2272988D1*
X3297651Y2270734D1*
X3292554Y2269843D1*
X3294510Y2263635D1*
X3295652Y2256428D1*
Y2249131D1*
X3294510Y2241924D1*
X3292256Y2234984D1*
X3288944Y2228483D1*
X3284654Y2222580D1*
X3279495Y2217421D1*
X3273592Y2213131D1*
X3267091Y2209819D1*
X3260151Y2207564D1*
X3252944Y2206423D1*
X3245647D1*
X3238440Y2207564D1*
X3231500Y2209819D1*
X3224999Y2213131D1*
X3219096Y2217421D1*
X3217619Y2218786D1*
X3119076Y2218885D1*
X3113807Y2219719D1*
X3108732Y2221367D1*
X3103979Y2223790D1*
X3099663Y2226925D1*
X3074466Y2251974D1*
X3036264Y2251965D1*
X2952531Y2161004D2*
X2951752D1*
Y2251971D1*
X2902378Y2251965D1*
X2902390Y2161004D1*
X2894138D1*
X2893723Y2154823D1*
X2892478Y2149635D1*
X2890436Y2144706D1*
X2887648Y2140157D1*
X2884184Y2136100D1*
X2846377Y2098293D1*
X2846386Y2016614D1*
X2716614D1*
Y2146386D1*
X2798303D1*
X2817915Y2165997D1*
X2817894Y2251971D1*
X2680991Y2251965D1*
X2683364Y2246471D1*
X2684609Y2241283D1*
X2685028Y2235965D1*
Y1957596D1*
X2691253Y1959042D1*
X2698528Y1959614D1*
X2705802Y1959042D1*
X2712896Y1957339D1*
X2719638Y1954546D1*
X2725860Y1950734D1*
X2731408Y1945995D1*
X2736147Y1940446D1*
X2739959Y1934224D1*
X2742752Y1927483D1*
X2744455Y1920388D1*
X2745028Y1913114D1*
X2744455Y1905840D1*
X2742752Y1898745D1*
X2740013Y1892121D1*
X2740028Y1790214D1*
X2742752Y1783566D1*
X2744455Y1776471D1*
X2745028Y1769197D1*
X2744455Y1761923D1*
X2742752Y1754828D1*
X2739959Y1748087D1*
X2736147Y1741865D1*
X2731408Y1736316D1*
X2725860Y1731577D1*
X2719638Y1727765D1*
X2712896Y1724972D1*
X2710522Y1724303D1*
X4356374Y1719041D1*
X4352933Y1988203D1*
X4349892Y1983130D1*
X4346428Y1979072D1*
X4319467Y1952260D1*
X4315151Y1949125D1*
X4310398Y1946702D1*
X4305323Y1945054D1*
X4300054Y1944219D1*
X4197386Y1944114D1*
X4053222Y1944219D1*
X4047953Y1945054D1*
X4042878Y1946702D1*
X4038125Y1949125D1*
X4033808Y1952260D1*
X4006848Y1979072D1*
X4003383Y1983130D1*
X4000596Y1987678D1*
X3998554Y1992608D1*
X3997308Y1997795D1*
X3996890Y2003114D1*
Y2086366D1*
X3996386Y2083886D1*
Y2004114D1*
X3866614D1*
Y2133886D1*
X3948303D1*
X3963633Y2149217D1*
X3963642Y2173472D1*
X3955394Y2173504D1*
Y2281951D1*
X3620933Y2281949D1*
X3620894Y2268780D1*
X3611274D1*
X3611248Y2161004D1*
X3610516D1*
X3610500Y2137017D1*
X3618361Y2133993D1*
X3627042Y2139314D1*
X3636449Y2143210D1*
X3646349Y2145587D1*
X3656500Y2146386D1*
X3666651Y2145587D1*
X3676551Y2143210D1*
X3685958Y2139314D1*
X3694639Y2133993D1*
X3702381Y2127381D1*
X3708993Y2119639D1*
X3714314Y2110958D1*
X3718210Y2101551D1*
X3720587Y2091651D1*
X3721386Y2081500D1*
X3720587Y2071349D1*
X3718210Y2061449D1*
X3714314Y2052042D1*
X3708993Y2043361D1*
X3702381Y2035619D1*
X3694639Y2029007D1*
X3685958Y2023686D1*
X3676551Y2019790D1*
X3666651Y2017413D1*
X3656500Y2016614D1*
X3650490Y2016799D1*
X3570067Y1936558D1*
X3564798Y1932730D1*
X3558996Y1929773D1*
X3552802Y1927761D1*
X3546370Y1926741D1*
X3480614Y1926614D1*
X3191630Y1926741D1*
X3185198Y1927761D1*
X3179004Y1929773D1*
X3173202Y1932730D1*
X3167933Y1936558D1*
X3121346Y1982963D1*
X3087407Y2016903D1*
X3076409Y2016814D1*
X3066353Y2018407D1*
X3056669Y2021554D1*
X3047597Y2026176D1*
X3039360Y2032160D1*
X3031631Y2040031D1*
X3025894Y2040510D1*
X3019562Y2042031D1*
X3013545Y2044524D1*
X3007992Y2047925D1*
X3003041Y2052155D1*
X2962444Y2092933D1*
X2958615Y2098202D1*
X2955659Y2104004D1*
X2953647Y2110198D1*
X2952627Y2116630D1*
X2952500Y2161049D1*
X4004619Y2495106D2*
X4004654Y2485487D1*
X4070807Y2485500D1*
X4070846Y2502845D1*
X4065148Y2504184D1*
X4060219Y2506226D1*
X4055671Y2509013D1*
X4051613Y2512478D1*
X4029560Y2534743D1*
X4020295Y2543820D1*
X4016005Y2549723D1*
X4012693Y2556224D1*
X4010438Y2563164D1*
X4009297Y2570371D1*
X4009291Y2577539D1*
X4004654Y2575126D1*
Y2485491D1*
Y2402479D2*
Y2392894D1*
X3994741D1*
X4008558Y2392230D1*
X4013827Y2391395D1*
X4018902Y2389747D1*
X4023655Y2387324D1*
X4027971Y2384189D1*
X4054932Y2357377D1*
X4058396Y2353319D1*
X4061184Y2348770D1*
X4063226Y2343841D1*
X4064471Y2338654D1*
X4064890Y2333335D1*
Y2017172D1*
X4080890Y2012114D1*
X4200274D1*
X4193361Y2016507D1*
X4185619Y2023119D1*
X4181500Y2027500D1*
X4128244Y2027627D1*
X4121812Y2028647D1*
X4115618Y2030659D1*
X4109816Y2033615D1*
X4104547Y2037444D1*
X4099944Y2042047D1*
X4096115Y2047316D1*
X4093159Y2053118D1*
X4091147Y2059312D1*
X4090127Y2065744D1*
X4090000Y2131500D1*
Y2173541D1*
X4089252Y2173504D1*
Y2281560D1*
X4085425Y2286102D1*
X4082024Y2291655D1*
X4079531Y2297672D1*
X4078010Y2304004D1*
X4077500Y2310496D1*
Y2392869D1*
X4070846Y2392894D1*
Y2402513D1*
X4004693Y2402500D1*
X4005890Y2392335D1*
X4011209Y2391916D1*
X4016396Y2390671D1*
X4021325Y2388629D1*
X4025874Y2385841D1*
X4029932Y2382377D1*
X842154Y1910097D2*
Y1898085D1*
X883307Y1898130D1*
X883273Y1929168D1*
X878534Y1923619D1*
X872986Y1918881D1*
X866764Y1915068D1*
X860022Y1912276D1*
X852928Y1910572D1*
X845654Y1910000D1*
X842161Y1910138D1*
X4167154Y2402479D2*
Y2392894D1*
X4160465D1*
X4160500Y2327643D1*
X4165075Y2322390D1*
X4168476Y2316837D1*
X4170969Y2310820D1*
X4172490Y2304488D1*
X4173000Y2297996D1*
Y2289451D1*
X4173748Y2289496D1*
Y2173504D1*
X4173016D1*
X4173000Y2110455D1*
X4181647Y2110500D1*
X4189360Y2118340D1*
X4197597Y2124324D1*
X4206669Y2128946D1*
X4216353Y2132093D1*
X4226409Y2133686D1*
X4236591D1*
X4246647Y2132093D1*
X4256331Y2128946D1*
X4265403Y2124324D1*
X4273640Y2118340D1*
X4280840Y2111140D1*
X4286824Y2102903D1*
X4288390Y2100108D1*
X4288386Y2392909D1*
X4195846Y2392894D1*
Y2402513D1*
X4167109Y2402500D1*
X3061004Y3011248D2*
X3164496D1*
Y3010516D1*
X3176861Y3010500D1*
X3202530Y3036220D1*
X3202500Y3044147D1*
X3194660Y3051860D1*
X3188676Y3060097D1*
X3184054Y3069169D1*
X3180907Y3078853D1*
X3179314Y3088909D1*
Y3099091D1*
X3180871Y3108971D1*
X3171192Y3099409D1*
X3166875Y3096274D1*
X3162122Y3093852D1*
X3157047Y3092203D1*
X3151778Y3091369D1*
X3049110Y3091264D1*
X3027283D1*
X3027247Y3084115D1*
X3026105Y3076908D1*
X3023850Y3069969D1*
X3020538Y3063467D1*
X3016248Y3057564D1*
X3011089Y3052406D1*
X3005186Y3048115D1*
X2998685Y3044803D1*
X2991745Y3042549D1*
X2984538Y3041407D1*
X2977241D1*
X2973686Y3041828D1*
X2976336Y3035770D1*
X2977581Y3030583D1*
X2978000Y3025264D1*
Y2866133D1*
X2983295Y2866169D1*
Y2865143D1*
X2988789Y2867478D1*
X2993976Y2868723D1*
X2999295Y2869142D1*
X3048465D1*
X3048504Y2877390D1*
X3164496D1*
Y2867867D1*
X3170932Y2865436D1*
X3175480Y2862648D1*
X3179799Y2858900D1*
X3308886Y2858886D1*
Y2746434D1*
X3659172Y2746387D1*
X3664441Y2745552D1*
X3669516Y2743904D1*
X3674269Y2741482D1*
X3678585Y2738346D1*
X3685000Y2732080D1*
Y3125885D1*
X3300549Y3125886D1*
X3303946Y3118831D1*
X3307093Y3109147D1*
X3308686Y3099091D1*
Y3088909D1*
X3307093Y3078853D1*
X3303946Y3069169D1*
X3299324Y3060097D1*
X3293340Y3051860D1*
X3285499Y3044155D1*
X3285373Y3015744D1*
X3284353Y3009312D1*
X3282341Y3003118D1*
X3279385Y2997316D1*
X3275556Y2992047D1*
X3229151Y2945461D1*
X3220953Y2937444D1*
X3215684Y2933615D1*
X3209882Y2930659D1*
X3203688Y2928647D1*
X3197256Y2927627D1*
X3164459Y2927500D1*
X3164496Y2926752D1*
X3048504D1*
Y3011248D1*
X3061004D1*
X3133491Y2792894D2*
X3048504D1*
Y2801146D1*
X3013385Y2801142D1*
X3008295Y2785142D1*
X3008190Y2750781D1*
X3007356Y2745512D1*
X3006497Y2742580D1*
X3006526Y2741482D1*
X3011280Y2743904D1*
X3016354Y2745552D1*
X3021623Y2746387D1*
X3124291Y2746492D1*
X3179125D1*
X3179114Y2760022D1*
X3172559Y2760940D1*
X3167484Y2762588D1*
X3162731Y2765010D1*
X3158415Y2768146D1*
X3133542Y2792870D1*
X1543987Y2938850D2*
X1538400Y2931079D1*
X1531921Y2924600D1*
X1524509Y2919214D1*
X1516345Y2915055D1*
X1507631Y2912223D1*
X1498581Y2910790D1*
X1489419D1*
X1480369Y2912223D1*
X1471655Y2915055D1*
X1463491Y2919214D1*
X1456079Y2924600D1*
X1452390Y2928025D1*
Y2910610D1*
X1335610D1*
Y3027390D1*
X1452390D1*
Y3009958D1*
X1459680Y3016239D1*
X1467492Y3021026D1*
X1475957Y3024531D1*
X1484866Y3026671D1*
X1494000Y3027390D1*
X1503134Y3026671D1*
X1512043Y3024531D1*
X1520508Y3021026D1*
X1528320Y3016239D1*
X1535287Y3010287D1*
X1541239Y3003320D1*
X1543987Y2999150D1*
X1549600Y3006921D1*
X1556079Y3013400D1*
X1563491Y3018786D1*
X1571655Y3022945D1*
X1580369Y3025777D1*
X1589419Y3027210D1*
X1598581D1*
X1607631Y3025777D1*
X1609407Y3025276D1*
X1609808Y3033811D1*
X1611054Y3038999D1*
X1613096Y3043928D1*
X1615883Y3048476D1*
X1619348Y3052534D1*
X1643276Y3076461D1*
X1636913Y3076004D1*
X1629639Y3076576D1*
X1622545Y3078280D1*
X1615803Y3081072D1*
X1609581Y3084885D1*
X1604033Y3089623D1*
X1599294Y3095172D1*
X1595482Y3101394D1*
X1592689Y3108135D1*
X1590986Y3115230D1*
X1590413Y3122504D1*
X1590986Y3129778D1*
X1592462Y3136004D1*
X1548406D1*
Y3251996D1*
X1681950D1*
X1680493Y3258222D1*
X1679921Y3265496D1*
X1680493Y3272770D1*
X1682197Y3279865D1*
X1684990Y3286606D1*
X1688802Y3292828D1*
X1693541Y3298377D1*
X1699089Y3303115D1*
X1705311Y3306928D1*
X1712052Y3309720D1*
X1719147Y3311424D1*
X1726421Y3311996D1*
X1733696Y3311424D1*
X1740790Y3309720D1*
X1747531Y3306928D1*
X1753753Y3303115D1*
X1755394Y3301996D1*
X1771946D1*
X1771995Y3384168D1*
X1772829Y3389437D1*
X1774478Y3394512D1*
X1776900Y3399265D1*
X1780035Y3403581D1*
X1796730Y3420423D1*
X1530161Y3420398D1*
X1522690Y3414749D1*
X1516189Y3411437D1*
X1509249Y3409182D1*
X1502042Y3408041D1*
X1494745D1*
X1487538Y3409182D1*
X1480598Y3411437D1*
X1474097Y3414749D1*
X1468194Y3419039D1*
X1463035Y3424198D1*
X1458745Y3430101D1*
X1455433Y3436602D1*
X1453178Y3443542D1*
X1452037Y3450749D1*
Y3458046D1*
X1453178Y3465253D1*
X1455433Y3472193D1*
X1458745Y3478694D1*
X1463035Y3484597D1*
X1468194Y3489756D1*
X1474097Y3494046D1*
X1480598Y3497358D1*
X1487538Y3499613D1*
X1494745Y3500755D1*
X1502042D1*
X1509249Y3499613D1*
X1514757Y3497886D1*
X1511824Y3502135D1*
X1459209Y3502234D1*
X1452777Y3503253D1*
X1446248Y3505420D1*
X1442807Y3504046D1*
X1435824Y3494434D1*
X1427424Y3486034D1*
X1417812Y3479051D1*
X1407226Y3473657D1*
X1395927Y3469986D1*
X1384193Y3468127D1*
X1372311D1*
X1360577Y3469986D1*
X1349278Y3473657D1*
X1338692Y3479051D1*
X1329080Y3486034D1*
X1320680Y3494434D1*
X1313697Y3504046D1*
X1308303Y3514633D1*
X1304631Y3525932D1*
X1302773Y3537665D1*
Y3549547D1*
X1304631Y3561281D1*
X1308303Y3572580D1*
X1313697Y3583167D1*
X1315799Y3586314D1*
X1257142Y3586319D1*
X1257114Y3467894D1*
X1105689D1*
Y3586302D1*
X1085951Y3586319D1*
X1058644Y3559010D1*
X1060030Y3549547D1*
Y3537665D1*
X1058172Y3525932D1*
X1054500Y3514633D1*
X1049106Y3504046D1*
X1042123Y3494434D1*
X1033723Y3486034D1*
X1024112Y3479051D1*
X1013525Y3473657D1*
X1002226Y3469986D1*
X990492Y3468127D1*
X978610D1*
X966877Y3469986D1*
X955577Y3473657D1*
X944991Y3479051D1*
X935379Y3486034D1*
X926979Y3494434D1*
X919996Y3504046D1*
X914602Y3514633D1*
X910930Y3525932D1*
X909072Y3537665D1*
Y3549547D1*
X910930Y3561281D1*
X914602Y3572580D1*
X919996Y3583167D1*
X926979Y3592778D1*
X935379Y3601178D1*
X944991Y3608161D1*
X955577Y3613555D1*
X966877Y3617227D1*
X978610Y3619085D1*
X990492D1*
X999971Y3617676D1*
X1041811Y3659375D1*
X1047080Y3663203D1*
X1052882Y3666160D1*
X1059076Y3668172D1*
X1065508Y3669192D1*
X1131264Y3669319D1*
X1465720Y3669192D1*
X1472152Y3668172D1*
X1478346Y3666160D1*
X1484148Y3663203D1*
X1489417Y3659375D1*
X1494021Y3654772D1*
X1497849Y3649503D1*
X1500806Y3643701D1*
X1502818Y3637507D1*
X1503837Y3631075D1*
X1503965Y3585094D1*
X1513849Y3588109D1*
X1521566Y3597143D1*
X1530600Y3604860D1*
X1533631Y3606885D1*
X1533730Y3666075D1*
X1534749Y3672507D1*
X1535761Y3675990D1*
X1500969Y3676319D1*
X765665D1*
X739962Y3650598D1*
X739992Y3602438D1*
X748140Y3608161D1*
X758727Y3613555D1*
X770026Y3617227D1*
X781760Y3619085D1*
X793642D1*
X805375Y3617227D1*
X816675Y3613555D1*
X827261Y3608161D1*
X836873Y3601178D1*
X845273Y3592778D1*
X852256Y3583167D1*
X857650Y3572580D1*
X861322Y3561281D1*
X863180Y3549547D1*
Y3537665D1*
X861322Y3525932D1*
X857650Y3514633D1*
X852256Y3504046D1*
X845273Y3494434D1*
X836873Y3486034D1*
X827261Y3479051D1*
X824201Y3477337D1*
X824088Y3401550D1*
X823193Y3395892D1*
X821423Y3390445D1*
X818823Y3385343D1*
X815455Y3380709D1*
X767140Y3332235D1*
X784870Y3332213D1*
X784837Y3251996D1*
X957508D1*
X957686Y3209882D1*
X960643Y3215684D1*
X964471Y3220953D1*
X969075Y3225556D1*
X971941Y3227780D1*
X973406Y3236004D1*
Y3251996D1*
X1120622D1*
X1118686Y3258144D1*
X1117545Y3265352D1*
Y3272648D1*
X1118686Y3279856D1*
X1119627Y3283190D1*
X1118169Y3283169D1*
X1111558Y3280445D1*
X1104463Y3278741D1*
X1097189Y3278169D1*
X1089915Y3278741D1*
X1082820Y3280445D1*
X1076079Y3283238D1*
X1069857Y3287050D1*
X1064308Y3291789D1*
X1059570Y3297337D1*
X1055757Y3303559D1*
X1052965Y3310301D1*
X1051261Y3317395D1*
X1050689Y3324669D1*
X1051261Y3331944D1*
X1052965Y3339038D1*
X1055757Y3345780D1*
X1059570Y3352001D1*
X1064308Y3357550D1*
X1069857Y3362289D1*
X1076079Y3366101D1*
X1082820Y3368894D1*
X1089915Y3370597D1*
X1097189Y3371169D1*
X1104463Y3370597D1*
X1111558Y3368894D1*
X1118182Y3366155D1*
X1397256Y3366042D1*
X1403688Y3365022D1*
X1409882Y3363010D1*
X1415684Y3360054D1*
X1420953Y3356226D1*
X1467539Y3309820D1*
X1475556Y3301622D1*
X1479385Y3296353D1*
X1482341Y3290551D1*
X1484353Y3284357D1*
X1485373Y3277925D1*
X1485500Y3251965D1*
X1532508Y3251996D1*
Y3136004D1*
X1355492D1*
Y3234490D1*
X1348592Y3229352D1*
X1342091Y3226039D1*
X1335151Y3223785D1*
X1327944Y3222643D1*
X1320803Y3222638D1*
X1320795Y3221831D1*
X1283442D1*
X1291894Y3219949D1*
X1298386Y3219438D1*
X1304718Y3217917D1*
X1310735Y3215425D1*
X1316287Y3212024D1*
X1321239Y3207794D1*
X1325469Y3202843D1*
X1328870Y3197290D1*
X1331362Y3191273D1*
X1332883Y3184941D1*
X1333394Y3178449D1*
X1333266Y2965843D1*
X1332247Y2959411D1*
X1330235Y2953217D1*
X1327278Y2947415D1*
X1323450Y2942146D1*
X1320967Y2939503D1*
X1319811Y2934969D1*
Y2903228D1*
X1271031D1*
X1272428Y2897007D1*
X1273000Y2889732D1*
X1272428Y2882458D1*
X1270724Y2875364D1*
X1267932Y2868622D1*
X1264119Y2862400D1*
X1259381Y2856852D1*
X1253417Y2851836D1*
X1257354Y2847951D1*
X1260490Y2843635D1*
X1262912Y2838882D1*
X1264560Y2833807D1*
X1265395Y2828538D1*
X1265500Y2822403D1*
X1319811Y2822370D1*
Y2711383D1*
X1322932Y2706102D1*
X1325724Y2699361D1*
X1327428Y2692266D1*
X1328000Y2684992D1*
X1327428Y2677718D1*
X1325969Y2671488D1*
X1325472Y2667311D1*
Y2669875D1*
X1322932Y2663882D1*
X1321252Y2660883D1*
X1326009Y2671492D1*
X1437528D1*
Y2660896D1*
X1458930Y2660500D1*
X1462983D1*
X1462972Y2671091D1*
X1477475D1*
X1477627Y2706665D1*
X1478647Y2713097D1*
X1480659Y2719291D1*
X1483820Y2725400D1*
X1481500Y2727098D1*
X1457428D1*
X1450869Y2724374D1*
X1443774Y2722671D1*
X1436500Y2722098D1*
X1429226Y2722671D1*
X1422131Y2724374D1*
X1415390Y2727167D1*
X1409168Y2730979D1*
X1403619Y2735718D1*
X1398881Y2741266D1*
X1395068Y2747488D1*
X1392276Y2754230D1*
X1390572Y2761324D1*
X1390000Y2768598D1*
X1390572Y2775873D1*
X1392276Y2782967D1*
X1395068Y2789709D1*
X1398881Y2795930D1*
X1403619Y2801479D1*
X1409168Y2806218D1*
X1415390Y2810030D1*
X1422131Y2812823D1*
X1429226Y2814526D1*
X1436500Y2815098D1*
X1443774Y2814526D1*
X1450869Y2812823D1*
X1457493Y2810084D1*
X1500472Y2810112D1*
Y2895492D1*
X1523665D1*
X1525088Y2899906D1*
X1527510Y2904659D1*
X1530646Y2908975D1*
X1551047Y2929514D1*
X1546761Y2934680D1*
X1544013Y2938850D1*
X1550136Y2928613D1*
X1551022Y2929500D1*
X2143987Y2938850D2*
X2138400Y2931079D1*
X2131921Y2924600D1*
X2124509Y2919214D1*
X2116345Y2915055D1*
X2107631Y2912223D1*
X2099417Y2910890D1*
X2103176Y2905600D1*
X2106488Y2899098D1*
X2107668Y2895900D1*
X2187528Y2895894D1*
Y2877681D1*
X2194676Y2877664D1*
X2201883Y2876522D1*
X2208823Y2874268D1*
X2215324Y2870955D1*
X2221227Y2866665D1*
X2225467Y2862501D1*
X2225472Y2895894D1*
X2302963D1*
X2300429Y2901008D1*
X2298175Y2907948D1*
X2297621Y2910731D1*
X2289419Y2910790D1*
X2280369Y2912223D1*
X2271655Y2915055D1*
X2263491Y2919214D1*
X2256079Y2924600D1*
X2249600Y2931079D1*
X2244013Y2938850D1*
X2238400Y2931079D1*
X2231921Y2924600D1*
X2224509Y2919214D1*
X2216345Y2915055D1*
X2207631Y2912223D1*
X2198581Y2910790D1*
X2189419D1*
X2180369Y2912223D1*
X2171655Y2915055D1*
X2163491Y2919214D1*
X2156079Y2924600D1*
X2149600Y2931079D1*
X2144013Y2938850D1*
X2543987D2*
X2538400Y2931079D1*
X2537513Y2930119D1*
X2537528Y2861161D1*
X2546028Y2858295D1*
X2829865D1*
X2829902Y2866169D1*
X2908492Y2866121D1*
X2910000Y2869000D1*
Y2912799D1*
X2903134Y2911329D1*
X2894000Y2910610D1*
X2884866Y2911329D1*
X2875957Y2913469D1*
X2867492Y2916974D1*
X2859680Y2921761D1*
X2852713Y2927713D1*
X2846761Y2934680D1*
X2844013Y2938850D1*
X2838400Y2931079D1*
X2831921Y2924600D1*
X2824509Y2919214D1*
X2816345Y2915055D1*
X2807631Y2912223D1*
X2798581Y2910790D1*
X2789419D1*
X2780369Y2912223D1*
X2771655Y2915055D1*
X2763491Y2919214D1*
X2756079Y2924600D1*
X2749600Y2931079D1*
X2744013Y2938850D1*
X2738400Y2931079D1*
X2731921Y2924600D1*
X2724509Y2919214D1*
X2716345Y2915055D1*
X2707631Y2912223D1*
X2698581Y2910790D1*
X2689419D1*
X2680369Y2912223D1*
X2671655Y2915055D1*
X2663491Y2919214D1*
X2656079Y2924600D1*
X2649600Y2931079D1*
X2644013Y2938850D1*
X2638400Y2931079D1*
X2631921Y2924600D1*
X2624509Y2919214D1*
X2616345Y2915055D1*
X2607631Y2912223D1*
X2598581Y2910790D1*
X2589419D1*
X2580369Y2912223D1*
X2571655Y2915055D1*
X2563491Y2919214D1*
X2556079Y2924600D1*
X2549600Y2931079D1*
X2544013Y2938850D1*
X1840474Y2404291D2*
X1843987Y2399150D1*
X1849600Y2406921D1*
X1856079Y2413400D1*
X1863491Y2418786D1*
X1871655Y2422945D1*
X1880369Y2425777D1*
X1889419Y2427210D1*
X1898581D1*
X1907631Y2425777D1*
X1911717Y2424625D1*
X1890173Y2446308D1*
X1887038Y2450625D1*
X1884615Y2455378D1*
X1882967Y2460453D1*
X1882133Y2465722D1*
X1882028Y2492071D1*
X1865507Y2492106D1*
X1865395Y2440726D1*
X1864560Y2435457D1*
X1862912Y2430382D1*
X1860490Y2425629D1*
X1857354Y2421312D1*
X1840522Y2404333D1*
X2952210Y2364419D2*
X2950777Y2355369D1*
X2947945Y2346655D1*
X2943786Y2338491D1*
X2938400Y2331079D1*
X2931921Y2324600D1*
X2925626Y2319961D1*
X3091227Y2319860D1*
X3096496Y2319025D1*
X3101571Y2317377D1*
X3106324Y2314954D1*
X3110640Y2311819D1*
X3129829Y2292777D1*
X3129803Y2320098D1*
X3077490Y2320223D1*
X3072220Y2321058D1*
X3067146Y2322706D1*
X3062392Y2325129D1*
X3058076Y2328264D1*
X2991793Y2394399D1*
X2946558Y2394390D1*
X2949531Y2387043D1*
X2951671Y2378134D1*
X2952390Y2369000D1*
X2952210Y2364419D1*
X527638Y3619319D2*
X656984D1*
X657119Y3671075D1*
X658139Y3677507D1*
X660151Y3683701D1*
X663108Y3689503D1*
X666936Y3694772D1*
X692728Y3720745D1*
X481500Y3719000D1*
Y3332232D1*
X554350Y3332213D1*
X554063Y3467894D1*
X515138D1*
Y3619319D1*
X527638D1*
X654014Y3467894D2*
X627354D1*
X627238Y3253636D1*
X626343Y3247979D1*
X624572Y3242531D1*
X621972Y3237429D1*
X618605Y3232795D1*
X614555Y3228745D1*
X609921Y3225378D1*
X604819Y3222778D1*
X599371Y3221008D1*
X593714Y3220113D1*
X584845Y3220000D1*
X584870Y3213804D1*
X653131Y3213787D1*
X653130Y3332213D1*
X682475D1*
X682949Y3341423D1*
X684286Y3346992D1*
X686478Y3352283D1*
X689471Y3357167D1*
X693190Y3361522D1*
X751230Y3419562D1*
X751201Y3477314D1*
X743198Y3482353D1*
X739970Y3484898D1*
X739992Y3475387D1*
X742717Y3468770D1*
X744420Y3461676D1*
X744992Y3454402D1*
X744420Y3447127D1*
X742717Y3440033D1*
X739924Y3433291D1*
X736112Y3427070D1*
X731373Y3421521D1*
X725824Y3416782D1*
X719602Y3412970D1*
X712861Y3410177D1*
X705766Y3408474D1*
X698492Y3407902D1*
X691218Y3408474D1*
X684123Y3410177D1*
X677382Y3412970D1*
X671160Y3416782D1*
X665612Y3421521D1*
X660873Y3427070D1*
X657060Y3433291D1*
X654268Y3440033D1*
X652564Y3447127D1*
X651992Y3454402D1*
X652564Y3461676D1*
X654024Y3467906D1*
X1650581Y3537665D2*
X1648723Y3525932D1*
X1645051Y3514633D1*
X1639657Y3504046D1*
X1632675Y3494434D1*
X1626815Y3488383D1*
X1696197Y3488398D1*
X1696240Y3619319D1*
X1847665D1*
Y3488411D1*
X1916997Y3488398D1*
X1911231Y3494434D1*
X1904248Y3504046D1*
X1898854Y3514633D1*
X1895182Y3525932D1*
X1893324Y3537665D1*
Y3549547D1*
X1895182Y3561281D1*
X1898854Y3572580D1*
X1904248Y3583167D1*
X1911231Y3592778D1*
X1919631Y3601178D1*
X1929243Y3608161D1*
X1939829Y3613555D1*
X1951129Y3617227D1*
X1962862Y3619085D1*
X1974744D1*
X1986478Y3617227D1*
X1997777Y3613555D1*
X2008364Y3608161D1*
X2017975Y3601178D1*
X2026375Y3592778D1*
X2033358Y3583167D1*
X2038752Y3572580D1*
X2042424Y3561281D1*
X2044282Y3549547D1*
Y3537665D1*
X2042424Y3525932D1*
X2038752Y3514633D1*
X2033358Y3504046D1*
X2026375Y3494434D1*
X2020516Y3488383D1*
X2113873Y3488398D1*
X2108081Y3494434D1*
X2101098Y3504046D1*
X2095705Y3514633D1*
X2092033Y3525932D1*
X2090175Y3537665D1*
Y3549547D1*
X2092033Y3561281D1*
X2095705Y3572580D1*
X2101098Y3583167D1*
X2108081Y3592778D1*
X2116482Y3601178D1*
X2126093Y3608161D1*
X2136680Y3613555D1*
X2147979Y3617227D1*
X2159713Y3619085D1*
X2171594D1*
X2183328Y3617227D1*
X2188178Y3615860D1*
X2174890Y3621319D1*
X1616638D1*
X1616602Y3606911D1*
X1624274Y3601178D1*
X1632675Y3592778D1*
X1639657Y3583167D1*
X1645051Y3572580D1*
X1648723Y3561281D1*
X1650581Y3549547D1*
Y3537665D1*
X2241133D2*
X2239274Y3525932D1*
X2235602Y3514633D1*
X2230209Y3504046D1*
X2227513Y3500010D1*
X2236189Y3497358D1*
X2242690Y3494046D1*
X2248593Y3489756D1*
X2253752Y3484597D1*
X2258042Y3478694D1*
X2261354Y3472193D1*
X2263609Y3465253D1*
X2264751Y3458046D1*
Y3450749D1*
X2263609Y3443542D1*
X2261354Y3436602D1*
X2258042Y3430101D1*
X2253752Y3424198D1*
X2248593Y3419039D1*
X2242690Y3414749D1*
X2236189Y3411437D1*
X2229249Y3409182D1*
X2222042Y3408041D1*
X2214745D1*
X2207538Y3409182D1*
X2200598Y3411437D1*
X2194097Y3414749D1*
X2188194Y3419039D1*
X2186718Y3420404D1*
X2138365Y3420398D1*
X2139928Y3413774D1*
X2140500Y3406500D1*
X2140362Y3402980D1*
X2306089Y3403000D1*
X2301958Y3409701D1*
X2299165Y3416442D1*
X2297462Y3423537D1*
X2296890Y3430811D1*
X2297462Y3438085D1*
X2299165Y3445180D1*
X2301958Y3451921D1*
X2305770Y3458143D1*
X2310509Y3463692D1*
X2316058Y3468430D1*
X2322280Y3472243D1*
X2329007Y3475030D1*
X2237930Y3566088D1*
X2240434Y3555450D1*
X2241366Y3543606D1*
X2241133Y3537665D1*
X2741366Y3586360D2*
Y3467894D1*
X2589941D1*
Y3586302D1*
X2568709Y3586319D1*
X2542972Y3560598D1*
X2543004Y3506774D1*
X2545728Y3500180D1*
X2547432Y3493085D1*
X2548004Y3485811D1*
X2547432Y3478537D1*
X2545728Y3471442D1*
X2542978Y3464791D1*
X3484168Y3464706D1*
X3489437Y3463871D1*
X3494512Y3462223D1*
X3499265Y3459801D1*
X3503581Y3456665D1*
X3530542Y3429853D1*
X3534007Y3425795D1*
X3536794Y3421247D1*
X3538836Y3416318D1*
X3540081Y3411130D1*
X3540500Y3405811D1*
Y3333594D1*
X3562528Y3333591D1*
Y3240575D1*
X3587945Y3240580D1*
X3587972Y3333394D1*
X3609995D1*
X3610105Y3426609D1*
X3610940Y3431878D1*
X3612588Y3436953D1*
X3615224Y3442026D1*
X3615906Y3454846D1*
Y3475990D1*
X3605403Y3482353D1*
X3596369Y3490070D1*
X3588652Y3499104D1*
X3582445Y3509234D1*
X3577899Y3520210D1*
X3575125Y3531762D1*
X3574193Y3543606D1*
X3575125Y3555450D1*
X3577899Y3567003D1*
X3582445Y3577979D1*
X3588652Y3588109D1*
X3596369Y3597143D1*
X3605403Y3604860D1*
X3615533Y3611067D1*
X3626509Y3615613D1*
X3638062Y3618387D1*
X3649906Y3619319D1*
X3661749Y3618387D1*
X3673302Y3615613D1*
X3684278Y3611067D1*
X3685028Y3610647D1*
X3685000Y3743659D1*
X2368891Y3733558D1*
X2425507Y3676971D1*
X2432079Y3674251D1*
X2438301Y3670438D1*
X2443849Y3665699D1*
X2448588Y3660151D1*
X2452400Y3653929D1*
X2455193Y3647188D1*
X2456896Y3640093D1*
X2457469Y3632819D1*
X2456896Y3625545D1*
X2455193Y3618450D1*
X2452400Y3611709D1*
X2448588Y3605487D1*
X2443849Y3599938D1*
X2438301Y3595199D1*
X2432079Y3591387D1*
X2425337Y3588594D1*
X2418243Y3586891D1*
X2410969Y3586319D1*
X2403694Y3586891D1*
X2396600Y3588594D1*
X2389858Y3591387D1*
X2383636Y3595199D1*
X2378088Y3599938D1*
X2373349Y3605487D1*
X2369537Y3611709D1*
X2366789Y3618329D1*
X2308738Y3676360D1*
X2245060Y3676319D1*
X2394100Y3527299D1*
X2460052Y3527311D1*
X2460131Y3581075D1*
X2461151Y3587507D1*
X2463163Y3593701D1*
X2466119Y3599503D1*
X2469948Y3604772D1*
X2516353Y3651358D1*
X2524552Y3659375D1*
X2529820Y3663203D1*
X2535622Y3666160D1*
X2541816Y3668172D1*
X2548248Y3669192D1*
X2614004Y3669319D1*
X3348673Y3669192D1*
X3355105Y3668172D1*
X3361299Y3666160D1*
X3367101Y3663203D1*
X3372369Y3659375D1*
X3376974Y3654770D1*
X3380802Y3649503D1*
X3383759Y3643701D1*
X3385770Y3637507D1*
X3386790Y3631075D1*
X3386917Y3580504D1*
X3391802Y3588109D1*
X3399518Y3597143D1*
X3408552Y3604860D1*
X3418682Y3611067D1*
X3429659Y3615613D1*
X3441211Y3618387D1*
X3453055Y3619319D1*
X3464899Y3618387D1*
X3476451Y3615613D1*
X3487428Y3611067D1*
X3497558Y3604860D1*
X3506592Y3597143D1*
X3514308Y3588109D1*
X3520516Y3577979D1*
X3525062Y3567003D1*
X3527836Y3555450D1*
X3528768Y3543606D1*
X3527836Y3531762D1*
X3525062Y3520210D1*
X3520516Y3509234D1*
X3514308Y3499104D1*
X3506592Y3490070D1*
X3497558Y3482353D1*
X3487428Y3476146D1*
X3476451Y3471600D1*
X3464899Y3468825D1*
X3453055Y3467894D1*
X3441211Y3468825D1*
X3429659Y3471600D1*
X3418682Y3476146D1*
X3408552Y3482353D1*
X3399518Y3490070D1*
X3391802Y3499104D1*
X3385594Y3509234D1*
X3382680Y3515787D1*
X3378298Y3510726D1*
X3372749Y3505987D1*
X3366528Y3502175D1*
X3359786Y3499382D1*
X3352692Y3497678D1*
X3345417Y3497106D1*
X3338143Y3497678D1*
X3331913Y3499138D1*
X3331917Y3467894D1*
X3180492D1*
Y3586302D1*
X3121833Y3586319D1*
X3126815Y3577979D1*
X3131361Y3567003D1*
X3134135Y3555450D1*
X3135067Y3543606D1*
X3134135Y3531762D1*
X3131361Y3520210D1*
X3126815Y3509234D1*
X3120608Y3499104D1*
X3112891Y3490070D1*
X3103857Y3482353D1*
X3093727Y3476146D1*
X3082751Y3471600D1*
X3071198Y3468825D1*
X3059354Y3467894D1*
X3047510Y3468825D1*
X3035958Y3471600D1*
X3024982Y3476146D1*
X3014852Y3482353D1*
X3005818Y3490070D1*
X2998101Y3499104D1*
X2991894Y3509234D1*
X2987348Y3520210D1*
X2984573Y3531762D1*
X2983642Y3543606D1*
X2984573Y3555450D1*
X2987348Y3567003D1*
X2991894Y3577979D1*
X2996902Y3586314D1*
X2925056Y3586319D1*
X2929965Y3577979D1*
X2934510Y3567003D1*
X2937285Y3555450D1*
X2938217Y3543606D1*
X2937285Y3531762D1*
X2934510Y3520210D1*
X2929965Y3509234D1*
X2923757Y3499104D1*
X2916041Y3490070D1*
X2907007Y3482353D1*
X2896877Y3476146D1*
X2885900Y3471600D1*
X2874348Y3468825D1*
X2862504Y3467894D1*
X2850660Y3468825D1*
X2839108Y3471600D1*
X2828131Y3476146D1*
X2818001Y3482353D1*
X2808967Y3490070D1*
X2801251Y3499104D1*
X2795043Y3509234D1*
X2790497Y3520210D1*
X2787723Y3531762D1*
X2786791Y3543606D1*
X2787723Y3555450D1*
X2790497Y3567003D1*
X2795043Y3577979D1*
X2800051Y3586314D1*
X2741365Y3586319D1*
X3092402Y2389946D2*
X3092522Y2470252D1*
X3093487Y2476343D1*
X3095392Y2482207D1*
X3098192Y2487701D1*
X3101816Y2492689D1*
X3106177Y2497050D1*
X3111165Y2500675D1*
X3115390Y2503167D1*
X3109168Y2506979D1*
X3104824Y2510605D1*
X3100028Y2509189D1*
Y2492508D1*
X2987972D1*
Y2631423D1*
X2982232Y2629436D1*
X2976963Y2628601D1*
X2937528Y2628496D1*
Y2492508D1*
X2825472D1*
Y2510623D1*
X2821227Y2509240D1*
X2815324Y2504950D1*
X2808823Y2501638D1*
X2801883Y2499383D1*
X2794676Y2498241D1*
X2787535Y2498236D1*
X2787528Y2492508D1*
X2765507D1*
X2765395Y2475722D1*
X2764560Y2470453D1*
X2762912Y2465378D1*
X2761606Y2462617D1*
X2805665Y2462390D1*
X3008552Y2462285D1*
X3013822Y2461450D1*
X3018896Y2459802D1*
X3023650Y2457379D1*
X3027966Y2454244D1*
X3092386Y2389974D1*
X3092402Y2456500D1*
X3445795Y2423445D2*
Y2359331D1*
X3440474D1*
X3440081Y2348799D1*
X3438836Y2343612D1*
X3436606Y2338345D1*
X3443454Y2337059D1*
X3447266Y2343281D1*
X3452005Y2348829D1*
X3457554Y2353568D1*
X3463776Y2357381D1*
X3470517Y2360173D1*
X3477612Y2361877D1*
X3484886Y2362449D1*
X3492160Y2361877D1*
X3499255Y2360173D1*
X3505996Y2357381D1*
X3512218Y2353568D1*
X3516562Y2349942D1*
X3542259Y2349949D1*
X3542303Y2359352D1*
X3504902Y2359331D1*
Y2427936D1*
X3454793Y2427874D1*
X3447681Y2424209D1*
X3445794Y2423513D1*
X3652996Y2453669D2*
X3658295D1*
Y2359331D1*
X3620942D1*
X3620894Y2349983D1*
X3700202Y2349949D1*
X3688992Y2361253D1*
X3685857Y2365570D1*
X3683434Y2370323D1*
X3681786Y2375398D1*
X3680951Y2380667D1*
X3680846Y2483335D1*
X3680951Y2514188D1*
X3681786Y2519457D1*
X3683434Y2524531D1*
X3685857Y2529285D1*
X3688992Y2533601D1*
X3699885Y2544642D1*
X3625860Y2544731D1*
X3620219Y2545671D1*
X3619959Y2545134D1*
X3622752Y2538392D1*
X3624168Y2532739D1*
X3633369Y2530748D1*
X3640110Y2527955D1*
X3646332Y2524143D1*
X3651881Y2519404D1*
X3656619Y2513856D1*
X3660432Y2507634D1*
X3663224Y2500892D1*
X3664928Y2493798D1*
X3665500Y2486524D1*
X3664928Y2479249D1*
X3663224Y2472155D1*
X3660432Y2465413D1*
X3656619Y2459192D1*
X3652993Y2454848D1*
X2867331Y2771831D2*
X2829902D1*
Y2779692D1*
X2563777Y2779705D1*
X2572138Y2776424D1*
X2578360Y2772612D1*
X2582703Y2768986D1*
X2853971Y2768887D1*
X2859240Y2768052D1*
X2864315Y2766404D1*
X2867093Y2765088D1*
X2867303Y2771852D1*
X2864315Y2766404D1*
X2866739Y2765286D1*
X3240463Y3333591D2*
X3262528D1*
Y3240672D1*
X3300446Y3240697D1*
X3300472Y3333394D1*
X3322495D1*
X3322500Y3343852D1*
X3316852Y3351290D1*
X3313539Y3357791D1*
X3311285Y3364731D1*
X3310143Y3371938D1*
Y3379235D1*
X3311285Y3386442D1*
X3313539Y3393382D1*
X3315144Y3396835D1*
X3201080Y3396811D1*
X3205542Y3393042D1*
X3232354Y3366081D1*
X3235490Y3361765D1*
X3237912Y3357012D1*
X3239560Y3351937D1*
X3240395Y3346668D1*
X3240500Y3333600D1*
X3412480Y3258591D2*
X3412528Y3193892D1*
X3450480Y3193886D1*
X3450472Y3333591D1*
X3472493D1*
X3472500Y3391705D1*
X3456500Y3396811D1*
X3397932Y3396697D1*
X3400724Y3389955D1*
X3402428Y3382861D1*
X3403000Y3375587D1*
X3402428Y3368312D1*
X3400724Y3361218D1*
X3397932Y3354476D1*
X3394119Y3348255D1*
X3390493Y3343911D1*
X3390500Y3333350D1*
X3412528Y3333394D1*
X3412479Y3229213D1*
X1797537Y2492106D2*
X1775472D1*
Y2587761D1*
X1771227Y2583642D1*
X1765324Y2579352D1*
X1758823Y2576039D1*
X1751883Y2573785D1*
X1744676Y2572643D1*
X1737535Y2572638D1*
X1737528Y2492106D1*
X1625472D1*
Y2509928D1*
X1618297Y2504549D1*
X1611795Y2501236D1*
X1604856Y2498982D1*
X1597648Y2497840D1*
X1590352D1*
X1583144Y2498982D1*
X1575026Y2501780D1*
X1575028Y2492106D1*
X1553007D1*
X1552060Y2485453D1*
X1550412Y2480378D1*
X1547990Y2475625D1*
X1544854Y2471308D1*
X1526089Y2452395D1*
X1792428Y2452394D1*
X1797500Y2468394D1*
Y2492075D1*
X2075472Y2578592D2*
Y2671492D1*
X2184373D1*
X2184390Y2716911D1*
X2075472Y2716909D1*
Y2735025D1*
X2060860Y2735105D1*
X2055591Y2735940D1*
X2050516Y2737588D1*
X2045762Y2740010D1*
X2041446Y2743146D1*
X2037518Y2746927D1*
X2037528Y2716909D1*
X2025955D1*
X2027428Y2710684D1*
X2028000Y2703409D1*
X2027428Y2696135D1*
X2025724Y2689041D1*
X2022986Y2682416D1*
X2023000Y2671525D1*
X2037528Y2671492D1*
Y2578573D1*
X2075436Y2578598D1*
X2075472Y2592311D1*
X1787972Y2810513D2*
Y2859828D1*
X1749986Y2859807D1*
X1750028Y2810493D1*
X1787995Y2810500D1*
X1612528Y2801304D2*
Y2744858D1*
X1637995Y2744909D1*
X1637972Y2797719D1*
X1631500Y2797303D1*
X1624226Y2797875D1*
X1617131Y2799579D1*
X1612526Y2801386D1*
X1612479Y2791311D1*
X2787480Y2596689D2*
X2787528Y2590976D1*
X2794676Y2590955D1*
X2801883Y2589814D1*
X2808823Y2587559D1*
X2815324Y2584247D1*
X2821227Y2579957D1*
X2822703Y2578592D1*
X2825472Y2579811D1*
Y2641091D1*
X2818324Y2641135D1*
X2811117Y2642277D1*
X2804177Y2644531D1*
X2797676Y2647844D1*
X2791773Y2652134D1*
X2790297Y2653499D1*
X2787528Y2646492D1*
Y2590974D1*
X2687972Y2671492D2*
X2698764D1*
X2701206Y2677928D1*
X2703993Y2682476D1*
X2707458Y2686534D1*
X2721925Y2701000D1*
X2613056Y2700953D1*
X2616885Y2695684D1*
X2619841Y2689882D1*
X2621853Y2683688D1*
X2622873Y2677256D1*
X2623000Y2671509D1*
X2637528Y2671492D1*
Y2660896D1*
X2654283Y2660774D1*
X2660715Y2659755D1*
X2666909Y2657743D1*
X2672711Y2654786D1*
X2675471Y2652937D1*
X2675472Y2671492D1*
X2687972D1*
X2547538Y2492508D2*
X2525472D1*
X2525421Y2585425D1*
X2519869Y2582024D1*
X2513852Y2579531D1*
X2507520Y2578010D1*
X2501028Y2577500D1*
X2488602Y2577257D1*
X2493677Y2575609D1*
X2498430Y2573186D1*
X2502747Y2570051D1*
X2506520Y2566278D1*
X2509655Y2561962D1*
X2512077Y2557209D1*
X2513726Y2552134D1*
X2514560Y2546865D1*
X2514665Y2467488D1*
X2530665Y2462390D1*
X2551514D1*
X2549164Y2467883D1*
X2547919Y2473071D1*
X2547500Y2478390D1*
Y2492501D1*
X2547513Y2478734D1*
X3099980Y2596689D2*
X3100028Y2578572D1*
X3106301Y2579957D1*
X3112203Y2584247D1*
X3118705Y2587559D1*
X3125644Y2589814D1*
X3132852Y2590955D1*
X3140148D1*
X3147356Y2589814D1*
X3150471Y2588934D1*
X3150472Y2653492D1*
X3100060D1*
X3100028Y2583992D1*
X1325472Y2502420D2*
Y2577908D1*
X1300005Y2577902D1*
X1300028Y2502402D1*
X1325436Y2502390D1*
X2337480Y2596689D2*
X2337528Y2578474D1*
X2375487Y2578346D1*
X2375472Y2638541D1*
X2337505Y2638492D1*
X2337528Y2583992D1*
X1575028Y2661959D2*
Y2586667D1*
X1583144Y2589412D1*
X1590352Y2590554D1*
X1597648D1*
X1604856Y2589412D1*
X1611795Y2587157D1*
X1618297Y2583845D1*
X1625467Y2578385D1*
X1625472Y2661881D1*
X1575025Y2661909D1*
X2337528Y1799264D2*
Y1752878D1*
X2343753Y1754337D1*
X2351028Y1754909D1*
X2358302Y1754337D1*
X2365396Y1752634D1*
X2372138Y1749841D1*
X2375478Y1747954D1*
X2375324Y1804155D1*
X2368823Y1800843D1*
X2361883Y1798588D1*
X2354676Y1797446D1*
X2347379D1*
X2340172Y1798588D1*
X2337524Y1799335D1*
X2337479Y1791713D1*
X2512972Y1755728D2*
Y1802310D1*
X2492273Y1802513D1*
X2487528Y1796287D1*
Y1755711D1*
X2512995Y1755701D1*
X2265728Y3215406D2*
Y3297534D1*
X2215827Y3297500D1*
X2218206Y3292007D1*
X2219451Y3286819D1*
X2219870Y3281500D1*
Y3188189D1*
X2224609Y3196332D1*
X2229348Y3201881D1*
X2234896Y3206619D1*
X2241118Y3210432D1*
X2247860Y3213224D1*
X2254954Y3214928D1*
X2262228Y3215500D1*
X2265720Y3215362D1*
X2265728Y3255689D1*
X481518Y2694713D2*
X561499D1*
X561423Y2702459D1*
X562564Y2709667D1*
X564819Y2716606D1*
X566294Y2719804D1*
X566280Y2780794D1*
X481501Y2780787D1*
X481500Y2694732D1*
X599280Y2603959D2*
Y2602343D1*
X481457D1*
X481500Y2515143D1*
X599280Y2515185D1*
Y2513476D1*
X605505Y2514928D1*
X612780Y2515500D1*
X620054Y2514928D1*
X627148Y2513224D1*
X634873Y2509882D1*
X634862Y2632240D1*
X614732Y2612255D1*
X609463Y2608427D1*
X603661Y2605470D1*
X600248Y2604241D1*
X587436Y2602324D1*
X603661Y2605470D1*
X600604Y2604343D1*
X599280Y2424508D2*
Y2422815D1*
X481457D1*
X481500Y2412505D1*
X696049Y2412488D1*
X703483Y2418136D1*
X709984Y2421449D1*
X714467Y2423010D1*
X634862Y2423012D1*
Y2428041D1*
X627148Y2424776D1*
X620054Y2423072D1*
X612780Y2422500D1*
X605505Y2423072D1*
X599276Y2424531D1*
X929988Y2429589D2*
Y2423012D1*
X852148Y2422713D1*
X858890Y2419920D1*
X865112Y2416108D1*
X869455Y2412482D1*
X934394Y2412339D1*
X935143Y2412458D1*
Y2419755D1*
X936285Y2426962D1*
X931343Y2412488D1*
X934010Y2412383D1*
X599634Y2274508D2*
Y2272815D1*
X481518D1*
X481500Y2185651D1*
X599634Y2185657D1*
Y2183949D1*
X605860Y2185400D1*
X613134Y2185972D1*
X620408Y2185400D1*
X627503Y2183697D1*
X635227Y2180354D1*
X635217Y2278104D1*
X627503Y2274776D1*
X620408Y2273072D1*
X613134Y2272500D1*
X605860Y2273072D1*
X599630Y2274531D1*
X518806Y3180787D2*
X481501D1*
X481500Y3140045D1*
X485425Y3146681D1*
X489655Y3151633D1*
X518831Y3180807D1*
X803965Y1830113D2*
Y1740463D1*
X810604Y1746022D1*
X894727Y1830146D1*
X803983Y1830130D1*
X602549Y1733516D2*
X584035D1*
Y1758857D1*
X577810Y1757395D1*
X570535Y1756823D1*
X563261Y1757395D1*
X556167Y1759098D1*
X549425Y1761891D1*
X543203Y1765703D1*
X537655Y1770442D1*
X532916Y1775991D1*
X529104Y1782213D1*
X526311Y1788954D1*
X524608Y1796049D1*
X524035Y1803323D1*
X524608Y1810597D1*
X526311Y1817692D1*
X529104Y1824433D1*
X532916Y1830655D1*
X537655Y1836203D1*
X542184Y1840139D1*
X516332Y1840235D1*
X511063Y1841070D1*
X505988Y1842718D1*
X501235Y1845140D1*
X496919Y1848276D1*
X493146Y1852049D1*
X490010Y1856365D1*
X487588Y1861118D1*
X485864Y1866571D1*
X481500Y1856500D1*
X481539Y1731459D1*
X602487Y1731072D1*
X990049Y1733516D2*
X971535D1*
Y1761787D1*
X943756Y1761823D1*
X912056Y1730094D1*
X989984Y1729831D1*
X1427549Y1733839D2*
X1409035D1*
Y1762207D1*
X1387213Y1762146D1*
X1353690Y1728622D1*
X1427483Y1728428D1*
X3721605Y2672510D2*
X3724465Y2666819D1*
X3726719Y2659879D1*
X3727861Y2652672D1*
X3727866Y2645504D1*
X4300054Y2645415D1*
X4305323Y2644580D1*
X4310398Y2642932D1*
X4315151Y2640509D1*
X4319467Y2637374D1*
X4345026Y2611963D1*
X4344000Y2672500D1*
X3721685D1*
X1938390Y3365480D2*
Y3372520D1*
X1844928Y3372500D1*
X1839890Y3356500D1*
Y3325005D1*
X1844601Y3330776D1*
X1871308Y3357354D1*
X1875625Y3360490D1*
X1880378Y3362912D1*
X1885453Y3364560D1*
X1890722Y3365395D1*
X1938361Y3365500D1*
D26*
X2494000Y3194000D3*
X2686913D3*
X869000D3*
X1061913D3*
D28*
X1244000Y2181500D3*
Y1988587D3*
D26*
X1444000Y3194000D3*
X1636913D3*
D29*
X981500Y2556500D3*
Y2481697D3*
Y2694000D3*
Y2768803D3*
Y2981500D3*
Y2906697D3*
D26*
X2844000Y3194000D3*
X3036913D3*
D28*
X1556500Y2181500D3*
Y1988587D3*
X1869000Y2181457D3*
Y1988543D3*
X2169000Y2181457D3*
Y1988543D3*
X2456500Y2181457D3*
Y1988543D3*
D31*
X1906500Y3119000D3*
X1772642D3*
D32*
X1056500Y1918740D3*
Y2011260D3*
D31*
X1906500Y3244000D3*
X1772642D3*
D32*
X3819000Y2444000D3*
Y2536520D3*
X519000Y1919000D3*
Y2011520D3*
D31*
X2994000Y2219000D3*
X2860142D3*
D32*
X656500Y1919000D3*
Y2011520D3*
X3956500Y2444000D3*
Y2536520D3*
D31*
X3569000Y2219000D3*
X3435142D3*
D32*
X794000Y1919000D3*
Y2011520D3*
X4119000Y2444000D3*
Y2536520D3*
D31*
X4131500Y2231500D3*
X3997642D3*
D32*
X931500Y1919000D3*
Y2011520D3*
X4244000Y2444000D3*
Y2536520D3*
D34*
X3106500Y2969000D3*
Y2835142D3*
D35*
X1394000Y2969000D3*
D36*
X1494000D3*
X1594000D3*
X1694000D3*
X1794000D3*
X1894000D3*
X1994000D3*
X2094000D3*
X2194000D3*
X2294000D3*
X2394000D3*
X2494000D3*
X2594000D3*
X2694000D3*
X2794000D3*
X2894000D3*
D35*
X1394000Y2369000D3*
D36*
X1494000D3*
X1594000D3*
X1694000D3*
X1794000D3*
X1894000D3*
X1994000D3*
X2094000D3*
X2194000D3*
X2294000D3*
X2394000D3*
X2494000D3*
X2594000D3*
X2694000D3*
X2794000D3*
X2894000D3*
D37*
X590850Y3543606D3*
D38*
X787701D3*
X984551D3*
D37*
X1181402D3*
D38*
X1378252D3*
X1575102D3*
D37*
X1771953D3*
D38*
X1968803D3*
X2165654D3*
D37*
X2665654D3*
D38*
X2862504D3*
X3059354D3*
D37*
X3256205D3*
D38*
X3453055D3*
X3649906D3*
D37*
X3846756D3*
D38*
X4043606D3*
X4240457D3*
D37*
X984551Y661717D3*
D38*
X787701D3*
X590850D3*
D37*
X1575102D3*
D38*
X1378252D3*
X1181402D3*
D37*
X2165654D3*
D38*
X1968803D3*
X1771953D3*
D37*
X3059354D3*
D38*
X2862504D3*
X2665654D3*
D37*
X3649906D3*
D38*
X3453055D3*
X3256205D3*
D37*
X4240457D3*
D38*
X4043606D3*
X3846756D3*
D39*
X3081500Y2081500D3*
D40*
X2781500D3*
D39*
X3081500Y1337406D3*
X2781500Y1211421D3*
X3081500Y1085437D3*
X3656500Y2081500D3*
D40*
X3356500D3*
D39*
X3656500Y1337406D3*
X3356500Y1211421D3*
X3656500Y1085437D3*
X4231500Y2069000D3*
D40*
X3931500D3*
D39*
X4231500Y1324906D3*
X3931500Y1198921D3*
X4231500Y1072937D3*
X3244000Y3094000D3*
D40*
Y2794000D3*
D39*
X3988094Y3094000D3*
X4114079Y2794000D3*
X4240063Y3094000D3*
D42*
X3206500Y2406500D3*
X3131697D3*
X3169098Y2315949D3*
X3406500Y2406500D3*
X3331697D3*
X3369098Y2315949D3*
X3619000Y2406500D3*
X3544197D3*
X3581598Y2315949D3*
X2944000Y2819000D3*
X2869197D3*
X2906598Y2728449D3*
D29*
X3206500Y3281500D3*
Y3206697D3*
X3356500Y3206500D3*
Y3281303D3*
X1831500Y2619000D3*
Y2544197D3*
X2131500Y2544598D3*
Y2619402D3*
X1844000Y2769000D3*
Y2843803D3*
X1981500Y2544598D3*
Y2619402D3*
X1556500Y2768598D3*
Y2843402D3*
X3506500Y3281500D3*
Y3206697D3*
X3644000Y3206500D3*
Y3281303D3*
X2431500Y2769000D3*
Y2843803D3*
X2731500Y2544598D3*
Y2619402D3*
X2581500Y2544598D3*
Y2619402D3*
D43*
X531500Y1444000D3*
Y1554236D3*
D29*
X3044000Y2544598D3*
Y2619402D3*
X2131500Y2769000D3*
Y2843803D3*
X1381500Y2544598D3*
Y2619402D3*
D43*
X869000Y1356882D3*
Y1467118D3*
D29*
X1981500Y2769000D3*
Y2843803D3*
X1244000Y2619402D3*
Y2544598D3*
D43*
X869000Y1169000D3*
Y1058764D3*
D29*
X3206500Y2544598D3*
Y2619402D3*
X1819000Y1844000D3*
Y1769197D3*
D43*
X1294000Y1356882D3*
Y1467118D3*
D29*
X2281500Y2544598D3*
Y2619402D3*
X2431500Y2619000D3*
Y2544197D3*
X1519000Y2619000D3*
Y2544197D3*
D43*
X1294000Y1169000D3*
Y1058764D3*
D29*
X2281500Y1769000D3*
Y1843803D3*
X3369000Y2544598D3*
Y2619402D3*
D43*
X1719000Y1356882D3*
Y1467118D3*
D29*
X2881500Y2619402D3*
Y2544598D3*
X2144000Y1769000D3*
Y1843803D3*
X2281500Y2769000D3*
Y2843803D3*
D43*
X1719000Y1169000D3*
Y1058764D3*
D29*
X2569000Y1769000D3*
Y1843803D3*
D43*
X2156500Y1356882D3*
Y1467118D3*
D29*
X3519000Y2544598D3*
Y2619402D3*
X1681500Y2619000D3*
Y2544197D3*
X2431500Y1844000D3*
Y1769197D3*
X1694000Y2769000D3*
Y2843803D3*
D44*
X2119000Y3269000D3*
Y3219000D3*
Y3169000D3*
Y3119000D3*
X2331598D3*
Y3169000D3*
Y3219000D3*
Y3269000D3*
D46*
X518646Y2648528D3*
Y2469000D3*
D47*
X782425Y2558764D3*
D46*
X519000Y2319000D3*
Y2139472D3*
D47*
X782780Y2229236D3*
D48*
X1131500Y2756500D3*
X1181500D3*
X1231500D3*
X1281500D3*
Y2969098D3*
X1231500D3*
X1181500D3*
X1131500D3*
D42*
X1281500Y3269000D3*
X1206697D3*
X1244098Y3178449D3*
D49*
X719000Y2856500D3*
X519000D3*
X719000Y3256500D3*
X519000D3*
X544000Y1331500D3*
X744000D3*
X544000Y931500D3*
X744000D3*
X981500Y1331500D3*
X1181500D3*
X981500Y931500D3*
X1181500D3*
X1406500Y1331500D3*
X1606500D3*
X1406500Y931500D3*
X1606500D3*
X1831500Y1331500D3*
X2031500D3*
X1831500Y931500D3*
X2031500D3*
D50*
X644000Y1468677D3*
X744000D3*
Y1803323D3*
X644000D3*
X1031500Y1468677D3*
X1131500D3*
Y1803323D3*
X1031500D3*
X1469000Y1469000D3*
X1569000D3*
Y1803646D3*
X1469000D3*
X1919000Y1469000D3*
X2019000D3*
Y1803646D3*
X1919000D3*
X3719000Y3756500D2*
D101*
X4356500D1*
Y2706500D1*
X3719000D1*
Y3756500D1*
X444000Y1656500D2*
X4381500D1*
Y469000D1*
X444000D1*
Y1656500D1*
M02*
