%TF.GenerationSoftware,Novarm,DipTrace,3.3.1.2*%
%TF.CreationDate,2019-02-23T16:05:14+02:00*%
%FSLAX26Y26*%
%MOIN*%
%TF.FileFunction,Copper,L1,Top*%
%TF.Part,Single*%
%AMOUTLINE0*
4,1,4,
-0.038386,-0.038386,
-0.038386,0.038386,
0.038386,0.038386,
0.038386,-0.038386,
-0.038386,-0.038386,
0*%
%TA.AperFunction,Conductor*%
%ADD14C,0.011*%
%ADD15C,0.015*%
%ADD16C,0.02*%
%ADD17C,0.076772*%
%ADD18C,0.085*%
%TA.AperFunction,CopperBalancing*%
%ADD19C,0.025*%
%ADD22R,0.03937X0.043307*%
%ADD23R,0.070866X0.062992*%
%ADD24R,0.059055X0.051181*%
%ADD25R,0.051181X0.059055*%
%ADD26R,0.062992X0.070866*%
%ADD28R,0.047244X0.047244*%
%ADD29R,0.043307X0.03937*%
%TA.AperFunction,ComponentPad*%
%ADD31R,0.06378X0.06378*%
%ADD32C,0.06378*%
%ADD33R,0.098425X0.098425*%
%ADD34C,0.098425*%
%ADD35C,0.076772*%
%ADD36R,0.076772X0.076772*%
%ADD38R,0.041339X0.025591*%
%ADD39R,0.027559X0.035433*%
%TA.AperFunction,ComponentPad*%
%ADD42C,0.068898*%
%ADD43R,0.07874X0.023622*%
%ADD44R,0.023622X0.07874*%
%ADD46R,0.025591X0.041339*%
%ADD47R,0.066929X0.086614*%
%TA.AperFunction,ViaPad*%
%ADD48C,0.04*%
%TA.AperFunction,ComponentPad*%
%ADD99OUTLINE0*%
G75*
G01*
%LPD*%
X3256200Y3349787D2*
D14*
Y3298129D1*
X3291385D1*
Y3200011D1*
X3224885Y3133511D1*
Y3106200D1*
X3281200D1*
X809822Y3281200D2*
D15*
X868700D1*
X584822Y3303936D2*
X531200D1*
X643700D2*
X697322D1*
Y3259822D1*
X722322Y3234822D1*
X756200D1*
Y3281200D1*
Y3356881D1*
X787401Y3388082D1*
Y3543306D1*
X1706397Y3306200D2*
D14*
Y3182168D1*
X1727396Y3161169D1*
X1881200D1*
Y3106298D1*
X1646200Y3306204D2*
X1706397Y3306200D1*
X1781200D2*
X1937511D1*
X1958511Y3285200D1*
Y3055070D1*
X1937511Y3034070D1*
X1831200D1*
Y3106298D1*
X1771653Y3543306D2*
X1781200Y3533759D1*
Y3306200D1*
X1606200Y2735090D2*
Y2893700D1*
X856200Y2631200D2*
X903590Y2678590D1*
X1910200D1*
X1931200Y2699590D1*
Y2893700D1*
X1456200Y2735090D2*
Y2893700D1*
X1385200Y2789267D2*
Y2963070D1*
X1406200Y2984070D1*
X1760200D1*
X1781200Y2963070D1*
Y2893700D1*
X1506200D2*
Y2963070D1*
X1556200D1*
Y2893700D1*
Y2824326D1*
X1881200Y2893700D2*
Y2963070D1*
X1831200D1*
Y2893700D1*
Y2720590D1*
X1810200Y2699590D1*
X729810D1*
X708810Y2678590D1*
Y2078590D1*
X756200Y2031200D1*
X1731200Y1490846D2*
D16*
X1634054D1*
X1631200Y1493700D1*
X1343700Y1490846D2*
X1228346D1*
X1218700Y1481200D1*
X906200Y1490846D2*
X796554D1*
X793700Y1493700D1*
X556200Y1490846D2*
X471554D1*
X468700Y1493700D1*
X2931200Y2193700D2*
Y2131200D1*
X3031200Y2031200D1*
X3543700Y2193700D2*
Y2131200D1*
X3643700Y2031200D1*
X3843700Y2216436D2*
Y2356200D1*
Y2216436D2*
X3966436D1*
X3968700Y2218700D1*
X4068700D1*
X4268700Y2018700D1*
X2593700Y1789271D2*
X3051120D1*
X3156200D1*
X3181200Y1814271D1*
X3031200Y2031200D2*
Y1809191D1*
X3051120Y1789271D1*
X3806200D2*
X3655942D1*
X3206200D1*
X3181200Y1814271D1*
X3643700Y2031200D2*
Y1801513D1*
X3655942Y1789271D1*
X3806200D2*
X4039271D1*
X4268700Y2018700D1*
X2593700Y1789271D2*
X2098129D1*
X1856200Y2031200D1*
X1024255Y3143700D2*
Y3048700D1*
X994255Y3018700D1*
X868700D1*
X3843700Y2356200D2*
X3741885Y2458015D1*
Y2830629D1*
X3771885Y2860629D1*
X3818700D1*
X1206200Y3143700D2*
X1260649D1*
X1298051Y3106298D1*
X1456200D1*
X2931200Y2193700D2*
Y2381200D1*
X2918700D1*
X1968503Y3543306D2*
X2037719Y3474090D1*
X3186688D1*
X3255905Y3543306D1*
X1781200Y3036924D2*
Y3106298D1*
X643700Y2810629D2*
X613384D1*
X593385Y2790630D1*
Y2774771D1*
X868700Y3018700D2*
Y2872283D1*
X838700Y2842283D1*
X648503D1*
Y2810629D1*
X643700D1*
X2069369Y2281527D2*
D14*
Y2491700D1*
X2821865Y2752050D2*
Y2365019D1*
X2881086Y2305798D1*
Y1957121D1*
X2860086Y1936121D1*
X2799586D1*
X2643385Y1971621D2*
X2839086D1*
X2860086Y1992621D1*
Y2240688D1*
X2771865Y2328909D1*
Y2512700D1*
X2966700Y1937617D2*
X2900283Y1871200D1*
X2643385D1*
X3059054Y2491700D2*
X3085086Y2465668D1*
Y1937617D1*
X1268700Y2523129D2*
Y2618700D1*
X1256200Y2631200D1*
X1168700Y2523129D2*
Y2618700D1*
X1156200Y2631200D1*
X1043700Y2523129D2*
Y2618700D1*
X1056200Y2631200D1*
X918700Y2523129D2*
Y2593700D1*
X956200Y2631200D1*
X1410629Y1831200D2*
X1481200D1*
X1531200Y2143700D2*
X1606200D1*
X883464Y1031200D2*
Y1133464D1*
X906200Y1156200D1*
X1043700D2*
Y1103936D1*
X1106200Y1041436D1*
X1443700Y2143700D2*
Y2106200D1*
X1406200Y2068700D1*
Y1906200D1*
X1768700D1*
X1798129Y1876771D1*
Y1831200D1*
X3806200Y1856200D2*
Y1964271D1*
X3818700Y2685629D2*
X3769015D1*
Y2793700D1*
X3818700D1*
X3681200Y3218700D2*
Y3167046D1*
X3593700D1*
Y2977200D1*
X3572700Y2956200D1*
X3493798D1*
X3593700Y3167046D2*
Y3214271D1*
X643700Y918700D2*
D15*
Y1018700D1*
X656200Y1031200D1*
X1353936D2*
D14*
Y1145964D1*
X1343700Y1156200D1*
X1006200Y1490846D2*
Y1606200D1*
X1018700Y1618700D1*
X906200D1*
X1156200Y2210629D2*
X1151771D1*
X1093700Y2268700D1*
X939271D1*
X881200Y2210629D1*
X906200Y1618700D2*
X761629D1*
X740629Y1597700D1*
Y1444039D1*
X719629Y1423039D1*
X605165D1*
Y1549653D1*
X525200D1*
X504200Y1570653D1*
Y2514700D1*
X525200Y2535700D1*
X583200D1*
X604200Y2514700D1*
Y2004810D1*
X625200Y1983810D1*
X803590D1*
Y2078590D1*
X758200Y2123980D1*
Y2189630D1*
X779199Y2210629D1*
X881200D1*
X1818700Y2406200D2*
X1756200D1*
X2731200Y2031200D2*
X2593700D1*
X2820964Y2193700D2*
Y2120964D1*
X2731200Y2031200D1*
X2109251Y2368798D2*
X2645865D1*
X2820964Y2193700D1*
X1443700Y1156200D2*
Y1078936D1*
X1481200Y1041436D1*
X656200Y1490846D2*
Y1618700D1*
X556200D2*
X656200D1*
X1056200Y2210629D2*
X968700D1*
X656200Y1618700D2*
X719629D1*
Y1724570D1*
X1003885Y2008826D1*
Y2210629D1*
X968700D1*
X3331200Y2768798D2*
Y2703070D1*
X3352200Y2682070D1*
X3331200Y2661070D1*
Y2625570D1*
X3381200D1*
Y2556200D1*
X3352200Y2682070D2*
X3360200D1*
X3381200Y2703070D1*
Y2768798D1*
X3424424Y2890838D2*
X3589629D1*
X3610629Y2869838D1*
Y2781200D1*
X3456200Y3218700D2*
X3424424D1*
Y3106200D1*
X3331200Y2625570D2*
Y2556200D1*
X3424424Y2890838D2*
X3459924Y2926338D1*
X3695385D1*
X3716385Y2947338D1*
Y3285629D1*
X3681200D1*
X3381200Y2768798D2*
Y2847614D1*
X3424424Y2890838D1*
Y3106200D2*
X3493798D1*
X1741436Y1031200D2*
Y1145964D1*
X1731200Y1156200D1*
X1443700Y1490846D2*
Y1606200D1*
X1456200Y1618700D1*
X1343700D2*
X1456200D1*
X1256200Y2210629D2*
X1260629D1*
X1318700Y2268700D1*
X1473129D1*
X1531200Y2210629D1*
X1343700Y1618700D2*
X1224885D1*
X1203885Y1639700D1*
Y2210629D1*
X1256200D1*
X981200Y918700D2*
D15*
Y1018700D1*
X993700Y1031200D1*
X1881200Y1041436D2*
D14*
Y1106200D1*
X1831200Y1156200D1*
X545964Y1031200D2*
Y1145964D1*
X556200Y1156200D1*
X1831200Y1490846D2*
Y1606200D1*
X1843700Y1618700D1*
X1731200D2*
X1843700D1*
X1356200Y2210629D2*
X1443700D1*
X1356200D2*
X1306550D1*
Y2092046D1*
X1731200Y1618700D2*
X1551633D1*
X656200Y1156200D2*
X718700D1*
X768700Y1106200D1*
Y1028936D1*
X643700Y2743700D2*
Y2682771D1*
X614385D1*
X593385Y2703771D1*
Y2739271D1*
X543700D1*
X3493798Y3056200D2*
Y3031700D1*
X3445424D1*
X3424424Y3010700D1*
Y3006200D1*
X3493798D1*
X1268700Y2456200D2*
Y2381200D1*
X2018700Y2406200D2*
Y2443700D1*
X1943700Y2518700D1*
X1331200D1*
X1268700Y2456200D1*
X1168700D2*
Y2385629D1*
Y2456200D2*
X1131200D1*
X1106200Y2431200D1*
X1043700Y2456200D2*
Y2393700D1*
Y2456200D2*
X1006200D1*
X981200Y2431200D1*
X1606200Y2406200D2*
X1543700D1*
X3256200Y3231200D2*
X3203885D1*
Y3077200D1*
X3224885Y3056200D1*
X3281200D1*
X3343700D1*
Y3239271D1*
X918700Y2456200D2*
Y2393700D1*
Y2456200D2*
X868700D1*
X843700Y2431200D1*
X1381200Y2406200D2*
X1331200D1*
X968700Y2143700D2*
Y2131200D1*
X906200Y2068700D1*
Y1968700D1*
X843700Y1906200D1*
X710629D1*
X635629Y1831200D1*
X3118700Y2776771D2*
Y2522326D1*
X3139700Y2501326D1*
X3431200D1*
Y2556200D1*
Y2622133D1*
X3473011Y2663944D1*
Y2781200D1*
X3543700D1*
X881200Y2143700D2*
X793700D1*
X1031200Y1831200D2*
X960629D1*
X3168700Y3231200D2*
Y3043700D1*
X3118700D1*
Y3006200D1*
X3281200D1*
X543700Y2918700D2*
D16*
X488109D1*
Y2943704D1*
X3094554Y3218700D2*
X2818700D1*
X3281200Y2625570D2*
Y2556200D1*
X531200Y3193700D2*
Y3247322D1*
X643700D1*
Y3193700D1*
X543700Y3043700D2*
X531200D1*
Y3193700D1*
X488109Y2943704D2*
Y3043700D1*
X543700D1*
X2818700Y3218700D2*
X2014011D1*
X1984011Y3188700D1*
Y3028570D1*
X1954011Y2998570D1*
X1821200D1*
X1256200Y918700D2*
D14*
Y1018700D1*
X1243700Y1031200D1*
X1643700Y918700D2*
Y1018700D1*
X1631200Y1031200D1*
X2593700Y1964271D2*
Y1856200D1*
X3181200Y1989271D2*
Y1881200D1*
Y2056200D2*
X3318700D1*
X3343700Y2031200D1*
X3433464Y2193700D2*
Y2120964D1*
X3343700Y2031200D1*
X1909251Y2368798D2*
Y2478149D1*
X1906200Y2481200D1*
X3806200Y2031200D2*
Y2068700D1*
X3843700Y2106200D1*
X3881200D1*
X3968700Y2018700D1*
X1696751Y2368798D2*
Y2453149D1*
X1681200Y2468700D1*
X3843700Y2466436D2*
X3856200Y2443700D1*
X4043700D1*
X4268700Y2218700D1*
X1471751Y2368798D2*
Y2478149D1*
X1468700Y2481200D1*
X3843700Y2466436D2*
Y2548046D1*
X3818700Y2573046D1*
Y2618700D1*
X1456200Y2631200D2*
X1503590Y2583810D1*
X2082590D1*
X2103590Y2604810D1*
Y3073881D1*
X2124590Y3094881D1*
X3118700D1*
X2731200Y1161121D2*
D17*
X2674004Y1103926D1*
D18*
Y1074004D1*
X2665354Y1065354D1*
Y661417D1*
X3031200Y1287106D2*
D17*
X2974004Y1229910D1*
D18*
Y1211504D1*
X2862204Y1099704D1*
Y661417D1*
X3031200Y1035137D2*
D17*
Y954251D1*
D18*
Y689271D1*
X3059054Y661417D1*
X3343700Y1161121D2*
D17*
X3286504Y1103926D1*
D18*
Y1036504D1*
X3255905Y1005905D1*
Y661417D1*
X3643700Y1287106D2*
D17*
X3586504Y1229910D1*
D18*
Y1199004D1*
X3452755Y1065255D1*
Y661417D1*
X3643700Y1035137D2*
D17*
Y954251D1*
D18*
Y667322D1*
X3649606Y661417D1*
X3968700Y1148621D2*
D17*
Y1067735D1*
D18*
Y881200D1*
X3846456Y758956D1*
Y661417D1*
X4268700Y1274606D2*
D17*
X4211504Y1217410D1*
D18*
X4106200Y1112106D1*
Y724310D1*
X4043306Y661417D1*
X4268700Y1022637D2*
D17*
Y941751D1*
D18*
Y689960D1*
X4240157Y661417D1*
Y3543306D2*
Y3198208D1*
X4268700Y3169665D1*
D17*
Y3088779D1*
X3846456Y3543306D2*
D18*
Y3133956D1*
X3911504Y3068907D1*
Y3019990D1*
D17*
X3968700Y2962794D1*
Y3214763D2*
X4025896Y3271959D1*
D18*
Y3288396D1*
X4043306Y3305806D1*
Y3543306D1*
X1377952D2*
D14*
X1456200Y3465058D1*
Y3306200D1*
X1535200D1*
X1556200Y3285200D1*
Y3106298D1*
X1381397Y3306200D2*
Y3182168D1*
X1402396Y3161169D1*
X1506200D1*
Y3106298D1*
X1266814Y3306204D2*
X1381397Y3306200D1*
X768700Y918700D2*
D15*
Y680117D1*
X787401Y661417D1*
X533464Y918700D2*
Y718503D1*
X590550Y661417D1*
X870964Y918700D2*
Y766436D1*
X975983Y661417D1*
X984251D1*
X1106200Y931200D2*
Y768700D1*
X1181102Y693798D1*
Y661417D1*
X1481200Y931200D2*
D14*
Y755019D1*
X1574802Y661417D1*
X1366436Y918700D2*
Y672932D1*
X1377952Y661417D1*
X1881200Y931200D2*
Y748720D1*
X1968503Y661417D1*
X1753936Y918700D2*
Y679133D1*
X1771653Y661417D1*
X1056200Y2143700D2*
Y2031200D1*
X1156200Y2143700D2*
Y2031200D1*
X1256200Y2143700D2*
Y2031200D1*
X1356200Y2143700D2*
Y2031200D1*
X556200Y1728936D2*
D16*
X656200D1*
X556200D2*
Y1818700D1*
X568700Y1831200D1*
X906200Y1728936D2*
X1018700D1*
X906200D2*
X895964D1*
X893700Y1731200D1*
Y1831200D1*
X1343700Y1728936D2*
X1456200D1*
X1343700D2*
Y1780432D1*
Y1831200D1*
X1731200Y1728936D2*
X1843700D1*
X1731200Y1831200D2*
Y1728936D1*
X918700Y2326771D2*
X1043700D1*
X1160629D1*
X1168700Y2318700D1*
X1219015D1*
X1264271D1*
X1268700Y2314271D1*
X1364074D1*
X1381200Y2331397D1*
X1606200D1*
X1818700D1*
X2018700D1*
X3649606Y3543306D2*
Y3449094D1*
X3593700Y3393188D1*
Y3281200D1*
X984251Y3543306D2*
Y3286515D1*
X868700Y3170964D1*
X3593700Y3281200D2*
X3555728D1*
Y3293503D1*
X3515728D1*
Y3333503D1*
X3485728Y3363503D1*
X3343700D1*
X3313700Y3393503D1*
X3198700D1*
X3168700Y3363503D1*
Y3298129D1*
X3343700Y3363503D2*
Y3306200D1*
X1931200Y3106298D2*
Y3181173D1*
X1915704Y3196669D1*
X758464Y3018700D2*
Y2948700D1*
X728464Y2918700D1*
X674094D1*
Y3043700D1*
X618503D1*
X2018700Y2331397D2*
Y2129259D1*
X2033869Y2114090D1*
X568700Y1831200D2*
Y2479200D1*
X1731200Y1728936D2*
X1532633D1*
Y1750432D1*
X1502633Y1780432D1*
X1343700D1*
X1018700Y1728936D2*
X1131633D1*
X1161633Y1698936D1*
Y1427539D1*
X1191633Y1397539D1*
X1481633D1*
X1511633Y1427539D1*
Y1707936D1*
X1532633Y1728936D1*
X1219015Y2318700D2*
Y2479200D1*
X1731200Y1831200D2*
X1679546D1*
X1343700Y1728936D2*
X1278267D1*
X2818700Y3293503D2*
X2008503D1*
X3168700Y3298129D2*
Y3293503D1*
X2818700D1*
X3515728D2*
X3456200D1*
X674094Y2918700D2*
X618503D1*
X756200Y3170964D2*
Y3018700D1*
X758464D1*
X868700Y3170964D2*
X756200D1*
X3118700Y2843700D2*
X2948700D1*
X2918700Y2813700D1*
Y2491436D1*
X3281200Y2956200D2*
X3148700D1*
X3118700Y2926200D1*
Y2843700D1*
X3343700Y3306200D2*
X3383385D1*
Y2986200D1*
X3353385Y2956200D1*
X3281200D1*
X1206200Y3043700D2*
X1151747Y3098153D1*
Y3346873D1*
X1181747Y3376873D1*
X1388795D1*
X1418798Y3346870D1*
Y3215649D1*
X1606200Y3106298D2*
Y3043700D1*
X1206200D1*
X1743798Y3215649D2*
Y3346869D1*
X1713794Y3376873D1*
X1636200D1*
X1606200Y3346873D1*
Y3106298D1*
X1915704Y3196669D2*
X1865192D1*
X1846212Y3215649D1*
X1743798D1*
X618503Y2918700D2*
Y2852287D1*
X543700D1*
Y2806200D1*
D48*
X1631200Y1493700D3*
X1218700Y1481200D3*
X793700Y1493700D3*
X468700D3*
X793700Y2143700D3*
X1606200D3*
X1031200Y1831200D3*
X1481200D3*
X843700Y2431200D3*
X981200D3*
X1906200Y2481200D3*
X1106200Y2431200D3*
X1331200Y2406200D3*
X1543700D3*
X1756200D3*
X1681200Y2468700D3*
X1468700Y2481200D3*
X3256200Y3349787D3*
X809822Y3281200D3*
X584822Y3303936D3*
X1646200Y3306204D3*
X1606200Y2735090D3*
X1456200D3*
X1385200Y2789267D3*
X1556200Y2824326D3*
X593385Y2774771D3*
X1024255Y3143700D3*
X1781200Y3036924D3*
X2069369Y2491700D3*
Y2281527D3*
X2799586Y1936121D3*
X2821865Y2752050D3*
X2771865Y2512700D3*
X2643385Y1971621D3*
Y1871200D3*
X2966700Y1937617D3*
X3085086D3*
X3059054Y2491700D3*
X3424424Y2890838D3*
Y3106200D3*
X1306550Y2092046D3*
X1551633Y1618700D3*
X488109Y2943704D3*
X1821200Y2998570D3*
X3281200Y2625570D3*
X3094554Y3218700D3*
X1266814Y3306204D3*
X2033869Y2114090D3*
X2008503Y3293503D3*
X568700Y2479200D3*
X1915704Y3196669D3*
X1679546Y1831200D3*
X1219015Y2479200D3*
X483897Y3668831D2*
D19*
X3692972D1*
X484041Y3643962D2*
X3694766D1*
X484184Y3619094D2*
X3696561D1*
X484328Y3594225D2*
X512341D1*
X668773D2*
X728867D1*
X845933D2*
X1102887D1*
X1259319D2*
X1319413D1*
X1436479D2*
X1516273D1*
X1633340D2*
X1693434D1*
X1849865D2*
X1909959D1*
X2027025D2*
X2106819D1*
X2223886D2*
X2587129D1*
X2743560D2*
X2803654D1*
X2920721D2*
X3000515D1*
X3117581D2*
X3177675D1*
X3334107D2*
X3394236D1*
X3511303D2*
X3698355D1*
X484436Y3569356D2*
X512341D1*
X668773D2*
X713795D1*
X861004D2*
X1102887D1*
X1259319D2*
X1304377D1*
X1451550D2*
X1501202D1*
X1648375D2*
X1693434D1*
X1849865D2*
X1894923D1*
X2042096D2*
X2091748D1*
X2238957D2*
X2587129D1*
X2743560D2*
X2788619D1*
X2935792D2*
X2985480D1*
X3132653D2*
X3177675D1*
X3334107D2*
X3379165D1*
X3526338D2*
X3700149D1*
X484579Y3544487D2*
X512341D1*
X668773D2*
X709202D1*
X865597D2*
X1102887D1*
X1259319D2*
X1299748D1*
X1456144D2*
X1496609D1*
X1653004D2*
X1693434D1*
X1849865D2*
X1890294D1*
X2046690D2*
X2087155D1*
X2243550D2*
X2587129D1*
X2743560D2*
X2783990D1*
X2940421D2*
X2980850D1*
X3137246D2*
X3177675D1*
X3334107D2*
X3374536D1*
X3530967D2*
X3701943D1*
X484723Y3519619D2*
X512341D1*
X668773D2*
X713006D1*
X861830D2*
X1102887D1*
X1259319D2*
X1303552D1*
X1452376D2*
X1500377D1*
X1649200D2*
X1693434D1*
X1849865D2*
X1894098D1*
X2046295D2*
X2090959D1*
X2239782D2*
X2587129D1*
X2743560D2*
X2787794D1*
X2936617D2*
X2984654D1*
X3133478D2*
X3177675D1*
X3334107D2*
X3378340D1*
X3527163D2*
X3703737D1*
X484866Y3494750D2*
X512341D1*
X668773D2*
X726821D1*
X847978D2*
X1102887D1*
X1259319D2*
X1317367D1*
X1474265D2*
X1514228D1*
X1635385D2*
X1693434D1*
X1849865D2*
X1907913D1*
X3334107D2*
X3392155D1*
X3513348D2*
X3705532D1*
X484974Y3469881D2*
X512341D1*
X668773D2*
X750899D1*
X823900D2*
X1102887D1*
X1259319D2*
X1356983D1*
X1490341D2*
X1553844D1*
X1595769D2*
X1693434D1*
X1849865D2*
X1947529D1*
X3334107D2*
X3431771D1*
X3473732D2*
X3707362D1*
X485117Y3445012D2*
X750899D1*
X823900D2*
X1421683D1*
X1490700D2*
X1746686D1*
X1815703D2*
X2013162D1*
X3211239D2*
X3709156D1*
X485261Y3420144D2*
X750899D1*
X823900D2*
X1421683D1*
X1490700D2*
X1746686D1*
X1815703D2*
X3710950D1*
X485404Y3395275D2*
X744010D1*
X823900D2*
X1421683D1*
X1490700D2*
X1746686D1*
X1815703D2*
X3244061D1*
X3268367D2*
X3712744D1*
X485548Y3370406D2*
X722515D1*
X818948D2*
X1421683D1*
X1490700D2*
X1746686D1*
X1815703D2*
X3212016D1*
X3300375D2*
X3714539D1*
X696332Y3345537D2*
X719716D1*
X795444D2*
X1239499D1*
X1294126D2*
X1339615D1*
X1497984D2*
X1618902D1*
X1822988D2*
X3207387D1*
X3305004D2*
X3716333D1*
X921326Y3320669D2*
X1220121D1*
X1568497D2*
X1599525D1*
X1970795D2*
X3207531D1*
X3316595D2*
X3632507D1*
X921326Y3295800D2*
X1219009D1*
X1588879D2*
X1598372D1*
X1991213D2*
X3207531D1*
X3325889D2*
X3632507D1*
X921326Y3270931D2*
X1234008D1*
X1299617D2*
X1339615D1*
X1497984D2*
X1521692D1*
X1590709D2*
X1613412D1*
X1822988D2*
X1924025D1*
X1993007D2*
X3120009D1*
X3392382D2*
X3632507D1*
X921326Y3246062D2*
X1346900D1*
X1415881D2*
X1521692D1*
X1590709D2*
X1671903D1*
X1740885D2*
X1924025D1*
X3514712D2*
X3545022D1*
X789846Y3221193D2*
X1346900D1*
X1415881D2*
X1521692D1*
X1590709D2*
X1671903D1*
X1740885D2*
X1924025D1*
X3514712D2*
X3545022D1*
X696332Y3196325D2*
X1172969D1*
X1239439D2*
X1346900D1*
X1415881D2*
X1521692D1*
X1590709D2*
X1671903D1*
X1740885D2*
X1924025D1*
X3514712D2*
X3545022D1*
X696332Y3171456D2*
X984434D1*
X1064073D2*
X1149429D1*
X1286842D2*
X1348730D1*
X1597025D2*
X1673733D1*
X2023006D2*
X2760163D1*
X2877229D2*
X3134184D1*
X3378208D2*
X3389916D1*
X3514712D2*
X3545022D1*
X696332Y3146587D2*
X975355D1*
X1073152D2*
X1142827D1*
X1311889D2*
X1369220D1*
X1597025D2*
X1694223D1*
X2023006D2*
X3134184D1*
X3285699D2*
X3309191D1*
X3378208D2*
X3389916D1*
X3458912D2*
X3559196D1*
X570199Y3121718D2*
X980774D1*
X1067733D2*
X1146846D1*
X1597025D2*
X1740406D1*
X2023006D2*
X2104666D1*
X3628213D2*
X3681884D1*
X598296Y3096850D2*
X985259D1*
X1063248D2*
X1164716D1*
X1597025D2*
X1740406D1*
X2023006D2*
X2078794D1*
X3628213D2*
X3681884D1*
X598296Y3071981D2*
X808207D1*
X929184D2*
X985259D1*
X1063248D2*
X1283134D1*
X1597025D2*
X1740406D1*
X2023006D2*
X2069105D1*
X3378208D2*
X3390465D1*
X3628213D2*
X3681884D1*
X598296Y3047112D2*
X808207D1*
X1063212D2*
X1415403D1*
X1597025D2*
X1733337D1*
X2023006D2*
X2069105D1*
X2138087D2*
X3075908D1*
X3376880D2*
X3413076D1*
X3628213D2*
X3681884D1*
X598296Y3022243D2*
X808207D1*
X1051908D2*
X1734593D1*
X2022468D2*
X2069105D1*
X2138087D2*
X3075908D1*
X3349573D2*
X3392083D1*
X3628213D2*
X3681884D1*
X598296Y2997375D2*
X808207D1*
X1027040D2*
X1174835D1*
X1237573D2*
X1371732D1*
X2006930D2*
X2069105D1*
X2138087D2*
X3085453D1*
X3349573D2*
X3391150D1*
X3628213D2*
X3681884D1*
X598296Y2972506D2*
X808207D1*
X929184D2*
X1150003D1*
X1262405D2*
X1352139D1*
X1982062D2*
X2069105D1*
X2138087D2*
X3212842D1*
X3349573D2*
X3425420D1*
X3627854D2*
X3681884D1*
X598296Y2947637D2*
X829701D1*
X907690D2*
X1142862D1*
X1269510D2*
X1350704D1*
X1647011D2*
X1740406D1*
X1972015D2*
X2069105D1*
X2138087D2*
X3425420D1*
X598296Y2922768D2*
X829701D1*
X907690D2*
X1146451D1*
X1265957D2*
X1350704D1*
X1647011D2*
X1740406D1*
X1972015D2*
X2069105D1*
X2138087D2*
X3388136D1*
X598296Y2897899D2*
X829701D1*
X907690D2*
X1163496D1*
X1248912D2*
X1350704D1*
X1647011D2*
X1740406D1*
X1972015D2*
X2069105D1*
X2138087D2*
X3375971D1*
X3712541D2*
X3748700D1*
X598296Y2873031D2*
X626345D1*
X907690D2*
X1350704D1*
X1647011D2*
X1740406D1*
X1972015D2*
X2069105D1*
X2138087D2*
X3358855D1*
X3644971D2*
X3730184D1*
X488383Y2848162D2*
X595019D1*
X898611D2*
X1350704D1*
X1647011D2*
X1740406D1*
X1972015D2*
X2069105D1*
X2138087D2*
X3346690D1*
X3445383D2*
X3576133D1*
X3645115D2*
X3707362D1*
X488526Y2823293D2*
X571945D1*
X873815D2*
X1350704D1*
X1490700D2*
X1507195D1*
X1640696D2*
X1796708D1*
X1865690D2*
X1896717D1*
X1965699D2*
X2069105D1*
X2138087D2*
X3070023D1*
X3167389D2*
X3240401D1*
X3472009D2*
X3493061D1*
X3661299D2*
X3702876D1*
X488670Y2798424D2*
X550845D1*
X692384D2*
X1337104D1*
X1490700D2*
X1515089D1*
X1640696D2*
X1796708D1*
X1865690D2*
X1896717D1*
X1965699D2*
X2069105D1*
X2138087D2*
X2815963D1*
X2827761D2*
X3070023D1*
X3167389D2*
X3240401D1*
X3661299D2*
X3702876D1*
X692384Y2773556D2*
X1338934D1*
X1490700D2*
X1571714D1*
X1640696D2*
X1796708D1*
X1865690D2*
X1896717D1*
X1965699D2*
X2069105D1*
X2138087D2*
X2778141D1*
X2865603D2*
X3070023D1*
X3167389D2*
X3240401D1*
X3661299D2*
X3702876D1*
X692384Y2748687D2*
X1359998D1*
X1503152D2*
X1559227D1*
X1653184D2*
X1796708D1*
X1865690D2*
X1896717D1*
X1965699D2*
X2069105D1*
X2138087D2*
X2772973D1*
X2870734D2*
X3070023D1*
X3167389D2*
X3240401D1*
X3661299D2*
X3702876D1*
X692384Y2723818D2*
X706403D1*
X1865690D2*
X1896717D1*
X1965699D2*
X2069105D1*
X2138087D2*
X2782411D1*
X2861296D2*
X3084197D1*
X3153214D2*
X3240401D1*
X3507499D2*
X3702876D1*
X1965699Y2698949D2*
X2069105D1*
X2138087D2*
X2787363D1*
X2856380D2*
X3084197D1*
X3153214D2*
X3296954D1*
X3415420D2*
X3438517D1*
X3507499D2*
X3702876D1*
X489352Y2674081D2*
X575318D1*
X1998318D2*
X2014059D1*
X2198336D2*
X2214077D1*
X2298345D2*
X2787363D1*
X2856380D2*
X3084197D1*
X3153214D2*
X3299466D1*
X3399954D2*
X3435395D1*
X3507499D2*
X3702876D1*
X489459Y2649212D2*
X674323D1*
X2314242D2*
X2787363D1*
X2856380D2*
X3084197D1*
X3153214D2*
X3238642D1*
X3503910D2*
X3702876D1*
X489603Y2624343D2*
X674323D1*
X1816672D2*
X1895713D1*
X2316682D2*
X2787363D1*
X2856380D2*
X3084197D1*
X3153214D2*
X3232219D1*
X3481160D2*
X3702876D1*
X3867381D2*
X3929521D1*
X489746Y2599474D2*
X674323D1*
X2307711D2*
X2787363D1*
X2856380D2*
X3084197D1*
X3153214D2*
X3240221D1*
X3472009D2*
X3702876D1*
X3867381D2*
X4124336D1*
X489890Y2574606D2*
X674323D1*
X817082D2*
X839318D1*
X873061D2*
X884209D1*
X973071D2*
X1009194D1*
X1078211D2*
X1134214D1*
X1203196D2*
X1234188D1*
X1303205D2*
X1339328D1*
X1373072D2*
X1439338D1*
X2121149D2*
X2139330D1*
X2173074D2*
X2239340D1*
X2273083D2*
X2787363D1*
X2856380D2*
X3084197D1*
X3153214D2*
X3240401D1*
X3472009D2*
X3702876D1*
X3867381D2*
X4319151D1*
X616920Y2549737D2*
X674323D1*
X743304D2*
X869999D1*
X967401D2*
X995020D1*
X1092386D2*
X1120004D1*
X1954001D2*
X2741252D1*
X2856380D2*
X3084197D1*
X3153214D2*
X3240401D1*
X3472009D2*
X3702876D1*
X3780901D2*
X3794237D1*
X3878147D2*
X4353313D1*
X637051Y2524868D2*
X674323D1*
X743304D2*
X869999D1*
X967401D2*
X995020D1*
X1092386D2*
X1120004D1*
X1985292D2*
X2034262D1*
X2104463D2*
X2724494D1*
X2856380D2*
X3023947D1*
X3472009D2*
X3702876D1*
X3780901D2*
X3809201D1*
X3878183D2*
X4352990D1*
X538693Y2499999D2*
X569684D1*
X638702D2*
X674323D1*
X743304D2*
X869999D1*
X967401D2*
X995020D1*
X1092386D2*
X1120004D1*
X2010159D2*
X2021119D1*
X2117633D2*
X2724637D1*
X2856380D2*
X3010814D1*
X3472009D2*
X3702876D1*
X3780901D2*
X3791080D1*
X3896340D2*
X4352667D1*
X538693Y2475130D2*
X569684D1*
X638702D2*
X674323D1*
X743304D2*
X825969D1*
X1335393D2*
X1420104D1*
X1517290D2*
X1632646D1*
X1729760D2*
X1857604D1*
X2115300D2*
X2737376D1*
X2856380D2*
X3013110D1*
X3452094D2*
X3702876D1*
X3780901D2*
X3791080D1*
X4052221D2*
X4352344D1*
X538693Y2450262D2*
X569684D1*
X638702D2*
X674323D1*
X743304D2*
X798769D1*
X1348563D2*
X1431479D1*
X1506238D2*
X1526357D1*
X1561069D2*
X1636019D1*
X1731268D2*
X1738827D1*
X1773575D2*
X1868979D1*
X1943738D2*
X1964395D1*
X2103853D2*
X2737376D1*
X2856380D2*
X3035466D1*
X3119591D2*
X3703702D1*
X4084875D2*
X4352021D1*
X538693Y2425393D2*
X569684D1*
X638702D2*
X674323D1*
X743304D2*
X795073D1*
X1943738D2*
X1969024D1*
X2103853D2*
X2737376D1*
X2983123D2*
X3050573D1*
X3119591D2*
X3720388D1*
X4109779D2*
X4351698D1*
X538693Y2400524D2*
X569684D1*
X638702D2*
X674323D1*
X743304D2*
X806269D1*
X1958917D2*
X1969024D1*
X2652558D2*
X2737376D1*
X2983123D2*
X3050573D1*
X3119591D2*
X3745255D1*
X3896340D2*
X4039111D1*
X4134647D2*
X4351375D1*
X538693Y2375655D2*
X569684D1*
X638702D2*
X674323D1*
X743304D2*
X869999D1*
X967401D2*
X995020D1*
X1092386D2*
X1120004D1*
X1958917D2*
X1969024D1*
X2686756D2*
X2737376D1*
X2983123D2*
X3050573D1*
X3119591D2*
X3770123D1*
X3896340D2*
X4063979D1*
X4159515D2*
X4351052D1*
X538693Y2350787D2*
X569684D1*
X638702D2*
X674323D1*
X743304D2*
X869999D1*
X967401D2*
X995020D1*
X1092386D2*
X1120004D1*
X1317379D2*
X1422077D1*
X1521417D2*
X1647071D1*
X1746411D2*
X1859577D1*
X1958917D2*
X2034872D1*
X2711624D2*
X2737376D1*
X2983123D2*
X3050573D1*
X3119591D2*
X3791080D1*
X3896340D2*
X4088847D1*
X4184382D2*
X4350729D1*
X538693Y2325918D2*
X569684D1*
X638702D2*
X674323D1*
X743304D2*
X2034872D1*
X2103853D2*
X2640991D1*
X2983123D2*
X3050573D1*
X3119591D2*
X3791080D1*
X3896340D2*
X4113714D1*
X4209250D2*
X4350442D1*
X538693Y2301049D2*
X569684D1*
X638702D2*
X674323D1*
X743304D2*
X2024680D1*
X2114080D2*
X2665859D1*
X2970205D2*
X3050573D1*
X3119591D2*
X3804716D1*
X3882704D2*
X4138582D1*
X4234118D2*
X4350119D1*
X538693Y2276180D2*
X569684D1*
X638702D2*
X674323D1*
X743304D2*
X898994D1*
X1133975D2*
X1278433D1*
X1513415D2*
X2020661D1*
X2118063D2*
X2690727D1*
X2970205D2*
X3050573D1*
X3119591D2*
X3804716D1*
X3882704D2*
X3936088D1*
X4001301D2*
X4163450D1*
X4336101D2*
X4349796D1*
X538693Y2251312D2*
X569684D1*
X638702D2*
X674323D1*
X743304D2*
X832500D1*
X1579872D2*
X2031534D1*
X2107226D2*
X2715595D1*
X2970205D2*
X3050573D1*
X3119591D2*
X3791080D1*
X4087603D2*
X4188317D1*
X4336101D2*
X4349473D1*
X538693Y2226443D2*
X569684D1*
X638702D2*
X674323D1*
X1579872D2*
X2740462D1*
X2983805D2*
X3050573D1*
X3119591D2*
X3380852D1*
X3596312D2*
X3791080D1*
X4115090D2*
X4201308D1*
X4336101D2*
X4349150D1*
X538693Y2201574D2*
X569684D1*
X638702D2*
X674323D1*
X1579872D2*
X2765330D1*
X2983805D2*
X3050573D1*
X3119591D2*
X3380852D1*
X3596312D2*
X3791080D1*
X4139958D2*
X4201308D1*
X4336101D2*
X4348827D1*
X538693Y2176705D2*
X569684D1*
X638702D2*
X674323D1*
X1641449D2*
X2768344D1*
X2983805D2*
X3050573D1*
X3119591D2*
X3380852D1*
X3596312D2*
X3791080D1*
X3896340D2*
X3916746D1*
X4020679D2*
X4056587D1*
X4164825D2*
X4201308D1*
X4336101D2*
X4348504D1*
X538693Y2151836D2*
X569684D1*
X638702D2*
X674323D1*
X1654475D2*
X2768344D1*
X2983805D2*
X3050573D1*
X3119591D2*
X3380852D1*
X3596312D2*
X3791080D1*
X3896340D2*
X4081454D1*
X4189693D2*
X4348182D1*
X538693Y2126968D2*
X569684D1*
X638702D2*
X674323D1*
X1652071D2*
X2779217D1*
X2989547D2*
X3050573D1*
X3119591D2*
X3391724D1*
X3467955D2*
X3504939D1*
X3602054D2*
X3791080D1*
X3908182D2*
X4106322D1*
X4214561D2*
X4347859D1*
X538693Y2102099D2*
X569684D1*
X638702D2*
X674323D1*
X1629464D2*
X2754350D1*
X3014414D2*
X3050573D1*
X3119591D2*
X3132533D1*
X3229899D2*
X3366857D1*
X3461818D2*
X3518683D1*
X3626921D2*
X3791080D1*
X3933049D2*
X4131190D1*
X4239429D2*
X4347571D1*
X538693Y2077230D2*
X569684D1*
X638702D2*
X674323D1*
X1094610D2*
X1117779D1*
X1494611D2*
X1517780D1*
X1594621D2*
X1617790D1*
X1694630D2*
X1717763D1*
X1794639D2*
X1817772D1*
X1894612D2*
X1917781D1*
X1994622D2*
X2117764D1*
X2194640D2*
X2217773D1*
X2294613D2*
X2545001D1*
X2642403D2*
X2663814D1*
X2915589D2*
X2931043D1*
X3119591D2*
X3132533D1*
X3437489D2*
X3543550D1*
X3691944D2*
X3757528D1*
X4026815D2*
X4156058D1*
X4299212D2*
X4347249D1*
X538693Y2052361D2*
X569684D1*
X638702D2*
X687277D1*
X2013138D2*
X2099284D1*
X2313130D2*
X2545001D1*
X2800114D2*
X2825580D1*
X2915589D2*
X2955911D1*
X3119591D2*
X3132533D1*
X3412621D2*
X3568418D1*
X3707553D2*
X3757528D1*
X3854894D2*
X3887285D1*
X4036073D2*
X4180925D1*
X4326663D2*
X4346926D1*
X538693Y2027493D2*
X569684D1*
X638702D2*
X695315D1*
X2016977D2*
X2095444D1*
X2316969D2*
X2545001D1*
X2798571D2*
X2825580D1*
X2915589D2*
X2963913D1*
X3119591D2*
X3132533D1*
X3411078D2*
X3576420D1*
X3710962D2*
X3757528D1*
X3854894D2*
X3901316D1*
X4036073D2*
X4201918D1*
X4335491D2*
X4346603D1*
X538693Y2002624D2*
X569792D1*
X2009621D2*
X2102764D1*
X2309613D2*
X2545001D1*
X2915589D2*
X2970444D1*
X3119591D2*
X3132533D1*
X3229899D2*
X3276321D1*
X3411078D2*
X3582951D1*
X3704467D2*
X3757528D1*
X3854894D2*
X3901316D1*
X4036073D2*
X4198509D1*
X4334055D2*
X4346280D1*
X538693Y1977755D2*
X583500D1*
X1020581D2*
X1030186D1*
X1082230D2*
X1130195D1*
X1282213D2*
X1330178D1*
X1482231D2*
X1530196D1*
X1582205D2*
X1630170D1*
X1682214D2*
X1730179D1*
X1782223D2*
X1830188D1*
X1982206D2*
X2130180D1*
X2182224D2*
X2230189D1*
X2282233D2*
X2545001D1*
X2915589D2*
X2940732D1*
X3119591D2*
X3132533D1*
X3229899D2*
X3276321D1*
X3411078D2*
X3604410D1*
X3683008D2*
X3757528D1*
X3854894D2*
X3901423D1*
X4035965D2*
X4173641D1*
X4321532D2*
X4345957D1*
X538693Y1952886D2*
X614468D1*
X814319D2*
X842619D1*
X995714D2*
X1169381D1*
X1238398D2*
X1371696D1*
X1440713D2*
X1880390D1*
X1988629D2*
X2545001D1*
X3229899D2*
X3604697D1*
X3682686D2*
X3757528D1*
X3854894D2*
X4148773D1*
X4257012D2*
X4345634D1*
X538693Y1928018D2*
X684693D1*
X970846D2*
X1169381D1*
X1238398D2*
X1371696D1*
X1794639D2*
X1905258D1*
X2013497D2*
X2545001D1*
X2662032D2*
X2751299D1*
X2899728D2*
X2909319D1*
X3229899D2*
X3604697D1*
X3682686D2*
X3757528D1*
X3854894D2*
X4123905D1*
X4232144D2*
X4345311D1*
X538693Y1903149D2*
X659825D1*
X945978D2*
X1169381D1*
X1238398D2*
X1371839D1*
X1819507D2*
X1930126D1*
X2038364D2*
X2545001D1*
X3118801D2*
X3132533D1*
X3229899D2*
X3604697D1*
X3682686D2*
X3757528D1*
X3854894D2*
X4099038D1*
X4207276D2*
X4345024D1*
X538693Y1878280D2*
X634958D1*
X921110D2*
X1169381D1*
X1238398D2*
X1388059D1*
X1832605D2*
X1954993D1*
X2063232D2*
X2545001D1*
X2955134D2*
X2992190D1*
X3070214D2*
X3132533D1*
X3229899D2*
X3604697D1*
X3682686D2*
X3757528D1*
X3854894D2*
X4074170D1*
X4182409D2*
X4344701D1*
X538693Y1853411D2*
X584971D1*
X705590D2*
X800707D1*
X896243D2*
X909974D1*
X1074551D2*
X1169381D1*
X1238398D2*
X1359962D1*
X1524539D2*
X1747475D1*
X1848788D2*
X1979861D1*
X2088100D2*
X2545001D1*
X2930266D2*
X2992190D1*
X3070214D2*
X3132533D1*
X3229899D2*
X3604697D1*
X3682686D2*
X3757528D1*
X3854894D2*
X4049302D1*
X4157541D2*
X4344378D1*
X538693Y1828543D2*
X584971D1*
X686284D2*
X775839D1*
X871339D2*
X909974D1*
X1080113D2*
X1169381D1*
X1238398D2*
X1359962D1*
X1530137D2*
X1747475D1*
X1848788D2*
X2004729D1*
X2112968D2*
X2545001D1*
X2664400D2*
X2992190D1*
X3070214D2*
X3132533D1*
X3229899D2*
X3604697D1*
X3682686D2*
X3757528D1*
X3854894D2*
X4024434D1*
X4132673D2*
X4344055D1*
X538693Y1803674D2*
X584971D1*
X686284D2*
X750971D1*
X846471D2*
X909974D1*
X1071178D2*
X1169381D1*
X1238398D2*
X1359962D1*
X1521166D2*
X1747475D1*
X1848788D2*
X2029597D1*
X4107805D2*
X4343732D1*
X538693Y1778805D2*
X726104D1*
X821603D2*
X1169381D1*
X1238398D2*
X2054464D1*
X4082938D2*
X4343409D1*
X538693Y1753936D2*
X701236D1*
X796736D2*
X1169381D1*
X1238398D2*
X2086473D1*
X3167855D2*
X3194541D1*
X4050929D2*
X4343086D1*
X538693Y1729067D2*
X685447D1*
X771868D2*
X1169381D1*
X1238398D2*
X4342763D1*
X538693Y1704199D2*
X685124D1*
X754141D2*
X1169381D1*
X1238398D2*
X4342440D1*
X538693Y1679330D2*
X685124D1*
X754141D2*
X1169381D1*
X1238398D2*
X4342153D1*
X754141Y1654461D2*
X841758D1*
X1083127D2*
X1169381D1*
X1238398D2*
X1279258D1*
X1583855D2*
X1666772D1*
X1908141D2*
X4341830D1*
X1083127Y1629592D2*
X1171032D1*
X1908141D2*
X4341507D1*
X1083127Y1604724D2*
X1191091D1*
X1908141D2*
X2541197D1*
X775133Y1579855D2*
X841758D1*
X1083127D2*
X1279258D1*
X1579693D2*
X1666772D1*
X1908141D2*
X2541197D1*
X775133Y1554986D2*
X843732D1*
X1068666D2*
X1281232D1*
X1506166D2*
X1668745D1*
X1893679D2*
X2541197D1*
X825120Y1530117D2*
X843732D1*
X1068666D2*
X1281232D1*
X1506166D2*
X1599776D1*
X1893679D2*
X2541197D1*
X1068666Y1505249D2*
X1176414D1*
X1506166D2*
X1583664D1*
X1893679D2*
X2541197D1*
X1068666Y1480380D2*
X1169704D1*
X1506166D2*
X1584166D1*
X1893679D2*
X2541197D1*
X1068666Y1455511D2*
X1177455D1*
X1506166D2*
X1602180D1*
X1893679D2*
X2541197D1*
X3131701Y3279354D2*
X3210037D1*
X3209843Y3346139D1*
Y3353435D1*
X3210985Y3360642D1*
X3213240Y3367582D1*
X3216552Y3374083D1*
X3220841Y3379986D1*
X3226001Y3385146D1*
X3231904Y3389435D1*
X3238405Y3392747D1*
X3245345Y3395002D1*
X3252552Y3396144D1*
X3259848D1*
X3267055Y3395002D1*
X3273995Y3392747D1*
X3280496Y3389435D1*
X3286399Y3385146D1*
X3291559Y3379986D1*
X3295848Y3374083D1*
X3299160Y3367582D1*
X3301415Y3360642D1*
X3302557Y3353435D1*
Y3346139D1*
X3302385Y3337096D1*
Y3328161D1*
X3308105Y3325414D1*
X3312167Y3322462D1*
X3315718Y3318912D1*
X3318670Y3314849D1*
X3320949Y3310375D1*
X3322501Y3305599D1*
X3323286Y3300640D1*
X3323385Y3287400D1*
X3389885Y3287424D1*
Y3191117D1*
X3375711D1*
X3375601Y3053689D1*
X3374816Y3048730D1*
X3373264Y3043954D1*
X3370985Y3039480D1*
X3368033Y3035418D1*
X3364482Y3031867D1*
X3360420Y3028915D1*
X3355946Y3026636D1*
X3351170Y3025084D1*
X3348696Y3024593D1*
X3347070Y3016952D1*
Y2967889D1*
X3215330D1*
Y2974169D1*
X3116189Y2974298D1*
X3111230Y2975084D1*
X3106454Y2976636D1*
X3101980Y2978915D1*
X3097918Y2981867D1*
X3094367Y2985418D1*
X3091415Y2989480D1*
X3089136Y2993954D1*
X3087582Y2998739D1*
X3085489Y2999483D1*
X3078421D1*
Y3062891D1*
X2137878Y3062881D1*
X2135590Y3055508D1*
Y2685865D1*
X2142569Y2687976D1*
X2151619Y2689410D1*
X2160781D1*
X2169831Y2687976D1*
X2178545Y2685145D1*
X2186709Y2680985D1*
X2194121Y2675600D1*
X2200600Y2669121D1*
X2206187Y2661349D1*
X2211800Y2669121D1*
X2218279Y2675600D1*
X2225691Y2680985D1*
X2233855Y2685145D1*
X2242569Y2687976D1*
X2251619Y2689410D1*
X2260781D1*
X2269831Y2687976D1*
X2278545Y2685145D1*
X2286709Y2680985D1*
X2294121Y2675600D1*
X2300600Y2669121D1*
X2305985Y2661709D1*
X2310145Y2653545D1*
X2312976Y2644831D1*
X2314410Y2635781D1*
Y2626619D1*
X2312976Y2617569D1*
X2310145Y2608855D1*
X2305985Y2600691D1*
X2300600Y2593279D1*
X2294121Y2586800D1*
X2286709Y2581415D1*
X2278545Y2577255D1*
X2269831Y2574424D1*
X2260781Y2572990D1*
X2251619D1*
X2242569Y2574424D1*
X2233855Y2577255D1*
X2225691Y2581415D1*
X2218279Y2586800D1*
X2211800Y2593279D1*
X2206213Y2601051D1*
X2200600Y2593279D1*
X2194121Y2586800D1*
X2186709Y2581415D1*
X2178545Y2577255D1*
X2169831Y2574424D1*
X2160781Y2572990D1*
X2151619D1*
X2142569Y2574424D1*
X2133855Y2577255D1*
X2125557Y2581504D1*
X2103372Y2559477D1*
X2099310Y2556525D1*
X2094836Y2554246D1*
X2090060Y2552694D1*
X2085101Y2551908D1*
X2018286Y2551810D1*
X1501079Y2551908D1*
X1496120Y2552694D1*
X1491344Y2554246D1*
X1486870Y2556525D1*
X1482808Y2559477D1*
X1468098Y2574047D1*
X1460781Y2572990D1*
X1451619D1*
X1442569Y2574424D1*
X1433855Y2577255D1*
X1425691Y2581415D1*
X1418279Y2586800D1*
X1411800Y2593279D1*
X1406213Y2601051D1*
X1400600Y2593279D1*
X1394121Y2586800D1*
X1386709Y2581415D1*
X1378545Y2577255D1*
X1369831Y2574424D1*
X1360781Y2572990D1*
X1351619D1*
X1342569Y2574424D1*
X1333855Y2577255D1*
X1325691Y2581415D1*
X1318279Y2586800D1*
X1311800Y2593279D1*
X1306213Y2601051D1*
X1300700Y2593405D1*
Y2571297D1*
X1314885Y2571283D1*
Y2546200D1*
X1318954Y2548264D1*
X1323730Y2549816D1*
X1328689Y2550601D1*
X1395504Y2550700D1*
X1946211Y2550601D1*
X1951170Y2549816D1*
X1955946Y2548264D1*
X1960420Y2545985D1*
X1964482Y2543033D1*
X2011798Y2495857D1*
X2023441Y2484426D1*
X2022869Y2491700D1*
X2023441Y2498974D1*
X2025145Y2506069D1*
X2027937Y2512811D1*
X2031750Y2519032D1*
X2036489Y2524580D1*
X2042037Y2529319D1*
X2048258Y2533132D1*
X2055000Y2535924D1*
X2062095Y2537628D1*
X2069369Y2538200D1*
X2076643Y2537628D1*
X2083738Y2535924D1*
X2090480Y2533132D1*
X2096701Y2529319D1*
X2102249Y2524580D1*
X2106988Y2519032D1*
X2110801Y2512811D1*
X2113593Y2506069D1*
X2115297Y2498974D1*
X2115869Y2491700D1*
X2115297Y2484426D1*
X2113593Y2477331D1*
X2110801Y2470589D1*
X2106988Y2464368D1*
X2102249Y2458820D1*
X2101359Y2457997D1*
X2101369Y2408126D1*
X2156421Y2408094D1*
Y2400809D1*
X2648376Y2400700D1*
X2653336Y2399914D1*
X2658111Y2398363D1*
X2662585Y2396083D1*
X2666648Y2393131D1*
X2713963Y2345956D1*
X2741697Y2318222D1*
X2740259Y2323903D1*
X2739865Y2328909D1*
Y2478941D1*
X2734246Y2485368D1*
X2730433Y2491589D1*
X2727641Y2498331D1*
X2725937Y2505426D1*
X2725365Y2512700D1*
X2725937Y2519974D1*
X2727641Y2527069D1*
X2730433Y2533811D1*
X2734246Y2540032D1*
X2738985Y2545580D1*
X2744533Y2550319D1*
X2750754Y2554132D1*
X2757496Y2556924D1*
X2764591Y2558628D1*
X2771865Y2559200D1*
X2779139Y2558628D1*
X2786234Y2556924D1*
X2789854Y2555571D1*
X2789865Y2718299D1*
X2784246Y2724718D1*
X2780433Y2730939D1*
X2777641Y2737681D1*
X2775937Y2744776D1*
X2775365Y2752050D1*
X2775937Y2759324D1*
X2777641Y2766419D1*
X2780433Y2773161D1*
X2784246Y2779382D1*
X2788985Y2784930D1*
X2794533Y2789669D1*
X2800754Y2793482D1*
X2807496Y2796274D1*
X2814591Y2797978D1*
X2821865Y2798550D1*
X2829139Y2797978D1*
X2836234Y2796274D1*
X2842976Y2793482D1*
X2849197Y2789669D1*
X2854745Y2784930D1*
X2859484Y2779382D1*
X2863297Y2773161D1*
X2866089Y2766419D1*
X2867793Y2759324D1*
X2868365Y2752050D1*
X2867793Y2744776D1*
X2866089Y2737681D1*
X2863297Y2730939D1*
X2859484Y2724718D1*
X2854745Y2719170D1*
X2853855Y2718347D1*
X2853865Y2378244D1*
X2856767Y2378322D1*
Y2439196D1*
X2980633D1*
Y2323204D1*
X2967679D1*
X2967700Y2243799D1*
X2981322Y2243822D1*
Y2143578D1*
X2970449D1*
X3019100Y2094919D1*
X3026109Y2095886D1*
X3036291D1*
X3046347Y2094293D1*
X3053099Y2092228D1*
X3053086Y2445558D1*
X3044685Y2447476D1*
X3037943Y2450268D1*
X3031722Y2454081D1*
X3026174Y2458820D1*
X3021435Y2464368D1*
X3017622Y2470589D1*
X3014830Y2477331D1*
X3013126Y2484426D1*
X3012554Y2491700D1*
X3013126Y2498974D1*
X3014830Y2506069D1*
X3017622Y2512811D1*
X3021435Y2519032D1*
X3026174Y2524580D1*
X3031722Y2529319D1*
X3037943Y2533132D1*
X3044685Y2535924D1*
X3051780Y2537628D1*
X3059054Y2538200D1*
X3066328Y2537628D1*
X3073423Y2535924D1*
X3080165Y2533132D1*
X3086711Y2529063D1*
X3086700Y2728624D1*
X3072515Y2728617D1*
Y2824924D1*
X3164885D1*
Y2728617D1*
X3150711D1*
X3150700Y2535593D1*
X3158073Y2533326D1*
X3242867D1*
X3242889Y2599238D1*
X3239768Y2604459D1*
X3236976Y2611201D1*
X3235272Y2618296D1*
X3234700Y2625570D1*
X3235272Y2632844D1*
X3236976Y2639939D1*
X3239768Y2646681D1*
X3243581Y2652902D1*
X3248320Y2658450D1*
X3253868Y2663189D1*
X3260089Y2667002D1*
X3266831Y2669794D1*
X3273926Y2671498D1*
X3281200Y2672070D1*
X3288474Y2671498D1*
X3295569Y2669794D1*
X3299966Y2668083D1*
X3301636Y2673316D1*
X3303915Y2677790D1*
X3306874Y2681860D1*
X3305311Y2684261D1*
X3302688Y2688542D1*
X3300766Y2693181D1*
X3299594Y2698064D1*
X3299298Y2700569D1*
X3291952Y2702928D1*
X3242889D1*
Y2834668D1*
X3349169D1*
X3349299Y2850125D1*
X3350084Y2855084D1*
X3351636Y2859860D1*
X3353915Y2864334D1*
X3356867Y2868396D1*
X3377933Y2889602D1*
X3378067Y2894486D1*
X3379209Y2901693D1*
X3381464Y2908633D1*
X3384776Y2915134D1*
X3389065Y2921037D1*
X3394225Y2926197D1*
X3400128Y2930486D1*
X3406629Y2933798D1*
X3413569Y2936053D1*
X3420776Y2937195D1*
X3425635Y2937290D1*
X3427906Y2939575D1*
X3427928Y2974191D1*
X3421913Y2974298D1*
X3416954Y2975084D1*
X3412178Y2976636D1*
X3407704Y2978915D1*
X3403642Y2981867D1*
X3400091Y2985418D1*
X3397139Y2989480D1*
X3394860Y2993954D1*
X3393308Y2998730D1*
X3392522Y3003689D1*
Y3013211D1*
X3393308Y3018170D1*
X3394860Y3022946D1*
X3397139Y3027420D1*
X3400091Y3031482D1*
X3422796Y3054328D1*
X3426623Y3057594D1*
X3424424Y3059700D1*
X3417150Y3060272D1*
X3410055Y3061976D1*
X3403313Y3064768D1*
X3397092Y3068581D1*
X3391544Y3073320D1*
X3386805Y3078868D1*
X3382992Y3085089D1*
X3380200Y3091831D1*
X3378496Y3098926D1*
X3377924Y3106200D1*
X3378496Y3113474D1*
X3380200Y3120569D1*
X3382992Y3127311D1*
X3386805Y3133532D1*
X3391544Y3139080D1*
X3392434Y3139903D1*
X3392523Y3221211D1*
X3393308Y3226170D1*
X3394860Y3230946D1*
X3397139Y3235420D1*
X3400098Y3239490D1*
X3400173Y3270790D1*
X3512228D1*
Y3166609D1*
X3456428D1*
X3456424Y3144527D1*
X3559669Y3144511D1*
Y2988424D1*
X3561700Y2995573D1*
Y3166114D1*
X3547515Y3166117D1*
Y3262424D1*
X3635037D1*
X3635015Y3333783D1*
X3719666D1*
X3694568Y3681242D1*
X481300Y3693651D1*
X483124Y3354070D1*
X581322Y3354058D1*
Y3350290D1*
X588470Y3350293D1*
X593565Y3349571D1*
X593578Y3354058D1*
X693822D1*
Y3337946D1*
X699990Y3337832D1*
X705259Y3336997D1*
X710333Y3335348D1*
X715087Y3332926D1*
X717315Y3331436D1*
X722200Y3336318D1*
X722305Y3359549D1*
X723139Y3364818D1*
X724788Y3369892D1*
X727210Y3374646D1*
X730346Y3378962D1*
X753396Y3402161D1*
X753401Y3475675D1*
X747841Y3478751D1*
X742898Y3482054D1*
X738229Y3485734D1*
X733864Y3489769D1*
X729828Y3494135D1*
X726148Y3498804D1*
X722845Y3503747D1*
X719940Y3508933D1*
X717451Y3514332D1*
X715394Y3519910D1*
X713780Y3525632D1*
X712620Y3531462D1*
X711922Y3537366D1*
X711688Y3543306D1*
X711922Y3549247D1*
X712620Y3555150D1*
X713780Y3560981D1*
X715394Y3566703D1*
X717451Y3572280D1*
X719940Y3577679D1*
X722845Y3582866D1*
X726148Y3587809D1*
X729828Y3592478D1*
X733864Y3596843D1*
X738229Y3600879D1*
X742898Y3604559D1*
X747841Y3607862D1*
X753028Y3610767D1*
X758427Y3613256D1*
X764004Y3615313D1*
X769726Y3616927D1*
X775557Y3618087D1*
X781460Y3618786D1*
X787401Y3619019D1*
X793341Y3618786D1*
X799245Y3618087D1*
X805076Y3616927D1*
X810797Y3615313D1*
X816375Y3613256D1*
X821774Y3610767D1*
X826961Y3607862D1*
X831904Y3604559D1*
X836572Y3600879D1*
X840938Y3596843D1*
X844973Y3592478D1*
X848654Y3587809D1*
X851956Y3582866D1*
X854861Y3577679D1*
X857350Y3572280D1*
X859408Y3566703D1*
X861021Y3560981D1*
X862181Y3555150D1*
X862880Y3549247D1*
X863113Y3543306D1*
X862880Y3537366D1*
X862181Y3531462D1*
X861021Y3525632D1*
X859408Y3519910D1*
X857350Y3514332D1*
X854861Y3508933D1*
X851956Y3503747D1*
X848654Y3498804D1*
X844973Y3494135D1*
X840938Y3489769D1*
X836572Y3485734D1*
X831904Y3482054D1*
X826961Y3478751D1*
X821415Y3475681D1*
X821296Y3385414D1*
X820461Y3380145D1*
X818813Y3375071D1*
X816391Y3370317D1*
X813255Y3366001D1*
X790204Y3342802D1*
X790200Y3331296D1*
X806322Y3331322D1*
Y3327554D1*
X813470Y3327557D1*
X818565Y3326835D1*
X818578Y3331322D1*
X918822D1*
Y3231078D1*
X818578D1*
Y3235563D1*
X813470Y3234843D1*
X806330Y3234837D1*
X806322Y3231078D1*
X789995D1*
X788536Y3224315D1*
X786494Y3219386D1*
X783707Y3214837D1*
X780242Y3210780D1*
X776185Y3207315D1*
X771636Y3204528D1*
X766707Y3202486D1*
X761519Y3201241D1*
X756190Y3200822D1*
X719654Y3200927D1*
X714385Y3201761D1*
X709311Y3203410D1*
X704557Y3205832D1*
X700241Y3208968D1*
X698273Y3210788D1*
X693822Y3207077D1*
Y3143578D1*
X593578D1*
Y3210789D1*
X581297Y3210822D1*
X581322Y3143578D1*
X567722D1*
X567700Y3099719D1*
X595791Y3099727D1*
Y2987672D1*
X524632D1*
X524609Y2974695D1*
X595791Y2974727D1*
Y2862672D1*
X491610D1*
Y2882229D1*
X488098Y2882200D1*
X485718Y2879509D1*
X487555Y2543315D1*
X504418Y2560033D1*
X508480Y2562985D1*
X512954Y2565264D1*
X517730Y2566816D1*
X522689Y2567601D1*
X583200Y2567700D1*
X588206Y2567306D1*
X593089Y2566134D1*
X597728Y2564212D1*
X602009Y2561589D1*
X605827Y2558327D1*
X628533Y2535482D1*
X631485Y2531420D1*
X633764Y2526946D1*
X635316Y2522170D1*
X636101Y2517211D1*
X636200Y2450396D1*
Y2018099D1*
X643573Y2015810D1*
X697794D1*
X697810Y2044327D1*
X684477Y2057808D1*
X681526Y2061870D1*
X679246Y2066344D1*
X677694Y2071120D1*
X676909Y2076079D1*
X676810Y2142894D1*
X676908Y2681101D1*
X677694Y2686060D1*
X679246Y2690836D1*
X681531Y2695318D1*
X675711Y2695546D1*
X675601Y2680260D1*
X674816Y2675301D1*
X673264Y2670525D1*
X670985Y2666051D1*
X668033Y2661989D1*
X664482Y2658438D1*
X660420Y2655486D1*
X655946Y2653207D1*
X651170Y2651655D1*
X646211Y2650870D1*
X614385Y2650771D1*
X609379Y2651165D1*
X604496Y2652337D1*
X599857Y2654259D1*
X595576Y2656882D1*
X591758Y2660144D1*
X569052Y2682989D1*
X566100Y2687051D1*
X564869Y2689252D1*
X562326Y2691117D1*
X497515D1*
Y2787424D1*
X548650D1*
X550425Y2792566D1*
X553737Y2799067D1*
X558026Y2804970D1*
X561709Y2808765D1*
X565630Y2814335D1*
X587575Y2836439D1*
X591930Y2840158D1*
X596824Y2843156D1*
X597515Y2845153D1*
Y2858783D1*
X615981Y2858854D1*
X618974Y2863737D1*
X622694Y2868092D1*
X627049Y2871812D1*
X631932Y2874805D1*
X637224Y2876997D1*
X642793Y2878334D1*
X648514Y2878783D1*
X823582D1*
X832200Y2887402D1*
Y2956790D1*
X810704Y2956767D1*
Y3080633D1*
X926696D1*
Y3055191D1*
X979116Y3055200D1*
X987755Y3063819D1*
Y3114906D1*
X984607Y3119404D1*
X981295Y3125905D1*
X979040Y3132845D1*
X977898Y3140052D1*
Y3147348D1*
X979040Y3154555D1*
X981295Y3161495D1*
X984607Y3167996D1*
X988896Y3173899D1*
X994056Y3179059D1*
X999959Y3183348D1*
X1006460Y3186660D1*
X1013400Y3188915D1*
X1020607Y3190057D1*
X1027903D1*
X1035110Y3188915D1*
X1042050Y3186660D1*
X1048551Y3183348D1*
X1054454Y3179059D1*
X1059614Y3173899D1*
X1063903Y3167996D1*
X1067215Y3161495D1*
X1069470Y3154555D1*
X1070612Y3147348D1*
Y3140052D1*
X1069470Y3132845D1*
X1067215Y3125905D1*
X1063903Y3119404D1*
X1060753Y3114946D1*
X1060643Y3045836D1*
X1059747Y3040179D1*
X1057977Y3034732D1*
X1055376Y3029629D1*
X1052010Y3024995D1*
X1020064Y2992891D1*
X1015709Y2989171D1*
X1010826Y2986178D1*
X1005534Y2983986D1*
X999965Y2982649D1*
X994255Y2982200D1*
X926685D1*
X926696Y2956767D1*
X905202D1*
X905088Y2869419D1*
X904192Y2863762D1*
X902422Y2858315D1*
X899821Y2853212D1*
X896455Y2848578D1*
X864509Y2816474D1*
X860154Y2812754D1*
X855271Y2809761D1*
X849979Y2807569D1*
X844410Y2806232D1*
X838700Y2805783D1*
X689888D1*
X689885Y2704906D1*
X709028Y2723923D1*
X713090Y2726875D1*
X717564Y2729154D1*
X722340Y2730706D1*
X727299Y2731492D1*
X794114Y2731590D1*
X1409851D1*
X1409843Y2738738D1*
X1410985Y2745945D1*
X1412879Y2751908D1*
X1406311Y2747835D1*
X1399569Y2745043D1*
X1392474Y2743339D1*
X1385200Y2742767D1*
X1377926Y2743339D1*
X1370831Y2745043D1*
X1364089Y2747835D1*
X1357868Y2751648D1*
X1352320Y2756387D1*
X1347581Y2761935D1*
X1343768Y2768156D1*
X1340976Y2774898D1*
X1339272Y2781993D1*
X1338700Y2789267D1*
X1339272Y2796541D1*
X1340976Y2803636D1*
X1343768Y2810378D1*
X1347581Y2816599D1*
X1352320Y2822147D1*
X1353210Y2822970D1*
X1353299Y2965581D1*
X1354084Y2970540D1*
X1355636Y2975316D1*
X1357915Y2979790D1*
X1360867Y2983852D1*
X1383573Y3006697D1*
X1387391Y3009959D1*
X1391672Y3012582D1*
X1396311Y3014504D1*
X1401194Y3015676D1*
X1406200Y3016070D1*
X1739672D1*
X1736976Y3022555D1*
X1735272Y3029650D1*
X1734700Y3036924D1*
X1735272Y3044198D1*
X1736976Y3051293D1*
X1739768Y3058035D1*
X1742891Y3063224D1*
X1742889Y3129170D1*
X1724885Y3129268D1*
X1719926Y3130053D1*
X1715150Y3131605D1*
X1710676Y3133884D1*
X1706614Y3136836D1*
X1683769Y3159541D1*
X1680508Y3163359D1*
X1677885Y3167640D1*
X1675963Y3172280D1*
X1674791Y3177162D1*
X1674397Y3182178D1*
Y3258996D1*
X1667102Y3259031D1*
Y3264664D1*
X1660569Y3261980D1*
X1653474Y3260276D1*
X1646200Y3259704D1*
X1638926Y3260276D1*
X1631831Y3261980D1*
X1625089Y3264772D1*
X1618868Y3268585D1*
X1613320Y3273324D1*
X1608581Y3278872D1*
X1604768Y3285093D1*
X1601976Y3291835D1*
X1600272Y3298930D1*
X1599700Y3306204D1*
X1600272Y3313478D1*
X1601976Y3320573D1*
X1604768Y3327315D1*
X1608581Y3333536D1*
X1613320Y3339084D1*
X1618868Y3343823D1*
X1625089Y3347636D1*
X1631831Y3350428D1*
X1638926Y3352132D1*
X1646200Y3352704D1*
X1653474Y3352132D1*
X1660569Y3350428D1*
X1667090Y3347737D1*
X1667102Y3353369D1*
X1749189D1*
X1749200Y3467571D1*
X1695940Y3467593D1*
Y3619019D1*
X1847366D1*
Y3467593D1*
X1813168D1*
X1813200Y3353369D1*
X1820495D1*
Y3338190D1*
X1940022Y3338101D1*
X1944981Y3337316D1*
X1949757Y3335764D1*
X1954231Y3333485D1*
X1958293Y3330533D1*
X1981138Y3307827D1*
X1984400Y3304009D1*
X1987023Y3299728D1*
X1988945Y3295089D1*
X1990117Y3290206D1*
X1990511Y3285200D1*
Y3246624D1*
X1994940Y3249821D1*
X2000043Y3252422D1*
X2005490Y3254192D1*
X2011147Y3255088D1*
X2059943Y3255200D1*
X2762663D1*
X2762673Y3270790D1*
X2874728D1*
Y3255181D1*
X3065763Y3255200D1*
X3070258Y3258348D1*
X3076759Y3261660D1*
X3083699Y3263915D1*
X3090906Y3265057D1*
X3098202D1*
X3105409Y3263915D1*
X3112349Y3261660D1*
X3118850Y3258348D1*
X3122524Y3255816D1*
X3122515Y3279354D1*
X3131701D1*
X3136693Y3183046D2*
X3124421D1*
X3118850Y3179052D1*
X3112349Y3175740D1*
X3105409Y3173485D1*
X3098202Y3172343D1*
X3090906D1*
X3083699Y3173485D1*
X3076759Y3175740D1*
X3070258Y3179052D1*
X3065800Y3182202D1*
X2874763Y3182200D1*
X2874728Y3166609D1*
X2762673D1*
Y3182219D1*
X2029140Y3182200D1*
X2020511Y3173581D1*
X2020399Y3025706D1*
X2019503Y3020049D1*
X2017733Y3014602D1*
X2015132Y3009499D1*
X2011766Y3004865D1*
X1979820Y2972761D1*
X1975465Y2969041D1*
X1970582Y2966048D1*
X1965290Y2963856D1*
X1959721Y2962519D1*
X1954011Y2962070D1*
X1913211D1*
X1916380Y2959570D1*
X1969511D1*
Y2827830D1*
X1963232D1*
X1963101Y2697079D1*
X1962316Y2692120D1*
X1961630Y2689692D1*
X1969831Y2687976D1*
X1978545Y2685145D1*
X1986709Y2680985D1*
X1994121Y2675600D1*
X2000600Y2669121D1*
X2006187Y2661349D1*
X2011800Y2669121D1*
X2018279Y2675600D1*
X2025691Y2680985D1*
X2033855Y2685145D1*
X2042569Y2687976D1*
X2051619Y2689410D1*
X2060781D1*
X2069831Y2687976D1*
X2071606Y2687476D1*
X2071689Y3076392D1*
X2072474Y3081351D1*
X2074026Y3086127D1*
X2076306Y3090601D1*
X2079257Y3094663D1*
X2101963Y3117509D1*
X2105781Y3120770D1*
X2110062Y3123393D1*
X2114702Y3125315D1*
X2119584Y3126487D1*
X2124590Y3126881D1*
X3078428D1*
X3078421Y3139097D1*
X3136733D1*
X3136700Y3183038D1*
X536216Y1676696D2*
X687602D1*
X687728Y1727081D1*
X688513Y1732040D1*
X690065Y1736816D1*
X692344Y1741290D1*
X695296Y1745352D1*
X742472Y1792668D1*
X823998Y1874194D1*
X723883Y1874200D1*
X683803Y1834119D1*
X683783Y1785015D1*
X587476D1*
Y1877385D1*
X636529D1*
X689847Y1930533D1*
X693909Y1933485D1*
X698383Y1935764D1*
X703159Y1937316D1*
X708118Y1938101D1*
X774934Y1938200D1*
X830446D1*
X865858Y1973612D1*
X856200Y1972810D1*
X847066Y1973529D1*
X838157Y1975668D1*
X834847Y1976889D1*
X833154Y1971564D1*
X830875Y1967090D1*
X827923Y1963028D1*
X824372Y1959477D1*
X820310Y1956525D1*
X815836Y1954246D1*
X811060Y1952694D1*
X806101Y1951909D1*
X739286Y1951810D1*
X622689Y1951909D1*
X617730Y1952694D1*
X612954Y1954246D1*
X608480Y1956525D1*
X604418Y1959477D1*
X581573Y1982183D1*
X578311Y1986001D1*
X575688Y1990282D1*
X573766Y1994921D1*
X572594Y1999804D1*
X572200Y2004820D1*
Y2501411D1*
X564827Y2503700D1*
X538452D1*
X536200Y2496327D1*
Y1676697D1*
X853453Y1676696D2*
X1080633D1*
Y1560704D1*
X1066165Y1560652D1*
Y1434735D1*
X1209668Y1435589D1*
X1204331Y1436976D1*
X1197589Y1439768D1*
X1191368Y1443581D1*
X1185820Y1448320D1*
X1181081Y1453868D1*
X1177268Y1460089D1*
X1174476Y1466831D1*
X1172772Y1473926D1*
X1172200Y1481200D1*
X1172772Y1488474D1*
X1174476Y1495569D1*
X1177268Y1502311D1*
X1181081Y1508532D1*
X1185820Y1514080D1*
X1191368Y1518819D1*
X1197589Y1522632D1*
X1204331Y1525424D1*
X1211426Y1527128D1*
X1218700Y1527700D1*
X1225482Y1527233D1*
X1274277Y1527346D1*
X1283715D1*
X1283735Y1560653D1*
X1350515Y1560704D1*
X1281767D1*
Y1586720D1*
X1222374Y1586799D1*
X1217415Y1587584D1*
X1212639Y1589136D1*
X1208165Y1591416D1*
X1204103Y1594367D1*
X1181258Y1617073D1*
X1177996Y1620891D1*
X1175373Y1625172D1*
X1173451Y1629811D1*
X1172279Y1634694D1*
X1171885Y1639700D1*
Y1974966D1*
X1165334Y1973529D1*
X1156200Y1972810D1*
X1147066Y1973529D1*
X1138157Y1975668D1*
X1129692Y1979174D1*
X1121879Y1983962D1*
X1114912Y1989912D1*
X1108962Y1996879D1*
X1106213Y2001051D1*
X1100600Y1993279D1*
X1094121Y1986800D1*
X1086709Y1981415D1*
X1078545Y1977255D1*
X1069831Y1974424D1*
X1060781Y1972990D1*
X1051619D1*
X1042569Y1974424D1*
X1033855Y1977255D1*
X1025691Y1981415D1*
X1023324Y1982997D1*
X917684Y1877370D1*
X1008783Y1877385D1*
Y1871966D1*
X1013405Y1874160D1*
X1020345Y1876415D1*
X1027552Y1877557D1*
X1034848D1*
X1042055Y1876415D1*
X1048995Y1874160D1*
X1055496Y1870848D1*
X1061399Y1866559D1*
X1066559Y1861399D1*
X1070848Y1855496D1*
X1074160Y1848995D1*
X1076415Y1842055D1*
X1077557Y1834848D1*
Y1827552D1*
X1076415Y1820345D1*
X1074160Y1813405D1*
X1070848Y1806904D1*
X1066559Y1801001D1*
X1061399Y1795841D1*
X1055496Y1791552D1*
X1048995Y1788240D1*
X1042055Y1785985D1*
X1034848Y1784843D1*
X1027552D1*
X1020345Y1785985D1*
X1013405Y1788240D1*
X1008783Y1790500D1*
Y1785015D1*
X912476D1*
Y1872178D1*
X751636Y1711323D1*
X751740Y1649134D1*
X756623Y1650306D1*
X761639Y1650700D1*
X844270D1*
X844267Y1676696D1*
X853453D1*
X956758Y1560704D2*
X844267D1*
Y1586720D1*
X774900Y1586700D1*
X772629Y1579327D1*
Y1535154D1*
X779331Y1537924D1*
X786426Y1539628D1*
X793700Y1540200D1*
X800974Y1539628D1*
X808069Y1537924D1*
X814811Y1535132D1*
X821032Y1531319D1*
X825753Y1527345D1*
X846254Y1527346D1*
X846236Y1560652D1*
X956767Y1560740D1*
X1290953Y1676696D2*
X1518133D1*
Y1650967D1*
X1524301Y1656319D1*
X1530522Y1660132D1*
X1537264Y1662924D1*
X1544359Y1664628D1*
X1551633Y1665200D1*
X1558907Y1664628D1*
X1566002Y1662924D1*
X1572744Y1660132D1*
X1578965Y1656319D1*
X1584513Y1651580D1*
X1585336Y1650690D1*
X1669297Y1650700D1*
X1669267Y1676696D1*
X1905633D1*
Y1560704D1*
X1891165Y1560653D1*
Y1439687D1*
X2543674Y1443625D1*
X2543854Y1608155D1*
X2544651Y1610984D1*
X2546087Y1613547D1*
X2548082Y1615705D1*
X2550525Y1617338D1*
X2553282Y1618355D1*
X2556200Y1618700D1*
X4343843D1*
X4356058Y2570238D1*
X3864903Y2632913D1*
X3864885Y2572126D1*
X3869589Y2566855D1*
X3872212Y2562574D1*
X3874134Y2557935D1*
X3875306Y2553052D1*
X3875700Y2548036D1*
Y2516576D1*
X3893822Y2516558D1*
Y2475686D1*
X4046211Y2475601D1*
X4051170Y2474816D1*
X4055946Y2473264D1*
X4060420Y2470985D1*
X4064482Y2468033D1*
X4111798Y2420857D1*
X4249045Y2283610D1*
X4333586Y2283586D1*
Y2153814D1*
X4203814D1*
Y2238321D1*
X4030470Y2411675D1*
X3853689Y2411799D1*
X3848730Y2412584D1*
X3843954Y2414136D1*
X3838704Y2416314D1*
X3835223D1*
X3845212Y2406307D1*
X3893822Y2406322D1*
Y2306078D1*
X3880222D1*
X3880200Y2266525D1*
X3893822Y2266558D1*
Y2252958D1*
X3913567Y2252936D1*
X3919360Y2260840D1*
X3926560Y2268040D1*
X3934797Y2274024D1*
X3943869Y2278647D1*
X3953553Y2281793D1*
X3963609Y2283386D1*
X3973791D1*
X3983847Y2281793D1*
X3993531Y2278647D1*
X4002603Y2274024D1*
X4010840Y2268040D1*
X4018040Y2260840D1*
X4022288Y2255201D1*
X4071564Y2255088D1*
X4077221Y2254192D1*
X4082668Y2252422D1*
X4087771Y2249821D1*
X4092405Y2246455D1*
X4126988Y2212031D1*
X4256573Y2082446D1*
X4263609Y2083386D1*
X4273791D1*
X4283847Y2081793D1*
X4293531Y2078647D1*
X4302603Y2074024D1*
X4310840Y2068040D1*
X4318040Y2060840D1*
X4324024Y2052603D1*
X4328647Y2043531D1*
X4331793Y2033847D1*
X4333386Y2023791D1*
Y2013609D1*
X4331793Y2003553D1*
X4328647Y1993869D1*
X4324024Y1984797D1*
X4318040Y1976560D1*
X4310840Y1969360D1*
X4302603Y1963376D1*
X4293531Y1958753D1*
X4283847Y1955607D1*
X4273791Y1954014D1*
X4263609D1*
X4256617Y1954997D1*
X4062976Y1761516D1*
X4058342Y1758149D1*
X4053239Y1755549D1*
X4047792Y1753779D1*
X4042135Y1752883D1*
X3993339Y1752771D1*
X3852350D1*
X3852385Y1741117D1*
X3760015D1*
Y1752780D1*
X3203336Y1752883D1*
X3197679Y1753779D1*
X3192232Y1755549D1*
X3187129Y1758149D1*
X3182487Y1761524D1*
X3179905Y1761516D1*
X3175271Y1758149D1*
X3170168Y1755549D1*
X3164721Y1753779D1*
X3159064Y1752883D1*
X3110268Y1752771D1*
X2639851D1*
X2639885Y1741117D1*
X2547515D1*
Y1752780D1*
X2095265Y1752883D1*
X2089608Y1753779D1*
X2084161Y1755549D1*
X2079058Y1758149D1*
X2074424Y1761516D1*
X2039841Y1795940D1*
X1862604Y1973177D1*
X1856200Y1972810D1*
X1847066Y1973529D1*
X1838157Y1975668D1*
X1829692Y1979174D1*
X1821879Y1983962D1*
X1814912Y1989912D1*
X1808962Y1996879D1*
X1806213Y2001051D1*
X1800600Y1993279D1*
X1794121Y1986800D1*
X1786709Y1981415D1*
X1778545Y1977255D1*
X1769831Y1974424D1*
X1760781Y1972990D1*
X1751619D1*
X1742569Y1974424D1*
X1733855Y1977255D1*
X1725691Y1981415D1*
X1718279Y1986800D1*
X1711800Y1993279D1*
X1706213Y2001051D1*
X1700600Y1993279D1*
X1694121Y1986800D1*
X1686709Y1981415D1*
X1678545Y1977255D1*
X1669831Y1974424D1*
X1660781Y1972990D1*
X1651619D1*
X1642569Y1974424D1*
X1633855Y1977255D1*
X1625691Y1981415D1*
X1618279Y1986800D1*
X1611800Y1993279D1*
X1606213Y2001051D1*
X1600600Y1993279D1*
X1594121Y1986800D1*
X1586709Y1981415D1*
X1578545Y1977255D1*
X1569831Y1974424D1*
X1560781Y1972990D1*
X1551619D1*
X1542569Y1974424D1*
X1533855Y1977255D1*
X1525691Y1981415D1*
X1518279Y1986800D1*
X1511800Y1993279D1*
X1506213Y2001051D1*
X1500600Y1993279D1*
X1494121Y1986800D1*
X1486709Y1981415D1*
X1478545Y1977255D1*
X1469831Y1974424D1*
X1460781Y1972990D1*
X1451619D1*
X1442569Y1974424D1*
X1438208Y1975653D1*
X1438200Y1938189D1*
X1771211Y1938101D1*
X1776170Y1937316D1*
X1780946Y1935764D1*
X1785420Y1933484D1*
X1789482Y1930533D1*
X1820757Y1899398D1*
X1824018Y1895580D1*
X1826641Y1891299D1*
X1828563Y1886659D1*
X1829735Y1881777D1*
X1830031Y1879272D1*
X1832653Y1877385D1*
X1846283D1*
Y1785015D1*
X1749976D1*
Y1874187D1*
X1498995Y1874160D1*
X1505496Y1870848D1*
X1511399Y1866559D1*
X1516559Y1861399D1*
X1520848Y1855496D1*
X1524160Y1848995D1*
X1526415Y1842055D1*
X1527557Y1834848D1*
Y1827552D1*
X1526415Y1820345D1*
X1524160Y1813405D1*
X1520848Y1806904D1*
X1516559Y1801001D1*
X1511399Y1795841D1*
X1505496Y1791552D1*
X1498995Y1788240D1*
X1492055Y1785985D1*
X1484848Y1784843D1*
X1477552D1*
X1470345Y1785985D1*
X1463405Y1788240D1*
X1458783Y1790500D1*
Y1785015D1*
X1362476D1*
Y1877385D1*
X1392295D1*
X1387391Y1880311D1*
X1383573Y1883573D1*
X1380311Y1887391D1*
X1377688Y1891672D1*
X1375766Y1896311D1*
X1374594Y1901194D1*
X1374200Y1906210D1*
Y1975636D1*
X1365334Y1973529D1*
X1356200Y1972810D1*
X1347066Y1973529D1*
X1338157Y1975668D1*
X1329692Y1979174D1*
X1321879Y1983962D1*
X1314912Y1989912D1*
X1308962Y1996879D1*
X1306213Y2001051D1*
X1300600Y1993279D1*
X1294121Y1986800D1*
X1286709Y1981415D1*
X1278545Y1977255D1*
X1269831Y1974424D1*
X1260781Y1972990D1*
X1251619D1*
X1242569Y1974424D1*
X1235888Y1976505D1*
X1235885Y1652953D1*
X1243258Y1650700D1*
X1281761D1*
X1281767Y1676696D1*
X1290953D1*
X1518133Y1586447D2*
Y1560704D1*
X1503665Y1560652D1*
Y1437390D1*
X1671202Y1438369D1*
X1671235Y1454375D1*
X1655951Y1454346D1*
X1648995Y1450740D1*
X1642055Y1448485D1*
X1634848Y1447343D1*
X1627552D1*
X1620345Y1448485D1*
X1613405Y1450740D1*
X1606904Y1454052D1*
X1601001Y1458341D1*
X1595841Y1463501D1*
X1591552Y1469404D1*
X1588240Y1475905D1*
X1585985Y1482845D1*
X1584843Y1490052D1*
Y1497348D1*
X1585985Y1504555D1*
X1588240Y1511495D1*
X1591552Y1517996D1*
X1595841Y1523899D1*
X1601001Y1529059D1*
X1606904Y1533348D1*
X1613405Y1536660D1*
X1620345Y1538915D1*
X1627552Y1540057D1*
X1634848D1*
X1642055Y1538915D1*
X1648995Y1536660D1*
X1655496Y1533348D1*
X1661399Y1529059D1*
X1663253Y1527345D1*
X1671266Y1527346D1*
X1671235Y1560653D1*
X1692083Y1560704D1*
X1669267D1*
Y1586720D1*
X1585403Y1586700D1*
X1578965Y1581081D1*
X1572744Y1577268D1*
X1566002Y1574476D1*
X1558907Y1572772D1*
X1551633Y1572200D1*
X1544359Y1572772D1*
X1537264Y1574476D1*
X1530522Y1577268D1*
X1524301Y1581081D1*
X1518753Y1585820D1*
X1518143Y1586479D1*
X491610Y3080218D2*
Y3099727D1*
X494732D1*
X494700Y3143566D1*
X484253Y3143578D1*
X484622Y3080063D1*
X491590Y3080200D1*
X2788947Y2143578D2*
X2770842D1*
Y2198588D1*
X2632619Y2336790D1*
X2156441Y2336798D1*
X2156421Y2329503D1*
X2101338D1*
X2101369Y2315257D1*
X2104728Y2311726D1*
X2109017Y2305823D1*
X2112329Y2299322D1*
X2114584Y2292382D1*
X2115726Y2285175D1*
Y2277879D1*
X2114584Y2270672D1*
X2112329Y2263732D1*
X2109017Y2257231D1*
X2104728Y2251328D1*
X2099568Y2246168D1*
X2093665Y2241879D1*
X2087164Y2238567D1*
X2080224Y2236312D1*
X2073017Y2235170D1*
X2065721D1*
X2058514Y2236312D1*
X2051574Y2238567D1*
X2045073Y2241879D1*
X2039170Y2246168D1*
X2034010Y2251328D1*
X2029721Y2257231D1*
X2026409Y2263732D1*
X2024154Y2270672D1*
X2023012Y2277879D1*
Y2285175D1*
X2024154Y2292382D1*
X2026409Y2299322D1*
X2029721Y2305823D1*
X2034010Y2311726D1*
X2037379Y2315230D1*
X2037369Y2366895D1*
X1971531Y2366905D1*
X1971638Y2445495D1*
X1950374Y2466771D1*
X1947632Y2460089D1*
X1943819Y2453868D1*
X1941251Y2450590D1*
Y2408067D1*
X1956421Y2408094D1*
Y2329503D1*
X1862082D1*
Y2366930D1*
X1781075Y2366905D1*
X1773995Y2363240D1*
X1767055Y2360985D1*
X1759848Y2359843D1*
X1752552D1*
X1745345Y2360985D1*
X1743931Y2361384D1*
X1743921Y2329503D1*
X1649582D1*
Y2366930D1*
X1568575Y2366905D1*
X1561495Y2363240D1*
X1554555Y2360985D1*
X1547348Y2359843D1*
X1540052D1*
X1532845Y2360985D1*
X1525905Y2363240D1*
X1518918Y2366877D1*
X1518921Y2329503D1*
X1424582D1*
Y2366930D1*
X1356063Y2366905D1*
X1348995Y2363240D1*
X1342055Y2360985D1*
X1334848Y2359843D1*
X1327552D1*
X1320345Y2360985D1*
X1314890Y2362692D1*
X1314885Y2333046D1*
X1222515D1*
Y2571283D1*
X1236689D1*
X1233855Y2577255D1*
X1225691Y2581415D1*
X1218279Y2586800D1*
X1211800Y2593279D1*
X1206213Y2601051D1*
X1200700Y2593405D1*
Y2571297D1*
X1214885Y2571283D1*
Y2337475D1*
X1122515D1*
Y2387677D1*
X1117055Y2385985D1*
X1109848Y2384843D1*
X1102552D1*
X1095345Y2385985D1*
X1089890Y2387692D1*
X1089885Y2345546D1*
X997515D1*
Y2387638D1*
X992055Y2385985D1*
X984848Y2384843D1*
X977552D1*
X970345Y2385985D1*
X964890Y2387692D1*
X964885Y2345546D1*
X872515D1*
Y2394672D1*
X867996Y2391552D1*
X861495Y2388240D1*
X854555Y2385985D1*
X847348Y2384843D1*
X840052D1*
X832845Y2385985D1*
X825905Y2388240D1*
X819404Y2391552D1*
X813501Y2395841D1*
X808341Y2401001D1*
X804052Y2406904D1*
X800740Y2413405D1*
X798485Y2420345D1*
X797343Y2427552D1*
Y2434848D1*
X798485Y2442055D1*
X800740Y2448995D1*
X804052Y2455496D1*
X808341Y2461399D1*
X813501Y2466559D1*
X819404Y2470848D1*
X825905Y2474160D1*
X832845Y2476415D1*
X840052Y2477557D1*
X844911Y2477652D1*
X849891Y2482089D1*
X854172Y2484712D1*
X858811Y2486634D1*
X863694Y2487806D1*
X868700Y2488200D1*
X872540D1*
X872515Y2571282D1*
X886690D1*
X886700Y2581441D1*
X878545Y2577255D1*
X869831Y2574424D1*
X860781Y2572990D1*
X851619D1*
X842569Y2574424D1*
X833855Y2577255D1*
X825691Y2581415D1*
X818279Y2586800D1*
X814584Y2590267D1*
X814590Y2572810D1*
X740776D1*
X740810Y2217514D1*
X758417Y2234962D1*
X762479Y2237914D1*
X766953Y2240193D1*
X771729Y2241745D1*
X776688Y2242531D1*
X834999Y2242629D1*
X835015Y2258782D1*
X884069D1*
X918488Y2293033D1*
X922551Y2295985D1*
X927025Y2298264D1*
X931801Y2299816D1*
X936760Y2300602D1*
X1003575Y2300700D1*
X1096211Y2300602D1*
X1101170Y2299816D1*
X1105946Y2298264D1*
X1110420Y2295985D1*
X1114482Y2293033D1*
X1148882Y2258773D1*
X1202385Y2258783D1*
Y2242599D1*
X1210021Y2242629D1*
X1210015Y2258782D1*
X1263518D1*
X1297918Y2293033D1*
X1301980Y2295985D1*
X1306454Y2298264D1*
X1311230Y2299816D1*
X1316189Y2300602D1*
X1383004Y2300700D1*
X1475640Y2300602D1*
X1480599Y2299816D1*
X1485375Y2298264D1*
X1489849Y2295985D1*
X1493912Y2293033D1*
X1528311Y2258773D1*
X1577385Y2258782D1*
Y2180232D1*
X1581904Y2183348D1*
X1588405Y2186660D1*
X1595345Y2188915D1*
X1602552Y2190057D1*
X1609848D1*
X1617055Y2188915D1*
X1623995Y2186660D1*
X1630496Y2183348D1*
X1636399Y2179059D1*
X1641559Y2173899D1*
X1645848Y2167996D1*
X1649160Y2161495D1*
X1651415Y2154555D1*
X1652557Y2147348D1*
Y2140052D1*
X1651415Y2132845D1*
X1649160Y2125905D1*
X1645848Y2119404D1*
X1641559Y2113501D1*
X1636399Y2108341D1*
X1630496Y2104052D1*
X1623995Y2100740D1*
X1617055Y2098485D1*
X1609848Y2097343D1*
X1602552D1*
X1595345Y2098485D1*
X1588405Y2100740D1*
X1581904Y2104052D1*
X1577378Y2107255D1*
X1577385Y2095546D1*
X1473845D1*
X1472212Y2091672D1*
X1470979Y2089472D1*
X1474243Y2086732D1*
X1482708Y2083226D1*
X1490521Y2078438D1*
X1497488Y2072488D1*
X1503438Y2065521D1*
X1506187Y2061349D1*
X1511800Y2069121D1*
X1518279Y2075600D1*
X1525691Y2080985D1*
X1533855Y2085145D1*
X1542569Y2087976D1*
X1551619Y2089410D1*
X1560781D1*
X1569831Y2087976D1*
X1578545Y2085145D1*
X1586709Y2080985D1*
X1594121Y2075600D1*
X1600600Y2069121D1*
X1606187Y2061349D1*
X1611800Y2069121D1*
X1618279Y2075600D1*
X1625691Y2080985D1*
X1633855Y2085145D1*
X1642569Y2087976D1*
X1651619Y2089410D1*
X1660781D1*
X1669831Y2087976D1*
X1678545Y2085145D1*
X1686709Y2080985D1*
X1694121Y2075600D1*
X1700600Y2069121D1*
X1706187Y2061349D1*
X1711800Y2069121D1*
X1718279Y2075600D1*
X1725691Y2080985D1*
X1733855Y2085145D1*
X1742569Y2087976D1*
X1751619Y2089410D1*
X1760781D1*
X1769831Y2087976D1*
X1778545Y2085145D1*
X1786709Y2080985D1*
X1794121Y2075600D1*
X1800600Y2069121D1*
X1806187Y2061349D1*
X1811800Y2069121D1*
X1818279Y2075600D1*
X1825691Y2080985D1*
X1833855Y2085145D1*
X1842569Y2087976D1*
X1851619Y2089410D1*
X1860781D1*
X1869831Y2087976D1*
X1878545Y2085145D1*
X1886709Y2080985D1*
X1894121Y2075600D1*
X1900600Y2069121D1*
X1906187Y2061349D1*
X1911800Y2069121D1*
X1918279Y2075600D1*
X1925691Y2080985D1*
X1933855Y2085145D1*
X1942569Y2087976D1*
X1951619Y2089410D1*
X1960781D1*
X1969831Y2087976D1*
X1978545Y2085145D1*
X1986709Y2080985D1*
X1994121Y2075600D1*
X2000600Y2069121D1*
X2005985Y2061709D1*
X2010145Y2053545D1*
X2012976Y2044831D1*
X2014410Y2035781D1*
Y2026619D1*
X2012976Y2017569D1*
X2010145Y2008855D1*
X2005985Y2000691D1*
X2000600Y1993279D1*
X1994121Y1986800D1*
X1986709Y1981415D1*
X1978545Y1977255D1*
X1969831Y1974424D1*
X1965457Y1973554D1*
X2113242Y1825777D1*
X2547507Y1825771D1*
X2547515Y1904354D1*
X2561689D1*
X2561700Y1916091D1*
X2547515Y1916117D1*
Y2079353D1*
X2639885D1*
Y2063170D1*
X2666294Y2063200D1*
X2666314Y2096086D1*
X2750822D1*
X2788983Y2134237D1*
X2788964Y2143607D1*
X3502765Y2243822D2*
X3593822D1*
Y2143578D1*
X3582949D1*
X3631600Y2094919D1*
X3638609Y2095886D1*
X3648791D1*
X3658847Y2094293D1*
X3668531Y2091147D1*
X3677603Y2086524D1*
X3685840Y2080540D1*
X3693040Y2073340D1*
X3699024Y2065103D1*
X3703647Y2056031D1*
X3706793Y2046347D1*
X3708386Y2036291D1*
Y2026109D1*
X3706793Y2016053D1*
X3703647Y2006369D1*
X3699024Y1997297D1*
X3693040Y1989060D1*
X3685840Y1981860D1*
X3680201Y1977612D1*
X3680200Y1825763D1*
X3760042Y1825771D1*
X3760015Y1904353D1*
X3774189D1*
X3774200Y1916091D1*
X3760015Y1916117D1*
Y2079353D1*
X3776055D1*
X3777688Y2083228D1*
X3780311Y2087509D1*
X3783573Y2091327D1*
X3793595Y2101350D1*
X3793578Y2156322D1*
X3893822D1*
Y2135617D1*
X3897920Y2133485D1*
X3901982Y2130533D1*
X3949069Y2083586D1*
X4009165Y2083504D1*
X4013272Y2082854D1*
X4017227Y2081569D1*
X4020932Y2079681D1*
X4024296Y2077237D1*
X4027237Y2074296D1*
X4029681Y2070932D1*
X4031569Y2067227D1*
X4032854Y2063272D1*
X4033504Y2059165D1*
X4033586Y1980314D1*
X4033260Y1976169D1*
X4032289Y1972125D1*
X4030698Y1968283D1*
X4028525Y1964738D1*
X4025824Y1961576D1*
X4022662Y1958875D1*
X4019117Y1956702D1*
X4015275Y1955111D1*
X4011231Y1954140D1*
X4007086Y1953814D1*
X3928235Y1953896D1*
X3924128Y1954546D1*
X3920173Y1955831D1*
X3916468Y1957719D1*
X3913104Y1960163D1*
X3910163Y1963104D1*
X3907719Y1966468D1*
X3905831Y1970173D1*
X3904546Y1974128D1*
X3903896Y1978235D1*
X3903814Y2038339D1*
X3886063Y2056082D1*
X3852376Y2056078D1*
X3852385Y1916117D1*
X3838211D1*
X3838200Y1904380D1*
X3852385Y1904353D1*
Y1825762D1*
X4024125Y1825771D1*
X4204959Y2006578D1*
X4204014Y2013609D1*
Y2023791D1*
X4204997Y2030783D1*
X4053575Y2182206D1*
X4022374Y2182200D1*
X4018040Y2176560D1*
X4010840Y2169360D1*
X4002603Y2163376D1*
X3993531Y2158753D1*
X3983847Y2155607D1*
X3973791Y2154014D1*
X3963609D1*
X3953553Y2155607D1*
X3943869Y2158753D1*
X3934797Y2163376D1*
X3926560Y2169360D1*
X3919360Y2176560D1*
X3916687Y2179952D1*
X3893843Y2179936D1*
X3893822Y2166314D1*
X3793578D1*
Y2266558D1*
X3807178D1*
X3807200Y2306111D1*
X3793578Y2306078D1*
Y2354701D1*
X3714130Y2434310D1*
X3710764Y2438944D1*
X3708163Y2444047D1*
X3706393Y2449494D1*
X3705497Y2455151D1*
X3705385Y2503947D1*
X3705497Y2833493D1*
X3706393Y2839150D1*
X3708163Y2844597D1*
X3710764Y2849700D1*
X3714130Y2854334D1*
X3746076Y2886439D1*
X3750440Y2890165D1*
X3751511Y2893522D1*
X3747985Y2942305D1*
X3746819Y2937449D1*
X3744897Y2932810D1*
X3742274Y2928529D1*
X3739005Y2924704D1*
X3716167Y2902005D1*
X3712105Y2899053D1*
X3707631Y2896774D1*
X3702855Y2895222D1*
X3697896Y2894437D1*
X3631403Y2894338D1*
X3636518Y2888647D1*
X3639141Y2884366D1*
X3641063Y2879726D1*
X3642235Y2874844D1*
X3642629Y2869838D1*
Y2827387D1*
X3658783Y2827385D1*
Y2735015D1*
X3504978D1*
X3504912Y2661433D1*
X3504127Y2656474D1*
X3502575Y2651698D1*
X3500296Y2647224D1*
X3497344Y2643162D1*
X3469529Y2615207D1*
X3469511Y2490330D1*
X3461222D1*
X3459712Y2486798D1*
X3457089Y2482517D1*
X3453827Y2478699D1*
X3450009Y2475437D1*
X3445728Y2472814D1*
X3441089Y2470892D1*
X3436206Y2469720D1*
X3431190Y2469326D1*
X3137189Y2469425D1*
X3132230Y2470210D1*
X3127454Y2471762D1*
X3122980Y2474041D1*
X3118918Y2476993D1*
X3109892Y2485879D1*
X3112371Y2482388D1*
X3114650Y2477914D1*
X3116202Y2473138D1*
X3116987Y2468179D1*
X3117086Y2401364D1*
Y1971363D1*
X3120445Y1967816D1*
X3124734Y1961913D1*
X3128046Y1955412D1*
X3130301Y1948472D1*
X3131443Y1941265D1*
Y1933969D1*
X3130301Y1926762D1*
X3128046Y1919822D1*
X3124734Y1913321D1*
X3120445Y1907418D1*
X3115285Y1902258D1*
X3109382Y1897969D1*
X3102881Y1894657D1*
X3095941Y1892402D1*
X3088734Y1891260D1*
X3081438D1*
X3074231Y1892402D1*
X3067706Y1894504D1*
X3067700Y1825763D1*
X3134981Y1825771D1*
X3135015Y1929353D1*
X3149189D1*
X3149200Y1941091D1*
X3135015Y1941117D1*
Y2104353D1*
X3227385D1*
Y2088170D1*
X3278841Y2088200D1*
X3278814Y2096086D1*
X3363322D1*
X3401483Y2134237D1*
X3401464Y2143607D1*
X3383342Y2143578D1*
Y2243822D1*
X3483586D1*
Y2143578D1*
X3465465D1*
X3465365Y2118453D1*
X3464580Y2113494D1*
X3463028Y2108718D1*
X3460748Y2104244D1*
X3457797Y2100181D1*
X3408566Y2050811D1*
X3408586Y1966314D1*
X3278814D1*
Y2024195D1*
X3227375Y2024200D1*
X3227385Y1941117D1*
X3213211D1*
X3213200Y1929380D1*
X3227385Y1929353D1*
Y1825787D1*
X3607206Y1825771D1*
X3607200Y1977525D1*
X3601560Y1981860D1*
X3594360Y1989060D1*
X3588376Y1997297D1*
X3583753Y2006369D1*
X3580607Y2016053D1*
X3579014Y2026109D1*
Y2036291D1*
X3579997Y2043283D1*
X3515945Y2107495D1*
X3512579Y2112129D1*
X3509978Y2117232D1*
X3508208Y2122679D1*
X3507312Y2128336D1*
X3507200Y2143580D1*
X3493578Y2143578D1*
Y2243822D1*
X3502765D1*
X3802764Y2516558D2*
X3811699D1*
X3811700Y2534796D1*
X3794367Y2552264D1*
X3791415Y2556326D1*
X3789136Y2560800D1*
X3787584Y2565576D1*
X3786798Y2570545D1*
X3778368Y2570546D1*
X3778385Y2473115D1*
X3793601Y2457918D1*
X3793578Y2516558D1*
X3802764D1*
X1006187Y2601051D2*
X1003438Y2596879D1*
X997488Y2589912D1*
X990521Y2583962D1*
X982708Y2579174D1*
X974243Y2575668D1*
X965334Y2573529D1*
X956200Y2572810D1*
X950712Y2573098D1*
X955192Y2571282D1*
X964885D1*
X964849Y2474975D1*
X973926Y2477128D1*
X981200Y2477700D1*
X982411Y2477652D1*
X987391Y2482089D1*
X991672Y2484712D1*
X996321Y2486637D1*
X997515Y2490723D1*
Y2571282D1*
X1011689D1*
X1011700Y2593426D1*
X1006213Y2601051D1*
X1106187D2*
X1103438Y2596879D1*
X1097488Y2589912D1*
X1090521Y2583962D1*
X1082708Y2579174D1*
X1075705Y2576207D1*
X1075700Y2571297D1*
X1089885Y2571282D1*
X1089849Y2474975D1*
X1098926Y2477128D1*
X1106200Y2477700D1*
X1107411Y2477652D1*
X1112391Y2482089D1*
X1116672Y2484712D1*
X1121321Y2486637D1*
X1122515Y2490723D1*
Y2571283D1*
X1136689D1*
X1133855Y2577255D1*
X1125691Y2581415D1*
X1118279Y2586800D1*
X1111800Y2593279D1*
X1106213Y2601051D1*
X1814410Y2626619D2*
X1812976Y2617569D1*
X1812476Y2615794D1*
X1899859Y2615810D1*
X1898529Y2622066D1*
X1897810Y2631200D1*
X1898529Y2640334D1*
X1899924Y2646606D1*
X1812559Y2646590D1*
X1813871Y2640334D1*
X1814590Y2631200D1*
X1814410Y2626619D1*
X834847Y2085511D2*
X842569Y2087976D1*
X851619Y2089410D1*
X860781D1*
X869831Y2087976D1*
X878691Y2085078D1*
X881867Y2089482D1*
X883580Y2091334D1*
X881454Y2095546D1*
X835015D1*
Y2111730D1*
X826580Y2110820D1*
X821222Y2106231D1*
X827923Y2099372D1*
X830875Y2095310D1*
X833154Y2090836D1*
X834708Y2086051D1*
X1088213Y2079981D2*
X1094121Y2075600D1*
X1100600Y2069121D1*
X1106187Y2061349D1*
X1111800Y2069121D1*
X1118279Y2075600D1*
X1124187Y2079981D1*
X1124200Y2095540D1*
X1110015Y2095546D1*
Y2207151D1*
X1102374Y2214771D1*
X1102385Y2095546D1*
X1088211D1*
X1088200Y2080006D1*
X2206187Y2001051D2*
X2203438Y1996879D1*
X2197488Y1989912D1*
X2190521Y1983962D1*
X2182708Y1979174D1*
X2174243Y1975668D1*
X2165334Y1973529D1*
X2156200Y1972810D1*
X2147066Y1973529D1*
X2138157Y1975668D1*
X2129692Y1979174D1*
X2121879Y1983962D1*
X2114912Y1989912D1*
X2108962Y1996879D1*
X2104174Y2004692D1*
X2100668Y2013157D1*
X2098529Y2022066D1*
X2097810Y2031200D1*
X2098529Y2040334D1*
X2100668Y2049243D1*
X2104174Y2057708D1*
X2108962Y2065521D1*
X2114912Y2072488D1*
X2121879Y2078438D1*
X2129692Y2083226D1*
X2138157Y2086732D1*
X2147066Y2088871D1*
X2156200Y2089590D1*
X2165334Y2088871D1*
X2174243Y2086732D1*
X2182708Y2083226D1*
X2190521Y2078438D1*
X2197488Y2072488D1*
X2203438Y2065521D1*
X2206187Y2061349D1*
X2211800Y2069121D1*
X2218279Y2075600D1*
X2225691Y2080985D1*
X2233855Y2085145D1*
X2242569Y2087976D1*
X2251619Y2089410D1*
X2260781D1*
X2269831Y2087976D1*
X2278545Y2085145D1*
X2286709Y2080985D1*
X2294121Y2075600D1*
X2300600Y2069121D1*
X2305985Y2061709D1*
X2310145Y2053545D1*
X2312976Y2044831D1*
X2314410Y2035781D1*
Y2026619D1*
X2312976Y2017569D1*
X2310145Y2008855D1*
X2305985Y2000691D1*
X2300600Y1993279D1*
X2294121Y1986800D1*
X2286709Y1981415D1*
X2278545Y1977255D1*
X2269831Y1974424D1*
X2260781Y1972990D1*
X2251619D1*
X2242569Y1974424D1*
X2233855Y1977255D1*
X2225691Y1981415D1*
X2218279Y1986800D1*
X2211800Y1993279D1*
X2206213Y2001051D1*
X524024Y3619019D2*
X666263D1*
Y3467594D1*
X514838D1*
Y3619019D1*
X524024D1*
X1114576D2*
X1256814D1*
Y3467593D1*
X1105389D1*
Y3619019D1*
X1114576D1*
X1453431Y3537366D2*
X1452732Y3531462D1*
X1451573Y3525632D1*
X1449051Y3517448D1*
X1480533Y3485841D1*
X1483485Y3481778D1*
X1485764Y3477304D1*
X1487316Y3472529D1*
X1488101Y3467569D1*
X1488200Y3400754D1*
Y3353351D1*
X1495495Y3353369D1*
Y3338190D1*
X1537711Y3338101D1*
X1542670Y3337316D1*
X1547446Y3335764D1*
X1551920Y3333485D1*
X1555982Y3330533D1*
X1578828Y3307828D1*
X1582089Y3304009D1*
X1584712Y3299728D1*
X1586634Y3295089D1*
X1587806Y3290206D1*
X1588200Y3285200D1*
Y3172201D1*
X1594511Y3172168D1*
Y3040428D1*
X1417889D1*
Y3069817D1*
X1295187Y3069911D1*
X1289530Y3070807D1*
X1284083Y3072577D1*
X1278979Y3075177D1*
X1274346Y3078543D1*
X1250699Y3102031D1*
X1245783Y3097354D1*
X1238046Y3091733D1*
X1229524Y3087391D1*
X1220428Y3084435D1*
X1210982Y3082939D1*
X1201418D1*
X1191972Y3084435D1*
X1182876Y3087391D1*
X1174354Y3091733D1*
X1166617Y3097354D1*
X1159854Y3104117D1*
X1154233Y3111854D1*
X1149891Y3120376D1*
X1146935Y3129472D1*
X1145439Y3138918D1*
Y3148482D1*
X1146935Y3157928D1*
X1149891Y3167024D1*
X1154233Y3175546D1*
X1159854Y3183283D1*
X1166617Y3190046D1*
X1174354Y3195667D1*
X1182876Y3200009D1*
X1191972Y3202965D1*
X1201418Y3204461D1*
X1210982D1*
X1220428Y3202965D1*
X1229524Y3200009D1*
X1238046Y3195667D1*
X1245783Y3190046D1*
X1252546Y3183283D1*
X1254965Y3180215D1*
X1263513Y3180088D1*
X1269170Y3179192D1*
X1274617Y3177422D1*
X1279720Y3174822D1*
X1284354Y3171455D1*
X1313177Y3142791D1*
X1375525Y3142798D1*
X1357064Y3161386D1*
X1354112Y3165448D1*
X1351833Y3169922D1*
X1350281Y3174698D1*
X1349495Y3179657D1*
X1349397Y3246473D1*
Y3258996D1*
X1342102Y3259031D1*
Y3274210D1*
X1300549Y3274203D1*
X1297013Y3270845D1*
X1291110Y3266556D1*
X1284609Y3263244D1*
X1277669Y3260989D1*
X1270462Y3259847D1*
X1263166D1*
X1255959Y3260989D1*
X1249019Y3263244D1*
X1242518Y3266556D1*
X1236615Y3270845D1*
X1231455Y3276005D1*
X1227166Y3281908D1*
X1223854Y3288409D1*
X1221599Y3295349D1*
X1220457Y3302556D1*
Y3309852D1*
X1221599Y3317059D1*
X1223854Y3323999D1*
X1227166Y3330500D1*
X1231455Y3336403D1*
X1236615Y3341563D1*
X1242518Y3345852D1*
X1249019Y3349164D1*
X1255959Y3351419D1*
X1263166Y3352561D1*
X1270462D1*
X1277669Y3351419D1*
X1284609Y3349164D1*
X1291110Y3345852D1*
X1297013Y3341563D1*
X1300517Y3338194D1*
X1342136Y3338201D1*
X1342102Y3353369D1*
X1424189D1*
X1424200Y3451782D1*
X1403860Y3472144D1*
X1395627Y3469686D1*
X1389796Y3468526D1*
X1383892Y3467827D1*
X1377952Y3467594D1*
X1372012Y3467827D1*
X1366108Y3468526D1*
X1360277Y3469686D1*
X1354555Y3471299D1*
X1348978Y3473357D1*
X1343579Y3475846D1*
X1338392Y3478751D1*
X1333449Y3482054D1*
X1328781Y3485734D1*
X1324415Y3489769D1*
X1320380Y3494135D1*
X1316699Y3498804D1*
X1313396Y3503747D1*
X1310492Y3508933D1*
X1308003Y3514332D1*
X1305945Y3519910D1*
X1304331Y3525632D1*
X1303172Y3531462D1*
X1302473Y3537366D1*
X1302239Y3543306D1*
X1302473Y3549247D1*
X1303172Y3555150D1*
X1304331Y3560981D1*
X1305945Y3566703D1*
X1308003Y3572280D1*
X1310492Y3577679D1*
X1313396Y3582866D1*
X1316699Y3587809D1*
X1320380Y3592478D1*
X1324415Y3596843D1*
X1328781Y3600879D1*
X1333449Y3604559D1*
X1338392Y3607862D1*
X1343579Y3610767D1*
X1348978Y3613256D1*
X1354555Y3615313D1*
X1360277Y3616927D1*
X1366108Y3618087D1*
X1372012Y3618786D1*
X1377952Y3619019D1*
X1383892Y3618786D1*
X1389796Y3618087D1*
X1395627Y3616927D1*
X1401348Y3615313D1*
X1406926Y3613256D1*
X1412325Y3610767D1*
X1417512Y3607862D1*
X1422455Y3604559D1*
X1427123Y3600879D1*
X1431489Y3596843D1*
X1435524Y3592478D1*
X1439205Y3587809D1*
X1442508Y3582866D1*
X1445412Y3577679D1*
X1447901Y3572280D1*
X1449959Y3566703D1*
X1451573Y3560981D1*
X1452732Y3555150D1*
X1453431Y3549247D1*
X1453665Y3543306D1*
X1453431Y3537366D1*
X1650282D2*
X1649583Y3531462D1*
X1648423Y3525632D1*
X1646809Y3519910D1*
X1644752Y3514332D1*
X1642263Y3508933D1*
X1639358Y3503747D1*
X1636055Y3498804D1*
X1632375Y3494135D1*
X1628339Y3489769D1*
X1623974Y3485734D1*
X1619305Y3482054D1*
X1614362Y3478751D1*
X1609175Y3475846D1*
X1603776Y3473357D1*
X1598199Y3471299D1*
X1592477Y3469686D1*
X1586646Y3468526D1*
X1580743Y3467827D1*
X1574802Y3467594D1*
X1568862Y3467827D1*
X1562958Y3468526D1*
X1557128Y3469686D1*
X1551406Y3471299D1*
X1545828Y3473357D1*
X1540430Y3475846D1*
X1535243Y3478751D1*
X1530300Y3482054D1*
X1525631Y3485734D1*
X1521265Y3489769D1*
X1517230Y3494135D1*
X1513550Y3498804D1*
X1510247Y3503747D1*
X1507342Y3508933D1*
X1504853Y3514332D1*
X1502795Y3519910D1*
X1501182Y3525632D1*
X1500022Y3531462D1*
X1499323Y3537366D1*
X1499090Y3543306D1*
X1499323Y3549247D1*
X1500022Y3555150D1*
X1501182Y3560981D1*
X1502795Y3566703D1*
X1504853Y3572280D1*
X1507342Y3577679D1*
X1510247Y3582866D1*
X1513550Y3587809D1*
X1517230Y3592478D1*
X1521265Y3596843D1*
X1525631Y3600879D1*
X1530300Y3604559D1*
X1535243Y3607862D1*
X1540430Y3610767D1*
X1545828Y3613256D1*
X1551406Y3615313D1*
X1557128Y3616927D1*
X1562958Y3618087D1*
X1568862Y3618786D1*
X1574802Y3619019D1*
X1580743Y3618786D1*
X1586646Y3618087D1*
X1592477Y3616927D1*
X1598199Y3615313D1*
X1603776Y3613256D1*
X1609175Y3610767D1*
X1614362Y3607862D1*
X1619305Y3604559D1*
X1623974Y3600879D1*
X1628339Y3596843D1*
X1632375Y3592478D1*
X1636055Y3587809D1*
X1639358Y3582866D1*
X1642263Y3577679D1*
X1644752Y3572280D1*
X1646809Y3566703D1*
X1648423Y3560981D1*
X1649583Y3555150D1*
X1650282Y3549247D1*
X1650515Y3543306D1*
X1650282Y3537366D1*
X2043982D2*
X2043284Y3531462D1*
X2041172Y3522257D1*
X2052850Y3510578D1*
X2097108Y3510590D1*
X2093347Y3519910D1*
X2091733Y3525632D1*
X2090573Y3531462D1*
X2089874Y3537366D1*
X2089641Y3543306D1*
X2089874Y3549247D1*
X2090573Y3555150D1*
X2091733Y3560981D1*
X2093347Y3566703D1*
X2095404Y3572280D1*
X2097893Y3577679D1*
X2100798Y3582866D1*
X2104101Y3587809D1*
X2107781Y3592478D1*
X2111817Y3596843D1*
X2116182Y3600879D1*
X2120851Y3604559D1*
X2125794Y3607862D1*
X2130981Y3610767D1*
X2136380Y3613256D1*
X2141957Y3615313D1*
X2147679Y3616927D1*
X2153509Y3618087D1*
X2159413Y3618786D1*
X2165354Y3619019D1*
X2171294Y3618786D1*
X2177198Y3618087D1*
X2183028Y3616927D1*
X2188750Y3615313D1*
X2194328Y3613256D1*
X2199726Y3610767D1*
X2204913Y3607862D1*
X2209856Y3604559D1*
X2214525Y3600879D1*
X2218890Y3596843D1*
X2222926Y3592478D1*
X2226606Y3587809D1*
X2229909Y3582866D1*
X2232814Y3577679D1*
X2235303Y3572280D1*
X2237361Y3566703D1*
X2238974Y3560981D1*
X2240134Y3555150D1*
X2240833Y3549247D1*
X2241066Y3543306D1*
X2240833Y3537366D1*
X2240134Y3531462D1*
X2238974Y3525632D1*
X2237361Y3519910D1*
X2233582Y3510600D1*
X2589654Y3510590D1*
X2589641Y3619019D1*
X2741066D1*
Y3510613D1*
X2793907Y3510590D1*
X2790197Y3519910D1*
X2788583Y3525632D1*
X2787423Y3531462D1*
X2786725Y3537366D1*
X2786491Y3543306D1*
X2786725Y3549247D1*
X2787423Y3555150D1*
X2788583Y3560981D1*
X2790197Y3566703D1*
X2792255Y3572280D1*
X2794744Y3577679D1*
X2797648Y3582866D1*
X2800951Y3587809D1*
X2804632Y3592478D1*
X2808667Y3596843D1*
X2813033Y3600879D1*
X2817701Y3604559D1*
X2822644Y3607862D1*
X2827831Y3610767D1*
X2833230Y3613256D1*
X2838807Y3615313D1*
X2844529Y3616927D1*
X2850360Y3618087D1*
X2856264Y3618786D1*
X2862204Y3619019D1*
X2868144Y3618786D1*
X2874048Y3618087D1*
X2879879Y3616927D1*
X2885600Y3615313D1*
X2891178Y3613256D1*
X2896577Y3610767D1*
X2901764Y3607862D1*
X2906707Y3604559D1*
X2911375Y3600879D1*
X2915741Y3596843D1*
X2919776Y3592478D1*
X2923457Y3587809D1*
X2926760Y3582866D1*
X2929664Y3577679D1*
X2932153Y3572280D1*
X2934211Y3566703D1*
X2935825Y3560981D1*
X2936984Y3555150D1*
X2937683Y3549247D1*
X2937917Y3543306D1*
X2937683Y3537366D1*
X2936984Y3531462D1*
X2935825Y3525632D1*
X2934211Y3519910D1*
X2930432Y3510600D1*
X2990768Y3510590D1*
X2987047Y3519910D1*
X2985434Y3525632D1*
X2984274Y3531462D1*
X2983575Y3537366D1*
X2983342Y3543306D1*
X2983575Y3549247D1*
X2984274Y3555150D1*
X2985434Y3560981D1*
X2987047Y3566703D1*
X2989105Y3572280D1*
X2991594Y3577679D1*
X2994499Y3582866D1*
X2997802Y3587809D1*
X3001482Y3592478D1*
X3005517Y3596843D1*
X3009883Y3600879D1*
X3014552Y3604559D1*
X3019495Y3607862D1*
X3024682Y3610767D1*
X3030080Y3613256D1*
X3035658Y3615313D1*
X3041380Y3616927D1*
X3047210Y3618087D1*
X3053114Y3618786D1*
X3059054Y3619019D1*
X3064995Y3618786D1*
X3070898Y3618087D1*
X3076729Y3616927D1*
X3082451Y3615313D1*
X3088028Y3613256D1*
X3093427Y3610767D1*
X3098614Y3607862D1*
X3103557Y3604559D1*
X3108226Y3600879D1*
X3112591Y3596843D1*
X3116627Y3592478D1*
X3120307Y3587809D1*
X3123610Y3582866D1*
X3126515Y3577679D1*
X3129004Y3572280D1*
X3131061Y3566703D1*
X3132675Y3560981D1*
X3133835Y3555150D1*
X3134534Y3549247D1*
X3134767Y3543306D1*
X3134534Y3537366D1*
X3133835Y3531462D1*
X3132675Y3525632D1*
X3131061Y3519910D1*
X3127283Y3510600D1*
X3171552Y3510590D1*
X3180189Y3519209D1*
X3180192Y3619019D1*
X3331618D1*
Y3467593D1*
X3231824D1*
X3210393Y3446335D1*
X3205760Y3442969D1*
X3200656Y3440368D1*
X3195209Y3438598D1*
X3189552Y3437702D1*
X3140757Y3437590D1*
X2034856Y3437702D1*
X2029199Y3438598D1*
X2023751Y3440368D1*
X2018648Y3442969D1*
X2014015Y3446335D1*
X1989606Y3470584D1*
X1980347Y3468526D1*
X1974443Y3467827D1*
X1968503Y3467594D1*
X1962563Y3467827D1*
X1956659Y3468526D1*
X1950828Y3469686D1*
X1945107Y3471299D1*
X1939529Y3473357D1*
X1934130Y3475846D1*
X1928943Y3478751D1*
X1924000Y3482054D1*
X1919332Y3485734D1*
X1914966Y3489769D1*
X1910931Y3494135D1*
X1907250Y3498804D1*
X1903948Y3503747D1*
X1901043Y3508933D1*
X1898554Y3514332D1*
X1896496Y3519910D1*
X1894882Y3525632D1*
X1893723Y3531462D1*
X1893024Y3537366D1*
X1892791Y3543306D1*
X1893024Y3549247D1*
X1893723Y3555150D1*
X1894882Y3560981D1*
X1896496Y3566703D1*
X1898554Y3572280D1*
X1901043Y3577679D1*
X1903948Y3582866D1*
X1907250Y3587809D1*
X1910931Y3592478D1*
X1914966Y3596843D1*
X1919332Y3600879D1*
X1924000Y3604559D1*
X1928943Y3607862D1*
X1934130Y3610767D1*
X1939529Y3613256D1*
X1945107Y3615313D1*
X1950828Y3616927D1*
X1956659Y3618087D1*
X1962563Y3618786D1*
X1968503Y3619019D1*
X1974443Y3618786D1*
X1980347Y3618087D1*
X1986178Y3616927D1*
X1991900Y3615313D1*
X1997477Y3613256D1*
X2002876Y3610767D1*
X2008063Y3607862D1*
X2013006Y3604559D1*
X2017675Y3600879D1*
X2022040Y3596843D1*
X2026075Y3592478D1*
X2029756Y3587809D1*
X2033059Y3582866D1*
X2035964Y3577679D1*
X2038452Y3572280D1*
X2040510Y3566703D1*
X2042124Y3560981D1*
X2043284Y3555150D1*
X2043982Y3549247D1*
X2044216Y3543306D1*
X2043982Y3537366D1*
X3528234D2*
X3527536Y3531462D1*
X3526376Y3525632D1*
X3524762Y3519910D1*
X3522704Y3514332D1*
X3520216Y3508933D1*
X3517311Y3503747D1*
X3514008Y3498804D1*
X3510327Y3494135D1*
X3506292Y3489769D1*
X3501927Y3485734D1*
X3497258Y3482054D1*
X3492315Y3478751D1*
X3487128Y3475846D1*
X3481729Y3473357D1*
X3476152Y3471299D1*
X3470430Y3469686D1*
X3464599Y3468526D1*
X3458695Y3467827D1*
X3452755Y3467594D1*
X3446815Y3467827D1*
X3440911Y3468526D1*
X3435080Y3469686D1*
X3429359Y3471299D1*
X3423781Y3473357D1*
X3418382Y3475846D1*
X3413195Y3478751D1*
X3408252Y3482054D1*
X3403584Y3485734D1*
X3399218Y3489769D1*
X3395183Y3494135D1*
X3391502Y3498804D1*
X3388200Y3503747D1*
X3385295Y3508933D1*
X3382806Y3514332D1*
X3380748Y3519910D1*
X3379134Y3525632D1*
X3377975Y3531462D1*
X3377276Y3537366D1*
X3377043Y3543306D1*
X3377276Y3549247D1*
X3377975Y3555150D1*
X3379134Y3560981D1*
X3380748Y3566703D1*
X3382806Y3572280D1*
X3385295Y3577679D1*
X3388200Y3582866D1*
X3391502Y3587809D1*
X3395183Y3592478D1*
X3399218Y3596843D1*
X3403584Y3600879D1*
X3408252Y3604559D1*
X3413195Y3607862D1*
X3418382Y3610767D1*
X3423781Y3613256D1*
X3429359Y3615313D1*
X3435080Y3616927D1*
X3440911Y3618087D1*
X3446815Y3618786D1*
X3452755Y3619019D1*
X3458695Y3618786D1*
X3464599Y3618087D1*
X3470430Y3616927D1*
X3476152Y3615313D1*
X3481729Y3613256D1*
X3487128Y3610767D1*
X3492315Y3607862D1*
X3497258Y3604559D1*
X3501927Y3600879D1*
X3506292Y3596843D1*
X3510327Y3592478D1*
X3514008Y3587809D1*
X3517311Y3582866D1*
X3520216Y3577679D1*
X3522704Y3572280D1*
X3524762Y3566703D1*
X3526376Y3560981D1*
X3527536Y3555150D1*
X3528234Y3549247D1*
X3528468Y3543306D1*
X3528234Y3537366D1*
X2994699Y1977612D2*
X2989060Y1981860D1*
X2981860Y1989060D1*
X2975876Y1997297D1*
X2971253Y2006369D1*
X2968107Y2016053D1*
X2966514Y2026109D1*
Y2036291D1*
X2967497Y2043283D1*
X2913105Y2097676D1*
X2912988Y1954610D1*
X2912202Y1949651D1*
X2910650Y1944875D1*
X2908371Y1940401D1*
X2905419Y1936339D1*
X2882714Y1913493D1*
X2878895Y1910232D1*
X2874614Y1907609D1*
X2869975Y1905687D1*
X2865092Y1904515D1*
X2860086Y1904121D1*
X2833352D1*
X2832414Y1903192D1*
X2887003Y1903200D1*
X2920208Y1936380D1*
X2920343Y1941265D1*
X2921485Y1948472D1*
X2923740Y1955412D1*
X2927052Y1961913D1*
X2931341Y1967816D1*
X2936501Y1972976D1*
X2942404Y1977265D1*
X2948905Y1980577D1*
X2955845Y1982832D1*
X2963052Y1983974D1*
X2970348D1*
X2977555Y1982832D1*
X2984495Y1980577D1*
X2990996Y1977265D1*
X2994693Y1974715D1*
X2796086Y2050836D2*
Y2003612D1*
X2825856Y2003621D1*
X2828086Y2010994D1*
Y2082798D1*
X2796066Y2050811D1*
X1781040Y2445495D2*
X1865869D1*
Y2408068D1*
X1877261Y2408094D1*
X1877251Y2444837D1*
X1873320Y2448320D1*
X1868581Y2453868D1*
X1864768Y2460089D1*
X1861976Y2466831D1*
X1860272Y2473926D1*
X1859700Y2481200D1*
X1860063Y2486704D1*
X1724160Y2486495D1*
X1726415Y2479555D1*
X1727557Y2472348D1*
Y2465052D1*
X1727283Y2462743D1*
X1728357Y2458155D1*
X1728751Y2453139D1*
X1728868Y2443819D1*
X1735089Y2447632D1*
X1741831Y2450424D1*
X1748926Y2452128D1*
X1756200Y2452700D1*
X1763474Y2452128D1*
X1770569Y2450424D1*
X1777311Y2447632D1*
X1781030Y2445491D1*
X1568540Y2445495D2*
X1640883D1*
X1638240Y2450905D1*
X1635985Y2457845D1*
X1634843Y2465052D1*
Y2472348D1*
X1635985Y2479555D1*
X1638329Y2486689D1*
X1514848Y2486700D1*
X1515200Y2481200D1*
X1514628Y2473926D1*
X1512924Y2466831D1*
X1510132Y2460089D1*
X1506319Y2453868D1*
X1503751Y2450590D1*
Y2430028D1*
X1508341Y2436399D1*
X1513501Y2441559D1*
X1519404Y2445848D1*
X1525905Y2449160D1*
X1532845Y2451415D1*
X1540052Y2452557D1*
X1547348D1*
X1554555Y2451415D1*
X1561495Y2449160D1*
X1568530Y2445491D1*
X1653369Y2431464D2*
Y2408068D1*
X1664761Y2408094D1*
X1664751Y2425172D1*
X1656904Y2429052D1*
X1653364Y2431478D1*
X1356028Y2445495D2*
X1428369D1*
Y2408068D1*
X1439761Y2408093D1*
X1439751Y2444837D1*
X1435820Y2448320D1*
X1431081Y2453868D1*
X1427268Y2460089D1*
X1424476Y2466831D1*
X1422772Y2473926D1*
X1422200Y2481200D1*
X1422563Y2486704D1*
X1344470Y2486700D1*
X1314878Y2457124D1*
X1316831Y2450424D1*
X1323926Y2452128D1*
X1331200Y2452700D1*
X1338474Y2452128D1*
X1345569Y2450424D1*
X1352311Y2447632D1*
X1356030Y2445491D1*
X3504733Y2827385D2*
X3578618D1*
X3578629Y2856593D1*
X3571256Y2858838D1*
X3458185D1*
X3451756Y2853219D1*
X3445535Y2849406D1*
X3438793Y2846614D1*
X3431698Y2844910D1*
X3424424Y2844338D1*
X3423213Y2844386D1*
X3413532Y2834692D1*
X3469511Y2834668D1*
Y2813030D1*
X3491384Y2813200D1*
X3495582D1*
X3495546Y2827385D1*
X3504733D1*
X1266961Y2938918D2*
X1265465Y2929472D1*
X1262509Y2920376D1*
X1258167Y2911854D1*
X1252546Y2904117D1*
X1245783Y2897354D1*
X1238046Y2891733D1*
X1229524Y2887391D1*
X1220428Y2884435D1*
X1210982Y2882939D1*
X1201418D1*
X1191972Y2884435D1*
X1182876Y2887391D1*
X1174354Y2891733D1*
X1166617Y2897354D1*
X1159854Y2904117D1*
X1154233Y2911854D1*
X1149891Y2920376D1*
X1146935Y2929472D1*
X1145439Y2938918D1*
Y2948482D1*
X1146935Y2957928D1*
X1149891Y2967024D1*
X1154233Y2975546D1*
X1159854Y2983283D1*
X1166617Y2990046D1*
X1174354Y2995667D1*
X1182876Y3000009D1*
X1191972Y3002965D1*
X1201418Y3004461D1*
X1210982D1*
X1220428Y3002965D1*
X1229524Y3000009D1*
X1238046Y2995667D1*
X1245783Y2990046D1*
X1252546Y2983283D1*
X1258167Y2975546D1*
X1262509Y2967024D1*
X1265465Y2957928D1*
X1266961Y2948482D1*
Y2938918D1*
X3281106Y3144511D2*
X3311679D1*
X3311700Y3175084D1*
X3281153Y3144524D1*
X1792921Y2827830D2*
X1742889D1*
Y2952097D1*
X1644545Y2952070D1*
X1644511Y2827830D1*
X1638231D1*
X1638200Y2768859D1*
X1643819Y2762422D1*
X1647632Y2756201D1*
X1650424Y2749459D1*
X1652128Y2742364D1*
X1652700Y2735090D1*
X1652563Y2731598D1*
X1796970Y2731590D1*
X1799200Y2738963D1*
Y2827848D1*
X1792889Y2827866D1*
X1892921Y2827830D2*
X1863209D1*
X1863101Y2718079D1*
X1862316Y2713120D1*
X1861631Y2710692D1*
X1896972Y2710590D1*
X1899200Y2717963D1*
Y2827804D1*
X1892889Y2827866D1*
X1911249Y3172168D2*
X1919511D1*
Y3066059D1*
X1924248Y3066070D1*
X1926511Y3073443D1*
Y3271918D1*
X1919138Y3274200D1*
X1820493D1*
X1820495Y3259031D1*
X1738408D1*
X1738397Y3195426D1*
X1745769Y3193169D1*
X1883711Y3193070D1*
X1888670Y3192285D1*
X1893446Y3190733D1*
X1897920Y3188454D1*
X1901982Y3185502D1*
X1905533Y3181951D1*
X1908485Y3177889D1*
X1910768Y3173406D1*
X1424214Y2827830D2*
X1417889D1*
Y2950518D1*
X1417200Y2944697D1*
Y2823014D1*
X1420559Y2819466D1*
X1424206Y2814524D1*
X1424200Y2827851D1*
X1509811Y2827830D2*
X1488209D1*
X1488200Y2768859D1*
X1493819Y2762422D1*
X1497632Y2756201D1*
X1500424Y2749459D1*
X1502128Y2742364D1*
X1502700Y2735090D1*
X1502563Y2731598D1*
X1559847Y2731590D1*
X1559843Y2738738D1*
X1560985Y2745945D1*
X1563240Y2752885D1*
X1566552Y2759386D1*
X1570841Y2765289D1*
X1574210Y2768793D1*
X1573995Y2781366D1*
X1567055Y2779111D1*
X1559848Y2777969D1*
X1552552D1*
X1545345Y2779111D1*
X1538405Y2781366D1*
X1531904Y2784678D1*
X1526001Y2788967D1*
X1520841Y2794127D1*
X1516552Y2800030D1*
X1513240Y2806531D1*
X1510985Y2813471D1*
X1509843Y2820678D1*
X1509837Y2827818D1*
X1495495Y3274173D2*
Y3259031D1*
X1413408D1*
X1413397Y3195426D1*
X1420769Y3193169D1*
X1508711Y3193070D1*
X1513670Y3192285D1*
X1518446Y3190733D1*
X1522928Y3188448D1*
X1524200Y3188976D1*
Y3271976D1*
X1516827Y3274200D1*
X1495476D1*
X3440983Y2702928D2*
X3413231D1*
X3412806Y2698064D1*
X3411634Y2693181D1*
X3409712Y2688542D1*
X3407089Y2684261D1*
X3403828Y2680442D1*
X3380975Y2657731D1*
X3386206Y2657176D1*
X3391089Y2656004D1*
X3395728Y2654082D1*
X3400009Y2651459D1*
X3403828Y2648198D1*
X3407094Y2644371D1*
X3408573Y2644760D1*
X3441026Y2677214D1*
X3441011Y2702950D1*
X846236Y1433418D2*
Y1454375D1*
X818463Y1454346D1*
X811495Y1450740D1*
X804555Y1448485D1*
X797348Y1447343D1*
X790052D1*
X782845Y1448485D1*
X775905Y1450740D1*
X772628Y1452250D1*
X772530Y1441528D1*
X771745Y1436569D1*
X771059Y1434141D1*
X775083Y1432971D1*
X846240Y1433399D1*
X1283735Y1436002D2*
Y1454375D1*
X1256681Y1454346D1*
X1251580Y1448320D1*
X1246032Y1443581D1*
X1239811Y1439768D1*
X1233069Y1436976D1*
X1228114Y1435698D1*
X1283732Y1436035D1*
X2639885Y1925262D2*
Y1917558D1*
X2647033Y1917557D1*
X2654240Y1916415D1*
X2661180Y1914160D1*
X2667681Y1910848D1*
X2673584Y1906559D1*
X2677088Y1903190D1*
X2766706Y1903241D1*
X2761967Y1908789D1*
X2758154Y1915010D1*
X2755362Y1921752D1*
X2753658Y1928847D1*
X2753086Y1936121D1*
X2753223Y1939613D1*
X2677141Y1939621D1*
X2670717Y1934002D1*
X2664496Y1930189D1*
X2657754Y1927397D1*
X2650659Y1925693D1*
X2643385Y1925121D1*
X2639893Y1925258D1*
X2630699Y1916117D1*
X2625711D1*
X2629016Y1915424D1*
X2631473Y1916117D1*
X2677088Y1839210D2*
X2673584Y1835841D1*
X2667681Y1831552D1*
X2661180Y1828240D1*
X2654240Y1825985D1*
X2653163Y1825771D1*
X2994706D1*
X2994700Y1900516D1*
X2990996Y1897969D1*
X2984495Y1894657D1*
X2977555Y1892402D1*
X2970348Y1891260D1*
X2965489Y1891165D1*
X2921065Y1846867D1*
X2917003Y1843915D1*
X2912529Y1841636D1*
X2907753Y1840084D1*
X2902794Y1839299D1*
X2835979Y1839200D1*
X2677119D1*
X3672014Y3135046D2*
X3625687D1*
X3625601Y2974689D1*
X3624816Y2969730D1*
X3623264Y2964954D1*
X3620985Y2960480D1*
X3619583Y2958383D1*
X3682155Y2958338D1*
X3684385Y2965711D1*
Y3135192D1*
X3672014Y3135046D1*
D22*
X3168700Y3231200D3*
Y3298129D3*
D23*
X556200Y1618700D3*
Y1728936D3*
X656200Y1618700D3*
Y1728936D3*
X906200Y1618700D3*
Y1728936D3*
X1018700Y1618700D3*
Y1728936D3*
X1343700Y1618700D3*
Y1728936D3*
X1456200Y1618700D3*
Y1728936D3*
X1731200Y1618700D3*
Y1728936D3*
X1843700Y1618700D3*
Y1728936D3*
D24*
X3456200Y3218700D3*
Y3293503D3*
X2818700Y3218700D3*
Y3293503D3*
D25*
X543700Y2918700D3*
X618503D3*
X543700Y3043700D3*
X618503D3*
D23*
X2918700Y2381200D3*
Y2491436D3*
D26*
X868700Y3018700D3*
X758464D3*
D28*
X643700Y918700D3*
X533464D3*
X2931200Y2193700D3*
X2820964D3*
D22*
X2593700Y2031200D3*
Y1964271D3*
D29*
X568700Y1831200D3*
X635629D3*
D28*
X981200Y918700D3*
X870964D3*
X3543700Y2193700D3*
X3433464D3*
D22*
X3181200Y1881200D3*
Y1814271D3*
D29*
X893700Y1831200D3*
X960629D3*
D28*
X1256200Y918700D3*
X1366436D3*
X3843700Y2216436D3*
Y2106200D3*
D22*
X3806200Y1856200D3*
Y1789271D3*
D29*
X1343700Y1831200D3*
X1410629D3*
D28*
X1643700Y918700D3*
X1753936D3*
X3843700Y2356200D3*
Y2466436D3*
D29*
X1731200Y1831200D3*
X1798129D3*
D22*
X3818700Y2793700D3*
Y2860629D3*
D28*
X531200Y3193700D3*
Y3303936D3*
X643700Y3193700D3*
Y3303936D3*
X868700Y3281200D3*
Y3170964D3*
X756200Y3281200D3*
Y3170964D3*
D22*
X543700Y2806200D3*
Y2739271D3*
D31*
X756200Y2631200D3*
D32*
X856200D3*
X956200D3*
X1056200D3*
X1156200D3*
X1256200D3*
X1356200D3*
X1456200D3*
X1556200D3*
X1656200D3*
X1756200D3*
X1856200D3*
X1956200D3*
X2056200D3*
X2156200D3*
X2256200D3*
D31*
X756200Y2031200D3*
D32*
X856200D3*
X956200D3*
X1056200D3*
X1156200D3*
X1256200D3*
X1356200D3*
X1456200D3*
X1556200D3*
X1656200D3*
X1756200D3*
X1856200D3*
X1956200D3*
X2056200D3*
X2156200D3*
X2256200D3*
D33*
X590550Y3543306D3*
D34*
X787401D3*
X984251D3*
D33*
X1181102D3*
D34*
X1377952D3*
X1574802D3*
D33*
X1771653D3*
D34*
X1968503D3*
X2165354D3*
D33*
X2665354D3*
D34*
X2862204D3*
X3059054D3*
D33*
X3255905D3*
D34*
X3452755D3*
X3649606D3*
D33*
X3846456D3*
D34*
X4043306D3*
X4240157D3*
D33*
X984251Y661417D3*
D34*
X787401D3*
X590550D3*
D33*
X1574802D3*
D34*
X1377952D3*
X1181102D3*
D33*
X2165354D3*
D34*
X1968503D3*
X1771653D3*
D33*
X3059054D3*
D34*
X2862204D3*
X2665354D3*
D33*
X3649606D3*
D34*
X3452755D3*
X3255905D3*
D33*
X4240157D3*
D34*
X4043306D3*
X3846456D3*
D35*
X3031200Y2031200D3*
D36*
X2731200D3*
D35*
X3031200Y1287106D3*
X2731200Y1161121D3*
X3031200Y1035137D3*
X3643700Y2031200D3*
D36*
X3343700D3*
D35*
X3643700Y1287106D3*
X3343700Y1161121D3*
X3643700Y1035137D3*
X4268700Y2018700D3*
D99*
X3968700D3*
D35*
X4268700Y1274606D3*
X3968700Y1148621D3*
X4268700Y1022637D3*
X3968700Y2218700D3*
D36*
X4268700D3*
D35*
X3968700Y2962794D3*
X4268700Y3088779D3*
X3968700Y3214763D3*
D38*
X2018700Y2406200D3*
Y2331397D3*
X2109251Y2368798D3*
X1818700Y2406200D3*
Y2331397D3*
X1909251Y2368798D3*
X1606200Y2406200D3*
Y2331397D3*
X1696751Y2368798D3*
X1381200Y2406200D3*
Y2331397D3*
X1471751Y2368798D3*
D39*
X3118700Y3043700D3*
Y3094881D3*
D22*
X3256200Y3231200D3*
Y3298129D3*
X3343700Y3306200D3*
Y3239271D3*
X3681200Y3218700D3*
Y3285629D3*
X3593700Y3281200D3*
Y3214271D3*
D26*
X656200Y1031200D3*
X545964D3*
D22*
X1056200Y2143700D3*
Y2210629D3*
D23*
X768700Y918700D3*
Y1028936D3*
D22*
X968700Y2143700D3*
Y2210629D3*
X1268700Y2456200D3*
Y2523129D3*
X2593700Y1856200D3*
Y1789271D3*
X1268700Y2381200D3*
Y2314271D3*
D26*
X993700Y1031200D3*
X883464D3*
D22*
X1156200Y2143700D3*
Y2210629D3*
D23*
X1106200Y931200D3*
Y1041436D3*
D22*
X881200Y2143700D3*
Y2210629D3*
X1168700Y2456200D3*
Y2523129D3*
X3181200Y2056200D3*
Y1989271D3*
X1168700Y2385629D3*
Y2318700D3*
D26*
X1243700Y1031200D3*
X1353936D3*
D22*
X1256200Y2143700D3*
Y2210629D3*
D23*
X1481200Y931200D3*
Y1041436D3*
D22*
X1531200Y2143700D3*
Y2210629D3*
X1043700Y2456200D3*
Y2523129D3*
X3806200Y2031200D3*
Y1964271D3*
X1043700Y2393700D3*
Y2326771D3*
D26*
X1631200Y1031200D3*
X1741436D3*
D22*
X1356200Y2143700D3*
Y2210629D3*
D23*
X1881200Y931200D3*
Y1041436D3*
D22*
X1443700Y2143700D3*
Y2210629D3*
X918700Y2456200D3*
Y2523129D3*
Y2393700D3*
Y2326771D3*
X3818700Y2618700D3*
Y2685629D3*
D29*
X3543700Y2781200D3*
X3610629D3*
D22*
X3118700Y2843700D3*
Y2776771D3*
X643700Y2743700D3*
Y2810629D3*
D42*
X1206200Y2943700D3*
Y3043700D3*
Y3143700D3*
D43*
X3281200Y3106200D3*
Y3056200D3*
Y3006200D3*
Y2956200D3*
X3493798D3*
Y3006200D3*
Y3056200D3*
Y3106200D3*
D44*
X1781200Y2893700D3*
X1831200D3*
X1881200D3*
X1931200D3*
Y3106298D3*
X1881200D3*
X1831200D3*
X1781200D3*
X1456200Y2893700D3*
X1506200D3*
X1556200D3*
X1606200D3*
Y3106298D3*
X1556200D3*
X1506200D3*
X1456200D3*
D46*
X1781200Y3306200D3*
X1706397D3*
X1743798Y3215649D3*
X1456200Y3306200D3*
X1381397D3*
X1418798Y3215649D3*
D44*
X3281200Y2556200D3*
X3331200D3*
X3381200D3*
X3431200D3*
Y2768798D3*
X3381200D3*
X3331200D3*
X3281200D3*
D47*
X556200Y1156200D3*
X656200D3*
Y1490846D3*
X556200D3*
X906200Y1156200D3*
X1006200D3*
Y1490846D3*
X906200D3*
X1343700Y1156200D3*
X1443700D3*
Y1490846D3*
X1343700D3*
X1731200Y1156200D3*
X1831200D3*
Y1490846D3*
X1731200D3*
M02*
