%TF.GenerationSoftware,Novarm,DipTrace,3.1.0.1*%
%TF.CreationDate,2017-07-09T15:58:03+02:00*%
%FSLAX26Y26*%
%MOIN*%
%TF.FileFunction,Copper,L1,Top*%
%TF.Part,Single*%
%AMOUTLINE0*
4,1,4,
0.031496,0.015748,
0.031496,-0.015748,
-0.031496,-0.015748,
-0.031496,0.015748,
0.031496,0.015748,
0*%
%AMOUTLINE3*
4,1,4,
-0.031496,-0.015748,
-0.031496,0.015748,
0.031496,0.015748,
0.031496,-0.015748,
-0.031496,-0.015748,
0*%
%AMOUTLINE6*5,1,4,0,0,0.108572,-135.0*%
%TA.AperFunction,Conductor*%
%ADD14C,0.011*%
%ADD15C,0.015*%
%ADD16C,0.02*%
%ADD17C,0.085*%
%ADD18C,0.076772*%
%TA.AperFunction,CopperBalancing*%
%ADD19C,0.025*%
%ADD25R,0.124016X0.062992*%
%ADD26R,0.051181X0.059055*%
%ADD27R,0.043307X0.03937*%
%ADD28R,0.03937X0.043307*%
%ADD29R,0.059055X0.051181*%
%ADD30R,0.049213X0.043307*%
%ADD32R,0.055118X0.082677*%
%ADD33R,0.043307X0.049213*%
%TA.AperFunction,ComponentPad*%
%ADD35R,0.06378X0.06378*%
%ADD36C,0.06378*%
%ADD37R,0.098425X0.098425*%
%ADD38C,0.098425*%
%ADD39R,0.059055X0.059055*%
%ADD40C,0.059055*%
%ADD41R,0.066929X0.066929*%
%ADD42C,0.066929*%
%ADD43C,0.076772*%
%ADD44R,0.076772X0.076772*%
%ADD45R,0.045276X0.106299*%
%ADD47R,0.025591X0.041339*%
%ADD48R,0.062992X0.070866*%
%ADD49R,0.070866X0.062992*%
%ADD50R,0.023622X0.07874*%
%ADD52R,0.108268X0.03937*%
%ADD53R,0.242126X0.218504*%
%ADD54R,0.07874X0.023622*%
%ADD55R,0.07874X0.098425*%
%ADD56R,0.066929X0.086614*%
%TA.AperFunction,ViaPad*%
%ADD57C,0.04*%
%ADD125OUTLINE0*%
%ADD128OUTLINE3*%
%TA.AperFunction,ComponentPad*%
%ADD131OUTLINE6*%
G75*
G01*
%LPD*%
X3231185Y3358118D2*
D14*
X3181571D1*
X3162366Y3377323D1*
X2944870D1*
X2923870Y3356323D1*
Y3281500D1*
X2869000D1*
X3319000Y3358118D2*
Y3306465D1*
X3136469Y3341823D2*
Y3231500D1*
X3081598D1*
X3669000Y3383618D2*
Y3306465D1*
X590850Y3543606D2*
D15*
Y3449613D1*
X544000Y3402763D1*
Y3256500D1*
X787701Y3543606D2*
Y3461185D1*
X744000Y3417484D1*
Y3256500D1*
X2431500Y2969000D2*
D14*
X2235500Y3165000D1*
X1769874D1*
X1748874Y3186000D1*
Y3294000D1*
X1694000D1*
X2331500Y2969000D2*
X2156500Y3144000D1*
X1694000D1*
Y3244000D2*
X1624630D1*
Y3194000D1*
Y3094413D1*
X1645630Y3073413D1*
X2127087D1*
X2231500Y2969000D1*
X1624630Y3194000D2*
X1694000D1*
X1331815Y2446504D2*
D16*
Y3156500D1*
X1381500D1*
X4269000Y2019000D2*
X4169000D1*
X3969000Y2219000D1*
X3806500Y2206500D2*
X3755004D1*
Y1956500D1*
X3719000D1*
X3644000Y2031500D1*
X3494000Y2964571D2*
Y2912913D1*
X3294000Y2952071D2*
Y2900413D1*
X832504Y1906146D2*
X779197Y1959453D1*
X649134D1*
X628134Y1980453D1*
Y2001972D1*
X544000D1*
X2531500Y2519000D2*
X2631500D1*
X1156500Y2306500D2*
Y2260654D1*
X1138154D1*
X1108154Y2230654D1*
Y2169000D1*
X1056500D1*
X1331815Y3156500D2*
Y3238811D1*
X1339126Y3231500D1*
X1381500D1*
X1869000Y3294000D2*
X1938803D1*
X1968803Y3324000D1*
Y3543606D1*
X1481402Y3144000D2*
X1560776D1*
X1590776Y3174000D1*
Y3303685D1*
X1620776Y3333685D1*
X1869000D1*
Y3294000D1*
X1381500Y3156500D2*
X1421185D1*
Y3144000D1*
X1481402D1*
X628134Y1980453D2*
X607134Y1959453D1*
X519004D1*
Y1929457D1*
X519000Y1929453D1*
Y1866146D1*
X944000D2*
X872504D1*
X832504Y1906146D1*
X1794000Y1866146D2*
X1649153D1*
X1564850Y1781843D1*
X1369000D1*
X944000D1*
Y1866146D1*
X2531500Y1969000D2*
X2365339Y1802839D1*
X1794000D1*
Y1866146D1*
X2594000Y1969000D2*
X2531500D1*
X3031500Y2031500D2*
X2969000Y1969000D1*
X2594000D1*
X3181500Y1944000D2*
X3119000D1*
X3031500Y2031500D1*
X3644000D2*
X3542363D1*
X3454863Y1944000D1*
X3181500D1*
X3755004Y1956500D2*
X3806500D1*
X3969000Y2219000D2*
X3885244D1*
X3872744Y2206500D1*
X3806500D1*
X1369000Y1866146D2*
Y1781843D1*
X3494000Y2912913D2*
X3514000D1*
X3534000Y2932913D1*
Y2953591D1*
X3564000Y2983591D1*
X3626141D1*
X3645161Y2964571D1*
X3694000D1*
X3294000Y2900413D2*
X3235654D1*
Y2971091D1*
X3146185D1*
Y2952071D1*
X3106500D1*
X1112587Y1994000D2*
X1060929D1*
X1056500Y2081500D2*
X1108154D1*
X1112587Y2077067D1*
Y1994000D1*
X1056500Y2169000D2*
Y2081500D1*
X1878567Y3244315D2*
D14*
X1843067Y3208815D1*
X1818571D1*
X1797567Y3229819D1*
Y3294000D1*
X1802071D1*
X1931500Y2641622D2*
X3041889D1*
X3198696Y2798429D1*
X3319000D1*
X1831500Y2969000D2*
Y2719122D1*
X1852500Y2698122D1*
X2978890D1*
X2999890Y2719122D1*
Y3073610D1*
X3020890Y3094610D1*
X3410154D1*
X3431154Y3073610D1*
Y2877587D1*
X3452154Y2856587D1*
X3560500D1*
X3581500Y2835587D1*
Y2798429D1*
X2008803Y3200500D2*
X2227626Y3419323D1*
X3810154D1*
X3831154Y3398323D1*
Y3000091D1*
X3810154Y2979091D1*
X3754185D1*
Y2806500D1*
X3719000D1*
X1631500Y2969000D2*
Y2698122D1*
X1652500Y2677122D1*
X3020890D1*
X3163201Y2819433D1*
X3254736D1*
X3270890Y2835587D1*
X3456500D1*
Y2798429D1*
X1369000Y1531500D2*
D15*
Y1627307D1*
X1404000Y1662307D1*
X1559000D1*
X1594000Y1627307D1*
Y1529236D1*
X1656933D1*
Y1372587D1*
X1694000D1*
Y1323429D1*
X1320654Y2270654D2*
D14*
Y2152071D1*
X1369000D1*
Y1969000D2*
Y1924953D1*
X1325185D1*
X1304185Y1903953D1*
Y1862846D1*
X1283185Y1841846D1*
X1044000D1*
Y1866146D1*
X1418685Y1969000D2*
X1369000D1*
X1781500Y2139571D2*
X1739658D1*
X1718654Y2118567D1*
Y1969000D1*
X1769000D1*
Y1924953D1*
X1894000D1*
Y1866146D1*
X994000Y2306500D2*
Y2254846D1*
X1029500D1*
Y2306500D1*
X1089571D1*
X1291933Y1419000D2*
D15*
X1369000D1*
X1581500Y1217287D2*
Y1306500D1*
X1994000D2*
Y1131500D1*
X2106500Y1019000D1*
X2167465Y1079965D1*
Y1662307D1*
X2132465Y1697307D1*
X1726933D1*
X1691933Y1662307D1*
Y1419000D1*
X1781500D1*
X2959370Y3612819D2*
D16*
X1477465D1*
X1447465Y3582819D1*
Y3453685D1*
X1417465Y3423685D1*
X1018508D1*
X988508Y3393685D1*
Y3144000D1*
X906500D1*
X2959370Y3281500D2*
X3081598D1*
X656500Y2281697D2*
Y2221500D1*
X1281500Y2675413D2*
Y2727071D1*
X823252Y2979650D2*
X875890D1*
Y2906500D1*
X906500Y3144000D2*
X823252D1*
Y2979650D1*
X656500Y2281697D2*
X769000D1*
Y2294000D1*
X544000D2*
Y2281697D1*
X656500D1*
Y2221500D2*
X628134D1*
Y2181500D1*
X544000D1*
X1369000Y2219000D2*
D14*
Y2265110D1*
X1390000Y2286110D1*
X1469000D1*
Y2231500D1*
X1581500Y2219000D2*
X1616686D1*
X1629186Y2231500D1*
X1681500D1*
X1894000Y1306500D2*
D15*
X1794000D1*
X1894000Y1614807D2*
Y1531500D1*
X1781500Y2206500D2*
D14*
Y2265110D1*
X1802500Y2286110D1*
X1881500D1*
Y2231500D1*
X3106500Y3019000D2*
Y3073610D1*
X3194000D1*
Y3019000D1*
X3294000D2*
Y3073610D1*
X3394000D1*
Y3019000D1*
X3494000Y3031500D2*
Y3086110D1*
X3594000D1*
Y3031500D1*
X2731500Y2031500D2*
X2660142Y2102858D1*
X2594000D1*
X3138476Y2488390D2*
X3194098D1*
Y2540949D1*
X3138476Y2854933D2*
X3194000D1*
Y2926480D1*
X3694000Y3031500D2*
Y3086110D1*
X3794000D1*
Y3031500D1*
X872504Y1419000D2*
D15*
X944000D1*
X1169000Y1217287D2*
Y1306500D1*
X744000Y1431500D2*
Y1419000D1*
X629236D1*
X1094000Y2781500D2*
D14*
Y2655630D1*
X1065000D1*
X1044000Y2634630D1*
Y2568902D1*
X1169000Y2473429D2*
X1081500D1*
X994000D2*
X1081500D1*
X994000D2*
X906500D1*
X1044000Y2568902D2*
Y2510587D1*
X994000D1*
Y2473429D1*
X1081500D2*
Y2495087D1*
X1119500D1*
Y2617276D1*
X1098500Y2638276D1*
X1094000D1*
Y2568902D1*
X1469000Y1614807D2*
D15*
Y1531500D1*
Y1296067D2*
X1458567Y1306500D1*
X1381500D1*
X856500Y1323429D2*
X825004D1*
Y1541736D1*
X744000D1*
Y1662307D1*
X709000Y1697307D1*
X554000D1*
X519000Y1662307D1*
Y1531500D1*
X623370Y1306500D2*
X544000D1*
X623370Y1614807D2*
X619000Y1610437D1*
Y1531500D1*
X1594000Y1419000D2*
X1510736D1*
Y1343567D1*
X1479236D1*
Y1419000D1*
X856500Y1106500D2*
Y1256500D1*
X1181500Y1431500D2*
Y1419000D1*
X1054236D1*
X944000Y1531500D2*
Y1627307D1*
X979000Y1662307D1*
X1146500D1*
X1181500Y1627307D1*
Y1541736D1*
X1244433D1*
Y1384654D1*
X1281500Y1347587D1*
Y1298429D1*
X3446500Y3183035D2*
D14*
X3415965Y3152500D1*
X3229886D1*
X3200886Y3181500D1*
X3081598D1*
X3669000Y3239535D2*
X3718685D1*
Y3204035D1*
X3697685Y3183035D1*
X3581500D1*
Y3239571D1*
X519000Y1419000D2*
D15*
X451500D1*
Y1252287D1*
X486500Y1217287D1*
X744000D1*
Y1306500D1*
X1281500Y1106500D2*
Y1231500D1*
X3319000Y2731500D2*
D14*
X3252500D1*
X3231500Y2710500D1*
Y2631500D1*
X3581500Y2731500D2*
X3569000D1*
Y2631500D1*
X792504Y1866146D2*
X619000D1*
X1219000Y1917346D2*
Y1969000D1*
X1169000D1*
Y2100413D2*
Y2152071D1*
X3731500Y2631500D2*
X3774295D1*
Y2739571D1*
X3719000D1*
X1581500Y2152071D2*
Y2110272D1*
X1616685Y2075087D1*
Y1956500D1*
X1581500D1*
Y1887146D1*
X1560500Y1866146D1*
X1469000D1*
X3406500Y3239535D2*
Y3187882D1*
X3319000D1*
Y3239535D1*
X3266685D1*
Y3377323D1*
X3245685Y3398323D1*
X2814126D1*
X2793126Y3377323D1*
Y3252500D1*
X2814126Y3231500D1*
X2869000D1*
X3406500Y2631500D2*
Y2731500D1*
X3456500D1*
X1694000Y1106500D2*
D15*
Y1256500D1*
X2978370Y3167000D2*
D14*
X2963870Y3181500D1*
X2869000D1*
X3171969Y3239535D2*
X3231500D1*
X2869000Y3181500D2*
X2499890D1*
X2478890Y3160500D1*
Y2785571D1*
X2457890Y2764571D1*
X2131500D1*
X544000Y2856500D2*
D16*
X474000D1*
X444000Y2826500D1*
Y2744000D1*
X519197D1*
X994000Y2638276D2*
Y2568902D1*
X519197Y2744000D2*
Y2693472D1*
X549197Y2663472D1*
X673610D1*
Y2544000D1*
X756500D1*
X1169000Y2406500D2*
X1364617D1*
X1379007Y2420890D1*
X2989000D1*
X3019000Y2390890D1*
Y2219000D1*
X1081500Y2406500D2*
X1121185D1*
X1169000D1*
X994000D2*
X1081500D1*
X906500D2*
X994000D1*
X856500Y2544000D2*
Y2406500D1*
X906500D1*
X756500Y2544000D2*
X856500D1*
X673610Y2663472D2*
X694610Y2684472D1*
X794000D1*
Y2744000D1*
X3494000Y3239535D2*
D14*
Y3152500D1*
X3473000Y3131500D1*
X3081598D1*
X2999890D1*
X2978890Y3110500D1*
Y2740122D1*
X2957890Y2719122D1*
X2019000D1*
Y2769000D1*
X1169000Y2219000D2*
X1216685D1*
Y2265110D1*
X1237685Y2286110D1*
X1269000D1*
Y2231500D1*
X3344000Y2031500D2*
X3274854D1*
X3228496Y2077858D1*
X3181500D1*
X3444000Y2488390D2*
X3531598D1*
Y2540949D1*
X3394000Y2871874D2*
Y2926480D1*
X3969000Y2019000D2*
X3897642Y2090358D1*
X3806500D1*
X3666685Y2877587D2*
X3615000D1*
X3594000Y2898587D1*
Y2938980D1*
X3694098Y2540949D2*
X3736894Y2540953D1*
X3369098Y2540949D2*
X3458811D1*
X3494984Y2577122D1*
X3810154D1*
X3831154Y2598122D1*
X3853496Y2575780D1*
Y2361362D1*
X4126638D1*
X4269000Y2219000D1*
X3831154Y2598122D2*
Y2938980D1*
X3794000D1*
X3853496Y2361362D2*
Y2340358D1*
X3806500D1*
X2006500Y1431500D2*
D15*
X1891736D1*
Y1419000D1*
X1794000Y1531500D2*
Y1627307D1*
X1829000Y1662307D1*
X1971500D1*
X2006500Y1627307D1*
Y1541736D1*
X2084000D1*
X2119000Y1506736D1*
Y1310929D1*
X2106500Y1119000D2*
Y1179965D1*
X2119000Y1192465D1*
Y1244000D1*
X1048370Y1306500D2*
X969000D1*
X1048370Y1614807D2*
X1044000Y1610437D1*
Y1531500D1*
X1129500Y2673776D2*
D14*
Y2798429D1*
X1181500D1*
X944000Y2638276D2*
Y2568902D1*
X1181500Y2798429D2*
X1216686D1*
X1221115Y2794000D1*
X1281500D1*
X881500Y2669000D2*
X901189D1*
Y2676630D1*
X958500D1*
X994000Y2712130D1*
Y2781500D1*
Y2906500D2*
D16*
Y2959654D1*
X1151559D1*
Y2906500D1*
X1094000D1*
X1044000D1*
Y2781500D1*
X2131500Y2883154D2*
D14*
Y2831500D1*
X2031500Y2969000D2*
Y2918654D1*
X2019000Y2906154D1*
Y2835929D1*
X2731500Y1161421D2*
D18*
Y1080535D1*
D17*
Y881500D1*
X2644000Y794000D1*
Y683370D1*
X2665654Y661717D1*
X2862504D2*
Y1118409D1*
X2974305Y1230211D1*
D18*
X3031500Y1287406D1*
Y1035437D2*
Y954551D1*
D17*
Y689571D1*
X3059354Y661717D1*
X3256205D2*
Y1073626D1*
X3286805Y1104226D1*
D18*
X3344000Y1161421D1*
X3453055Y661717D2*
D17*
Y1096461D1*
X3586805Y1230211D1*
D18*
X3644000Y1287406D1*
Y1035437D2*
Y954551D1*
D17*
Y667622D1*
X3649906Y661717D1*
X3846756D2*
Y1026677D1*
X3911805Y1091726D1*
D18*
X3969000Y1148921D1*
X4269000Y1274906D2*
X4211805Y1217711D1*
D17*
Y1161805D1*
X4044000Y994000D1*
Y662110D1*
X4043606Y661717D1*
X4240457D2*
Y913508D1*
X4269000Y942051D1*
D18*
Y1022937D1*
X1287535Y3104000D2*
D14*
X1303035Y3119500D1*
Y3218186D1*
X1281500Y3239721D1*
Y3294000D1*
X1550776Y3244000D2*
X1481402D1*
X1206697Y3294000D2*
X1157398D1*
Y3324673D1*
X1177398Y3344673D1*
X1181402D1*
X1216902Y3380173D1*
X1395685D1*
X1416685Y3359173D1*
Y3194000D1*
X1481402D1*
X787701Y661717D2*
D15*
Y738429D1*
X744000Y782130D1*
Y906500D1*
X590850Y661717D2*
Y738430D1*
X544000Y785280D1*
Y906500D1*
X984551Y661717D2*
Y800654D1*
X969000Y816205D1*
Y906500D1*
X1181402Y661717D2*
Y738429D1*
X1169000Y750831D1*
Y906500D1*
X1575102Y661717D2*
Y805228D1*
X1581500Y811626D1*
Y906500D1*
X1378252Y661717D2*
Y806803D1*
X1381500Y810051D1*
Y906500D1*
X1968803Y661717D2*
Y738429D1*
X1994000Y763626D1*
Y906500D1*
X1771953Y661717D2*
Y738429D1*
X1794000Y760476D1*
Y906500D1*
X1269000Y2083154D2*
D14*
Y2031500D1*
X1169000D1*
Y2035929D1*
X1369000D2*
Y2083154D1*
X1474185D1*
X1481500D1*
Y2031500D1*
X1546000Y2083154D2*
Y2023429D1*
X1581500D1*
X1669000Y2083154D2*
Y2031500D1*
X1769000Y2035929D2*
Y2083154D1*
X1869000D1*
Y2031500D1*
X1948654D1*
X3519000Y2219000D2*
X3372863Y2365137D1*
X3179712D1*
X2990349Y2554500D1*
X1552500D1*
X1531500Y2575500D1*
Y2969000D1*
X3619000Y2219000D2*
X3552972Y2152972D1*
X3085028D1*
X3064028Y2173972D1*
Y2425390D1*
X3043028Y2446390D1*
X1452500D1*
X1431500Y2467390D1*
Y2969000D1*
X563587Y2544000D2*
D16*
X469866D1*
X1219000Y2084374D2*
Y2138980D1*
X1269000D1*
X3406500Y3306465D2*
Y3358118D1*
X2919000Y2219000D2*
X2820890Y2317110D1*
X2783390D1*
X2731500Y2369000D1*
X1575102Y3543606D2*
Y3439480D1*
X1540776Y3405154D1*
Y3294000D1*
X1481402D1*
X594000Y2744000D2*
X649591D1*
X1269000Y1964571D2*
Y1877661D1*
X1268685Y1877346D1*
X1164434D1*
X1097465Y1944315D1*
X994000D1*
Y1994000D1*
X1469000Y2138980D2*
X1521500D1*
Y2226358D1*
X1247538Y2906500D2*
Y3010942D1*
X1201421Y3057059D1*
Y3144000D1*
X469866Y2544000D2*
Y2472091D1*
X499866Y2442091D1*
X626500D1*
X656500Y2412091D1*
X544000D1*
Y2368803D1*
X2531500Y2969000D2*
X2694000Y3131500D1*
X2869000D1*
X2750087Y2519000D2*
X2698429D1*
X1718996Y1932917D2*
X1669000D1*
Y1964571D1*
X2731500Y2369000D2*
X2679610Y2317110D1*
X2160284D1*
X1982154Y2138980D1*
X2003154Y2117980D1*
Y1994571D1*
X1973154Y1964571D1*
X1869000D1*
X3494197Y2631500D2*
X3451398D1*
Y2612622D1*
X1201421Y3144000D2*
X1099413D1*
X1481500Y1964571D2*
X1531185D1*
X1181500Y2731500D2*
X1231185Y2731504D1*
X3181815Y3306465D2*
X3231500D1*
X1381500Y3037913D2*
Y3089571D1*
X3406500Y3358118D2*
X3494000D1*
X3581500D1*
Y3306500D1*
X656500Y2412091D2*
Y2356500D1*
X994000Y1944315D2*
X964000D1*
Y2081500D1*
X989571D1*
X1269000Y2138980D2*
Y2126570D1*
X1310654D1*
Y1964571D1*
X1269000D1*
X3494000Y3358118D2*
Y3306465D1*
X1869000Y1964571D2*
X1818685D1*
X1982154Y2138980D2*
X1881500D1*
X881500Y2735929D2*
Y2712130D1*
X944000D1*
Y2781500D1*
X744000Y2856500D2*
Y2833350D1*
X851500D1*
X881500Y2803350D1*
Y2735929D1*
X719197Y2744000D2*
X734787D1*
Y2856500D1*
X744000D1*
X649591Y2744000D2*
X719197D1*
X989571Y2169000D2*
Y2220988D1*
X901484D1*
X807780D1*
Y2091736D1*
X989571Y2081500D2*
Y2169000D1*
X1521500Y2226358D2*
Y2256110D1*
X1541500Y2276110D1*
X1723154D1*
Y2183591D1*
X1681500D1*
Y2138980D1*
X1244098Y3203449D2*
Y3340087D1*
X1381500D1*
Y3298429D1*
X1201421Y3144000D2*
X1277535D1*
Y3203449D1*
X1244098D1*
X901480Y2306500D2*
X901484Y2220988D1*
X769000Y2368803D2*
X846874D1*
Y2306500D1*
X901480D1*
X656500Y2356500D2*
X706028D1*
X718331Y2368803D1*
X769000D1*
X2869000Y3131500D2*
X2938370D1*
X3331697Y2631500D2*
X3279319D1*
Y2611622D1*
X3249319Y2581622D1*
X3156697D1*
Y2631500D1*
X3451398Y2612622D2*
X3420398Y2581622D1*
X3331697D1*
Y2631500D1*
X3631185Y2682173D2*
X3636696D1*
X3656697Y2662172D1*
Y2631500D1*
D57*
X1270614Y3627819D3*
X3319000Y3358118D3*
X3231185D3*
X3136469Y3341823D3*
X3669000Y3383618D3*
X2531500Y1969000D3*
X832504Y1906146D3*
X2531500Y2519000D3*
X1331815Y2446504D3*
X3494000Y2912913D3*
X3294000Y2900413D3*
X1112587Y1994000D3*
X1878567Y3244315D3*
X1931500Y2641622D3*
X2008803Y3200500D3*
X1320654Y2270654D3*
X1418685Y1969000D3*
X1291933Y1419000D3*
X1581500Y1217287D3*
X2959370Y3612819D3*
Y3281500D3*
X656500Y2221500D3*
X1281500Y2675413D3*
X823252Y2979650D3*
X1894000Y1306500D3*
Y1614807D3*
X3138476Y2488390D3*
Y2854933D3*
X872504Y1419000D3*
X1169000Y1217287D3*
X1469000Y1296067D3*
Y1614807D3*
X623370Y1306500D3*
Y1614807D3*
X3446500Y3183035D3*
X3581500D3*
X744000Y1217287D3*
X792504Y1866146D3*
X1219000Y1917346D3*
X1169000Y2100413D3*
X3171969Y3239535D3*
X2978370Y3167000D3*
X994000Y2638276D3*
X856500Y2544000D3*
X3444000Y2488390D3*
X3394000Y2871874D3*
X3666685Y2877587D3*
X3736894Y2540953D3*
X1048370Y1306500D3*
Y1614807D3*
X1129500Y2673776D3*
X944000Y2638276D3*
X2131500Y2883154D3*
X1287535Y3104000D3*
X1550776Y3244000D3*
X1181402Y3344673D3*
X1269000Y2083154D3*
X1474185D3*
X1546000D3*
X1669000D3*
X1948654Y2031500D3*
X469866Y2544000D3*
X1219000Y2084374D3*
X1718996Y1932917D3*
X1818685Y1964571D3*
X3631185Y2682173D3*
X2938370Y3131500D3*
X1231185Y2731504D3*
X3181815Y3306465D3*
X1521500Y2226358D3*
X2750087Y2519000D3*
X1531185Y1964571D3*
X3406500Y3358118D3*
X3451398Y2612622D3*
X1201421Y3144000D3*
X649591Y2744000D3*
X1381500Y3037913D3*
X496518Y3706631D2*
D19*
X3728595D1*
X496518Y3681762D2*
X3728307D1*
X496518Y3656894D2*
X1231809D1*
X1309402D2*
X2942049D1*
X2976689D2*
X3728056D1*
X496518Y3632025D2*
X1221797D1*
X1319414D2*
X1442557D1*
X3004213D2*
X3727769D1*
X496518Y3607156D2*
X512654D1*
X669049D2*
X744035D1*
X831353D2*
X1103200D1*
X1314785D2*
X1334581D1*
X3103002D2*
X3177988D1*
X3334419D2*
X3606265D1*
X3693548D2*
X3727482D1*
X496518Y3582287D2*
X512654D1*
X669049D2*
X720100D1*
X855288D2*
X1103200D1*
X1282561D2*
X1310682D1*
X3126936D2*
X3177988D1*
X3334419D2*
X3582331D1*
X496518Y3557419D2*
X512654D1*
X669049D2*
X710770D1*
X864654D2*
X1103200D1*
X1259631D2*
X1301316D1*
X2045746D2*
X2088723D1*
X2242607D2*
X2587441D1*
X2743873D2*
X2785558D1*
X2939442D2*
X2982419D1*
X3136302D2*
X3177988D1*
X3334419D2*
X3572965D1*
X496518Y3532550D2*
X512654D1*
X669049D2*
X710304D1*
X865084D2*
X1103200D1*
X1259631D2*
X1300850D1*
X2046212D2*
X2088257D1*
X2243037D2*
X2587441D1*
X2743873D2*
X2785092D1*
X2939908D2*
X2981952D1*
X3136769D2*
X3177988D1*
X3334419D2*
X3572498D1*
X496518Y3507681D2*
X512654D1*
X669049D2*
X718557D1*
X856831D2*
X1103200D1*
X1259631D2*
X1309103D1*
X2037959D2*
X2096510D1*
X2234784D2*
X2587441D1*
X2743873D2*
X2793345D1*
X2931655D2*
X2990206D1*
X3128515D2*
X3177988D1*
X3334419D2*
X3580752D1*
X496518Y3482812D2*
X512654D1*
X669049D2*
X740088D1*
X835336D2*
X1103200D1*
X1259631D2*
X1330634D1*
X2016429D2*
X2118040D1*
X2213289D2*
X2587441D1*
X2743873D2*
X2814875D1*
X2910124D2*
X3011736D1*
X3106985D2*
X3177988D1*
X3334419D2*
X3602282D1*
X3697531D2*
X3726118D1*
X496518Y3457944D2*
X548610D1*
X627352D2*
X733880D1*
X824033D2*
X1003406D1*
X2007816D2*
X3725867D1*
X496518Y3433075D2*
X523742D1*
X623046D2*
X711273D1*
X810182D2*
X973766D1*
X2007816D2*
X2193613D1*
X600044Y3408206D2*
X707505D1*
X785314D2*
X952522D1*
X2007816D2*
X2168745D1*
X580487Y3383337D2*
X707505D1*
X780505D2*
X949508D1*
X1032269D2*
X1153079D1*
X2007816D2*
X2143877D1*
X580487Y3358469D2*
X707505D1*
X780505D2*
X949508D1*
X1027496D2*
X1134491D1*
X2007816D2*
X2119009D1*
X580487Y3333600D2*
X707505D1*
X780505D2*
X949508D1*
X1027496D2*
X1124156D1*
X2007816D2*
X2094142D1*
X612388Y3308731D2*
X675640D1*
X812371D2*
X949508D1*
X1027496D2*
X1122900D1*
X2004443D2*
X2069274D1*
X612388Y3283862D2*
X675640D1*
X812371D2*
X949508D1*
X1027496D2*
X1124551D1*
X1982769D2*
X2044406D1*
X612388Y3258993D2*
X675640D1*
X812371D2*
X949508D1*
X1027496D2*
X1164885D1*
X1951622D2*
X2019538D1*
X612388Y3234125D2*
X675640D1*
X812371D2*
X949508D1*
X1027496D2*
X1247490D1*
X1926431D2*
X1974181D1*
X612388Y3209256D2*
X675640D1*
X812371D2*
X949508D1*
X1027496D2*
X1264212D1*
X1911611D2*
X1960652D1*
X612388Y3184387D2*
X675640D1*
X1027496D2*
X1268518D1*
X496518Y3159518D2*
X787706D1*
X1027496D2*
X1268518D1*
X496518Y3134650D2*
X784261D1*
X1026276D2*
X1250074D1*
X496518Y3109781D2*
X784261D1*
X1003705D2*
X1238878D1*
X496518Y3084912D2*
X784261D1*
X862250D2*
X1242646D1*
X496518Y3060043D2*
X784261D1*
X862250D2*
X1269882D1*
X496518Y3035175D2*
X784261D1*
X862250D2*
X1292812D1*
X496518Y3010306D2*
X784261D1*
X898206D2*
X1292812D1*
X496518Y2985437D2*
X774608D1*
X927523D2*
X942367D1*
X1179896D2*
X1292812D1*
X496518Y2960568D2*
X778340D1*
X927523D2*
X942367D1*
X1190554D2*
X1292812D1*
X496518Y2935699D2*
X805576D1*
X927523D2*
X942367D1*
X1190554D2*
X1292812D1*
X612388Y2910831D2*
X824236D1*
X927523D2*
X942367D1*
X1190554D2*
X1292812D1*
X612388Y2885962D2*
X824236D1*
X927523D2*
X942367D1*
X1184238D2*
X1292812D1*
X612388Y2861093D2*
X824236D1*
X927523D2*
X942367D1*
X1150543D2*
X1292812D1*
X612388Y2836224D2*
X824236D1*
X927523D2*
X942367D1*
X3630176D2*
X3642939D1*
X612388Y2811356D2*
X953204D1*
X3630176D2*
X3670319D1*
X612388Y2786487D2*
X739406D1*
X848578D2*
X953204D1*
X3367683D2*
X3407826D1*
X3630176D2*
X3670319D1*
X573777Y2761618D2*
X739406D1*
X848578D2*
X953204D1*
X3367683D2*
X3393185D1*
X3630176D2*
X3670319D1*
X573777Y2736749D2*
X739406D1*
X848578D2*
X953204D1*
X3630176D2*
X3670319D1*
X573777Y2711881D2*
X667996D1*
X930178D2*
X945991D1*
X3630176D2*
X3670319D1*
X3630176Y2687012D2*
X3717399D1*
X3273308Y2662143D2*
X3364693D1*
X3610799D2*
X3689696D1*
X496518Y2637274D2*
X521266D1*
X3273308D2*
X3364693D1*
X3610799D2*
X3689696D1*
X496518Y2612406D2*
X634624D1*
X3273308D2*
X3364693D1*
X3610799D2*
X3689696D1*
X496518Y2587537D2*
X634624D1*
X3273308D2*
X3327302D1*
X496518Y2562668D2*
X634624D1*
X3235881D2*
X3327302D1*
X496518Y2537799D2*
X635126D1*
X3235881D2*
X3327302D1*
X3573408D2*
X3652305D1*
X3785770D2*
X3818987D1*
X496518Y2512930D2*
X651956D1*
X3235881D2*
X3327302D1*
X3573408D2*
X3652305D1*
X3776512D2*
X3818987D1*
X496518Y2488062D2*
X665484D1*
X3228596D2*
X3395015D1*
X3566087D2*
X3818987D1*
X496518Y2463193D2*
X817490D1*
X3216324D2*
X3402407D1*
X3553815D2*
X3818987D1*
X496518Y2438324D2*
X817490D1*
X3154280D2*
X3818987D1*
X496518Y2413455D2*
X817490D1*
X3179148D2*
X3818987D1*
X496518Y2388587D2*
X822191D1*
X3397144D2*
X3818987D1*
X496518Y2363718D2*
X857824D1*
X1217682D2*
X1370609D1*
X2692164D2*
X2770846D1*
X3422048D2*
X3747111D1*
X602520Y2338849D2*
X710483D1*
X827514D2*
X940393D1*
X1207168D2*
X1370609D1*
X2684018D2*
X2778991D1*
X3446916D2*
X3745998D1*
X827514Y2313980D2*
X940393D1*
X1287226D2*
X1301280D1*
X1340048D2*
X1370609D1*
X1953559D2*
X2009455D1*
X2053533D2*
X2109464D1*
X2153542D2*
X2209437D1*
X2253551D2*
X2309447D1*
X2353560D2*
X2409456D1*
X2453534D2*
X2509465D1*
X2553543D2*
X2609439D1*
X2653552D2*
X2809457D1*
X2853535D2*
X2909466D1*
X2953544D2*
X2980014D1*
X3471783D2*
X3748223D1*
X3874117D2*
X4126263D1*
X827514Y2289112D2*
X940393D1*
X1915845D2*
X2980014D1*
X3496651D2*
X4151131D1*
X827514Y2264243D2*
X940393D1*
X1932137D2*
X2660466D1*
X2854540D2*
X2980014D1*
X3554532D2*
X3583443D1*
X3654542D2*
X3920001D1*
X4018013D2*
X4175999D1*
X715017Y2239374D2*
X963503D1*
X1932137D2*
X2660466D1*
X2873702D2*
X2964297D1*
X3673704D2*
X3736633D1*
X4033120D2*
X4200866D1*
X704969Y2214505D2*
X1005846D1*
X1932137D2*
X2660466D1*
X2877362D2*
X2960637D1*
X3677364D2*
X3716896D1*
X4036242D2*
X4201620D1*
X692876Y2189636D2*
X1005846D1*
X1932137D2*
X2660466D1*
X2869216D2*
X2968783D1*
X3669218D2*
X3715999D1*
X4052497D2*
X4201620D1*
X663056Y2164768D2*
X1005846D1*
X1830190D2*
X2660466D1*
X2777532D2*
X2802424D1*
X2835557D2*
X3002442D1*
X3635559D2*
X3715999D1*
X4077365D2*
X4201620D1*
X627136Y2139899D2*
X1005846D1*
X1830190D2*
X2544237D1*
X2643756D2*
X3050348D1*
X3587654D2*
X3715999D1*
X4102233D2*
X4329009D1*
X496518Y2115030D2*
X1005846D1*
X1874327D2*
X2533508D1*
X2695716D2*
X3131912D1*
X3231108D2*
X3715999D1*
X4127100D2*
X4329009D1*
X496518Y2090161D2*
X1005846D1*
X1902712D2*
X2533508D1*
X2798883D2*
X3001258D1*
X3061735D2*
X3121003D1*
X3263942D2*
X3276597D1*
X3411390D2*
X3613765D1*
X3674242D2*
X3715999D1*
X4151968D2*
X4329009D1*
X496518Y2065293D2*
X1005846D1*
X1983092D2*
X2544955D1*
X2798883D2*
X2973591D1*
X3089402D2*
X3121003D1*
X3411390D2*
X3526064D1*
X3701909D2*
X3715999D1*
X4176836D2*
X4221033D1*
X627136Y2040424D2*
X1005846D1*
X1996800D2*
X2664126D1*
X2798883D2*
X2964728D1*
X3098265D2*
X3132271D1*
X3411390D2*
X3497177D1*
X664528Y2015555D2*
X1010260D1*
X1994826D2*
X2664126D1*
X2798883D2*
X2961426D1*
X3101566D2*
X3243046D1*
X3411390D2*
X3472310D1*
X800601Y1990686D2*
X1010260D1*
X1973439D2*
X2487863D1*
X3126434D2*
X3276597D1*
X3411390D2*
X3447442D1*
X826940Y1965818D2*
X1010260D1*
X1817702D2*
X2474191D1*
X865838Y1940949D2*
X1120317D1*
X1924206D2*
X2449323D1*
X1106477Y1916080D2*
X1170016D1*
X1956466D2*
X2424456D1*
X1106477Y1891211D2*
X1178054D1*
X1956466D2*
X2399588D1*
X1956466Y1866343D2*
X2374720D1*
X1956466Y1841474D2*
X2349852D1*
X493965Y2346091D2*
X600028D1*
Y2318209D1*
X600473Y2321470D1*
Y2333787D1*
X712528D1*
Y2318178D1*
X712973Y2324586D1*
Y2346090D1*
X825028D1*
Y2241909D1*
X712973D1*
Y2245175D1*
X712528Y2241924D1*
Y2229606D1*
X702301D1*
X703000Y2221500D1*
X702428Y2214226D1*
X700724Y2207131D1*
X697932Y2200389D1*
X694119Y2194168D1*
X689380Y2188620D1*
X683832Y2183881D1*
X677611Y2180068D1*
X670869Y2177276D1*
X664152Y2175648D1*
X662848Y2170221D1*
X660656Y2164929D1*
X657663Y2160046D1*
X653943Y2155691D1*
X649588Y2151971D1*
X644705Y2148978D1*
X639413Y2146786D1*
X633844Y2145449D1*
X628134Y2145000D1*
X624653D1*
X624634Y2135315D1*
X493980D1*
X494000Y2048137D1*
X624634Y2048157D1*
Y2038505D1*
X630998Y2038360D1*
X636655Y2037464D1*
X642102Y2035694D1*
X647205Y2033094D1*
X651839Y2029727D1*
X655889Y2025677D1*
X659255Y2021044D1*
X661856Y2015940D1*
X663626Y2010493D1*
X664522Y2004836D1*
X664634Y2001961D1*
X667507Y1995953D1*
X782061Y1995841D1*
X787718Y1994945D1*
X793165Y1993175D1*
X798268Y1990574D1*
X802902Y1987208D1*
X837967Y1952302D1*
X843359Y1951361D1*
X850299Y1949106D1*
X856800Y1945794D1*
X862703Y1941505D1*
X867863Y1936345D1*
X872152Y1930442D1*
X875464Y1923941D1*
X877719Y1917001D1*
X878644Y1911621D1*
X884036Y1906575D1*
Y1935953D1*
X1103965D1*
Y1873837D1*
X1202572Y1873846D1*
X1197889Y1875914D1*
X1191668Y1879727D1*
X1186120Y1884466D1*
X1181381Y1890014D1*
X1177568Y1896235D1*
X1174776Y1902977D1*
X1173072Y1910072D1*
X1172500Y1917346D1*
X1172637Y1920838D1*
X1122815Y1920846D1*
Y1948657D1*
X1116235Y1947643D1*
X1108939D1*
X1099896Y1947815D1*
X1012776D1*
Y2035336D1*
X1008347Y2035315D1*
X1008346Y2215185D1*
X1071682D1*
X1071766Y2233518D1*
X1072662Y2239175D1*
X1074432Y2244622D1*
X1077033Y2249725D1*
X1080399Y2254359D1*
X1082353Y2256471D1*
X1082607Y2260315D1*
X1061471D1*
X1061401Y2252335D1*
X1060616Y2247376D1*
X1059064Y2242600D1*
X1056785Y2238126D1*
X1053833Y2234064D1*
X1050282Y2230513D1*
X1046220Y2227561D1*
X1041746Y2225282D1*
X1036970Y2223730D1*
X1032011Y2222945D1*
X994000Y2222846D1*
X988994Y2223240D1*
X984111Y2224412D1*
X979472Y2226334D1*
X975191Y2228957D1*
X971373Y2232219D1*
X968111Y2236037D1*
X965488Y2240318D1*
X963566Y2244957D1*
X962394Y2249840D1*
X962000Y2254856D1*
X953243Y2258346D1*
X942894D1*
Y2354653D1*
X1045107D1*
Y2352680D1*
X1204654Y2352685D1*
Y2298320D1*
X1216903Y2310443D1*
X1220965Y2313395D1*
X1225439Y2315674D1*
X1230215Y2317226D1*
X1235174Y2318011D1*
X1269000Y2318110D1*
X1274006Y2317716D1*
X1278889Y2316544D1*
X1283528Y2314622D1*
X1287809Y2311999D1*
X1291634Y2308730D1*
X1293322Y2308273D1*
X1299543Y2312086D1*
X1306285Y2314878D1*
X1313380Y2316582D1*
X1320654Y2317154D1*
X1327928Y2316582D1*
X1335023Y2314878D1*
X1341765Y2312086D1*
X1347986Y2308273D1*
X1353534Y2303534D1*
X1357540Y2298916D1*
X1369218Y2310443D1*
X1371199Y2312004D1*
X1373110Y2319796D1*
Y2371003D1*
X1367481Y2370112D1*
X1318685Y2370000D1*
X1215159D1*
X1215185Y2358346D1*
X860315D1*
Y2370009D1*
X853636Y2370112D1*
X847979Y2371008D1*
X842532Y2372778D1*
X837429Y2375378D1*
X832795Y2378745D1*
X828745Y2382795D1*
X825378Y2387429D1*
X822778Y2392532D1*
X821008Y2397979D1*
X820112Y2403636D1*
X820000Y2452432D1*
Y2485983D1*
X667992Y2486004D1*
X667900Y2507949D1*
X662331Y2509286D1*
X657039Y2511478D1*
X652156Y2514471D1*
X647801Y2518191D1*
X644081Y2522546D1*
X641088Y2527429D1*
X638896Y2532721D1*
X637559Y2538290D1*
X637110Y2544011D1*
Y2627000D1*
X546333Y2627084D1*
X540676Y2627980D1*
X535229Y2629750D1*
X530126Y2632351D1*
X525492Y2635717D1*
X493999Y2667051D1*
X494000Y2346119D1*
X571287Y2780758D2*
Y2699947D1*
X658464Y2699972D1*
X670905Y2712227D1*
X675539Y2715593D1*
X680642Y2718194D1*
X686089Y2719964D1*
X691746Y2720859D1*
X741941Y2720972D1*
X741910Y2800027D1*
X846091D1*
Y2717171D1*
X927685Y2717153D1*
Y2708649D1*
X945219Y2708630D1*
X955690Y2719075D1*
X955689Y2826835D1*
X944862Y2826850D1*
Y2986150D1*
X968869D1*
X972546Y2989183D1*
X977429Y2992176D1*
X982721Y2994368D1*
X988290Y2995705D1*
X994000Y2996154D1*
X1154423Y2996042D1*
X1160080Y2995146D1*
X1165527Y2993376D1*
X1170630Y2990776D1*
X1175264Y2987409D1*
X1179314Y2983359D1*
X1182681Y2978725D1*
X1185281Y2973622D1*
X1187051Y2968175D1*
X1187947Y2962518D1*
X1188059Y2913722D1*
X1187947Y2903636D1*
X1187051Y2897979D1*
X1185281Y2892532D1*
X1182681Y2887429D1*
X1179314Y2882795D1*
X1175264Y2878745D1*
X1170630Y2875378D1*
X1165527Y2872778D1*
X1160080Y2871008D1*
X1154423Y2870112D1*
X1151548Y2870000D1*
X1148059Y2864102D1*
Y2846555D1*
X1227685Y2846583D1*
Y2828461D1*
X1231222Y2826937D1*
X1235315Y2828524D1*
Y2842154D1*
X1295349D1*
X1295315Y3058150D1*
X1287535Y3057500D1*
X1280261Y3058072D1*
X1273166Y3059776D1*
X1266424Y3062568D1*
X1260203Y3066381D1*
X1254655Y3071120D1*
X1249916Y3076668D1*
X1246103Y3082889D1*
X1243311Y3089631D1*
X1241607Y3096726D1*
X1241035Y3104000D1*
X1241607Y3111274D1*
X1243311Y3118369D1*
X1246103Y3125111D1*
X1249916Y3131332D1*
X1254655Y3136880D1*
X1260203Y3141619D1*
X1266424Y3145432D1*
X1271038Y3147439D1*
X1271035Y3204940D1*
X1257167Y3218939D1*
X1254215Y3223001D1*
X1251936Y3227475D1*
X1250384Y3232251D1*
X1249599Y3237210D1*
X1249500Y3246862D1*
X1167402Y3246831D1*
Y3262010D1*
X1154887Y3262099D1*
X1149928Y3262884D1*
X1145152Y3264436D1*
X1140678Y3266715D1*
X1136616Y3269667D1*
X1133065Y3273218D1*
X1130113Y3277280D1*
X1127834Y3281754D1*
X1126282Y3286530D1*
X1125497Y3291489D1*
X1125398Y3324673D1*
X1125792Y3329679D1*
X1126964Y3334562D1*
X1128886Y3339201D1*
X1131509Y3343482D1*
X1134999Y3347529D1*
X1136187Y3355528D1*
X1138442Y3362468D1*
X1141754Y3368969D1*
X1146043Y3374872D1*
X1151203Y3380032D1*
X1157106Y3384321D1*
X1162636Y3387186D1*
X1033612Y3387185D1*
X1025008Y3378566D1*
X1024896Y3141136D1*
X1024000Y3135479D1*
X1022230Y3130032D1*
X1019629Y3124929D1*
X1016263Y3120295D1*
X1012213Y3116245D1*
X1007579Y3112879D1*
X1002476Y3110278D1*
X997018Y3108506D1*
X995008Y3100946D1*
Y3086004D1*
X859760D1*
X859752Y3016145D1*
X878754Y3016038D1*
X884411Y3015142D1*
X889858Y3013372D1*
X894961Y3010771D1*
X899595Y3007405D1*
X903645Y3003355D1*
X907011Y2998721D1*
X909611Y2993618D1*
X911384Y2988160D1*
X918616Y2986149D1*
X925028D1*
Y2826850D1*
X826752D1*
Y2933247D1*
X819604Y2933293D1*
X812397Y2934435D1*
X805457Y2936690D1*
X798956Y2940002D1*
X793053Y2944291D1*
X787893Y2949451D1*
X783604Y2955354D1*
X780292Y2961855D1*
X778037Y2968795D1*
X776895Y2976002D1*
Y2983298D1*
X778037Y2990505D1*
X780292Y2997445D1*
X783604Y3003946D1*
X786754Y3008404D1*
X786864Y3146864D1*
X787760Y3152521D1*
X789530Y3157968D1*
X792131Y3163071D1*
X795497Y3167705D1*
X799547Y3171755D1*
X804181Y3175121D1*
X809284Y3177722D1*
X814731Y3179492D1*
X817553Y3180052D1*
X817992Y3187054D1*
Y3201996D1*
X952020D1*
X952120Y3396549D1*
X953016Y3402206D1*
X954786Y3407653D1*
X957387Y3412756D1*
X960753Y3417390D1*
X992699Y3449494D1*
X997054Y3453214D1*
X1001937Y3456207D1*
X1007229Y3458399D1*
X1012798Y3459736D1*
X1018519Y3460185D1*
X1402361D1*
X1410965Y3468804D1*
Y3475323D1*
X1401648Y3471599D1*
X1395927Y3469986D1*
X1390096Y3468826D1*
X1384192Y3468127D1*
X1378252Y3467894D1*
X1372312Y3468127D1*
X1366408Y3468826D1*
X1360577Y3469986D1*
X1354855Y3471599D1*
X1349278Y3473657D1*
X1343879Y3476146D1*
X1338692Y3479051D1*
X1333749Y3482354D1*
X1329081Y3486034D1*
X1324715Y3490069D1*
X1320680Y3494435D1*
X1316999Y3499104D1*
X1313696Y3504047D1*
X1310792Y3509233D1*
X1308303Y3514632D1*
X1306245Y3520210D1*
X1304631Y3525932D1*
X1303472Y3531762D1*
X1302773Y3537666D1*
X1302539Y3543606D1*
X1302773Y3549547D1*
X1303472Y3555450D1*
X1304631Y3561281D1*
X1306245Y3567003D1*
X1308303Y3572580D1*
X1310792Y3577979D1*
X1313696Y3583166D1*
X1316999Y3588109D1*
X1320680Y3592778D1*
X1324715Y3597143D1*
X1329081Y3601179D1*
X1333749Y3604859D1*
X1338692Y3608162D1*
X1343879Y3611067D1*
X1349278Y3613556D1*
X1354855Y3615613D1*
X1360577Y3617227D1*
X1366408Y3618387D1*
X1372312Y3619086D1*
X1378252Y3619319D1*
X1384192Y3619086D1*
X1390096Y3618387D1*
X1395927Y3617227D1*
X1401648Y3615613D1*
X1407226Y3613556D1*
X1412625Y3611067D1*
X1419916Y3606756D1*
X1451655Y3638629D1*
X1456011Y3642348D1*
X1460894Y3645341D1*
X1466186Y3647533D1*
X1471755Y3648870D1*
X1477476Y3649319D1*
X2930595D1*
X2935074Y3652467D1*
X2941575Y3655779D1*
X2948515Y3658034D1*
X2955722Y3659176D1*
X2963018D1*
X2970225Y3658034D1*
X2977165Y3655779D1*
X2983666Y3652467D1*
X2989569Y3648178D1*
X2994729Y3643018D1*
X2999018Y3637115D1*
X3002330Y3630614D1*
X3004585Y3623674D1*
X3005727Y3616467D1*
Y3609171D1*
X3004585Y3601964D1*
X3002330Y3595024D1*
X3000614Y3591372D1*
X3005817Y3597143D1*
X3010183Y3601179D1*
X3014852Y3604859D1*
X3019795Y3608162D1*
X3024982Y3611067D1*
X3030380Y3613556D1*
X3035958Y3615613D1*
X3041680Y3617227D1*
X3047510Y3618387D1*
X3053414Y3619086D1*
X3059354Y3619319D1*
X3065295Y3619086D1*
X3071198Y3618387D1*
X3077029Y3617227D1*
X3082751Y3615613D1*
X3088328Y3613556D1*
X3093727Y3611067D1*
X3098914Y3608162D1*
X3103857Y3604859D1*
X3108526Y3601179D1*
X3112891Y3597143D1*
X3116927Y3592778D1*
X3120607Y3588109D1*
X3123910Y3583166D1*
X3126815Y3577979D1*
X3129304Y3572580D1*
X3131361Y3567003D1*
X3132975Y3561281D1*
X3134135Y3555450D1*
X3134834Y3549547D1*
X3135067Y3543606D1*
X3134834Y3537666D1*
X3134135Y3531762D1*
X3132975Y3525932D1*
X3131361Y3520210D1*
X3129304Y3514632D1*
X3126815Y3509233D1*
X3123910Y3504047D1*
X3120607Y3499104D1*
X3116927Y3494435D1*
X3112891Y3490069D1*
X3108526Y3486034D1*
X3103857Y3482354D1*
X3098914Y3479051D1*
X3093727Y3476146D1*
X3088328Y3473657D1*
X3082751Y3471599D1*
X3077029Y3469986D1*
X3071198Y3468826D1*
X3065295Y3468127D1*
X3059354Y3467894D1*
X3053414Y3468127D1*
X3047510Y3468826D1*
X3041680Y3469986D1*
X3035958Y3471599D1*
X3030380Y3473657D1*
X3024982Y3476146D1*
X3019795Y3479051D1*
X3014852Y3482354D1*
X3010183Y3486034D1*
X3005817Y3490069D1*
X3001782Y3494435D1*
X2998102Y3499104D1*
X2994799Y3504047D1*
X2991894Y3509233D1*
X2989405Y3514632D1*
X2987347Y3520210D1*
X2985734Y3525932D1*
X2984574Y3531762D1*
X2983875Y3537666D1*
X2983642Y3543606D1*
X2983875Y3549547D1*
X2984574Y3555450D1*
X2985734Y3561281D1*
X2987347Y3567003D1*
X2989405Y3572580D1*
X2994061Y3581849D1*
X2989569Y3577460D1*
X2983666Y3573171D1*
X2977165Y3569859D1*
X2970225Y3567604D1*
X2963018Y3566462D1*
X2955722D1*
X2948515Y3567604D1*
X2941575Y3569859D1*
X2935074Y3573171D1*
X2930884Y3576109D1*
X2934511Y3567003D1*
X2936125Y3561281D1*
X2937284Y3555450D1*
X2937983Y3549547D1*
X2938217Y3543606D1*
X2937983Y3537666D1*
X2937284Y3531762D1*
X2936125Y3525932D1*
X2934511Y3520210D1*
X2932453Y3514632D1*
X2929964Y3509233D1*
X2927060Y3504047D1*
X2923757Y3499104D1*
X2920076Y3494435D1*
X2916041Y3490069D1*
X2911675Y3486034D1*
X2907007Y3482354D1*
X2902064Y3479051D1*
X2896877Y3476146D1*
X2891478Y3473657D1*
X2885900Y3471599D1*
X2880179Y3469986D1*
X2874348Y3468826D1*
X2868444Y3468127D1*
X2862504Y3467894D1*
X2856564Y3468127D1*
X2850660Y3468826D1*
X2844829Y3469986D1*
X2839107Y3471599D1*
X2833530Y3473657D1*
X2828131Y3476146D1*
X2822944Y3479051D1*
X2818001Y3482354D1*
X2813333Y3486034D1*
X2808967Y3490069D1*
X2804932Y3494435D1*
X2801251Y3499104D1*
X2797948Y3504047D1*
X2795044Y3509233D1*
X2792555Y3514632D1*
X2790497Y3520210D1*
X2788883Y3525932D1*
X2787723Y3531762D1*
X2787025Y3537666D1*
X2786791Y3543606D1*
X2787025Y3549547D1*
X2787723Y3555450D1*
X2788883Y3561281D1*
X2790497Y3567003D1*
X2794275Y3576313D1*
X2741374Y3576319D1*
X2741366Y3467893D1*
X2589941D1*
Y3576300D1*
X2233899Y3576319D1*
X2237661Y3567003D1*
X2239274Y3561281D1*
X2240434Y3555450D1*
X2241133Y3549547D1*
X2241366Y3543606D1*
X2241133Y3537666D1*
X2240434Y3531762D1*
X2239274Y3525932D1*
X2237661Y3520210D1*
X2235603Y3514632D1*
X2233114Y3509233D1*
X2230209Y3504047D1*
X2226906Y3499104D1*
X2223226Y3494435D1*
X2219190Y3490069D1*
X2214825Y3486034D1*
X2210156Y3482354D1*
X2205213Y3479051D1*
X2200026Y3476146D1*
X2194628Y3473657D1*
X2189050Y3471599D1*
X2183328Y3469986D1*
X2177498Y3468826D1*
X2171594Y3468127D1*
X2165654Y3467894D1*
X2159713Y3468127D1*
X2153809Y3468826D1*
X2147979Y3469986D1*
X2142257Y3471599D1*
X2136680Y3473657D1*
X2131281Y3476146D1*
X2126094Y3479051D1*
X2121151Y3482354D1*
X2116482Y3486034D1*
X2112117Y3490069D1*
X2108081Y3494435D1*
X2104401Y3499104D1*
X2101098Y3504047D1*
X2098193Y3509233D1*
X2095704Y3514632D1*
X2093647Y3520210D1*
X2092033Y3525932D1*
X2090873Y3531762D1*
X2090174Y3537666D1*
X2089941Y3543606D1*
X2090174Y3549547D1*
X2090873Y3555450D1*
X2092033Y3561281D1*
X2093647Y3567003D1*
X2097425Y3576313D1*
X2037111Y3576319D1*
X2040810Y3567003D1*
X2042424Y3561281D1*
X2043584Y3555450D1*
X2044282Y3549547D1*
X2044516Y3543606D1*
X2044282Y3537666D1*
X2043584Y3531762D1*
X2042424Y3525932D1*
X2040810Y3520210D1*
X2038752Y3514632D1*
X2036264Y3509233D1*
X2033359Y3504047D1*
X2030056Y3499104D1*
X2026375Y3494435D1*
X2022340Y3490069D1*
X2017975Y3486034D1*
X2013306Y3482354D1*
X2005303Y3477337D1*
X2005191Y3321136D1*
X2004295Y3315479D1*
X2002525Y3310032D1*
X1999925Y3304929D1*
X1996558Y3300295D1*
X1964613Y3268190D1*
X1960257Y3264471D1*
X1955374Y3261478D1*
X1950082Y3259286D1*
X1944513Y3257949D1*
X1938803Y3257500D1*
X1923193D1*
X1924495Y3251589D1*
X1925067Y3244315D1*
X1924495Y3237041D1*
X1922791Y3229946D1*
X1919999Y3223204D1*
X1916186Y3216983D1*
X1911447Y3211435D1*
X1905899Y3206696D1*
X1899678Y3202883D1*
X1892936Y3200091D1*
X1885841Y3198387D1*
X1878567Y3197815D1*
X1877356Y3197863D1*
X1880110Y3197000D1*
X1962464D1*
X1962446Y3204148D1*
X1963588Y3211355D1*
X1965843Y3218295D1*
X1969155Y3224796D1*
X1973444Y3230699D1*
X1978604Y3235859D1*
X1984507Y3240148D1*
X1991008Y3243460D1*
X1997948Y3245715D1*
X2005155Y3246857D1*
X2010014Y3246952D1*
X2206844Y3443656D1*
X2210906Y3446608D1*
X2215380Y3448887D1*
X2220156Y3450439D1*
X2225115Y3451224D1*
X2291930Y3451323D1*
X3728267D1*
X3731361Y3731431D1*
X494005Y3719048D1*
X494000Y3332217D1*
X510031Y3332213D1*
X510105Y3405431D1*
X510939Y3410700D1*
X512588Y3415774D1*
X515010Y3420528D1*
X518146Y3424844D1*
X556827Y3463673D1*
X556327Y3467894D1*
X515138D1*
Y3619319D1*
X666563D1*
Y3467894D1*
X624830D1*
X624746Y3446946D1*
X623911Y3441676D1*
X622262Y3436602D1*
X619840Y3431848D1*
X616704Y3427532D1*
X578024Y3388703D1*
X578000Y3332179D1*
X609870Y3332213D1*
Y3180787D1*
X494000D1*
Y2932180D1*
X609870Y2932213D1*
Y2780787D1*
X571295D1*
X1901007Y2079653D2*
X1915185D1*
Y2063757D1*
X1918455Y2066859D1*
X1924358Y2071148D1*
X1930859Y2074460D1*
X1937799Y2076715D1*
X1945006Y2077857D1*
X1952302D1*
X1959509Y2076715D1*
X1966449Y2074460D1*
X1972950Y2071148D1*
X1978853Y2066859D1*
X1984013Y2061699D1*
X1988302Y2055796D1*
X1991614Y2049295D1*
X1993869Y2042355D1*
X1995011Y2035148D1*
Y2027852D1*
X1993869Y2020645D1*
X1991614Y2013705D1*
X1988302Y2007204D1*
X1984013Y2001301D1*
X1978853Y1996141D1*
X1972950Y1991852D1*
X1966449Y1988540D1*
X1959509Y1986285D1*
X1952302Y1985143D1*
X1945006D1*
X1937799Y1986285D1*
X1930859Y1988540D1*
X1924358Y1991852D1*
X1918455Y1996141D1*
X1915183Y1999258D1*
X1915185Y1983346D1*
X1822815D1*
Y2051131D1*
X1815185Y2047337D1*
Y1956976D1*
X1896511Y1956854D1*
X1901470Y1956069D1*
X1906246Y1954517D1*
X1910720Y1952238D1*
X1914782Y1949286D1*
X1918333Y1945735D1*
X1921285Y1941673D1*
X1923568Y1937190D1*
X1925899Y1935953D1*
X1953965D1*
Y1839316D1*
X2350241Y1839339D1*
X2485303Y1974422D1*
X2486285Y1979855D1*
X2488540Y1986795D1*
X2491852Y1993296D1*
X2496141Y1999199D1*
X2501301Y2004359D1*
X2507204Y2008648D1*
X2513705Y2011960D1*
X2520645Y2014215D1*
X2527852Y2015357D1*
X2535148D1*
X2542355Y2014215D1*
X2549295Y2011960D1*
X2553793Y2009770D1*
X2558358Y2010922D1*
X2562504Y2011248D1*
X2627575Y2011167D1*
X2631682Y2010516D1*
X2635637Y2009231D1*
X2639342Y2007343D1*
X2641079Y2006182D1*
X2649118Y2005500D1*
X2666594D1*
X2666614Y2051121D1*
X2646884Y2070861D1*
X2642706Y2066960D1*
X2639342Y2064515D1*
X2635637Y2062628D1*
X2631682Y2061343D1*
X2627575Y2060692D1*
X2562504Y2060610D1*
X2558358Y2060937D1*
X2554315Y2061907D1*
X2550473Y2063499D1*
X2546928Y2065671D1*
X2543766Y2068372D1*
X2541065Y2071534D1*
X2538892Y2075080D1*
X2537301Y2078921D1*
X2536330Y2082965D1*
X2536004Y2087110D1*
X2536086Y2120686D1*
X2536736Y2124793D1*
X2538021Y2128748D1*
X2539909Y2132453D1*
X2542353Y2135817D1*
X2545294Y2138757D1*
X2548658Y2141202D1*
X2552363Y2143089D1*
X2556318Y2144374D1*
X2560425Y2145025D1*
X2625496Y2145107D1*
X2629642Y2144780D1*
X2633685Y2143810D1*
X2637527Y2142218D1*
X2641072Y2140046D1*
X2644234Y2137345D1*
X2645652Y2135811D1*
X2649118Y2134859D1*
X2662652Y2134760D1*
X2667612Y2133974D1*
X2672387Y2132423D1*
X2676862Y2130143D1*
X2680924Y2127192D1*
X2711873Y2096382D1*
X2796386Y2096386D1*
Y2005491D1*
X2953883Y2005500D1*
X2967778Y2019397D1*
X2966814Y2026409D1*
Y2036591D1*
X2968407Y2046647D1*
X2971553Y2056331D1*
X2976176Y2065403D1*
X2982160Y2073640D1*
X2989360Y2080840D1*
X2997597Y2086824D1*
X3006669Y2091447D1*
X3016353Y2094593D1*
X3026409Y2096186D1*
X3036591D1*
X3046647Y2094593D1*
X3056331Y2091447D1*
X3065403Y2086824D1*
X3073640Y2080840D1*
X3080840Y2073640D1*
X3086824Y2065403D1*
X3091447Y2056331D1*
X3094593Y2046647D1*
X3096186Y2036591D1*
Y2026409D1*
X3095203Y2019417D1*
X3133863Y1980756D1*
X3137973Y1983360D1*
X3141815Y1984951D1*
X3145858Y1985922D1*
X3150004Y1986248D1*
X3215075Y1986167D1*
X3219182Y1985516D1*
X3223137Y1984231D1*
X3226842Y1982343D1*
X3228579Y1981182D1*
X3236618Y1980500D1*
X3279141D1*
X3279114Y1999520D1*
X3272343Y1999598D1*
X3267384Y2000384D1*
X3262608Y2001936D1*
X3258134Y2004215D1*
X3254072Y2007167D1*
X3223376Y2037723D1*
X3219182Y2036343D1*
X3215075Y2035692D1*
X3150004Y2035610D1*
X3145858Y2035937D1*
X3141815Y2036907D1*
X3137973Y2038499D1*
X3134428Y2040671D1*
X3131265Y2043372D1*
X3128565Y2046534D1*
X3126392Y2050080D1*
X3124801Y2053921D1*
X3123830Y2057965D1*
X3123504Y2062119D1*
X3123586Y2095686D1*
X3124236Y2099793D1*
X3125521Y2103748D1*
X3127409Y2107453D1*
X3129853Y2110817D1*
X3132794Y2113757D1*
X3136158Y2116201D1*
X3139863Y2118089D1*
X3143818Y2119374D1*
X3147925Y2120025D1*
X3212996Y2120107D1*
X3217142Y2119780D1*
X3221185Y2118810D1*
X3225027Y2117218D1*
X3228572Y2115046D1*
X3231734Y2112345D1*
X3233152Y2110811D1*
X3235966Y2108974D1*
X3240741Y2107423D1*
X3245216Y2105143D1*
X3249278Y2102192D1*
X3279110Y2072499D1*
X3279114Y2096386D1*
X3408886D1*
Y1980516D1*
X3439758Y1980500D1*
X3518658Y2059255D1*
X3523292Y2062621D1*
X3528395Y2065222D1*
X3533842Y2066992D1*
X3539499Y2067888D1*
X3590340Y2068000D1*
X3594660Y2073640D1*
X3601860Y2080840D1*
X3610097Y2086824D1*
X3619169Y2091447D1*
X3628853Y2094593D1*
X3638909Y2096186D1*
X3649091D1*
X3659147Y2094593D1*
X3668831Y2091447D1*
X3677903Y2086824D1*
X3686140Y2080840D1*
X3693340Y2073640D1*
X3699324Y2065403D1*
X3703947Y2056331D1*
X3707093Y2046647D1*
X3708686Y2036591D1*
Y2026409D1*
X3707703Y2019417D1*
X3718502Y2008617D1*
X3718617Y2209364D1*
X3719512Y2215021D1*
X3721282Y2220468D1*
X3723883Y2225571D1*
X3727249Y2230205D1*
X3731299Y2234255D1*
X3735933Y2237622D1*
X3741036Y2240222D1*
X3746483Y2241992D1*
X3752140Y2242888D1*
X3759428Y2243687D1*
X3762973Y2245860D1*
X3766815Y2247451D1*
X3770858Y2248422D1*
X3775004Y2248748D1*
X3840075Y2248667D1*
X3844182Y2248016D1*
X3848137Y2246731D1*
X3851842Y2244843D1*
X3853579Y2243682D1*
X3859435Y2244809D1*
X3863790Y2248529D1*
X3868673Y2251522D1*
X3873965Y2253714D1*
X3879534Y2255051D1*
X3885255Y2255500D1*
X3915351D1*
X3919660Y2261140D1*
X3926860Y2268340D1*
X3935097Y2274324D1*
X3944169Y2278947D1*
X3953853Y2282093D1*
X3963909Y2283686D1*
X3974091D1*
X3984147Y2282093D1*
X3993831Y2278947D1*
X4002903Y2274324D1*
X4011140Y2268340D1*
X4018340Y2261140D1*
X4024324Y2252903D1*
X4028947Y2243831D1*
X4032093Y2234147D1*
X4033686Y2224091D1*
Y2213909D1*
X4032703Y2206917D1*
X4184125Y2055494D1*
X4215326Y2055500D1*
X4219660Y2061140D1*
X4226860Y2068340D1*
X4235097Y2074324D1*
X4244169Y2078947D1*
X4253853Y2082093D1*
X4263909Y2083686D1*
X4274091D1*
X4284147Y2082093D1*
X4293831Y2078947D1*
X4302903Y2074324D1*
X4311140Y2068340D1*
X4318340Y2061140D1*
X4324324Y2052903D1*
X4328947Y2043831D1*
X4331504Y2036235D1*
X4331500Y2154094D1*
X4204114Y2154114D1*
Y2238621D1*
X4113388Y2329357D1*
X3883523Y2329362D1*
X3880781Y2323638D1*
X3877829Y2319576D1*
X3874278Y2316025D1*
X3870216Y2313074D1*
X3865742Y2310794D1*
X3860957Y2309241D1*
X3858147Y2307400D1*
X3855206Y2304460D1*
X3851842Y2302015D1*
X3848137Y2300128D1*
X3844182Y2298843D1*
X3840075Y2298192D1*
X3775004Y2298110D1*
X3770858Y2298437D1*
X3766815Y2299407D1*
X3762973Y2300999D1*
X3759428Y2303171D1*
X3756266Y2305872D1*
X3753565Y2309034D1*
X3751392Y2312580D1*
X3749801Y2316422D1*
X3748830Y2320465D1*
X3748504Y2324619D1*
X3748586Y2358186D1*
X3749236Y2362293D1*
X3750521Y2366248D1*
X3752409Y2369953D1*
X3754853Y2373317D1*
X3757794Y2376257D1*
X3761158Y2378702D1*
X3764863Y2380589D1*
X3768818Y2381874D1*
X3772925Y2382525D1*
X3821474Y2382607D1*
X3821496Y2547206D1*
X3815160Y2545516D1*
X3810144Y2545122D1*
X3783205D1*
X3783251Y2537305D1*
X3782109Y2530098D1*
X3779854Y2523158D1*
X3776542Y2516657D1*
X3772253Y2510754D1*
X3767093Y2505594D1*
X3761190Y2501305D1*
X3754689Y2497993D1*
X3747749Y2495738D1*
X3740542Y2494596D1*
X3733402Y2494590D1*
X3733394Y2493779D1*
X3654803D1*
Y2545130D1*
X3570914Y2545122D1*
X3570894Y2493779D1*
X3563609D1*
X3563500Y2485879D1*
X3562714Y2480920D1*
X3561163Y2476144D1*
X3558883Y2471670D1*
X3555931Y2467608D1*
X3552381Y2464057D1*
X3548318Y2461106D1*
X3543844Y2458826D1*
X3539069Y2457274D1*
X3534109Y2456489D1*
X3477736Y2456390D1*
X3474199Y2453031D1*
X3468296Y2448742D1*
X3461795Y2445430D1*
X3454855Y2443175D1*
X3447648Y2442033D1*
X3440352D1*
X3433145Y2443175D1*
X3426205Y2445430D1*
X3419704Y2448742D1*
X3413801Y2453031D1*
X3408641Y2458191D1*
X3404352Y2464094D1*
X3401040Y2470595D1*
X3398785Y2477535D1*
X3397643Y2484742D1*
Y2492038D1*
X3397850Y2493780D1*
X3329803Y2493779D1*
Y2588118D1*
X3367231D1*
X3367205Y2678669D1*
X3374489D1*
X3374599Y2734011D1*
X3375384Y2738970D1*
X3376936Y2743746D1*
X3379215Y2748220D1*
X3382167Y2752282D1*
X3385718Y2755833D1*
X3389780Y2758785D1*
X3394254Y2761064D1*
X3399030Y2762616D1*
X3403989Y2763401D1*
X3410340Y2763500D1*
X3410315Y2803563D1*
X3365175Y2803587D1*
X3365185Y2683346D1*
X3272815D1*
Y2699530D1*
X3263500Y2682941D1*
Y2678671D1*
X3270795Y2678669D1*
Y2584331D1*
X3233368D1*
X3233394Y2493779D1*
X3226109D1*
X3226000Y2485879D1*
X3225214Y2480920D1*
X3223663Y2476144D1*
X3221383Y2471670D1*
X3218431Y2467608D1*
X3214881Y2464057D1*
X3210818Y2461106D1*
X3206344Y2458826D1*
X3201569Y2457274D1*
X3196609Y2456489D1*
X3172245Y2456390D1*
X3165808Y2450771D1*
X3159587Y2446958D1*
X3152845Y2444166D1*
X3147331Y2442777D1*
X3192954Y2397150D1*
X3375374Y2397038D1*
X3380333Y2396253D1*
X3385109Y2394701D1*
X3389583Y2392422D1*
X3393645Y2389470D1*
X3440961Y2342294D1*
X3509090Y2274165D1*
X3514604Y2274855D1*
X3523396D1*
X3532079Y2273480D1*
X3540441Y2270763D1*
X3548274Y2266771D1*
X3555387Y2261604D1*
X3561604Y2255387D1*
X3566771Y2248274D1*
X3569079Y2244436D1*
X3573673Y2251932D1*
X3579383Y2258617D1*
X3586068Y2264327D1*
X3593564Y2268921D1*
X3601687Y2272285D1*
X3610235Y2274338D1*
X3619000Y2275028D1*
X3627765Y2274338D1*
X3636313Y2272285D1*
X3644436Y2268921D1*
X3651932Y2264327D1*
X3658617Y2258617D1*
X3664327Y2251932D1*
X3668921Y2244436D1*
X3672285Y2236313D1*
X3674338Y2227765D1*
X3675028Y2219000D1*
X3674338Y2210235D1*
X3672285Y2201687D1*
X3668921Y2193564D1*
X3664327Y2186068D1*
X3658617Y2179383D1*
X3651932Y2173673D1*
X3644436Y2169079D1*
X3636313Y2165715D1*
X3627765Y2163662D1*
X3619000Y2162972D1*
X3610235Y2163662D1*
X3609140Y2163880D1*
X3573754Y2128639D1*
X3569692Y2125687D1*
X3565218Y2123408D1*
X3560442Y2121856D1*
X3555483Y2121070D1*
X3488668Y2120972D1*
X3082517Y2121071D1*
X3077558Y2121856D1*
X3072782Y2123408D1*
X3068308Y2125688D1*
X3064246Y2128639D1*
X3041401Y2151345D1*
X3038139Y2155163D1*
X3035516Y2159444D1*
X3033592Y2164093D1*
X3032079Y2164520D1*
X3023396Y2163145D1*
X3014604D1*
X3005921Y2164520D1*
X2997559Y2167237D1*
X2989726Y2171229D1*
X2982613Y2176396D1*
X2976396Y2182613D1*
X2971229Y2189726D1*
X2967237Y2197559D1*
X2964520Y2205921D1*
X2963145Y2214604D1*
Y2223396D1*
X2964520Y2232079D1*
X2967237Y2240441D1*
X2971229Y2248274D1*
X2976396Y2255387D1*
X2982499Y2261499D1*
X2982500Y2340540D1*
X2978738Y2334679D1*
X2972788Y2327712D1*
X2965821Y2321762D1*
X2958008Y2316974D1*
X2949543Y2313468D1*
X2940634Y2311329D1*
X2931500Y2310610D1*
X2922366Y2311329D1*
X2913457Y2313468D1*
X2904992Y2316974D1*
X2897179Y2321762D1*
X2890212Y2327712D1*
X2884262Y2334679D1*
X2881513Y2338851D1*
X2875900Y2331079D1*
X2869421Y2324600D1*
X2862009Y2319215D1*
X2853845Y2315055D1*
X2845131Y2312224D1*
X2836081Y2310790D1*
X2826919D1*
X2817869Y2312224D1*
X2809155Y2315055D1*
X2800991Y2319215D1*
X2793579Y2324600D1*
X2787100Y2331079D1*
X2781715Y2338491D1*
X2777555Y2346655D1*
X2774724Y2355369D1*
X2773290Y2364419D1*
Y2373581D1*
X2774724Y2382631D1*
X2775224Y2384406D1*
X2687824Y2384390D1*
X2689171Y2378134D1*
X2689890Y2369000D1*
X2689171Y2359866D1*
X2687032Y2350957D1*
X2683526Y2342492D1*
X2678738Y2334679D1*
X2672788Y2327712D1*
X2665821Y2321762D1*
X2658008Y2316974D1*
X2649543Y2313468D1*
X2640634Y2311329D1*
X2631500Y2310610D1*
X2622366Y2311329D1*
X2613457Y2313468D1*
X2604992Y2316974D1*
X2597179Y2321762D1*
X2590212Y2327712D1*
X2584262Y2334679D1*
X2581513Y2338851D1*
X2575900Y2331079D1*
X2569421Y2324600D1*
X2562009Y2319215D1*
X2553845Y2315055D1*
X2545131Y2312224D1*
X2536081Y2310790D1*
X2526919D1*
X2517869Y2312224D1*
X2509155Y2315055D1*
X2500991Y2319215D1*
X2493579Y2324600D1*
X2487100Y2331079D1*
X2481513Y2338851D1*
X2475900Y2331079D1*
X2469421Y2324600D1*
X2462009Y2319215D1*
X2453845Y2315055D1*
X2445131Y2312224D1*
X2436081Y2310790D1*
X2426919D1*
X2417869Y2312224D1*
X2409155Y2315055D1*
X2400991Y2319215D1*
X2393579Y2324600D1*
X2387100Y2331079D1*
X2381513Y2338851D1*
X2375900Y2331079D1*
X2369421Y2324600D1*
X2362009Y2319215D1*
X2353845Y2315055D1*
X2345131Y2312224D1*
X2336081Y2310790D1*
X2326919D1*
X2317869Y2312224D1*
X2309155Y2315055D1*
X2300991Y2319215D1*
X2293579Y2324600D1*
X2287100Y2331079D1*
X2281513Y2338851D1*
X2275900Y2331079D1*
X2269421Y2324600D1*
X2262009Y2319215D1*
X2253845Y2315055D1*
X2245131Y2312224D1*
X2236081Y2310790D1*
X2226919D1*
X2217869Y2312224D1*
X2209155Y2315055D1*
X2200991Y2319215D1*
X2193579Y2324600D1*
X2187100Y2331079D1*
X2181513Y2338851D1*
X2175900Y2331079D1*
X2169421Y2324600D1*
X2162009Y2319215D1*
X2153845Y2315055D1*
X2145131Y2312224D1*
X2136081Y2310790D1*
X2126919D1*
X2117869Y2312224D1*
X2109155Y2315055D1*
X2100991Y2319215D1*
X2093579Y2324600D1*
X2087100Y2331079D1*
X2081513Y2338851D1*
X2075900Y2331079D1*
X2069421Y2324600D1*
X2062009Y2319215D1*
X2053845Y2315055D1*
X2045131Y2312224D1*
X2036081Y2310790D1*
X2026919D1*
X2017869Y2312224D1*
X2009155Y2315055D1*
X2000991Y2319215D1*
X1993579Y2324600D1*
X1987100Y2331079D1*
X1981513Y2338851D1*
X1975900Y2331079D1*
X1969421Y2324600D1*
X1962009Y2319215D1*
X1953845Y2315055D1*
X1945131Y2312224D1*
X1936081Y2310790D1*
X1926919D1*
X1917869Y2312224D1*
X1909155Y2315055D1*
X1900991Y2319215D1*
X1893579Y2324600D1*
X1887100Y2331079D1*
X1881513Y2338851D1*
X1875900Y2331079D1*
X1869421Y2324600D1*
X1862009Y2319215D1*
X1860024Y2318103D1*
X1884011Y2318011D1*
X1888970Y2317226D1*
X1893746Y2315674D1*
X1898220Y2313395D1*
X1902282Y2310443D1*
X1905833Y2306892D1*
X1908785Y2302830D1*
X1911064Y2298356D1*
X1912616Y2293580D1*
X1913401Y2288621D1*
X1913500Y2282629D1*
X1929654Y2282606D1*
Y2180393D1*
X1833347D1*
Y2254135D1*
X1827685Y2236281D1*
Y2115130D1*
X1871511Y2115055D1*
X1876470Y2114270D1*
X1881246Y2112718D1*
X1885720Y2110439D1*
X1889782Y2107487D1*
X1893333Y2103936D1*
X1896285Y2099874D1*
X1898564Y2095400D1*
X1900116Y2090624D1*
X1900901Y2085665D1*
X1901000Y2079673D1*
X863180Y3537666D2*
X862481Y3531762D1*
X861321Y3525932D1*
X859708Y3520210D1*
X857650Y3514632D1*
X855161Y3509233D1*
X852256Y3504047D1*
X848954Y3499104D1*
X845273Y3494435D1*
X841238Y3490069D1*
X836872Y3486034D1*
X832204Y3482354D1*
X827261Y3479051D1*
X821715Y3475981D1*
X821596Y3458517D1*
X820761Y3453248D1*
X819113Y3448174D1*
X816691Y3443420D1*
X813555Y3439104D1*
X778020Y3403421D1*
X778000Y3332187D1*
X809870Y3332213D1*
Y3180787D1*
X678130D1*
Y3332213D1*
X710031D1*
X710105Y3420152D1*
X710939Y3425421D1*
X712588Y3430495D1*
X715010Y3435249D1*
X718146Y3439565D1*
X753680Y3475248D1*
X753328Y3476146D1*
X748141Y3479051D1*
X743198Y3482354D1*
X738529Y3486034D1*
X734164Y3490069D1*
X730128Y3494435D1*
X726448Y3499104D1*
X723145Y3504047D1*
X720240Y3509233D1*
X717751Y3514632D1*
X715694Y3520210D1*
X714080Y3525932D1*
X712920Y3531762D1*
X712222Y3537666D1*
X711988Y3543606D1*
X712222Y3549547D1*
X712920Y3555450D1*
X714080Y3561281D1*
X715694Y3567003D1*
X717751Y3572580D1*
X720240Y3577979D1*
X723145Y3583166D1*
X726448Y3588109D1*
X730128Y3592778D1*
X734164Y3597143D1*
X738529Y3601179D1*
X743198Y3604859D1*
X748141Y3608162D1*
X753328Y3611067D1*
X758727Y3613556D1*
X764304Y3615613D1*
X770026Y3617227D1*
X775857Y3618387D1*
X781760Y3619086D1*
X787701Y3619319D1*
X793641Y3619086D1*
X799545Y3618387D1*
X805376Y3617227D1*
X811097Y3615613D1*
X816675Y3613556D1*
X822074Y3611067D1*
X827261Y3608162D1*
X832204Y3604859D1*
X836872Y3601179D1*
X841238Y3597143D1*
X845273Y3592778D1*
X848954Y3588109D1*
X852256Y3583166D1*
X855161Y3577979D1*
X857650Y3572580D1*
X859708Y3567003D1*
X861321Y3561281D1*
X862481Y3555450D1*
X863180Y3549547D1*
X863413Y3543606D1*
X863180Y3537666D1*
X1114876Y3619319D2*
X1224932D1*
X1224258Y3624171D1*
Y3631467D1*
X1225399Y3638674D1*
X1227654Y3645614D1*
X1230966Y3652115D1*
X1235255Y3658018D1*
X1240415Y3663178D1*
X1246318Y3667467D1*
X1252819Y3670779D1*
X1259759Y3673034D1*
X1266966Y3674176D1*
X1274263D1*
X1281469Y3673034D1*
X1288409Y3670779D1*
X1294910Y3667467D1*
X1300814Y3663178D1*
X1305973Y3658018D1*
X1310262Y3652115D1*
X1313575Y3645614D1*
X1315829Y3638674D1*
X1316971Y3631467D1*
Y3624171D1*
X1315829Y3616964D1*
X1313575Y3610024D1*
X1310262Y3603523D1*
X1305973Y3597620D1*
X1300814Y3592460D1*
X1294910Y3588171D1*
X1288409Y3584858D1*
X1281469Y3582604D1*
X1274263Y3581462D1*
X1266966D1*
X1259759Y3582604D1*
X1257110Y3583351D1*
X1257114Y3467894D1*
X1105689D1*
Y3619319D1*
X1114876D1*
X3189679D2*
X3331918D1*
Y3467893D1*
X3180492D1*
Y3619319D1*
X3189679D1*
X3725385Y3537666D2*
X3724686Y3531762D1*
X3723526Y3525932D1*
X3721912Y3520210D1*
X3719855Y3514632D1*
X3717366Y3509233D1*
X3714461Y3504047D1*
X3711158Y3499104D1*
X3707478Y3494435D1*
X3703442Y3490069D1*
X3699077Y3486034D1*
X3694408Y3482354D1*
X3689465Y3479051D1*
X3684278Y3476146D1*
X3678879Y3473657D1*
X3673302Y3471599D1*
X3667580Y3469986D1*
X3661750Y3468826D1*
X3655846Y3468127D1*
X3649906Y3467894D1*
X3643965Y3468127D1*
X3638061Y3468826D1*
X3632231Y3469986D1*
X3626509Y3471599D1*
X3620932Y3473657D1*
X3615533Y3476146D1*
X3610346Y3479051D1*
X3605403Y3482354D1*
X3600734Y3486034D1*
X3596369Y3490069D1*
X3592333Y3494435D1*
X3588653Y3499104D1*
X3585350Y3504047D1*
X3582445Y3509233D1*
X3579956Y3514632D1*
X3577899Y3520210D1*
X3576285Y3525932D1*
X3575125Y3531762D1*
X3574426Y3537666D1*
X3574193Y3543606D1*
X3574426Y3549547D1*
X3575125Y3555450D1*
X3576285Y3561281D1*
X3577899Y3567003D1*
X3579956Y3572580D1*
X3582445Y3577979D1*
X3585350Y3583166D1*
X3588653Y3588109D1*
X3592333Y3592778D1*
X3596369Y3597143D1*
X3600734Y3601179D1*
X3605403Y3604859D1*
X3610346Y3608162D1*
X3615533Y3611067D1*
X3620932Y3613556D1*
X3626509Y3615613D1*
X3632231Y3617227D1*
X3638061Y3618387D1*
X3643965Y3619086D1*
X3649906Y3619319D1*
X3655846Y3619086D1*
X3661750Y3618387D1*
X3667580Y3617227D1*
X3673302Y3615613D1*
X3678879Y3613556D1*
X3684278Y3611067D1*
X3689465Y3608162D1*
X3694408Y3604859D1*
X3699077Y3601179D1*
X3703442Y3597143D1*
X3707478Y3592778D1*
X3711158Y3588109D1*
X3714461Y3583166D1*
X3717366Y3577979D1*
X3719855Y3572580D1*
X3721912Y3567003D1*
X3723526Y3561281D1*
X3724686Y3555450D1*
X3725385Y3549547D1*
X3725618Y3543606D1*
X3725385Y3537666D1*
X2672159Y2275027D2*
X2775028D1*
Y2253748D1*
X2779383Y2258617D1*
X2786068Y2264327D1*
X2793564Y2268921D1*
X2801687Y2272285D1*
X2810235Y2274338D1*
X2819000Y2275028D1*
X2827765Y2274338D1*
X2836313Y2272285D1*
X2844436Y2268921D1*
X2851932Y2264327D1*
X2858617Y2258617D1*
X2864327Y2251932D1*
X2868921Y2244436D1*
X2872285Y2236313D1*
X2874338Y2227765D1*
X2875028Y2219000D1*
X2874338Y2210235D1*
X2872285Y2201687D1*
X2868921Y2193564D1*
X2864327Y2186068D1*
X2858617Y2179383D1*
X2851932Y2173673D1*
X2844436Y2169079D1*
X2836313Y2165715D1*
X2827765Y2163662D1*
X2819000Y2162972D1*
X2810235Y2163662D1*
X2801687Y2165715D1*
X2793564Y2169079D1*
X2786068Y2173673D1*
X2779383Y2179383D1*
X2775024Y2184354D1*
X2775028Y2162972D1*
X2662973D1*
Y2275027D1*
X2672159D1*
X3601007Y2678669D2*
X3608295D1*
Y2609090D1*
X3692239Y2609122D1*
X3692205Y2678669D1*
X3719800D1*
X3719932Y2691427D1*
X3672815Y2691417D1*
Y2831514D1*
X3666685Y2831087D1*
X3659411Y2831659D1*
X3652316Y2833363D1*
X3645574Y2836155D1*
X3639353Y2839968D1*
X3633805Y2844707D1*
X3632982Y2845597D1*
X3627679Y2845587D1*
X3627685Y2683346D1*
X3601023D1*
D25*
X756500Y2544000D3*
X563587D3*
D26*
X794000Y2744000D3*
X719197D3*
X594000D3*
X519197D3*
D27*
X1056500Y2169000D3*
X989571D3*
D25*
X906500Y3144000D3*
X1099413D3*
D28*
X881500Y2669000D3*
Y2735929D3*
D29*
X656500Y2356500D3*
Y2281697D3*
X544000Y2294000D3*
Y2368803D3*
X769000Y2294000D3*
Y2368803D3*
D27*
X994000Y1994000D3*
X1060929D3*
X1056500Y2081500D3*
X989571D3*
D28*
X3231500Y3239535D3*
Y3306465D3*
X3494000Y3239535D3*
Y3306465D3*
X1381500Y3231500D3*
Y3298429D3*
D27*
X2631500Y2519000D3*
X2698429D3*
D28*
X1381500Y3156500D3*
Y3089571D3*
X1269000Y2031500D3*
Y1964571D3*
X1481500Y2031500D3*
Y1964571D3*
X1669000Y2031500D3*
Y1964571D3*
X1869000Y2031500D3*
Y1964571D3*
D30*
X994000Y2306500D3*
X901480D3*
D32*
X1094000Y2906500D3*
X1247538D3*
D33*
X3194000Y3019000D3*
Y2926480D3*
D125*
X2594000Y1969000D3*
Y2102858D3*
D33*
X1269000Y2231500D3*
Y2138980D3*
X3394000Y3019000D3*
Y2926480D3*
X1469000Y2231500D3*
Y2138980D3*
D125*
X3181500Y1944000D3*
Y2077858D3*
D33*
X3594000Y3031500D3*
Y2938980D3*
X1681500Y2231500D3*
Y2138980D3*
D125*
X3806500Y1956500D3*
Y2090358D3*
D33*
X1881500Y2231500D3*
Y2138980D3*
X3794000Y3031500D3*
Y2938980D3*
D128*
X3806500Y2206500D3*
Y2340358D3*
D35*
X1431500Y2969000D3*
D36*
X1531500D3*
X1631500D3*
X1731500D3*
X1831500D3*
X1931500D3*
X2031500D3*
X2131500D3*
X2231500D3*
X2331500D3*
X2431500D3*
X2531500D3*
X2631500D3*
X2731500D3*
X2831500D3*
X2931500D3*
D35*
X1431500Y2369000D3*
D36*
X1531500D3*
X1631500D3*
X1731500D3*
X1831500D3*
X1931500D3*
X2031500D3*
X2131500D3*
X2231500D3*
X2331500D3*
X2431500D3*
X2531500D3*
X2631500D3*
X2731500D3*
X2831500D3*
X2931500D3*
D37*
X590850Y3543606D3*
D38*
X787701D3*
X984551D3*
D37*
X1181402D3*
D38*
X1378252D3*
X1575102D3*
D37*
X1771953D3*
D38*
X1968803D3*
X2165654D3*
D37*
X2665654D3*
D38*
X2862504D3*
X3059354D3*
D37*
X3256205D3*
D38*
X3453055D3*
X3649906D3*
D37*
X3846756D3*
D38*
X4043606D3*
X4240457D3*
D37*
X984551Y661717D3*
D38*
X787701D3*
X590850D3*
D37*
X1575102D3*
D38*
X1378252D3*
X1181402D3*
D37*
X2165654D3*
D38*
X1968803D3*
X1771953D3*
D37*
X3059354D3*
D38*
X2862504D3*
X2665654D3*
D37*
X3649906D3*
D38*
X3453055D3*
X3256205D3*
D37*
X4240457D3*
D38*
X4043606D3*
X3846756D3*
D39*
X2719000Y2219000D3*
D40*
X2819000D3*
X2919000D3*
X3019000D3*
X3119000D3*
X3219000D3*
X3319000D3*
X3419000D3*
X3519000D3*
X3619000D3*
D41*
X856500Y1006500D3*
D42*
Y1106500D3*
D41*
X1281500Y1006500D3*
D42*
Y1106500D3*
D41*
X1694000Y1006500D3*
D42*
Y1106500D3*
D41*
X2106500Y1019000D3*
D42*
Y1119000D3*
D43*
X3031500Y2031500D3*
D44*
X2731500D3*
D43*
X3031500Y1287406D3*
X2731500Y1161421D3*
X3031500Y1035437D3*
X3644000Y2031500D3*
D44*
X3344000D3*
D43*
X3644000Y1287406D3*
X3344000Y1161421D3*
X3644000Y1035437D3*
X4269000Y2019000D3*
D131*
X3969000D3*
D43*
X4269000Y1274906D3*
X3969000Y1148921D3*
X4269000Y1022937D3*
X3969000Y2219000D3*
D44*
X4269000D3*
D43*
X3969000Y2963094D3*
X4269000Y3089079D3*
X3969000Y3215063D3*
D45*
X994000Y2906500D3*
X875890D3*
D47*
X3231500Y2631500D3*
X3156697D3*
X3194098Y2540949D3*
X3569000Y2631500D3*
X3494197D3*
X3531598Y2540949D3*
X3731500Y2631500D3*
X3656697D3*
X3694098Y2540949D3*
X3406500Y2631500D3*
X3331697D3*
X3369098Y2540949D3*
D28*
X906500Y2406500D3*
Y2473429D3*
D27*
X1156500Y2306500D3*
X1089571D3*
D28*
X994000Y2406500D3*
Y2473429D3*
X1081500Y2406500D3*
Y2473429D3*
X1169000Y2406500D3*
Y2473429D3*
X1181500Y2731500D3*
Y2798429D3*
X1281500Y2794000D3*
Y2727071D3*
X2131500Y2831500D3*
Y2764571D3*
X3319000Y3239535D3*
Y3306465D3*
X3406500D3*
Y3239535D3*
D27*
X1869000Y3294000D3*
X1802071D3*
D28*
X2019000Y2769000D3*
Y2835929D3*
X3669000Y3239535D3*
Y3306465D3*
X3581500Y3306500D3*
Y3239571D3*
D48*
X519000Y1419000D3*
X629236D3*
D49*
X744000Y1431500D3*
Y1541736D3*
D28*
X1169000Y1969000D3*
Y2035929D3*
X3106500Y3019000D3*
Y2952071D3*
X856500Y1256500D3*
Y1323429D3*
X1169000Y2219000D3*
Y2152071D3*
X3319000Y2731500D3*
Y2798429D3*
D48*
X944000Y1419000D3*
X1054236D3*
D49*
X1181500Y1431500D3*
Y1541736D3*
D28*
X1369000Y1969000D3*
Y2035929D3*
X1281500Y1231500D3*
Y1298429D3*
X1369000Y2219000D3*
Y2152071D3*
X3294000Y3019000D3*
Y2952071D3*
X3581500Y2731500D3*
Y2798429D3*
D48*
X1369000Y1419000D3*
X1479236D3*
D49*
X1594000D3*
Y1529236D3*
D28*
X1581500Y1956500D3*
Y2023429D3*
X1694000Y1256500D3*
Y1323429D3*
X1581500Y2219000D3*
Y2152071D3*
X3494000Y3031500D3*
Y2964571D3*
X3719000Y2739571D3*
Y2806500D3*
D48*
X1781500Y1419000D3*
X1891736D3*
D49*
X2006500Y1431500D3*
Y1541736D3*
D28*
X1769000Y1969000D3*
Y2035929D3*
X2119000Y1244000D3*
Y1310929D3*
X1781500Y2206500D3*
Y2139571D3*
X3694000Y3031500D3*
Y2964571D3*
X3456500Y2731500D3*
Y2798429D3*
D50*
X1094000Y2781500D3*
X1044000D3*
X994000D3*
X944000D3*
Y2568902D3*
X994000D3*
X1044000D3*
X1094000D3*
D52*
X544000Y2181500D3*
Y2001972D3*
D53*
X807780Y2091736D3*
D54*
X2869000Y3281500D3*
Y3231500D3*
Y3181500D3*
Y3131500D3*
X3081598D3*
Y3181500D3*
Y3231500D3*
Y3281500D3*
X1694000Y3144000D3*
Y3194000D3*
Y3244000D3*
Y3294000D3*
X1481402D3*
Y3244000D3*
Y3194000D3*
Y3144000D3*
D47*
X1281500Y3294000D3*
X1206697D3*
X1244098Y3203449D3*
D55*
X744000Y2856500D3*
X544000D3*
X744000Y3256500D3*
X544000D3*
Y1306500D3*
X744000D3*
X544000Y906500D3*
X744000D3*
X969000Y1306500D3*
X1169000D3*
X969000Y906500D3*
X1169000D3*
X1381500Y1306500D3*
X1581500D3*
X1381500Y906500D3*
X1581500D3*
X1794000Y1306500D3*
X1994000D3*
X1794000Y906500D3*
X1994000D3*
D56*
X519000Y1531500D3*
X619000D3*
Y1866146D3*
X519000D3*
X944000Y1531500D3*
X1044000D3*
Y1866146D3*
X944000D3*
X1369000Y1531500D3*
X1469000D3*
Y1866146D3*
X1369000D3*
X1794000Y1531500D3*
X1894000D3*
Y1866146D3*
X1794000D3*
M02*
