%TF.GenerationSoftware,Novarm,DipTrace,3.1.0.1*%
%TF.CreationDate,2017-07-10T16:32:14+02:00*%
%FSLAX26Y26*%
%MOIN*%
%TF.FileFunction,Copper,L1,Top*%
%TF.Part,Single*%
%AMOUTLINE0*
4,1,4,
0.031496,0.015748,
0.031496,-0.015748,
-0.031496,-0.015748,
-0.031496,0.015748,
0.031496,0.015748,
0*%
%AMOUTLINE3*
4,1,4,
-0.031496,-0.015748,
-0.031496,0.015748,
0.031496,0.015748,
0.031496,-0.015748,
-0.031496,-0.015748,
0*%
%AMOUTLINE6*5,1,4,0,0,0.108572,-135.0*%
%TA.AperFunction,Conductor*%
%ADD14C,0.011*%
%ADD15C,0.015*%
%ADD16C,0.02*%
%ADD17C,0.085*%
%ADD18C,0.076772*%
%TA.AperFunction,CopperBalancing*%
%ADD19C,0.025*%
%ADD20C,0.013*%
%TA.AperFunction,ComponentPad*%
%ADD25R,0.062992X0.062992*%
%ADD26C,0.062992*%
%ADD27R,0.059055X0.051181*%
%ADD28R,0.043307X0.03937*%
%ADD29R,0.03937X0.043307*%
%ADD30R,0.049213X0.043307*%
%ADD32R,0.082677X0.055118*%
%ADD33R,0.043307X0.049213*%
%TA.AperFunction,ComponentPad*%
%ADD35R,0.06378X0.06378*%
%ADD36C,0.06378*%
%ADD37R,0.098425X0.098425*%
%ADD38C,0.098425*%
%ADD39R,0.059055X0.059055*%
%ADD40C,0.059055*%
%ADD41R,0.066929X0.066929*%
%ADD42C,0.066929*%
%ADD43C,0.076772*%
%ADD44R,0.076772X0.076772*%
%ADD45R,0.106299X0.045276*%
%ADD47R,0.025591X0.041339*%
%ADD48R,0.070866X0.062992*%
%ADD49R,0.023622X0.07874*%
%ADD51R,0.03937X0.108268*%
%ADD52R,0.218504X0.242126*%
%ADD53R,0.07874X0.023622*%
%ADD54R,0.07874X0.098425*%
%ADD55R,0.066929X0.086614*%
%TA.AperFunction,ViaPad*%
%ADD56C,0.04*%
%ADD123OUTLINE0*%
%ADD126OUTLINE3*%
%TA.AperFunction,ComponentPad*%
%ADD129OUTLINE6*%
G75*
G01*
%LPD*%
X3354500Y3069000D2*
D14*
X3456500D1*
X3319000Y3358118D2*
Y3306465D1*
X3649906Y3543606D2*
Y3443165D1*
X3669000Y3424071D1*
Y3306465D1*
X3599724Y3019000D2*
X3669098D1*
X581500Y3294000D2*
D15*
Y3392216D1*
X590850Y3401566D1*
Y3543606D1*
X781500Y3294000D2*
Y3393791D1*
X787701Y3399992D1*
Y3543606D1*
X2506500Y3215000D2*
D14*
X1952874D1*
X1873874Y3294000D1*
X1819000D1*
X2132886Y3144000D2*
X1819000D1*
Y3244000D2*
X1749630D1*
Y3194000D1*
X1819000D1*
X2285500D1*
X2306500Y3173000D1*
Y2981500D1*
X519000Y1791146D2*
D16*
Y1727839D1*
X994000D1*
Y1791146D1*
X1258685Y2769000D2*
X1319000D1*
X3969000Y2219000D2*
Y2478591D1*
X3939000Y2508591D1*
X3802706D1*
X3783686Y2489571D1*
X3744000D1*
X1151972Y1900134D2*
X1410500D1*
X1431500Y1879134D1*
X1468430D1*
X1498429Y1909133D1*
Y2006500D1*
X1968803Y3543606D2*
Y3402477D1*
X1994000Y3377280D1*
Y3306500D1*
X3744000Y1981500D2*
X3806500D1*
X2606500Y2531500D2*
X2706500D1*
X1506500Y3168685D2*
Y3231500D1*
X3356500Y2225413D2*
Y2277071D1*
X1606402Y3144000D2*
X1675776D1*
Y3099311D1*
X3744000Y2237913D2*
Y2289571D1*
X3544000Y2225413D2*
Y2277071D1*
X1151972Y2284866D2*
Y2369000D1*
X1494000Y2094000D2*
X1535654D1*
X1545654Y2104000D1*
Y2181500D1*
X1494000D1*
X1498429Y2006500D2*
Y2094000D1*
X1494000D1*
X1431500Y1879134D2*
Y1791323D1*
X994000Y1791146D2*
Y1870134D1*
X1024000Y1900134D1*
X1151972D1*
X1319000Y2769000D2*
Y2808685D1*
X1380417D1*
X1410417Y2838685D1*
Y3048311D1*
X1440417Y3078311D1*
X1579000D1*
Y3099311D1*
X1519000D1*
Y3119000D1*
X3194000Y1856500D2*
X3469000D1*
X3644000Y2031500D1*
X3031500Y1856500D2*
X3194000D1*
X2839886Y1969000D2*
X2952386Y1856500D1*
X3031500D1*
X2594000Y1969000D2*
X2839886D1*
X1931500Y1791146D2*
Y1697846D1*
X2393154D1*
X2423154Y1727846D1*
Y1939000D1*
X2453154Y1969000D1*
X2594000D1*
X1431500Y1791323D2*
Y1727843D1*
X1790449D1*
X1853752Y1791146D1*
X1931500D1*
X3806500Y1981500D2*
X3870496D1*
Y1819000D1*
X3819000D1*
X1675776Y3099311D2*
X1600000D1*
X1579000Y3078311D1*
X1771953Y3543606D2*
D14*
X1927071Y3388488D1*
Y3306500D1*
X2069000Y2823429D2*
X2027501D1*
X2006500Y2844430D1*
Y2981500D1*
X1956500Y2875091D2*
Y2823429D1*
X1844000Y2910587D2*
Y2823429D1*
X1719000Y2875087D2*
Y2823429D1*
X1431500Y1539984D2*
D15*
Y1456677D1*
X1781500Y1335929D2*
Y1385697D1*
X1836933D1*
X1856933Y1405697D1*
Y1433764D1*
X1781500D1*
X1368035Y1791146D2*
D14*
X1094000D1*
X1819000Y1929846D2*
Y1981500D1*
X1820654Y2100087D2*
X1819000Y2101741D1*
Y2164571D1*
X2268685Y2052091D2*
Y1981500D1*
X2219000D1*
X2184185Y2270654D2*
Y2152071D1*
X2231500D1*
X2219000Y1981500D2*
Y1812146D1*
X2198000Y1791146D1*
X2031500D1*
X1385929Y2769000D2*
X1436110D1*
Y2681500D1*
X1381500D1*
X1656500Y1019000D2*
D15*
Y1306500D1*
X1669000Y1431500D2*
X1656500Y1429457D1*
X1654457Y1431500D1*
X1669000D1*
X1656500Y1306500D2*
Y1429457D1*
X2106500Y1306500D2*
Y1181500D1*
X2256500Y1031500D1*
X2144000Y1431500D2*
X2116067D1*
Y1306500D1*
X2106500D1*
X1331500Y2369000D2*
D16*
Y2453138D1*
X1278528Y3194197D2*
X1219000D1*
X3546870Y3069000D2*
X3669098D1*
X1356500Y3050087D2*
Y2998429D1*
X1031500Y2300890D2*
X788390D1*
X581500Y2094000D1*
X1331500Y2453138D2*
X1107016D1*
Y2300890D1*
X1031500D1*
X1819000Y2231500D2*
D14*
Y2277610D1*
X1840000Y2298610D1*
X1919000D1*
Y2244000D1*
X2031500Y2231500D2*
X2131500D1*
Y2244000D1*
X2031500Y1456500D2*
D15*
Y1341500D1*
X1996500Y1306500D1*
X1906500D1*
X2231500Y2219000D2*
D14*
Y2277610D1*
X2252500Y2298610D1*
X2331500D1*
Y2244000D1*
X3356500Y2344000D2*
Y2398610D1*
X3444000D1*
Y2344000D1*
X3544000D2*
Y2398610D1*
X3644000D1*
Y2344000D1*
X3844000Y2356500D2*
X3895654D1*
Y2326724D1*
X3744000D1*
Y2356500D1*
X2594000Y2102859D2*
X2660141D1*
X2731500Y2031500D1*
X2347382Y2524528D2*
X2318461Y2553449D1*
X2219098D1*
X2731500Y2031500D2*
X2802858Y2102858D1*
X2904115D1*
X2917945Y2089028D1*
X3423000D1*
X3444000Y2110028D1*
Y2251480D1*
X3744000Y2556500D2*
Y2611110D1*
X3844000D1*
Y2556500D1*
X1194000Y1217287D2*
D15*
Y1306500D1*
X1219000Y1431500D2*
X1194000Y1421043D1*
X1204457Y1431500D1*
X1219000D1*
X1194000Y1306500D2*
Y1421043D1*
X869000Y1544000D2*
Y1541736D1*
X744000D1*
X1025201Y2600201D2*
D14*
Y2669571D1*
X989701Y2705071D1*
Y2722429D1*
X1025201Y2757929D1*
Y2812799D1*
X906500Y2927071D2*
X941685D1*
X994000D1*
X1081500D2*
X1116685D1*
X1169000D1*
X1075201Y2812799D2*
Y2752425D1*
X1025201Y2702425D1*
Y2669571D1*
X1081500Y2927071D2*
X1075201D1*
Y2812799D1*
X994000Y2927071D2*
X1081500D1*
X1456500Y1306500D2*
D15*
X1531500D1*
Y1456677D1*
X869000Y1323429D2*
Y1433764D1*
X931933D1*
Y1602996D1*
X554000D1*
X519000Y1567996D1*
Y1456500D1*
X619000D2*
Y1306500D1*
X544000D1*
X1781500Y1544000D2*
X1856933D1*
Y1510236D1*
X1669000D1*
Y1541736D1*
X869000Y1256500D2*
Y1106500D1*
X1331500Y1541736D2*
Y1600732D1*
X1219000D1*
Y1541736D1*
X1331500Y1431500D2*
Y1298429D1*
X1260870D1*
Y1202465D1*
X1225870Y1167465D1*
X1137130D1*
X1102130Y1202465D1*
Y1348213D1*
X1137130Y1383213D1*
X1154965D1*
Y1527307D1*
X994000D1*
Y1456500D1*
X3581500Y3239571D2*
D14*
Y3193035D1*
X3697685D1*
Y3130453D1*
X3723969Y3104169D1*
Y2969000D1*
X3669098D1*
X3697685Y3193035D2*
X3718685Y3214035D1*
Y3239535D1*
X3669000D1*
X744000Y1006500D2*
D15*
Y1306500D1*
Y1431500D1*
X1331500Y1231500D2*
Y1106500D1*
X2256500Y2644000D2*
D14*
Y2735499D1*
X2235499Y2756500D1*
X2069000D1*
X1956500D2*
Y2701173D1*
X1977500Y2680173D1*
X2094000D1*
Y2644000D1*
X1619000Y1864453D2*
Y1981500D1*
X619000Y1864453D2*
Y1791146D1*
X1619000Y1981500D2*
X1573933D1*
Y2164571D1*
X1619000D1*
X1931500Y2644000D2*
Y2694673D1*
X1910500Y2715673D1*
X1844000D1*
Y2756500D1*
X1668685Y1987496D2*
Y1915346D1*
X1689685Y1894346D1*
Y1812323D1*
X1668685Y1791323D1*
X1531500D1*
X1650264Y2334110D2*
X1935154D1*
X1956154Y2313110D1*
Y2185570D1*
X1977153Y2164571D1*
X2031500D1*
X1689685Y1894346D2*
X2010500D1*
X2031500Y1915346D1*
Y1969000D1*
X3406500Y3239535D2*
Y3192756D1*
X3401626Y3187882D1*
X3330000D1*
X3319000Y3198882D1*
Y3040000D1*
X3340000Y3019000D1*
X3456500D1*
X3319000Y3198882D2*
Y3239535D1*
X1769000Y2644000D2*
Y2756500D1*
X1719000D1*
X1781500Y1269000D2*
D15*
Y1119000D1*
X3456500Y2969000D2*
D14*
X3306335D1*
X3289028Y2951693D1*
X3253528D1*
X3231500Y3048004D2*
Y3239535D1*
X3253528Y2951693D2*
Y2912685D1*
X3232528Y2891685D1*
X2673429D1*
Y2856500D1*
X1094000Y3194197D2*
D16*
Y3154791D1*
X1015000D1*
X994000Y3133791D1*
Y3054000D1*
X2168898Y2542783D2*
Y2594122D1*
X2318508D1*
X2368386Y2644000D1*
X1218685Y2729004D2*
X1125201D1*
Y2812799D1*
X994000Y3133791D2*
X951972D1*
X921972Y3163791D1*
Y3206500D1*
X981500D1*
X581500Y2894000D2*
Y2606500D1*
X906500Y2994000D2*
Y3025654D1*
X611500D1*
X581500Y2995654D1*
Y2894000D1*
X994000Y2994000D2*
X946185D1*
X906500D1*
X994000Y3054000D2*
Y2994000D1*
X1081500D2*
X1121185D1*
X1169000D1*
X994000D2*
X1081500D1*
X3669098Y2919000D2*
D14*
X3546870D1*
Y2791685D2*
X2669000D1*
Y2756500D1*
X3546870Y2919000D2*
X3511370Y2954500D1*
Y3087626D1*
X3494000Y3104996D1*
Y3239535D1*
X1619000Y2231500D2*
Y2277610D1*
X1640000Y2298610D1*
X1719000D1*
Y2244000D1*
X3344000Y2031500D2*
X3558496D1*
X3579500Y2052504D1*
Y2230481D1*
X3600499Y2251480D1*
X3644000D1*
X3274528Y2489028D2*
X2077598D1*
X2056598Y2510028D1*
Y2553449D1*
X3344000Y1722642D2*
X3194000D1*
X3969000Y2019000D2*
Y1706142D1*
X3948000Y1685142D1*
X3819000D1*
X2013799Y2502783D2*
X1894098D1*
Y2553449D1*
X3844000Y2161106D2*
Y2263980D1*
X4269000Y2219000D2*
X4165358Y2115358D1*
X3806500D1*
X3718886D1*
X3697886Y2136358D1*
Y2375610D1*
X3718886Y2396610D1*
X3695886Y2419610D1*
X3315291D1*
X3284709Y2389028D1*
X3149067D1*
X3088205Y2449890D1*
X1752598D1*
X1731598Y2470890D1*
Y2553449D1*
X3718886Y2396610D2*
X3823000D1*
X3844000Y2417610D1*
Y2463980D1*
X2269000Y1544000D2*
D15*
X2344433D1*
Y1510236D1*
X2144000D1*
Y1541736D1*
X2269000Y1335929D2*
X2344433D1*
Y1433764D1*
X2379433Y1468764D1*
Y1567996D1*
X2344433Y1602996D1*
X1966500D1*
X1931500Y1567996D1*
Y1456500D1*
X2344433Y1433764D2*
X2269000D1*
Y1269000D2*
Y1204965D1*
X2256500Y1192465D1*
Y1131500D1*
X1094000Y1456500D2*
X1067130D1*
Y1306500D1*
X994000D1*
X1269000Y2927071D2*
D14*
Y2856413D1*
Y2835413D1*
X1239319D1*
X1207063Y2867669D1*
X1175201D1*
Y2812799D1*
X1269000Y2856413D2*
X1290000Y2835413D1*
X1335500D1*
X1356500Y2856413D1*
Y2931500D1*
X1060705Y2669571D2*
X1125201D1*
Y2600201D1*
X1218685Y2903169D2*
X1231500Y2915984D1*
Y3069000D1*
X1031500Y2419000D2*
D16*
X948350D1*
X1031500Y2214063D2*
Y2156500D1*
X948350Y2419000D2*
Y2441638D1*
X968350Y2461638D1*
X1045201D1*
X1075201Y2491638D1*
Y2600201D1*
X2606500Y2856500D2*
D14*
X2331500D1*
X2206500Y2981500D1*
X2602071Y2756500D2*
Y2791685D1*
X2296315D1*
X2106500Y2981500D1*
X2731500Y1161421D2*
D17*
X2656500Y1086421D1*
Y670870D1*
X2665654Y661717D1*
X2862504D2*
Y1118409D1*
X2974305Y1230211D1*
D18*
X3031500Y1287406D1*
X3059354Y661717D2*
D17*
Y926697D1*
X3031500Y954551D1*
D18*
Y1035437D1*
X3256205Y661717D2*
D17*
Y1073626D1*
X3286805Y1104226D1*
D18*
X3344000Y1161421D1*
X3453055Y661717D2*
D17*
Y1096461D1*
X3586805Y1230211D1*
D18*
X3644000Y1287406D1*
X3649906Y661717D2*
D17*
Y948646D1*
X3644000Y954551D1*
D18*
Y1035437D1*
X3846756Y661717D2*
D17*
Y1026677D1*
X3911805Y1091726D1*
D18*
X3969000Y1148921D1*
X4043606Y661717D2*
D17*
Y1049512D1*
X4211805Y1217711D1*
D18*
X4269000Y1274906D1*
X4240457Y661717D2*
D17*
Y913508D1*
X4269000Y942051D1*
D18*
Y1022937D1*
Y3089079D2*
Y3169965D1*
D17*
Y3515063D1*
X4240457Y3543606D1*
X3846756D2*
Y3085339D1*
X3911805Y3020289D1*
D18*
X3969000Y2963094D1*
Y3215063D2*
X4026195Y3272258D1*
D17*
X4044000Y3290063D1*
Y3543213D1*
X4043606Y3543606D1*
X1378252D2*
D14*
Y3469032D1*
X1406500Y3440784D1*
Y3294000D1*
X1615102Y3464390D2*
X1661276Y3418216D1*
Y3244000D1*
X1606402D1*
X1331697Y3294000D2*
Y3433527D1*
X1310693Y3454531D1*
Y3587319D1*
X1331693Y3608319D1*
X1661276D1*
X1682276Y3587319D1*
Y3215000D1*
X1661276Y3194000D1*
X1606402D1*
X1181402Y3433531D2*
X1289693D1*
X1310693Y3454531D1*
X744000Y906500D2*
D15*
Y782130D1*
X787701Y738429D1*
Y661717D1*
X544000Y906500D2*
Y785279D1*
X590850Y738429D1*
Y661717D1*
X994000Y906500D2*
Y813154D1*
X984551Y803705D1*
Y661717D1*
X1194000Y906500D2*
Y751027D1*
X1181402Y738429D1*
Y661717D1*
X1575102Y906500D2*
X1656500D1*
X1456500D2*
Y739965D1*
X1378252Y661717D1*
X2106500Y906500D2*
Y799413D1*
X1968803Y661717D1*
X1906500Y906500D2*
X1806953D1*
X1771953Y871500D1*
Y661717D1*
X1619000Y2048429D2*
D14*
X1654501D1*
X1658930Y2044000D1*
X1719000D1*
Y2095654D1*
X1931500Y2044000D2*
X1969000D1*
Y2095654D1*
X1819000Y2048429D2*
X1824315Y2044000D1*
X1931500D1*
X1819000Y2048429D2*
Y2038685D1*
X1824315Y2044000D1*
X2031500Y2087587D2*
Y2035929D1*
Y2044000D1*
X2119000D1*
X2319000D2*
Y2095654D1*
X2219000D1*
Y2048429D1*
X1606500Y2981500D2*
Y2449890D1*
X1627500Y2428890D1*
X3032890D1*
X3053890Y2407890D1*
Y2284110D1*
X3194000Y2144000D1*
X3406500Y3306465D2*
D16*
Y3378118D1*
X3426500Y3358118D1*
X3494000D1*
X3581500D1*
Y3306500D1*
X1446776Y1940134D2*
X1431500Y1955410D1*
Y2006500D1*
X1575102Y3543606D2*
Y3458693D1*
X1506500Y3390091D1*
Y3298429D1*
X2806500Y2381500D2*
X2576484Y2151484D1*
X2383154D1*
X3194000Y2744000D2*
X2855087D1*
X881500Y2094000D2*
X1001500D1*
X1031500Y2064000D1*
Y2002962D1*
X3406500Y3378118D2*
Y3398118D1*
X1094000Y3269000D2*
Y3311303D1*
X935339D1*
X921972D1*
Y3281303D1*
X981500D1*
X1719000Y2151480D2*
X1750655D1*
X1770654Y2131481D1*
Y2112913D1*
X2119000Y1925413D2*
Y1977071D1*
X1369098Y3203449D2*
X1411897D1*
X1452071Y3163275D1*
Y3119000D1*
X1506500Y3298429D2*
X1546500D1*
Y3294000D1*
X1606402D1*
X2181697Y2644000D2*
X2138898D1*
Y2624122D1*
X2108898Y2594122D1*
X2019197D1*
Y2644000D1*
X3387126Y2866189D2*
X3456500D1*
Y2919000D1*
X1919000Y2096874D2*
Y2151480D1*
X2319000Y1925413D2*
Y1977071D1*
X1931500D2*
X1877350D1*
X1112913Y3069000D2*
X1164571D1*
X1427071Y2094000D2*
X1382721D1*
X1371500Y2105221D1*
Y2231185D1*
X1405110D1*
X1426110Y2252185D1*
Y2594122D1*
X781500Y2973213D2*
Y2894000D1*
X3494000Y3358118D2*
Y3306465D1*
X1288980Y2681500D2*
X1264374D1*
Y2669571D1*
X1175201D1*
Y2600201D1*
X1426110Y2594122D2*
X1318985D1*
X1288980Y2624127D1*
Y2681500D1*
X1427071Y2181500D2*
Y2231181D1*
X1426110Y2232142D1*
Y2252185D1*
X1431500Y2006500D2*
X1427071D1*
Y2094000D1*
X935339Y3311303D2*
Y3332303D1*
X984551Y3381515D1*
Y3543606D1*
X1219000Y3269000D2*
Y3259000D1*
X1094000D1*
Y3269000D1*
X1369098Y3203449D2*
X1333902D1*
X1268528Y3268823D1*
Y3269000D1*
X1219000D1*
X1506500Y3298429D2*
X1439295D1*
Y3244122D1*
X1369098D1*
Y3203449D1*
X2383154Y2151484D2*
X2331500Y2151480D1*
X2855087Y2524528D2*
X2848115Y2531500D1*
X2773429D1*
X2855087Y2744000D2*
Y2524528D1*
X1241736Y2105220D2*
X1371500Y2105221D1*
X1031500Y2002962D2*
X1165430D1*
X1241736Y2079268D1*
Y2105220D1*
X3406500Y3398118D2*
X3261500D1*
X3231500Y3368118D1*
Y3306465D1*
X1770654Y2112913D2*
Y1977071D1*
X1719000D1*
X2119000D2*
X2158685D1*
Y2085654D1*
X2131500D1*
Y2151480D1*
X1283154Y3119000D2*
Y3061185D1*
X1308685Y3035654D1*
Y2994000D1*
X1269000D1*
X1452071Y3119000D2*
X1283154D1*
X1694197Y2644000D2*
X1662000D1*
X1642000Y2624000D1*
Y2594122D1*
X1856697Y2644000D2*
X1813898D1*
Y2596225D1*
X1811795Y2594122D1*
X1694197D1*
Y2644000D1*
X2019197D2*
X1982000D1*
Y2624122D1*
X1952000Y2594122D1*
X1856697D1*
Y2644000D1*
D56*
X1270614Y3627819D3*
X3354500Y3069000D3*
X3319000Y3358118D3*
X3599724Y3019000D3*
X2506500Y3215000D3*
X2132886Y3144000D3*
X1151972Y1900134D3*
X3031500Y1856500D3*
X2606500Y2531500D3*
X1506500Y3168685D3*
X1258685Y2769000D3*
X3356500Y2225413D3*
X2839886Y1969000D3*
X3744000Y1981500D3*
X1675776Y3099311D3*
X3744000Y2237913D3*
X3544000Y2225413D3*
X1151972Y2284866D3*
X1956500Y2875091D3*
X1844000Y2910587D3*
X1719000Y2875087D3*
X1431500Y1539984D3*
X1856933Y1433764D3*
X1820654Y2100087D3*
X1368035Y1791146D3*
X1819000Y1929846D3*
X2268685Y2052091D3*
X2184185Y2270654D3*
X1656500Y1019000D3*
X1278528Y3194197D3*
X3546870Y3069000D3*
X1331500Y2453138D3*
X1356500Y3050087D3*
X2347382Y2524528D3*
X1194000Y1217287D3*
X744000Y1006500D3*
X619000Y1864453D3*
X1619000D3*
X1650264Y2334110D3*
X1668685Y1987496D3*
X3231500Y3048004D3*
X3253528Y2951693D3*
X2368386Y2644000D3*
X2168898Y2542783D3*
X994000Y3054000D3*
X1218685Y2729004D3*
X3546870Y2791685D3*
Y2919000D3*
X3274528Y2489028D3*
X3344000Y1722642D3*
X2013799Y2502783D3*
X3844000Y2161106D3*
X1218685Y2903169D3*
X1060705Y2669571D3*
X1031500Y2214063D3*
X948350Y2419000D3*
X1615102Y3464390D3*
X1181402Y3433531D3*
X1575102Y906500D3*
X1719000Y2095654D3*
X1969000D3*
X2031500Y2087587D3*
X2319000Y2095654D3*
X2855087Y2744000D3*
X1446776Y1940134D3*
X1642000Y2594122D3*
X1283154Y3119000D3*
X3387126Y2866189D3*
X2383154Y2151484D3*
X1919000Y2096874D3*
X1426110Y2594122D3*
X2319000Y1925413D3*
X3406500Y3398118D3*
X2855087Y2524528D3*
X1877350Y1977071D3*
X1112913Y3069000D3*
X1770654Y2112913D3*
X2119000Y1925413D3*
X781500Y2973213D3*
X496290Y3706631D2*
D19*
X3716166D1*
X496147Y3681762D2*
X3715879D1*
X495967Y3656894D2*
X1231832D1*
X1309390D2*
X3715556D1*
X495824Y3632025D2*
X1221821D1*
X1680468D2*
X3715233D1*
X676070Y3607156D2*
X732253D1*
X843147D2*
X1106202D1*
X1847151D2*
X1930964D1*
X2006620D2*
X2122011D1*
X2209294D2*
X2587429D1*
X2743860D2*
X2824660D1*
X2900351D2*
X3021520D1*
X3097176D2*
X3180990D1*
X3331428D2*
X3612066D1*
X3687722D2*
X3714910D1*
X676070Y3582287D2*
X712086D1*
X863314D2*
X1106202D1*
X1847151D2*
X1904733D1*
X2032887D2*
X2098077D1*
X2233228D2*
X2587429D1*
X2743860D2*
X2798428D1*
X2926583D2*
X2995289D1*
X3123408D2*
X3180990D1*
X3331428D2*
X3585835D1*
X676070Y3557419D2*
X703653D1*
X871747D2*
X1106202D1*
X1452137D2*
X1650780D1*
X1847151D2*
X1894900D1*
X2042683D2*
X2088711D1*
X2242594D2*
X2587429D1*
X2743860D2*
X2788632D1*
X2936379D2*
X2985457D1*
X3133240D2*
X3180990D1*
X3331428D2*
X3576003D1*
X676070Y3532550D2*
X703222D1*
X872177D2*
X1106202D1*
X1452604D2*
X1650780D1*
X1847151D2*
X1894434D1*
X2043186D2*
X2088244D1*
X2243061D2*
X2587429D1*
X2743860D2*
X2788129D1*
X2936882D2*
X2984990D1*
X3133706D2*
X3180990D1*
X3331428D2*
X3575536D1*
X676070Y3507681D2*
X710686D1*
X864713D2*
X1106202D1*
X1443956D2*
X1608329D1*
X1621866D2*
X1650780D1*
X1851385D2*
X1903082D1*
X2034538D2*
X2096498D1*
X2234807D2*
X2587429D1*
X2743860D2*
X2796778D1*
X2928233D2*
X2993638D1*
X3125058D2*
X3180990D1*
X3331428D2*
X3584184D1*
X676070Y3482812D2*
X729131D1*
X846269D2*
X1106202D1*
X1420631D2*
X1573199D1*
X1876253D2*
X1926407D1*
X2011177D2*
X2118028D1*
X2213277D2*
X2587429D1*
X2743860D2*
X2820102D1*
X2904909D2*
X3016963D1*
X3101733D2*
X3180990D1*
X3331428D2*
X3607509D1*
X494819Y3457944D2*
X547341D1*
X634337D2*
X744202D1*
X831197D2*
X1142911D1*
X1432365D2*
X1569574D1*
X1713769D2*
X1814089D1*
X1901120D2*
X1932794D1*
X2004790D2*
X3618418D1*
X494676Y3433075D2*
X547341D1*
X634337D2*
X744202D1*
X831197D2*
X1135411D1*
X1437999D2*
X1582421D1*
X1713769D2*
X1838957D1*
X2004790D2*
X3620212D1*
X494496Y3408206D2*
X541241D1*
X634337D2*
X740614D1*
X831197D2*
X1143521D1*
X1437999D2*
X1627778D1*
X1713769D2*
X1863825D1*
X2012935D2*
X3637508D1*
X494353Y3383337D2*
X538012D1*
X630067D2*
X737994D1*
X827681D2*
X1300192D1*
X1437999D2*
X1629788D1*
X1713769D2*
X1888692D1*
X2029442D2*
X3281071D1*
X3356942D2*
X3637508D1*
X656872Y3358469D2*
X706129D1*
X856855D2*
X1300192D1*
X1437999D2*
X1629788D1*
X1713769D2*
X1895582D1*
X2030016D2*
X3272997D1*
X3365016D2*
X3637508D1*
X656872Y3333600D2*
X706129D1*
X856855D2*
X1292907D1*
X1445284D2*
X1460809D1*
X1552183D2*
X1629788D1*
X1713769D2*
X1879434D1*
X2041643D2*
X3185798D1*
X656872Y3308731D2*
X706129D1*
X856855D2*
X925955D1*
X1149526D2*
X1163473D1*
X1274511D2*
X1292907D1*
X1445284D2*
X1460809D1*
X1713769D2*
X1753624D1*
X2041643D2*
X3185798D1*
X656872Y3283862D2*
X706129D1*
X856855D2*
X925955D1*
X1149526D2*
X1163473D1*
X1274511D2*
X1292907D1*
X1445284D2*
X1460809D1*
X1713769D2*
X1753624D1*
X2041643D2*
X3185798D1*
X656872Y3258993D2*
X706129D1*
X856855D2*
X925955D1*
X1149526D2*
X1163473D1*
X1274511D2*
X1292907D1*
X1445284D2*
X1460809D1*
X1952399D2*
X3185798D1*
X493491Y3234125D2*
X506100D1*
X656872D2*
X706129D1*
X856855D2*
X900514D1*
X1149526D2*
X1163473D1*
X1298302D2*
X1330298D1*
X1407892D2*
X1460809D1*
X2548076D2*
X3185798D1*
X493348Y3209256D2*
X886088D1*
X1149526D2*
X1163473D1*
X1407892D2*
X1460809D1*
X2552131D2*
X3185798D1*
X493204Y3184387D2*
X885980D1*
X1149526D2*
X1163473D1*
X1407892D2*
X1463429D1*
X1695181D2*
X1719785D1*
X2335678D2*
X2473102D1*
X2539895D2*
X3200008D1*
X3262997D2*
X3287494D1*
X3436784D2*
X3462501D1*
X3525490D2*
X3551314D1*
X493025Y3159518D2*
X886232D1*
X1149526D2*
X1163473D1*
X1307273D2*
X1330298D1*
X1707956D2*
X1753624D1*
X2176029D2*
X2274986D1*
X2338010D2*
X3200008D1*
X3262997D2*
X3287494D1*
X3410158D2*
X3462501D1*
X3525490D2*
X3666180D1*
X492881Y3134650D2*
X901231D1*
X1123259D2*
X1404435D1*
X1711759D2*
X1753624D1*
X2177859D2*
X2274986D1*
X2338010D2*
X3200008D1*
X3262997D2*
X3287494D1*
X3350483D2*
X3462501D1*
X3525490D2*
X3666180D1*
X492738Y3109781D2*
X926099D1*
X1029996D2*
X1116931D1*
X1279140D2*
X1404435D1*
X1720479D2*
X1753624D1*
X1884362D2*
X2103531D1*
X2162250D2*
X2274986D1*
X2338010D2*
X3200008D1*
X3262997D2*
X3287494D1*
X3372121D2*
X3462501D1*
X3564496D2*
X3674828D1*
X492594Y3084912D2*
X958000D1*
X1029996D2*
X1116931D1*
X1279140D2*
X1327930D1*
X1719331D2*
X2274986D1*
X2338010D2*
X3200008D1*
X3262997D2*
X3287494D1*
X492451Y3060043D2*
X948419D1*
X1039577D2*
X1116931D1*
X1279140D2*
X1311639D1*
X1610602D2*
X1654548D1*
X1696975D2*
X2274986D1*
X2338010D2*
X3187197D1*
X492307Y3035175D2*
X571133D1*
X1564383D2*
X1590315D1*
X1622695D2*
X1690325D1*
X1722668D2*
X1790334D1*
X1822678D2*
X1890307D1*
X1922687D2*
X1990316D1*
X2022660D2*
X2090326D1*
X2122669D2*
X2190335D1*
X2222679D2*
X2274986D1*
X2338010D2*
X2390317D1*
X2422661D2*
X2490327D1*
X2522670D2*
X2681015D1*
X2731983D2*
X2781024D1*
X2831992D2*
X2880998D1*
X2932001D2*
X2981007D1*
X3031975D2*
X3187449D1*
X492164Y3010306D2*
X548884D1*
X2556294D2*
X2653205D1*
X3059785D2*
X3207293D1*
X3255712D2*
X3305185D1*
X492020Y2985437D2*
X545511D1*
X621167D2*
X860826D1*
X2564260D2*
X2645741D1*
X3067249D2*
X3138467D1*
X491877Y2960568D2*
X516122D1*
X646860D2*
X716141D1*
X846879D2*
X860826D1*
X2560277D2*
X2649509D1*
X3063517D2*
X3138467D1*
X491733Y2935699D2*
X516122D1*
X646860D2*
X716141D1*
X846879D2*
X860826D1*
X1640135D2*
X1672849D1*
X1740144D2*
X1772858D1*
X2040136D2*
X2072850D1*
X2340163D2*
X2372842D1*
X2440137D2*
X2472851D1*
X2540146D2*
X2667774D1*
X2745224D2*
X2767783D1*
X2845233D2*
X2867792D1*
X2945207D2*
X2967766D1*
X3045216D2*
X3138467D1*
X3316536D2*
X3391127D1*
X491554Y2910831D2*
X516122D1*
X646860D2*
X716141D1*
X846879D2*
X860826D1*
X1446432D2*
X1574993D1*
X1638017D2*
X1691724D1*
X1746280D2*
X1798013D1*
X2037983D2*
X2133674D1*
X2320678D2*
X2649150D1*
X3284958D2*
X3391127D1*
X491410Y2885962D2*
X516122D1*
X646860D2*
X716141D1*
X846879D2*
X860826D1*
X1446432D2*
X1574993D1*
X1638017D2*
X1674392D1*
X1763612D2*
X1805656D1*
X2037983D2*
X2158541D1*
X2345546D2*
X2558829D1*
X3270317D2*
X3391127D1*
X3577665D2*
X3603741D1*
X491267Y2861093D2*
X516122D1*
X646860D2*
X716141D1*
X846879D2*
X987389D1*
X1446432D2*
X1574993D1*
X1638017D2*
X1673315D1*
X1764689D2*
X1798300D1*
X2114703D2*
X2183409D1*
X3246706D2*
X3705329D1*
X491123Y2836224D2*
X516122D1*
X646860D2*
X716141D1*
X846879D2*
X987389D1*
X1446324D2*
X1574993D1*
X1638017D2*
X1673315D1*
X1764689D2*
X1798300D1*
X2114703D2*
X2208277D1*
X3248966D2*
X3705006D1*
X490979Y2811356D2*
X545511D1*
X617507D2*
X987389D1*
X1433585D2*
X1574993D1*
X1638017D2*
X1673315D1*
X1764689D2*
X1798300D1*
X2114703D2*
X2233145D1*
X3588179D2*
X3704719D1*
X490836Y2786487D2*
X545511D1*
X617507D2*
X987389D1*
X1461754D2*
X1574993D1*
X1638017D2*
X1673315D1*
X1764689D2*
X1798300D1*
X2002170D2*
X2023330D1*
X2114703D2*
X2258012D1*
X3592557D2*
X3704396D1*
X490692Y2761618D2*
X545511D1*
X617507D2*
X985380D1*
X1467603D2*
X1574993D1*
X1638017D2*
X1673315D1*
X2002170D2*
X2023330D1*
X2273885D2*
X2554416D1*
X2716660D2*
X3512918D1*
X3580823D2*
X3704073D1*
X490549Y2736749D2*
X545511D1*
X617507D2*
X961983D1*
X1467603D2*
X1574993D1*
X1638017D2*
X1673315D1*
X2002170D2*
X2023330D1*
X2287988D2*
X2554416D1*
X2716660D2*
X4366495D1*
X490405Y2711881D2*
X545511D1*
X617507D2*
X958215D1*
X1467603D2*
X1574993D1*
X1638017D2*
X1673315D1*
X2002170D2*
X2023330D1*
X2114703D2*
X2224999D1*
X2287988D2*
X4366495D1*
X490262Y2687012D2*
X545511D1*
X617507D2*
X964495D1*
X1150854D2*
X1204847D1*
X1467603D2*
X1574993D1*
X1638017D2*
X1655409D1*
X2295308D2*
X2359385D1*
X2377375D2*
X3160500D1*
X3227508D2*
X4366495D1*
X490082Y2662143D2*
X545511D1*
X617507D2*
X987389D1*
X1213005D2*
X1238363D1*
X1460211D2*
X1574993D1*
X1638017D2*
X1655409D1*
X2295308D2*
X2326336D1*
X2410425D2*
X3141660D1*
X3246311D2*
X4366495D1*
X489939Y2637274D2*
X524017D1*
X639002D2*
X987389D1*
X1213005D2*
X1238363D1*
X1432114D2*
X1574993D1*
X1638017D2*
X1655409D1*
X2295308D2*
X2311767D1*
X2413869D2*
X3138897D1*
X3249110D2*
X3728977D1*
X3858997D2*
X4366495D1*
X489795Y2612406D2*
X524017D1*
X639002D2*
X987389D1*
X1213005D2*
X1574993D1*
X1638017D2*
X1655409D1*
X2400772D2*
X3148909D1*
X3239098D2*
X3712542D1*
X3875468D2*
X4366495D1*
X489652Y2587537D2*
X524017D1*
X639002D2*
X987389D1*
X1213005D2*
X1574993D1*
X1638017D2*
X1692801D1*
X1770394D2*
X1855320D1*
X1932878D2*
X2017804D1*
X2095397D2*
X2132884D1*
X2361802D2*
X3698332D1*
X3891652D2*
X4366495D1*
X489508Y2562668D2*
X524017D1*
X639002D2*
X987389D1*
X1213005D2*
X1574993D1*
X1638017D2*
X1692801D1*
X1770394D2*
X1855320D1*
X1932878D2*
X2017804D1*
X2095397D2*
X2127717D1*
X2370808D2*
X2573650D1*
X2821083D2*
X3698332D1*
X3891652D2*
X4366495D1*
X489365Y2537799D2*
X987389D1*
X1213005D2*
X1574993D1*
X1638017D2*
X1692801D1*
X1770394D2*
X1855320D1*
X1932878D2*
X1985472D1*
X2095397D2*
X2123195D1*
X2391298D2*
X2560947D1*
X2821083D2*
X3698332D1*
X3957894D2*
X4366495D1*
X489221Y2512930D2*
X1039206D1*
X1111202D2*
X1574993D1*
X1638017D2*
X1692801D1*
X1770394D2*
X1855320D1*
X3313378D2*
X3698332D1*
X3984520D2*
X4366495D1*
X489078Y2488062D2*
X945261D1*
X1111022D2*
X1303062D1*
X1359951D2*
X1574993D1*
X1638017D2*
X1700085D1*
X1763110D2*
X1866624D1*
X3320519D2*
X3698332D1*
X4003647D2*
X4366495D1*
X488934Y2463193D2*
X920214D1*
X1376314D2*
X1574993D1*
X1638017D2*
X1701126D1*
X3312015D2*
X3698332D1*
X3891652D2*
X3933014D1*
X4005010D2*
X4366495D1*
X488791Y2438324D2*
X906865D1*
X1377175D2*
X1445594D1*
X3249217D2*
X3290508D1*
X3720700D2*
X3796332D1*
X3891652D2*
X3933014D1*
X4005010D2*
X4366495D1*
X488611Y2413455D2*
X902703D1*
X1197647D2*
X1285802D1*
X1377175D2*
X1445594D1*
X3875217D2*
X3933014D1*
X4005010D2*
X4366495D1*
X488468Y2388587D2*
X914760D1*
X1197647D2*
X1285802D1*
X1377175D2*
X1445594D1*
X2766970D2*
X2846047D1*
X3891652D2*
X3933014D1*
X4005010D2*
X4366495D1*
X488324Y2363718D2*
X1070999D1*
X1197647D2*
X1285802D1*
X1377175D2*
X1445594D1*
X2764602D2*
X2848379D1*
X4005010D2*
X4366495D1*
X488181Y2338849D2*
X952366D1*
X1197647D2*
X1285802D1*
X1377175D2*
X1445594D1*
X2348883D2*
X2364122D1*
X2448892D2*
X2464131D1*
X2548866D2*
X2568662D1*
X2644354D2*
X2664114D1*
X2748884D2*
X2864132D1*
X2948867D2*
X2964105D1*
X4005010D2*
X4366495D1*
X488037Y2313980D2*
X751594D1*
X1197647D2*
X1285802D1*
X1377175D2*
X1609190D1*
X2358608D2*
X3022381D1*
X4005010D2*
X4366495D1*
X487893Y2289112D2*
X726726D1*
X1197754D2*
X1589885D1*
X1766662D2*
X1789867D1*
X2379169D2*
X3022381D1*
X3891652D2*
X3933014D1*
X4005010D2*
X4366495D1*
X487750Y2264243D2*
X701859D1*
X801629D2*
X952366D1*
X1192767D2*
X1573306D1*
X2263012D2*
X2283849D1*
X2379169D2*
X3030276D1*
X3891652D2*
X3924259D1*
X4013730D2*
X4204622D1*
X4333386D2*
X4366495D1*
X487606Y2239374D2*
X676991D1*
X776761D2*
X993633D1*
X1069361D2*
X1106489D1*
X1376996D2*
X1573306D1*
X2379169D2*
X3055108D1*
X3891652D2*
X3908075D1*
X4029950D2*
X4204622D1*
X4333386D2*
X4366495D1*
X487463Y2214505D2*
X652123D1*
X751893D2*
X985487D1*
X1077507D2*
X1106489D1*
X1553905D2*
X1573306D1*
X2379169D2*
X3079976D1*
X3875504D2*
X3904774D1*
X4033215D2*
X4204622D1*
X4333386D2*
X4366495D1*
X487319Y2189636D2*
X627256D1*
X727026D2*
X964172D1*
X2379169D2*
X3104843D1*
X3611002D2*
X3666395D1*
X3879344D2*
X3912022D1*
X4025967D2*
X4196117D1*
X4333386D2*
X4366495D1*
X487140Y2164768D2*
X602388D1*
X702158D2*
X964172D1*
X2379169D2*
X3129711D1*
X3611002D2*
X3666395D1*
X3889858D2*
X3936675D1*
X4001314D2*
X4171250D1*
X4333386D2*
X4366495D1*
X486996Y2139899D2*
X524017D1*
X677290D2*
X964172D1*
X2379169D2*
X2550074D1*
X2637930D2*
X3138646D1*
X3611002D2*
X3666395D1*
X4233413D2*
X4366495D1*
X486853Y2115030D2*
X524017D1*
X652422D2*
X964172D1*
X1605435D2*
X1671342D1*
X2067767D2*
X2083831D1*
X2379169D2*
X2536510D1*
X2691470D2*
X2771515D1*
X3611002D2*
X3675689D1*
X4208545D2*
X4366495D1*
X486709Y2090161D2*
X524017D1*
X639002D2*
X1106489D1*
X1865523D2*
X1923356D1*
X2077419D2*
X2173326D1*
X2364636D2*
X2536510D1*
X3666228D2*
X3702028D1*
X4182206D2*
X4366495D1*
X486566Y2065293D2*
X524017D1*
X639002D2*
X1106489D1*
X2364672D2*
X2551258D1*
X2636710D2*
X2654210D1*
X3698344D2*
X3905994D1*
X4032031D2*
X4225435D1*
X4312574D2*
X4366495D1*
X486422Y2040424D2*
X524017D1*
X639002D2*
X964172D1*
X2364672D2*
X2667128D1*
X3707746D2*
X3904630D1*
X4033395D2*
X4208426D1*
X4329547D2*
X4366495D1*
X486279Y2015555D2*
X964172D1*
X2364672D2*
X2667128D1*
X3855230D2*
X3904630D1*
X4033395D2*
X4204694D1*
X4333279D2*
X4366495D1*
X486135Y1990686D2*
X964172D1*
X1864698D2*
X1885822D1*
X2364672D2*
X2424981D1*
X4033395D2*
X4211476D1*
X4326533D2*
X4366495D1*
X485992Y1965818D2*
X964172D1*
X1864698D2*
X1885822D1*
X2364672D2*
X2400078D1*
X3628190D2*
X3700915D1*
X4028155D2*
X4234836D1*
X4303136D2*
X4366495D1*
X485848Y1940949D2*
X1134443D1*
X1169514D2*
X1462424D1*
X1864698D2*
X1885822D1*
X2364672D2*
X2387195D1*
X3603323D2*
X3725747D1*
X3762254D2*
X3834512D1*
X3906508D2*
X3937500D1*
X4000489D2*
X4366495D1*
X485669Y1916080D2*
X990081D1*
X2062994D2*
X2187500D1*
X2250489D2*
X2387160D1*
X2459155D2*
X2842925D1*
X3578455D2*
X3834512D1*
X3906508D2*
X3937500D1*
X4000489D2*
X4366495D1*
X485525Y1891211D2*
X582221D1*
X655796D2*
X965464D1*
X2050865D2*
X2187500D1*
X2250489D2*
X2387160D1*
X2459155D2*
X2867792D1*
X3553587D2*
X3834512D1*
X3906508D2*
X3937500D1*
X4000489D2*
X4366495D1*
X485382Y1866343D2*
X573035D1*
X664946D2*
X958000D1*
X2020543D2*
X2187500D1*
X2250489D2*
X2387160D1*
X2459155D2*
X2892660D1*
X3528719D2*
X3834512D1*
X3906508D2*
X3937500D1*
X4000489D2*
X4366495D1*
X678474Y1841474D2*
X934532D1*
X1721197D2*
X1872042D1*
X2090948D2*
X2187500D1*
X2250489D2*
X2387160D1*
X2459155D2*
X2917528D1*
X3503852D2*
X3762493D1*
X3906508D2*
X3937500D1*
X4000489D2*
X4366495D1*
X678474Y1816605D2*
X934532D1*
X1721197D2*
X1829483D1*
X2250489D2*
X2387160D1*
X2459155D2*
X3011652D1*
X3051352D2*
X3761488D1*
X3906400D2*
X3937500D1*
X4000489D2*
X4366495D1*
X678474Y1791736D2*
X934532D1*
X1712621D2*
X1804472D1*
X2242092D2*
X2387160D1*
X2459155D2*
X3764502D1*
X3892477D2*
X3937500D1*
X4000489D2*
X4366495D1*
X678474Y1766867D2*
X934532D1*
X1686784D2*
X1779604D1*
X2216363D2*
X2387160D1*
X2459155D2*
X3937500D1*
X4000489D2*
X4366495D1*
X1153473Y1741999D2*
X1372032D1*
X1854471D2*
X1872042D1*
X2090948D2*
X2387160D1*
X2459155D2*
X3136780D1*
X3385470D2*
X3937500D1*
X4000489D2*
X4366495D1*
X1028238Y1717130D2*
X1397258D1*
X1829603D2*
X1895510D1*
X2457397D2*
X3136493D1*
X3389632D2*
X3768019D1*
X3869978D2*
X3936459D1*
X4000489D2*
X4366495D1*
X484377Y1692261D2*
X1895977D1*
X2437445D2*
X3141625D1*
X3246383D2*
X3310352D1*
X3377647D2*
X3761488D1*
X3996972D2*
X4366495D1*
X484197Y1667392D2*
X1915031D1*
X2409599D2*
X2907014D1*
X535690Y2661496D2*
X548000Y2661618D1*
Y2821267D1*
X518630Y2821287D1*
Y2966712D1*
X548019D1*
X548103Y2998282D1*
X548925Y3003474D1*
X550550Y3008474D1*
X552936Y3013158D1*
X556026Y3017411D1*
X587812Y3049342D1*
X591809Y3052756D1*
X596291Y3055503D1*
X601148Y3057515D1*
X606259Y3058742D1*
X611510Y3059154D1*
X909128Y3059051D1*
X914320Y3058229D1*
X919320Y3056604D1*
X924004Y3054218D1*
X928257Y3051128D1*
X931974Y3047411D1*
X935064Y3043158D1*
X936353Y3040853D1*
X945992Y3039154D1*
X949685D1*
Y3027491D1*
X950815Y3031524D1*
Y3039153D1*
X953148D1*
X951702Y3043845D1*
X950634Y3050587D1*
Y3057413D1*
X951702Y3064155D1*
X953811Y3070647D1*
X956910Y3076729D1*
X960501Y3081717D1*
X960500Y3100326D1*
X949344Y3100394D1*
X944152Y3101217D1*
X939152Y3102841D1*
X934468Y3105227D1*
X930215Y3108317D1*
X898284Y3140103D1*
X894870Y3144100D1*
X892123Y3148582D1*
X890112Y3153439D1*
X888884Y3158550D1*
X888472Y3163791D1*
X888575Y3209128D1*
X889398Y3214320D1*
X891022Y3219320D1*
X893408Y3224004D1*
X896498Y3228257D1*
X900215Y3231974D1*
X904468Y3235064D1*
X909152Y3237450D1*
X914152Y3239074D1*
X919344Y3239897D1*
X928472Y3240087D1*
Y3330394D1*
X1034528D1*
Y3188308D1*
X1040973Y3191038D1*
Y3318090D1*
X1147028D1*
Y3145106D1*
X1126035D1*
X1123849Y3139582D1*
X1121102Y3135100D1*
X1117688Y3131103D1*
X1113691Y3127689D1*
X1109209Y3124942D1*
X1104352Y3122931D1*
X1099241Y3121703D1*
X1094000Y3121291D1*
X1028870D1*
X1027500Y3115418D1*
Y3081723D1*
X1031090Y3076729D1*
X1034189Y3070647D1*
X1036298Y3064155D1*
X1037366Y3057413D1*
Y3050587D1*
X1036298Y3043845D1*
X1034849Y3039143D1*
X1037185Y3039153D1*
Y3027491D1*
X1038315Y3031523D1*
Y3039153D1*
X1119449D1*
X1119418Y3112185D1*
X1276654D1*
Y3039161D1*
X1312185Y3039153D1*
Y2881917D1*
X1298011D1*
X1298000Y2868400D1*
X1308373Y2864413D1*
X1323480D1*
X1327500Y2874786D1*
Y2886376D1*
X1313315Y2886346D1*
Y3043582D1*
X1313000Y3050087D1*
X1313536Y3056892D1*
X1315129Y3063529D1*
X1317741Y3069836D1*
X1321308Y3075656D1*
X1325741Y3080846D1*
X1330931Y3085279D1*
X1336751Y3088846D1*
X1343058Y3091458D1*
X1349695Y3093051D1*
X1356500Y3093587D1*
X1363305Y3093051D1*
X1369942Y3091458D1*
X1376249Y3088846D1*
X1382069Y3085279D1*
X1387259Y3080846D1*
X1391122Y3076379D1*
X1406917Y3092350D1*
Y3162185D1*
X1463492D1*
X1463000Y3168685D1*
X1463536Y3175490D1*
X1465129Y3182127D1*
X1466775Y3186337D1*
X1463315Y3186346D1*
Y3343583D1*
X1549685D1*
Y3329308D1*
X1632273Y3329311D1*
X1632276Y3406232D1*
X1617502Y3420978D1*
X1611689Y3421024D1*
X1604947Y3422092D1*
X1598455Y3424201D1*
X1592373Y3427300D1*
X1586851Y3431312D1*
X1582024Y3436139D1*
X1578012Y3441661D1*
X1574913Y3447743D1*
X1572804Y3454235D1*
X1571736Y3460977D1*
Y3467803D1*
X1572804Y3474545D1*
X1574913Y3481037D1*
X1578012Y3487119D1*
X1582024Y3492641D1*
X1586851Y3497468D1*
X1592373Y3501480D1*
X1598455Y3504579D1*
X1604947Y3506688D1*
X1611689Y3507756D1*
X1618515D1*
X1625257Y3506688D1*
X1631749Y3504579D1*
X1637831Y3501480D1*
X1643353Y3497468D1*
X1648180Y3492641D1*
X1652192Y3487119D1*
X1653281Y3485175D1*
X1653276Y3575313D1*
X1642903Y3579319D1*
X1441557D1*
X1445430Y3571432D1*
X1448956Y3560581D1*
X1450740Y3549311D1*
Y3537901D1*
X1448956Y3526632D1*
X1445430Y3515780D1*
X1440250Y3505614D1*
X1433543Y3496383D1*
X1425475Y3488315D1*
X1416244Y3481609D1*
X1410027Y3478249D1*
X1428552Y3459618D1*
X1431227Y3455936D1*
X1433293Y3451882D1*
X1434699Y3447554D1*
X1435411Y3443059D1*
X1435500Y3358107D1*
Y3338191D1*
X1442795Y3338169D1*
Y3249831D1*
X1370205D1*
Y3338169D1*
X1377489D1*
X1377500Y3428745D1*
X1356200Y3450198D1*
X1353525Y3453880D1*
X1351459Y3457934D1*
X1350053Y3462262D1*
X1349341Y3466757D1*
X1349252Y3469041D1*
X1345241Y3478819D1*
X1339685Y3481993D1*
X1339693Y3466569D1*
X1353749Y3452361D1*
X1356423Y3448680D1*
X1358489Y3444625D1*
X1359896Y3440297D1*
X1360608Y3435802D1*
X1360697Y3350850D1*
Y3338183D1*
X1367992Y3338169D1*
Y3249831D1*
X1295402D1*
Y3338169D1*
X1302686D1*
X1302697Y3407645D1*
X1298655Y3405950D1*
X1294230Y3404888D1*
X1289684Y3404531D1*
X1213798D1*
X1209653Y3400453D1*
X1204131Y3396441D1*
X1198049Y3393342D1*
X1191557Y3391233D1*
X1184815Y3390165D1*
X1177989D1*
X1171247Y3391233D1*
X1164755Y3393342D1*
X1158673Y3396441D1*
X1153151Y3400453D1*
X1148324Y3405280D1*
X1144312Y3410802D1*
X1141213Y3416884D1*
X1139104Y3423376D1*
X1138036Y3430118D1*
Y3436944D1*
X1139104Y3443686D1*
X1141213Y3450178D1*
X1144312Y3456260D1*
X1148324Y3461782D1*
X1153151Y3466609D1*
X1159151Y3470888D1*
X1108689Y3470893D1*
Y3616319D1*
X1225564D1*
X1224258Y3624171D1*
Y3631467D1*
X1225399Y3638674D1*
X1227654Y3645614D1*
X1230966Y3652115D1*
X1235255Y3658018D1*
X1240415Y3663178D1*
X1246318Y3667467D1*
X1252819Y3670779D1*
X1259759Y3673034D1*
X1266966Y3674176D1*
X1274263D1*
X1281469Y3673034D1*
X1288409Y3670779D1*
X1294910Y3667467D1*
X1300814Y3663178D1*
X1305973Y3658018D1*
X1310262Y3652115D1*
X1313575Y3645614D1*
X1315829Y3638674D1*
X1316768Y3633181D1*
X1320595Y3635112D1*
X1324923Y3636518D1*
X1329418Y3637230D1*
X1414370Y3637319D1*
X1663551Y3637230D1*
X1668046Y3636518D1*
X1672374Y3635112D1*
X1676429Y3633046D1*
X1680110Y3630371D1*
X1699265Y3611343D1*
X1699240Y3616319D1*
X1844666D1*
Y3511932D1*
X1935289Y3421282D1*
X1935303Y3479090D1*
X1926064Y3484781D1*
X1917388Y3492191D1*
X1909977Y3500867D1*
X1904016Y3510595D1*
X1899649Y3521137D1*
X1896986Y3532232D1*
X1896091Y3543606D1*
X1896986Y3554981D1*
X1899649Y3566076D1*
X1904016Y3576617D1*
X1909977Y3586346D1*
X1917388Y3595022D1*
X1926064Y3602432D1*
X1935792Y3608394D1*
X1946334Y3612760D1*
X1957428Y3615424D1*
X1968803Y3616319D1*
X1980178Y3615424D1*
X1991273Y3612760D1*
X2001814Y3608394D1*
X2011543Y3602432D1*
X2020219Y3595022D1*
X2027629Y3586346D1*
X2033591Y3576617D1*
X2037957Y3566076D1*
X2040621Y3554981D1*
X2041516Y3543606D1*
X2040621Y3532232D1*
X2037957Y3521137D1*
X2033591Y3510595D1*
X2027629Y3500867D1*
X2020219Y3492191D1*
X2011543Y3484781D1*
X2002300Y3479091D1*
X2002303Y3416325D1*
X2019474Y3399037D1*
X2022564Y3394784D1*
X2024950Y3390100D1*
X2026575Y3385100D1*
X2027397Y3379908D1*
X2027500Y3349685D1*
X2039154D1*
Y3263315D1*
X1945562D1*
X1964894Y3243992D1*
X2474092Y3244000D1*
X2478249Y3248078D1*
X2483771Y3252090D1*
X2489853Y3255189D1*
X2496345Y3257298D1*
X2503087Y3258366D1*
X2509913D1*
X2516655Y3257298D1*
X2523147Y3255189D1*
X2529229Y3252090D1*
X2534751Y3248078D1*
X2539578Y3243251D1*
X2543590Y3237729D1*
X2546689Y3231647D1*
X2548798Y3225155D1*
X2549866Y3218413D1*
Y3211587D1*
X2548798Y3204845D1*
X2546689Y3198353D1*
X2543590Y3192271D1*
X2539578Y3186749D1*
X2534751Y3181922D1*
X2529229Y3177910D1*
X2523147Y3174811D1*
X2516655Y3172702D1*
X2509913Y3171634D1*
X2503087D1*
X2496345Y3172702D1*
X2489853Y3174811D1*
X2483771Y3177910D1*
X2478249Y3181922D1*
X2474120Y3185995D1*
X2332426Y3186000D1*
X2334081Y3181961D1*
X2335143Y3177537D1*
X2335500Y3173000D1*
Y3028710D1*
X2342473Y3023619D1*
X2348619Y3017473D1*
X2353728Y3010441D1*
X2356486Y3005273D1*
X2359272Y3010441D1*
X2364381Y3017473D1*
X2370527Y3023619D1*
X2377559Y3028728D1*
X2385303Y3032673D1*
X2393570Y3035359D1*
X2402154Y3036719D1*
X2410846D1*
X2419430Y3035359D1*
X2427697Y3032673D1*
X2435441Y3028728D1*
X2442473Y3023619D1*
X2448619Y3017473D1*
X2453728Y3010441D1*
X2456486Y3005273D1*
X2459272Y3010441D1*
X2464381Y3017473D1*
X2470527Y3023619D1*
X2477559Y3028728D1*
X2485303Y3032673D1*
X2493570Y3035359D1*
X2502154Y3036719D1*
X2510846D1*
X2519430Y3035359D1*
X2527697Y3032673D1*
X2535441Y3028728D1*
X2542473Y3023619D1*
X2548619Y3017473D1*
X2553728Y3010441D1*
X2557673Y3002697D1*
X2560359Y2994430D1*
X2561719Y2985846D1*
Y2977154D1*
X2560359Y2968570D1*
X2557673Y2960303D1*
X2553728Y2952559D1*
X2548619Y2945527D1*
X2542473Y2939381D1*
X2535441Y2934272D1*
X2527697Y2930327D1*
X2519430Y2927641D1*
X2510846Y2926281D1*
X2502154D1*
X2493570Y2927641D1*
X2485303Y2930327D1*
X2477559Y2934272D1*
X2470527Y2939381D1*
X2464381Y2945527D1*
X2459272Y2952559D1*
X2456514Y2957727D1*
X2453728Y2952559D1*
X2448619Y2945527D1*
X2442473Y2939381D1*
X2435441Y2934272D1*
X2427697Y2930327D1*
X2419430Y2927641D1*
X2410846Y2926281D1*
X2402154D1*
X2393570Y2927641D1*
X2385303Y2930327D1*
X2377559Y2934272D1*
X2370527Y2939381D1*
X2364381Y2945527D1*
X2359272Y2952559D1*
X2356514Y2957727D1*
X2353728Y2952559D1*
X2348619Y2945527D1*
X2342473Y2939381D1*
X2335441Y2934272D1*
X2327697Y2930327D1*
X2319430Y2927641D1*
X2310846Y2926281D1*
X2302748Y2926258D1*
X2343498Y2885514D1*
X2561338Y2885500D1*
X2561347Y2899685D1*
X2645544D1*
X2647590Y2904851D1*
X2649968Y2908731D1*
X2652923Y2912191D1*
X2656383Y2915147D1*
X2660263Y2917524D1*
X2664468Y2919266D1*
X2668893Y2920328D1*
X2673438Y2920685D1*
X3140964D1*
X3140973Y2997027D1*
X3247028D1*
Y2994695D1*
X3253528Y2995193D1*
X3260333Y2994657D1*
X3266970Y2993064D1*
X3273277Y2990452D1*
X3279097Y2986885D1*
X3281513Y2985191D1*
X3287501Y2991052D1*
X3291182Y2993727D1*
X3295237Y2995793D1*
X3299565Y2997199D1*
X3304060Y2997911D1*
X3320007Y2998000D1*
X3296948Y3021166D1*
X3294273Y3024848D1*
X3292207Y3028902D1*
X3290801Y3033230D1*
X3290089Y3037725D1*
X3290000Y3122677D1*
Y3194410D1*
X3275815Y3194382D1*
Y3351618D1*
X3275500Y3358118D1*
X3276036Y3364923D1*
X3277629Y3371560D1*
X3280241Y3377867D1*
X3283808Y3383687D1*
X3288241Y3388877D1*
X3293431Y3393310D1*
X3299251Y3396877D1*
X3305558Y3399489D1*
X3312195Y3401082D1*
X3319000Y3401618D1*
X3325805Y3401082D1*
X3332442Y3399489D1*
X3338749Y3396877D1*
X3344569Y3393310D1*
X3349759Y3388877D1*
X3354192Y3383687D1*
X3357759Y3377867D1*
X3360371Y3371560D1*
X3361964Y3364923D1*
X3362500Y3358118D1*
X3362001Y3351618D1*
X3362185Y3342431D1*
Y3216903D1*
X3363315Y3221941D1*
Y3351618D1*
X3449685D1*
Y3194382D1*
X3435511D1*
X3435143Y3188219D1*
X3434081Y3183794D1*
X3432339Y3179590D1*
X3429962Y3175710D1*
X3426031Y3171275D1*
X3420460Y3165830D1*
X3416778Y3163155D1*
X3412724Y3161089D1*
X3408396Y3159683D1*
X3403901Y3158971D1*
X3347979Y3158882D1*
X3348000Y3112006D1*
X3354500Y3112500D1*
X3361305Y3111964D1*
X3367942Y3110371D1*
X3374249Y3107759D1*
X3380069Y3104192D1*
X3385259Y3099759D1*
X3386880Y3098005D1*
X3393650Y3098000D1*
X3393630Y3104311D1*
X3465004D1*
X3465000Y3194384D1*
X3450815Y3194382D1*
Y3351618D1*
X3537185D1*
Y3194382D1*
X3523011D1*
X3523000Y3116991D1*
X3530662Y3109347D1*
X3536715Y3111298D1*
X3543457Y3112366D1*
X3550283D1*
X3557025Y3111298D1*
X3563517Y3109189D1*
X3569599Y3106090D1*
X3574587Y3102499D1*
X3606258Y3102500D1*
X3606229Y3104311D1*
X3682841D1*
X3675633Y3111619D1*
X3672958Y3115301D1*
X3670892Y3119355D1*
X3669486Y3123683D1*
X3668774Y3128178D1*
X3668685Y3164005D1*
X3579225Y3164124D1*
X3574730Y3164836D1*
X3570402Y3166242D1*
X3566348Y3168308D1*
X3562666Y3170983D1*
X3559448Y3174201D1*
X3556773Y3177883D1*
X3554707Y3181937D1*
X3553301Y3186265D1*
X3552589Y3190760D1*
X3552500Y3193044D1*
X3551194Y3194417D1*
X3538315D1*
Y3351653D1*
X3624685D1*
Y3222035D1*
X3625815Y3231127D1*
Y3351618D1*
X3639989D1*
X3640000Y3412072D1*
X3627854Y3424331D1*
X3625179Y3428013D1*
X3623113Y3432068D1*
X3621707Y3436396D1*
X3620995Y3440890D1*
X3620905Y3476933D1*
X3611913Y3481609D1*
X3602682Y3488315D1*
X3594614Y3496383D1*
X3587908Y3505614D1*
X3582728Y3515780D1*
X3579202Y3526632D1*
X3577417Y3537901D1*
Y3549311D1*
X3579202Y3560581D1*
X3582728Y3571432D1*
X3587908Y3581599D1*
X3594614Y3590829D1*
X3602682Y3598897D1*
X3611913Y3605604D1*
X3622080Y3610784D1*
X3632931Y3614310D1*
X3644201Y3616095D1*
X3655610D1*
X3666880Y3614310D1*
X3677731Y3610784D1*
X3687898Y3605604D1*
X3697129Y3598897D1*
X3705197Y3590829D1*
X3711903Y3581599D1*
X3716943Y3571736D1*
X3718839Y3719031D1*
X493897Y3731452D1*
X482840Y1857922D1*
X575995Y1857953D1*
X575500Y1864453D1*
X576036Y1871258D1*
X577629Y1877895D1*
X580241Y1884202D1*
X583808Y1890022D1*
X588241Y1895212D1*
X593431Y1899645D1*
X599251Y1903212D1*
X605558Y1905824D1*
X612195Y1907417D1*
X619000Y1907953D1*
X625805Y1907417D1*
X632442Y1905824D1*
X638749Y1903212D1*
X644569Y1899645D1*
X649759Y1895212D1*
X654192Y1890022D1*
X657759Y1884202D1*
X660371Y1877895D1*
X661964Y1871258D1*
X662500Y1864453D1*
X662001Y1857953D1*
X675965D1*
Y1761316D1*
X937015Y1761339D1*
X937036Y1857953D1*
X960468D1*
X960603Y1872762D1*
X961425Y1877954D1*
X963050Y1882954D1*
X965436Y1887638D1*
X968526Y1891891D1*
X1000312Y1923822D1*
X1004309Y1927236D1*
X1008791Y1929983D1*
X1013648Y1931995D1*
X1018759Y1933222D1*
X1024000Y1933634D1*
X1124225D1*
X1129243Y1937224D1*
X1135325Y1940323D1*
X1141817Y1942432D1*
X1148559Y1943500D1*
X1155385D1*
X1162127Y1942432D1*
X1168619Y1940323D1*
X1174701Y1937224D1*
X1179689Y1933633D1*
X1413128Y1933531D1*
X1418320Y1932708D1*
X1423320Y1931084D1*
X1428004Y1928698D1*
X1432257Y1925608D1*
X1445378Y1912632D1*
X1454574Y1912634D1*
X1464914Y1922994D1*
X1464929Y1963282D1*
X1386347Y1963315D1*
Y2049685D1*
X1464926D1*
X1464876Y2050815D1*
X1381918D1*
Y2137185D1*
X1512182D1*
X1511595Y2138315D1*
X1381917D1*
Y2224685D1*
X1539154D1*
Y2215032D1*
X1548282Y2214897D1*
X1553474Y2214074D1*
X1558474Y2212450D1*
X1563158Y2210064D1*
X1567411Y2206974D1*
X1571128Y2203257D1*
X1574218Y2199004D1*
X1575507Y2196699D1*
X1575815Y2213905D1*
Y2276653D1*
X1589989D1*
X1590357Y2282147D1*
X1591419Y2286572D1*
X1593161Y2290776D1*
X1595538Y2294656D1*
X1598494Y2298116D1*
X1612627Y2312249D1*
X1610075Y2317463D1*
X1608194Y2323146D1*
X1601919Y2323290D1*
X1592869Y2324724D1*
X1584155Y2327555D1*
X1575991Y2331715D1*
X1568579Y2337100D1*
X1564884Y2340567D1*
X1564890Y2323110D1*
X1448110D1*
Y2439890D1*
X1564890D1*
Y2422486D1*
X1572179Y2428738D1*
X1579992Y2433526D1*
X1581960Y2434433D1*
X1579707Y2438792D1*
X1578301Y2443120D1*
X1577589Y2447615D1*
X1577500Y2532567D1*
Y2934291D1*
X1570527Y2939381D1*
X1564381Y2945527D1*
X1561889Y2948689D1*
X1561890Y2926110D1*
X1451110D1*
Y3036890D1*
X1561890D1*
Y3014318D1*
X1567334Y3020666D1*
X1573943Y3026311D1*
X1581354Y3030853D1*
X1589384Y3034179D1*
X1597835Y3036208D1*
X1606500Y3036890D1*
X1615165Y3036208D1*
X1623616Y3034179D1*
X1631646Y3030853D1*
X1639057Y3026311D1*
X1645666Y3020666D1*
X1651311Y3014057D1*
X1655853Y3006646D1*
X1656486Y3005273D1*
X1659272Y3010441D1*
X1664381Y3017473D1*
X1670527Y3023619D1*
X1677559Y3028728D1*
X1685303Y3032673D1*
X1693570Y3035359D1*
X1702154Y3036719D1*
X1710846D1*
X1719430Y3035359D1*
X1727697Y3032673D1*
X1735441Y3028728D1*
X1742473Y3023619D1*
X1748619Y3017473D1*
X1753728Y3010441D1*
X1756486Y3005273D1*
X1759272Y3010441D1*
X1764381Y3017473D1*
X1770527Y3023619D1*
X1777559Y3028728D1*
X1785303Y3032673D1*
X1793570Y3035359D1*
X1802154Y3036719D1*
X1810846D1*
X1819430Y3035359D1*
X1827697Y3032673D1*
X1835441Y3028728D1*
X1842473Y3023619D1*
X1848619Y3017473D1*
X1853728Y3010441D1*
X1856486Y3005273D1*
X1859272Y3010441D1*
X1864381Y3017473D1*
X1870527Y3023619D1*
X1877559Y3028728D1*
X1885303Y3032673D1*
X1893570Y3035359D1*
X1902154Y3036719D1*
X1910846D1*
X1919430Y3035359D1*
X1927697Y3032673D1*
X1935441Y3028728D1*
X1942473Y3023619D1*
X1948619Y3017473D1*
X1953728Y3010441D1*
X1956486Y3005273D1*
X1959272Y3010441D1*
X1964381Y3017473D1*
X1970527Y3023619D1*
X1977559Y3028728D1*
X1985303Y3032673D1*
X1993570Y3035359D1*
X2002154Y3036719D1*
X2010846D1*
X2019430Y3035359D1*
X2027697Y3032673D1*
X2035441Y3028728D1*
X2042473Y3023619D1*
X2048619Y3017473D1*
X2053728Y3010441D1*
X2056486Y3005273D1*
X2059272Y3010441D1*
X2064381Y3017473D1*
X2070527Y3023619D1*
X2077559Y3028728D1*
X2085303Y3032673D1*
X2093570Y3035359D1*
X2102154Y3036719D1*
X2110846D1*
X2119430Y3035359D1*
X2127697Y3032673D1*
X2135441Y3028728D1*
X2142473Y3023619D1*
X2148619Y3017473D1*
X2153728Y3010441D1*
X2156486Y3005273D1*
X2159272Y3010441D1*
X2164381Y3017473D1*
X2170527Y3023619D1*
X2177559Y3028728D1*
X2185303Y3032673D1*
X2193570Y3035359D1*
X2202154Y3036719D1*
X2210846D1*
X2219430Y3035359D1*
X2227697Y3032673D1*
X2235441Y3028728D1*
X2242473Y3023619D1*
X2248619Y3017473D1*
X2253728Y3010441D1*
X2256486Y3005273D1*
X2259272Y3010441D1*
X2264381Y3017473D1*
X2270527Y3023619D1*
X2277488Y3028680D1*
X2277500Y3160957D1*
X2267127Y3165000D1*
X2170994D1*
X2173075Y3160647D1*
X2175184Y3154155D1*
X2176252Y3147413D1*
Y3140587D1*
X2175184Y3133845D1*
X2173075Y3127353D1*
X2169976Y3121271D1*
X2165964Y3115749D1*
X2161137Y3110922D1*
X2155615Y3106910D1*
X2149533Y3103811D1*
X2143041Y3101702D1*
X2136299Y3100634D1*
X2129473D1*
X2122731Y3101702D1*
X2116239Y3103811D1*
X2110157Y3106910D1*
X2104635Y3110922D1*
X2100506Y3114995D1*
X1881876Y3115000D1*
X1881870Y3108689D1*
X1756130D1*
Y3164991D1*
X1747355Y3165089D1*
X1742860Y3165801D1*
X1738532Y3167207D1*
X1734477Y3169273D1*
X1730796Y3171948D1*
X1727578Y3175166D1*
X1724903Y3178847D1*
X1722837Y3182902D1*
X1721431Y3187230D1*
X1720719Y3191725D1*
X1720630Y3244000D1*
X1720987Y3248537D1*
X1722049Y3252962D1*
X1723791Y3257166D1*
X1726168Y3261046D1*
X1729124Y3264506D1*
X1732584Y3267462D1*
X1736464Y3269839D1*
X1740668Y3271581D1*
X1745093Y3272643D1*
X1749639Y3273000D1*
X1756130Y3277062D1*
Y3329311D1*
X1881870D1*
X1881917Y3327619D1*
Y3349685D1*
X1898101D1*
X1898071Y3376510D1*
X1803673Y3470873D1*
X1711284Y3470893D1*
X1711187Y3212725D1*
X1710475Y3208230D1*
X1709069Y3203902D1*
X1707003Y3199847D1*
X1704328Y3196166D1*
X1684589Y3176301D1*
X1688596Y3174950D1*
X1693280Y3172563D1*
X1697533Y3169474D1*
X1701250Y3165757D1*
X1704339Y3161504D1*
X1706726Y3156820D1*
X1708350Y3151820D1*
X1709173Y3146628D1*
X1709276Y3127027D1*
X1712866Y3122040D1*
X1715965Y3115958D1*
X1718074Y3109466D1*
X1719142Y3102724D1*
Y3095898D1*
X1718074Y3089156D1*
X1715965Y3082664D1*
X1712866Y3076582D1*
X1708854Y3071060D1*
X1704027Y3066233D1*
X1698505Y3062221D1*
X1692423Y3059122D1*
X1685931Y3057013D1*
X1679189Y3055945D1*
X1672363D1*
X1665621Y3057013D1*
X1659129Y3059122D1*
X1653047Y3062221D1*
X1648059Y3065812D1*
X1613876Y3065811D1*
X1600757Y3052837D1*
X1596504Y3049748D1*
X1591820Y3047361D1*
X1586820Y3045737D1*
X1581628Y3044914D1*
X1523882Y3044811D1*
X1454302D1*
X1443933Y3034451D1*
X1443814Y2836057D1*
X1442992Y2830865D1*
X1441367Y2825865D1*
X1438981Y2821181D1*
X1435891Y2816928D1*
X1431086Y2811977D1*
X1431083Y2798011D1*
X1438385Y2797911D1*
X1442880Y2797199D1*
X1447208Y2795793D1*
X1451262Y2793727D1*
X1454944Y2791052D1*
X1458162Y2787834D1*
X1460837Y2784152D1*
X1462903Y2780098D1*
X1464309Y2775770D1*
X1465021Y2771275D1*
X1465110Y2681500D1*
X1464753Y2676963D1*
X1463691Y2672538D1*
X1461949Y2668334D1*
X1459572Y2664454D1*
X1456616Y2660994D1*
X1453156Y2658038D1*
X1449276Y2655661D1*
X1445072Y2653919D1*
X1440647Y2652857D1*
X1436110Y2652500D1*
X1429615D1*
X1429607Y2636346D1*
X1240874D1*
Y2691586D1*
X1235332Y2688815D1*
X1228840Y2686706D1*
X1222098Y2685638D1*
X1215272D1*
X1208530Y2686706D1*
X1202038Y2688815D1*
X1195956Y2691914D1*
X1190968Y2695505D1*
X1138367Y2695410D1*
X1142247Y2693033D1*
X1145707Y2690077D1*
X1148662Y2686617D1*
X1151040Y2682737D1*
X1152782Y2678533D1*
X1153844Y2674108D1*
X1154201Y2669571D1*
Y2663076D1*
X1210512Y2663071D1*
Y2537331D1*
X1108731D1*
X1108596Y2488999D1*
X1116202Y2486638D1*
X1303769D1*
X1308771Y2490228D1*
X1314853Y2493327D1*
X1321345Y2495436D1*
X1328087Y2496504D1*
X1334913D1*
X1341655Y2495436D1*
X1348147Y2493327D1*
X1354229Y2490228D1*
X1359751Y2486216D1*
X1364578Y2481389D1*
X1368590Y2475867D1*
X1371689Y2469785D1*
X1373798Y2463293D1*
X1374866Y2456551D1*
Y2449725D1*
X1374685Y2446634D1*
Y2291366D1*
X1288315D1*
Y2419652D1*
X1195176Y2419638D1*
X1195158Y2291366D1*
X1195472Y2284866D1*
X1194936Y2278061D1*
X1193343Y2271424D1*
X1190731Y2265117D1*
X1187164Y2259297D1*
X1182731Y2254107D1*
X1177677Y2249781D1*
X1374488Y2249783D1*
Y1960657D1*
X1108984D1*
Y2249783D1*
X1126259D1*
X1121213Y2254107D1*
X1116780Y2259297D1*
X1113213Y2265117D1*
X1111990Y2267771D1*
X1109634Y2267493D1*
X1108150Y2264350D1*
Y2254752D1*
X1046895D1*
X1051249Y2252822D1*
X1057069Y2249255D1*
X1062259Y2244822D1*
X1066692Y2239632D1*
X1070259Y2233812D1*
X1072871Y2227505D1*
X1074464Y2220868D1*
X1075000Y2214063D1*
X1074501Y2207563D1*
X1096339Y2207559D1*
Y2105441D1*
X966662D1*
Y2207559D1*
X988515D1*
X988000Y2214063D1*
X988536Y2220868D1*
X990129Y2227505D1*
X992741Y2233812D1*
X996308Y2239632D1*
X1000741Y2244822D1*
X1005931Y2249255D1*
X1011751Y2252822D1*
X1016218Y2254755D1*
X954851Y2254752D1*
Y2267419D1*
X802236Y2267390D1*
X636516Y2101639D1*
X636496Y2039004D1*
X526504D1*
Y2148996D1*
X589122D1*
X766633Y2326363D1*
X770886Y2329453D1*
X775570Y2331840D1*
X780569Y2333464D1*
X785761Y2334287D1*
X843508Y2334390D1*
X954857D1*
X954851Y2347027D1*
X1073520D1*
X1073516Y2372838D1*
X954851Y2372862D1*
Y2375984D1*
X948350Y2375500D1*
X941545Y2376036D1*
X934908Y2377629D1*
X928601Y2380241D1*
X922781Y2383808D1*
X917591Y2388241D1*
X913158Y2393431D1*
X909591Y2399251D1*
X906979Y2405558D1*
X905386Y2412195D1*
X904850Y2419000D1*
X905386Y2425805D1*
X906979Y2432442D1*
X909591Y2438749D1*
X913158Y2444569D1*
X915336Y2447320D1*
X916490Y2451990D1*
X918501Y2456847D1*
X921248Y2461329D1*
X924662Y2465326D1*
X946593Y2487112D1*
X950846Y2490201D1*
X955530Y2492588D1*
X960530Y2494212D1*
X965722Y2495035D1*
X1031327Y2495138D1*
X1041685Y2505498D1*
X1041701Y2537318D1*
X989890Y2537330D1*
Y2663071D1*
X990715D1*
X967649Y2686237D1*
X964974Y2689919D1*
X962908Y2693973D1*
X961502Y2698301D1*
X960790Y2702796D1*
X960701Y2722429D1*
X961058Y2726966D1*
X962120Y2731391D1*
X963862Y2735595D1*
X966239Y2739475D1*
X969195Y2742935D1*
X989875Y2763615D1*
X989890Y2875669D1*
X1046170D1*
X1046201Y2881948D1*
X1038315Y2881917D1*
Y2898101D1*
X1037185Y2881917D1*
X950815D1*
Y2898101D1*
X949685Y2881917D1*
X863315D1*
Y2992159D1*
X625347Y2992154D1*
X615016Y2981794D1*
X615000Y2966695D1*
X644370Y2966712D1*
Y2821287D1*
X614981D1*
X615000Y2661506D1*
X636496Y2661496D1*
Y2551504D1*
X526504D1*
Y2661496D1*
X535690D1*
X1167810Y3318090D2*
X1272028D1*
Y3237223D1*
X1278528Y3237697D1*
X1285333Y3237161D1*
X1291970Y3235568D1*
X1298277Y3232956D1*
X1304097Y3229389D1*
X1309287Y3224956D1*
X1313720Y3219766D1*
X1317287Y3213946D1*
X1319899Y3207639D1*
X1321492Y3201002D1*
X1322028Y3194197D1*
X1321492Y3187392D1*
X1319899Y3180755D1*
X1317287Y3174448D1*
X1313720Y3168628D1*
X1309287Y3163438D1*
X1304097Y3159005D1*
X1298277Y3155438D1*
X1291970Y3152826D1*
X1285333Y3151233D1*
X1278528Y3150697D1*
X1272028Y3151196D1*
Y3145106D1*
X1165973D1*
Y3318090D1*
X1167810D1*
X3274685Y3261328D2*
Y3194382D1*
X3260511D1*
X3260500Y3080461D1*
X3264578Y3076255D1*
X3268590Y3070733D1*
X3271689Y3064651D1*
X3273798Y3058159D1*
X3274866Y3051417D1*
Y3044591D1*
X3273798Y3037849D1*
X3271689Y3031357D1*
X3268590Y3025275D1*
X3264578Y3019753D1*
X3259751Y3014926D1*
X3254229Y3010914D1*
X3248147Y3007815D1*
X3241655Y3005706D1*
X3234913Y3004638D1*
X3228087D1*
X3221345Y3005706D1*
X3214853Y3007815D1*
X3208771Y3010914D1*
X3203249Y3014926D1*
X3198422Y3019753D1*
X3194410Y3025275D1*
X3191311Y3031357D1*
X3189202Y3037849D1*
X3188134Y3044591D1*
Y3051417D1*
X3189202Y3058159D1*
X3191311Y3064651D1*
X3194410Y3070733D1*
X3198422Y3076255D1*
X3202495Y3080384D1*
X3202500Y3194376D1*
X3188315Y3194382D1*
Y3351618D1*
X3274685D1*
X3274678Y3261311D1*
X2670533Y2574685D2*
X2818583D1*
Y2518024D1*
X3242076Y2518028D1*
X3246277Y2522106D1*
X3251799Y2526118D1*
X3257881Y2529217D1*
X3264373Y2531326D1*
X3271115Y2532394D1*
X3277941D1*
X3284683Y2531326D1*
X3291175Y2529217D1*
X3297257Y2526118D1*
X3302779Y2522106D1*
X3307606Y2517279D1*
X3311618Y2511757D1*
X3314717Y2505675D1*
X3316826Y2499183D1*
X3317894Y2492441D1*
Y2485615D1*
X3316826Y2478873D1*
X3314717Y2472381D1*
X3311618Y2466299D1*
X3307606Y2460777D1*
X3302779Y2455950D1*
X3297257Y2451938D1*
X3291175Y2448839D1*
X3284683Y2446730D1*
X3277941Y2445662D1*
X3271115D1*
X3264373Y2446730D1*
X3257881Y2448839D1*
X3251799Y2451938D1*
X3246277Y2455950D1*
X3245562Y2456379D1*
X3246864Y2448160D1*
Y2439840D1*
X3245562Y2431621D1*
X3242991Y2423707D1*
X3240191Y2418039D1*
X3272688Y2418028D1*
X3296457Y2441662D1*
X3300138Y2444337D1*
X3304193Y2446403D1*
X3308521Y2447809D1*
X3313016Y2448521D1*
X3397968Y2448610D1*
X3698161Y2448521D1*
X3700431Y2448251D1*
X3700815Y2453603D1*
Y2601653D1*
X3714989D1*
X3715089Y2613385D1*
X3715801Y2617880D1*
X3717207Y2622208D1*
X3719273Y2626262D1*
X3721948Y2629944D1*
X3725166Y2633162D1*
X3728848Y2635837D1*
X3732902Y2637903D1*
X3737230Y2639309D1*
X3741725Y2640021D1*
X3826677Y2640110D1*
X3846275Y2640021D1*
X3850770Y2639309D1*
X3855098Y2637903D1*
X3859152Y2635837D1*
X3862834Y2633162D1*
X3866052Y2629944D1*
X3868727Y2626262D1*
X3870793Y2622208D1*
X3872199Y2617880D1*
X3872911Y2613385D1*
X3873000Y2604615D1*
X3889154Y2604606D1*
Y2542060D1*
X3941628Y2541988D1*
X3946820Y2541165D1*
X3951820Y2539541D1*
X3956504Y2537155D1*
X3960757Y2534065D1*
X3992688Y2502279D1*
X3996102Y2498282D1*
X3998849Y2493800D1*
X4000860Y2488943D1*
X4002088Y2483832D1*
X4002500Y2478581D1*
Y2271001D1*
X4009192Y2266058D1*
X4016058Y2259192D1*
X4021766Y2251335D1*
X4026175Y2242683D1*
X4029176Y2233447D1*
X4030695Y2223856D1*
Y2214144D1*
X4029176Y2204553D1*
X4026175Y2195317D1*
X4021766Y2186665D1*
X4016058Y2178808D1*
X4009192Y2171942D1*
X4001335Y2166234D1*
X3992683Y2161825D1*
X3983447Y2158824D1*
X3973856Y2157305D1*
X3964144D1*
X3954553Y2158824D1*
X3945317Y2161825D1*
X3936665Y2166234D1*
X3928808Y2171942D1*
X3921942Y2178808D1*
X3916234Y2186665D1*
X3911825Y2195317D1*
X3908824Y2204553D1*
X3907305Y2214144D1*
Y2223856D1*
X3908824Y2233447D1*
X3911825Y2242683D1*
X3916234Y2251335D1*
X3921942Y2259192D1*
X3928808Y2266058D1*
X3935513Y2270997D1*
X3935500Y2464699D1*
X3925140Y2475075D1*
X3889157Y2475091D1*
X3889154Y2415874D1*
X3872970D1*
X3872199Y2410840D1*
X3870789Y2406504D1*
X3872337Y2404606D1*
X3889154D1*
Y2385480D1*
X3897929Y2385411D1*
X3902424Y2384699D1*
X3906752Y2383293D1*
X3910807Y2381227D1*
X3914488Y2378552D1*
X3917706Y2375334D1*
X3920381Y2371653D1*
X3922447Y2367598D1*
X3923853Y2363270D1*
X3924565Y2358775D1*
X3924654Y2326724D1*
X3924297Y2322187D1*
X3923235Y2317762D1*
X3921493Y2313558D1*
X3919116Y2309678D1*
X3916160Y2306218D1*
X3912700Y2303262D1*
X3908820Y2300885D1*
X3904616Y2299143D1*
X3900191Y2298081D1*
X3895654Y2297724D1*
X3889159D1*
X3889154Y2215874D1*
X3872970D1*
X3873000Y2193540D1*
X3877078Y2189357D1*
X3881090Y2183835D1*
X3884189Y2177753D1*
X3886298Y2171261D1*
X3887366Y2164519D1*
Y2157693D1*
X3886298Y2150951D1*
X3884138Y2144350D1*
X4153321Y2144358D1*
X4207094Y2198107D1*
X4207114Y2280886D1*
X4330886D1*
Y2157114D1*
X4248101D1*
X4184192Y2093306D1*
X4180511Y2090632D1*
X4176456Y2088566D1*
X4172128Y2087159D1*
X4167634Y2086448D1*
X4082681Y2086358D1*
X3857436D1*
X3854613Y2082993D1*
X3850275Y2079573D1*
X3845258Y2077260D1*
X3839840Y2076183D1*
X3775004Y2076110D1*
X3769518Y2076759D1*
X3764335Y2078672D1*
X3759742Y2081741D1*
X3755988Y2085803D1*
X3751382Y2086358D1*
X3716610Y2086448D1*
X3712116Y2087159D1*
X3707788Y2088566D1*
X3703733Y2090632D1*
X3700052Y2093306D1*
X3677380Y2115852D1*
X3674424Y2119312D1*
X3672047Y2123192D1*
X3670305Y2127396D1*
X3669243Y2131821D1*
X3668886Y2136358D1*
Y2203354D1*
X3608522Y2203374D1*
X3608500Y2082172D1*
X3615904Y2086641D1*
X3624876Y2090357D1*
X3634319Y2092624D1*
X3644000Y2093386D1*
X3653681Y2092624D1*
X3663124Y2090357D1*
X3672096Y2086641D1*
X3680376Y2081567D1*
X3687760Y2075260D1*
X3694067Y2067876D1*
X3699141Y2059596D1*
X3702857Y2050624D1*
X3705124Y2041181D1*
X3705886Y2031500D1*
X3705124Y2021819D1*
X3702857Y2012376D1*
X3699141Y2003404D1*
X3694067Y1995124D1*
X3687760Y1987740D1*
X3680376Y1981433D1*
X3672096Y1976359D1*
X3663124Y1972643D1*
X3653681Y1970376D1*
X3644000Y1969614D1*
X3634319Y1970376D1*
X3630912Y1971054D1*
X3490757Y1831026D1*
X3486504Y1827937D1*
X3481820Y1825550D1*
X3476820Y1823926D1*
X3471628Y1823103D1*
X3413882Y1823000D1*
X3240758Y1822882D1*
X3236165Y1819813D1*
X3230982Y1817901D1*
X3225496Y1817252D1*
X3160660Y1817324D1*
X3155242Y1818402D1*
X3150225Y1820715D1*
X3147237Y1822887D1*
X3059255Y1823000D1*
X3054229Y1819410D1*
X3048147Y1816311D1*
X3041655Y1814202D1*
X3034913Y1813134D1*
X3028087D1*
X3021345Y1814202D1*
X3014853Y1816311D1*
X3008771Y1819410D1*
X3003783Y1823001D1*
X2949758Y1823103D1*
X2944566Y1823926D1*
X2939566Y1825550D1*
X2934882Y1827936D1*
X2930629Y1831026D1*
X2889723Y1871786D1*
X2835804Y1925706D1*
X2829731Y1926702D1*
X2823239Y1928811D1*
X2817157Y1931910D1*
X2812169Y1935501D1*
X2640758Y1935383D1*
X2636165Y1932314D1*
X2630982Y1930401D1*
X2625489Y1929752D1*
X2560660Y1929825D1*
X2555242Y1930902D1*
X2550225Y1933215D1*
X2547237Y1935388D1*
X2467006Y1935500D1*
X2456670Y1925140D1*
X2456551Y1725218D1*
X2455729Y1720026D1*
X2454104Y1715026D1*
X2451718Y1710342D1*
X2448628Y1706089D1*
X2416842Y1674158D1*
X2412845Y1670744D1*
X2408363Y1667997D1*
X2403506Y1665986D1*
X2398395Y1664758D1*
X2393144Y1664346D1*
X1928872Y1664449D1*
X1923680Y1665272D1*
X1918680Y1666896D1*
X1913996Y1669282D1*
X1909743Y1672372D1*
X1906026Y1676089D1*
X1902936Y1680342D1*
X1900550Y1685026D1*
X1898926Y1690026D1*
X1898103Y1695218D1*
X1898000Y1724364D1*
X1874536Y1724338D1*
Y1757675D1*
X1864448Y1754466D1*
X1812206Y1702369D1*
X1807953Y1699279D1*
X1803269Y1696893D1*
X1798269Y1695268D1*
X1793077Y1694446D1*
X1735331Y1694343D1*
X1428872Y1694446D1*
X1423680Y1695268D1*
X1418680Y1696893D1*
X1413996Y1699279D1*
X1409743Y1702369D1*
X1406026Y1706086D1*
X1402936Y1710339D1*
X1400550Y1715023D1*
X1398925Y1720023D1*
X1398411Y1722613D1*
X1396601Y1724515D1*
X1374536D1*
Y1748163D1*
X1368035Y1747646D1*
X1361230Y1748182D1*
X1354593Y1749775D1*
X1348286Y1752387D1*
X1342466Y1755954D1*
X1337276Y1760387D1*
X1335655Y1762141D1*
X1150972Y1762146D1*
X1150965Y1724338D1*
X1027317D1*
X1026574Y1720019D1*
X1024950Y1715019D1*
X1022563Y1710335D1*
X1019474Y1706082D1*
X1015757Y1702365D1*
X1011504Y1699276D1*
X1006820Y1696889D1*
X1001820Y1695265D1*
X996628Y1694442D1*
X938882Y1694339D1*
X516372Y1694442D1*
X511180Y1695265D1*
X506180Y1696889D1*
X501496Y1699276D1*
X497243Y1702365D1*
X493526Y1706082D1*
X490437Y1710335D1*
X488050Y1715019D1*
X486426Y1720019D1*
X485911Y1722609D1*
X484101Y1724338D1*
X482056D1*
X481691Y1663649D1*
X2445542Y1663596D1*
X2448594Y1663112D1*
X2489785Y1663369D1*
X3764010Y1675582D1*
X3764076Y1702734D1*
X3765154Y1708152D1*
X3767467Y1713169D1*
X3770887Y1717507D1*
X3775225Y1720927D1*
X3780242Y1723240D1*
X3785660Y1724317D1*
X3850496Y1724390D1*
X3855982Y1723741D1*
X3861165Y1721829D1*
X3865758Y1718759D1*
X3869512Y1714697D1*
X3874118Y1714142D1*
X3936018D1*
X3940000Y1724515D1*
Y1957080D1*
X3928770Y1957187D1*
X3923352Y1958264D1*
X3918335Y1960577D1*
X3913997Y1963997D1*
X3910577Y1968335D1*
X3908264Y1973352D1*
X3907187Y1978770D1*
X3907114Y2057386D1*
X3907763Y2062872D1*
X3909676Y2068055D1*
X3912745Y2072648D1*
X3916801Y2076398D1*
X3921621Y2079097D1*
X3926938Y2080597D1*
X3930614Y2080886D1*
X4009230Y2080813D1*
X4014648Y2079736D1*
X4019665Y2077423D1*
X4024003Y2074003D1*
X4027423Y2069665D1*
X4029736Y2064648D1*
X4030813Y2059230D1*
X4030886Y1980614D1*
X4030237Y1975128D1*
X4028325Y1969945D1*
X4025255Y1965352D1*
X4021199Y1961602D1*
X4016379Y1958903D1*
X4011062Y1957403D1*
X4007386Y1957114D1*
X3998020D1*
X3997911Y1703867D1*
X3997199Y1699372D1*
X3995793Y1695044D1*
X3993727Y1690990D1*
X3991052Y1687308D1*
X3981513Y1677643D1*
X4368989Y1681381D1*
X4369000Y2743983D1*
X3717860Y2744052D1*
X3714985Y2744662D1*
X3712333Y2745927D1*
X3710049Y2747775D1*
X3708259Y2750106D1*
X3707063Y2752790D1*
X3706527Y2755679D1*
X3708130Y2883716D1*
X3606229Y2883689D1*
Y2889968D1*
X3579280Y2890000D1*
X3575121Y2885922D1*
X3569599Y2881910D1*
X3563517Y2878811D1*
X3557025Y2876702D1*
X3550283Y2875634D1*
X3543457D1*
X3536715Y2876702D1*
X3530223Y2878811D1*
X3524141Y2881910D1*
X3519363Y2885336D1*
X3519370Y2883689D1*
X3393630D1*
Y2939969D1*
X3318382Y2940000D1*
X3307862Y2929641D1*
X3304181Y2926966D1*
X3300126Y2924900D1*
X3295798Y2923494D1*
X3291303Y2922782D1*
X3285978Y2922693D1*
X3282533Y2919313D1*
X3282439Y2910410D1*
X3281727Y2905915D1*
X3280321Y2901587D1*
X3278255Y2897532D1*
X3275580Y2893851D1*
X3253034Y2871179D1*
X3249574Y2868223D1*
X3245694Y2865846D1*
X3242991Y2864293D1*
X3245562Y2856379D1*
X3246864Y2848160D1*
Y2839840D1*
X3245562Y2831621D1*
X3242991Y2823707D1*
X3241595Y2820679D1*
X3514467Y2820685D1*
X3518619Y2824763D1*
X3524141Y2828775D1*
X3530223Y2831874D1*
X3536715Y2833983D1*
X3543457Y2835051D1*
X3550283D1*
X3557025Y2833983D1*
X3563517Y2831874D1*
X3569599Y2828775D1*
X3575121Y2824763D1*
X3579948Y2819936D1*
X3583960Y2814414D1*
X3587059Y2808332D1*
X3589168Y2801840D1*
X3590236Y2795098D1*
Y2788272D1*
X3589168Y2781530D1*
X3587059Y2775038D1*
X3583960Y2768956D1*
X3579948Y2763434D1*
X3575121Y2758607D1*
X3569599Y2754595D1*
X3563517Y2751496D1*
X3557025Y2749387D1*
X3550283Y2748319D1*
X3543457D1*
X3536715Y2749387D1*
X3530223Y2751496D1*
X3524141Y2754595D1*
X3518619Y2758607D1*
X3514490Y2762680D1*
X2714177Y2762685D1*
X2714154Y2713315D1*
X2556917D1*
Y2762656D1*
X2294040Y2762774D1*
X2289545Y2763486D1*
X2285217Y2764892D1*
X2281162Y2766958D1*
X2277481Y2769633D1*
X2217347Y2829640D1*
X2119378Y2927609D1*
X2110846Y2926281D1*
X2102154D1*
X2093570Y2927641D1*
X2085303Y2930327D1*
X2077559Y2934272D1*
X2070527Y2939381D1*
X2064381Y2945527D1*
X2059272Y2952559D1*
X2056514Y2957727D1*
X2053728Y2952559D1*
X2048619Y2945527D1*
X2042473Y2939381D1*
X2035512Y2934320D1*
X2035500Y2868572D1*
X2112185Y2868582D1*
Y2785518D1*
X2237774Y2785411D1*
X2242269Y2784699D1*
X2246597Y2783293D1*
X2250652Y2781227D1*
X2254333Y2778552D1*
X2277006Y2756005D1*
X2279962Y2752545D1*
X2282339Y2748665D1*
X2284081Y2744461D1*
X2285143Y2740036D1*
X2285500Y2735490D1*
Y2688168D1*
X2292795Y2688169D1*
Y2627632D1*
X2304648Y2627622D1*
X2325091Y2648081D1*
X2326088Y2654155D1*
X2328197Y2660647D1*
X2331296Y2666729D1*
X2335308Y2672251D1*
X2340135Y2677078D1*
X2345657Y2681090D1*
X2351739Y2684189D1*
X2358231Y2686298D1*
X2364973Y2687366D1*
X2371799D1*
X2378541Y2686298D1*
X2385033Y2684189D1*
X2391115Y2681090D1*
X2396637Y2677078D1*
X2401464Y2672251D1*
X2405476Y2666729D1*
X2408575Y2660647D1*
X2410684Y2654155D1*
X2411752Y2647413D1*
Y2640587D1*
X2410684Y2633845D1*
X2408575Y2627353D1*
X2405476Y2621271D1*
X2401464Y2615749D1*
X2396637Y2610922D1*
X2391115Y2606910D1*
X2385033Y2603811D1*
X2378541Y2601702D1*
X2372475Y2600714D1*
X2342351Y2570589D1*
X2347382Y2568028D1*
X2354187Y2567492D1*
X2360824Y2565899D1*
X2367131Y2563287D1*
X2372951Y2559720D1*
X2378141Y2555287D1*
X2382574Y2550097D1*
X2386141Y2544277D1*
X2388753Y2537970D1*
X2390346Y2531333D1*
X2390882Y2524528D1*
X2390383Y2518028D1*
X2565129Y2518058D1*
X2563536Y2524695D1*
X2563000Y2531500D1*
X2563536Y2538305D1*
X2565129Y2544942D1*
X2567741Y2551249D1*
X2571308Y2557069D1*
X2575741Y2562259D1*
X2580931Y2566692D1*
X2586751Y2570259D1*
X2593058Y2572871D1*
X2599695Y2574464D1*
X2606500Y2575000D1*
X2613305Y2574464D1*
X2619942Y2572871D1*
X2626249Y2570259D1*
X2632069Y2566692D1*
X2634217Y2564999D1*
X2661367Y2565000D1*
X2661346Y2574685D1*
X2670533D1*
X1761998Y2089153D2*
X1762185Y2079967D1*
Y1931917D1*
X1697687D1*
X1717244Y1923346D1*
X1775986D1*
X1775500Y1929846D1*
X1775999Y1936346D1*
X1775815Y1945533D1*
Y2093582D1*
X1777645D1*
X1777154Y2100087D1*
X1777690Y2106892D1*
X1779283Y2113529D1*
X1781700Y2119412D1*
X1775815Y2119417D1*
Y2276653D1*
X1789990D1*
X1790357Y2282147D1*
X1791419Y2286572D1*
X1793161Y2290776D1*
X1795538Y2294656D1*
X1798494Y2298116D1*
X1805472Y2305094D1*
X1747229Y2305110D1*
X1747911Y2300885D1*
X1748000Y2292115D1*
X1764154Y2292106D1*
Y2103374D1*
X1761807D1*
X1762500Y2095654D1*
X1762001Y2089154D1*
X1675815Y2073019D2*
X1675994Y2089153D1*
X1675500Y2095654D1*
X1676215Y2103362D1*
X1673847Y2103374D1*
Y2269636D1*
X1662195Y2269610D1*
X1662185Y2119417D1*
X1602940D1*
X1602933Y2093556D1*
X1662185Y2093583D1*
Y2076394D1*
X1667667Y2074268D1*
X1669661Y2073151D1*
X1897501Y2089153D2*
X1925958D1*
X1925500Y2095654D1*
X1926215Y2103362D1*
X1873847Y2103374D1*
Y2269635D1*
X1862195Y2269610D1*
X1862185Y2119417D1*
X1859638D1*
X1862025Y2113529D1*
X1863618Y2106892D1*
X1864154Y2100087D1*
X1863618Y2093282D1*
X1862188Y2087223D1*
X1862185Y2073021D1*
X1888297Y2073000D1*
X1888315Y2089153D1*
X1897501D1*
X1888330Y1998846D2*
X1888315Y2015030D1*
X1862208Y2015000D1*
X1862185Y1936346D1*
X1862500Y1929846D1*
X1862001Y1923346D1*
X1998468D1*
X1988315Y1923846D1*
Y2022389D1*
X1984152Y2019273D1*
X1980098Y2017207D1*
X1975761Y2015800D1*
X1974685Y2014875D1*
Y1931917D1*
X1888315D1*
Y1998841D1*
X2085001Y2089153D2*
X2162185D1*
Y1931917D1*
X2075815D1*
Y2015030D1*
X2074685Y2007592D1*
Y1923846D1*
X2060511D1*
X2060411Y1913071D1*
X2059699Y1908576D1*
X2058293Y1904248D1*
X2056227Y1900194D1*
X2053552Y1896512D1*
X2031006Y1873840D1*
X2027546Y1870885D1*
X2023666Y1868507D1*
X2019461Y1866765D1*
X2015037Y1865703D1*
X2010491Y1865346D1*
X1718654D1*
X1718596Y1810048D1*
X1717884Y1805553D1*
X1716478Y1801225D1*
X1714412Y1797170D1*
X1711737Y1793489D1*
X1689191Y1770817D1*
X1685731Y1767861D1*
X1681851Y1765484D1*
X1677646Y1763742D1*
X1673221Y1762680D1*
X1668685Y1762323D1*
X1588484D1*
X1596854Y1761343D1*
X1776598D1*
X1831995Y1816619D1*
X1836248Y1819709D1*
X1840932Y1822096D1*
X1845931Y1823720D1*
X1851123Y1824543D1*
X1874529Y1824646D1*
X1874536Y1857952D1*
X2088465D1*
Y1820166D1*
X2185981Y1820146D1*
X2190000Y1830519D1*
Y1936341D1*
X2175815Y1936346D1*
Y2093582D1*
X2189989D1*
X2190357Y2100191D1*
X2191419Y2104616D1*
X2192211Y2106760D1*
X2188315Y2106917D1*
Y2123101D1*
X2181910Y2123160D1*
X2177406Y2123874D1*
X2176654Y2122421D1*
Y2103374D1*
X2086347D1*
Y2202532D1*
X2074695Y2202500D1*
X2074685Y2119417D1*
X2061157D1*
X2064578Y2115838D1*
X2068590Y2110316D1*
X2071689Y2104234D1*
X2073798Y2097742D1*
X2074866Y2091000D1*
Y2084174D1*
X2074685Y2081083D1*
Y2073009D1*
X2075815Y2089153D1*
X2085001D1*
X2361998D2*
X2362185Y2079967D1*
Y1931917D1*
X2275815D1*
Y1953383D1*
X2270960Y1952589D1*
X2262190Y1952500D1*
X2262185Y1936346D1*
X2248011D1*
X2247911Y1809871D1*
X2247199Y1805376D1*
X2245793Y1801048D1*
X2243727Y1796994D1*
X2241052Y1793312D1*
X2218506Y1770640D1*
X2215045Y1767684D1*
X2211165Y1765306D1*
X2206961Y1763565D1*
X2202536Y1762503D1*
X2198000Y1762146D1*
X2088445D1*
X2088465Y1731317D1*
X2379299Y1731346D1*
X2389638Y1741706D1*
X2389757Y1941628D1*
X2390579Y1946820D1*
X2392204Y1951820D1*
X2394590Y1956504D1*
X2397680Y1960757D1*
X2429466Y1992688D1*
X2433463Y1996103D1*
X2437946Y1998849D1*
X2442802Y2000861D1*
X2447914Y2002088D1*
X2453154Y2002500D1*
X2547242Y2002618D1*
X2551835Y2005687D1*
X2557018Y2007599D1*
X2562504Y2008248D1*
X2627340Y2008176D1*
X2632758Y2007098D1*
X2637775Y2004786D1*
X2640763Y2002613D1*
X2669608Y2002500D1*
X2669614Y2052399D1*
X2648143Y2073845D1*
X2644508Y2073298D1*
X2640758Y2069241D1*
X2636165Y2066172D1*
X2630982Y2064260D1*
X2625496Y2063611D1*
X2560660Y2063683D1*
X2555242Y2064761D1*
X2550225Y2067073D1*
X2545887Y2070494D1*
X2542467Y2074832D1*
X2540154Y2079849D1*
X2539076Y2085267D1*
Y2120450D1*
X2540154Y2125869D1*
X2542467Y2130885D1*
X2545887Y2135224D1*
X2550225Y2138644D1*
X2555242Y2140957D1*
X2560660Y2142034D1*
X2625496Y2142107D1*
X2630982Y2141457D1*
X2636165Y2139545D1*
X2640758Y2136476D1*
X2644512Y2132414D1*
X2649118Y2131859D1*
X2662417Y2131769D1*
X2666911Y2131057D1*
X2671239Y2129651D1*
X2675294Y2127585D1*
X2678975Y2124910D1*
X2710614Y2093398D1*
X2752399Y2093386D1*
X2784024Y2124910D1*
X2787705Y2127585D1*
X2791760Y2129651D1*
X2796088Y2131057D1*
X2800583Y2131769D1*
X2885535Y2131858D1*
X2906390Y2131769D1*
X2910885Y2131057D1*
X2915213Y2129651D1*
X2919268Y2127585D1*
X2922949Y2124910D1*
X2924627Y2123358D1*
X2936318Y2118028D1*
X3147783D1*
X3145009Y2123707D1*
X3142438Y2131621D1*
X3141136Y2139840D1*
Y2148160D1*
X3142136Y2154864D1*
X3031838Y2265276D1*
X3029163Y2268957D1*
X3027097Y2273012D1*
X3025691Y2277340D1*
X3024979Y2281835D1*
X3024890Y2326059D1*
X3015634Y2323829D1*
X3006500Y2323110D1*
X2997366Y2323829D1*
X2988457Y2325968D1*
X2979992Y2329474D1*
X2972179Y2334262D1*
X2965212Y2340212D1*
X2959262Y2347179D1*
X2956513Y2351351D1*
X2950900Y2343579D1*
X2944421Y2337100D1*
X2937009Y2331715D1*
X2928845Y2327555D1*
X2920131Y2324724D1*
X2911081Y2323290D1*
X2901919D1*
X2892869Y2324724D1*
X2884155Y2327555D1*
X2875991Y2331715D1*
X2868579Y2337100D1*
X2862100Y2343579D1*
X2856715Y2350991D1*
X2852555Y2359155D1*
X2849724Y2367869D1*
X2848290Y2376919D1*
Y2386081D1*
X2849724Y2395131D1*
X2851098Y2399896D1*
X2761929Y2399890D1*
X2764171Y2390634D1*
X2764890Y2381500D1*
X2764171Y2372366D1*
X2762032Y2363457D1*
X2758526Y2354992D1*
X2753738Y2347179D1*
X2747788Y2340212D1*
X2740821Y2334262D1*
X2733008Y2329474D1*
X2724543Y2325968D1*
X2715634Y2323829D1*
X2706500Y2323110D1*
X2697366Y2323829D1*
X2688457Y2325968D1*
X2679992Y2329474D1*
X2672179Y2334262D1*
X2665212Y2340212D1*
X2659262Y2347179D1*
X2654798Y2354413D1*
X2651311Y2348943D1*
X2645666Y2342334D1*
X2639057Y2336689D1*
X2631646Y2332147D1*
X2623616Y2328821D1*
X2615165Y2326792D1*
X2606500Y2326110D1*
X2597835Y2326792D1*
X2589384Y2328821D1*
X2581354Y2332147D1*
X2573943Y2336689D1*
X2567334Y2342334D1*
X2561689Y2348943D1*
X2558235Y2354412D1*
X2553738Y2347179D1*
X2547788Y2340212D1*
X2540821Y2334262D1*
X2533008Y2329474D1*
X2524543Y2325968D1*
X2515634Y2323829D1*
X2506500Y2323110D1*
X2497366Y2323829D1*
X2488457Y2325968D1*
X2479992Y2329474D1*
X2472179Y2334262D1*
X2465212Y2340212D1*
X2459262Y2347179D1*
X2456513Y2351351D1*
X2450900Y2343579D1*
X2444421Y2337100D1*
X2437009Y2331715D1*
X2428845Y2327555D1*
X2420131Y2324724D1*
X2411081Y2323290D1*
X2401919D1*
X2392869Y2324724D1*
X2384155Y2327555D1*
X2375991Y2331715D1*
X2368579Y2337100D1*
X2362100Y2343579D1*
X2356513Y2351351D1*
X2350900Y2343579D1*
X2344421Y2337100D1*
X2337009Y2331715D1*
X2328959Y2327607D1*
X2336037Y2327253D1*
X2340462Y2326191D1*
X2344666Y2324449D1*
X2348546Y2322072D1*
X2352006Y2319116D1*
X2354962Y2315656D1*
X2357339Y2311776D1*
X2359081Y2307572D1*
X2360143Y2303147D1*
X2360500Y2298610D1*
Y2292115D1*
X2376654Y2292106D1*
Y2103374D1*
X2361805D1*
X2362500Y2095654D1*
X2362001Y2089154D1*
X968499Y2054021D2*
X1096339D1*
Y1951903D1*
X966662D1*
Y2054021D1*
X968499D1*
X3139004Y1716080D2*
X3139076Y1740234D1*
X3140154Y1745652D1*
X3142467Y1750669D1*
X3145887Y1755007D1*
X3150225Y1758427D1*
X3155242Y1760740D1*
X3160660Y1761817D1*
X3225496Y1761890D1*
X3230982Y1761240D1*
X3236165Y1759328D1*
X3240758Y1756259D1*
X3244512Y1752197D1*
X3249118Y1751642D1*
X3311592D1*
X3315749Y1755720D1*
X3321271Y1759732D1*
X3327353Y1762831D1*
X3333845Y1764940D1*
X3340587Y1766008D1*
X3347413D1*
X3354155Y1764940D1*
X3360647Y1762831D1*
X3366729Y1759732D1*
X3372251Y1755720D1*
X3377078Y1750893D1*
X3381090Y1745371D1*
X3384189Y1739289D1*
X3386298Y1732797D1*
X3387366Y1726055D1*
Y1719229D1*
X3386298Y1712487D1*
X3384189Y1705995D1*
X3381090Y1699913D1*
X3377078Y1694391D1*
X3372251Y1689564D1*
X3366729Y1685552D1*
X3360647Y1682453D1*
X3354155Y1680344D1*
X3347413Y1679276D1*
X3340587D1*
X3333845Y1680344D1*
X3327353Y1682453D1*
X3321271Y1685552D1*
X3315749Y1689564D1*
X3311620Y1693637D1*
X3244924Y1693642D1*
X3242113Y1690277D1*
X3237775Y1686857D1*
X3232758Y1684544D1*
X3227340Y1683466D1*
X3162504Y1683394D1*
X3157018Y1684043D1*
X3151835Y1685955D1*
X3147242Y1689024D1*
X3143492Y1693081D1*
X3140793Y1697901D1*
X3139293Y1703217D1*
X3139004Y1706894D1*
Y1716080D1*
X3764004Y1803288D2*
X3764076Y1836592D1*
X3765154Y1842010D1*
X3767467Y1847027D1*
X3770887Y1851365D1*
X3775225Y1854785D1*
X3780242Y1857098D1*
X3785660Y1858176D1*
X3836988Y1858248D1*
X3836996Y1942262D1*
X3773160Y1942324D1*
X3767735Y1943405D1*
X3763749Y1942741D1*
X3757442Y1940129D1*
X3750805Y1938536D1*
X3744000Y1938000D1*
X3737195Y1938536D1*
X3730558Y1940129D1*
X3724251Y1942741D1*
X3718431Y1946308D1*
X3713241Y1950741D1*
X3708808Y1955931D1*
X3705241Y1961751D1*
X3702629Y1968058D1*
X3701036Y1974695D1*
X3700500Y1981500D1*
X3701036Y1988305D1*
X3702629Y1994942D1*
X3705241Y2001249D1*
X3708808Y2007069D1*
X3713241Y2012259D1*
X3718431Y2016692D1*
X3724251Y2020259D1*
X3730558Y2022871D1*
X3737195Y2024464D1*
X3744000Y2025000D1*
X3750805Y2024464D1*
X3757442Y2022871D1*
X3763749Y2020259D1*
X3766042Y2018974D1*
X3771328Y2020459D1*
X3775004Y2020748D1*
X3839840Y2020676D1*
X3845258Y2019598D1*
X3850275Y2017285D1*
X3853263Y2015113D1*
X3873124Y2014897D1*
X3878316Y2014074D1*
X3883316Y2012450D1*
X3888000Y2010063D1*
X3892253Y2006974D1*
X3895970Y2003257D1*
X3899059Y1999004D1*
X3901446Y1994320D1*
X3903070Y1989320D1*
X3903893Y1984128D1*
X3903996Y1926382D1*
X3903893Y1816372D1*
X3903070Y1811180D1*
X3901446Y1806180D1*
X3899059Y1801496D1*
X3895970Y1797243D1*
X3892253Y1793526D1*
X3888000Y1790437D1*
X3883316Y1788050D1*
X3878316Y1786426D1*
X3873124Y1785603D1*
X3865758Y1785382D1*
X3861165Y1782313D1*
X3855982Y1780401D1*
X3850496Y1779752D1*
X3785660Y1779824D1*
X3780242Y1780902D1*
X3775225Y1783215D1*
X3770887Y1786635D1*
X3767467Y1790973D1*
X3765154Y1795990D1*
X3764076Y1801408D1*
X3764004Y1811133D1*
X2286377Y2195893D2*
X2286347Y2269635D1*
X2264504Y2269610D1*
X2261806Y2264153D1*
X2274685D1*
Y2124630D1*
X2286355Y2124654D1*
X2286347Y2195890D1*
X3798846Y2425599D2*
Y2459689D1*
X3794038Y2457710D1*
X3788916Y2456482D1*
X3787185Y2452047D1*
Y2444417D1*
X3711039Y2444337D1*
X3714720Y2441662D1*
X3730881Y2425628D1*
X3798872Y2425610D1*
X1656486Y2957727D2*
X1653728Y2952559D1*
X1648619Y2945527D1*
X1642473Y2939381D1*
X1635512Y2934320D1*
X1635500Y2461933D1*
X1645873Y2457890D1*
X1705692D1*
X1704018Y2461928D1*
X1702955Y2466353D1*
X1702599Y2470898D1*
X1702598Y2509250D1*
X1695303Y2509280D1*
Y2597618D1*
X1767894D1*
Y2509280D1*
X1760609D1*
X1760598Y2482936D1*
X1770971Y2478890D1*
X1877654D1*
X1873592Y2482277D1*
X1870637Y2485737D1*
X1868259Y2489617D1*
X1866518Y2493821D1*
X1865455Y2498246D1*
X1865098Y2502783D1*
Y2509278D1*
X1857803Y2509279D1*
Y2597618D1*
X1930394D1*
Y2531770D1*
X1981405Y2531783D1*
X1985548Y2535861D1*
X1991070Y2539873D1*
X1997152Y2542972D1*
X2003644Y2545081D1*
X2010386Y2546149D1*
X2017212D1*
X2020299Y2545784D1*
X2020303Y2597618D1*
X2092894D1*
Y2518063D1*
X2133111Y2518028D1*
X2130139Y2523034D1*
X2127527Y2529341D1*
X2125934Y2535978D1*
X2125398Y2542783D1*
X2125934Y2549588D1*
X2127527Y2556225D1*
X2130139Y2562532D1*
X2133706Y2568352D1*
X2135399Y2570500D1*
X2135501Y2596750D1*
X2136324Y2601942D1*
X2137948Y2606942D1*
X2140335Y2611626D1*
X2143424Y2615879D1*
X2145402Y2618203D1*
Y2688169D1*
X2217992D1*
Y2627618D1*
X2220205Y2636576D1*
Y2688169D1*
X2227489D1*
X2227500Y2723483D1*
X2217126Y2727500D1*
X2112165D1*
X2112185Y2711346D1*
X2025815D1*
Y2794470D1*
X2020731Y2795230D1*
X2016403Y2796637D1*
X2012348Y2798703D1*
X2008667Y2801377D1*
X1999662Y2810256D1*
X1999685Y2711346D1*
X1987305D1*
X1995873Y2709173D1*
X2096275Y2709084D1*
X2100770Y2708372D1*
X2105098Y2706966D1*
X2109152Y2704900D1*
X2112834Y2702225D1*
X2116052Y2699007D1*
X2118727Y2695325D1*
X2120793Y2691271D1*
X2122009Y2688169D1*
X2130295D1*
Y2599830D1*
X2057705D1*
Y2651181D1*
X2055496Y2651173D1*
X2055492Y2599830D1*
X1982902D1*
Y2651166D1*
X1975225Y2651262D1*
X1970730Y2651974D1*
X1968530Y2652595D1*
X1967796Y2651424D1*
Y2599830D1*
X1895205D1*
Y2686687D1*
X1892992Y2686332D1*
Y2599830D1*
X1820402D1*
Y2688169D1*
X1834806D1*
X1830834Y2689834D1*
X1826954Y2692211D1*
X1823494Y2695167D1*
X1820538Y2698627D1*
X1818161Y2702507D1*
X1816419Y2706711D1*
X1815356Y2711145D1*
X1800815Y2711346D1*
Y2868583D1*
X1814989D1*
X1815000Y2878153D1*
X1810922Y2882336D1*
X1806910Y2887858D1*
X1803811Y2893940D1*
X1801702Y2900432D1*
X1800634Y2907174D1*
Y2914000D1*
X1801702Y2920742D1*
X1803428Y2926195D1*
X1797835Y2926792D1*
X1789384Y2928821D1*
X1781354Y2932147D1*
X1773943Y2936689D1*
X1767334Y2942334D1*
X1761689Y2948943D1*
X1757147Y2956354D1*
X1756514Y2957727D1*
X1753728Y2952559D1*
X1748619Y2945527D1*
X1742473Y2939381D1*
X1735441Y2934272D1*
X1727697Y2930327D1*
X1719430Y2927641D1*
X1710846Y2926281D1*
X1702154D1*
X1693570Y2927641D1*
X1685303Y2930327D1*
X1677559Y2934272D1*
X1670527Y2939381D1*
X1664381Y2945527D1*
X1659272Y2952559D1*
X1656514Y2957727D1*
X2756487Y2951351D2*
X2753738Y2947179D1*
X2747788Y2940212D1*
X2740821Y2934262D1*
X2733008Y2929474D1*
X2724543Y2925968D1*
X2715634Y2923829D1*
X2706500Y2923110D1*
X2697366Y2923829D1*
X2688457Y2925968D1*
X2679992Y2929474D1*
X2672179Y2934262D1*
X2665212Y2940212D1*
X2659262Y2947179D1*
X2654474Y2954992D1*
X2650968Y2963457D1*
X2648829Y2972366D1*
X2648110Y2981500D1*
X2648829Y2990634D1*
X2650968Y2999543D1*
X2654474Y3008008D1*
X2659262Y3015821D1*
X2665212Y3022788D1*
X2672179Y3028738D1*
X2679992Y3033526D1*
X2688457Y3037032D1*
X2697366Y3039171D1*
X2706500Y3039890D1*
X2715634Y3039171D1*
X2724543Y3037032D1*
X2733008Y3033526D1*
X2740821Y3028738D1*
X2747788Y3022788D1*
X2753738Y3015821D1*
X2756487Y3011649D1*
X2762100Y3019421D1*
X2768579Y3025900D1*
X2775991Y3031285D1*
X2784155Y3035445D1*
X2792869Y3038276D1*
X2801919Y3039710D1*
X2811081D1*
X2820131Y3038276D1*
X2828845Y3035445D1*
X2837009Y3031285D1*
X2844421Y3025900D1*
X2850900Y3019421D1*
X2856487Y3011649D1*
X2862100Y3019421D1*
X2868579Y3025900D1*
X2875991Y3031285D1*
X2884155Y3035445D1*
X2892869Y3038276D1*
X2901919Y3039710D1*
X2911081D1*
X2920131Y3038276D1*
X2928845Y3035445D1*
X2937009Y3031285D1*
X2944421Y3025900D1*
X2950900Y3019421D1*
X2956487Y3011649D1*
X2962100Y3019421D1*
X2968579Y3025900D1*
X2975991Y3031285D1*
X2984155Y3035445D1*
X2992869Y3038276D1*
X3001919Y3039710D1*
X3011081D1*
X3020131Y3038276D1*
X3028845Y3035445D1*
X3037009Y3031285D1*
X3044421Y3025900D1*
X3050900Y3019421D1*
X3056285Y3012009D1*
X3060445Y3003845D1*
X3063276Y2995131D1*
X3064710Y2986081D1*
Y2976919D1*
X3063276Y2967869D1*
X3060445Y2959155D1*
X3056285Y2950991D1*
X3050900Y2943579D1*
X3044421Y2937100D1*
X3037009Y2931715D1*
X3028845Y2927555D1*
X3020131Y2924724D1*
X3011081Y2923290D1*
X3001919D1*
X2992869Y2924724D1*
X2984155Y2927555D1*
X2975991Y2931715D1*
X2968579Y2937100D1*
X2962100Y2943579D1*
X2956513Y2951351D1*
X2950900Y2943579D1*
X2944421Y2937100D1*
X2937009Y2931715D1*
X2928845Y2927555D1*
X2920131Y2924724D1*
X2911081Y2923290D1*
X2901919D1*
X2892869Y2924724D1*
X2884155Y2927555D1*
X2875991Y2931715D1*
X2868579Y2937100D1*
X2862100Y2943579D1*
X2856513Y2951351D1*
X2850900Y2943579D1*
X2844421Y2937100D1*
X2837009Y2931715D1*
X2828845Y2927555D1*
X2820131Y2924724D1*
X2811081Y2923290D1*
X2801919D1*
X2792869Y2924724D1*
X2784155Y2927555D1*
X2775991Y2931715D1*
X2768579Y2937100D1*
X2762100Y2943579D1*
X2756513Y2951351D1*
X517324Y3626319D2*
X673563D1*
Y3460893D1*
X631830D1*
X631724Y3398350D1*
X630718Y3391995D1*
X628730Y3385876D1*
X625809Y3380144D1*
X624012Y3377457D1*
X628053Y3376712D1*
X654370D1*
Y3211287D1*
X508630D1*
Y3376712D1*
X540531D1*
X540626Y3395433D1*
X541633Y3401787D1*
X543621Y3407906D1*
X546542Y3413638D1*
X548338Y3416325D1*
X549850Y3419939D1*
Y3460883D1*
X508138Y3460893D1*
Y3626319D1*
X517324D1*
X870158Y3537117D2*
X869395Y3530667D1*
X868128Y3524297D1*
X866365Y3518047D1*
X864117Y3511954D1*
X861398Y3506056D1*
X858225Y3500389D1*
X854617Y3494989D1*
X850596Y3489889D1*
X846187Y3485120D1*
X841418Y3480711D1*
X836318Y3476690D1*
X828682Y3471830D1*
X828575Y3396775D1*
X827568Y3390421D1*
X825580Y3384302D1*
X822652Y3378559D1*
X828053Y3376712D1*
X854370D1*
Y3211287D1*
X708630D1*
Y3376712D1*
X740531D1*
X740626Y3397008D1*
X741633Y3403362D1*
X743621Y3409481D1*
X746549Y3415224D1*
X746701Y3445924D1*
Y3471796D1*
X739084Y3476690D1*
X733983Y3480711D1*
X729214Y3485120D1*
X724806Y3489889D1*
X720785Y3494989D1*
X717177Y3500389D1*
X714003Y3506056D1*
X711284Y3511954D1*
X709036Y3518047D1*
X707274Y3524297D1*
X706007Y3530667D1*
X705243Y3537117D1*
X704988Y3543606D1*
X705243Y3550096D1*
X706007Y3556545D1*
X707274Y3562915D1*
X709036Y3569166D1*
X711284Y3575259D1*
X714003Y3581157D1*
X717177Y3586824D1*
X720785Y3592224D1*
X724806Y3597324D1*
X729214Y3602093D1*
X733983Y3606501D1*
X739084Y3610522D1*
X744484Y3614130D1*
X750150Y3617304D1*
X756048Y3620023D1*
X762141Y3622271D1*
X768392Y3624034D1*
X774762Y3625301D1*
X781211Y3626064D1*
X787701Y3626319D1*
X794190Y3626064D1*
X800640Y3625301D1*
X807010Y3624034D1*
X813260Y3622271D1*
X819354Y3620023D1*
X825252Y3617304D1*
X830918Y3614130D1*
X836318Y3610522D1*
X841418Y3606501D1*
X846187Y3602093D1*
X850596Y3597324D1*
X854617Y3592224D1*
X858225Y3586824D1*
X861398Y3581157D1*
X864117Y3575259D1*
X866365Y3569166D1*
X868128Y3562915D1*
X869395Y3556545D1*
X870158Y3550096D1*
X870413Y3543606D1*
X870158Y3537117D1*
X2241133Y3537666D2*
X2240434Y3531762D1*
X2239274Y3525932D1*
X2237661Y3520210D1*
X2235603Y3514632D1*
X2233114Y3509233D1*
X2230209Y3504047D1*
X2226906Y3499104D1*
X2223226Y3494435D1*
X2219190Y3490069D1*
X2214825Y3486034D1*
X2210156Y3482354D1*
X2205213Y3479051D1*
X2200026Y3476146D1*
X2194628Y3473657D1*
X2189050Y3471599D1*
X2183328Y3469986D1*
X2177498Y3468826D1*
X2171594Y3468127D1*
X2165654Y3467894D1*
X2159713Y3468127D1*
X2153809Y3468826D1*
X2147979Y3469986D1*
X2142257Y3471599D1*
X2136680Y3473657D1*
X2131281Y3476146D1*
X2126094Y3479051D1*
X2121151Y3482354D1*
X2116482Y3486034D1*
X2112117Y3490069D1*
X2108081Y3494435D1*
X2104401Y3499104D1*
X2101098Y3504047D1*
X2098193Y3509233D1*
X2095704Y3514632D1*
X2093647Y3520210D1*
X2092033Y3525932D1*
X2090873Y3531762D1*
X2090174Y3537666D1*
X2089941Y3543606D1*
X2090174Y3549547D1*
X2090873Y3555450D1*
X2092033Y3561281D1*
X2093647Y3567003D1*
X2095704Y3572580D1*
X2098193Y3577979D1*
X2101098Y3583166D1*
X2104401Y3588109D1*
X2108081Y3592778D1*
X2112117Y3597143D1*
X2116482Y3601179D1*
X2121151Y3604859D1*
X2126094Y3608162D1*
X2131281Y3611067D1*
X2136680Y3613556D1*
X2142257Y3615613D1*
X2147979Y3617227D1*
X2153809Y3618387D1*
X2159713Y3619086D1*
X2165654Y3619319D1*
X2171594Y3619086D1*
X2177498Y3618387D1*
X2183328Y3617227D1*
X2189050Y3615613D1*
X2194628Y3613556D1*
X2200026Y3611067D1*
X2205213Y3608162D1*
X2210156Y3604859D1*
X2214825Y3601179D1*
X2219190Y3597143D1*
X2223226Y3592778D1*
X2226906Y3588109D1*
X2230209Y3583166D1*
X2233114Y3577979D1*
X2235603Y3572580D1*
X2237661Y3567003D1*
X2239274Y3561281D1*
X2240434Y3555450D1*
X2241133Y3549547D1*
X2241366Y3543606D1*
X2241133Y3537666D1*
X2599128Y3619319D2*
X2741366D1*
Y3467893D1*
X2589941D1*
Y3619319D1*
X2599128D1*
X2934992Y3537901D2*
X2933207Y3526632D1*
X2929682Y3515780D1*
X2924502Y3505614D1*
X2917795Y3496383D1*
X2909727Y3488315D1*
X2900496Y3481609D1*
X2890330Y3476429D1*
X2879478Y3472903D1*
X2868209Y3471118D1*
X2856799D1*
X2845530Y3472903D1*
X2834678Y3476429D1*
X2824512Y3481609D1*
X2815281Y3488315D1*
X2807213Y3496383D1*
X2800506Y3505614D1*
X2795326Y3515780D1*
X2791800Y3526632D1*
X2790015Y3537901D1*
Y3549311D1*
X2791800Y3560581D1*
X2795326Y3571432D1*
X2800506Y3581599D1*
X2807213Y3590829D1*
X2815281Y3598897D1*
X2824512Y3605604D1*
X2834678Y3610784D1*
X2845530Y3614310D1*
X2856799Y3616095D1*
X2868209D1*
X2879478Y3614310D1*
X2890330Y3610784D1*
X2900496Y3605604D1*
X2909727Y3598897D1*
X2917795Y3590829D1*
X2924502Y3581599D1*
X2929682Y3571432D1*
X2933207Y3560581D1*
X2934992Y3549311D1*
Y3537901D1*
X3131843D2*
X3130058Y3526632D1*
X3126532Y3515780D1*
X3121352Y3505614D1*
X3114645Y3496383D1*
X3106577Y3488315D1*
X3097347Y3481609D1*
X3087180Y3476429D1*
X3076329Y3472903D1*
X3065059Y3471118D1*
X3053649D1*
X3042380Y3472903D1*
X3031528Y3476429D1*
X3021362Y3481609D1*
X3012131Y3488315D1*
X3004063Y3496383D1*
X2997357Y3505614D1*
X2992177Y3515780D1*
X2988651Y3526632D1*
X2986866Y3537901D1*
Y3549311D1*
X2988651Y3560581D1*
X2992177Y3571432D1*
X2997357Y3581599D1*
X3004063Y3590829D1*
X3012131Y3598897D1*
X3021362Y3605604D1*
X3031528Y3610784D1*
X3042380Y3614310D1*
X3053649Y3616095D1*
X3065059D1*
X3076329Y3614310D1*
X3087180Y3610784D1*
X3097347Y3605604D1*
X3106577Y3598897D1*
X3114645Y3590829D1*
X3121352Y3581599D1*
X3126532Y3571432D1*
X3130058Y3560581D1*
X3131843Y3549311D1*
Y3537901D1*
X3192679Y3616319D2*
X3328918D1*
Y3470893D1*
X3183492D1*
Y3616319D1*
X3192679D1*
X3246864Y2639840D2*
X3245562Y2631621D1*
X3242991Y2623707D1*
X3239213Y2616293D1*
X3234322Y2609561D1*
X3228439Y2603678D1*
X3221707Y2598787D1*
X3214293Y2595009D1*
X3206379Y2592438D1*
X3198160Y2591136D1*
X3189840D1*
X3181621Y2592438D1*
X3173707Y2595009D1*
X3166293Y2598787D1*
X3159561Y2603678D1*
X3153678Y2609561D1*
X3148787Y2616293D1*
X3145009Y2623707D1*
X3142438Y2631621D1*
X3141136Y2639840D1*
Y2648160D1*
X3142438Y2656379D1*
X3145009Y2664293D1*
X3148787Y2671707D1*
X3153678Y2678439D1*
X3159561Y2684322D1*
X3166293Y2689213D1*
X3173707Y2692991D1*
X3181621Y2695562D1*
X3189840Y2696864D1*
X3198160D1*
X3206379Y2695562D1*
X3214293Y2692991D1*
X3221707Y2689213D1*
X3228439Y2684322D1*
X3234322Y2678439D1*
X3239213Y2671707D1*
X3242991Y2664293D1*
X3245562Y2656379D1*
X3246864Y2648160D1*
Y2639840D1*
X4330695Y2014144D2*
X4329176Y2004553D1*
X4326175Y1995317D1*
X4321766Y1986665D1*
X4316058Y1978808D1*
X4309192Y1971942D1*
X4301335Y1966234D1*
X4292683Y1961825D1*
X4283447Y1958824D1*
X4273856Y1957305D1*
X4264144D1*
X4254553Y1958824D1*
X4245317Y1961825D1*
X4236665Y1966234D1*
X4228808Y1971942D1*
X4221942Y1978808D1*
X4216234Y1986665D1*
X4211825Y1995317D1*
X4208824Y2004553D1*
X4207305Y2014144D1*
Y2023856D1*
X4208824Y2033447D1*
X4211825Y2042683D1*
X4216234Y2051335D1*
X4221942Y2059192D1*
X4228808Y2066058D1*
X4236665Y2071766D1*
X4245317Y2076175D1*
X4254553Y2079176D1*
X4264144Y2080695D1*
X4273856D1*
X4283447Y2079176D1*
X4292683Y2076175D1*
X4301335Y2071766D1*
X4309192Y2066058D1*
X4316058Y2059192D1*
X4321766Y2051335D1*
X4326175Y2042683D1*
X4329176Y2033447D1*
X4330695Y2023856D1*
Y2014144D1*
X1798013Y2688169D2*
X1805296D1*
Y2599830D1*
X1732705D1*
Y2688169D1*
X1739990D1*
X1740000Y2711355D1*
X1675815Y2711346D1*
Y2868582D1*
X1675500Y2875087D1*
X1676036Y2881892D1*
X1677629Y2888529D1*
X1680241Y2894836D1*
X1683808Y2900656D1*
X1688241Y2905846D1*
X1693431Y2910279D1*
X1699251Y2913846D1*
X1705558Y2916458D1*
X1712195Y2918051D1*
X1719000Y2918587D1*
X1725805Y2918051D1*
X1732442Y2916458D1*
X1738749Y2913846D1*
X1744569Y2910279D1*
X1749759Y2905846D1*
X1754192Y2900656D1*
X1757759Y2894836D1*
X1760371Y2888529D1*
X1761964Y2881892D1*
X1762500Y2875087D1*
X1762001Y2868587D1*
X1762185Y2859396D1*
Y2785518D1*
X1771275Y2785411D1*
X1775770Y2784699D1*
X1780098Y2783293D1*
X1784153Y2781227D1*
X1787834Y2778552D1*
X1791052Y2775334D1*
X1793727Y2771653D1*
X1795793Y2767598D1*
X1797199Y2763270D1*
X1797911Y2758775D1*
X1798000Y2688141D1*
X1659739Y2688169D2*
X1730492D1*
Y2599831D1*
X1657902D1*
Y2688169D1*
X1659739D1*
X1334641Y3247618D2*
X1405394D1*
Y3159279D1*
X1332803D1*
Y3247618D1*
X1334641D1*
X720467Y2966712D2*
X844370D1*
Y2821287D1*
X718630D1*
Y2966712D1*
X720467D1*
X928499Y3330369D2*
D20*
X1034501Y3232237D1*
Y3330369D2*
X981500Y3281303D1*
X1040999Y3318066D2*
X1094000Y3269000D1*
X1147001Y3318066D2*
X1040999Y3219934D1*
X1165999Y3318066D2*
X1219000Y3269000D1*
X1272001Y3318066D2*
X1165999Y3219934D1*
X1381943Y2224660D2*
X1472199Y2138340D1*
X1427071Y2181500D2*
X1381943Y2138340D1*
X1119443Y3112160D2*
X1164571Y3069000D1*
X1386373Y2049660D2*
X1431500Y2006500D1*
X1386373Y1963340D1*
X1381944Y2137160D2*
X1472199Y2050840D1*
X1427071Y2094000D2*
X1381944Y2050840D1*
X3188340Y3351592D2*
X3274661Y3261337D1*
Y3351592D2*
X3231500Y3306465D1*
X3450840Y3351592D2*
X3537161Y3261337D1*
Y3351592D2*
X3494000Y3306465D1*
X1463340Y3343557D2*
X1506500Y3298429D1*
X1549660Y3343557D2*
X1506500Y3298429D1*
X2818557Y2574660D2*
X2773429Y2531500D1*
X1406943Y3162160D2*
X1452071Y3119000D1*
X1719000Y1977071D2*
X1762160Y1931943D1*
Y2022198D2*
X1719000Y1977071D1*
X1931500D2*
X1974660Y1931943D1*
Y2022198D2*
X1888340Y1931943D1*
X2119000Y1977071D2*
X2162160Y1931943D1*
Y2022198D2*
X2075840Y1931943D1*
X2319000Y1977071D2*
X2362160Y1931943D1*
Y2022198D2*
X2275840Y1931943D1*
X1288980Y2681500D2*
X1337061Y2636371D1*
X1288980Y2681500D2*
X1240900Y2636371D1*
X966690Y2053999D2*
X1096311Y1951925D1*
Y2053999D2*
X966690Y1951925D1*
X1673871Y2199560D2*
X1764129Y2103400D1*
Y2199560D2*
X1673871Y2103400D1*
X1873871Y2199560D2*
X1919000Y2151480D1*
X1873871Y2103400D1*
X2086371Y2199560D2*
X2176629Y2103400D1*
X2131500Y2151480D2*
X2086371Y2103400D1*
X2286371Y2199560D2*
X2376629Y2103400D1*
Y2199560D2*
X2331500Y2151480D1*
X2145425Y2688141D2*
X2181697Y2644000D1*
X2217970Y2688141D2*
X2181697Y2644000D1*
X2019197D2*
X2055470Y2599858D1*
X2019197Y2644000D2*
X1982925Y2599858D1*
X1820425Y2688141D2*
X1892970Y2599858D1*
Y2688141D2*
X1820425Y2599858D1*
X1657924Y2688142D2*
X1730469Y2599858D1*
Y2688142D2*
X1657924Y2599858D1*
X1312160Y3039127D2*
X1269000Y2994000D1*
X3363340Y3351592D2*
X3449661Y3261337D1*
Y3351592D2*
X3406500Y3306465D1*
X3538340Y3351628D2*
X3581500Y3306500D1*
X3624660Y3351628D2*
X3538340Y3261372D1*
X1175201Y2600201D2*
X1210494Y2537362D1*
Y2663040D2*
X1139907Y2537362D1*
X1109009Y2249757D2*
X1374464Y1960684D1*
Y2249757D2*
X1109009Y1960684D1*
X3456500Y2919000D2*
X3519339Y2883706D1*
X3456500Y2919000D2*
X3393661Y2883706D1*
X1543563Y3329293D2*
X1606402Y3294000D1*
X1332826Y3247590D2*
X1405371Y3159307D1*
Y3247590D2*
X1332826Y3159307D1*
X718654Y2966685D2*
X844347Y2821314D1*
Y2966685D2*
X718654Y2821314D1*
D25*
X581500Y2606500D3*
D26*
X881500D3*
D27*
X981500Y3206500D3*
Y3281303D3*
X1094000Y3269000D3*
Y3194197D3*
X1219000Y3269000D3*
Y3194197D3*
D28*
X1494000Y2181500D3*
X1427071D3*
D25*
X581500Y2094000D3*
D26*
X881500D3*
D28*
X1231500Y3069000D3*
X1164571D3*
X1431500Y2006500D3*
X1498429D3*
X1494000Y2094000D3*
X1427071D3*
D29*
X3231500Y3239535D3*
Y3306465D3*
X3494000Y3239535D3*
Y3306465D3*
X1506500Y3231500D3*
Y3298429D3*
D28*
X2706500Y2531500D3*
X2773429D3*
X1519000Y3119000D3*
X1452071D3*
D29*
X1719000Y2044000D3*
Y1977071D3*
X1931500Y2044000D3*
Y1977071D3*
X2119000Y2044000D3*
Y1977071D3*
X2319000Y2044000D3*
Y1977071D3*
D30*
X1381500Y2681500D3*
X1288980D3*
D32*
X1031500Y2156500D3*
Y2002962D3*
D33*
X3444000Y2344000D3*
Y2251480D3*
D123*
X2594000Y1969000D3*
Y2102859D3*
D33*
X1719000Y2244000D3*
Y2151480D3*
X3644000Y2344000D3*
Y2251480D3*
X1919000Y2244000D3*
Y2151480D3*
D126*
X3194000Y1856500D3*
Y1722642D3*
D33*
X3844000Y2356500D3*
Y2263980D3*
X2131500Y2244000D3*
Y2151480D3*
D126*
X3819000Y1819000D3*
Y1685142D3*
D33*
X2331500Y2244000D3*
Y2151480D3*
X3844000Y2556500D3*
Y2463980D3*
D126*
X3806500Y1981500D3*
Y2115358D3*
D35*
X1506500Y2981500D3*
D36*
X1606500D3*
X1706500D3*
X1806500D3*
X1906500D3*
X2006500D3*
X2106500D3*
X2206500D3*
X2306500D3*
X2406500D3*
X2506500D3*
X2606500D3*
X2706500D3*
X2806500D3*
X2906500D3*
X3006500D3*
D35*
X1506500Y2381500D3*
D36*
X1606500D3*
X1706500D3*
X1806500D3*
X1906500D3*
X2006500D3*
X2106500D3*
X2206500D3*
X2306500D3*
X2406500D3*
X2506500D3*
X2606500D3*
X2706500D3*
X2806500D3*
X2906500D3*
X3006500D3*
D37*
X590850Y3543606D3*
D38*
X787701D3*
X984551D3*
D37*
X1181402D3*
D38*
X1378252D3*
X1575102D3*
D37*
X1771953D3*
D38*
X1968803D3*
X2165654D3*
D37*
X2665654D3*
D38*
X2862504D3*
X3059354D3*
D37*
X3256205D3*
D38*
X3453055D3*
X3649906D3*
D37*
X3846756D3*
D38*
X4043606D3*
X4240457D3*
D37*
X984551Y661717D3*
D38*
X787701D3*
X590850D3*
D37*
X1575102D3*
D38*
X1378252D3*
X1181402D3*
D37*
X2165654D3*
D38*
X1968803D3*
X1771953D3*
D37*
X3059354D3*
D38*
X2862504D3*
X2665654D3*
D37*
X3649906D3*
D38*
X3453055D3*
X3256205D3*
D37*
X4240457D3*
D38*
X4043606D3*
X3846756D3*
D39*
X3194000Y2944000D3*
D40*
Y2844000D3*
Y2744000D3*
Y2644000D3*
Y2544000D3*
Y2444000D3*
Y2344000D3*
Y2244000D3*
Y2144000D3*
Y2044000D3*
D41*
X869000Y1006500D3*
D42*
Y1106500D3*
D41*
X1331500Y1006500D3*
D42*
Y1106500D3*
D41*
X1781500Y1019000D3*
D42*
Y1119000D3*
D41*
X2256500Y1031500D3*
D42*
Y1131500D3*
D43*
X3031500Y2031500D3*
D44*
X2731500D3*
D43*
X3031500Y1287406D3*
X2731500Y1161421D3*
X3031500Y1035437D3*
X3644000Y2031500D3*
D44*
X3344000D3*
D43*
X3644000Y1287406D3*
X3344000Y1161421D3*
X3644000Y1035437D3*
X4269000Y2019000D3*
D129*
X3969000D3*
D43*
X4269000Y1274906D3*
X3969000Y1148921D3*
X4269000Y1022937D3*
X3969000Y2219000D3*
D44*
X4269000D3*
D43*
X3969000Y2963094D3*
X4269000Y3089079D3*
X3969000Y3215063D3*
D45*
X1031500Y2419000D3*
Y2300890D3*
D47*
X2256500Y2644000D3*
X2181697D3*
X2219098Y2553449D3*
X2094000Y2644000D3*
X2019197D3*
X2056598Y2553449D3*
X1931500Y2644000D3*
X1856697D3*
X1894098Y2553449D3*
X1769000Y2644000D3*
X1694197D3*
X1731598Y2553449D3*
D29*
X906500Y2994000D3*
Y2927071D3*
D28*
X1319000Y2769000D3*
X1385929D3*
D29*
X994000Y2994000D3*
Y2927071D3*
X1081500Y2994000D3*
Y2927071D3*
X1169000Y2994000D3*
Y2927071D3*
X1269000Y2994000D3*
Y2927071D3*
X1356500Y2931500D3*
Y2998429D3*
D28*
X2606500Y2856500D3*
X2673429D3*
D29*
X3319000Y3239535D3*
Y3306465D3*
X3406500D3*
Y3239535D3*
D28*
X1994000Y3306500D3*
X1927071D3*
X2669000Y2756500D3*
X2602071D3*
D29*
X3669000Y3239535D3*
Y3306465D3*
X3581500Y3306500D3*
Y3239571D3*
D48*
X744000Y1431500D3*
Y1541736D3*
X869000Y1544000D3*
Y1433764D3*
D29*
X1619000Y1981500D3*
Y2048429D3*
X3356500Y2344000D3*
Y2277071D3*
X869000Y1256500D3*
Y1323429D3*
X1619000Y2231500D3*
Y2164571D3*
X2069000Y2756500D3*
Y2823429D3*
D48*
X1219000Y1431500D3*
Y1541736D3*
X1331500D3*
Y1431500D3*
D29*
X1819000Y1981500D3*
Y2048429D3*
X1331500Y1231500D3*
Y1298429D3*
X1819000Y2231500D3*
Y2164571D3*
X3544000Y2344000D3*
Y2277071D3*
X1956500Y2756500D3*
Y2823429D3*
D48*
X1669000Y1431500D3*
Y1541736D3*
X1781500Y1544000D3*
Y1433764D3*
D29*
X2031500Y1969000D3*
Y2035929D3*
X1781500Y1269000D3*
Y1335929D3*
X2031500Y2231500D3*
Y2164571D3*
X3744000Y2356500D3*
Y2289571D3*
X1844000Y2756500D3*
Y2823429D3*
D48*
X2144000Y1431500D3*
Y1541736D3*
X2269000Y1544000D3*
Y1433764D3*
D29*
X2219000Y1981500D3*
Y2048429D3*
X2269000Y1269000D3*
Y1335929D3*
X2231500Y2219000D3*
Y2152071D3*
X3744000Y2556500D3*
Y2489571D3*
X1719000Y2756500D3*
Y2823429D3*
D49*
X1025201Y2600201D3*
X1075201D3*
X1125201D3*
X1175201D3*
Y2812799D3*
X1125201D3*
X1075201D3*
X1025201D3*
D51*
X1331500Y2369000D3*
X1151972D3*
D52*
X1241736Y2105220D3*
D53*
X3456500Y3069000D3*
Y3019000D3*
Y2969000D3*
Y2919000D3*
X3669098D3*
Y2969000D3*
Y3019000D3*
Y3069000D3*
X1819000Y3144000D3*
Y3194000D3*
Y3244000D3*
Y3294000D3*
X1606402D3*
Y3244000D3*
Y3194000D3*
Y3144000D3*
D47*
X1406500Y3294000D3*
X1331697D3*
X1369098Y3203449D3*
D54*
X781500Y2894000D3*
X581500D3*
X781500Y3294000D3*
X581500D3*
X544000Y1306500D3*
X744000D3*
X544000Y906500D3*
X744000D3*
X994000Y1306500D3*
X1194000D3*
X994000Y906500D3*
X1194000D3*
X1456500Y1306500D3*
X1656500D3*
X1456500Y906500D3*
X1656500D3*
X1906500Y1306500D3*
X2106500D3*
X1906500Y906500D3*
X2106500D3*
D55*
X519000Y1456500D3*
X619000D3*
Y1791146D3*
X519000D3*
X994000Y1456500D3*
X1094000D3*
Y1791146D3*
X994000D3*
X1431500Y1456677D3*
X1531500D3*
Y1791323D3*
X1431500D3*
X1931500Y1456500D3*
X2031500D3*
Y1791146D3*
X1931500D3*
M02*
