%TF.GenerationSoftware,Novarm,DipTrace,3.1.0.1*%
%TF.CreationDate,2017-07-10T10:23:31+02:00*%
%FSLAX26Y26*%
%MOIN*%
%TF.FileFunction,Copper,L1,Top*%
%TF.Part,Single*%
%AMOUTLINE0*
4,1,4,
0.031496,0.015748,
0.031496,-0.015748,
-0.031496,-0.015748,
-0.031496,0.015748,
0.031496,0.015748,
0*%
%AMOUTLINE3*
4,1,4,
-0.031496,-0.015748,
-0.031496,0.015748,
0.031496,0.015748,
0.031496,-0.015748,
-0.031496,-0.015748,
0*%
%AMOUTLINE6*5,1,4,0,0,0.108572,-135.0*%
%TA.AperFunction,Conductor*%
%ADD14C,0.011*%
%ADD15C,0.015*%
%ADD16C,0.02*%
%ADD17C,0.085*%
%ADD18C,0.076772*%
%TA.AperFunction,CopperBalancing*%
%ADD19C,0.025*%
%TA.AperFunction,ComponentPad*%
%ADD24R,0.062992X0.062992*%
%ADD25C,0.062992*%
%ADD26R,0.051181X0.059055*%
%ADD27R,0.043307X0.03937*%
%ADD28R,0.03937X0.043307*%
%ADD29R,0.049213X0.043307*%
%ADD31R,0.055118X0.082677*%
%ADD32R,0.043307X0.049213*%
%TA.AperFunction,ComponentPad*%
%ADD34R,0.06378X0.06378*%
%ADD35C,0.06378*%
%ADD36R,0.098425X0.098425*%
%ADD37C,0.098425*%
%ADD38R,0.059055X0.059055*%
%ADD39C,0.059055*%
%ADD40R,0.066929X0.066929*%
%ADD41C,0.066929*%
%ADD42C,0.076772*%
%ADD43R,0.076772X0.076772*%
%ADD44R,0.045276X0.106299*%
%ADD46R,0.025591X0.041339*%
%ADD47R,0.062992X0.070866*%
%ADD48R,0.070866X0.062992*%
%ADD49R,0.023622X0.07874*%
%ADD51R,0.108268X0.03937*%
%ADD52R,0.242126X0.218504*%
%ADD53R,0.07874X0.023622*%
%ADD54R,0.07874X0.098425*%
%ADD55R,0.066929X0.086614*%
%TA.AperFunction,ViaPad*%
%ADD56C,0.04*%
%ADD125OUTLINE0*%
%ADD128OUTLINE3*%
%TA.AperFunction,ComponentPad*%
%ADD131OUTLINE6*%
G75*
G01*
%LPD*%
X3256205Y3543606D2*
D14*
X3116232Y3403634D1*
X2944870D1*
X2923870Y3382634D1*
Y3281500D1*
X2869000D1*
X3319000Y3358118D2*
Y3306465D1*
X3649906Y3543606D2*
Y3464173D1*
X3669000Y3445079D1*
Y3306465D1*
X3649906Y3104189D2*
X3026724D1*
Y3231500D1*
X3081598D1*
X590850Y3543606D2*
D15*
Y3455574D1*
X544000Y3408724D1*
Y3256500D1*
X787701Y3543606D2*
Y3419000D1*
X744000Y3375299D1*
Y3256500D1*
X2506500Y2981500D2*
D14*
X2459110Y2934110D1*
X1974890D1*
X1953890Y2955110D1*
Y3298000D1*
X1974890Y3319000D1*
X2056500D1*
X2406500Y3169000D2*
X2056500D1*
Y3269000D2*
X1987130D1*
Y3219000D1*
X2056500D1*
X2306500D1*
X3031500Y2031500D2*
D16*
X3119000Y1944000D1*
X3181500D1*
X3644000Y2031500D2*
X3719000Y1956500D1*
X3806500D1*
X3331500Y2827071D2*
X3371185D1*
X3390205Y2846091D1*
X3473154D1*
Y2786874D1*
X3531500D1*
X628134Y2001972D2*
X544000D1*
X1744000Y3256500D2*
X1701626D1*
X1694315Y3263811D1*
Y3181500D1*
X1056500Y2319000D2*
Y2169000D1*
X2606500Y2531500D2*
X2706500D1*
X3531500Y2786874D2*
Y2839571D1*
X2283154Y3319000D2*
X2231500D1*
X3144000Y2775413D2*
Y2827071D1*
X944000Y1781843D2*
Y1866146D1*
X1794000D2*
X1663653D1*
X1579350Y1781843D1*
X1369000D1*
X944000D1*
X2532504Y1958000D2*
X2377343Y1802839D1*
X1794000D1*
Y1866146D1*
X2594000Y1969000D2*
X2543504D1*
X2532504Y1958000D1*
X3969000Y2219000D2*
X4169000Y2019000D1*
X4269000D1*
X3806500Y2206500D2*
X3871748D1*
X3884248Y2219000D1*
X3969000D1*
X3644000Y2031500D2*
Y2176500D1*
X3674000Y2206500D1*
X3806500D1*
X3181500Y1944000D2*
X3420689D1*
X3508189Y2031500D1*
X3644000D1*
X1369000Y1866146D2*
Y1781843D1*
X3531500Y2786874D2*
X3551500D1*
X3571500Y2806874D1*
Y2828591D1*
X3601500Y2858591D1*
X3663641D1*
X3682661Y2839571D1*
X3731500D1*
X544000Y2001972D2*
X444000D1*
Y1866146D1*
X519000D1*
X1744000Y3181500D2*
X1783685D1*
Y3169000D1*
X1843902D1*
X1694315Y3181500D2*
X1744000D1*
X1112587Y1994000D2*
X1060929D1*
X1056500Y2081500D2*
X1098154D1*
X1112587Y2067067D1*
Y1994000D1*
X1056500Y2169000D2*
Y2081500D1*
X2164571Y3319000D2*
D14*
Y3415066D1*
X2143570Y3436067D1*
X1879492D1*
X1771953Y3543606D1*
X2164571Y3254500D2*
Y3319000D1*
X3294000Y2610929D2*
X2006500Y2610933D1*
X1906500Y2683587D2*
X1921000Y2669087D1*
X3535500D1*
X3556500Y2648087D1*
Y2610929D1*
X1806500Y2981500D2*
X2097913Y2690087D1*
X3673000D1*
X3694000Y2669087D1*
Y2619000D1*
X1864685Y2648087D2*
X3431500D1*
Y2610929D1*
X1369000Y1531500D2*
D15*
Y1627307D1*
X1404000Y1662307D1*
X1559000D1*
X1594000Y1627307D1*
Y1529236D1*
X1656933D1*
Y1372587D1*
X1694000D1*
Y1323429D1*
X1369000Y2152071D2*
D14*
X1327154D1*
Y1969001D1*
X1304185Y1946032D1*
Y1849339D1*
X1283185Y1828339D1*
X1044000D1*
Y1866146D1*
X1327154Y1969001D2*
Y1969000D1*
X1369000D1*
X1781500Y2139571D2*
X1739658D1*
X1718654Y2118567D1*
Y1969000D1*
X1769000D1*
Y1924953D1*
X1894000D1*
Y1866146D1*
X1123429Y2319000D2*
X1238980D1*
X1291933Y1419000D2*
D15*
X1369000D1*
X1581500Y1217287D2*
Y1306500D1*
X1994000D2*
Y1131500D1*
X2106500Y1019000D1*
X2167465Y1079965D1*
Y1662307D1*
X2132465Y1697307D1*
X1726933D1*
X1691933Y1662307D1*
Y1419000D1*
X1781500D1*
X1294000Y2606500D2*
D16*
X1048154Y2360654D1*
X797288D1*
X618134Y2181500D1*
X544000D1*
X913390Y3256500D2*
Y3350650D1*
X943390Y3380650D1*
X1112189D1*
X1241500D1*
X1271500Y3350650D1*
Y3106500D1*
X1231500D1*
X1112189Y3380650D2*
Y3667819D1*
X1142189Y3697819D1*
X2958370D1*
X2988370Y3667819D1*
Y3487591D1*
X1218803Y2931500D2*
X1309752D1*
X1231500Y3106500D2*
Y3158154D1*
X1201500D1*
X1171500Y3128154D1*
Y3012740D1*
X1203212Y2981028D1*
Y2931500D1*
X1218803D1*
X2988370Y3273311D2*
X2996559Y3281500D1*
X3081598D1*
X1369000Y2219000D2*
D14*
X1421610D1*
Y2265110D1*
X1442610Y2286110D1*
X1469000D1*
Y2231500D1*
X1581500Y2219000D2*
Y2300610D1*
X1602500Y2321610D1*
X1646000D1*
X1681500Y2286110D1*
Y2231500D1*
X1894000Y1306500D2*
D15*
X1794000D1*
X1894000Y1614807D2*
Y1531500D1*
X1781500Y2206500D2*
D14*
Y2265110D1*
X1802500Y2286110D1*
X1881500D1*
Y2231500D1*
X3144000Y2894000D2*
Y2948610D1*
X3231500D1*
Y2894000D1*
X3331500D2*
Y2948610D1*
X3431500D1*
Y2894000D1*
X3531500Y2906500D2*
Y2961110D1*
X3631500D1*
Y2906500D1*
X2731500Y2031500D2*
X2660141Y2102859D1*
X2594000D1*
X3231500Y2725587D2*
Y2801480D1*
X3169098Y2353449D2*
X3211894Y2353453D1*
X3831500Y2906500D2*
X3731500D1*
X872504Y1419000D2*
D15*
X944000D1*
X1169000Y1217287D2*
Y1306500D1*
X744000Y1431500D2*
Y1419000D1*
X629236D1*
X956500Y2881402D2*
D14*
Y2955528D1*
X977500Y2976528D1*
X1006500D1*
Y2881402D1*
Y2976528D2*
Y3094000D1*
X1706500Y2823429D2*
X1794000D1*
X1619000D2*
X1706500D1*
X1531500D2*
X1566685D1*
X1619000D1*
X1006500Y2881402D2*
Y2823429D1*
X1531500D1*
X1469000Y1614807D2*
D15*
Y1531500D1*
Y1296067D2*
X1458567Y1306500D1*
X1381500D1*
X856500Y1323429D2*
X825004D1*
Y1541736D1*
X744000D1*
Y1662307D1*
X709000Y1697307D1*
X554000D1*
X519000Y1662307D1*
Y1531500D1*
X623370Y1306500D2*
X544000D1*
X623370Y1614807D2*
X619000Y1610437D1*
Y1531500D1*
X1594000Y1419000D2*
X1510736D1*
Y1343567D1*
X1479236D1*
Y1419000D1*
X856500Y1106500D2*
Y1256500D1*
X1181500Y1431500D2*
Y1419000D1*
X1054236D1*
X944000Y1531500D2*
Y1627307D1*
X979000Y1662307D1*
X1146500D1*
X1181500Y1627307D1*
Y1541736D1*
X1244433D1*
Y1384654D1*
X1281500Y1347587D1*
Y1298429D1*
X3669000Y3239535D2*
D14*
X3718685D1*
Y3204035D1*
X3697685Y3183035D1*
X3581500D1*
Y3239571D1*
X3616685D1*
Y3372618D1*
X3595685Y3393618D1*
X3287685D1*
X3266685Y3372618D1*
Y3202500D1*
X3245685Y3181500D1*
X3081598D1*
X519000Y1419000D2*
D15*
X451500D1*
Y1252287D1*
X486500Y1217287D1*
X744000D1*
Y1306500D1*
X1281500Y1106500D2*
Y1231500D1*
X3294000Y2544000D2*
D14*
X3227500D1*
X3206500Y2523000D1*
Y2444000D1*
X3556500Y2544000D2*
X3544000D1*
Y2444000D1*
X880535Y1866146D2*
X619000D1*
X1169000Y2100413D2*
Y2152071D1*
Y1917346D2*
Y1969000D1*
X3706500Y2444000D2*
X3749295D1*
Y2552071D1*
X3694000D1*
X1469000Y1866146D2*
X1550225D1*
X1581500Y1897421D1*
X1499000Y2083154D2*
X1560500D1*
X1581500Y2104154D1*
Y2152071D1*
Y1897421D2*
Y1956500D1*
X2799626Y3231500D2*
X2869000D1*
X3406500Y3239535D2*
Y3187882D1*
X3319000D1*
Y3239535D1*
X3381500Y2444000D2*
Y2544000D1*
X3431500D1*
X1694000Y1106500D2*
D15*
Y1256500D1*
X2698429Y3256500D2*
D14*
Y3202504D1*
X2719433Y3181500D1*
X2869000D1*
X2923870D1*
X2944870Y3202500D1*
Y3287811D1*
X2965870Y3308811D1*
X3136469D1*
Y3260535D1*
X3157469Y3239535D1*
X3231500D1*
X544000Y2856500D2*
D16*
X474000D1*
X444000Y2826500D1*
Y2744000D1*
X519197D1*
X1973154Y2178984D2*
X2050198Y2256028D1*
X2719472D1*
X2769000Y2206500D1*
X794000Y2744000D2*
X839591D1*
X879591Y2704000D1*
X889591D1*
X899591Y2714000D1*
Y2756504D1*
X519197Y2744000D2*
Y2550496D1*
X549197Y2520496D1*
X792504D1*
X844000Y2469000D1*
X1706500Y2756500D2*
X1794000D1*
X1619000D2*
X1706500D1*
X1531500D2*
X1571185D1*
X1619000D1*
X1447110Y2756504D2*
X1531500Y2756500D1*
X899591Y2756504D2*
X1447110D1*
X899591D2*
X906500Y2763413D1*
Y2881402D1*
X3081598Y3131500D2*
D14*
X3515000D1*
Y3152500D1*
X3494000Y3173500D1*
Y3239535D1*
X3515000Y3131500D2*
X3536000Y3152500D1*
X3664406D1*
X3685406Y3131500D1*
Y3062980D1*
X3664406Y3041980D1*
X2715001D1*
X2694000Y3062981D1*
Y3131500D1*
X1169000Y2219000D2*
X1119315D1*
Y2256110D1*
X1269000D1*
Y2231500D1*
X3344000Y2031500D2*
X3274854D1*
X3228495Y2077859D1*
X3181500D1*
X3506598Y2353449D2*
X3549394Y2353453D1*
X3431500Y2746874D2*
Y2801480D1*
X3669098Y2353449D2*
Y2388953D1*
X3770295D1*
X3969000Y2019000D2*
X3897641Y2090359D1*
X3806500D1*
X3770295Y2388953D2*
Y2690087D1*
X3749295Y2711087D1*
X3652500D1*
X3631500Y2732087D1*
Y2813980D1*
X3344098Y2353449D2*
Y2307114D1*
X3680772D1*
X3714017Y2340359D1*
X3806500D1*
X3831500Y2759374D2*
Y2813980D1*
X3917996Y2340358D2*
X4147642D1*
X4269000Y2219000D1*
X3806500Y2340359D2*
X3917996Y2340358D1*
X2006500Y1431500D2*
D15*
X1891736D1*
Y1419000D1*
X1794000Y1531500D2*
Y1627307D1*
X1829000Y1662307D1*
X1971500D1*
X2006500Y1627307D1*
Y1541736D1*
X2084000D1*
X2119000Y1506736D1*
Y1310929D1*
X2106500Y1119000D2*
Y1179965D1*
X2119000Y1192465D1*
Y1244000D1*
X1048370Y1306500D2*
X969000D1*
X1048370Y1614807D2*
X1044000Y1610437D1*
Y1531500D1*
X1274394Y2976528D2*
D14*
X1231500D1*
Y3039571D1*
X856500Y2976528D2*
Y2881402D1*
X1231500Y3039571D2*
X1319000D1*
Y3044000D1*
X906500Y3012028D2*
Y3094000D1*
X1057004Y3012028D2*
X1088976Y3044000D1*
X1131500D1*
X1206500Y3256500D2*
D16*
Y3329650D1*
X1031500D1*
Y3256500D1*
Y3153374D1*
X956500D1*
Y3094000D1*
X2214571Y3256500D2*
D14*
X2631500D1*
X2106500Y2981500D2*
X2256500Y3131500D1*
X2627071D1*
X2665654Y661717D2*
D17*
Y1104226D1*
D18*
X2674305D1*
X2731500Y1161421D1*
X2862504Y661717D2*
D17*
Y1118409D1*
X2974305Y1230211D1*
D18*
X3031500Y1287406D1*
Y1035437D2*
Y954551D1*
D17*
Y689571D1*
X3059354Y661717D1*
X3256205D2*
Y1073626D1*
X3286805Y1104226D1*
D18*
X3344000Y1161421D1*
X3453055Y661717D2*
D17*
Y1096461D1*
X3586805Y1230211D1*
D18*
X3644000Y1287406D1*
X3649906Y661717D2*
D17*
Y948646D1*
X3644000Y954551D1*
D18*
Y1035437D1*
X3846756Y661717D2*
D17*
Y1026677D1*
X3911805Y1091726D1*
D18*
X3969000Y1148921D1*
X4043606Y661717D2*
D17*
Y1049512D1*
X4211805Y1217711D1*
D18*
X4269000Y1274906D1*
X4240457Y661717D2*
D17*
Y913508D1*
X4269000Y942051D1*
D18*
Y1022937D1*
X4240457Y3543606D2*
D17*
Y3198508D1*
X4269000Y3169965D1*
D18*
Y3089079D1*
X3846756Y3543606D2*
D17*
Y3085339D1*
X3911805Y3020289D1*
D18*
X3969000Y2963094D1*
X4043606Y3543606D2*
D17*
Y3289669D1*
X4026195Y3272258D1*
D18*
X3969000Y3215063D1*
X1913276Y3269000D2*
D14*
X1843902D1*
X1686795Y3303831D2*
X1681964D1*
X1666795Y3319000D1*
X1644000D1*
X1843902Y3219000D2*
X1779185D1*
Y3369587D1*
X1758185Y3390587D1*
X1590196D1*
X1569197Y3369588D1*
Y3319000D1*
X1406008D1*
X1181402Y3543606D1*
X787701Y661717D2*
D15*
Y738429D1*
X744000Y782130D1*
Y906500D1*
X590850Y661717D2*
Y738430D1*
X544000Y785280D1*
Y906500D1*
X984551Y661717D2*
Y800654D1*
X969000Y816205D1*
Y906500D1*
X1181402Y661717D2*
Y738429D1*
X1169000Y750831D1*
Y906500D1*
X1575102Y661717D2*
Y805228D1*
X1581500Y811626D1*
Y906500D1*
X1378252Y661717D2*
Y806803D1*
X1381500Y810051D1*
Y906500D1*
X1968803Y661717D2*
Y738429D1*
X1994000Y763626D1*
Y906500D1*
X1771953Y661717D2*
Y738429D1*
X1794000Y760476D1*
Y906500D1*
X1269000Y2031500D2*
D14*
X1306154D1*
Y2263579D1*
X1279091Y2290642D1*
Y2428890D1*
X1300091Y2449890D1*
X1738110D1*
X1806500Y2381500D1*
X1169000Y2035929D2*
Y2031500D1*
X1269000D1*
X1369000Y2087587D2*
Y2035929D1*
Y2031500D1*
X1481500D1*
X1669000Y2083154D2*
Y2031500D1*
X1624755D1*
X1616684Y2023429D1*
X1581500D1*
X1769000Y2035929D2*
Y2083154D1*
X1869000D1*
Y2031500D1*
X2106500D1*
X3269000Y2206500D2*
X3193972Y2281528D1*
X2774890D1*
X2753890Y2302528D1*
Y2407890D1*
X2732890Y2428890D1*
X1850185D1*
X1829185Y2449890D1*
Y2860587D1*
X1727413D1*
X1606500Y2981500D1*
X3406500Y3306465D2*
D16*
Y3358118D1*
X3453055D1*
X2773429Y2531500D2*
Y2571500D1*
X2805087D1*
X2825087Y2551500D1*
Y2531500D1*
X1744000Y3114571D2*
X1636598D1*
X1606598Y3144571D1*
Y3228449D1*
X989571Y2081500D2*
X964000D1*
Y1964315D1*
X984000Y1944315D1*
X989567D1*
X3453055Y3543606D2*
X3338579Y3429130D1*
X3261500D1*
X3231500Y3399130D1*
Y3306465D1*
X2669000Y2206500D2*
X2601484Y2138984D1*
X2167500D1*
X2146500Y2117984D1*
Y1994570D1*
X2116501Y1964571D1*
X1869000D1*
X856500Y3094000D2*
Y3016528D1*
X774000D1*
X744000Y2986528D1*
Y2856500D1*
X989571Y2169000D2*
X989567Y2218685D1*
X1606598Y3228449D2*
Y3365087D1*
X1744000D1*
Y3323429D1*
X3131697Y2444000D2*
Y2394122D1*
X3306696D1*
X3396398D1*
X3426398Y2424122D1*
Y2444000D1*
X3469197D1*
X1903276Y3360811D2*
Y3339000D1*
X1883276Y3319000D1*
X1843902D1*
X1669000Y1912913D2*
Y1964571D1*
X1531815Y1939453D2*
X1481500D1*
Y1964571D1*
X2146500Y2117984D2*
X2125500Y2138984D1*
X1933154D1*
X2948370Y3131500D2*
X2869000D1*
X1418685Y2081433D2*
Y2138980D1*
X1469000D1*
X1217346Y2083154D2*
Y2138980D1*
X1269000D1*
X1391504Y2319000D2*
X1331500D1*
X989567Y1944315D2*
X994000D1*
Y1994000D1*
X1131500Y3162587D2*
Y3110929D1*
X1881500Y2138980D2*
X1933154Y2138984D1*
X719197Y2744000D2*
X663606D1*
X3453055Y3358118D2*
X3474000D1*
X3494000Y3338118D1*
Y3358118D1*
X3581500D1*
Y3306500D1*
X3494000Y3338118D2*
Y3306465D1*
X3469197Y2444000D2*
Y2394122D1*
X3631697D1*
Y2444000D1*
X3306696Y2394122D2*
X3306697Y2444000D1*
X2825087Y2531500D2*
X2912587Y2444000D1*
X3131697D1*
X1319000Y3110929D2*
X1358686D1*
X1388685Y3080930D1*
Y2911972D1*
X1358685Y2881972D1*
X1144000D1*
Y2931500D1*
X1319000Y3162587D2*
Y3110929D1*
X1606598Y3228449D2*
X1360038D1*
Y3162587D1*
X1319000D1*
X989567Y1944315D2*
X1097465D1*
Y1883839D1*
X1127465Y1853839D1*
X1239000D1*
X1269000Y1883839D1*
Y1964571D1*
X994000Y1944315D2*
D3*
X719197Y2744000D2*
Y2636500D1*
X749197Y2606500D1*
X994000D1*
X744000Y2856500D2*
X734787D1*
Y2744000D1*
X719197D1*
X989567Y2218685D2*
X987264Y2220988D1*
X807780D1*
Y2091736D1*
X1481500Y1964571D2*
X1438394D1*
X1418685Y1984280D1*
X1933154Y2138984D2*
Y2281610D1*
X1903154Y2311610D1*
X1753154D1*
X1723154Y2281610D1*
Y2183591D1*
X1681500D1*
Y2138980D1*
X663606Y2744000D2*
X594000D1*
D56*
X1270614Y3627819D3*
X3319000Y3358118D3*
X3649906Y3104189D3*
X2406500Y3169000D3*
X2306500Y3219000D3*
X944000Y1781843D3*
X2606500Y2531500D3*
X628134Y2001972D3*
X2532504Y1958000D3*
X1694315Y3181500D3*
X3531500Y2786874D3*
X2283154Y3319000D3*
X3144000Y2775413D3*
X1112587Y1994000D3*
X2164571Y3254500D3*
X2006500Y2610933D3*
X1906500Y2683587D3*
X1864685Y2648087D3*
X1291933Y1419000D3*
X1581500Y1217287D3*
X1309752Y2931500D3*
X2988370Y3487591D3*
Y3273311D3*
X1894000Y1306500D3*
Y1614807D3*
X3231500Y2725587D3*
X3211894Y2353453D3*
X872504Y1419000D3*
X1169000Y1217287D3*
X1469000Y1296067D3*
Y1614807D3*
X623370Y1306500D3*
Y1614807D3*
X744000Y1217287D3*
X880535Y1866146D3*
X1169000Y2100413D3*
Y1917346D3*
X1499000Y2083154D3*
X1581500Y1897421D3*
X2799626Y3231500D3*
X3319000Y3187882D3*
X1973154Y2178984D3*
X899591Y2756504D3*
X1447110D3*
X3549394Y2353453D3*
X3431500Y2746874D3*
X3770295Y2388953D3*
X3831500Y2759374D3*
X3917996Y2340358D3*
X1048370Y1306500D3*
Y1614807D3*
X856500Y2976528D3*
X1274394D3*
X906500Y3012028D3*
X1057004D3*
X2214571Y3256500D3*
X1686795Y3303831D3*
X1913276Y3269000D3*
X1369000Y2087587D3*
X1669000Y2083154D3*
X2106500Y2031500D3*
X1903276Y3360811D3*
X1669000Y1912913D3*
X1418685Y1984280D3*
X1531815Y1939453D3*
X2948370Y3131500D3*
X1418685Y2081433D3*
X1217346Y2083154D3*
X1391504Y2319000D3*
X989567Y1944315D3*
X2825087Y2531500D3*
X3453055Y3358118D3*
X1131500Y3162587D3*
X1319000D3*
X989567Y2218685D3*
X1933154Y2138984D3*
X663606Y2744000D3*
X483826Y3719131D2*
D19*
X1109383D1*
X2991162D2*
X3716513D1*
X483683Y3694262D2*
X1084515D1*
X3016030D2*
X3716513D1*
X483503Y3669394D2*
X1073212D1*
X3027333D2*
X3716513D1*
X483360Y3644525D2*
X1073176D1*
X1316519D2*
X2949381D1*
X3027369D2*
X3716513D1*
X483180Y3619656D2*
X1073176D1*
X1318887D2*
X2949381D1*
X3027369D2*
X3716513D1*
X483037Y3594787D2*
X512629D1*
X669060D2*
X729405D1*
X846005D2*
X1073176D1*
X1305825D2*
X1319952D1*
X1436551D2*
X1693757D1*
X1850152D2*
X1910498D1*
X2027097D2*
X2107358D1*
X2223958D2*
X2587453D1*
X2743884D2*
X2804193D1*
X2920793D2*
X2949381D1*
X3117654D2*
X3177999D1*
X3334430D2*
X3591600D1*
X482893Y3569919D2*
X512629D1*
X669060D2*
X714191D1*
X861184D2*
X1073176D1*
X1259606D2*
X1304773D1*
X1451730D2*
X1693757D1*
X1850152D2*
X1895319D1*
X2042312D2*
X2092143D1*
X2239137D2*
X2587453D1*
X2743884D2*
X2789014D1*
X2936008D2*
X2949381D1*
X3132833D2*
X3177999D1*
X3334430D2*
X3576421D1*
X482714Y3545050D2*
X512629D1*
X669060D2*
X709490D1*
X865885D2*
X1073176D1*
X1259606D2*
X1300036D1*
X1456467D2*
X1693757D1*
X1850152D2*
X1890618D1*
X2047013D2*
X2087443D1*
X2243838D2*
X2587453D1*
X2743884D2*
X2784313D1*
X3137569D2*
X3177999D1*
X3334430D2*
X3571720D1*
X482570Y3520181D2*
X512629D1*
X669060D2*
X713186D1*
X862189D2*
X1073176D1*
X1259606D2*
X1303768D1*
X1452735D2*
X1693757D1*
X1850152D2*
X1894314D1*
X2043317D2*
X2091139D1*
X2240142D2*
X2587453D1*
X2743884D2*
X2788009D1*
X3133837D2*
X3177999D1*
X3334430D2*
X3575416D1*
X482391Y3495312D2*
X512629D1*
X669060D2*
X726894D1*
X848517D2*
X1073176D1*
X1277441D2*
X1317440D1*
X1439063D2*
X1693757D1*
X1867987D2*
X1907986D1*
X2029609D2*
X2104846D1*
X2226470D2*
X2587453D1*
X2743884D2*
X2801681D1*
X2923305D2*
X2940015D1*
X3120166D2*
X3160164D1*
X3334430D2*
X3589088D1*
X482247Y3470444D2*
X512629D1*
X669060D2*
X751187D1*
X824188D2*
X1073176D1*
X1302309D2*
X1356266D1*
X1400237D2*
X1693757D1*
X1892855D2*
X1946812D1*
X1990783D2*
X2143673D1*
X2187643D2*
X2587453D1*
X2743884D2*
X2840508D1*
X2884478D2*
X2942634D1*
X3081339D2*
X3135297D1*
X3334430D2*
X3615391D1*
X482068Y3445575D2*
X530284D1*
X625856D2*
X751187D1*
X824188D2*
X1073176D1*
X1151200D2*
X1231676D1*
X1327176D2*
X1822223D1*
X2181830D2*
X2965959D1*
X3010791D2*
X3110429D1*
X3205929D2*
X3621348D1*
X481924Y3420706D2*
X509687D1*
X606550D2*
X738807D1*
X824188D2*
X1073176D1*
X1151200D2*
X1256544D1*
X1352044D2*
X1576882D1*
X1771494D2*
X1847090D1*
X2198588D2*
X2914178D1*
X3181061D2*
X3268140D1*
X3615224D2*
X3634517D1*
X481745Y3395837D2*
X507498D1*
X581682D2*
X714406D1*
X815073D2*
X904449D1*
X1376912D2*
X1547708D1*
X1800704D2*
X2130073D1*
X2199054D2*
X2892217D1*
X3156193D2*
X3242160D1*
X481601Y3370969D2*
X507498D1*
X580498D2*
X707516D1*
X790241D2*
X880586D1*
X1401780D2*
X1534718D1*
X1813658D2*
X2130073D1*
X2199054D2*
X2889382D1*
X2959943D2*
X3232184D1*
X481422Y3346100D2*
X507498D1*
X580498D2*
X707516D1*
X780517D2*
X874378D1*
X1310490D2*
X1331147D1*
X1708661D2*
X1744677D1*
X1813694D2*
X1955389D1*
X2323429D2*
X2889382D1*
X2958364D2*
X3232184D1*
X3367695D2*
X3582198D1*
X612363Y3321231D2*
X675615D1*
X812382D2*
X861746D1*
X1310490D2*
X1356015D1*
X1813694D2*
X1929373D1*
X2332113D2*
X2889382D1*
X3168466D2*
X3232184D1*
X3367695D2*
X3582198D1*
X612363Y3296362D2*
X675615D1*
X812382D2*
X861746D1*
X1310490D2*
X1380883D1*
X2326264D2*
X2580850D1*
X2749087D2*
X2800641D1*
X3170978D2*
X3232184D1*
X3367695D2*
X3582198D1*
X612363Y3271493D2*
X675615D1*
X812382D2*
X861746D1*
X1083128D2*
X1149932D1*
X1310490D2*
X1650876D1*
X2749087D2*
X2773405D1*
X612363Y3246625D2*
X675615D1*
X812382D2*
X861746D1*
X1083128D2*
X1149932D1*
X1310490D2*
X1655325D1*
X612363Y3221756D2*
X675615D1*
X812382D2*
X861746D1*
X1083128D2*
X1149932D1*
X1310490D2*
X1655325D1*
X2979356D2*
X2992226D1*
X612363Y3196887D2*
X675615D1*
X812382D2*
X861746D1*
X1083128D2*
X1149932D1*
X1310490D2*
X1647933D1*
X2978890D2*
X2992226D1*
X480310Y3172018D2*
X922606D1*
X1070497D2*
X1161236D1*
X1310490D2*
X1646282D1*
X2962132D2*
X2992226D1*
X480166Y3147150D2*
X865694D1*
X1069959D2*
X1137839D1*
X1310490D2*
X1660457D1*
X2744638D2*
X2800641D1*
X2937372D2*
X2992226D1*
X479987Y3122281D2*
X865694D1*
X1053129D2*
X1132493D1*
X1310490D2*
X1919397D1*
X2744638D2*
X2992226D1*
X479843Y3097412D2*
X865694D1*
X1047316D2*
X1132493D1*
X1309342D2*
X1919397D1*
X2270177D2*
X2576400D1*
X2744638D2*
X2992944D1*
X479664Y3072543D2*
X865694D1*
X1047316D2*
X1071992D1*
X1367690D2*
X1919397D1*
X2245309D2*
X2659508D1*
X479520Y3047675D2*
X865694D1*
X1367690D2*
X1919397D1*
X2220441D2*
X2663384D1*
X479341Y3022806D2*
X849474D1*
X1367690D2*
X1445618D1*
X2550253D2*
X2662738D1*
X3692985D2*
X3716513D1*
X479197Y2997937D2*
X812729D1*
X1367690D2*
X1445618D1*
X2565037D2*
X2647989D1*
X3065012D2*
X3716513D1*
X479018Y2973068D2*
X807633D1*
X1084886D2*
X1157037D1*
X1333097D2*
X1445618D1*
X2566796D2*
X2646231D1*
X3066770D2*
X3120871D1*
X3254624D2*
X3308366D1*
X3454642D2*
X3499306D1*
X3663668D2*
X3716513D1*
X478874Y2948199D2*
X817142D1*
X1041000D2*
X1164214D1*
X1355633D2*
X1445618D1*
X2556963D2*
X2656027D1*
X3056974D2*
X3109496D1*
X3265999D2*
X3296991D1*
X3466017D2*
X3482799D1*
X612363Y2923331D2*
X815707D1*
X1047316D2*
X1164214D1*
X1358037D2*
X1445618D1*
X1567385D2*
X1598915D1*
X1914062D2*
X1937913D1*
X2514093D2*
X2698945D1*
X2714082D2*
X2798918D1*
X2814074D2*
X2898928D1*
X2914090D2*
X2998937D1*
X3014049D2*
X3095322D1*
X612363Y2898462D2*
X815707D1*
X1047316D2*
X1164214D1*
X1344975D2*
X1641797D1*
X1937279D2*
X3095322D1*
X612363Y2873593D2*
X815707D1*
X1047316D2*
X1666665D1*
X1962147D2*
X3095322D1*
X612363Y2848724D2*
X815707D1*
X1987015D2*
X3095322D1*
X612363Y2823856D2*
X815707D1*
X2011883D2*
X3095322D1*
X612363Y2798987D2*
X739417D1*
X848589D2*
X867488D1*
X2036750D2*
X3095322D1*
X573788Y2774118D2*
X739417D1*
X2061654D2*
X3095035D1*
X3282147D2*
X3380852D1*
X573788Y2749249D2*
X739417D1*
X2086522D2*
X3103073D1*
X3274037D2*
X3382575D1*
X573788Y2724381D2*
X739417D1*
X2111389D2*
X3182520D1*
X3280496D2*
X3388316D1*
X573788Y2699512D2*
X739417D1*
X935608D2*
X1794699D1*
X558214Y2674643D2*
X855395D1*
X913791D2*
X1794699D1*
X558214Y2649774D2*
X1233507D1*
X1354484D2*
X1794699D1*
X3605176D2*
X3645319D1*
X558214Y2624906D2*
X1233507D1*
X1354484D2*
X1794699D1*
X3480192D2*
X3507810D1*
X3605176D2*
X3645319D1*
X558214Y2600037D2*
X1233435D1*
X1354484D2*
X1794699D1*
X1863681D2*
X1958798D1*
X3342683D2*
X3382826D1*
X3480192D2*
X3507810D1*
X3605176D2*
X3645319D1*
X558214Y2575168D2*
X1208567D1*
X1354484D2*
X1794699D1*
X1863681D2*
X1974300D1*
X2038724D2*
X2588027D1*
X2624964D2*
X2655848D1*
X2757161D2*
X3217759D1*
X3342683D2*
X3371738D1*
X3480192D2*
X3507810D1*
X3605176D2*
X3645319D1*
X816078Y2550299D2*
X1183663D1*
X1354484D2*
X1794699D1*
X1863681D2*
X2561473D1*
X2757161D2*
X3186037D1*
X3480192D2*
X3507810D1*
X3605176D2*
X3645319D1*
X476147Y2525430D2*
X490166D1*
X904497D2*
X1158796D1*
X1267034D2*
X1794699D1*
X1863681D2*
X2557884D1*
X2757161D2*
X3172078D1*
X3480192D2*
X3507810D1*
X3605176D2*
X3645319D1*
X475968Y2500562D2*
X514997D1*
X904497D2*
X1133928D1*
X1242167D2*
X1794699D1*
X1863681D2*
X2569295D1*
X2757161D2*
X3172006D1*
X3480192D2*
X3507810D1*
X3605176D2*
X3714790D1*
X475824Y2475693D2*
X783196D1*
X904497D2*
X1109060D1*
X1217299D2*
X1278649D1*
X1759545D2*
X1794699D1*
X1863681D2*
X3164722D1*
X3248308D2*
X3339693D1*
X3423279D2*
X3502212D1*
X3585799D2*
X3664696D1*
X475645Y2450824D2*
X783519D1*
X904497D2*
X1084192D1*
X1192431D2*
X1253279D1*
X2758704D2*
X3164722D1*
X3248308D2*
X3339693D1*
X3423279D2*
X3502212D1*
X3585799D2*
X3664696D1*
X475501Y2425955D2*
X783519D1*
X904497D2*
X1059325D1*
X1167564D2*
X1244595D1*
X2782818D2*
X2866129D1*
X2946845D2*
X2966139D1*
X3046854D2*
X3164722D1*
X3248308D2*
X3339693D1*
X3423279D2*
X3502212D1*
X3585799D2*
X3664696D1*
X475322Y2401087D2*
X1034457D1*
X1142696D2*
X1244595D1*
X1313576D2*
X1445618D1*
X2788380D2*
X2848977D1*
X3064007D2*
X3164722D1*
X3248308D2*
X3339693D1*
X3423279D2*
X3502212D1*
X3585799D2*
X3636993D1*
X475178Y2376218D2*
X758723D1*
X1117828D2*
X1244595D1*
X1313576D2*
X1445618D1*
X2788380D2*
X2845855D1*
X3067165D2*
X3127294D1*
X3254947D2*
X3302302D1*
X3385888D2*
X3464821D1*
X3592437D2*
X3627305D1*
X474999Y2351349D2*
X733855D1*
X1313576D2*
X1445618D1*
X2788380D2*
X2854001D1*
X3059019D2*
X3127294D1*
X3260832D2*
X3302302D1*
X3385888D2*
X3464821D1*
X3598358D2*
X3627305D1*
X474855Y2326480D2*
X708987D1*
X1313576D2*
X1445618D1*
X1728541D2*
X1784436D1*
X1828550D2*
X1884446D1*
X1928559D2*
X1984455D1*
X2028533D2*
X2084464D1*
X2128542D2*
X2184437D1*
X2228551D2*
X2284447D1*
X2328560D2*
X2384456D1*
X2428534D2*
X2484465D1*
X2528543D2*
X2584439D1*
X2628552D2*
X2684448D1*
X2788380D2*
X2884466D1*
X2928544D2*
X2984440D1*
X3028553D2*
X3127294D1*
X3252255D2*
X3302302D1*
X474712Y2301612D2*
X684120D1*
X792358D2*
X1005857D1*
X1315873D2*
X1410344D1*
X1499492D2*
X1547027D1*
X1711998D2*
X1770262D1*
X1911981D2*
X2719399D1*
X3221646D2*
X3310089D1*
X3723020D2*
X3759323D1*
X3853674D2*
X3889798D1*
X3946220D2*
X4138618D1*
X474532Y2276743D2*
X659252D1*
X767491D2*
X1005857D1*
X1337834D2*
X1389316D1*
X1519659D2*
X1546991D1*
X1616008D2*
X1630852D1*
X1732165D2*
X1749198D1*
X1932148D2*
X2016787D1*
X3246514D2*
X3331511D1*
X3693344D2*
X3936913D1*
X4001087D2*
X4163486D1*
X474389Y2251874D2*
X634384D1*
X742623D2*
X1017484D1*
X1519659D2*
X1532817D1*
X1932148D2*
X1991919D1*
X3304359D2*
X3333629D1*
X3404368D2*
X3865899D1*
X4027426D2*
X4188354D1*
X717755Y2227005D2*
X1017484D1*
X1519659D2*
X1532817D1*
X1932148D2*
X1967051D1*
X2823655D2*
X2914358D1*
X3423638D2*
X3640402D1*
X4035894D2*
X4201631D1*
X692887Y2202136D2*
X1005857D1*
X1519659D2*
X1532817D1*
X2050422D2*
X2410472D1*
X2627368D2*
X2710643D1*
X2827351D2*
X2910626D1*
X3427370D2*
X3615535D1*
X4039985D2*
X4201631D1*
X668020Y2177268D2*
X1005857D1*
X1217694D2*
X1271651D1*
X1417676D2*
X1532817D1*
X1630182D2*
X1732799D1*
X1830201D2*
X1924169D1*
X2025554D2*
X2410472D1*
X2619294D2*
X2718717D1*
X2819313D2*
X2918700D1*
X3419296D2*
X3605021D1*
X3896089D2*
X3916818D1*
X4064853D2*
X4201631D1*
X642650Y2152399D2*
X1005857D1*
X1217694D2*
X1271651D1*
X1417676D2*
X1532817D1*
X1630182D2*
X1704738D1*
X1830201D2*
X1932495D1*
X2013820D2*
X2410472D1*
X2527538D2*
X2551927D1*
X2586065D2*
X2751946D1*
X2786048D2*
X2951928D1*
X2986066D2*
X3051938D1*
X3086076D2*
X3151947D1*
X3186049D2*
X3251920D1*
X3286058D2*
X3351929D1*
X3386067D2*
X3604985D1*
X3683009D2*
X3981482D1*
X4089720D2*
X4313231D1*
X473563Y2127530D2*
X1005857D1*
X1217694D2*
X1271651D1*
X1417676D2*
X1482615D1*
X1515389D2*
X1532817D1*
X1630182D2*
X1652598D1*
X1830201D2*
X2535062D1*
X2683024D2*
X3604985D1*
X3683009D2*
X3756918D1*
X3856079D2*
X4006349D1*
X4114588D2*
X4312549D1*
X473420Y2102661D2*
X1005857D1*
X1217945D2*
X1271651D1*
X1415487D2*
X1454302D1*
X1896874D2*
X2533519D1*
X2708108D2*
X3122594D1*
X3251215D2*
X3604985D1*
X3683009D2*
X3746010D1*
X3933086D2*
X4031217D1*
X4139456D2*
X4311903D1*
X473240Y2077793D2*
X1005857D1*
X1417676D2*
X1432807D1*
X1602910D2*
X1620302D1*
X1917687D2*
X2099607D1*
X2113374D2*
X2535205D1*
X2798895D2*
X2983542D1*
X3079473D2*
X3121015D1*
X3411402D2*
X3596050D1*
X3691980D2*
X3746010D1*
X4026780D2*
X4056085D1*
X4164324D2*
X4239058D1*
X473097Y2052924D2*
X1005857D1*
X2150288D2*
X2662307D1*
X2798895D2*
X2967753D1*
X3095262D2*
X3122630D1*
X3411402D2*
X3475479D1*
X3707733D2*
X3757277D1*
X3855720D2*
X3887322D1*
X4036397D2*
X4080953D1*
X669132Y2028055D2*
X1010271D1*
X2155383D2*
X2664101D1*
X2798895D2*
X2964201D1*
X3098779D2*
X3230533D1*
X3411402D2*
X3450611D1*
X3711286D2*
X3901603D1*
X4036397D2*
X4105820D1*
X677134Y2003186D2*
X1010271D1*
X2145874D2*
X2519022D1*
X2647033D2*
X2664101D1*
X2798895D2*
X2970624D1*
X3113922D2*
X3257446D1*
X3411402D2*
X3425743D1*
X3726429D2*
X3901603D1*
X4036397D2*
X4130688D1*
X670675Y1978318D2*
X1010271D1*
X1217694D2*
X1288732D1*
X1417676D2*
X1532817D1*
X1630182D2*
X1684140D1*
X1817677D2*
X2488161D1*
X2798895D2*
X2991832D1*
X3509114D2*
X3604339D1*
X3866306D2*
X3901711D1*
X4036289D2*
X4215949D1*
X483001Y1953449D2*
X1010271D1*
X1217694D2*
X1270539D1*
X1417676D2*
X1532817D1*
X1630182D2*
X1688195D1*
X1911048D2*
X2473843D1*
X2654497D2*
X3055418D1*
X3484247D2*
X3667926D1*
X3866987D2*
X4307920D1*
X681476Y1928580D2*
X881519D1*
X1106453D2*
X1120328D1*
X1217694D2*
X1269678D1*
X1630182D2*
X1720311D1*
X1956477D2*
X2448976D1*
X2637667D2*
X3080286D1*
X3459379D2*
X3692973D1*
X3864045D2*
X4307238D1*
X681476Y1903711D2*
X850622D1*
X1106453D2*
X1122050D1*
X1215971D2*
X1269678D1*
X1630075D2*
X1731543D1*
X1956477D2*
X2424108D1*
X2532347D2*
X3137521D1*
X3225486D2*
X4306592D1*
X1106453Y1878843D2*
X1140423D1*
X1197563D2*
X1269678D1*
X1956477D2*
X2399240D1*
X2507479D2*
X4305911D1*
X1956477Y1853974D2*
X2374372D1*
X2482611D2*
X4305265D1*
X2457744Y1829105D2*
X4304583D1*
X1017533Y2215185D2*
X1020009D1*
X1020000Y2272813D1*
X1008347Y2272815D1*
Y2324165D1*
X812431Y2324154D1*
X641839Y2153745D1*
X637205Y2150379D1*
X632102Y2147778D1*
X626644Y2146006D1*
X624634Y2145008D1*
Y2135315D1*
X471157D1*
X470560Y2048176D1*
X624486Y2048329D1*
X631782D1*
X638989Y2047187D1*
X645929Y2044932D1*
X652430Y2041620D1*
X658333Y2037331D1*
X663493Y2032171D1*
X667782Y2026268D1*
X671094Y2019767D1*
X673349Y2012827D1*
X674491Y2005620D1*
Y1998324D1*
X673349Y1991117D1*
X671094Y1984177D1*
X667782Y1977676D1*
X663493Y1971773D1*
X658333Y1966613D1*
X652430Y1962324D1*
X645929Y1959012D1*
X638989Y1956757D1*
X631782Y1955615D1*
X624486D1*
X615448Y1955787D1*
X480487D1*
X480500Y1935981D1*
X678965Y1935953D1*
Y1898167D1*
X846829Y1898146D1*
X850336Y1901505D1*
X856239Y1905794D1*
X862740Y1909106D1*
X869680Y1911361D1*
X876887Y1912503D1*
X884027Y1912509D1*
X884036Y1935953D1*
X1103965D1*
Y1860345D1*
X1269963Y1860339D1*
X1272185Y1867712D1*
X1272284Y1948543D1*
X1273069Y1953502D1*
X1274621Y1958278D1*
X1276900Y1962752D1*
X1279852Y1966814D1*
X1295133Y1982235D1*
X1287626Y1983346D1*
X1222815D1*
Y1999530D1*
X1215149Y1987775D1*
X1215357Y1920994D1*
Y1913698D1*
X1214215Y1906491D1*
X1211960Y1899551D1*
X1208648Y1893050D1*
X1204359Y1887147D1*
X1199199Y1881987D1*
X1193296Y1877698D1*
X1186795Y1874386D1*
X1179855Y1872131D1*
X1172648Y1870989D1*
X1165352D1*
X1158145Y1872131D1*
X1151205Y1874386D1*
X1144704Y1877698D1*
X1138801Y1881987D1*
X1133641Y1887147D1*
X1129352Y1893050D1*
X1126040Y1899551D1*
X1123785Y1906491D1*
X1122643Y1913698D1*
Y1920994D1*
X1122815Y1930033D1*
Y1948657D1*
X1116235Y1947643D1*
X1108939D1*
X1099896Y1947815D1*
X1012776D1*
Y2035336D1*
X1008347Y2035315D1*
X1008346Y2215185D1*
X1017533D1*
X571287Y2780758D2*
Y2687972D1*
X555678D1*
X555697Y2565620D1*
X564316Y2556996D1*
X795368Y2556883D1*
X801025Y2555988D1*
X806472Y2554218D1*
X811575Y2551617D1*
X816209Y2548251D1*
X837623Y2526996D1*
X901996D1*
Y2411004D1*
X786004D1*
Y2475344D1*
X777364Y2484017D1*
X546333Y2484108D1*
X540676Y2485004D1*
X535229Y2486774D1*
X530126Y2489374D1*
X525492Y2492741D1*
X493387Y2524687D1*
X489668Y2529042D1*
X486675Y2533925D1*
X484483Y2539217D1*
X483146Y2544786D1*
X482697Y2550507D1*
Y2687968D1*
X474723Y2687972D1*
X471718Y2227665D1*
X612680Y2227685D1*
X773583Y2388409D1*
X778217Y2391775D1*
X783320Y2394376D1*
X788767Y2396146D1*
X794424Y2397041D1*
X843220Y2397154D1*
X1033011D1*
X1236019Y2600137D1*
X1236004Y2664496D1*
X1351996D1*
Y2548504D1*
X1287656D1*
X1104308Y2365190D1*
X1171583Y2365185D1*
Y2351011D1*
X1187841Y2351000D1*
X1187874Y2367153D1*
X1247119D1*
X1247190Y2431401D1*
X1247975Y2436360D1*
X1249527Y2441136D1*
X1251806Y2445610D1*
X1254758Y2449672D1*
X1277463Y2472518D1*
X1281282Y2475779D1*
X1285563Y2478402D1*
X1290202Y2480324D1*
X1295085Y2481496D1*
X1300091Y2481890D1*
X1740621Y2481792D1*
X1745580Y2481006D1*
X1750356Y2479454D1*
X1754830Y2477175D1*
X1758892Y2474223D1*
X1794612Y2438643D1*
X1798984Y2439362D1*
X1797579Y2444884D1*
X1797185Y2449890D1*
Y2708364D1*
X1485315Y2708346D1*
Y2720009D1*
X1475914Y2720003D1*
X1471406Y2716856D1*
X1464905Y2713544D1*
X1457965Y2711289D1*
X1450758Y2710147D1*
X1443462D1*
X1436255Y2711289D1*
X1429315Y2713544D1*
X1422814Y2716856D1*
X1418356Y2720006D1*
X936083Y2720004D1*
X935979Y2711136D1*
X935083Y2705479D1*
X933313Y2700032D1*
X930712Y2694929D1*
X927346Y2690295D1*
X915400Y2678191D1*
X911045Y2674471D1*
X906162Y2671478D1*
X900870Y2669286D1*
X895301Y2667949D1*
X887591Y2667500D1*
X876727Y2667612D1*
X871070Y2668508D1*
X865623Y2670278D1*
X860520Y2672879D1*
X855886Y2676245D1*
X844013Y2687959D1*
X741909Y2687972D1*
Y2800028D1*
X846091D1*
Y2779896D1*
X850870Y2778714D1*
X856171Y2776516D1*
X858159Y2777615D1*
X861972Y2783836D1*
X866711Y2789384D1*
X870008Y2792349D1*
X870000Y2815553D1*
X818189Y2815531D1*
Y2947271D1*
X820378D1*
X816852Y2952232D1*
X813540Y2958733D1*
X811285Y2965673D1*
X810143Y2972880D1*
Y2980176D1*
X811285Y2987383D1*
X813540Y2994323D1*
X816852Y3000824D1*
X821141Y3006727D1*
X826301Y3011887D1*
X832204Y3016176D1*
X838705Y3019488D1*
X845645Y3021743D1*
X852852Y3022885D1*
X860148D1*
X861285Y3022883D1*
X863540Y3029823D1*
X866852Y3036324D1*
X868191Y3038328D1*
X868189Y3159870D1*
X920593D1*
X921786Y3164653D1*
X923978Y3169945D1*
X926978Y3174837D1*
X925782Y3176850D1*
X864252D1*
Y3336150D1*
X876919D1*
X877002Y3353514D1*
X877898Y3359171D1*
X879668Y3364618D1*
X882268Y3369721D1*
X885635Y3374355D1*
X917581Y3406459D1*
X921936Y3410179D1*
X926819Y3413172D1*
X932111Y3415364D1*
X937680Y3416701D1*
X943390Y3417150D1*
X1075695D1*
X1075801Y3670683D1*
X1076697Y3676340D1*
X1078467Y3681787D1*
X1081068Y3686890D1*
X1084434Y3691524D1*
X1116380Y3723628D1*
X1120735Y3727348D1*
X1125618Y3730341D1*
X1130910Y3732533D1*
X1136490Y3733871D1*
X1113457Y3733969D1*
X481433Y3731548D1*
X478844Y3332229D1*
X510031Y3332213D1*
X510105Y3411392D1*
X510939Y3416661D1*
X512588Y3421735D1*
X515010Y3426489D1*
X518146Y3430805D1*
X555101Y3467909D1*
X515138Y3467894D1*
Y3619319D1*
X666563D1*
Y3467894D1*
X624830D1*
X624746Y3452907D1*
X623911Y3447637D1*
X622262Y3442563D1*
X619840Y3437809D1*
X616704Y3433493D1*
X578024Y3394664D1*
X578000Y3332183D1*
X609870Y3332213D1*
Y3180787D1*
X478130D1*
X478003Y3201936D1*
X476010Y2893015D1*
X478130Y2900210D1*
Y2932212D1*
X609870D1*
Y2780787D1*
X571295D1*
X1270894Y2894982D2*
Y2875472D1*
X1166713D1*
X1166712Y2965913D1*
X1143745Y2989035D1*
X1140373Y2993678D1*
X1131753Y2995846D1*
X1100570D1*
X1098436Y2990917D1*
X1094623Y2984696D1*
X1089884Y2979148D1*
X1084336Y2974409D1*
X1078115Y2970596D1*
X1071373Y2967804D1*
X1064278Y2966100D1*
X1057004Y2965528D1*
X1049730Y2966100D1*
X1042635Y2967804D1*
X1038497Y2969396D1*
X1038500Y2947282D1*
X1044811Y2947272D1*
Y2855444D1*
X1485303Y2855429D1*
X1485315Y2871583D1*
X1671188Y2871582D1*
X1618387Y2924358D1*
X1611081Y2923290D1*
X1601919D1*
X1592869Y2924724D1*
X1584155Y2927555D1*
X1575991Y2931715D1*
X1568579Y2937100D1*
X1564884Y2940567D1*
X1564890Y2923110D1*
X1448110D1*
Y3039890D1*
X1564890D1*
Y3022486D1*
X1572179Y3028738D1*
X1579992Y3033526D1*
X1588457Y3037032D1*
X1597366Y3039171D1*
X1606500Y3039890D1*
X1615634Y3039171D1*
X1624543Y3037032D1*
X1633008Y3033526D1*
X1640821Y3028738D1*
X1647788Y3022788D1*
X1653738Y3015821D1*
X1656487Y3011649D1*
X1662100Y3019421D1*
X1668579Y3025900D1*
X1675991Y3031285D1*
X1684155Y3035445D1*
X1692869Y3038276D1*
X1701919Y3039710D1*
X1711081D1*
X1720131Y3038276D1*
X1728845Y3035445D1*
X1737009Y3031285D1*
X1744421Y3025900D1*
X1750900Y3019421D1*
X1756487Y3011649D1*
X1762100Y3019421D1*
X1768579Y3025900D1*
X1775991Y3031285D1*
X1784155Y3035445D1*
X1792869Y3038276D1*
X1801919Y3039710D1*
X1811081D1*
X1820131Y3038276D1*
X1828845Y3035445D1*
X1837009Y3031285D1*
X1844421Y3025900D1*
X1850900Y3019421D1*
X1856487Y3011649D1*
X1862100Y3019421D1*
X1868579Y3025900D1*
X1875991Y3031285D1*
X1884155Y3035445D1*
X1892869Y3038276D1*
X1901919Y3039710D1*
X1911081D1*
X1920131Y3038276D1*
X1921906Y3037776D1*
X1921890Y3223273D1*
X1913276Y3222500D1*
X1909784Y3222637D1*
X1909772Y3130689D1*
X1778032D1*
X1777964Y3132952D1*
X1771813Y3133346D1*
X1697815D1*
Y3135105D1*
X1690667Y3135143D1*
X1683460Y3136285D1*
X1676520Y3138540D1*
X1670019Y3141852D1*
X1664116Y3146141D1*
X1658956Y3151301D1*
X1654667Y3157204D1*
X1651355Y3163705D1*
X1649100Y3170645D1*
X1647958Y3177852D1*
Y3185148D1*
X1649100Y3192355D1*
X1651355Y3199295D1*
X1654667Y3205796D1*
X1657817Y3210254D1*
X1657929Y3266686D1*
X1656596Y3268472D1*
X1653092Y3271841D1*
X1529902Y3271830D1*
Y3287009D1*
X1403497Y3287099D1*
X1398538Y3287884D1*
X1393762Y3289436D1*
X1389288Y3291715D1*
X1385225Y3294667D1*
X1337910Y3341843D1*
X1211878Y3467875D1*
X1148708Y3467894D1*
X1148689Y3417168D1*
X1244364Y3417038D1*
X1250021Y3416142D1*
X1255468Y3414372D1*
X1260571Y3411771D1*
X1265205Y3408405D1*
X1297309Y3376459D1*
X1301029Y3372104D1*
X1304022Y3367221D1*
X1306214Y3361929D1*
X1307551Y3356360D1*
X1308000Y3350650D1*
X1307888Y3103636D1*
X1306992Y3097979D1*
X1305217Y3092522D1*
X1309561Y3092153D1*
X1365185D1*
Y2995846D1*
X1316706D1*
X1318618Y2990897D1*
X1320322Y2983802D1*
X1320889Y2976656D1*
X1327547Y2974460D1*
X1334048Y2971148D1*
X1339951Y2966859D1*
X1345111Y2961699D1*
X1349400Y2955796D1*
X1352712Y2949295D1*
X1354967Y2942355D1*
X1356109Y2935148D1*
Y2927852D1*
X1354967Y2920645D1*
X1352712Y2913705D1*
X1349400Y2907204D1*
X1345111Y2901301D1*
X1339951Y2896141D1*
X1334048Y2891852D1*
X1327547Y2888540D1*
X1320607Y2886285D1*
X1313400Y2885143D1*
X1306104D1*
X1298897Y2886285D1*
X1291957Y2888540D1*
X1285456Y2891852D1*
X1280998Y2895002D1*
X1270889Y2895000D1*
X3194501Y3287689D2*
X3234656D1*
X3234784Y3375129D1*
X3235569Y3380088D1*
X3237121Y3384864D1*
X3239400Y3389338D1*
X3242352Y3393400D1*
X3265058Y3416245D1*
X3268876Y3419507D1*
X3273157Y3422130D1*
X3277796Y3424052D1*
X3282679Y3425224D1*
X3287695Y3425618D1*
X3598196Y3425519D1*
X3603155Y3424734D1*
X3607931Y3423182D1*
X3612405Y3420903D1*
X3616467Y3417951D1*
X3637013Y3397545D1*
X3637000Y3431808D1*
X3625572Y3443391D1*
X3622621Y3447453D1*
X3620341Y3451928D1*
X3618790Y3456703D1*
X3618004Y3461663D1*
X3617905Y3474975D1*
X3610346Y3479051D1*
X3605403Y3482354D1*
X3600734Y3486034D1*
X3596369Y3490069D1*
X3592333Y3494435D1*
X3588653Y3499104D1*
X3585350Y3504047D1*
X3582445Y3509233D1*
X3579956Y3514632D1*
X3577899Y3520210D1*
X3576285Y3525932D1*
X3575125Y3531762D1*
X3574426Y3537666D1*
X3574193Y3543606D1*
X3574426Y3549547D1*
X3575125Y3555450D1*
X3576285Y3561281D1*
X3577899Y3567003D1*
X3579956Y3572580D1*
X3582445Y3577979D1*
X3585350Y3583166D1*
X3588653Y3588109D1*
X3592333Y3592778D1*
X3596369Y3597143D1*
X3600734Y3601179D1*
X3605403Y3604859D1*
X3610346Y3608162D1*
X3615533Y3611067D1*
X3620932Y3613556D1*
X3626509Y3615613D1*
X3632231Y3617227D1*
X3638061Y3618387D1*
X3643965Y3619086D1*
X3649906Y3619319D1*
X3655846Y3619086D1*
X3661750Y3618387D1*
X3667580Y3617227D1*
X3673302Y3615613D1*
X3678879Y3613556D1*
X3684278Y3611067D1*
X3689465Y3608162D1*
X3694408Y3604859D1*
X3699077Y3601179D1*
X3703442Y3597143D1*
X3707478Y3592778D1*
X3711158Y3588109D1*
X3714461Y3583166D1*
X3719009Y3574415D1*
X3719000Y3743985D1*
X1215680Y3734319D1*
X2961234Y3734207D1*
X2966891Y3733311D1*
X2972338Y3731541D1*
X2977441Y3728940D1*
X2982075Y3725574D1*
X3014179Y3693628D1*
X3017899Y3689273D1*
X3020892Y3684390D1*
X3023084Y3679098D1*
X3024421Y3673529D1*
X3024870Y3667819D1*
X3024982Y3611067D1*
X3030380Y3613556D1*
X3035958Y3615613D1*
X3041680Y3617227D1*
X3047510Y3618387D1*
X3053414Y3619086D1*
X3059354Y3619319D1*
X3065295Y3619086D1*
X3071198Y3618387D1*
X3077029Y3617227D1*
X3082751Y3615613D1*
X3088328Y3613556D1*
X3093727Y3611067D1*
X3098914Y3608162D1*
X3103857Y3604859D1*
X3108526Y3601179D1*
X3112891Y3597143D1*
X3116927Y3592778D1*
X3120607Y3588109D1*
X3123910Y3583166D1*
X3126815Y3577979D1*
X3129304Y3572580D1*
X3131361Y3567003D1*
X3132975Y3561281D1*
X3134135Y3555450D1*
X3134834Y3549547D1*
X3135067Y3543606D1*
X3134834Y3537666D1*
X3134135Y3531762D1*
X3132975Y3525932D1*
X3131361Y3520210D1*
X3129304Y3514632D1*
X3126815Y3509233D1*
X3123910Y3504047D1*
X3120607Y3499104D1*
X3116927Y3494435D1*
X3112891Y3490069D1*
X3108526Y3486034D1*
X3103857Y3482354D1*
X3098914Y3479051D1*
X3093727Y3476146D1*
X3088328Y3473657D1*
X3082751Y3471599D1*
X3077029Y3469986D1*
X3071198Y3468826D1*
X3065295Y3468127D1*
X3059354Y3467894D1*
X3053414Y3468127D1*
X3047510Y3468826D1*
X3041680Y3469986D1*
X3032494Y3472877D1*
X3029802Y3466480D1*
X3025989Y3460259D1*
X3021250Y3454711D1*
X3015702Y3449972D1*
X3009481Y3446159D1*
X3002739Y3443367D1*
X2995644Y3441663D1*
X2988370Y3441091D1*
X2981096Y3441663D1*
X2974001Y3443367D1*
X2967259Y3446159D1*
X2961038Y3449972D1*
X2955490Y3454711D1*
X2950751Y3460259D1*
X2946938Y3466480D1*
X2944146Y3473222D1*
X2942442Y3480317D1*
X2941870Y3487591D1*
X2942442Y3494865D1*
X2944146Y3501960D1*
X2946938Y3508702D1*
X2950751Y3514923D1*
X2951872Y3516345D1*
X2951870Y3652694D1*
X2943251Y3661319D1*
X1302853D1*
X1308233Y3655151D1*
X1312046Y3648929D1*
X1314838Y3642188D1*
X1316542Y3635093D1*
X1317114Y3627819D1*
X1316542Y3620545D1*
X1314838Y3613450D1*
X1312046Y3606708D1*
X1308233Y3600487D1*
X1303495Y3594938D1*
X1297946Y3590200D1*
X1291725Y3586387D1*
X1284983Y3583595D1*
X1277888Y3581891D1*
X1270614Y3581319D1*
X1263340Y3581891D1*
X1257110Y3583351D1*
X1257114Y3513137D1*
X1419276Y3350987D1*
X1529916Y3351000D1*
X1529902Y3366169D1*
X1537186D1*
X1537591Y3374594D1*
X1538763Y3379476D1*
X1540685Y3384116D1*
X1543308Y3388397D1*
X1546577Y3392222D1*
X1569414Y3414920D1*
X1573476Y3417872D1*
X1577950Y3420151D1*
X1582726Y3421703D1*
X1587685Y3422488D1*
X1654500Y3422587D1*
X1760696Y3422488D1*
X1765655Y3421703D1*
X1770431Y3420151D1*
X1774905Y3417872D1*
X1778967Y3414920D1*
X1801812Y3392214D1*
X1805074Y3388396D1*
X1807697Y3384115D1*
X1809619Y3379476D1*
X1810791Y3374593D1*
X1811185Y3369577D1*
Y3307328D1*
X1886940Y3307311D1*
X1892165Y3310432D1*
X1898907Y3313224D1*
X1906002Y3314928D1*
X1913276Y3315500D1*
X1920550Y3314928D1*
X1926012Y3313685D1*
X1929557Y3318782D1*
X1952263Y3341627D1*
X1956081Y3344889D1*
X1960362Y3347512D1*
X1965001Y3349434D1*
X1969884Y3350606D1*
X1974890Y3351000D1*
X1990643D1*
X1990630Y3357311D1*
X2116404D1*
X2116418Y3365185D1*
X2132601D1*
X2132571Y3401785D1*
X2125197Y3404067D1*
X1876981Y3404166D1*
X1872022Y3404951D1*
X1867246Y3406503D1*
X1862772Y3408782D1*
X1858710Y3411734D1*
X1811394Y3458910D1*
X1802387Y3467917D1*
X1696240Y3467894D1*
Y3619319D1*
X1847666D1*
Y3513137D1*
X1892752Y3468062D1*
X1962863Y3468127D1*
X1956959Y3468826D1*
X1951128Y3469986D1*
X1945407Y3471599D1*
X1939829Y3473657D1*
X1934430Y3476146D1*
X1929243Y3479051D1*
X1924300Y3482354D1*
X1919632Y3486034D1*
X1915266Y3490069D1*
X1911231Y3494435D1*
X1907550Y3499104D1*
X1904248Y3504047D1*
X1901343Y3509233D1*
X1898854Y3514632D1*
X1896796Y3520210D1*
X1895182Y3525932D1*
X1894023Y3531762D1*
X1893324Y3537666D1*
X1893091Y3543606D1*
X1893324Y3549547D1*
X1894023Y3555450D1*
X1895182Y3561281D1*
X1896796Y3567003D1*
X1898854Y3572580D1*
X1901343Y3577979D1*
X1904248Y3583166D1*
X1907550Y3588109D1*
X1911231Y3592778D1*
X1915266Y3597143D1*
X1919632Y3601179D1*
X1924300Y3604859D1*
X1929243Y3608162D1*
X1934430Y3611067D1*
X1939829Y3613556D1*
X1945407Y3615613D1*
X1951128Y3617227D1*
X1956959Y3618387D1*
X1962863Y3619086D1*
X1968803Y3619319D1*
X1974743Y3619086D1*
X1980647Y3618387D1*
X1986478Y3617227D1*
X1992200Y3615613D1*
X1997777Y3613556D1*
X2003176Y3611067D1*
X2008363Y3608162D1*
X2013306Y3604859D1*
X2017975Y3601179D1*
X2022340Y3597143D1*
X2026375Y3592778D1*
X2030056Y3588109D1*
X2033359Y3583166D1*
X2036264Y3577979D1*
X2038752Y3572580D1*
X2040810Y3567003D1*
X2042424Y3561281D1*
X2043584Y3555450D1*
X2044282Y3549547D1*
X2044516Y3543606D1*
X2044282Y3537666D1*
X2043584Y3531762D1*
X2042424Y3525932D1*
X2040810Y3520210D1*
X2038752Y3514632D1*
X2036264Y3509233D1*
X2033359Y3504047D1*
X2030056Y3499104D1*
X2026375Y3494435D1*
X2022340Y3490069D1*
X2017975Y3486034D1*
X2013306Y3482354D1*
X2008363Y3479051D1*
X2003176Y3476146D1*
X1997777Y3473657D1*
X1992200Y3471599D1*
X1986478Y3469986D1*
X1980647Y3468826D1*
X1973235Y3468068D1*
X2146081Y3467968D1*
X2151040Y3467183D1*
X2155816Y3465631D1*
X2160290Y3463352D1*
X2164352Y3460400D1*
X2187198Y3437694D1*
X2190459Y3433875D1*
X2193083Y3429594D1*
X2195005Y3424955D1*
X2196177Y3420072D1*
X2196571Y3415056D1*
Y3365151D1*
X2277762Y3365185D1*
X2283154Y3365500D1*
X2290428Y3364928D1*
X2297523Y3363224D1*
X2304265Y3360432D1*
X2310486Y3356619D1*
X2316034Y3351880D1*
X2320773Y3346332D1*
X2324586Y3340111D1*
X2327378Y3333369D1*
X2329082Y3326274D1*
X2329654Y3319000D1*
X2329082Y3311726D1*
X2327378Y3304631D1*
X2324586Y3297889D1*
X2320773Y3291668D1*
X2318232Y3288497D1*
X2583353Y3288500D1*
X2583347Y3302685D1*
X2746583D1*
Y3213513D1*
X2756666Y3213705D1*
X2754411Y3220645D1*
X2753269Y3227852D1*
Y3235148D1*
X2754411Y3242355D1*
X2756666Y3249295D1*
X2759978Y3255796D1*
X2764267Y3261699D1*
X2769427Y3266859D1*
X2775330Y3271148D1*
X2781831Y3274460D1*
X2788771Y3276715D1*
X2795978Y3277857D1*
X2803118Y3277863D1*
X2803130Y3319811D1*
X2891872D1*
X2891969Y3385145D1*
X2892754Y3390104D1*
X2894306Y3394880D1*
X2896585Y3399354D1*
X2899537Y3403416D1*
X2922243Y3426261D1*
X2926061Y3429523D1*
X2930342Y3432146D1*
X2934981Y3434068D1*
X2939864Y3435240D1*
X2944880Y3435634D1*
X3103012D1*
X3180511Y3513167D1*
X3180492Y3619319D1*
X3331918D1*
Y3467894D1*
X3225736D1*
X3137015Y3379301D1*
X3132952Y3376349D1*
X3128478Y3374070D1*
X3123703Y3372518D1*
X3118743Y3371733D1*
X3051928Y3371634D1*
X2958091D1*
X2955870Y3364261D1*
X2955981Y3339245D1*
X2960864Y3340417D1*
X2965870Y3340811D1*
X3138980Y3340712D1*
X3143939Y3339927D1*
X3148715Y3338375D1*
X3153189Y3336096D1*
X3157251Y3333144D1*
X3160802Y3329593D1*
X3163754Y3325531D1*
X3166033Y3321057D1*
X3167585Y3316281D1*
X3168370Y3311322D1*
X3168469Y3273824D1*
X3175841Y3271535D1*
X3185351D1*
X3185315Y3287689D1*
X3194501D1*
X3457001D2*
X3584656Y3287724D1*
X3584685Y3359388D1*
X3577312Y3361618D1*
X3365344D1*
X3365357Y3354470D1*
X3365185Y3345431D1*
Y3287694D1*
X3457001Y3287689D1*
X1733305Y3304653D2*
X1747156D1*
X1747185Y3356329D1*
X1739812Y3358587D1*
X1683295D1*
X1683296Y3350201D1*
X1690443Y3350188D1*
X1697650Y3349046D1*
X1704590Y3346791D1*
X1711091Y3343479D1*
X1716994Y3339190D1*
X1722154Y3334030D1*
X1726443Y3328127D1*
X1729755Y3321626D1*
X1732010Y3314686D1*
X1733152Y3307479D1*
X1733263Y3304643D1*
X2667533Y2577685D2*
X2754654D1*
Y2485315D1*
X2658347D1*
Y2494968D1*
X2635342Y2495000D1*
X2630796Y2491852D1*
X2624295Y2488540D1*
X2617355Y2486285D1*
X2610148Y2485143D1*
X2602852D1*
X2595645Y2486285D1*
X2588705Y2488540D1*
X2582204Y2491852D1*
X2576301Y2496141D1*
X2571141Y2501301D1*
X2566852Y2507204D1*
X2563540Y2513705D1*
X2561285Y2520645D1*
X2560143Y2527852D1*
Y2535148D1*
X2561285Y2542355D1*
X2563540Y2549295D1*
X2566852Y2555796D1*
X2571141Y2561699D1*
X2576301Y2566859D1*
X2582204Y2571148D1*
X2588705Y2574460D1*
X2595645Y2576715D1*
X2602852Y2577857D1*
X2610148D1*
X2617355Y2576715D1*
X2624295Y2574460D1*
X2630796Y2571148D1*
X2635254Y2567998D1*
X2658353Y2568000D1*
X2658347Y2577685D1*
X2667533D1*
X1232002Y2079653D2*
X1274165D1*
X1274154Y2180383D1*
X1220847Y2180394D1*
Y2224136D1*
X1215185Y2221222D1*
X1215357Y2104061D1*
Y2096765D1*
X1214215Y2089558D1*
X1212498Y2084077D1*
X1215185Y2084083D1*
Y2063521D1*
X1222815Y2066023D1*
Y2079653D1*
X1232002D1*
X1444502D2*
X1452647D1*
X1452643Y2086802D1*
X1453785Y2094009D1*
X1456040Y2100949D1*
X1459352Y2107450D1*
X1463641Y2113353D1*
X1468801Y2118513D1*
X1474704Y2122802D1*
X1481205Y2126114D1*
X1488145Y2128369D1*
X1495352Y2129511D1*
X1502648D1*
X1509855Y2128369D1*
X1516795Y2126114D1*
X1523296Y2122802D1*
X1529199Y2118513D1*
X1532703Y2115144D1*
X1535315Y2122290D1*
Y2267154D1*
X1549489D1*
X1549599Y2303121D1*
X1550384Y2308080D1*
X1551936Y2312856D1*
X1554215Y2317330D1*
X1557174Y2321400D1*
X1555704Y2323110D1*
X1448110D1*
Y2417880D1*
X1313349Y2417890D1*
X1311091Y2410517D1*
Y2303905D1*
X1330487Y2284361D1*
X1333439Y2280299D1*
X1335718Y2275825D1*
X1337270Y2271049D1*
X1337761Y2268575D1*
X1341188Y2267153D1*
X1389667D1*
X1390494Y2272580D1*
X1392046Y2277356D1*
X1394325Y2281830D1*
X1397277Y2285892D1*
X1419983Y2308737D1*
X1423801Y2311999D1*
X1428082Y2314622D1*
X1432721Y2316544D1*
X1437604Y2317716D1*
X1442610Y2318110D1*
X1471511Y2318011D1*
X1476470Y2317226D1*
X1481246Y2315674D1*
X1485720Y2313395D1*
X1489782Y2310443D1*
X1493333Y2306892D1*
X1496285Y2302830D1*
X1498564Y2298356D1*
X1500116Y2293580D1*
X1500901Y2288621D1*
X1501000Y2282629D1*
X1517154Y2282606D1*
Y2180394D1*
X1420847D1*
Y2187032D1*
X1415185Y2181851D1*
Y2103917D1*
X1412566D1*
X1414215Y2098442D1*
X1415357Y2091235D1*
Y2083939D1*
X1415185Y2074896D1*
Y2063521D1*
X1435350Y2063500D1*
X1435315Y2079653D1*
X1444502D1*
X1527685Y2046532D2*
Y1983346D1*
X1435315D1*
Y1999530D1*
X1415150Y1999500D1*
X1415185Y1935947D1*
X1528965Y1935953D1*
Y1898167D1*
X1534991Y1898146D1*
X1535572Y1904695D1*
X1536304Y1908345D1*
X1535315Y1908346D1*
Y2051171D1*
X1532762Y2051154D1*
X1527687Y2046603D1*
X1686657Y1983346D2*
X1627664D1*
X1627685Y1908346D1*
X1626715Y1908276D1*
X1627857Y1901069D1*
Y1893773D1*
X1626715Y1886566D1*
X1624460Y1879626D1*
X1623559Y1877670D1*
X1639948Y1893901D1*
X1644581Y1897267D1*
X1649685Y1899867D1*
X1655132Y1901637D1*
X1660789Y1902533D1*
X1709584Y1902646D1*
X1734022D1*
X1734036Y1920821D1*
X1722815Y1920846D1*
Y1937030D1*
X1716143Y1937099D1*
X1711184Y1937884D1*
X1706408Y1939436D1*
X1701934Y1941715D1*
X1697872Y1944667D1*
X1694321Y1948218D1*
X1691369Y1952280D1*
X1689090Y1956754D1*
X1687538Y1961530D1*
X1686753Y1966489D1*
X1686654Y1983318D1*
X1901007Y2079653D2*
X1915185D1*
Y2063470D1*
X2072786Y2063500D1*
X2076301Y2066859D1*
X2082204Y2071148D1*
X2088705Y2074460D1*
X2095645Y2076715D1*
X2102852Y2077857D1*
X2110148D1*
X2117355Y2076715D1*
X2124295Y2074460D1*
X2130796Y2071148D1*
X2136699Y2066859D1*
X2141859Y2061699D1*
X2146148Y2055796D1*
X2149460Y2049295D1*
X2151715Y2042355D1*
X2152857Y2035148D1*
Y2027852D1*
X2151715Y2020645D1*
X2149460Y2013705D1*
X2146148Y2007204D1*
X2141859Y2001301D1*
X2136699Y1996141D1*
X2130796Y1991852D1*
X2124295Y1988540D1*
X2117355Y1986285D1*
X2110148Y1985143D1*
X2102852D1*
X2095645Y1986285D1*
X2088705Y1988540D1*
X2082204Y1991852D1*
X2076301Y1996141D1*
X2072797Y1999510D1*
X1915201Y1999500D1*
X1915185Y1983346D1*
X1822815D1*
Y2051131D1*
X1815185Y2047337D1*
Y1956976D1*
X1896511Y1956855D1*
X1901470Y1956069D1*
X1906246Y1954517D1*
X1910720Y1952238D1*
X1914782Y1949286D1*
X1918333Y1945735D1*
X1921285Y1941673D1*
X1923568Y1937190D1*
X1925899Y1935953D1*
X1953965D1*
Y1839317D1*
X2362226Y1839339D1*
X2486345Y1963460D1*
X2487289Y1968855D1*
X2489544Y1975795D1*
X2492856Y1982296D1*
X2497145Y1988199D1*
X2502305Y1993359D1*
X2508208Y1997648D1*
X2514709Y2000960D1*
X2521649Y2003215D1*
X2528856Y2004357D1*
X2534984Y2004492D1*
X2540641Y2005388D1*
X2543516Y2005500D1*
X2546928Y2006187D1*
X2550473Y2008360D1*
X2554315Y2009951D1*
X2558358Y2010922D1*
X2562504Y2011248D1*
X2627575Y2011167D1*
X2631682Y2010516D1*
X2635637Y2009231D1*
X2639342Y2007343D1*
X2642707Y2004899D1*
X2645647Y2001959D1*
X2648091Y1998595D1*
X2649979Y1994890D1*
X2651264Y1990935D1*
X2651915Y1986828D1*
Y1951173D1*
X2651264Y1947066D1*
X2649979Y1943111D1*
X2648091Y1939406D1*
X2645647Y1936042D1*
X2642707Y1933101D1*
X2639342Y1930657D1*
X2635637Y1928769D1*
X2631682Y1927484D1*
X2627575Y1926834D1*
X2566964Y1926752D1*
X2562703Y1922641D1*
X2556800Y1918352D1*
X2550299Y1915040D1*
X2543359Y1912785D1*
X2537979Y1911860D1*
X2445120Y1818997D1*
X4306837Y1819000D1*
X4310841Y1969438D1*
X4302903Y1963676D1*
X4293831Y1959053D1*
X4284147Y1955907D1*
X4274091Y1954314D1*
X4263909D1*
X4253853Y1955907D1*
X4244169Y1959053D1*
X4235097Y1963676D1*
X4226860Y1969660D1*
X4219660Y1976860D1*
X4215412Y1982499D1*
X4166136Y1982613D1*
X4160479Y1983508D1*
X4155032Y1985278D1*
X4149929Y1987879D1*
X4145295Y1991245D1*
X4110712Y2025669D1*
X3981127Y2155254D1*
X3974091Y2154314D1*
X3963909D1*
X3953853Y2155907D1*
X3944169Y2159053D1*
X3935097Y2163676D1*
X3926860Y2169660D1*
X3919660Y2176860D1*
X3915412Y2182499D1*
X3899349Y2182500D1*
X3895453Y2178745D1*
X3890820Y2175379D1*
X3885716Y2172779D1*
X3880269Y2171009D1*
X3874612Y2170113D1*
X3854488Y2170000D1*
X3850027Y2167140D1*
X3846185Y2165549D1*
X3842142Y2164578D1*
X3837996Y2164252D1*
X3772925Y2164334D1*
X3768818Y2164984D1*
X3764863Y2166269D1*
X3761158Y2168157D1*
X3759421Y2169318D1*
X3751382Y2170000D1*
X3689123D1*
X3680500Y2161381D1*
Y2085175D1*
X3686140Y2080840D1*
X3693340Y2073640D1*
X3699324Y2065403D1*
X3703947Y2056331D1*
X3707093Y2046647D1*
X3708686Y2036591D1*
Y2026409D1*
X3707703Y2019417D1*
X3734132Y1992987D1*
X3758508Y1993000D1*
X3762973Y1995860D1*
X3766815Y1997451D1*
X3770858Y1998422D1*
X3775004Y1998748D1*
X3840075Y1998667D1*
X3844182Y1998016D1*
X3848137Y1996731D1*
X3851842Y1994843D1*
X3855206Y1992399D1*
X3858147Y1989459D1*
X3860591Y1986095D1*
X3862479Y1982389D1*
X3863764Y1978435D1*
X3864414Y1974328D1*
Y1938673D1*
X3863764Y1934566D1*
X3862479Y1930611D1*
X3860591Y1926906D1*
X3858147Y1923542D1*
X3855206Y1920602D1*
X3851842Y1918157D1*
X3848137Y1916269D1*
X3844182Y1914984D1*
X3840075Y1914334D1*
X3775004Y1914252D1*
X3770858Y1914579D1*
X3766815Y1915549D1*
X3762973Y1917141D1*
X3759421Y1919318D1*
X3751382Y1920000D1*
X3716136Y1920113D1*
X3710479Y1921009D1*
X3705032Y1922779D1*
X3699928Y1925379D1*
X3695295Y1928745D1*
X3656119Y1967762D1*
X3649091Y1966814D1*
X3638909D1*
X3628853Y1968407D1*
X3619169Y1971553D1*
X3610097Y1976176D1*
X3601860Y1982160D1*
X3594660Y1989360D1*
X3590412Y1994999D1*
X3523321Y1995000D1*
X3444394Y1916245D1*
X3439761Y1912879D1*
X3434657Y1910279D1*
X3429210Y1908509D1*
X3423553Y1907613D1*
X3374758Y1907500D1*
X3229462D1*
X3225027Y1904641D1*
X3221185Y1903049D1*
X3217142Y1902078D1*
X3212996Y1901752D1*
X3147925Y1901834D1*
X3143818Y1902484D1*
X3139863Y1903769D1*
X3136158Y1905657D1*
X3134421Y1906818D1*
X3126382Y1907500D1*
X3116136Y1907613D1*
X3110479Y1908509D1*
X3105032Y1910279D1*
X3099928Y1912879D1*
X3095295Y1916245D1*
X3060712Y1950670D1*
X3043635Y1967746D1*
X3036591Y1966814D1*
X3026409D1*
X3016353Y1968407D1*
X3006669Y1971553D1*
X2997597Y1976176D1*
X2989360Y1982160D1*
X2982160Y1989360D1*
X2976176Y1997597D1*
X2971553Y2006669D1*
X2968407Y2016353D1*
X2966814Y2026409D1*
Y2036591D1*
X2968407Y2046647D1*
X2971553Y2056331D1*
X2976176Y2065403D1*
X2982160Y2073640D1*
X2989360Y2080840D1*
X2997597Y2086824D1*
X3006669Y2091447D1*
X3016353Y2094593D1*
X3026409Y2096186D1*
X3036591D1*
X3046647Y2094593D1*
X3056331Y2091447D1*
X3065403Y2086824D1*
X3073640Y2080840D1*
X3080840Y2073640D1*
X3086824Y2065403D1*
X3091447Y2056331D1*
X3094593Y2046647D1*
X3096186Y2036591D1*
Y2026409D1*
X3095203Y2019417D1*
X3133863Y1980756D1*
X3137973Y1983360D1*
X3141815Y1984951D1*
X3145858Y1985922D1*
X3150004Y1986248D1*
X3215075Y1986167D1*
X3219182Y1985516D1*
X3223137Y1984231D1*
X3226842Y1982343D1*
X3228579Y1981182D1*
X3236618Y1980500D1*
X3279141D1*
X3279114Y1999520D1*
X3272343Y1999599D1*
X3267384Y2000384D1*
X3262608Y2001936D1*
X3258134Y2004215D1*
X3254072Y2007167D1*
X3223376Y2037723D1*
X3219182Y2036343D1*
X3215075Y2035692D1*
X3150004Y2035610D1*
X3145858Y2035937D1*
X3141815Y2036907D1*
X3137973Y2038499D1*
X3134428Y2040671D1*
X3131266Y2043372D1*
X3128565Y2046534D1*
X3126392Y2050080D1*
X3124801Y2053922D1*
X3123830Y2057965D1*
X3123504Y2062111D1*
X3123585Y2095686D1*
X3124236Y2099793D1*
X3125521Y2103748D1*
X3127409Y2107453D1*
X3129853Y2110817D1*
X3132793Y2113758D1*
X3136158Y2116202D1*
X3139863Y2118090D1*
X3143818Y2119375D1*
X3147925Y2120025D1*
X3212996Y2120107D1*
X3217142Y2119781D1*
X3221185Y2118810D1*
X3225027Y2117218D1*
X3228572Y2115046D1*
X3231735Y2112345D1*
X3233152Y2110811D1*
X3235966Y2108974D1*
X3240741Y2107423D1*
X3245215Y2105143D1*
X3249278Y2102192D1*
X3279110Y2072499D1*
X3279114Y2096386D1*
X3408886D1*
Y1983817D1*
X3484484Y2059255D1*
X3489118Y2062621D1*
X3494221Y2065222D1*
X3499668Y2066992D1*
X3505325Y2067888D1*
X3554121Y2068000D1*
X3590328D1*
X3594660Y2073640D1*
X3601860Y2080840D1*
X3607499Y2085088D1*
X3607612Y2179364D1*
X3608508Y2185021D1*
X3610278Y2190468D1*
X3612879Y2195571D1*
X3616245Y2200205D1*
X3648191Y2232310D1*
X3652546Y2236029D1*
X3657430Y2239022D1*
X3662721Y2241214D1*
X3668290Y2242551D1*
X3674000Y2243000D1*
X3758508D1*
X3762973Y2245860D1*
X3766815Y2247451D1*
X3770858Y2248422D1*
X3775004Y2248749D1*
X3840075Y2248667D1*
X3844182Y2248016D1*
X3848137Y2246731D1*
X3851842Y2244843D1*
X3853579Y2243682D1*
X3858439Y2244809D1*
X3862794Y2248529D1*
X3867677Y2251522D1*
X3872969Y2253714D1*
X3878538Y2255051D1*
X3884248Y2255500D1*
X3915360D1*
X3919660Y2261140D1*
X3926860Y2268340D1*
X3935097Y2274324D1*
X3944169Y2278947D1*
X3953853Y2282093D1*
X3963909Y2283686D1*
X3974091D1*
X3984147Y2282093D1*
X3993831Y2278947D1*
X4002903Y2274324D1*
X4011140Y2268340D1*
X4018340Y2261140D1*
X4024324Y2252903D1*
X4028947Y2243831D1*
X4032093Y2234147D1*
X4033686Y2224091D1*
Y2213909D1*
X4032703Y2206917D1*
X4184124Y2055494D1*
X4215326Y2055500D1*
X4219660Y2061140D1*
X4226860Y2068340D1*
X4235097Y2074324D1*
X4244169Y2078947D1*
X4253853Y2082093D1*
X4263909Y2083686D1*
X4274091D1*
X4284147Y2082093D1*
X4293831Y2078947D1*
X4302903Y2074324D1*
X4311140Y2068340D1*
X4313434Y2066219D1*
X4315765Y2154105D1*
X4204114Y2154114D1*
Y2238621D1*
X4134397Y2308348D1*
X3951750Y2308358D1*
X3945328Y2302739D1*
X3939107Y2298926D1*
X3932365Y2296134D1*
X3925270Y2294430D1*
X3917996Y2293858D1*
X3910722Y2294430D1*
X3903627Y2296134D1*
X3896885Y2298926D1*
X3890664Y2302739D1*
X3885116Y2307478D1*
X3884293Y2308368D1*
X3858895Y2308358D1*
X3855206Y2304460D1*
X3851842Y2302016D1*
X3848137Y2300128D1*
X3844182Y2298843D1*
X3840075Y2298192D1*
X3775004Y2298111D1*
X3770858Y2298437D1*
X3766815Y2299408D1*
X3762973Y2300999D1*
X3759428Y2303172D1*
X3756266Y2305872D1*
X3754848Y2307407D1*
X3751382Y2308359D1*
X3727304D1*
X3701554Y2282781D1*
X3697492Y2279829D1*
X3693018Y2277550D1*
X3688242Y2275998D1*
X3683283Y2275212D1*
X3616468Y2275114D1*
X3341588Y2275212D1*
X3336628Y2275998D1*
X3331852Y2277550D1*
X3327378Y2279829D1*
X3323316Y2282781D1*
X3319765Y2286332D1*
X3316814Y2290394D1*
X3314534Y2294868D1*
X3312982Y2299644D1*
X3312197Y2304613D1*
X3309903Y2306279D1*
X3304803D1*
Y2400618D1*
X3342231D1*
X3342205Y2491169D1*
X3349489D1*
X3349599Y2546511D1*
X3350384Y2551470D1*
X3351936Y2556246D1*
X3354215Y2560720D1*
X3357167Y2564782D1*
X3360718Y2568333D1*
X3364780Y2571285D1*
X3369254Y2573564D1*
X3374030Y2575116D1*
X3378989Y2575901D1*
X3385340Y2576000D1*
X3385315Y2616063D1*
X3340175Y2616087D1*
X3340185Y2495846D1*
X3247815D1*
Y2512030D1*
X3238500Y2495441D1*
Y2491171D1*
X3245795Y2491169D1*
Y2396831D1*
X3228679D1*
X3236190Y2393101D1*
X3242093Y2388812D1*
X3247253Y2383652D1*
X3251542Y2377749D1*
X3254854Y2371248D1*
X3257109Y2364308D1*
X3258251Y2357101D1*
Y2349805D1*
X3257109Y2342598D1*
X3254854Y2335658D1*
X3251542Y2329157D1*
X3247253Y2323254D1*
X3242093Y2318094D1*
X3236190Y2313805D1*
X3229689Y2310493D1*
X3222749Y2308238D1*
X3215542Y2307096D1*
X3213333Y2307010D1*
X3216606Y2304148D1*
X3259101Y2261654D1*
X3264604Y2262355D1*
X3273396D1*
X3282079Y2260980D1*
X3290441Y2258263D1*
X3298274Y2254271D1*
X3305387Y2249104D1*
X3311604Y2242887D1*
X3316771Y2235774D1*
X3319079Y2231936D1*
X3323673Y2239432D1*
X3329383Y2246117D1*
X3336068Y2251827D1*
X3343564Y2256421D1*
X3351687Y2259785D1*
X3360235Y2261838D1*
X3369000Y2262528D1*
X3377765Y2261838D1*
X3386313Y2259785D1*
X3394436Y2256421D1*
X3401932Y2251827D1*
X3408617Y2246117D1*
X3414327Y2239432D1*
X3418921Y2231936D1*
X3422285Y2223813D1*
X3424338Y2215265D1*
X3425028Y2206500D1*
X3424338Y2197735D1*
X3422285Y2189187D1*
X3418921Y2181064D1*
X3414327Y2173568D1*
X3408617Y2166883D1*
X3401932Y2161173D1*
X3394436Y2156579D1*
X3386313Y2153215D1*
X3377765Y2151162D1*
X3369000Y2150472D1*
X3360235Y2151162D1*
X3351687Y2153215D1*
X3343564Y2156579D1*
X3336068Y2161173D1*
X3329383Y2166883D1*
X3323673Y2173568D1*
X3319000Y2181236D1*
X3314327Y2173568D1*
X3308617Y2166883D1*
X3301932Y2161173D1*
X3294436Y2156579D1*
X3286313Y2153215D1*
X3277765Y2151162D1*
X3269000Y2150472D1*
X3260235Y2151162D1*
X3251687Y2153215D1*
X3243564Y2156579D1*
X3236068Y2161173D1*
X3229383Y2166883D1*
X3223673Y2173568D1*
X3219000Y2181236D1*
X3214327Y2173568D1*
X3208617Y2166883D1*
X3201932Y2161173D1*
X3194436Y2156579D1*
X3186313Y2153215D1*
X3177765Y2151162D1*
X3169000Y2150472D1*
X3160235Y2151162D1*
X3151687Y2153215D1*
X3143564Y2156579D1*
X3136068Y2161173D1*
X3129383Y2166883D1*
X3123673Y2173568D1*
X3119000Y2181236D1*
X3114327Y2173568D1*
X3108617Y2166883D1*
X3101932Y2161173D1*
X3094436Y2156579D1*
X3086313Y2153215D1*
X3077765Y2151162D1*
X3069000Y2150472D1*
X3060235Y2151162D1*
X3051687Y2153215D1*
X3043564Y2156579D1*
X3036068Y2161173D1*
X3029383Y2166883D1*
X3023673Y2173568D1*
X3019000Y2181236D1*
X3014327Y2173568D1*
X3008617Y2166883D1*
X3001932Y2161173D1*
X2994436Y2156579D1*
X2986313Y2153215D1*
X2977765Y2151162D1*
X2969000Y2150472D1*
X2960235Y2151162D1*
X2951687Y2153215D1*
X2943564Y2156579D1*
X2936068Y2161173D1*
X2929383Y2166883D1*
X2923673Y2173568D1*
X2919079Y2181064D1*
X2915715Y2189187D1*
X2913662Y2197735D1*
X2912972Y2206500D1*
X2913662Y2215265D1*
X2915715Y2223813D1*
X2919079Y2231936D1*
X2923673Y2239432D1*
X2929383Y2246117D1*
X2933139Y2249519D1*
X2804880Y2249528D1*
X2811604Y2242887D1*
X2816771Y2235774D1*
X2820763Y2227941D1*
X2823480Y2219579D1*
X2824855Y2210896D1*
Y2202104D1*
X2823480Y2193421D1*
X2820763Y2185059D1*
X2816771Y2177226D1*
X2811604Y2170113D1*
X2805387Y2163896D1*
X2798274Y2158729D1*
X2790441Y2154737D1*
X2782079Y2152020D1*
X2773396Y2150645D1*
X2764604D1*
X2755921Y2152020D1*
X2747559Y2154737D1*
X2739726Y2158729D1*
X2732613Y2163896D1*
X2726396Y2170113D1*
X2721229Y2177226D1*
X2717237Y2185059D1*
X2714520Y2193421D1*
X2713145Y2202104D1*
X2713139Y2210741D1*
X2704343Y2219538D1*
X2623482Y2219528D1*
X2624855Y2210896D1*
Y2202104D1*
X2623480Y2193421D1*
X2620763Y2185059D1*
X2616771Y2177226D1*
X2611604Y2170113D1*
X2605387Y2163896D1*
X2598274Y2158729D1*
X2590441Y2154737D1*
X2582079Y2152020D1*
X2573396Y2150645D1*
X2564604D1*
X2555921Y2152020D1*
X2547559Y2154737D1*
X2539726Y2158729D1*
X2532613Y2163896D1*
X2526396Y2170113D1*
X2525024Y2171854D1*
X2525028Y2150472D1*
X2412973D1*
Y2219549D1*
X2065339Y2219528D1*
X2019347Y2173559D1*
X2018369Y2168129D1*
X2016114Y2161189D1*
X2012802Y2154688D1*
X2008513Y2148785D1*
X2003353Y2143625D1*
X1997450Y2139336D1*
X1990949Y2136024D1*
X1984009Y2133769D1*
X1976802Y2132627D1*
X1969506D1*
X1962299Y2133769D1*
X1955359Y2136024D1*
X1948858Y2139336D1*
X1942955Y2143625D1*
X1937795Y2148785D1*
X1933506Y2154688D1*
X1930194Y2161189D1*
X1927939Y2168129D1*
X1926797Y2175336D1*
X1926709Y2180395D1*
X1833347Y2180393D1*
Y2254135D1*
X1827685Y2236281D1*
Y2115131D1*
X1871511Y2115055D1*
X1876470Y2114270D1*
X1881246Y2112718D1*
X1885720Y2110439D1*
X1889782Y2107487D1*
X1893333Y2103936D1*
X1896285Y2099874D1*
X1898564Y2095400D1*
X1900116Y2090624D1*
X1900901Y2085665D1*
X1901000Y2079673D1*
X3263476Y2945106D2*
X3279654D1*
Y2750374D1*
X3270862D1*
X3274460Y2743382D1*
X3276715Y2736442D1*
X3277857Y2729235D1*
X3277863Y2722095D1*
X3392148Y2722087D1*
X3388540Y2729079D1*
X3386285Y2736019D1*
X3385143Y2743226D1*
X3385137Y2750366D1*
X3383347Y2750374D1*
Y2792681D1*
X3379695Y2791577D1*
X3377685Y2783361D1*
Y2778917D1*
X3285315D1*
Y2942153D1*
X3299489D1*
X3299599Y2951121D1*
X3300384Y2956080D1*
X3301936Y2960856D1*
X3304216Y2965330D1*
X3307167Y2969392D1*
X3310718Y2972943D1*
X3314780Y2975894D1*
X3319254Y2978174D1*
X3324030Y2979726D1*
X3328989Y2980511D1*
X3395804Y2980610D1*
X3434011Y2980511D1*
X3438970Y2979726D1*
X3443746Y2978174D1*
X3448220Y2975895D1*
X3452282Y2972943D1*
X3455833Y2969392D1*
X3458785Y2965330D1*
X3461064Y2960856D1*
X3462616Y2956080D1*
X3463401Y2951121D1*
X3463500Y2945129D1*
X3479654Y2945106D1*
Y2881986D1*
X3484444Y2880801D1*
X3485315Y2885905D1*
Y2954653D1*
X3499489D1*
X3499599Y2963621D1*
X3500384Y2968580D1*
X3501936Y2973356D1*
X3504215Y2977830D1*
X3507167Y2981892D1*
X3510718Y2985443D1*
X3514780Y2988395D1*
X3519254Y2990674D1*
X3524030Y2992226D1*
X3528989Y2993011D1*
X3595804Y2993110D1*
X3634011Y2993011D1*
X3638970Y2992226D1*
X3643746Y2990674D1*
X3648220Y2988395D1*
X3652282Y2985443D1*
X3655833Y2981892D1*
X3658785Y2977830D1*
X3661064Y2973356D1*
X3662616Y2968580D1*
X3663401Y2963621D1*
X3663500Y2957629D1*
X3679654Y2957606D1*
Y2891400D1*
X3685104Y2888113D1*
X3685315Y2913464D1*
Y2954653D1*
X3719010D1*
X3719000Y3159144D1*
X3714405Y3155750D1*
X3709922Y3153467D1*
X3709739Y3152282D1*
X3712691Y3148220D1*
X3714970Y3143746D1*
X3716522Y3138970D1*
X3717307Y3134011D1*
X3717406Y3062980D1*
X3717012Y3057974D1*
X3715840Y3053091D1*
X3713918Y3048452D1*
X3711295Y3044171D1*
X3708034Y3040352D1*
X3685188Y3017647D1*
X3681126Y3014695D1*
X3676652Y3012416D1*
X3671876Y3010864D1*
X3666917Y3010078D1*
X3600102Y3009980D1*
X3057497D1*
X3060445Y3003845D1*
X3063276Y2995131D1*
X3064710Y2986081D1*
Y2976919D1*
X3063276Y2967869D1*
X3060445Y2959155D1*
X3056285Y2950991D1*
X3050900Y2943579D1*
X3044421Y2937100D1*
X3037009Y2931715D1*
X3028845Y2927555D1*
X3020131Y2924724D1*
X3011081Y2923290D1*
X3001919D1*
X2992869Y2924724D1*
X2984155Y2927555D1*
X2975991Y2931715D1*
X2968579Y2937100D1*
X2962100Y2943579D1*
X2956513Y2951351D1*
X2950900Y2943579D1*
X2944421Y2937100D1*
X2937009Y2931715D1*
X2928845Y2927555D1*
X2920131Y2924724D1*
X2911081Y2923290D1*
X2901919D1*
X2892869Y2924724D1*
X2884155Y2927555D1*
X2875991Y2931715D1*
X2868579Y2937100D1*
X2862100Y2943579D1*
X2856513Y2951351D1*
X2850900Y2943579D1*
X2844421Y2937100D1*
X2837009Y2931715D1*
X2828845Y2927555D1*
X2820131Y2924724D1*
X2811081Y2923290D1*
X2801919D1*
X2792869Y2924724D1*
X2784155Y2927555D1*
X2775991Y2931715D1*
X2768579Y2937100D1*
X2762100Y2943579D1*
X2756513Y2951351D1*
X2750900Y2943579D1*
X2744421Y2937100D1*
X2737009Y2931715D1*
X2728845Y2927555D1*
X2720131Y2924724D1*
X2711081Y2923290D1*
X2701919D1*
X2692869Y2924724D1*
X2684155Y2927555D1*
X2675991Y2931715D1*
X2668579Y2937100D1*
X2662100Y2943579D1*
X2656715Y2950991D1*
X2652555Y2959155D1*
X2649724Y2967869D1*
X2648290Y2976919D1*
Y2986081D1*
X2649724Y2995131D1*
X2652555Y3003845D1*
X2656715Y3012009D1*
X2662100Y3019421D1*
X2668579Y3025900D1*
X2675991Y3031285D1*
X2678851Y3032887D1*
X2669667Y3042199D1*
X2666715Y3046261D1*
X2664436Y3050735D1*
X2662884Y3055511D1*
X2662098Y3060470D1*
X2662000Y3085337D1*
X2578917Y3085315D1*
Y3099489D1*
X2269772Y3099500D1*
X2210034Y3039779D1*
X2215634Y3039171D1*
X2224543Y3037032D1*
X2233008Y3033526D1*
X2240821Y3028738D1*
X2247788Y3022788D1*
X2253738Y3015821D1*
X2256487Y3011649D1*
X2262100Y3019421D1*
X2268579Y3025900D1*
X2275991Y3031285D1*
X2284155Y3035445D1*
X2292869Y3038276D1*
X2301919Y3039710D1*
X2311081D1*
X2320131Y3038276D1*
X2328845Y3035445D1*
X2337009Y3031285D1*
X2344421Y3025900D1*
X2350900Y3019421D1*
X2356487Y3011649D1*
X2362100Y3019421D1*
X2368579Y3025900D1*
X2375991Y3031285D1*
X2384155Y3035445D1*
X2392869Y3038276D1*
X2401919Y3039710D1*
X2411081D1*
X2420131Y3038276D1*
X2428845Y3035445D1*
X2437009Y3031285D1*
X2444421Y3025900D1*
X2450900Y3019421D1*
X2456487Y3011649D1*
X2462100Y3019421D1*
X2468579Y3025900D1*
X2475991Y3031285D1*
X2484155Y3035445D1*
X2492869Y3038276D1*
X2501919Y3039710D1*
X2511081D1*
X2520131Y3038276D1*
X2528845Y3035445D1*
X2537009Y3031285D1*
X2544421Y3025900D1*
X2550900Y3019421D1*
X2556285Y3012009D1*
X2560445Y3003845D1*
X2563276Y2995131D1*
X2564710Y2986081D1*
Y2976919D1*
X2563276Y2967869D1*
X2560445Y2959155D1*
X2556285Y2950991D1*
X2550900Y2943579D1*
X2544421Y2937100D1*
X2537009Y2931715D1*
X2528845Y2927555D1*
X2520131Y2924724D1*
X2511081Y2923290D1*
X2501919D1*
X2494643Y2924371D1*
X2479892Y2909777D1*
X2475830Y2906825D1*
X2471356Y2904546D1*
X2466580Y2902994D1*
X2461621Y2902209D1*
X2394806Y2902110D1*
X1972379Y2902209D1*
X1967420Y2902994D1*
X1962644Y2904546D1*
X1958170Y2906825D1*
X1954108Y2909777D1*
X1933816Y2929929D1*
X1928845Y2927555D1*
X1920131Y2924724D1*
X1911081Y2923290D1*
X1909990Y2923247D1*
X2111159Y2722096D1*
X3185096Y2722087D1*
X3185143Y2729235D1*
X3186285Y2736442D1*
X3188540Y2743382D1*
X3192177Y2750369D1*
X3183347Y2750374D1*
X3179359Y2745214D1*
X3174199Y2740054D1*
X3168296Y2735765D1*
X3161795Y2732453D1*
X3154855Y2730198D1*
X3147648Y2729056D1*
X3140352D1*
X3133145Y2730198D1*
X3126205Y2732453D1*
X3119704Y2735765D1*
X3113801Y2740054D1*
X3108641Y2745214D1*
X3104352Y2751117D1*
X3101040Y2757618D1*
X3098785Y2764558D1*
X3097643Y2771765D1*
Y2779061D1*
X3097815Y2788104D1*
Y2942153D1*
X3111989D1*
X3112098Y2951121D1*
X3112884Y2956080D1*
X3114436Y2960856D1*
X3116715Y2965330D1*
X3119667Y2969392D1*
X3123218Y2972943D1*
X3127280Y2975895D1*
X3131754Y2978174D1*
X3136530Y2979726D1*
X3141489Y2980512D1*
X3208304Y2980610D1*
X3234011Y2980512D1*
X3238970Y2979726D1*
X3243746Y2978174D1*
X3248220Y2975895D1*
X3252282Y2972943D1*
X3255833Y2969392D1*
X3258785Y2965330D1*
X3261064Y2960856D1*
X3262616Y2956080D1*
X3263402Y2951121D1*
X3263500Y2948600D1*
X2616310Y2060611D2*
X2560425Y2060692D1*
X2556318Y2061343D1*
X2552363Y2062628D1*
X2548658Y2064516D1*
X2545294Y2066960D1*
X2542353Y2069900D1*
X2539909Y2073264D1*
X2538021Y2076969D1*
X2536736Y2080924D1*
X2536086Y2085031D1*
Y2120686D1*
X2536736Y2124793D1*
X2538021Y2128748D1*
X2539909Y2132453D1*
X2542353Y2135817D1*
X2545294Y2138757D1*
X2548658Y2141202D1*
X2552363Y2143089D1*
X2556318Y2144374D1*
X2560425Y2145025D1*
X2625496Y2145107D1*
X2629642Y2144780D1*
X2633685Y2143810D1*
X2637527Y2142218D1*
X2641072Y2140046D1*
X2644234Y2137345D1*
X2645652Y2135811D1*
X2649118Y2134859D1*
X2662652Y2134760D1*
X2667612Y2133974D1*
X2672387Y2132423D1*
X2676861Y2130143D1*
X2680924Y2127192D1*
X2711873Y2096382D1*
X2796386Y2096386D1*
Y1966614D1*
X2666614D1*
Y2051121D1*
X2646884Y2070861D1*
X2642706Y2066960D1*
X2639342Y2064516D1*
X2635637Y2062628D1*
X2631682Y2061343D1*
X2627575Y2060692D1*
X2616310Y2060611D1*
X3828810Y2048110D2*
X3772925Y2048192D1*
X3768818Y2048843D1*
X3764863Y2050128D1*
X3761158Y2052016D1*
X3757794Y2054460D1*
X3754853Y2057400D1*
X3752409Y2060764D1*
X3750521Y2064469D1*
X3749236Y2068424D1*
X3748586Y2072531D1*
Y2108186D1*
X3749236Y2112293D1*
X3750521Y2116248D1*
X3752409Y2119953D1*
X3754853Y2123317D1*
X3757794Y2126257D1*
X3761158Y2128702D1*
X3764863Y2130590D1*
X3768818Y2131875D1*
X3772925Y2132525D1*
X3837996Y2132607D1*
X3842142Y2132280D1*
X3846185Y2131310D1*
X3850027Y2129718D1*
X3853572Y2127546D1*
X3856734Y2124845D1*
X3858152Y2123311D1*
X3861618Y2122359D1*
X3900152Y2122260D1*
X3905112Y2121475D1*
X3909887Y2119923D1*
X3914361Y2117643D1*
X3918424Y2114692D1*
X3949373Y2083882D1*
X4009465Y2083804D1*
X4013572Y2083154D1*
X4017527Y2081869D1*
X4021232Y2079981D1*
X4024596Y2077537D1*
X4027537Y2074596D1*
X4029981Y2071232D1*
X4031869Y2067527D1*
X4033154Y2063572D1*
X4033804Y2059465D1*
X4033886Y1980614D1*
X4033560Y1976469D1*
X4032589Y1972425D1*
X4030998Y1968583D1*
X4028825Y1965038D1*
X4026124Y1961876D1*
X4022962Y1959175D1*
X4019417Y1957002D1*
X4015575Y1955411D1*
X4011531Y1954440D1*
X4007386Y1954114D1*
X3928535Y1954196D1*
X3924428Y1954846D1*
X3920473Y1956131D1*
X3916768Y1958019D1*
X3913404Y1960463D1*
X3910463Y1963404D1*
X3908019Y1966768D1*
X3906131Y1970473D1*
X3904846Y1974428D1*
X3904196Y1978535D1*
X3904114Y2038639D1*
X3884384Y2058361D1*
X3858922Y2058358D1*
X3855206Y2054460D1*
X3851842Y2052016D1*
X3848137Y2050128D1*
X3844182Y2048843D1*
X3840075Y2048192D1*
X3828810Y2048110D1*
X2956487Y2351351D2*
X2953738Y2347179D1*
X2947788Y2340212D1*
X2940821Y2334262D1*
X2933008Y2329474D1*
X2924543Y2325968D1*
X2915634Y2323829D1*
X2906500Y2323110D1*
X2897366Y2323829D1*
X2888457Y2325968D1*
X2879992Y2329474D1*
X2872179Y2334262D1*
X2865212Y2340212D1*
X2859262Y2347179D1*
X2854474Y2354992D1*
X2850968Y2363457D1*
X2848829Y2372366D1*
X2848110Y2381500D1*
X2848829Y2390634D1*
X2850968Y2399543D1*
X2854474Y2408008D1*
X2859262Y2415821D1*
X2865212Y2422788D1*
X2872179Y2428738D1*
X2879992Y2433526D1*
X2888457Y2437032D1*
X2897366Y2439171D1*
X2906500Y2439890D1*
X2915634Y2439171D1*
X2924543Y2437032D1*
X2933008Y2433526D1*
X2940821Y2428738D1*
X2947788Y2422788D1*
X2953738Y2415821D1*
X2956487Y2411649D1*
X2962100Y2419421D1*
X2968579Y2425900D1*
X2975991Y2431285D1*
X2984155Y2435445D1*
X2992869Y2438276D1*
X3001919Y2439710D1*
X3011081D1*
X3020131Y2438276D1*
X3028845Y2435445D1*
X3037009Y2431285D1*
X3044421Y2425900D1*
X3050900Y2419421D1*
X3056285Y2412009D1*
X3060445Y2403845D1*
X3063276Y2395131D1*
X3064710Y2386081D1*
Y2376919D1*
X3063276Y2367869D1*
X3060445Y2359155D1*
X3056285Y2350991D1*
X3050900Y2343579D1*
X3044421Y2337100D1*
X3037009Y2331715D1*
X3028845Y2327555D1*
X3020131Y2324724D1*
X3011081Y2323290D1*
X3001919D1*
X2992869Y2324724D1*
X2984155Y2327555D1*
X2975991Y2331715D1*
X2968579Y2337100D1*
X2962100Y2343579D1*
X2956513Y2351351D1*
X863180Y3537666D2*
X862481Y3531762D1*
X861321Y3525932D1*
X859708Y3520210D1*
X857650Y3514632D1*
X855161Y3509233D1*
X852256Y3504047D1*
X848954Y3499104D1*
X845273Y3494435D1*
X841238Y3490069D1*
X836872Y3486034D1*
X832204Y3482354D1*
X827261Y3479051D1*
X821715Y3475981D1*
X821596Y3416332D1*
X820761Y3411063D1*
X819113Y3405989D1*
X816691Y3401235D1*
X813555Y3396919D1*
X778020Y3361236D1*
X778000Y3332202D1*
X809870Y3332213D1*
Y3180787D1*
X678130D1*
Y3332213D1*
X710031D1*
X710105Y3377967D1*
X710939Y3383236D1*
X712588Y3388310D1*
X715010Y3393064D1*
X718146Y3397380D1*
X753680Y3433063D1*
X753701Y3475948D1*
X748141Y3479051D1*
X743198Y3482354D1*
X738529Y3486034D1*
X734164Y3490069D1*
X730128Y3494435D1*
X726448Y3499104D1*
X723145Y3504047D1*
X720240Y3509233D1*
X717751Y3514632D1*
X715694Y3520210D1*
X714080Y3525932D1*
X712920Y3531762D1*
X712222Y3537666D1*
X711988Y3543606D1*
X712222Y3549547D1*
X712920Y3555450D1*
X714080Y3561281D1*
X715694Y3567003D1*
X717751Y3572580D1*
X720240Y3577979D1*
X723145Y3583166D1*
X726448Y3588109D1*
X730128Y3592778D1*
X734164Y3597143D1*
X738529Y3601179D1*
X743198Y3604859D1*
X748141Y3608162D1*
X753328Y3611067D1*
X758727Y3613556D1*
X764304Y3615613D1*
X770026Y3617227D1*
X775857Y3618387D1*
X781760Y3619086D1*
X787701Y3619319D1*
X793641Y3619086D1*
X799545Y3618387D1*
X805376Y3617227D1*
X811097Y3615613D1*
X816675Y3613556D1*
X822074Y3611067D1*
X827261Y3608162D1*
X832204Y3604859D1*
X836872Y3601179D1*
X841238Y3597143D1*
X845273Y3592778D1*
X848954Y3588109D1*
X852256Y3583166D1*
X855161Y3577979D1*
X857650Y3572580D1*
X859708Y3567003D1*
X861321Y3561281D1*
X862481Y3555450D1*
X863180Y3549547D1*
X863413Y3543606D1*
X863180Y3537666D1*
X1453731D2*
X1453032Y3531762D1*
X1451873Y3525932D1*
X1450259Y3520210D1*
X1448201Y3514632D1*
X1445712Y3509233D1*
X1442808Y3504047D1*
X1439505Y3499104D1*
X1435824Y3494435D1*
X1431789Y3490069D1*
X1427423Y3486034D1*
X1422755Y3482354D1*
X1417812Y3479051D1*
X1412625Y3476146D1*
X1407226Y3473657D1*
X1401648Y3471599D1*
X1395927Y3469986D1*
X1390096Y3468826D1*
X1384192Y3468127D1*
X1378252Y3467894D1*
X1372312Y3468127D1*
X1366408Y3468826D1*
X1360577Y3469986D1*
X1354855Y3471599D1*
X1349278Y3473657D1*
X1343879Y3476146D1*
X1338692Y3479051D1*
X1333749Y3482354D1*
X1329081Y3486034D1*
X1324715Y3490069D1*
X1320680Y3494435D1*
X1316999Y3499104D1*
X1313696Y3504047D1*
X1310792Y3509233D1*
X1308303Y3514632D1*
X1306245Y3520210D1*
X1304631Y3525932D1*
X1303472Y3531762D1*
X1302773Y3537666D1*
X1302539Y3543606D1*
X1302773Y3549547D1*
X1303472Y3555450D1*
X1304631Y3561281D1*
X1306245Y3567003D1*
X1308303Y3572580D1*
X1310792Y3577979D1*
X1313696Y3583166D1*
X1316999Y3588109D1*
X1320680Y3592778D1*
X1324715Y3597143D1*
X1329081Y3601179D1*
X1333749Y3604859D1*
X1338692Y3608162D1*
X1343879Y3611067D1*
X1349278Y3613556D1*
X1354855Y3615613D1*
X1360577Y3617227D1*
X1366408Y3618387D1*
X1372312Y3619086D1*
X1378252Y3619319D1*
X1384192Y3619086D1*
X1390096Y3618387D1*
X1395927Y3617227D1*
X1401648Y3615613D1*
X1407226Y3613556D1*
X1412625Y3611067D1*
X1417812Y3608162D1*
X1422755Y3604859D1*
X1427423Y3601179D1*
X1431789Y3597143D1*
X1435824Y3592778D1*
X1439505Y3588109D1*
X1442808Y3583166D1*
X1445712Y3577979D1*
X1448201Y3572580D1*
X1450259Y3567003D1*
X1451873Y3561281D1*
X1453032Y3555450D1*
X1453731Y3549547D1*
X1453965Y3543606D1*
X1453731Y3537666D1*
X2241133D2*
X2240434Y3531762D1*
X2239274Y3525932D1*
X2237661Y3520210D1*
X2235603Y3514632D1*
X2233114Y3509233D1*
X2230209Y3504047D1*
X2226906Y3499104D1*
X2223226Y3494435D1*
X2219190Y3490069D1*
X2214825Y3486034D1*
X2210156Y3482354D1*
X2205213Y3479051D1*
X2200026Y3476146D1*
X2194628Y3473657D1*
X2189050Y3471599D1*
X2183328Y3469986D1*
X2177498Y3468826D1*
X2171594Y3468127D1*
X2165654Y3467894D1*
X2159713Y3468127D1*
X2153809Y3468826D1*
X2147979Y3469986D1*
X2142257Y3471599D1*
X2136680Y3473657D1*
X2131281Y3476146D1*
X2126094Y3479051D1*
X2121151Y3482354D1*
X2116482Y3486034D1*
X2112117Y3490069D1*
X2108081Y3494435D1*
X2104401Y3499104D1*
X2101098Y3504047D1*
X2098193Y3509233D1*
X2095704Y3514632D1*
X2093647Y3520210D1*
X2092033Y3525932D1*
X2090873Y3531762D1*
X2090174Y3537666D1*
X2089941Y3543606D1*
X2090174Y3549547D1*
X2090873Y3555450D1*
X2092033Y3561281D1*
X2093647Y3567003D1*
X2095704Y3572580D1*
X2098193Y3577979D1*
X2101098Y3583166D1*
X2104401Y3588109D1*
X2108081Y3592778D1*
X2112117Y3597143D1*
X2116482Y3601179D1*
X2121151Y3604859D1*
X2126094Y3608162D1*
X2131281Y3611067D1*
X2136680Y3613556D1*
X2142257Y3615613D1*
X2147979Y3617227D1*
X2153809Y3618387D1*
X2159713Y3619086D1*
X2165654Y3619319D1*
X2171594Y3619086D1*
X2177498Y3618387D1*
X2183328Y3617227D1*
X2189050Y3615613D1*
X2194628Y3613556D1*
X2200026Y3611067D1*
X2205213Y3608162D1*
X2210156Y3604859D1*
X2214825Y3601179D1*
X2219190Y3597143D1*
X2223226Y3592778D1*
X2226906Y3588109D1*
X2230209Y3583166D1*
X2233114Y3577979D1*
X2235603Y3572580D1*
X2237661Y3567003D1*
X2239274Y3561281D1*
X2240434Y3555450D1*
X2241133Y3549547D1*
X2241366Y3543606D1*
X2241133Y3537666D1*
X2599127Y3619319D2*
X2741366D1*
Y3467894D1*
X2589941D1*
Y3619319D1*
X2599127D1*
X2937983Y3537666D2*
X2937284Y3531762D1*
X2936125Y3525932D1*
X2934511Y3520210D1*
X2932453Y3514632D1*
X2929964Y3509233D1*
X2927060Y3504047D1*
X2923757Y3499104D1*
X2920076Y3494435D1*
X2916041Y3490069D1*
X2911675Y3486034D1*
X2907007Y3482354D1*
X2902064Y3479051D1*
X2896877Y3476146D1*
X2891478Y3473657D1*
X2885900Y3471599D1*
X2880179Y3469986D1*
X2874348Y3468826D1*
X2868444Y3468127D1*
X2862504Y3467894D1*
X2856564Y3468127D1*
X2850660Y3468826D1*
X2844829Y3469986D1*
X2839107Y3471599D1*
X2833530Y3473657D1*
X2828131Y3476146D1*
X2822944Y3479051D1*
X2818001Y3482354D1*
X2813333Y3486034D1*
X2808967Y3490069D1*
X2804932Y3494435D1*
X2801251Y3499104D1*
X2797948Y3504047D1*
X2795044Y3509233D1*
X2792555Y3514632D1*
X2790497Y3520210D1*
X2788883Y3525932D1*
X2787723Y3531762D1*
X2787025Y3537666D1*
X2786791Y3543606D1*
X2787025Y3549547D1*
X2787723Y3555450D1*
X2788883Y3561281D1*
X2790497Y3567003D1*
X2792555Y3572580D1*
X2795044Y3577979D1*
X2797948Y3583166D1*
X2801251Y3588109D1*
X2804932Y3592778D1*
X2808967Y3597143D1*
X2813333Y3601179D1*
X2818001Y3604859D1*
X2822944Y3608162D1*
X2828131Y3611067D1*
X2833530Y3613556D1*
X2839107Y3615613D1*
X2844829Y3617227D1*
X2850660Y3618387D1*
X2856564Y3619086D1*
X2862504Y3619319D1*
X2868444Y3619086D1*
X2874348Y3618387D1*
X2880179Y3617227D1*
X2885900Y3615613D1*
X2891478Y3613556D1*
X2896877Y3611067D1*
X2902064Y3608162D1*
X2907007Y3604859D1*
X2911675Y3601179D1*
X2916041Y3597143D1*
X2920076Y3592778D1*
X2923757Y3588109D1*
X2927060Y3583166D1*
X2929964Y3577979D1*
X2932453Y3572580D1*
X2934511Y3567003D1*
X2936125Y3561281D1*
X2937284Y3555450D1*
X2937983Y3549547D1*
X2938217Y3543606D1*
X2937983Y3537666D1*
X3167205Y2400598D2*
Y2491169D1*
X3174489D1*
X3174599Y2525511D1*
X3175384Y2530470D1*
X3176936Y2535246D1*
X3179215Y2539720D1*
X3182167Y2543782D1*
X3204872Y2566628D1*
X3208691Y2569889D1*
X3212972Y2572512D1*
X3217611Y2574434D1*
X3222494Y2575606D1*
X3227510Y2576000D1*
X3247846D1*
X3247815Y2578918D1*
X2040242Y2578933D1*
X2036699Y2575574D1*
X2030796Y2571285D1*
X2024295Y2567973D1*
X2017355Y2565718D1*
X2010148Y2564576D1*
X2002852D1*
X1995645Y2565718D1*
X1988705Y2567973D1*
X1982204Y2571285D1*
X1976301Y2575574D1*
X1971141Y2580734D1*
X1966852Y2586637D1*
X1963540Y2593138D1*
X1961285Y2600078D1*
X1960143Y2607285D1*
Y2614581D1*
X1960323Y2616097D1*
X1898420Y2616087D1*
X1894884Y2612728D1*
X1888981Y2608439D1*
X1882480Y2605127D1*
X1875540Y2602872D1*
X1868333Y2601730D1*
X1861193Y2601724D1*
X1861185Y2463170D1*
X1868558Y2460890D1*
X2735401Y2460791D1*
X2740360Y2460006D1*
X2745136Y2458454D1*
X2749610Y2456175D1*
X2753672Y2453223D1*
X2776518Y2430518D1*
X2779779Y2426699D1*
X2782402Y2422418D1*
X2784324Y2417779D1*
X2785496Y2412896D1*
X2785890Y2407880D1*
Y2315775D1*
X2793263Y2313528D1*
X3129820D1*
X3129803Y2400618D1*
X3167230D1*
X3576007Y2491169D2*
X3583295D1*
Y2396831D1*
X3566179D1*
X3573690Y2393101D1*
X3579593Y2388812D1*
X3584753Y2383652D1*
X3589042Y2377749D1*
X3592354Y2371248D1*
X3594609Y2364308D1*
X3595751Y2357101D1*
Y2349805D1*
X3594609Y2342598D1*
X3593630Y2339125D1*
X3629772Y2339114D1*
X3629803Y2400618D1*
X3639313D1*
X3641814Y2405673D1*
X3644765Y2409735D1*
X3648316Y2413286D1*
X3652378Y2416238D1*
X3656853Y2418517D1*
X3661628Y2420069D1*
X3666598Y2420855D1*
X3667205Y2424390D1*
Y2491169D1*
X3717263D1*
X3717295Y2503891D1*
X3647815Y2503917D1*
Y2658081D1*
X3602703Y2658087D1*
X3602685Y2495846D1*
X3576023D1*
X3504705Y2400598D2*
Y2491169D1*
X3511989D1*
X3510822Y2495846D1*
X3510315D1*
Y2637091D1*
X3477691Y2637087D1*
X3477685Y2495846D1*
X3413488D1*
X3415696Y2491169D1*
X3420795D1*
Y2396831D1*
X3383368D1*
X3383394Y2339148D1*
X3467289Y2339114D1*
X3467303Y2400618D1*
X3504730D1*
X2742154Y3149516D2*
Y3085315D1*
X2725970D1*
X2726000Y3076202D1*
X2733374Y3073980D1*
X3016177D1*
X3012196Y3075677D1*
X3007915Y3078300D1*
X3004096Y3081561D1*
X3000835Y3085380D1*
X2998212Y3089661D1*
X2996290Y3094300D1*
X2995118Y3099183D1*
X2994724Y3104189D1*
Y3227217D1*
X2988370Y3226811D1*
X2981096Y3227383D1*
X2976870Y3228278D1*
X2976771Y3199989D1*
X2975986Y3195030D1*
X2974434Y3190254D1*
X2972154Y3185780D1*
X2969203Y3181718D1*
X2946498Y3158872D1*
X2942679Y3155611D1*
X2938398Y3152988D1*
X2936107Y3151932D1*
X2934870Y3146320D1*
Y3143189D1*
X2803130D1*
Y3149469D1*
X2742149Y3149500D1*
X1594201Y2071583D2*
X1622815Y2071585D1*
X1622500Y2083154D1*
X1623072Y2090428D1*
X1624776Y2097523D1*
X1627407Y2103915D1*
X1627685Y2108361D1*
Y2104490D1*
X1631381Y2110486D1*
X1636120Y2116034D1*
X1641668Y2120773D1*
X1647889Y2124586D1*
X1654631Y2127378D1*
X1661726Y2129082D1*
X1669000Y2129654D1*
X1676274Y2129082D1*
X1683369Y2127378D1*
X1687481Y2125798D1*
X1689090Y2130813D1*
X1691369Y2135287D1*
X1694321Y2139349D1*
X1717030Y2162198D1*
X1720849Y2165459D1*
X1725130Y2168083D1*
X1729769Y2170005D1*
X1734662Y2171178D1*
X1735315Y2176719D1*
Y2254653D1*
X1749489D1*
X1749599Y2267621D1*
X1750384Y2272580D1*
X1751936Y2277356D1*
X1754215Y2281830D1*
X1757167Y2285892D1*
X1779872Y2308738D1*
X1783691Y2311999D1*
X1787972Y2314622D1*
X1792611Y2316544D1*
X1797494Y2317716D1*
X1802500Y2318110D1*
X1884011Y2318011D1*
X1888970Y2317226D1*
X1893746Y2315674D1*
X1898220Y2313395D1*
X1902282Y2310443D1*
X1905833Y2306892D1*
X1908785Y2302830D1*
X1911064Y2298356D1*
X1912616Y2293580D1*
X1913401Y2288621D1*
X1913500Y2282629D1*
X1929654Y2282606D1*
Y2195443D1*
X1931722Y2200095D1*
X1935535Y2206316D1*
X1940274Y2211864D1*
X1945822Y2216603D1*
X1952043Y2220416D1*
X1958785Y2223208D1*
X1965880Y2224912D1*
X1967679Y2225124D1*
X2026493Y2283783D1*
X2031127Y2287149D1*
X2036230Y2289750D1*
X2041677Y2291520D1*
X2047334Y2292416D1*
X2096130Y2292528D1*
X2722347Y2292414D1*
X2723456Y2292639D1*
X2722284Y2297522D1*
X2721890Y2302528D1*
Y2325171D1*
X2715634Y2323829D1*
X2706500Y2323110D1*
X2697366Y2323829D1*
X2688457Y2325968D1*
X2679992Y2329474D1*
X2672179Y2334262D1*
X2665212Y2340212D1*
X2659262Y2347179D1*
X2656513Y2351351D1*
X2650900Y2343579D1*
X2644421Y2337100D1*
X2637009Y2331715D1*
X2628845Y2327555D1*
X2620131Y2324724D1*
X2611081Y2323290D1*
X2601919D1*
X2592869Y2324724D1*
X2584155Y2327555D1*
X2575991Y2331715D1*
X2568579Y2337100D1*
X2562100Y2343579D1*
X2556513Y2351351D1*
X2550900Y2343579D1*
X2544421Y2337100D1*
X2537009Y2331715D1*
X2528845Y2327555D1*
X2520131Y2324724D1*
X2511081Y2323290D1*
X2501919D1*
X2492869Y2324724D1*
X2484155Y2327555D1*
X2475991Y2331715D1*
X2468579Y2337100D1*
X2462100Y2343579D1*
X2456513Y2351351D1*
X2450900Y2343579D1*
X2444421Y2337100D1*
X2437009Y2331715D1*
X2428845Y2327555D1*
X2420131Y2324724D1*
X2411081Y2323290D1*
X2401919D1*
X2392869Y2324724D1*
X2384155Y2327555D1*
X2375991Y2331715D1*
X2368579Y2337100D1*
X2362100Y2343579D1*
X2356513Y2351351D1*
X2350900Y2343579D1*
X2344421Y2337100D1*
X2337009Y2331715D1*
X2328845Y2327555D1*
X2320131Y2324724D1*
X2311081Y2323290D1*
X2301919D1*
X2292869Y2324724D1*
X2284155Y2327555D1*
X2275991Y2331715D1*
X2268579Y2337100D1*
X2262100Y2343579D1*
X2256513Y2351351D1*
X2250900Y2343579D1*
X2244421Y2337100D1*
X2237009Y2331715D1*
X2228845Y2327555D1*
X2220131Y2324724D1*
X2211081Y2323290D1*
X2201919D1*
X2192869Y2324724D1*
X2184155Y2327555D1*
X2175991Y2331715D1*
X2168579Y2337100D1*
X2162100Y2343579D1*
X2156513Y2351351D1*
X2150900Y2343579D1*
X2144421Y2337100D1*
X2137009Y2331715D1*
X2128845Y2327555D1*
X2120131Y2324724D1*
X2111081Y2323290D1*
X2101919D1*
X2092869Y2324724D1*
X2084155Y2327555D1*
X2075991Y2331715D1*
X2068579Y2337100D1*
X2062100Y2343579D1*
X2056513Y2351351D1*
X2050900Y2343579D1*
X2044421Y2337100D1*
X2037009Y2331715D1*
X2028845Y2327555D1*
X2020131Y2324724D1*
X2011081Y2323290D1*
X2001919D1*
X1992869Y2324724D1*
X1984155Y2327555D1*
X1975991Y2331715D1*
X1968579Y2337100D1*
X1962100Y2343579D1*
X1956513Y2351351D1*
X1950900Y2343579D1*
X1944421Y2337100D1*
X1937009Y2331715D1*
X1928845Y2327555D1*
X1920131Y2324724D1*
X1911081Y2323290D1*
X1901919D1*
X1892869Y2324724D1*
X1884155Y2327555D1*
X1875991Y2331715D1*
X1868579Y2337100D1*
X1862100Y2343579D1*
X1856513Y2351351D1*
X1850900Y2343579D1*
X1844421Y2337100D1*
X1837009Y2331715D1*
X1828845Y2327555D1*
X1820131Y2324724D1*
X1811081Y2323290D1*
X1801919D1*
X1792869Y2324724D1*
X1784155Y2327555D1*
X1775991Y2331715D1*
X1768579Y2337100D1*
X1762100Y2343579D1*
X1756513Y2351351D1*
X1750900Y2343579D1*
X1744421Y2337100D1*
X1737009Y2331715D1*
X1728845Y2327555D1*
X1720131Y2324724D1*
X1711081Y2323290D1*
X1701919D1*
X1692869Y2324724D1*
X1685987Y2326879D1*
X1705833Y2306892D1*
X1708785Y2302830D1*
X1711064Y2298356D1*
X1712616Y2293580D1*
X1713401Y2288621D1*
X1713500Y2282629D1*
X1729654Y2282606D1*
Y2180394D1*
X1633347D1*
Y2282606D1*
X1639770D1*
X1632763Y2289592D1*
X1615750Y2289610D1*
X1613500Y2282237D1*
Y2267130D1*
X1627685Y2267154D1*
Y2108361D1*
X1627362Y2103917D1*
X1613511D1*
X1613106Y2099148D1*
X1611934Y2094265D1*
X1610012Y2089626D1*
X1607389Y2085345D1*
X1604120Y2081520D1*
X1594206Y2071605D1*
X1044811Y3119357D2*
Y3056918D1*
X1049730Y3057956D1*
X1057004Y3058528D1*
X1058215Y3058480D1*
X1068194Y3068333D1*
X1072256Y3071285D1*
X1076730Y3073564D1*
X1081506Y3075116D1*
X1083980Y3075607D1*
X1085315Y3078524D1*
Y3092154D1*
X1135015D1*
X1135112Y3131018D1*
X1136008Y3136675D1*
X1137778Y3142122D1*
X1140378Y3147225D1*
X1143745Y3151859D1*
X1175690Y3183964D1*
X1180055Y3187689D1*
X1177882Y3188661D1*
X1152441D1*
Y3293120D1*
X1080654Y3293150D1*
X1080638Y3176850D1*
X1067971D1*
X1067888Y3150510D1*
X1066992Y3144853D1*
X1065222Y3139406D1*
X1062621Y3134303D1*
X1059255Y3129669D1*
X1055205Y3125619D1*
X1050571Y3122253D1*
X1045457Y3119648D1*
D24*
X844000Y2469000D3*
D25*
X544000D3*
D26*
X794000Y2744000D3*
X719197D3*
X594000D3*
X519197D3*
X1144000Y2931500D3*
X1218803D3*
D27*
X1056500Y2169000D3*
X989571D3*
D24*
X1294000Y2606500D3*
D25*
X994000D3*
D28*
X1131500Y3044000D3*
Y3110929D3*
D27*
X994000Y1994000D3*
X1060929D3*
X1056500Y2081500D3*
X989571D3*
D28*
X3231500Y3239535D3*
Y3306465D3*
X3494000Y3239535D3*
Y3306465D3*
X1744000Y3256500D3*
Y3323429D3*
D27*
X2706500Y2531500D3*
X2773429D3*
D28*
X1744000Y3181500D3*
Y3114571D3*
X1269000Y2031500D3*
Y1964571D3*
X1481500Y2031500D3*
Y1964571D3*
X1669000Y2031500D3*
Y1964571D3*
X1869000Y2031500D3*
Y1964571D3*
D29*
X1238980Y2319000D3*
X1331500D3*
D31*
X1206500Y3256500D3*
X1360038D3*
D32*
X3231500Y2894000D3*
Y2801480D3*
D125*
X2594000Y1969000D3*
Y2102859D3*
D32*
X1269000Y2231500D3*
Y2138980D3*
X3431500Y2894000D3*
Y2801480D3*
X1469000Y2231500D3*
Y2138980D3*
D125*
X3181500Y1944000D3*
Y2077859D3*
D32*
X3631500Y2906500D3*
Y2813980D3*
X1681500Y2231500D3*
Y2138980D3*
D125*
X3806500Y1956500D3*
Y2090359D3*
D32*
X1881500Y2231500D3*
Y2138980D3*
X3831500Y2906500D3*
Y2813980D3*
D128*
X3806500Y2206500D3*
Y2340359D3*
D34*
X1506500Y2981500D3*
D35*
X1606500D3*
X1706500D3*
X1806500D3*
X1906500D3*
X2006500D3*
X2106500D3*
X2206500D3*
X2306500D3*
X2406500D3*
X2506500D3*
X2606500D3*
X2706500D3*
X2806500D3*
X2906500D3*
X3006500D3*
D34*
X1506500Y2381500D3*
D35*
X1606500D3*
X1706500D3*
X1806500D3*
X1906500D3*
X2006500D3*
X2106500D3*
X2206500D3*
X2306500D3*
X2406500D3*
X2506500D3*
X2606500D3*
X2706500D3*
X2806500D3*
X2906500D3*
X3006500D3*
D36*
X590850Y3543606D3*
D37*
X787701D3*
X984551D3*
D36*
X1181402D3*
D37*
X1378252D3*
X1575102D3*
D36*
X1771953D3*
D37*
X1968803D3*
X2165654D3*
D36*
X2665654D3*
D37*
X2862504D3*
X3059354D3*
D36*
X3256205D3*
D37*
X3453055D3*
X3649906D3*
D36*
X3846756D3*
D37*
X4043606D3*
X4240457D3*
D36*
X984551Y661717D3*
D37*
X787701D3*
X590850D3*
D36*
X1575102D3*
D37*
X1378252D3*
X1181402D3*
D36*
X2165654D3*
D37*
X1968803D3*
X1771953D3*
D36*
X3059354D3*
D37*
X2862504D3*
X2665654D3*
D36*
X3649906D3*
D37*
X3453055D3*
X3256205D3*
D36*
X4240457D3*
D37*
X4043606D3*
X3846756D3*
D38*
X2469000Y2206500D3*
D39*
X2569000D3*
X2669000D3*
X2769000D3*
X2869000D3*
X2969000D3*
X3069000D3*
X3169000D3*
X3269000D3*
X3369000D3*
D40*
X856500Y1006500D3*
D41*
Y1106500D3*
D40*
X1281500Y1006500D3*
D41*
Y1106500D3*
D40*
X1694000Y1006500D3*
D41*
Y1106500D3*
D40*
X2106500Y1019000D3*
D41*
Y1119000D3*
D42*
X3031500Y2031500D3*
D43*
X2731500D3*
D42*
X3031500Y1287406D3*
X2731500Y1161421D3*
X3031500Y1035437D3*
X3644000Y2031500D3*
D43*
X3344000D3*
D42*
X3644000Y1287406D3*
X3344000Y1161421D3*
X3644000Y1035437D3*
X4269000Y2019000D3*
D131*
X3969000D3*
D42*
X4269000Y1274906D3*
X3969000Y1148921D3*
X4269000Y1022937D3*
X3969000Y2219000D3*
D43*
X4269000D3*
D42*
X3969000Y2963094D3*
X4269000Y3089079D3*
X3969000Y3215063D3*
D44*
X1031500Y3256500D3*
X913390D3*
D46*
X3206500Y2444000D3*
X3131697D3*
X3169098Y2353449D3*
X3544000Y2444000D3*
X3469197D3*
X3506598Y2353449D3*
X3706500Y2444000D3*
X3631697D3*
X3669098Y2353449D3*
X3381500Y2444000D3*
X3306697D3*
X3344098Y2353449D3*
D28*
X1531500Y2756500D3*
Y2823429D3*
D27*
X1056500Y2319000D3*
X1123429D3*
D28*
X1619000Y2756500D3*
Y2823429D3*
X1706500Y2756500D3*
Y2823429D3*
X1794000Y2756500D3*
Y2823429D3*
X1319000Y3110929D3*
Y3044000D3*
X1231500Y3039571D3*
Y3106500D3*
D27*
X2631500Y3256500D3*
X2698429D3*
D28*
X3319000Y3239535D3*
Y3306465D3*
X3406500D3*
Y3239535D3*
D27*
X2231500Y3319000D3*
X2164571D3*
X2694000Y3131500D3*
X2627071D3*
D28*
X3669000Y3239535D3*
Y3306465D3*
X3581500Y3306500D3*
Y3239571D3*
D47*
X519000Y1419000D3*
X629236D3*
D48*
X744000Y1431500D3*
Y1541736D3*
D28*
X1169000Y1969000D3*
Y2035929D3*
X3144000Y2894000D3*
Y2827071D3*
X856500Y1256500D3*
Y1323429D3*
X1169000Y2219000D3*
Y2152071D3*
X3294000Y2544000D3*
Y2610929D3*
D47*
X944000Y1419000D3*
X1054236D3*
D48*
X1181500Y1431500D3*
Y1541736D3*
D28*
X1369000Y1969000D3*
Y2035929D3*
X1281500Y1231500D3*
Y1298429D3*
X1369000Y2219000D3*
Y2152071D3*
X3331500Y2894000D3*
Y2827071D3*
X3556500Y2544000D3*
Y2610929D3*
D47*
X1369000Y1419000D3*
X1479236D3*
D48*
X1594000D3*
Y1529236D3*
D28*
X1581500Y1956500D3*
Y2023429D3*
X1694000Y1256500D3*
Y1323429D3*
X1581500Y2219000D3*
Y2152071D3*
X3531500Y2906500D3*
Y2839571D3*
X3694000Y2552071D3*
Y2619000D3*
D47*
X1781500Y1419000D3*
X1891736D3*
D48*
X2006500Y1431500D3*
Y1541736D3*
D28*
X1769000Y1969000D3*
Y2035929D3*
X2119000Y1244000D3*
Y1310929D3*
X1781500Y2206500D3*
Y2139571D3*
X3731500Y2906500D3*
Y2839571D3*
X3431500Y2544000D3*
Y2610929D3*
D49*
X1006500Y3094000D3*
X956500D3*
X906500D3*
X856500D3*
Y2881402D3*
X906500D3*
X956500D3*
X1006500D3*
D51*
X544000Y2181500D3*
Y2001972D3*
D52*
X807780Y2091736D3*
D53*
X2869000Y3281500D3*
Y3231500D3*
Y3181500D3*
Y3131500D3*
X3081598D3*
Y3181500D3*
Y3231500D3*
Y3281500D3*
X2056500Y3169000D3*
Y3219000D3*
Y3269000D3*
Y3319000D3*
X1843902D3*
Y3269000D3*
Y3219000D3*
Y3169000D3*
D46*
X1644000Y3319000D3*
X1569197D3*
X1606598Y3228449D3*
D54*
X744000Y2856500D3*
X544000D3*
X744000Y3256500D3*
X544000D3*
Y1306500D3*
X744000D3*
X544000Y906500D3*
X744000D3*
X969000Y1306500D3*
X1169000D3*
X969000Y906500D3*
X1169000D3*
X1381500Y1306500D3*
X1581500D3*
X1381500Y906500D3*
X1581500D3*
X1794000Y1306500D3*
X1994000D3*
X1794000Y906500D3*
X1994000D3*
D55*
X519000Y1531500D3*
X619000D3*
Y1866146D3*
X519000D3*
X944000Y1531500D3*
X1044000D3*
Y1866146D3*
X944000D3*
X1369000Y1531500D3*
X1469000D3*
Y1866146D3*
X1369000D3*
X1794000Y1531500D3*
X1894000D3*
Y1866146D3*
X1794000D3*
M02*
