%TF.GenerationSoftware,Novarm,DipTrace,3.0.0.2*%
%TF.CreationDate,2017-03-05T11:54:49+02:00*%
%FSLAX26Y26*%
%MOIN*%
%TF.FileFunction,Copper,L1,Top*%
%TF.Part,Single*%
%TA.AperFunction,Conductor*%
%ADD14C,0.015*%
%ADD15C,0.02*%
%ADD16C,0.03*%
%ADD17C,0.023622*%
%ADD18C,0.085*%
%ADD19C,0.076772*%
%ADD20C,0.025591*%
%TA.AperFunction,CopperBalancing*%
%ADD21C,0.025*%
%TA.AperFunction,Nonconductor*%
%ADD23C,0.01*%
%ADD26R,0.124016X0.062992*%
%ADD28R,0.062992X0.124016*%
%ADD29R,0.059055X0.051181*%
%ADD30R,0.043307X0.049213*%
%ADD32R,0.031496X0.062992*%
%ADD34R,0.062992X0.031496*%
%TA.AperFunction,ComponentPad*%
%ADD35R,0.06378X0.06378*%
%ADD36C,0.06378*%
%ADD37R,0.098425X0.098425*%
%ADD38C,0.098425*%
%ADD39C,0.076772*%
%ADD40R,0.076772X0.076772*%
%ADD42R,0.025591X0.041339*%
%ADD43R,0.070866X0.062992*%
%ADD44R,0.07874X0.023622*%
%ADD46R,0.108268X0.03937*%
%ADD47R,0.242126X0.218504*%
%ADD48R,0.07874X0.098425*%
%ADD49R,0.066929X0.086614*%
%TA.AperFunction,ViaPad*%
%ADD50C,0.04*%
%TA.AperFunction,Nonconductor*%
%ADD98C,0.015*%
G75*
G01*
%LPD*%
X2680890Y3030890D2*
D14*
X2643390Y2993390D1*
Y2868803D1*
X2618390Y2843803D1*
X2569000D1*
X2732366Y3269000D2*
X2631500D1*
X2764728Y3219000D2*
X2844098D1*
X2943390Y2873996D2*
X2930492Y2886894D1*
X2719000D1*
Y2843803D1*
X519000Y3256500D2*
D15*
X590850D1*
Y3543606D1*
X719000Y3256500D2*
Y3388960D1*
X787701Y3457661D1*
Y3543606D1*
X2414469Y3409000D2*
D14*
X1753248D1*
X1657244Y3312996D1*
X1562130D1*
Y3269000D1*
X1619000D1*
X1780890Y3043390D2*
X1705280Y3119000D1*
X1619000D1*
Y3169000D2*
X1549630D1*
Y3219000D1*
X1619000D1*
X3656500Y2394000D2*
D16*
X3819000D1*
X1919000Y1803646D2*
Y1708606D1*
X869000Y2906697D2*
X949000D1*
X974197Y2881500D1*
X1156500D1*
X1406402Y3119000D2*
D17*
X1327110D1*
Y3040890D1*
X1398965D1*
D16*
X1352110D1*
X1302110Y2990890D1*
Y2881500D1*
X1415012Y2768598D1*
X1556500D1*
X3656500Y2081500D2*
X3607386D1*
X3569000Y2119886D1*
Y2219000D1*
X3008118Y1708606D2*
X3081500Y1781988D1*
Y2081500D1*
X3244000Y2956500D2*
Y2907386D1*
X3205614Y2869000D1*
X3106500D1*
X1919000Y1708606D2*
X1480410D1*
X1469000Y1720016D1*
X1031500D1*
Y1803323D1*
X1398965Y3040890D2*
D17*
D3*
D16*
X1690890D1*
X1156500Y2881500D2*
X1302110D1*
X4231500Y2069000D2*
X4131500D1*
Y2231500D1*
X4244000Y2394000D2*
Y2310496D1*
X4231500Y2297996D1*
X4106500Y2394000D2*
X4244000D1*
X3956500D2*
X4013154D1*
X4106500D1*
X3819000D2*
X3956500D1*
X608134Y2062358D2*
Y2139472D1*
X519000D1*
X644000Y1803323D2*
Y2042358D1*
X628134D1*
X608134Y2062358D1*
X1031500Y1803323D2*
X884941D1*
X780618Y1699000D1*
X644000D1*
Y1803323D1*
X1469000Y1720016D2*
Y1803646D1*
X1156500Y2881500D2*
Y2729992D1*
X1106500Y2679992D1*
X943488D1*
X3081500Y2081500D2*
X3032386D1*
X2994000Y2119886D1*
Y2219000D1*
X1716996Y3265496D2*
X1713370D1*
X1693370Y3245496D1*
Y3194000D1*
X1794000D1*
X1556500Y2898992D2*
D14*
Y2843402D1*
X2131500Y2843803D2*
Y2886894D1*
X1919000D1*
X1894000Y2911894D1*
Y2969000D1*
X1853528Y2618803D2*
X1944000D1*
X2394000Y2430890D2*
Y2544000D1*
X1553528Y2544197D2*
X1494000D1*
X744000Y1468677D2*
D15*
X766425Y1467118D1*
X869000D1*
X744000Y1468677D2*
Y1444693D1*
X766425Y1467118D1*
X1294000Y1169000D2*
X1366500D1*
X1406500Y1209000D1*
Y1331500D1*
X1719000Y1169000D2*
X1791500D1*
X1831500Y1209000D1*
Y1331500D1*
X2329469Y3324000D2*
D17*
X2844098D1*
Y3269000D1*
X519000Y2319000D2*
D16*
X593134D1*
X613134Y2339000D1*
Y2379000D1*
X2329469Y3144197D2*
X2419000D1*
X1094000Y2258508D2*
Y2156500D1*
X613134Y2379000D2*
Y2469000D1*
X518646D1*
X869000Y1169000D2*
D15*
X941500D1*
X981500Y1209000D1*
Y1331500D1*
X1181500D2*
Y1335386D1*
X1294000D1*
Y1356882D1*
X2781500Y2081500D2*
D14*
X2860142Y2160142D1*
Y2219000D1*
X3156598Y2147386D2*
Y2353449D1*
X2860142Y2219000D2*
Y2301236D1*
X2843390Y2317988D1*
Y2393390D1*
X2818390Y2418390D1*
X2758390D1*
X2748390Y2428390D1*
X2581500D1*
X2556500Y2453390D1*
Y2544000D1*
X531500Y1554236D2*
D15*
X566937D1*
Y1551984D1*
X644000D1*
Y1468677D1*
X1469000Y1469000D2*
X1475870D1*
Y1098764D1*
X1435870Y1058764D1*
X1294000D1*
X1919000Y1469000D2*
Y1098764D1*
X1879000Y1058764D1*
X1719000D1*
X1644000Y2480890D2*
D14*
Y2544197D1*
X1231500Y2974020D2*
X1156500D1*
X1031500Y1468677D2*
D15*
X1050870D1*
Y1098764D1*
X1010870Y1058764D1*
X869000D1*
X1131500Y1468677D2*
X1194965D1*
X1196524Y1467118D1*
X1294000D1*
X1569000Y1469000D2*
X1719000D1*
Y1467118D1*
X1606500Y1331500D2*
X1607898Y1356882D1*
X1719000D1*
X1606500Y1331500D2*
Y1355484D1*
X1607898Y1356882D1*
X2019000Y1469000D2*
X2156500D1*
Y1467118D1*
X2743390Y3169000D2*
D14*
X2844098D1*
X2431500Y2899394D2*
Y2843803D1*
X2696972Y2713409D2*
X2704472Y2720909D1*
Y2769000D1*
X2719000D1*
X544000Y1331500D2*
D15*
Y1444000D1*
X531500D1*
X1981500Y2843803D2*
D14*
X2046972D1*
X2071972Y2818803D1*
Y2769000D1*
X2131500D1*
X2151028D1*
Y2513390D1*
X2176028Y2488390D1*
X2356500D1*
X3113803Y2383331D2*
X3122090Y2391618D1*
X3194000D1*
Y2444000D1*
X2763362Y2232783D2*
Y2273606D1*
X2268390D1*
X2243390Y2298606D1*
Y2393390D1*
X2218390Y2418390D1*
X2119000D1*
X2094000Y2443390D1*
Y2544197D1*
X3194098Y2232783D2*
X3369000D1*
X3394000Y2257783D1*
Y2444000D1*
X2094000Y2544197D2*
X2001126D1*
X2000929Y2544000D1*
X1944000D1*
X3159492Y2513390D2*
X3183862Y2537760D1*
X3581500D1*
X3606500Y2512760D1*
Y2444000D1*
X2351028Y2822091D2*
X2329316Y2843803D1*
X2281500D1*
X2334472Y2678413D2*
X2351972D1*
X2371972Y2658413D1*
Y2618803D1*
X2394000D1*
X2031500Y1331500D2*
D15*
X2032898Y1356882D1*
X2156500D1*
X2031500Y1331500D2*
Y1355484D1*
X2032898Y1356882D1*
X1844000Y3118390D2*
D14*
Y2843803D1*
X2631500Y3219000D2*
X2562130D1*
X2643390Y2769000D2*
X2569000D1*
X2562130Y3219000D2*
X2507130Y3274000D1*
X2088929D1*
X1643390Y3371504D2*
Y3421500D1*
X1668390Y3446500D1*
X3676421D1*
X3701421Y3421500D1*
Y2844000D1*
X3676421Y2819000D1*
X2944000D1*
X1574472Y2619000D2*
X1494000D1*
X1634472Y2843803D2*
X1694000D1*
X1594000Y2113980D2*
Y2068094D1*
X1256500D1*
X1231500Y2093094D1*
Y2218508D1*
X1056500Y2393508D1*
Y2544598D1*
X1331500Y2544197D2*
Y2443390D1*
X1356500Y2418390D1*
X1818390D1*
X1843390Y2393390D1*
Y2138980D1*
X1868390Y2113980D1*
X1944000D1*
X2211980Y1909394D2*
X2189480Y1886894D1*
X2144000D1*
Y1843803D1*
X2211980Y2126480D2*
X2319000D1*
X2431500Y1769197D2*
Y1725909D1*
X2656500D1*
X2681500Y1750909D1*
Y2113980D1*
X2631500Y3169000D2*
X2698370D1*
Y3093390D1*
X2723370Y3068390D1*
X2910969D1*
X2935969Y3093390D1*
Y3169000D1*
X2960969Y3194000D1*
X3069000D1*
X2698370Y3093390D2*
X2673370Y3068390D1*
X2257366D1*
X1432110Y2562579D2*
Y2468390D1*
X1457110Y2443390D1*
X1676028D1*
X1701028Y2468390D1*
Y2594402D1*
X1726028Y2619402D1*
X1794000D1*
X1194000Y2343508D2*
Y2544598D1*
X1344610Y1935823D2*
Y1849079D1*
X1381500D1*
X1406500Y1874079D1*
Y1963587D1*
X1819000Y1844000D2*
Y1886894D1*
X1830496D1*
Y1963587D1*
X1769000D1*
X2131500Y1976087D2*
X2069965D1*
Y1725913D1*
X2094965Y1700913D1*
X2281500D1*
Y1769000D1*
X2569000D2*
X2626028D1*
Y1951087D1*
X2601028Y1976087D1*
X2494000D1*
X519000Y2856500D2*
D16*
Y2744197D1*
X607780D1*
Y2648528D1*
X518646D1*
X938528Y2744197D2*
X869000D1*
X607780D2*
Y3122287D1*
X657780Y3172287D1*
X869000D1*
Y3194000D1*
X3419000D2*
D14*
X3498508D1*
Y3371500D1*
X3473508Y3396500D1*
X2910969D1*
X2885969Y3371500D1*
X1908508D1*
X1883508Y3346500D1*
Y3110835D1*
X1943390Y3050953D1*
Y2936894D1*
X1968390Y2911894D1*
X2153528D1*
X2178528Y2886894D1*
Y2544000D1*
X2244000D1*
X2885969Y3371500D2*
X2910969Y3346500D1*
Y3119000D1*
X2844098D1*
X3356500Y2081500D2*
X3435142Y2160142D1*
Y2219000D1*
X2790890Y2455890D2*
X2744000D1*
X2719000Y2480890D1*
Y2544000D1*
X3313803Y2353449D2*
X3356598D1*
X3931500Y2069000D2*
X3997642Y2135142D1*
Y2231500D1*
X2943390Y1929000D2*
Y2544000D1*
X2881500D1*
X3997642Y2231500D2*
Y2280496D1*
X3594098D1*
X3569098Y2305496D1*
Y2353449D1*
X3244000Y2656500D2*
X3155496D1*
Y2735142D1*
X3106500D1*
X2906598Y2728449D2*
Y2735142D1*
X3057504D1*
Y2682922D1*
X3078528Y2661898D1*
Y2544000D1*
X3031500D1*
X3106500Y2735142D2*
X3057504D1*
X2556500Y2618803D2*
Y2661894D1*
X2943390D1*
X2968390Y2636894D1*
Y2517169D1*
X2993390Y2492169D1*
X3068236D1*
X3138827Y2562760D1*
X3606500D1*
X3631500Y2537760D1*
Y2511520D1*
X3656500Y2486520D1*
X3819000D1*
X3870654D2*
X3956500D1*
X2659472Y2550890D2*
Y2618803D1*
X2719000D1*
X2821972D2*
X2881500D1*
X3128528D2*
X3159571Y2587760D1*
X3631500D1*
X3656500Y2562760D1*
Y2553626D1*
X3681500Y2528626D1*
X4106500D1*
Y2486520D1*
X3031500Y2618803D2*
Y2661894D1*
X3006500Y2686894D1*
X2876303D1*
Y2768390D1*
X3656500D1*
X3681500Y2743390D1*
Y2578626D1*
X3706500Y2553626D1*
X4219000D1*
X4244000Y2528626D1*
Y2486520D1*
X744000Y1331500D2*
D15*
Y1335386D1*
X869000D1*
Y1356882D1*
X1884472Y2544598D2*
D14*
X1794000D1*
X2216028Y2703409D2*
X2244000Y2675437D1*
Y2618803D1*
X2665654Y661717D2*
D18*
Y1144000D1*
X2714079D1*
X2724305Y1154226D1*
D19*
X2781500Y1211421D1*
X3081500Y1337406D2*
Y1331500D1*
D18*
X2881500Y1131500D1*
Y680713D1*
X2862504Y661717D1*
X3059354D2*
Y1063291D1*
D19*
X3081500Y1085437D1*
X3356500Y1211421D2*
X3348921D1*
D18*
X3256500Y1119000D1*
Y662012D1*
X3256205Y661717D1*
X3453055D2*
Y1133961D1*
X3599305Y1280211D1*
D19*
X3656500Y1337406D1*
Y1085437D2*
Y1004551D1*
D18*
Y668311D1*
X3649906Y661717D1*
X3846756D2*
Y1114177D1*
D19*
X3931500Y1198921D1*
X4231500Y1324906D2*
Y1319000D1*
D18*
X4056500Y1144000D1*
Y674610D1*
X4043606Y661717D1*
X4240457D2*
Y1063980D1*
D19*
X4231500Y1072937D1*
X3846756Y3543606D2*
D18*
Y2716244D1*
X3856500Y2706500D1*
X4064079D1*
D19*
X4114079Y2656500D1*
X4043606Y3543606D2*
D18*
Y3012012D1*
D19*
X3988094Y2956500D1*
X4240063D2*
Y3037386D1*
D18*
Y3543213D1*
X4240457Y3543606D1*
X1406402Y3219000D2*
D14*
X1327031D1*
Y3269000D1*
X1281500D1*
X1206697Y3319669D2*
Y3269000D1*
Y3226618D1*
X1287803D1*
Y3194000D1*
X1312803Y3169000D1*
X1406402D1*
X744000Y931500D2*
D15*
Y784630D1*
X787701Y740929D1*
Y661717D1*
X544000Y931500D2*
Y787779D1*
X590850Y740929D1*
Y661717D1*
X981500Y931500D2*
Y822453D1*
X984551Y819402D1*
Y661717D1*
X1181500Y931500D2*
Y820976D1*
X1181402Y820878D1*
Y661717D1*
X1606500Y931500D2*
Y836626D1*
X1575102Y805228D1*
Y661717D1*
X1406500Y931500D2*
Y769177D1*
X1378252Y740929D1*
Y661717D1*
X2031500Y931500D2*
Y803626D1*
X1968803Y740929D1*
Y661717D1*
X1831500Y931500D2*
Y800476D1*
X1771953Y740929D1*
Y661717D1*
X1406500Y2156500D2*
D14*
Y2248606D1*
X1594000D1*
Y2206500D1*
X744000Y1898323D2*
Y1803323D1*
X1594000Y2206500D2*
X1669000D1*
X1694000Y2231500D1*
Y2369000D1*
X1794000D2*
Y2261008D1*
X1769000Y2236008D1*
Y2156500D1*
X1880890Y2206500D2*
X1944000D1*
X1769000Y2156500D2*
Y2068094D1*
X1744000Y2043094D1*
X1277465D1*
X1252465Y2018094D1*
Y1828323D1*
X1227465Y1803323D1*
X1131500D1*
X1894000Y2369000D2*
X1989492Y2273508D1*
X2106500D1*
X2131500Y2248508D1*
X2234724D1*
X2264232Y2219000D1*
X2319000D1*
X2131500Y2248508D2*
Y2169000D1*
X1569000Y1905823D2*
Y1803646D1*
X2681500Y2206500D2*
Y2248606D1*
X2494000D1*
Y2169000D1*
X2094000Y2075598D2*
X2019000D1*
Y1803646D1*
X2494000Y2169000D2*
Y2075598D1*
X2094000D1*
X1204965Y1850823D2*
D16*
Y1963587D1*
X1094000D1*
X2460890Y2440890D2*
Y2664697D1*
X2431500Y2694087D1*
Y2769000D1*
X3611913Y3320496D2*
Y3194000D1*
X3453055Y3543606D2*
X3368842Y3627819D1*
X1659315D1*
X1575102Y3543606D1*
X3081012Y2292780D2*
D20*
X3056480Y2317312D1*
Y2444000D1*
X3119197D1*
X2631500Y3119000D2*
D17*
X2502705D1*
X2494004Y3127701D1*
X1844000Y2769000D2*
D16*
Y2708409D1*
X1981500D1*
X2094000D1*
Y2619000D1*
X3249102Y2292780D2*
Y2444000D1*
X3319197D1*
X984551Y2981500D2*
X869000D1*
X1331500Y2619000D2*
Y2679591D1*
X1604472D1*
X1629472Y2704591D1*
Y2769000D1*
X1694000D1*
X1244098Y3178449D2*
D20*
X1123925D1*
Y3194000D1*
X1061913D1*
X1575102Y3543606D2*
D16*
Y3428311D1*
X1525102Y3378311D1*
X1502583D1*
X1477583Y3353311D1*
X1452583Y3378311D1*
X1086913D1*
X1061913Y3353311D1*
X984551Y3430673D1*
Y3543606D1*
X3446795Y2408335D2*
X3531697D1*
Y2444000D1*
X2788528Y2790890D2*
X2816638Y2819000D1*
X2869197D1*
X1749472Y1769197D2*
X1819000D1*
X719000Y2856500D2*
Y2772287D1*
X757425D1*
X782425D1*
Y2819000D1*
X869000D1*
X1981500Y2708409D2*
Y2769000D1*
X1694000D2*
X1758528D1*
X1844000D1*
X1604472Y2679591D2*
X1629472D1*
Y2619000D1*
X1644000D1*
X1194000Y2619402D2*
X1331500Y2619000D1*
X1056500Y2619402D2*
X1194000D1*
X782425Y2558764D2*
X938488D1*
Y2569402D1*
X988488Y2619402D1*
X1056500D1*
X782780Y2229236D2*
X782425Y2558764D1*
X782780Y2229236D2*
X749755D1*
X782780Y2262261D1*
Y2229236D1*
X1094000Y1963587D2*
X832780D1*
X782780Y2013587D1*
Y2229236D1*
X2431500Y2769000D2*
Y2767091D1*
X2281500D1*
Y2769000D1*
X3261913Y3085894D2*
Y3194000D1*
X3611913D2*
Y3085894D1*
X3261913D1*
X1477583Y3353311D2*
D17*
Y3269000D1*
X1406402D1*
X2494000Y2969000D2*
D16*
X2496028Y2966972D1*
Y2769000D1*
X2431500D1*
X2419000Y3219000D2*
X2108921D1*
X2083921Y3194000D1*
X1986913D1*
X2494004Y3127701D2*
Y3219000D1*
X2419000D1*
X2281500Y1843803D2*
X2208528D1*
Y1769000D1*
X2144000D1*
X2281500Y1949000D2*
Y1843803D1*
X2431500Y1844000D2*
X2361972D1*
Y1928528D1*
X2341500Y1949000D1*
X2281500D1*
X2569000Y1843803D2*
X2431500Y1844000D1*
X3319197Y2444000D2*
D20*
Y2497465D1*
X3438448D1*
X3446795Y2489118D1*
X782425Y2558764D2*
D16*
Y2747287D1*
X757425Y2772287D1*
X869000Y2981500D2*
X774000D1*
X738213Y2945713D1*
X719000D1*
Y2856500D1*
X1061913Y3194000D2*
Y3353311D1*
D50*
X2680890Y3030890D3*
X2732366Y3269000D3*
X2943390Y2873996D3*
X2764728Y3219000D3*
X2414469Y3409000D3*
X1780890Y3043390D3*
X1549630Y3219000D3*
X3656500Y2394000D3*
X943488Y2679992D3*
X608134Y2062358D3*
X4231500Y2297996D3*
X3008118Y1708606D3*
X1690890Y3040890D3*
X1919000Y1708606D3*
X1716996Y3265496D3*
X1556500Y2898992D3*
X1853528Y2618803D3*
X2394000Y2430890D3*
X1553528Y2544197D3*
X2329469Y3144197D3*
X613134Y2379000D3*
X2329469Y3324000D3*
X1094000Y2258508D3*
X3156598Y2147386D3*
X1644000Y2480890D3*
X1231500Y2974020D3*
X2743390Y3169000D3*
X2431500Y2899394D3*
X2696972Y2713409D3*
X2356500Y2488390D3*
X3113803Y2383331D3*
X2763362Y2232783D3*
X3194098D3*
X3159492Y2513390D3*
X2351028Y2822091D3*
X2334472Y2678413D3*
X1844000Y3118390D3*
X2088929Y3274000D3*
X2643390Y2769000D3*
X2562130Y3219000D3*
X1643390Y3371504D3*
X1574472Y2619000D3*
X1634472Y2843803D3*
X2211980Y1909394D3*
Y2126480D3*
X2257366Y3068390D3*
X1432110Y2562579D3*
X1194000Y2343508D3*
X1344610Y1935823D3*
X938528Y2744197D3*
X607780D3*
X2790890Y2455890D3*
X3313803Y2353449D3*
X2943390Y1929000D3*
X3870654Y2486520D3*
X2659472Y2550890D3*
X2821972Y2618803D3*
X3128528D3*
X1884472Y2544598D3*
X2216028Y2703409D3*
X1327031Y3269000D3*
X1206697Y3319669D3*
X744000Y1898323D3*
X1880890Y2206500D3*
X1569000Y1905823D3*
X2094000Y2075598D3*
X3261913Y3085894D3*
X3081012Y2292780D3*
X1204965Y1850823D3*
X2460890Y2440890D3*
X3611913Y3320496D3*
X984551Y2981500D3*
X3446795Y2408335D3*
X3249102Y2292780D3*
X2788528Y2790890D3*
X2494004Y3127701D3*
X2281500Y1949000D3*
X3446795Y2489118D3*
X1749472Y1769197D3*
X483536Y3706631D2*
D21*
X3729024D1*
X483243Y3681762D2*
X3729024D1*
X482950Y3656894D2*
X3729024D1*
X482657Y3632025D2*
X3729024D1*
X482364Y3607156D2*
X512618D1*
X669083D2*
X744063D1*
X831339D2*
X1103194D1*
X1259610D2*
X1334591D1*
X1421915D2*
X1693722D1*
X1850187D2*
X1925167D1*
X2012442D2*
X2121993D1*
X2209317D2*
X2587423D1*
X2743888D2*
X2818868D1*
X2906144D2*
X3015694D1*
X3103019D2*
X3177999D1*
X3334415D2*
X3606271D1*
X3693546D2*
X3729024D1*
X482071Y3582287D2*
X512618D1*
X669083D2*
X720138D1*
X855265D2*
X1103194D1*
X1259610D2*
X1310665D1*
X1445841D2*
X1693722D1*
X1850187D2*
X1901241D1*
X2036368D2*
X2098067D1*
X2233243D2*
X2587423D1*
X2743888D2*
X2794942D1*
X2930069D2*
X2991769D1*
X3126944D2*
X3177999D1*
X3334415D2*
X3582296D1*
X481778Y3557419D2*
X512618D1*
X669083D2*
X710763D1*
X864640D2*
X1103194D1*
X1259610D2*
X1301290D1*
X1455216D2*
X1693722D1*
X1850187D2*
X1891866D1*
X2045743D2*
X2088692D1*
X2242618D2*
X2587423D1*
X2743888D2*
X2785567D1*
X2939444D2*
X2982394D1*
X3136319D2*
X3177999D1*
X3334415D2*
X3572970D1*
X481485Y3532550D2*
X512618D1*
X669083D2*
X710323D1*
X865079D2*
X1103194D1*
X1259610D2*
X1300851D1*
X1455655D2*
X1693722D1*
X1850187D2*
X1891378D1*
X2046183D2*
X2088253D1*
X2243058D2*
X2587423D1*
X2743888D2*
X2785079D1*
X2939884D2*
X2981954D1*
X3136759D2*
X3177999D1*
X3334415D2*
X3572481D1*
X481192Y3507681D2*
X512618D1*
X669083D2*
X718575D1*
X856827D2*
X1103194D1*
X1259610D2*
X1309103D1*
X1447403D2*
X1693722D1*
X1850187D2*
X1899679D1*
X2037931D2*
X2096505D1*
X2234806D2*
X2587423D1*
X2743888D2*
X2793380D1*
X2931632D2*
X2990206D1*
X3128507D2*
X3177999D1*
X3334415D2*
X3580782D1*
X480851Y3482812D2*
X512618D1*
X669083D2*
X740060D1*
X835343D2*
X1103194D1*
X1259610D2*
X1330636D1*
X1425870D2*
X1693722D1*
X1850187D2*
X1921163D1*
X2016446D2*
X2118038D1*
X2213272D2*
X2587423D1*
X2743888D2*
X2814864D1*
X2910147D2*
X3011739D1*
X3106974D2*
X3177999D1*
X3334415D2*
X3602267D1*
X3697550D2*
X3729024D1*
X480558Y3457944D2*
X551876D1*
X629825D2*
X733907D1*
X826700D2*
X1629269D1*
X3715519D2*
X3729024D1*
X480265Y3433075D2*
X551876D1*
X629825D2*
X709005D1*
X817179D2*
X1608956D1*
X479972Y3408206D2*
X551876D1*
X629825D2*
X685519D1*
X792325D2*
X1606905D1*
X3512345D2*
X3664132D1*
X479679Y3383337D2*
X551876D1*
X629825D2*
X680001D1*
X767472D2*
X1595919D1*
X3532853D2*
X3664913D1*
X479386Y3358469D2*
X551876D1*
X629825D2*
X680001D1*
X757999D2*
X1178585D1*
X1234806D2*
X1596261D1*
X2945255D2*
X3460958D1*
X3535001D2*
X3664913D1*
X479093Y3333600D2*
X551876D1*
X629825D2*
X680001D1*
X757999D2*
X1159835D1*
X1253556D2*
X1532589D1*
X1921183D2*
X2281466D1*
X2947452D2*
X3462032D1*
X3535001D2*
X3664913D1*
X629825Y3308731D2*
X650606D1*
X787394D2*
X1159005D1*
X1353702D2*
X1525655D1*
X1920011D2*
X2055489D1*
X2122354D2*
X2283028D1*
X2947452D2*
X3462032D1*
X3535001D2*
X3664913D1*
X629825Y3283862D2*
X650606D1*
X787394D2*
X1164913D1*
X1373575D2*
X1525655D1*
X1920011D2*
X2040987D1*
X2947452D2*
X3462032D1*
X3535001D2*
X3664913D1*
X629825Y3258993D2*
X650606D1*
X787394D2*
X1164913D1*
X1374942D2*
X1523409D1*
X1920011D2*
X2042403D1*
X2947452D2*
X3462032D1*
X3535001D2*
X3664913D1*
X622159Y3234125D2*
X650606D1*
X960001D2*
X1164913D1*
X1474796D2*
X1503146D1*
X1920011D2*
X2062521D1*
X2115372D2*
X2496456D1*
X2947452D2*
X2977999D1*
X3160001D2*
X3327999D1*
X3535001D2*
X3664913D1*
X587394Y3209256D2*
X636446D1*
X960001D2*
X1174972D1*
X1474796D2*
X1501681D1*
X1920011D2*
X2514181D1*
X3160001D2*
X3327999D1*
X3535001D2*
X3664913D1*
X587394Y3184387D2*
X608712D1*
X960001D2*
X1252706D1*
X1474796D2*
X1513155D1*
X1920011D2*
X2303585D1*
X2477530D2*
X2528585D1*
X3160001D2*
X3327999D1*
X3533585D2*
X3664913D1*
X476993Y3159518D2*
X583858D1*
X960001D2*
X1271700D1*
X1474796D2*
X1514474D1*
X1920011D2*
X2283077D1*
X2477530D2*
X2563106D1*
X3160001D2*
X3327999D1*
X3510001D2*
X3664913D1*
X476700Y3134650D2*
X565694D1*
X888956D2*
X1289669D1*
X1474796D2*
X1550606D1*
X1920011D2*
X2281466D1*
X2477530D2*
X2563106D1*
X2972452D2*
X3664913D1*
X476407Y3109781D2*
X563790D1*
X656437D2*
X1286300D1*
X1474796D2*
X1550606D1*
X1935147D2*
X2233663D1*
X2281046D2*
X2295724D1*
X2477530D2*
X2661886D1*
X2972452D2*
X3664913D1*
X476114Y3084912D2*
X563790D1*
X651749D2*
X1286300D1*
X1474796D2*
X1550606D1*
X1960001D2*
X2211397D1*
X2971378D2*
X3664913D1*
X475821Y3060043D2*
X563790D1*
X651749D2*
X1286300D1*
X1978653D2*
X2209103D1*
X2953165D2*
X3664913D1*
X475528Y3035175D2*
X563790D1*
X651749D2*
X1285226D1*
X1979874D2*
X2222335D1*
X2920646D2*
X3664913D1*
X475235Y3010306D2*
X563790D1*
X651749D2*
X1105831D1*
X2437784D2*
X2550216D1*
X2937784D2*
X3205245D1*
X3282755D2*
X3664913D1*
X474894Y2985437D2*
X563790D1*
X651749D2*
X1105831D1*
X2452530D2*
X2535470D1*
X2952530D2*
X3183419D1*
X3304581D2*
X3664913D1*
X474601Y2960568D2*
X563790D1*
X651749D2*
X1105831D1*
X2454288D2*
X2533712D1*
X2954288D2*
X3176729D1*
X3311271D2*
X3664913D1*
X474308Y2935699D2*
X563790D1*
X651749D2*
X810470D1*
X981192D2*
X1105831D1*
X2463077D2*
X2543526D1*
X2944474D2*
X3180050D1*
X3307950D2*
X3664913D1*
X651749Y2910831D2*
X810470D1*
X1603946D2*
X1686446D1*
X1701560D2*
X1786446D1*
X2205167D2*
X2286446D1*
X2301560D2*
X2383907D1*
X2479093D2*
X2586446D1*
X2974259D2*
X3046017D1*
X3166983D2*
X3186251D1*
X3292569D2*
X3664913D1*
X651749Y2885962D2*
X810470D1*
X1752530D2*
X1785470D1*
X2340030D2*
X2372970D1*
X2490030D2*
X2510470D1*
X2990812D2*
X3046017D1*
X3282022D2*
X3664913D1*
X651749Y2861093D2*
X810470D1*
X1752530D2*
X1785470D1*
X2490030D2*
X2510470D1*
X2990567D2*
X3046017D1*
X3258878D2*
X3664913D1*
X651749Y2836224D2*
X1105831D1*
X1207169D2*
X1286202D1*
X1752530D2*
X1785470D1*
X1902530D2*
X1922970D1*
X2490030D2*
X2510470D1*
X2777530D2*
X2902218D1*
X651749Y2811356D2*
X1112521D1*
X1200479D2*
X1311104D1*
X1752530D2*
X1785470D1*
X1902530D2*
X1922970D1*
X2490030D2*
X2510470D1*
X2777530D2*
X2902218D1*
X651749Y2786487D2*
X810470D1*
X960343D2*
X1112521D1*
X1200479D2*
X1335958D1*
X1615030D2*
X2035470D1*
X2215030D2*
X2318624D1*
X2383438D2*
X2510470D1*
X2777530D2*
X2845040D1*
X653409Y2761618D2*
X810470D1*
X984122D2*
X1112521D1*
X1200479D2*
X1360812D1*
X1615030D2*
X2036300D1*
X2215030D2*
X2510470D1*
X2777530D2*
X2839815D1*
X656192Y2736749D2*
X810470D1*
X986905D2*
X1102071D1*
X1200479D2*
X1385909D1*
X1615030D2*
X2058761D1*
X2250919D2*
X2510470D1*
X2777530D2*
X2839815D1*
X651749Y2711881D2*
X810470D1*
X1196329D2*
X2114522D1*
X2264249D2*
X2299679D1*
X2369278D2*
X2648019D1*
X2745938D2*
X2839815D1*
X651749Y2687012D2*
X895040D1*
X1174698D2*
X2114522D1*
X2393937D2*
X2531124D1*
X651749Y2662143D2*
X898067D1*
X1149845D2*
X1435470D1*
X1594327D2*
X1735470D1*
X1872892D2*
X1885460D1*
X2002530D2*
X2114522D1*
X2452530D2*
X2497970D1*
X650235Y2637274D2*
X922628D1*
X964347D2*
X1435470D1*
X1619718D2*
X1693331D1*
X2002530D2*
X2114522D1*
X2452530D2*
X2497970D1*
X630704Y2612406D2*
X1435470D1*
X1622989D2*
X1669698D1*
X2002530D2*
X2114522D1*
X2452530D2*
X2497970D1*
X470157Y2587537D2*
X997970D1*
X1115030D2*
X1135470D1*
X1252530D2*
X1272970D1*
X2002530D2*
X2035470D1*
X2452530D2*
X2497970D1*
X469864Y2562668D2*
X997970D1*
X1115030D2*
X1135470D1*
X1252530D2*
X1272970D1*
X2452530D2*
X2497970D1*
X4260538D2*
X4378731D1*
X469571Y2537799D2*
X997970D1*
X1115030D2*
X1135470D1*
X1252530D2*
X1272970D1*
X2452530D2*
X2497970D1*
X4279239D2*
X4378390D1*
X601798Y2512930D2*
X997970D1*
X1115030D2*
X1135470D1*
X1252530D2*
X1272970D1*
X2452530D2*
X2497970D1*
X4294669D2*
X4378048D1*
X652481Y2488062D2*
X1019991D1*
X1093009D2*
X1157491D1*
X1230509D2*
X1294991D1*
X2430509D2*
X2519991D1*
X3235782D2*
X3352218D1*
X3435782D2*
X3564718D1*
X4294669D2*
X4377755D1*
X657120Y2463193D2*
X1019991D1*
X1093009D2*
X1157491D1*
X1230509D2*
X1294991D1*
X2430509D2*
X2519991D1*
X3088517D2*
X3152218D1*
X3235782D2*
X3352218D1*
X3435782D2*
X3564718D1*
X4294669D2*
X4377413D1*
X657120Y2438324D2*
X1019991D1*
X1093009D2*
X1157491D1*
X1230509D2*
X1295382D1*
X2442423D2*
X2523556D1*
X2979874D2*
X3152218D1*
X3235782D2*
X3352218D1*
X3435782D2*
X3564718D1*
X4294669D2*
X4377071D1*
X657120Y2413455D2*
X1019991D1*
X1093009D2*
X1157491D1*
X1230509D2*
X1310860D1*
X2439591D2*
X2453659D1*
X2979874D2*
X3075899D1*
X3235782D2*
X3352218D1*
X3435782D2*
X3564718D1*
X4294669D2*
X4376729D1*
X661124Y2388587D2*
X1020382D1*
X1112003D2*
X1157491D1*
X1230509D2*
X1333126D1*
X2651505D2*
X2736495D1*
X2979874D2*
X3065108D1*
X3230362D2*
X3280831D1*
X3430509D2*
X3527315D1*
X4294669D2*
X4376388D1*
X659562Y2363718D2*
X1035714D1*
X1136856D2*
X1149632D1*
X1238370D2*
X1333126D1*
X2654630D2*
X2733370D1*
X2979874D2*
X3069161D1*
X3215909D2*
X3265938D1*
X3430509D2*
X3527315D1*
X4294669D2*
X4376046D1*
X657120Y2338849D2*
X1060616D1*
X1242765D2*
X1333126D1*
X2646524D2*
X2741476D1*
X2979874D2*
X3097774D1*
X3198380D2*
X3267159D1*
X3430509D2*
X3527315D1*
X3610880D2*
X4200021D1*
X4287979D2*
X4375704D1*
X648722Y2313980D2*
X1085470D1*
X1232413D2*
X1333126D1*
X1454874D2*
X1471944D1*
X1516056D2*
X1571944D1*
X1616056D2*
X1657491D1*
X2316056D2*
X2371944D1*
X2416056D2*
X2471944D1*
X2516056D2*
X2571944D1*
X2616056D2*
X2771944D1*
X2979874D2*
X3114815D1*
X3198380D2*
X3286739D1*
X3430509D2*
X3527315D1*
X4005948D2*
X4185323D1*
X4287979D2*
X4375362D1*
X624405Y2289112D2*
X1056515D1*
X1211466D2*
X1657491D1*
X2796085D2*
X2821700D1*
X2979874D2*
X3120089D1*
X3193106D2*
X3357491D1*
X3430509D2*
X3536837D1*
X4042374D2*
X4086739D1*
X4282071D2*
X4375069D1*
X466300Y2264243D2*
X1045333D1*
X1236319D2*
X1373800D1*
X1626700D2*
X1657491D1*
X2800089D2*
X2815371D1*
X3038761D2*
X3120089D1*
X3479874D2*
X3524239D1*
X4042374D2*
X4086739D1*
X4176261D2*
X4196993D1*
X4266007D2*
X4374728D1*
X465958Y2239374D2*
X1033517D1*
X1260831D2*
X1346017D1*
X3038761D2*
X3120089D1*
X3479874D2*
X3524239D1*
X3613761D2*
X3952901D1*
X4042374D2*
X4086739D1*
X4176261D2*
X4374386D1*
X465665Y2214505D2*
X1033517D1*
X1154483D2*
X1184933D1*
X1268009D2*
X1346017D1*
X3038761D2*
X3120089D1*
X3479874D2*
X3524239D1*
X3613761D2*
X3952901D1*
X4042374D2*
X4086739D1*
X4176261D2*
X4374044D1*
X465372Y2189636D2*
X1033517D1*
X1154483D2*
X1194991D1*
X1268009D2*
X1346017D1*
X2783194D2*
X2815401D1*
X3038761D2*
X3120089D1*
X3213956D2*
X3390401D1*
X3479874D2*
X3524239D1*
X3613761D2*
X3952901D1*
X4042374D2*
X4086739D1*
X4176261D2*
X4373702D1*
X643497Y2164768D2*
X1033517D1*
X1154483D2*
X1194991D1*
X1268009D2*
X1346017D1*
X2732169D2*
X2814181D1*
X3038761D2*
X3110958D1*
X3202237D2*
X3389181D1*
X3479874D2*
X3524239D1*
X3613761D2*
X3961153D1*
X4034122D2*
X4087521D1*
X4175479D2*
X4373360D1*
X652140Y2139899D2*
X1033517D1*
X1154483D2*
X1194991D1*
X1268009D2*
X1346017D1*
X2889933D2*
X2906905D1*
X3037979D2*
X3050757D1*
X3204972D2*
X3289132D1*
X3464933D2*
X3525021D1*
X3612979D2*
X3625757D1*
X3687296D2*
X3951827D1*
X4034122D2*
X4087521D1*
X4175479D2*
X4373019D1*
X652140Y2115030D2*
X1033517D1*
X1154483D2*
X1194991D1*
X1268009D2*
X1346017D1*
X2865616D2*
X2906905D1*
X3192472D2*
X3289132D1*
X3440616D2*
X3525313D1*
X3714542D2*
X3864132D1*
X4027530D2*
X4087521D1*
X4279728D2*
X4372677D1*
X652140Y2090161D2*
X1033517D1*
X1154483D2*
X1195138D1*
X2848868D2*
X2906905D1*
X3148282D2*
X3289132D1*
X3423868D2*
X3537569D1*
X3723282D2*
X3864132D1*
X4003214D2*
X4087521D1*
X4295353D2*
X4372335D1*
X681095Y2065293D2*
X1208761D1*
X2848868D2*
X2906905D1*
X3146817D2*
X3289132D1*
X3423868D2*
X3562423D1*
X3721817D2*
X3864132D1*
X3998868D2*
X4087667D1*
X4298771D2*
X4372042D1*
X687979Y2040424D2*
X1224337D1*
X2191983D2*
X2433517D1*
X2848868D2*
X2906905D1*
X2979874D2*
X3024044D1*
X3134220D2*
X3289132D1*
X3423868D2*
X3599044D1*
X3709220D2*
X3864132D1*
X3998868D2*
X4098946D1*
X4292276D2*
X4371700D1*
X687979Y2015555D2*
X1215987D1*
X2191983D2*
X2433517D1*
X2718009D2*
X2906905D1*
X2979874D2*
X3037521D1*
X3125479D2*
X3864132D1*
X3998868D2*
X4192208D1*
X4270792D2*
X4371358D1*
X687979Y1990686D2*
X1215987D1*
X1466983D2*
X1708517D1*
X2191983D2*
X2433517D1*
X2718009D2*
X2906905D1*
X2979874D2*
X3037521D1*
X3125479D2*
X4371017D1*
X687979Y1965818D2*
X1215987D1*
X1466983D2*
X1708517D1*
X2191983D2*
X2433517D1*
X2718009D2*
X2906905D1*
X2979874D2*
X3037521D1*
X3125479D2*
X4370675D1*
X687979Y1940949D2*
X722921D1*
X765079D2*
X1215987D1*
X1466983D2*
X1536007D1*
X1601993D2*
X1708517D1*
X2248624D2*
X2433517D1*
X2554483D2*
X2585616D1*
X2718009D2*
X2895968D1*
X2990812D2*
X3037521D1*
X3125479D2*
X4370333D1*
X789493Y1916080D2*
X1215987D1*
X1466983D2*
X1521163D1*
X1616837D2*
X1708517D1*
X2260489D2*
X2433517D1*
X2554483D2*
X2589522D1*
X2718009D2*
X2896212D1*
X2990567D2*
X3037521D1*
X3125479D2*
X4369991D1*
X792472Y1891211D2*
X1215987D1*
X1466983D2*
X1522335D1*
X1615665D2*
X1708517D1*
X2257267D2*
X2433517D1*
X2554483D2*
X2589522D1*
X2718009D2*
X2913790D1*
X2972989D2*
X3037521D1*
X3125479D2*
X4369649D1*
X806485Y1866343D2*
X969015D1*
X1193985D2*
X1215987D1*
X1631485D2*
X1760470D1*
X2232071D2*
X2589522D1*
X2718009D2*
X3037521D1*
X3125479D2*
X4369356D1*
X806485Y1841474D2*
X866134D1*
X1193985D2*
X1215060D1*
X1631485D2*
X1760470D1*
X2202530D2*
X2589522D1*
X2718009D2*
X3037521D1*
X3125479D2*
X4369015D1*
X806485Y1816605D2*
X837032D1*
X1631485D2*
X1760470D1*
X2202530D2*
X2222970D1*
X2340030D2*
X2372970D1*
X2490030D2*
X2510470D1*
X2718009D2*
X3037521D1*
X3125479D2*
X4368673D1*
X1631485Y1791736D2*
X1856515D1*
X2202530D2*
X2222970D1*
X2340030D2*
X2372970D1*
X2490030D2*
X2510470D1*
X2718009D2*
X3030099D1*
X3125479D2*
X4368331D1*
X1631485Y1766867D2*
X1856515D1*
X2106437D2*
X2222970D1*
X2340030D2*
X2372970D1*
X2490030D2*
X2510470D1*
X2718009D2*
X3005196D1*
X3122647D2*
X4367989D1*
X2106437Y1741999D2*
X2222970D1*
X2340030D2*
X2372970D1*
X2716788D2*
X2973263D1*
X3102677D2*
X4367647D1*
X2340030Y1717130D2*
X2372970D1*
X2698282D2*
X2959884D1*
X3077823D2*
X4367306D1*
X2316886Y1692261D2*
X2424190D1*
X2663810D2*
X2962081D1*
X3054142D2*
X4366964D1*
X784838Y3251996D2*
X957508D1*
Y3136004D1*
X889100D1*
X881824Y3132818D1*
X875492Y3131298D1*
X869000Y3130787D1*
X674908D1*
X649249Y3105066D1*
X649280Y2765207D1*
X652004Y2758566D1*
X653708Y2751471D1*
X654280Y2744197D1*
X653708Y2736923D1*
X652004Y2729828D1*
X649266Y2723203D1*
X649152Y2645272D1*
X648133Y2638840D1*
X646121Y2632646D1*
X643165Y2626844D1*
X639337Y2621575D1*
X634732Y2616971D1*
X629464Y2613143D1*
X623661Y2610187D1*
X617468Y2608174D1*
X611036Y2607155D1*
X599235Y2607028D1*
X599280Y2602342D1*
X467785D1*
X466785Y2515179D1*
X599280Y2515185D1*
Y2510449D1*
X616390Y2510372D1*
X622822Y2509354D1*
X629015Y2507341D1*
X634818Y2504385D1*
X640086Y2500557D1*
X644691Y2495952D1*
X648519Y2490684D1*
X651475Y2484881D1*
X653488Y2478688D1*
X654506Y2472256D1*
X654634Y2406500D1*
Y2400006D1*
X657358Y2393369D1*
X659062Y2386274D1*
X659634Y2379000D1*
X659062Y2371726D1*
X657358Y2364631D1*
X654620Y2358006D1*
X654506Y2335744D1*
X653487Y2329312D1*
X651475Y2323119D1*
X648519Y2317316D1*
X644691Y2312048D1*
X622479Y2289655D1*
X617527Y2285426D1*
X611975Y2282023D1*
X605958Y2279531D1*
X599634Y2277685D1*
Y2272815D1*
X463843D1*
X462838Y2185612D1*
X599634Y2185657D1*
Y2180921D1*
X611390Y2180845D1*
X617822Y2179826D1*
X624015Y2177813D1*
X629818Y2174857D1*
X635086Y2171029D1*
X639691Y2166425D1*
X643519Y2161156D1*
X646475Y2155354D1*
X648487Y2149160D1*
X649506Y2142728D1*
X649634Y2083467D1*
X656824Y2081827D1*
X662841Y2079335D1*
X668393Y2075932D1*
X673345Y2071703D1*
X677574Y2066751D1*
X680977Y2061199D1*
X683469Y2055182D1*
X684989Y2048850D1*
X685500Y2042358D1*
Y1873169D1*
X703965Y1873081D1*
X704352Y1874027D1*
X701040Y1880528D1*
X698785Y1887468D1*
X697643Y1894675D1*
Y1901971D1*
X698785Y1909178D1*
X701040Y1916118D1*
X704352Y1922619D1*
X708641Y1928522D1*
X713801Y1933682D1*
X719704Y1937971D1*
X726205Y1941283D1*
X733145Y1943538D1*
X740352Y1944680D1*
X747648D1*
X754855Y1943538D1*
X761795Y1941283D1*
X768296Y1937971D1*
X774199Y1933682D1*
X779359Y1928522D1*
X783648Y1922619D1*
X786960Y1916118D1*
X789215Y1909178D1*
X790357Y1901971D1*
Y1894675D1*
X789215Y1887468D1*
X786960Y1880528D1*
X783053Y1873137D1*
X803965Y1873130D1*
Y1780991D1*
X857989Y1834880D1*
X863257Y1838707D1*
X869059Y1841664D1*
X875253Y1843676D1*
X881685Y1844695D1*
X947441Y1844823D1*
X971513D1*
X971535Y1873130D1*
X1191465D1*
Y1837339D1*
X1213385Y1837323D1*
X1218465Y1853323D1*
X1218570Y2020762D1*
X1219404Y2026031D1*
X1221053Y2031105D1*
X1223475Y2035859D1*
X1226611Y2040175D1*
X1231427Y2045139D1*
X1205646Y2071013D1*
X1202510Y2075329D1*
X1200088Y2080083D1*
X1198439Y2085157D1*
X1197605Y2090426D1*
X1197500Y2193094D1*
Y2204471D1*
X1140373Y2261552D1*
X1140357Y2254860D1*
X1139215Y2247653D1*
X1138468Y2245004D1*
X1151996Y2245008D1*
Y2067992D1*
X1036004D1*
Y2245008D1*
X1049529D1*
X1048072Y2251234D1*
X1047500Y2258508D1*
X1048072Y2265782D1*
X1049776Y2272877D1*
X1052568Y2279619D1*
X1056381Y2285840D1*
X1061120Y2291388D1*
X1066668Y2296127D1*
X1072889Y2299940D1*
X1079631Y2302732D1*
X1086726Y2304436D1*
X1094000Y2305008D1*
X1097064Y2304888D1*
X1030646Y2371427D1*
X1027510Y2375743D1*
X1025088Y2380497D1*
X1023439Y2385571D1*
X1022605Y2390840D1*
X1022500Y2492483D1*
X1000473Y2492508D1*
Y2596689D1*
X1112528D1*
Y2492508D1*
X1090506D1*
X1090500Y2407538D1*
X1147972Y2350119D1*
X1149776Y2357877D1*
X1152568Y2364619D1*
X1156381Y2370840D1*
X1160006Y2375184D1*
X1160000Y2492483D1*
X1137973Y2492508D1*
Y2596689D1*
X1250028D1*
Y2492508D1*
X1228006D1*
X1228000Y2375214D1*
X1231619Y2370840D1*
X1235432Y2364619D1*
X1238224Y2357877D1*
X1239928Y2350782D1*
X1240500Y2343508D1*
X1239928Y2336234D1*
X1238224Y2329139D1*
X1235432Y2322397D1*
X1231619Y2316176D1*
X1226880Y2310628D1*
X1221332Y2305889D1*
X1215111Y2302076D1*
X1208369Y2299284D1*
X1200580Y2297498D1*
X1257354Y2240589D1*
X1260490Y2236273D1*
X1262912Y2231519D1*
X1264561Y2226445D1*
X1265395Y2221176D1*
X1265500Y2118508D1*
Y2107131D1*
X1281500Y2102094D1*
X1348541D1*
X1348504Y2245008D1*
X1372479D1*
X1372919Y2253925D1*
X1374164Y2259113D1*
X1376206Y2264042D1*
X1378993Y2268591D1*
X1382458Y2272648D1*
X1386515Y2276113D1*
X1391064Y2278900D1*
X1395993Y2280942D1*
X1401181Y2282187D1*
X1406500Y2282606D1*
X1596668Y2282501D1*
X1601937Y2281667D1*
X1607011Y2280018D1*
X1611765Y2277596D1*
X1616081Y2274460D1*
X1619854Y2270687D1*
X1622990Y2266371D1*
X1625412Y2261617D1*
X1626441Y2258741D1*
X1633346Y2257606D1*
X1642154D1*
Y2240468D1*
X1654889Y2240500D1*
X1660000Y2256500D1*
Y2321490D1*
X1652712Y2327712D1*
X1646762Y2334679D1*
X1644013Y2338851D1*
X1638400Y2331079D1*
X1631921Y2324600D1*
X1624509Y2319215D1*
X1616345Y2315055D1*
X1607631Y2312224D1*
X1598581Y2310790D1*
X1589419D1*
X1580369Y2312224D1*
X1571655Y2315055D1*
X1563491Y2319215D1*
X1556079Y2324600D1*
X1549600Y2331079D1*
X1544013Y2338851D1*
X1538400Y2331079D1*
X1531921Y2324600D1*
X1524509Y2319215D1*
X1516345Y2315055D1*
X1507631Y2312224D1*
X1498581Y2310790D1*
X1489419D1*
X1480369Y2312224D1*
X1471655Y2315055D1*
X1463491Y2319215D1*
X1456079Y2324600D1*
X1452384Y2328067D1*
X1452390Y2310610D1*
X1335610D1*
Y2391616D1*
X1323619Y2403187D1*
X1305646Y2421309D1*
X1302510Y2425625D1*
X1300088Y2430379D1*
X1298439Y2435453D1*
X1297605Y2440722D1*
X1297500Y2492072D1*
X1275473Y2492106D1*
Y2596287D1*
X1387528D1*
Y2575828D1*
X1390678Y2583690D1*
X1394491Y2589911D1*
X1399230Y2595459D1*
X1404778Y2600198D1*
X1410999Y2604011D1*
X1417741Y2606803D1*
X1424836Y2608507D1*
X1432110Y2609079D1*
X1437982Y2608672D1*
X1437973Y2671090D1*
X1550028D1*
X1550176Y2658648D1*
X1556677Y2661960D1*
X1563617Y2664215D1*
X1570824Y2665357D1*
X1578120D1*
X1585327Y2664215D1*
X1592267Y2661960D1*
X1598768Y2658648D1*
X1604671Y2654359D1*
X1609831Y2649199D1*
X1614120Y2643296D1*
X1617432Y2636795D1*
X1619687Y2629855D1*
X1620829Y2622648D1*
Y2615352D1*
X1619687Y2608145D1*
X1617432Y2601205D1*
X1615005Y2596284D1*
X1667123Y2596287D1*
X1667967Y2602339D1*
X1669616Y2607413D1*
X1672038Y2612167D1*
X1675174Y2616483D1*
X1701986Y2643443D1*
X1706043Y2646908D1*
X1710592Y2649696D1*
X1715521Y2651738D1*
X1720709Y2652983D1*
X1726028Y2653402D1*
X1737990D1*
X1737972Y2671492D1*
X1850028D1*
Y2665193D1*
X1857176Y2665160D1*
X1864383Y2664018D1*
X1871323Y2661763D1*
X1877824Y2658451D1*
X1883727Y2654162D1*
X1885204Y2652797D1*
X1887972Y2654213D1*
Y2670894D1*
X2000028D1*
Y2578169D1*
X2037991Y2578197D1*
X2037973Y2596287D1*
X2117025D1*
X2117028Y2716954D1*
X2075473Y2716909D1*
Y2735024D1*
X2066653Y2735419D1*
X2061465Y2736664D1*
X2056536Y2738706D1*
X2051987Y2741493D1*
X2047930Y2744958D1*
X2044465Y2749015D1*
X2041678Y2753564D1*
X2039636Y2758493D1*
X2038391Y2763681D1*
X2037972Y2769000D1*
Y2804693D1*
X2037528Y2791712D1*
X1925473D1*
Y2852894D1*
X1913681Y2853313D1*
X1908493Y2854558D1*
X1903564Y2856600D1*
X1900028Y2858394D1*
Y2791713D1*
X1787973D1*
Y2895894D1*
X1809994D1*
X1810000Y2912797D1*
X1803134Y2911329D1*
X1794000Y2910610D1*
X1784866Y2911329D1*
X1775957Y2913468D1*
X1767492Y2916974D1*
X1759679Y2921762D1*
X1752712Y2927712D1*
X1746762Y2934679D1*
X1744013Y2938851D1*
X1738400Y2931079D1*
X1731921Y2924600D1*
X1724509Y2919215D1*
X1716345Y2915055D1*
X1707631Y2912224D1*
X1698581Y2910790D1*
X1689419D1*
X1680369Y2912224D1*
X1671655Y2915055D1*
X1663491Y2919215D1*
X1656079Y2924600D1*
X1649600Y2931079D1*
X1644013Y2938851D1*
X1638400Y2931079D1*
X1631921Y2924600D1*
X1624509Y2919215D1*
X1616345Y2915055D1*
X1607631Y2912224D1*
X1601373Y2911121D1*
X1602857Y2902640D1*
X1602863Y2895500D1*
X1612528Y2895492D1*
Y2884799D1*
X1620103Y2888027D1*
X1627198Y2889731D1*
X1634472Y2890303D1*
X1637964Y2890166D1*
X1637973Y2895893D1*
X1750028D1*
Y2791712D1*
X1637973D1*
Y2797425D1*
X1630824Y2797446D1*
X1623617Y2798588D1*
X1616677Y2800843D1*
X1612528Y2802838D1*
Y2716508D1*
X1500473D1*
Y2727103D1*
X1411756Y2727226D1*
X1405324Y2728245D1*
X1399130Y2730257D1*
X1393328Y2733214D1*
X1388059Y2737042D1*
X1341472Y2783448D1*
X1284883Y2840037D1*
X1204698Y2840000D1*
X1204654Y2830393D1*
X1197964D1*
X1197872Y2726736D1*
X1196853Y2720304D1*
X1194841Y2714111D1*
X1191885Y2708308D1*
X1188057Y2703040D1*
X1141651Y2656453D1*
X1133452Y2648435D1*
X1128184Y2644607D1*
X1122381Y2641651D1*
X1116188Y2639639D1*
X1109756Y2638620D1*
X1044000Y2638492D1*
X964459D1*
X957857Y2635768D1*
X950762Y2634064D1*
X943488Y2633492D1*
X936214Y2634064D1*
X929119Y2635768D1*
X922377Y2638560D1*
X916156Y2642373D1*
X910608Y2647112D1*
X905869Y2652660D1*
X902056Y2658881D1*
X899264Y2665623D1*
X897560Y2672718D1*
X896988Y2679992D1*
X897560Y2687266D1*
X898625Y2692096D1*
X812973Y2692106D1*
Y2796287D1*
X925028D1*
Y2788719D1*
X931254Y2790125D1*
X938528Y2790697D1*
X945802Y2790125D1*
X952897Y2788421D1*
X959639Y2785629D1*
X965860Y2781816D1*
X971408Y2777077D1*
X976147Y2771529D1*
X979960Y2765308D1*
X982752Y2758566D1*
X984456Y2751471D1*
X985028Y2744197D1*
X984456Y2736923D1*
X982752Y2729828D1*
X979960Y2723086D1*
X979061Y2721481D1*
X1089338Y2721492D1*
X1115031Y2747213D1*
X1115000Y2830431D1*
X1108347Y2830393D1*
Y2840013D1*
X970941Y2840128D1*
X964509Y2841147D1*
X958316Y2843159D1*
X952513Y2846115D1*
X947245Y2849943D1*
X931766Y2865241D1*
X925028Y2858787D1*
Y2854606D1*
X812973D1*
Y2958787D1*
X925028D1*
Y2948192D1*
X952256Y2948069D1*
X958688Y2947050D1*
X964882Y2945038D1*
X970684Y2942082D1*
X975952Y2938254D1*
X991431Y2922956D1*
X1108328Y2923000D1*
X1108347Y3025126D1*
X1204654D1*
Y3011991D1*
X1210389Y3015452D1*
X1217131Y3018244D1*
X1224226Y3019948D1*
X1231500Y3020520D1*
X1238774Y3019948D1*
X1245869Y3018244D1*
X1252611Y3015452D1*
X1258832Y3011639D1*
X1263993Y3007259D1*
X1266725Y3012574D1*
X1270553Y3017842D1*
X1289027Y3036497D1*
X1288799Y3065890D1*
X1288917Y3122006D1*
X1289857Y3127944D1*
X1291715Y3133661D1*
X1295038Y3140010D1*
X1290722Y3143146D1*
X1263761Y3169958D1*
X1260296Y3174015D1*
X1257509Y3178564D1*
X1255467Y3183493D1*
X1254222Y3188681D1*
X1253893Y3191718D1*
X1250303Y3192618D1*
X1204029Y3192723D1*
X1198760Y3193557D1*
X1193686Y3195206D1*
X1188932Y3197628D1*
X1184616Y3200764D1*
X1180843Y3204537D1*
X1177707Y3208853D1*
X1175285Y3213607D1*
X1173636Y3218681D1*
X1173070Y3221682D1*
X1167402Y3221830D1*
Y3294828D1*
X1163737Y3301874D1*
X1161482Y3308814D1*
X1160340Y3316021D1*
Y3323317D1*
X1161482Y3330524D1*
X1163737Y3337464D1*
X1167049Y3343965D1*
X1171338Y3349868D1*
X1176498Y3355028D1*
X1182401Y3359317D1*
X1188902Y3362629D1*
X1195842Y3364884D1*
X1203049Y3366026D1*
X1210345D1*
X1217552Y3364884D1*
X1224492Y3362629D1*
X1230993Y3359317D1*
X1236896Y3355028D1*
X1242056Y3349868D1*
X1246345Y3343965D1*
X1249657Y3337464D1*
X1251912Y3330524D1*
X1253054Y3323317D1*
X1253060Y3316177D1*
X1320796Y3316169D1*
Y3315046D1*
X1327031Y3315500D1*
X1334305Y3314928D1*
X1341400Y3313224D1*
X1348142Y3310432D1*
X1354363Y3306619D1*
X1359911Y3301880D1*
X1364650Y3296332D1*
X1368463Y3290111D1*
X1371255Y3283369D1*
X1372959Y3276274D1*
X1373531Y3269000D1*
X1372959Y3261726D1*
X1372010Y3257307D1*
X1472272Y3257311D1*
Y3082360D1*
X1553115Y3082390D1*
X1553130Y3135035D1*
X1544311Y3135419D1*
X1539123Y3136664D1*
X1534194Y3138706D1*
X1529645Y3141493D1*
X1525588Y3144958D1*
X1522123Y3149015D1*
X1519336Y3153564D1*
X1517294Y3158493D1*
X1516049Y3163681D1*
X1515630Y3169000D1*
Y3187311D1*
X1512011Y3191668D1*
X1508198Y3197889D1*
X1505406Y3204631D1*
X1503702Y3211726D1*
X1503130Y3219000D1*
X1503702Y3226274D1*
X1505406Y3233369D1*
X1508198Y3240111D1*
X1512011Y3246332D1*
X1516750Y3251880D1*
X1522298Y3256619D1*
X1529154Y3260724D1*
X1528235Y3266332D1*
Y3315664D1*
X1529069Y3320933D1*
X1530718Y3326007D1*
X1533140Y3330761D1*
X1536276Y3335077D1*
X1540049Y3338850D1*
X1544365Y3341986D1*
X1549119Y3344408D1*
X1554193Y3346057D1*
X1559462Y3346891D1*
X1603878Y3346996D1*
X1600430Y3353709D1*
X1598175Y3360649D1*
X1597033Y3367856D1*
Y3375152D1*
X1598175Y3382359D1*
X1600430Y3389299D1*
X1603742Y3395800D1*
X1608031Y3401703D1*
X1609396Y3403180D1*
X1609495Y3424168D1*
X1610329Y3429437D1*
X1611978Y3434511D1*
X1614400Y3439265D1*
X1617536Y3443581D1*
X1644348Y3470542D1*
X1648405Y3474007D1*
X1652954Y3476794D1*
X1657883Y3478836D1*
X1663071Y3480082D1*
X1668390Y3480500D1*
X1696271D1*
X1696240Y3619319D1*
X1847665D1*
Y3480500D1*
X1926935D1*
X1919632Y3486034D1*
X1911231Y3494435D1*
X1904248Y3504047D1*
X1898854Y3514632D1*
X1895182Y3525932D1*
X1893324Y3537666D1*
Y3549547D1*
X1895182Y3561281D1*
X1898854Y3572580D1*
X1904248Y3583166D1*
X1911231Y3592778D1*
X1919632Y3601179D1*
X1929243Y3608162D1*
X1939829Y3613556D1*
X1951128Y3617227D1*
X1962863Y3619086D1*
X1974743D1*
X1986478Y3617227D1*
X1997777Y3613556D1*
X2008363Y3608162D1*
X2017975Y3601179D1*
X2026375Y3592778D1*
X2033359Y3583166D1*
X2038752Y3572580D1*
X2042424Y3561281D1*
X2044282Y3549547D1*
Y3537666D1*
X2042424Y3525932D1*
X2038752Y3514632D1*
X2033359Y3504047D1*
X2026375Y3494435D1*
X2017975Y3486034D1*
X2010506Y3480483D1*
X2123810Y3480500D1*
X2116482Y3486034D1*
X2108081Y3494435D1*
X2101098Y3504047D1*
X2095704Y3514632D1*
X2092033Y3525932D1*
X2090174Y3537666D1*
Y3549547D1*
X2092033Y3561281D1*
X2095704Y3572580D1*
X2101098Y3583166D1*
X2108081Y3592778D1*
X2116482Y3601179D1*
X2126094Y3608162D1*
X2136680Y3613556D1*
X2147979Y3617227D1*
X2159713Y3619086D1*
X2171594D1*
X2183328Y3617227D1*
X2194628Y3613556D1*
X2205213Y3608162D1*
X2214825Y3601179D1*
X2223226Y3592778D1*
X2230209Y3583166D1*
X2235603Y3572580D1*
X2239274Y3561281D1*
X2241133Y3549547D1*
Y3537666D1*
X2239274Y3525932D1*
X2235603Y3514632D1*
X2230209Y3504047D1*
X2223226Y3494435D1*
X2214825Y3486034D1*
X2207357Y3480483D1*
X2589923Y3480500D1*
X2589941Y3619319D1*
X2741366D1*
Y3480500D1*
X2820685D1*
X2813333Y3486034D1*
X2804932Y3494435D1*
X2797948Y3504047D1*
X2792555Y3514632D1*
X2788883Y3525932D1*
X2787025Y3537666D1*
Y3549547D1*
X2788883Y3561281D1*
X2792555Y3572580D1*
X2797948Y3583166D1*
X2804932Y3592778D1*
X2813333Y3601179D1*
X2822944Y3608162D1*
X2833530Y3613556D1*
X2844829Y3617227D1*
X2856564Y3619086D1*
X2868444D1*
X2880179Y3617227D1*
X2891478Y3613556D1*
X2902064Y3608162D1*
X2911675Y3601179D1*
X2920076Y3592778D1*
X2927060Y3583166D1*
X2932453Y3572580D1*
X2936125Y3561281D1*
X2937983Y3549547D1*
Y3537666D1*
X2936125Y3525932D1*
X2932453Y3514632D1*
X2927060Y3504047D1*
X2920076Y3494435D1*
X2911675Y3486034D1*
X2904207Y3480483D1*
X3017560Y3480500D1*
X3010183Y3486034D1*
X3001782Y3494435D1*
X2994799Y3504047D1*
X2989405Y3514632D1*
X2985734Y3525932D1*
X2983875Y3537666D1*
Y3549547D1*
X2985734Y3561281D1*
X2989405Y3572580D1*
X2994799Y3583166D1*
X3001782Y3592778D1*
X3010183Y3601179D1*
X3019795Y3608162D1*
X3030380Y3613556D1*
X3041680Y3617227D1*
X3053414Y3619086D1*
X3065295D1*
X3077029Y3617227D1*
X3088328Y3613556D1*
X3098914Y3608162D1*
X3108526Y3601179D1*
X3116927Y3592778D1*
X3123910Y3583166D1*
X3129304Y3572580D1*
X3132975Y3561281D1*
X3134834Y3549547D1*
Y3537666D1*
X3132975Y3525932D1*
X3129304Y3514632D1*
X3123910Y3504047D1*
X3116927Y3494435D1*
X3108526Y3486034D1*
X3101057Y3480483D1*
X3180451Y3480500D1*
X3180492Y3619319D1*
X3331917D1*
Y3480500D1*
X3608087D1*
X3600734Y3486034D1*
X3592333Y3494435D1*
X3585350Y3504047D1*
X3579956Y3514632D1*
X3576285Y3525932D1*
X3574426Y3537666D1*
Y3549547D1*
X3576285Y3561281D1*
X3579956Y3572580D1*
X3585350Y3583166D1*
X3592333Y3592778D1*
X3600734Y3601179D1*
X3610346Y3608162D1*
X3620932Y3613556D1*
X3632231Y3617227D1*
X3643965Y3619086D1*
X3655846D1*
X3667580Y3617227D1*
X3678879Y3613556D1*
X3689465Y3608162D1*
X3699077Y3601179D1*
X3707478Y3592778D1*
X3714461Y3583166D1*
X3719855Y3572580D1*
X3723526Y3561281D1*
X3725385Y3549547D1*
Y3537666D1*
X3723526Y3525932D1*
X3719855Y3514632D1*
X3714461Y3504047D1*
X3707478Y3494435D1*
X3699077Y3486034D1*
X3689465Y3479051D1*
X3688229Y3478359D1*
X3694186Y3475490D1*
X3698502Y3472354D1*
X3725463Y3445542D1*
X3728928Y3441485D1*
X3730599Y3438928D1*
X3731500Y3444000D1*
Y3731500D1*
X481349Y3731351D1*
X476569Y3332210D1*
X554351Y3332213D1*
X554063Y3467894D1*
X515138D1*
Y3619319D1*
X666563D1*
Y3467894D1*
X627354D1*
X627238Y3253636D1*
X626342Y3247979D1*
X624572Y3242532D1*
X621972Y3237429D1*
X618605Y3232795D1*
X614555Y3228745D1*
X609922Y3225379D1*
X604818Y3222778D1*
X599371Y3221008D1*
X593714Y3220112D1*
X584845Y3220000D1*
X584870Y3180787D1*
X474763D1*
X471779Y2932239D1*
X566265Y2932212D1*
X566408Y3125543D1*
X567427Y3131975D1*
X569439Y3138168D1*
X572395Y3143971D1*
X576223Y3149239D1*
X622629Y3195826D1*
X630828Y3203844D1*
X636096Y3207672D1*
X641899Y3210628D1*
X648092Y3212640D1*
X651655Y3213319D1*
X653130Y3218287D1*
Y3332212D1*
X682476D1*
X682612Y3391824D1*
X683508Y3397481D1*
X685278Y3402928D1*
X687878Y3408031D1*
X691245Y3412665D1*
X751230Y3472809D1*
X748141Y3479051D1*
X738529Y3486034D1*
X730128Y3494435D1*
X723145Y3504047D1*
X717751Y3514632D1*
X714080Y3525932D1*
X712222Y3537666D1*
Y3549547D1*
X714080Y3561281D1*
X717751Y3572580D1*
X723145Y3583166D1*
X730128Y3592778D1*
X738529Y3601179D1*
X748141Y3608162D1*
X758727Y3613556D1*
X770026Y3617227D1*
X781760Y3619086D1*
X793641D1*
X805376Y3617227D1*
X816675Y3613556D1*
X827261Y3608162D1*
X836872Y3601179D1*
X845273Y3592778D1*
X852256Y3583166D1*
X857650Y3572580D1*
X861321Y3561281D1*
X863180Y3549547D1*
Y3537666D1*
X861321Y3525932D1*
X857650Y3514632D1*
X852256Y3504047D1*
X845273Y3494435D1*
X836872Y3486034D1*
X827261Y3479051D1*
X824201Y3477337D1*
X824088Y3454797D1*
X823192Y3449140D1*
X821422Y3443693D1*
X818822Y3438590D1*
X815456Y3433956D1*
X755471Y3373812D1*
X755500Y3332173D1*
X784870Y3332212D1*
Y3251988D1*
X2375473Y3196287D2*
X2475028D1*
Y3102391D1*
X2659270Y3102390D1*
X2664370Y3118390D1*
Y3130646D1*
X2565630Y3130689D1*
Y3172632D1*
X2558482Y3172643D1*
X2551275Y3173785D1*
X2544335Y3176040D1*
X2537834Y3179352D1*
X2531931Y3183641D1*
X2526771Y3188801D1*
X2522482Y3194704D1*
X2519170Y3201205D1*
X2516915Y3208145D1*
X2515773Y3215352D1*
X2515694Y3217361D1*
X2493031Y3240016D1*
X2120655Y3240000D1*
X2113225Y3234352D1*
X2106724Y3231040D1*
X2099784Y3228785D1*
X2092577Y3227643D1*
X2085281D1*
X2078074Y3228785D1*
X2071134Y3231040D1*
X2064633Y3234352D1*
X2058730Y3238641D1*
X2053570Y3243801D1*
X2049281Y3249704D1*
X2045969Y3256205D1*
X2043714Y3263145D1*
X2042572Y3270352D1*
Y3277648D1*
X2043714Y3284855D1*
X2045969Y3291795D1*
X2049281Y3298296D1*
X2053570Y3304199D1*
X2058730Y3309359D1*
X2064633Y3313648D1*
X2071134Y3316960D1*
X2078074Y3319215D1*
X2085281Y3320357D1*
X2092577D1*
X2099784Y3319215D1*
X2106724Y3316960D1*
X2113225Y3313648D1*
X2119128Y3309359D1*
X2120605Y3307994D1*
X2285853Y3308000D1*
X2284254Y3313145D1*
X2283112Y3320352D1*
Y3327648D1*
X2284254Y3334855D1*
X2285001Y3337504D1*
X1922541Y3337500D1*
X1917508Y3321500D1*
Y3124869D1*
X1969244Y3073034D1*
X1972380Y3068718D1*
X1974802Y3063964D1*
X1976451Y3058890D1*
X1977285Y3053621D1*
X1977390Y3025025D1*
X1984866Y3026671D1*
X1994000Y3027390D1*
X2003134Y3026671D1*
X2012043Y3024532D1*
X2020508Y3021026D1*
X2028321Y3016238D1*
X2035288Y3010288D1*
X2041238Y3003321D1*
X2043987Y2999149D1*
X2049600Y3006921D1*
X2056079Y3013400D1*
X2063491Y3018785D1*
X2071655Y3022945D1*
X2080369Y3025776D1*
X2089419Y3027210D1*
X2098581D1*
X2107631Y3025776D1*
X2116345Y3022945D1*
X2124509Y3018785D1*
X2131921Y3013400D1*
X2138400Y3006921D1*
X2143987Y2999149D1*
X2149600Y3006921D1*
X2156079Y3013400D1*
X2163491Y3018785D1*
X2171655Y3022945D1*
X2180369Y3025776D1*
X2189419Y3027210D1*
X2198581D1*
X2207631Y3025776D1*
X2216345Y3022945D1*
X2224509Y3018785D1*
X2231921Y3013400D1*
X2238400Y3006921D1*
X2243987Y2999149D1*
X2249600Y3006921D1*
X2256079Y3013400D1*
X2263491Y3018785D1*
X2271655Y3022945D1*
X2280369Y3025776D1*
X2289419Y3027210D1*
X2298581D1*
X2307631Y3025776D1*
X2316345Y3022945D1*
X2324509Y3018785D1*
X2331921Y3013400D1*
X2338400Y3006921D1*
X2343987Y2999149D1*
X2349600Y3006921D1*
X2356079Y3013400D1*
X2363491Y3018785D1*
X2371655Y3022945D1*
X2380369Y3025776D1*
X2389419Y3027210D1*
X2398581D1*
X2407631Y3025776D1*
X2416345Y3022945D1*
X2424509Y3018785D1*
X2431921Y3013400D1*
X2438400Y3006921D1*
X2443785Y2999509D1*
X2447945Y2991345D1*
X2450776Y2982631D1*
X2452210Y2973581D1*
Y2964419D1*
X2450776Y2955369D1*
X2447945Y2946655D1*
X2446453Y2943419D1*
X2452611Y2940826D1*
X2458832Y2937013D1*
X2464380Y2932274D1*
X2469119Y2926726D1*
X2472932Y2920505D1*
X2475724Y2913763D1*
X2477428Y2906668D1*
X2478000Y2899394D1*
X2477863Y2895902D1*
X2487528Y2895894D1*
Y2791712D1*
X2386256D1*
X2381227Y2786732D1*
X2375324Y2782443D1*
X2368823Y2779131D1*
X2361883Y2776876D1*
X2354676Y2775734D1*
X2347380D1*
X2340173Y2776876D1*
X2333233Y2779131D1*
X2326732Y2782443D1*
X2320829Y2786732D1*
X2315834Y2791714D1*
X2225473Y2791712D1*
Y2895894D1*
X2337528D1*
Y2876802D1*
X2344752Y2874097D1*
X2349301Y2871310D1*
X2351680Y2869395D1*
X2354676Y2868448D1*
X2361883Y2867306D1*
X2368823Y2865051D1*
X2375478Y2861636D1*
X2375473Y2895894D1*
X2385092D1*
X2385143Y2903042D1*
X2386521Y2911087D1*
X2375957Y2913468D1*
X2367492Y2916974D1*
X2359679Y2921762D1*
X2352712Y2927712D1*
X2346762Y2934679D1*
X2344013Y2938851D1*
X2338400Y2931079D1*
X2331921Y2924600D1*
X2324509Y2919215D1*
X2316345Y2915055D1*
X2307631Y2912224D1*
X2298581Y2910790D1*
X2289419D1*
X2280369Y2912224D1*
X2271655Y2915055D1*
X2263491Y2919215D1*
X2256079Y2924600D1*
X2249600Y2931079D1*
X2244013Y2938851D1*
X2238400Y2931079D1*
X2231921Y2924600D1*
X2224509Y2919215D1*
X2216345Y2915055D1*
X2207631Y2912224D1*
X2202263Y2911226D1*
X2206035Y2906879D1*
X2208822Y2902330D1*
X2210864Y2897401D1*
X2212110Y2892213D1*
X2212528Y2886894D1*
Y2749736D1*
X2219676Y2749766D1*
X2226883Y2748624D1*
X2233823Y2746369D1*
X2240324Y2743057D1*
X2246227Y2738768D1*
X2251387Y2733608D1*
X2255676Y2727705D1*
X2258988Y2721204D1*
X2261243Y2714264D1*
X2262385Y2707057D1*
X2262464Y2705048D1*
X2271507Y2695422D1*
X2274294Y2690873D1*
X2276336Y2685944D1*
X2277581Y2680756D1*
X2278000Y2675437D1*
Y2670896D1*
X2288544Y2671139D1*
X2287972Y2678413D1*
X2288544Y2685687D1*
X2290248Y2692782D1*
X2293040Y2699524D1*
X2296853Y2705745D1*
X2301592Y2711293D1*
X2307140Y2716032D1*
X2313361Y2719845D1*
X2320103Y2722637D1*
X2327198Y2724341D1*
X2334472Y2724913D1*
X2341746Y2724341D1*
X2348841Y2722637D1*
X2355583Y2719845D1*
X2361804Y2716032D1*
X2367352Y2711293D1*
X2371977Y2705891D1*
X2376014Y2702455D1*
X2397826Y2680494D1*
X2400962Y2676178D1*
X2403518Y2671062D1*
X2450028Y2670894D1*
Y2491909D1*
X2428006D1*
X2428000Y2462604D1*
X2433648Y2455186D1*
X2436960Y2448685D1*
X2439215Y2441745D1*
X2440357Y2434538D1*
Y2427242D1*
X2439215Y2420035D1*
X2436960Y2413095D1*
X2435545Y2410026D1*
X2441238Y2403321D1*
X2443987Y2399149D1*
X2449600Y2406921D1*
X2456079Y2413400D1*
X2463491Y2418785D1*
X2471655Y2422945D1*
X2480369Y2425776D1*
X2489419Y2427210D1*
X2498581D1*
X2507631Y2425776D1*
X2516345Y2422945D1*
X2524509Y2418785D1*
X2531921Y2413400D1*
X2538400Y2406921D1*
X2543987Y2399149D1*
X2549600Y2406921D1*
X2552141Y2409670D1*
X2530646Y2431309D1*
X2527510Y2435625D1*
X2525088Y2440379D1*
X2523439Y2445453D1*
X2522605Y2450722D1*
X2522500Y2491915D1*
X2500473Y2491909D1*
Y2670893D1*
X2523764D1*
X2526206Y2677330D1*
X2528993Y2681879D1*
X2532458Y2685936D1*
X2536515Y2689401D1*
X2541064Y2692188D1*
X2545993Y2694230D1*
X2551181Y2695475D1*
X2556500Y2695894D1*
X2653912D1*
X2651757Y2702554D1*
X2650615Y2709761D1*
Y2717057D1*
X2651548Y2723215D1*
X2643390Y2722500D1*
X2636116Y2723072D1*
X2629021Y2724776D1*
X2625038Y2726296D1*
X2625028Y2716909D1*
X2512972D1*
Y2895894D1*
X2609408D1*
X2609390Y2912699D1*
X2603134Y2911329D1*
X2594000Y2910610D1*
X2584866Y2911329D1*
X2575957Y2913468D1*
X2567492Y2916974D1*
X2559679Y2921762D1*
X2552712Y2927712D1*
X2546762Y2934679D1*
X2541974Y2942492D1*
X2538468Y2950957D1*
X2536329Y2959866D1*
X2535610Y2969000D1*
X2536329Y2978134D1*
X2538468Y2987043D1*
X2541974Y2995508D1*
X2546762Y3003321D1*
X2552712Y3010288D1*
X2559679Y3016238D1*
X2567492Y3021026D1*
X2575957Y3024532D1*
X2584866Y3026671D1*
X2594000Y3027390D1*
X2603134Y3026671D1*
X2612043Y3024532D1*
X2620508Y3021026D1*
X2622087Y3020142D1*
X2634436Y3032520D1*
X2623370Y3034390D1*
X2289044D1*
X2284698Y3030771D1*
X2278477Y3026958D1*
X2271735Y3024166D1*
X2264640Y3022462D1*
X2257366Y3021890D1*
X2250092Y3022462D1*
X2242997Y3024166D1*
X2236255Y3026958D1*
X2230034Y3030771D1*
X2224486Y3035510D1*
X2219747Y3041058D1*
X2215934Y3047279D1*
X2213142Y3054021D1*
X2211438Y3061116D1*
X2210866Y3068390D1*
X2211438Y3075664D1*
X2213142Y3082759D1*
X2215934Y3089501D1*
X2219747Y3095722D1*
X2224486Y3101270D1*
X2230034Y3106009D1*
X2236255Y3109822D1*
X2242997Y3112614D1*
X2250092Y3114318D1*
X2257366Y3114890D1*
X2264640Y3114318D1*
X2271735Y3112614D1*
X2278477Y3109822D1*
X2284698Y3106009D1*
X2289042Y3102384D1*
X2309075Y3102390D1*
X2302137Y3106578D1*
X2296589Y3111317D1*
X2291850Y3116865D1*
X2288037Y3123086D1*
X2285245Y3129828D1*
X2283541Y3136923D1*
X2282969Y3144197D1*
X2283541Y3151471D1*
X2285245Y3158566D1*
X2288037Y3165308D1*
X2291850Y3171529D1*
X2296589Y3177077D1*
X2302137Y3181816D1*
X2308358Y3185629D1*
X2315100Y3188421D1*
X2322195Y3190125D1*
X2329469Y3190697D1*
X2336743Y3190125D1*
X2343838Y3188421D1*
X2350463Y3185683D1*
X2363014Y3185697D1*
X2362973Y3196287D1*
X2375473D1*
X1464496Y2009077D2*
Y1875079D1*
X1440522D1*
X1440485Y1873693D1*
X1471536Y1873453D1*
X1535061D1*
X1529352Y1881527D1*
X1526040Y1888028D1*
X1523785Y1894968D1*
X1522643Y1902175D1*
Y1909471D1*
X1523785Y1916678D1*
X1526040Y1923618D1*
X1529352Y1930119D1*
X1533641Y1936022D1*
X1538801Y1941182D1*
X1544704Y1945471D1*
X1551205Y1948783D1*
X1558145Y1951038D1*
X1565352Y1952180D1*
X1572648D1*
X1579855Y1951038D1*
X1586795Y1948783D1*
X1593296Y1945471D1*
X1599199Y1941182D1*
X1604359Y1936022D1*
X1608648Y1930119D1*
X1611960Y1923618D1*
X1614215Y1916678D1*
X1615357Y1909471D1*
Y1902175D1*
X1614215Y1894968D1*
X1611960Y1888028D1*
X1608648Y1881527D1*
X1604359Y1875624D1*
X1602994Y1874147D1*
X1609036Y1873453D1*
X1628965D1*
Y1750064D1*
X1859072Y1750106D1*
X1859036Y1791895D1*
X1762972Y1791909D1*
Y1875064D1*
X1711004Y1875079D1*
Y2009112D1*
X1464459Y2009094D1*
X2189496Y2041596D2*
Y1950092D1*
X2197611Y1953618D1*
X2204706Y1955322D1*
X2211980Y1955894D1*
X2219254Y1955322D1*
X2226349Y1953618D1*
X2233091Y1950826D1*
X2239312Y1947013D1*
X2244860Y1942274D1*
X2249599Y1936726D1*
X2253412Y1930505D1*
X2256204Y1923763D1*
X2257908Y1916668D1*
X2258480Y1909394D1*
X2257908Y1902120D1*
X2256204Y1895025D1*
X2253412Y1888283D1*
X2249599Y1882062D1*
X2244860Y1876514D1*
X2239312Y1871775D1*
X2233091Y1867962D1*
X2226349Y1865170D1*
X2219254Y1863466D1*
X2213522Y1862852D1*
X2209465Y1859387D1*
X2204916Y1856600D1*
X2202129Y1855348D1*
X2200028Y1845894D1*
Y1791712D1*
X2103983D1*
X2103965Y1740003D1*
X2119965Y1734913D1*
X2225483D1*
X2225473Y1821090D1*
X2337528D1*
Y1716909D1*
X2315506D1*
X2315395Y1698245D1*
X2314561Y1692976D1*
X2312912Y1687902D1*
X2310490Y1683148D1*
X2307354Y1678832D1*
X2303581Y1675059D1*
X2299265Y1671923D1*
X2294149Y1669367D1*
X2294000Y1669000D1*
X2983795D1*
X2977919Y1673247D1*
X2972759Y1678407D1*
X2968470Y1684310D1*
X2965158Y1690811D1*
X2962903Y1697751D1*
X2961761Y1704958D1*
Y1712254D1*
X2962903Y1719461D1*
X2965158Y1726401D1*
X2968470Y1732902D1*
X2972759Y1738805D1*
X2977919Y1743965D1*
X2983822Y1748254D1*
X2990323Y1751566D1*
X2993628Y1752786D1*
X3039989Y1799167D1*
X3040000Y2031646D1*
X3032160Y2039360D1*
X3031631Y2040032D1*
X3025894Y2040511D1*
X3019562Y2042031D1*
X3013545Y2044523D1*
X3007993Y2047926D1*
X3003041Y2052155D1*
X2977388Y2077808D1*
X2977390Y1960748D1*
X2983038Y1953296D1*
X2986350Y1946795D1*
X2988605Y1939855D1*
X2989747Y1932648D1*
Y1925352D1*
X2988605Y1918145D1*
X2986350Y1911205D1*
X2983038Y1904704D1*
X2978749Y1898801D1*
X2973589Y1893641D1*
X2967686Y1889352D1*
X2961185Y1886040D1*
X2954245Y1883785D1*
X2947038Y1882643D1*
X2939742D1*
X2932535Y1883785D1*
X2925595Y1886040D1*
X2919094Y1889352D1*
X2913191Y1893641D1*
X2908031Y1898801D1*
X2903742Y1904704D1*
X2900430Y1911205D1*
X2898175Y1918145D1*
X2897033Y1925352D1*
Y1932648D1*
X2898175Y1939855D1*
X2900430Y1946795D1*
X2903742Y1953296D1*
X2908031Y1959199D1*
X2909396Y1960676D1*
X2909390Y2312643D1*
X2898581Y2310790D1*
X2892801Y2310657D1*
X2894037Y2303904D1*
X2894142Y2276969D1*
X2902390Y2276996D1*
Y2161004D1*
X2894138D1*
X2893723Y2154823D1*
X2892478Y2149635D1*
X2890436Y2144706D1*
X2887648Y2140157D1*
X2884183Y2136100D1*
X2846377Y2098293D1*
X2846386Y2016614D1*
X2716614D1*
Y2062854D1*
X2715500Y2051480D1*
X2715395Y1748241D1*
X2714561Y1742972D1*
X2712912Y1737898D1*
X2710490Y1733144D1*
X2707354Y1728828D1*
X2680542Y1701867D1*
X2676485Y1698402D1*
X2671936Y1695615D1*
X2667007Y1693573D1*
X2661819Y1692328D1*
X2656500Y1691909D1*
X2428832Y1692014D1*
X2423563Y1692848D1*
X2418489Y1694497D1*
X2413735Y1696919D1*
X2409419Y1700055D1*
X2405646Y1703828D1*
X2402510Y1708144D1*
X2400088Y1712898D1*
X2399059Y1715774D1*
X2387528Y1717106D1*
X2375473D1*
Y1821287D1*
X2487528D1*
Y1759910D1*
X2512994Y1759909D1*
X2512973Y1821090D1*
X2592025D1*
X2592028Y1937018D1*
X2576028Y1942086D1*
X2551956D1*
X2551996Y1887578D1*
X2436004D1*
Y2041631D1*
X2189459Y2041598D1*
X3867154Y2352479D2*
Y2342893D1*
X3770847D1*
Y2352513D1*
X3677447Y2352500D1*
X3670869Y2349776D1*
X3663774Y2348072D1*
X3656500Y2347500D1*
X3649226Y2348072D1*
X3642131Y2349776D1*
X3635389Y2352568D1*
X3629168Y2356381D1*
X3623620Y2361120D1*
X3618881Y2366668D1*
X3615068Y2372889D1*
X3612276Y2379631D1*
X3610572Y2386726D1*
X3610000Y2394000D1*
X3610111Y2396836D1*
X3608394Y2388118D1*
Y2314436D1*
X4000309Y2314391D1*
X4005579Y2313557D1*
X4010653Y2311908D1*
X4015407Y2309486D1*
X4019723Y2306350D1*
X4023496Y2302577D1*
X4026632Y2298261D1*
X4029054Y2293507D1*
X4030082Y2290631D1*
X4039890Y2289496D1*
Y2173504D1*
X4031638D1*
X4031537Y2132474D1*
X4030702Y2127205D1*
X4029054Y2122130D1*
X4026632Y2117377D1*
X4023496Y2113060D1*
X3996375Y2085792D1*
X3996386Y2004114D1*
X3866614D1*
Y2133886D1*
X3948304D1*
X3963633Y2149217D1*
X3963642Y2173472D1*
X3955394Y2173504D1*
Y2246502D1*
X3611265Y2246496D1*
X3611248Y2161004D1*
X3610516D1*
X3610500Y2137018D1*
X3618361Y2133994D1*
X3627042Y2139314D1*
X3636449Y2143210D1*
X3646350Y2145587D1*
X3656500Y2146386D1*
X3666650Y2145587D1*
X3676551Y2143210D1*
X3685958Y2139314D1*
X3694639Y2133994D1*
X3702381Y2127381D1*
X3708994Y2119639D1*
X3714314Y2110958D1*
X3718210Y2101551D1*
X3720587Y2091650D1*
X3721386Y2081500D1*
X3720587Y2071350D1*
X3718210Y2061449D1*
X3714314Y2052042D1*
X3708994Y2043361D1*
X3702381Y2035619D1*
X3694639Y2029006D1*
X3685958Y2023686D1*
X3676551Y2019790D1*
X3666650Y2017413D1*
X3656500Y2016614D1*
X3646350Y2017413D1*
X3636449Y2019790D1*
X3627042Y2023686D1*
X3618361Y2029006D1*
X3610619Y2035619D1*
X3606631Y2040032D1*
X3600894Y2040511D1*
X3594562Y2042031D1*
X3588545Y2044523D1*
X3582993Y2047926D1*
X3578041Y2052155D1*
X3537443Y2092934D1*
X3533615Y2098202D1*
X3530659Y2104005D1*
X3528647Y2110198D1*
X3527628Y2116630D1*
X3527500Y2161048D1*
X3526752Y2161004D1*
Y2276996D1*
X3549555D1*
X3541592Y2285511D1*
X3538804Y2290060D1*
X3536762Y2294989D1*
X3535517Y2300177D1*
X3535098Y2306326D1*
X3529803Y2306279D1*
Y2400618D1*
X3567157D1*
X3567205Y2491169D1*
X3572527D1*
X3572500Y2498736D1*
X3556500Y2503760D1*
X3204986D1*
X3202452Y2495595D1*
X3200304Y2491172D1*
X3233295Y2491169D1*
Y2396831D1*
X3227973D1*
X3227581Y2386299D1*
X3226336Y2381111D1*
X3224294Y2376182D1*
X3221507Y2371633D1*
X3218042Y2367576D1*
X3213985Y2364111D1*
X3209436Y2361324D1*
X3204507Y2359282D1*
X3199319Y2358037D1*
X3196282Y2357708D1*
X3195894Y2338118D1*
Y2306279D1*
X3190572D1*
X3190598Y2279181D1*
X3197746Y2279140D1*
X3204953Y2277998D1*
X3211893Y2275743D1*
X3218394Y2272431D1*
X3224297Y2268142D1*
X3225774Y2266777D1*
X3354889Y2266783D1*
X3360000Y2282783D1*
Y2306269D1*
X3317303Y2306279D1*
Y2307109D1*
X3310155Y2307092D1*
X3302948Y2308234D1*
X3296008Y2310489D1*
X3289507Y2313801D1*
X3283604Y2318090D1*
X3278444Y2323250D1*
X3274155Y2329153D1*
X3270843Y2335654D1*
X3268588Y2342594D1*
X3267446Y2349801D1*
Y2357097D1*
X3268588Y2364304D1*
X3270843Y2371244D1*
X3274155Y2377745D1*
X3278444Y2383648D1*
X3283604Y2388808D1*
X3289507Y2393097D1*
X3296008Y2396409D1*
X3302948Y2398664D1*
X3310155Y2399806D1*
X3317295Y2399812D1*
X3317303Y2400618D1*
X3354657D1*
X3354705Y2491169D1*
X3433296D1*
Y2396830D1*
X3427973D1*
X3428000Y2276959D1*
X3477390Y2276996D1*
Y2161004D1*
X3469138D1*
X3468723Y2154823D1*
X3467478Y2149635D1*
X3465436Y2144706D1*
X3462648Y2140157D1*
X3459183Y2136100D1*
X3421377Y2098293D1*
X3421386Y2016614D1*
X3291614D1*
Y2146386D1*
X3373304D1*
X3392915Y2165998D1*
X3392894Y2208611D1*
X3386765Y2203793D1*
X3382011Y2201371D1*
X3376937Y2199722D1*
X3371668Y2198888D1*
X3225787Y2198783D1*
X3221430Y2195164D1*
X3215209Y2191351D1*
X3208467Y2188559D1*
X3201372Y2186855D1*
X3194098Y2186283D1*
X3190578Y2186421D1*
X3191957Y2177585D1*
X3196246Y2171682D1*
X3199558Y2165181D1*
X3201813Y2158241D1*
X3202955Y2151034D1*
Y2143738D1*
X3201813Y2136531D1*
X3199558Y2129591D1*
X3196246Y2123090D1*
X3191957Y2117187D1*
X3186797Y2112027D1*
X3180894Y2107738D1*
X3174393Y2104426D1*
X3167453Y2102171D1*
X3160246Y2101029D1*
X3152950D1*
X3145743Y2102171D1*
X3142709Y2103026D1*
X3144593Y2096647D1*
X3146186Y2086591D1*
Y2076409D1*
X3144593Y2066353D1*
X3141447Y2056669D1*
X3136824Y2047597D1*
X3130840Y2039360D1*
X3122999Y2031655D1*
X3122872Y1778732D1*
X3121853Y1772300D1*
X3119841Y1766107D1*
X3116885Y1760304D1*
X3113057Y1755036D1*
X3066651Y1708449D1*
X3052322Y1694120D1*
X3049550Y1687495D1*
X3045737Y1681274D1*
X3040998Y1675726D1*
X3035450Y1670987D1*
X3032450Y1668982D1*
X4369170Y1669168D1*
X4381330Y2569037D1*
X4251881Y2568829D1*
X4269854Y2550707D1*
X4272990Y2546391D1*
X4275412Y2541637D1*
X4276441Y2538761D1*
X4283347Y2537626D1*
X4292154D1*
Y2342893D1*
X4285464D1*
X4285372Y2307240D1*
X4284354Y2300808D1*
X4282341Y2294615D1*
X4279385Y2288812D1*
X4275724Y2283627D1*
X4272932Y2276885D1*
X4269119Y2270664D1*
X4264380Y2265116D1*
X4258832Y2260377D1*
X4252611Y2256564D1*
X4245869Y2253772D1*
X4238774Y2252068D1*
X4231500Y2251496D1*
X4224226Y2252068D1*
X4217131Y2253772D1*
X4210389Y2256564D1*
X4204168Y2260377D1*
X4198620Y2265116D1*
X4193881Y2270664D1*
X4190068Y2276885D1*
X4187276Y2283627D1*
X4185572Y2290722D1*
X4185000Y2297996D1*
X4185572Y2305270D1*
X4187276Y2312365D1*
X4190068Y2319107D1*
X4193881Y2325328D1*
X4198620Y2330876D1*
X4202522Y2334317D1*
X4202500Y2342869D1*
X4195847Y2342893D1*
Y2352513D1*
X4154693Y2352500D1*
X4154654Y2342894D1*
X4058347D1*
Y2352513D1*
X4004609Y2352500D1*
X4004654Y2342894D1*
X3908347D1*
Y2352513D1*
X3867193Y2352500D1*
X2977387Y2276996D2*
X3036248D1*
Y2161004D1*
X3035516D1*
X3035500Y2137018D1*
X3043361Y2133994D1*
X3052042Y2139314D1*
X3061449Y2143210D1*
X3071350Y2145587D1*
X3081500Y2146386D1*
X3091650Y2145587D1*
X3101551Y2143210D1*
X3110795Y2139389D1*
X3110098Y2147386D1*
X3110670Y2154660D1*
X3112374Y2161755D1*
X3115166Y2168497D1*
X3118979Y2174718D1*
X3122604Y2179062D1*
X3122598Y2306322D1*
X3117303Y2306279D1*
Y2336992D1*
X3110155Y2336974D1*
X3102948Y2338116D1*
X3096008Y2340371D1*
X3089507Y2343683D1*
X3083604Y2347972D1*
X3078444Y2353132D1*
X3074155Y2359035D1*
X3070843Y2365536D1*
X3068588Y2372476D1*
X3067446Y2379683D1*
Y2386979D1*
X3068588Y2394186D1*
X3070843Y2401126D1*
X3074155Y2407627D1*
X3078444Y2413530D1*
X3083604Y2418690D1*
X3089507Y2422979D1*
X3096008Y2426291D1*
X3102948Y2428546D1*
X3110155Y2429688D1*
X3117451D1*
X3124658Y2428546D1*
X3133087Y2425605D1*
X3154658Y2425618D1*
X3154705Y2467094D1*
X3145123Y2469166D1*
X3138381Y2471958D1*
X3132160Y2475771D1*
X3126612Y2480510D1*
X3121873Y2486058D1*
X3117541Y2493406D1*
X3090317Y2466315D1*
X3086001Y2463179D1*
X3081247Y2460757D1*
X3076173Y2459108D1*
X3070904Y2458274D1*
X2993390Y2458169D1*
X2988071Y2458588D1*
X2982883Y2459833D1*
X2977618Y2462063D1*
X2977390Y2431500D1*
Y2276959D1*
X2817894Y2165936D2*
Y2276996D1*
X2826146D1*
X2826142Y2287213D1*
X2817536Y2295907D1*
X2814400Y2300223D1*
X2811978Y2304977D1*
X2810329Y2310051D1*
X2809795Y2312783D1*
X2803134Y2311329D1*
X2794000Y2310610D1*
X2784866Y2311329D1*
X2775957Y2313468D1*
X2767492Y2316974D1*
X2759679Y2321762D1*
X2752712Y2327712D1*
X2746762Y2334679D1*
X2741974Y2342492D1*
X2738468Y2350957D1*
X2736329Y2359866D1*
X2735610Y2369000D1*
X2736329Y2378134D1*
X2738468Y2387043D1*
X2739590Y2390085D1*
X2734270Y2394426D1*
X2646583Y2394390D1*
X2649532Y2387043D1*
X2651671Y2378134D1*
X2652390Y2369000D1*
X2651671Y2359866D1*
X2649532Y2350957D1*
X2646026Y2342492D1*
X2641238Y2334679D1*
X2635288Y2327712D1*
X2628321Y2321762D1*
X2620508Y2316974D1*
X2612043Y2313468D1*
X2603134Y2311329D1*
X2594000Y2310610D1*
X2584866Y2311329D1*
X2575957Y2313468D1*
X2567492Y2316974D1*
X2559679Y2321762D1*
X2552712Y2327712D1*
X2546762Y2334679D1*
X2544013Y2338851D1*
X2538400Y2331079D1*
X2531921Y2324600D1*
X2524509Y2319215D1*
X2516345Y2315055D1*
X2507631Y2312224D1*
X2498581Y2310790D1*
X2489419D1*
X2480369Y2312224D1*
X2471655Y2315055D1*
X2463491Y2319215D1*
X2456079Y2324600D1*
X2449600Y2331079D1*
X2444013Y2338851D1*
X2438400Y2331079D1*
X2431921Y2324600D1*
X2424509Y2319215D1*
X2416345Y2315055D1*
X2407631Y2312224D1*
X2398581Y2310790D1*
X2389419D1*
X2380369Y2312224D1*
X2371655Y2315055D1*
X2363491Y2319215D1*
X2356079Y2324600D1*
X2349600Y2331079D1*
X2344013Y2338851D1*
X2338400Y2331079D1*
X2331921Y2324600D1*
X2324509Y2319215D1*
X2316345Y2315055D1*
X2307631Y2312224D1*
X2298581Y2310790D1*
X2289419D1*
X2280369Y2312224D1*
X2293390Y2307606D1*
X2766030Y2307501D1*
X2771299Y2306667D1*
X2776373Y2305018D1*
X2781127Y2302596D1*
X2785443Y2299460D1*
X2789216Y2295687D1*
X2792352Y2291371D1*
X2794774Y2286617D1*
X2796423Y2281543D1*
X2797257Y2276274D1*
X2797362Y2264475D1*
X2800981Y2260115D1*
X2804794Y2253894D1*
X2807586Y2247152D1*
X2809290Y2240057D1*
X2809862Y2232783D1*
X2809290Y2225509D1*
X2807586Y2218414D1*
X2804794Y2211672D1*
X2800981Y2205451D1*
X2796242Y2199903D1*
X2790694Y2195164D1*
X2784473Y2191351D1*
X2777731Y2188559D1*
X2770636Y2186855D1*
X2763362Y2186283D1*
X2756088Y2186855D1*
X2748993Y2188559D1*
X2742251Y2191351D1*
X2736030Y2195164D1*
X2729659Y2200793D1*
X2729654Y2146385D1*
X2798304Y2146386D1*
X2817915Y2165998D1*
X4101752Y2289496D2*
X4173748D1*
Y2173504D1*
X4173016D1*
X4173000Y2110455D1*
X4181646Y2110500D1*
X4189360Y2118340D1*
X4197597Y2124324D1*
X4206669Y2128947D1*
X4216353Y2132093D1*
X4226409Y2133686D1*
X4236591D1*
X4246647Y2132093D1*
X4256331Y2128947D1*
X4265403Y2124324D1*
X4273640Y2118340D1*
X4280840Y2111140D1*
X4286824Y2102903D1*
X4291447Y2093831D1*
X4294593Y2084147D1*
X4296186Y2074091D1*
Y2063909D1*
X4294593Y2053853D1*
X4291447Y2044169D1*
X4286824Y2035097D1*
X4280840Y2026860D1*
X4273640Y2019660D1*
X4265403Y2013676D1*
X4256331Y2009053D1*
X4246647Y2005907D1*
X4236591Y2004314D1*
X4226409D1*
X4216353Y2005907D1*
X4206669Y2009053D1*
X4197597Y2013676D1*
X4189360Y2019660D1*
X4181655Y2027501D1*
X4128244Y2027628D1*
X4121812Y2028647D1*
X4115619Y2030659D1*
X4109816Y2033615D1*
X4104548Y2037443D1*
X4099943Y2042048D1*
X4096115Y2047316D1*
X4093159Y2053119D1*
X4091147Y2059312D1*
X4090128Y2065744D1*
X4090000Y2131500D1*
Y2173541D1*
X4089252Y2173504D1*
Y2289496D1*
X4101752D1*
X2725596Y3018059D2*
X2731921Y3013400D1*
X2738400Y3006921D1*
X2743987Y2999149D1*
X2749600Y3006921D1*
X2756079Y3013400D1*
X2763491Y3018785D1*
X2771655Y3022945D1*
X2780369Y3025776D1*
X2789419Y3027210D1*
X2798581D1*
X2807631Y3025776D1*
X2816345Y3022945D1*
X2824509Y3018785D1*
X2831921Y3013400D1*
X2838400Y3006921D1*
X2843987Y2999149D1*
X2849600Y3006921D1*
X2856079Y3013400D1*
X2863491Y3018785D1*
X2871655Y3022945D1*
X2880369Y3025776D1*
X2889419Y3027210D1*
X2898581D1*
X2907631Y3025776D1*
X2916345Y3022945D1*
X2924509Y3018785D1*
X2931921Y3013400D1*
X2938400Y3006921D1*
X2943785Y2999509D1*
X2947945Y2991345D1*
X2950776Y2982631D1*
X2952210Y2973581D1*
Y2964419D1*
X2950776Y2955369D1*
X2947945Y2946655D1*
X2943785Y2938491D1*
X2938400Y2931079D1*
X2931921Y2924600D1*
X2926995Y2920876D1*
X2935811Y2920476D1*
X2936189Y2920400D1*
X2935811Y2920476D1*
X2947038Y2920353D1*
X2954245Y2919211D1*
X2961185Y2916956D1*
X2967686Y2913644D1*
X2973589Y2909355D1*
X2978749Y2904195D1*
X2983038Y2898292D1*
X2986350Y2891791D1*
X2988605Y2884851D1*
X2989747Y2877644D1*
Y2870348D1*
X2988605Y2863141D1*
X2986350Y2856201D1*
X2984864Y2852976D1*
X3048504Y2852972D1*
Y2911248D1*
X3164496D1*
Y2910515D1*
X3188482Y2910500D1*
X3191506Y2918361D1*
X3186186Y2927042D1*
X3182290Y2936449D1*
X3179913Y2946350D1*
X3179114Y2956500D1*
X3179913Y2966650D1*
X3182290Y2976551D1*
X3186186Y2985958D1*
X3191506Y2994639D1*
X3198119Y3002381D1*
X3205861Y3008994D1*
X3214542Y3014314D1*
X3223949Y3018210D1*
X3233850Y3020587D1*
X3244000Y3021386D1*
X3254150Y3020587D1*
X3264051Y3018210D1*
X3273458Y3014314D1*
X3282139Y3008994D1*
X3289881Y3002381D1*
X3296494Y2994639D1*
X3301814Y2985958D1*
X3305710Y2976551D1*
X3308087Y2966650D1*
X3308886Y2956500D1*
X3308087Y2946350D1*
X3305710Y2936449D1*
X3301814Y2927042D1*
X3296494Y2918361D1*
X3289881Y2910619D1*
X3285468Y2906631D1*
X3284989Y2900894D1*
X3283469Y2894562D1*
X3280977Y2888545D1*
X3277574Y2882993D1*
X3273345Y2878041D1*
X3248313Y2853009D1*
X3662311Y2853000D1*
X3667421Y2869000D1*
Y3407428D1*
X3651421Y3412500D1*
X3505571D1*
X3524362Y3393581D1*
X3527498Y3389265D1*
X3529920Y3384511D1*
X3531569Y3379437D1*
X3532403Y3374168D1*
X3532508Y3271500D1*
X3532403Y3191332D1*
X3531569Y3186063D1*
X3529920Y3180989D1*
X3527498Y3176235D1*
X3524362Y3171919D1*
X3520589Y3168146D1*
X3516273Y3165010D1*
X3511519Y3162588D1*
X3507508Y3161224D1*
Y3136004D1*
X3330492D1*
Y3251996D1*
X3464525D1*
X3464508Y3357428D1*
X3448508Y3362500D1*
X2940940D1*
X2943305Y3357007D1*
X2944550Y3351819D1*
X2944969Y3346500D1*
Y3223990D1*
X2950462Y3226336D1*
X2955650Y3227581D1*
X2960969Y3228000D1*
X2980492Y3227947D1*
Y3251996D1*
X3157508D1*
Y3136004D1*
X2980492D1*
Y3159979D1*
X2969969Y3154889D1*
X2969864Y3090722D1*
X2969030Y3085453D1*
X2967381Y3080379D1*
X2964959Y3075625D1*
X2961823Y3071309D1*
X2935011Y3044348D1*
X2930954Y3040883D1*
X2926405Y3038096D1*
X2921476Y3036054D1*
X2916288Y3034809D1*
X2910969Y3034390D1*
X2727252Y3034410D1*
X2727247Y3027242D1*
X1118189Y3619319D2*
X1257114D1*
Y3467894D1*
X1105689D1*
Y3619319D1*
X1118189D1*
X1453731Y3537666D2*
X1451873Y3525932D1*
X1448201Y3514632D1*
X1442808Y3504047D1*
X1435824Y3494435D1*
X1427423Y3486034D1*
X1417812Y3479051D1*
X1407226Y3473657D1*
X1395927Y3469986D1*
X1384192Y3468127D1*
X1372312D1*
X1360577Y3469986D1*
X1349278Y3473657D1*
X1338692Y3479051D1*
X1329081Y3486034D1*
X1320680Y3494435D1*
X1313696Y3504047D1*
X1308303Y3514632D1*
X1304631Y3525932D1*
X1302773Y3537666D1*
Y3549547D1*
X1304631Y3561281D1*
X1308303Y3572580D1*
X1313696Y3583166D1*
X1320680Y3592778D1*
X1329081Y3601179D1*
X1338692Y3608162D1*
X1349278Y3613556D1*
X1360577Y3617227D1*
X1372312Y3619086D1*
X1384192D1*
X1395927Y3617227D1*
X1407226Y3613556D1*
X1417812Y3608162D1*
X1427423Y3601179D1*
X1435824Y3592778D1*
X1442808Y3583166D1*
X1448201Y3572580D1*
X1451873Y3561281D1*
X1453731Y3549547D1*
Y3537666D1*
X2904705Y2802348D2*
Y2848149D1*
X2901952Y2852898D1*
X2775072Y2852894D1*
X2775028Y2716909D1*
X2743338D1*
X2743329Y2709761D1*
X2742187Y2702554D1*
X2740026Y2695868D1*
X2842291Y2695894D1*
X2842408Y2771058D1*
X2843242Y2776327D1*
X2844891Y2781401D1*
X2847313Y2786155D1*
X2850449Y2790471D1*
X2854222Y2794244D1*
X2858538Y2797380D1*
X2863292Y2799802D1*
X2868366Y2801451D1*
X2873635Y2802285D1*
X2904672Y2802390D1*
D26*
X3069000Y3194000D3*
X3261913D3*
X869000D3*
X1061913D3*
D28*
X1094000Y2156500D3*
Y1963587D3*
D26*
X1794000Y3194000D3*
X1986913D3*
D29*
X869000Y2819000D3*
Y2744197D3*
X2419000Y3219000D3*
Y3144197D3*
X869000Y2981500D3*
Y2906697D3*
D26*
X3419000Y3194000D3*
X3611913D3*
D28*
X1406500Y2156500D3*
Y1963587D3*
X1769000Y2156500D3*
Y1963587D3*
X2131500Y2169000D3*
Y1976087D3*
X2494000Y2169000D3*
Y1976087D3*
D30*
X1156500Y2881500D3*
Y2974020D3*
X3819000Y2394000D3*
Y2486520D3*
X1594000Y2206500D3*
Y2113980D3*
D32*
X2994000Y2219000D3*
X2860142D3*
D30*
X1944000Y2206500D3*
Y2113980D3*
X3956500Y2394000D3*
Y2486520D3*
D32*
X3569000Y2219000D3*
X3435142D3*
D30*
X2319000D3*
Y2126480D3*
X4106500Y2394000D3*
Y2486520D3*
D32*
X4131500Y2231500D3*
X3997642D3*
D30*
X2681500Y2206500D3*
Y2113980D3*
X4244000Y2394000D3*
Y2486520D3*
D34*
X3106500Y2869000D3*
Y2735142D3*
D35*
X1394000Y2969000D3*
D36*
X1494000D3*
X1594000D3*
X1694000D3*
X1794000D3*
X1894000D3*
X1994000D3*
X2094000D3*
X2194000D3*
X2294000D3*
X2394000D3*
X2494000D3*
X2594000D3*
X2694000D3*
X2794000D3*
X2894000D3*
D35*
X1394000Y2369000D3*
D36*
X1494000D3*
X1594000D3*
X1694000D3*
X1794000D3*
X1894000D3*
X1994000D3*
X2094000D3*
X2194000D3*
X2294000D3*
X2394000D3*
X2494000D3*
X2594000D3*
X2694000D3*
X2794000D3*
X2894000D3*
D37*
X590850Y3543606D3*
D38*
X787701D3*
X984551D3*
D37*
X1181402D3*
D38*
X1378252D3*
X1575102D3*
D37*
X1771953D3*
D38*
X1968803D3*
X2165654D3*
D37*
X2665654D3*
D38*
X2862504D3*
X3059354D3*
D37*
X3256205D3*
D38*
X3453055D3*
X3649906D3*
D37*
X3846756D3*
D38*
X4043606D3*
X4240457D3*
D37*
X984551Y661717D3*
D38*
X787701D3*
X590850D3*
D37*
X1575102D3*
D38*
X1378252D3*
X1181402D3*
D37*
X2165654D3*
D38*
X1968803D3*
X1771953D3*
D37*
X3059354D3*
D38*
X2862504D3*
X2665654D3*
D37*
X3649906D3*
D38*
X3453055D3*
X3256205D3*
D37*
X4240457D3*
D38*
X4043606D3*
X3846756D3*
D39*
X3081500Y2081500D3*
D40*
X2781500D3*
D39*
X3081500Y1337406D3*
X2781500Y1211421D3*
X3081500Y1085437D3*
X3656500Y2081500D3*
D40*
X3356500D3*
D39*
X3656500Y1337406D3*
X3356500Y1211421D3*
X3656500Y1085437D3*
X4231500Y2069000D3*
D40*
X3931500D3*
D39*
X4231500Y1324906D3*
X3931500Y1198921D3*
X4231500Y1072937D3*
X3244000Y2956500D3*
D40*
Y2656500D3*
D39*
X3988094Y2956500D3*
X4114079Y2656500D3*
X4240063Y2956500D3*
D42*
X3194000Y2444000D3*
X3119197D3*
X3156598Y2353449D3*
X3394000Y2444000D3*
X3319197D3*
X3356598Y2353449D3*
X3606500Y2444000D3*
X3531697D3*
X3569098Y2353449D3*
X2944000Y2819000D3*
X2869197D3*
X2906598Y2728449D3*
D29*
X1794000Y2544598D3*
Y2619402D3*
X2569000Y2769000D3*
Y2843803D3*
X1644000Y2619000D3*
Y2544197D3*
X1844000Y2769000D3*
Y2843803D3*
X1556500Y2768598D3*
Y2843402D3*
X2244000Y2544000D3*
Y2618803D3*
X2719000Y2769000D3*
Y2843803D3*
X2431500Y2769000D3*
Y2843803D3*
D43*
X531500Y1444000D3*
Y1554236D3*
D29*
X2556500Y2544000D3*
Y2618803D3*
X2131500Y2769000D3*
Y2843803D3*
X1194000Y2544598D3*
Y2619402D3*
D43*
X869000Y1356882D3*
Y1467118D3*
D29*
X1981500Y2769000D3*
Y2843803D3*
X1056500Y2619402D3*
Y2544598D3*
D43*
X869000Y1169000D3*
Y1058764D3*
D29*
X2719000Y2544000D3*
Y2618803D3*
X1819000Y1844000D3*
Y1769197D3*
D43*
X1294000Y1356882D3*
Y1467118D3*
D29*
X1944000Y2544000D3*
Y2618803D3*
X2094000Y2619000D3*
Y2544197D3*
X1331500Y2619000D3*
Y2544197D3*
D43*
X1294000Y1169000D3*
Y1058764D3*
D29*
X2281500Y1769000D3*
Y1843803D3*
X2881500Y2544000D3*
Y2618803D3*
D43*
X1719000Y1356882D3*
Y1467118D3*
D29*
X2394000Y2618803D3*
Y2544000D3*
X2144000Y1769000D3*
Y1843803D3*
X2281500Y2769000D3*
Y2843803D3*
D43*
X1719000Y1169000D3*
Y1058764D3*
D29*
X2569000Y1769000D3*
Y1843803D3*
D43*
X2156500Y1356882D3*
Y1467118D3*
D29*
X3031500Y2544000D3*
Y2618803D3*
X1494000Y2619000D3*
Y2544197D3*
X2431500Y1844000D3*
Y1769197D3*
X1694000Y2769000D3*
Y2843803D3*
D44*
X2631500Y3269000D3*
Y3219000D3*
Y3169000D3*
Y3119000D3*
X2844098D3*
Y3169000D3*
Y3219000D3*
Y3269000D3*
D46*
X518646Y2648528D3*
Y2469000D3*
D47*
X782425Y2558764D3*
D46*
X519000Y2319000D3*
Y2139472D3*
D47*
X782780Y2229236D3*
D44*
X1619000Y3119000D3*
Y3169000D3*
Y3219000D3*
Y3269000D3*
X1406402D3*
Y3219000D3*
Y3169000D3*
Y3119000D3*
D42*
X1281500Y3269000D3*
X1206697D3*
X1244098Y3178449D3*
D48*
X719000Y2856500D3*
X519000D3*
X719000Y3256500D3*
X519000D3*
X544000Y1331500D3*
X744000D3*
X544000Y931500D3*
X744000D3*
X981500Y1331500D3*
X1181500D3*
X981500Y931500D3*
X1181500D3*
X1406500Y1331500D3*
X1606500D3*
X1406500Y931500D3*
X1606500D3*
X1831500Y1331500D3*
X2031500D3*
X1831500Y931500D3*
X2031500D3*
D49*
X644000Y1468677D3*
X744000D3*
Y1803323D3*
X644000D3*
X1031500Y1468677D3*
X1131500D3*
Y1803323D3*
X1031500D3*
X1469000Y1469000D3*
X1569000D3*
Y1803646D3*
X1469000D3*
X1919000Y1469000D3*
X2019000D3*
Y1803646D3*
X1919000D3*
X444000Y1656500D2*
D98*
X4381500D1*
Y469000D1*
X444000D1*
Y1656500D1*
X3744000Y3756500D2*
D23*
X4394000D1*
Y2581500D1*
X3744000D1*
Y3756500D1*
M02*
