%TF.GenerationSoftware,Novarm,DipTrace Beta,3.0.9.0*%
%TF.CreationDate,2017-03-15T19:41:06+02:00*%
%FSLAX26Y26*%
%MOIN*%
%TF.FileFunction,Drawing,Top*%
%TF.Part,Single*%
%ADD10C,0.009843*%
%ADD11C,0.006*%
%ADD105C,0.00772*%
%ADD26R,0.124016X0.062992*%
%ADD28R,0.062992X0.124016*%
%ADD29R,0.059055X0.051181*%
%ADD30R,0.043307X0.049213*%
%ADD32R,0.031496X0.062992*%
%ADD34R,0.062992X0.031496*%
%TA.AperFunction,ComponentPad*%
%ADD35R,0.06378X0.06378*%
%ADD36C,0.06378*%
%ADD37R,0.098425X0.098425*%
%ADD38C,0.098425*%
%ADD39C,0.076772*%
%ADD40R,0.076772X0.076772*%
%ADD42R,0.025591X0.041339*%
%ADD43R,0.062992X0.070866*%
%ADD44R,0.070866X0.062992*%
%ADD45R,0.07874X0.023622*%
%ADD47R,0.108268X0.03937*%
%ADD48R,0.242126X0.218504*%
%ADD49R,0.07874X0.098425*%
%ADD50R,0.066929X0.086614*%
%TA.AperFunction,ComponentPad*%
%ADD51R,0.066929X0.066929*%
%ADD52C,0.066929*%
G75*
G01*
%LPD*%
X3000102Y3323921D2*
D10*
X3323921D1*
Y3064079D1*
X3000102D1*
Y3323921D1*
D26*
X3069000Y3194000D3*
X3261913D3*
X800102Y3323921D2*
D10*
X1123921D1*
Y3064079D1*
X800102D1*
Y3323921D1*
D26*
X869000Y3194000D3*
X1061913D3*
X964079Y2225398D2*
D10*
X1223921D1*
Y1901579D1*
X964079D1*
Y2225398D1*
D28*
X1094000Y2156500D3*
Y1963587D3*
X1725102Y3323921D2*
D10*
X2048921D1*
Y3064079D1*
X1725102D1*
Y3323921D1*
D26*
X1794000Y3194000D3*
X1986913D3*
X839472Y2860360D2*
D10*
X898528D1*
Y2718606D1*
X839472D1*
Y2860360D1*
D29*
X869000Y2819000D3*
Y2744197D3*
X2251972Y3272860D2*
D10*
X2311028D1*
Y3131106D1*
X2251972D1*
Y3272860D1*
D29*
X2281500Y3231500D3*
Y3156697D3*
X839472Y3022860D2*
D10*
X898528D1*
Y2881106D1*
X839472D1*
Y3022860D1*
D29*
X869000Y2981500D3*
Y2906697D3*
X3350102Y3323921D2*
D10*
X3673921D1*
Y3064079D1*
X3350102D1*
Y3323921D1*
D26*
X3419000Y3194000D3*
X3611913D3*
X1276579Y2225398D2*
D10*
X1536421D1*
Y1901579D1*
X1276579D1*
Y2225398D1*
D28*
X1406500Y2156500D3*
Y1963587D3*
X1639079Y2225398D2*
D10*
X1898921D1*
Y1901579D1*
X1639079D1*
Y2225398D1*
D28*
X1769000Y2156500D3*
Y1963587D3*
X2001579Y2237898D2*
D10*
X2261421D1*
Y1914079D1*
X2001579D1*
Y2237898D1*
D28*
X2131500Y2169000D3*
Y1976087D3*
X2364079Y2237898D2*
D10*
X2623921D1*
Y1914079D1*
X2364079D1*
Y2237898D1*
D28*
X2494000Y2169000D3*
Y1976087D3*
X1134846Y3017327D2*
D10*
X1178154D1*
Y2856894D1*
X1134846D1*
Y3017327D1*
D30*
X1156500Y2881500D3*
Y2974020D3*
X3797346Y2529827D2*
D10*
X3840654D1*
Y2369394D1*
X3797346D1*
Y2529827D1*
D30*
X3819000Y2394000D3*
Y2486520D3*
X2844394Y2250496D2*
D10*
X3039276D1*
Y2187501D1*
X2844394D1*
Y2250496D1*
D32*
X2994000Y2219000D3*
X2860142D3*
X3934846Y2529827D2*
D10*
X3978154D1*
Y2369394D1*
X3934846D1*
Y2529827D1*
D30*
X3956500Y2394000D3*
Y2486520D3*
X3419394Y2250496D2*
D10*
X3614276D1*
Y2187501D1*
X3419394D1*
Y2250496D1*
D32*
X3569000Y2219000D3*
X3435142D3*
X4084846Y2529827D2*
D10*
X4128154D1*
Y2369394D1*
X4084846D1*
Y2529827D1*
D30*
X4106500Y2394000D3*
Y2486520D3*
X3981894Y2262996D2*
D10*
X4176776D1*
Y2200001D1*
X3981894D1*
Y2262996D1*
D32*
X4131500Y2231500D3*
X3997642D3*
X4222346Y2529827D2*
D10*
X4265654D1*
Y2369394D1*
X4222346D1*
Y2529827D1*
D30*
X4244000Y2394000D3*
Y2486520D3*
X3075004Y2914276D2*
D10*
X3137999D1*
Y2719394D1*
X3075004D1*
Y2914276D1*
D34*
X3106500Y2869000D3*
Y2735142D3*
X1334157Y3018213D2*
D10*
X2953843D1*
Y2919787D1*
X1334157D1*
Y3018213D1*
D35*
X1394000Y2969000D3*
D36*
X1494000D3*
X1594000D3*
X1694000D3*
X1794000D3*
X1894000D3*
X1994000D3*
X2094000D3*
X2194000D3*
X2294000D3*
X2394000D3*
X2494000D3*
X2594000D3*
X2694000D3*
X2794000D3*
X2894000D3*
X1334157Y2418213D2*
D10*
X2953843D1*
Y2319787D1*
X1334157D1*
Y2418213D1*
D35*
X1394000Y2369000D3*
D36*
X1494000D3*
X1594000D3*
X1694000D3*
X1794000D3*
X1894000D3*
X1994000D3*
X2094000D3*
X2194000D3*
X2294000D3*
X2394000D3*
X2494000D3*
X2594000D3*
X2694000D3*
X2794000D3*
X2894000D3*
X468803Y3740457D2*
D10*
X1082976D1*
Y3386126D1*
X468803D1*
Y3740457D1*
D37*
X590850Y3543606D3*
D38*
X787701D3*
X984551D3*
X1059354Y3740457D2*
D10*
X1673528D1*
Y3386126D1*
X1059354D1*
Y3740457D1*
D37*
X1181402Y3543606D3*
D38*
X1378252D3*
X1575102D3*
X1649906Y3740457D2*
D10*
X2264079D1*
Y3386126D1*
X1649906D1*
Y3740457D1*
D37*
X1771953Y3543606D3*
D38*
X1968803D3*
X2165654D3*
X2543606Y3740457D2*
D10*
X3157780D1*
Y3386126D1*
X2543606D1*
Y3740457D1*
D37*
X2665654Y3543606D3*
D38*
X2862504D3*
X3059354D3*
X3134157Y3740457D2*
D10*
X3748331D1*
Y3386126D1*
X3134157D1*
Y3740457D1*
D37*
X3256205Y3543606D3*
D38*
X3453055D3*
X3649906D3*
X3724709Y3740457D2*
D10*
X4338882D1*
Y3386126D1*
X3724709D1*
Y3740457D1*
D37*
X3846756Y3543606D3*
D38*
X4043606D3*
X4240457D3*
X492425Y819197D2*
D10*
X1106598D1*
Y464866D1*
X492425D1*
Y819197D1*
D37*
X984551Y661717D3*
D38*
X787701D3*
X590850D3*
X1082976Y819197D2*
D10*
X1697150D1*
Y464866D1*
X1082976D1*
Y819197D1*
D37*
X1575102Y661717D3*
D38*
X1378252D3*
X1181402D3*
X1673528Y819197D2*
D10*
X2287701D1*
Y464866D1*
X1673528D1*
Y819197D1*
D37*
X2165654Y661717D3*
D38*
X1968803D3*
X1771953D3*
X2567228Y819197D2*
D10*
X3181402D1*
Y464866D1*
X2567228D1*
Y819197D1*
D37*
X3059354Y661717D3*
D38*
X2862504D3*
X2665654D3*
X3157780Y819197D2*
D10*
X3771953D1*
Y464866D1*
X3157780D1*
Y819197D1*
D37*
X3649906Y661717D3*
D38*
X3453055D3*
X3256205D3*
X3748331Y819197D2*
D10*
X4362504D1*
Y464866D1*
X3748331D1*
Y819197D1*
D37*
X4240457Y661717D3*
D38*
X4043606D3*
X3846756D3*
X2736618Y2152366D2*
D10*
X3126382D1*
Y1038193D1*
X2736618D1*
Y2152366D1*
D39*
X3081500Y2081500D3*
D40*
X2781500D3*
D39*
X3081500Y1337406D3*
X2781500Y1211421D3*
X3081500Y1085437D3*
X3311618Y2152366D2*
D10*
X3701382D1*
Y1038193D1*
X3311618D1*
Y2152366D1*
D39*
X3656500Y2081500D3*
D40*
X3356500D3*
D39*
X3656500Y1337406D3*
X3356500Y1211421D3*
X3656500Y1085437D3*
X3886618Y2139866D2*
D10*
X4276382D1*
Y1025693D1*
X3886618D1*
Y2139866D1*
D39*
X4231500Y2069000D3*
D40*
X3931500D3*
D39*
X4231500Y1324906D3*
X3931500Y1198921D3*
X4231500Y1072937D3*
X3173134Y3001382D2*
D10*
X4287307D1*
Y2611618D1*
X3173134D1*
Y3001382D1*
D39*
X3244000Y2956500D3*
D40*
Y2656500D3*
D39*
X3988094Y2956500D3*
X4114079Y2656500D3*
X4240063Y2956500D3*
X3097543Y2466420D2*
D10*
X3232551D1*
Y2332780D1*
X3097543D1*
Y2466420D1*
D42*
X3194000Y2444000D3*
X3119197D3*
X3156598Y2353449D3*
X3297543Y2466420D2*
D10*
X3432551D1*
Y2332780D1*
X3297543D1*
Y2466420D1*
D42*
X3394000Y2444000D3*
X3319197D3*
X3356598Y2353449D3*
X3510043Y2466420D2*
D10*
X3645051D1*
Y2332780D1*
X3510043D1*
Y2466420D1*
D42*
X3606500Y2444000D3*
X3531697D3*
X3569098Y2353449D3*
X2847543Y2841420D2*
D10*
X2982551D1*
Y2707780D1*
X2847543D1*
Y2841420D1*
D42*
X2944000Y2819000D3*
X2869197D3*
X2906598Y2728449D3*
X2539472Y2869394D2*
D10*
X2598528D1*
Y2743409D1*
X2539472D1*
Y2869394D1*
D29*
X2569000Y2769000D3*
Y2843803D3*
X1614472Y2644591D2*
D10*
X1673528D1*
Y2518606D1*
X1614472D1*
Y2644591D1*
D29*
X1644000Y2619000D3*
Y2544197D3*
X1814472Y2869394D2*
D10*
X1873528D1*
Y2743409D1*
X1814472D1*
Y2869394D1*
D29*
X1844000Y2769000D3*
Y2843803D3*
X2451972Y3269394D2*
D10*
X2511028D1*
Y3143409D1*
X2451972D1*
Y3269394D1*
D29*
X2481500Y3169000D3*
Y3243803D3*
X1526972Y2868992D2*
D10*
X1586028D1*
Y2743008D1*
X1526972D1*
Y2868992D1*
D29*
X1556500Y2768598D3*
Y2843402D3*
X2689472Y2869394D2*
D10*
X2748528D1*
Y2743409D1*
X2689472D1*
Y2869394D1*
D29*
X2719000Y2769000D3*
Y2843803D3*
X2401972Y2869394D2*
D10*
X2461028D1*
Y2743409D1*
X2401972D1*
Y2869394D1*
D29*
X2431500Y2769000D3*
Y2843803D3*
X2214472Y2644394D2*
D10*
X2273528D1*
Y2518409D1*
X2214472D1*
Y2644394D1*
D29*
X2244000Y2544000D3*
Y2618803D3*
X800004Y1554433D2*
D10*
X973232D1*
Y1483567D1*
X800004D1*
Y1554433D1*
D43*
X831500Y1519000D3*
X941736D3*
X2526972Y2644394D2*
D10*
X2586028D1*
Y2518409D1*
X2526972D1*
Y2644394D1*
D29*
X2556500Y2544000D3*
Y2618803D3*
X2101972Y2869394D2*
D10*
X2161028D1*
Y2743409D1*
X2101972D1*
Y2869394D1*
D29*
X2131500Y2769000D3*
Y2843803D3*
X1164472Y2644992D2*
D10*
X1223528D1*
Y2519008D1*
X1164472D1*
Y2644992D1*
D29*
X1194000Y2544598D3*
Y2619402D3*
X833567Y1437996D2*
D10*
X904433D1*
Y1264768D1*
X833567D1*
Y1437996D1*
D44*
X869000Y1406500D3*
Y1296264D3*
X1951972Y2869394D2*
D10*
X2011028D1*
Y2743409D1*
X1951972D1*
Y2869394D1*
D29*
X1981500Y2769000D3*
Y2843803D3*
X1026972Y2644992D2*
D10*
X1086028D1*
Y2519008D1*
X1026972D1*
Y2644992D1*
D29*
X1056500Y2619402D3*
Y2544598D3*
X1212504Y1554433D2*
D10*
X1385732D1*
Y1483567D1*
X1212504D1*
Y1554433D1*
D43*
X1244000Y1519000D3*
X1354236D3*
X2689472Y2644394D2*
D10*
X2748528D1*
Y2518409D1*
X2689472D1*
Y2644394D1*
D29*
X2719000Y2544000D3*
Y2618803D3*
X1789472Y1869591D2*
D10*
X1848528D1*
Y1743606D1*
X1789472D1*
Y1869591D1*
D29*
X1819000Y1844000D3*
Y1769197D3*
X1258567Y1437614D2*
D10*
X1329433D1*
Y1264386D1*
X1258567D1*
Y1437614D1*
D44*
X1294000Y1406118D3*
Y1295882D3*
X1914472Y2644394D2*
D10*
X1973528D1*
Y2518409D1*
X1914472D1*
Y2644394D1*
D29*
X1944000Y2544000D3*
Y2618803D3*
X2064472Y2644591D2*
D10*
X2123528D1*
Y2518606D1*
X2064472D1*
Y2644591D1*
D29*
X2094000Y2619000D3*
Y2544197D3*
X1301972Y2644591D2*
D10*
X1361028D1*
Y2518606D1*
X1301972D1*
Y2644591D1*
D29*
X1331500Y2619000D3*
Y2544197D3*
X1650004Y1554433D2*
D10*
X1823232D1*
Y1483567D1*
X1650004D1*
Y1554433D1*
D43*
X1681500Y1519000D3*
X1791736D3*
X2251972Y1869394D2*
D10*
X2311028D1*
Y1743409D1*
X2251972D1*
Y1869394D1*
D29*
X2281500Y1769000D3*
Y1843803D3*
X2851972Y2644394D2*
D10*
X2911028D1*
Y2518409D1*
X2851972D1*
Y2644394D1*
D29*
X2881500Y2544000D3*
Y2618803D3*
X1683567Y1437614D2*
D10*
X1754433D1*
Y1264386D1*
X1683567D1*
Y1437614D1*
D44*
X1719000Y1406118D3*
Y1295882D3*
X2364472Y2644394D2*
D10*
X2423528D1*
Y2518409D1*
X2364472D1*
Y2644394D1*
D29*
X2394000Y2618803D3*
Y2544000D3*
X2114472Y1869394D2*
D10*
X2173528D1*
Y1743409D1*
X2114472D1*
Y1869394D1*
D29*
X2144000Y1769000D3*
Y1843803D3*
X2251972Y2869394D2*
D10*
X2311028D1*
Y2743409D1*
X2251972D1*
Y2869394D1*
D29*
X2281500Y2769000D3*
Y2843803D3*
X2087504Y1554433D2*
D10*
X2260732D1*
Y1483567D1*
X2087504D1*
Y1554433D1*
D43*
X2119000Y1519000D3*
X2229236D3*
X2539472Y1869394D2*
D10*
X2598528D1*
Y1743409D1*
X2539472D1*
Y1869394D1*
D29*
X2569000Y1769000D3*
Y1843803D3*
X2121067Y1437614D2*
D10*
X2191933D1*
Y1264386D1*
X2121067D1*
Y1437614D1*
D44*
X2156500Y1406118D3*
Y1295882D3*
X3001972Y2644394D2*
D10*
X3061028D1*
Y2518409D1*
X3001972D1*
Y2644394D1*
D29*
X3031500Y2544000D3*
Y2618803D3*
X1464472Y2644591D2*
D10*
X1523528D1*
Y2518606D1*
X1464472D1*
Y2644591D1*
D29*
X1494000Y2619000D3*
Y2544197D3*
X2401972Y1869591D2*
D10*
X2461028D1*
Y1743606D1*
X2401972D1*
Y1869591D1*
D29*
X2431500Y1844000D3*
Y1769197D3*
X1664472Y2869394D2*
D10*
X1723528D1*
Y2743409D1*
X1664472D1*
Y2869394D1*
D29*
X1694000Y2769000D3*
Y2843803D3*
X2592130Y3292427D2*
D10*
X2883469D1*
Y3095573D1*
X2592130D1*
Y3292427D1*
D45*
X2631500Y3269000D3*
Y3219000D3*
Y3169000D3*
Y3119000D3*
X2844098D3*
Y3169000D3*
Y3219000D3*
Y3269000D3*
X464512Y2695462D2*
D10*
X903488D1*
Y2428848D1*
X464512D1*
Y2695462D1*
D47*
X518646Y2648528D3*
Y2469000D3*
D48*
X782425Y2558764D3*
X464866Y2365934D2*
D10*
X903843D1*
Y2099320D1*
X464866D1*
Y2365934D1*
D47*
X519000Y2319000D3*
Y2139472D3*
D48*
X782780Y2229236D3*
X1367031Y3292427D2*
D10*
X1658370D1*
Y3095573D1*
X1367031D1*
Y3292427D1*
D45*
X1619000Y3119000D3*
Y3169000D3*
Y3219000D3*
Y3269000D3*
X1406402D3*
Y3219000D3*
Y3169000D3*
Y3119000D3*
X1185043Y3291420D2*
D10*
X1320051D1*
Y3157780D1*
X1185043D1*
Y3291420D1*
D42*
X1281500Y3269000D3*
X1206697D3*
X1244098Y3178449D3*
X469000Y3305713D2*
D10*
X769000D1*
Y2807287D1*
X469000D1*
Y3305713D1*
D49*
X719000Y2856500D3*
X519000D3*
X719000Y3256500D3*
X519000D3*
X494000Y1380713D2*
D10*
X794000D1*
Y882287D1*
X494000D1*
Y1380713D1*
D49*
X544000Y1331500D3*
X744000D3*
X544000Y931500D3*
X744000D3*
X931500Y1380713D2*
D10*
X1231500D1*
Y882287D1*
X931500D1*
Y1380713D1*
D49*
X981500Y1331500D3*
X1181500D3*
X981500Y931500D3*
X1181500D3*
X1356500Y1380713D2*
D10*
X1656500D1*
Y882287D1*
X1356500D1*
Y1380713D1*
D49*
X1406500Y1331500D3*
X1606500D3*
X1406500Y931500D3*
X1606500D3*
X1781500Y1380713D2*
D10*
X2081500D1*
Y882287D1*
X1781500D1*
Y1380713D1*
D49*
X1831500Y1331500D3*
X2031500D3*
X1831500Y931500D3*
X2031500D3*
X603449Y1846630D2*
D10*
X784551D1*
Y1425370D1*
X603449D1*
Y1846630D1*
D50*
X644000Y1468677D3*
X744000D3*
Y1803323D3*
X644000D3*
X990949Y1846630D2*
D10*
X1172051D1*
Y1425370D1*
X990949D1*
Y1846630D1*
D50*
X1031500Y1468677D3*
X1131500D3*
Y1803323D3*
X1031500D3*
X1428449Y1846953D2*
D10*
X1609551D1*
Y1425693D1*
X1428449D1*
Y1846953D1*
D50*
X1469000Y1469000D3*
X1569000D3*
Y1803646D3*
X1469000D3*
X1878449Y1846953D2*
D10*
X2059551D1*
Y1425693D1*
X1878449D1*
Y1846953D1*
D50*
X1919000Y1469000D3*
X2019000D3*
Y1803646D3*
X1919000D3*
X839472Y1244394D2*
D10*
X898528D1*
Y1118409D1*
X839472D1*
Y1244394D1*
D29*
X869000Y1144000D3*
Y1218803D3*
X1264472Y1243992D2*
D10*
X1323528D1*
Y1118008D1*
X1264472D1*
Y1243992D1*
D29*
X1294000Y1143598D3*
Y1218402D3*
X1689472Y1244394D2*
D10*
X1748528D1*
Y1118409D1*
X1689472D1*
Y1244394D1*
D29*
X1719000Y1144000D3*
Y1218803D3*
X2126972Y1244394D2*
D10*
X2186028D1*
Y1118409D1*
X2126972D1*
Y1244394D1*
D29*
X2156500Y1144000D3*
Y1218803D3*
X1669000Y1081500D2*
D10*
X1769000D1*
Y881500D1*
X1669000D1*
Y1081500D1*
D51*
X1719000Y931500D3*
D52*
Y1031500D3*
X2106500Y1081500D2*
D10*
X2206500D1*
Y881500D1*
X2106500D1*
Y1081500D1*
D51*
X2156500Y931500D3*
D52*
Y1031500D3*
X1244000Y1081500D2*
D10*
X1344000D1*
Y881500D1*
X1244000D1*
Y1081500D1*
D51*
X1294000Y931500D3*
D52*
Y1031500D3*
X819000Y1081500D2*
D10*
X919000D1*
Y881500D1*
X819000D1*
Y1081500D1*
D51*
X869000Y931500D3*
D52*
Y1031500D3*
X3166230Y3385206D2*
D105*
X3163854Y3389959D1*
X3159045Y3394768D1*
X3154292Y3397144D1*
X3144731D1*
X3139922Y3394768D1*
X3135169Y3389959D1*
X3132737Y3385206D1*
X3130360Y3378021D1*
Y3366028D1*
X3132737Y3358898D1*
X3135169Y3354089D1*
X3139922Y3349336D1*
X3144731Y3346904D1*
X3154292D1*
X3159045Y3349336D1*
X3163854Y3354089D1*
X3166230Y3358898D1*
X3181670Y3387527D2*
X3186478Y3389959D1*
X3193663Y3397089D1*
Y3346904D1*
X955480Y3385206D2*
X953104Y3389959D1*
X948295Y3394768D1*
X943542Y3397144D1*
X933981D1*
X929172Y3394768D1*
X924419Y3389959D1*
X921987Y3385206D1*
X919611Y3378021D1*
Y3366028D1*
X921987Y3358898D1*
X924419Y3354089D1*
X929172Y3349336D1*
X933981Y3346904D1*
X943542D1*
X948295Y3349336D1*
X953104Y3354089D1*
X955480Y3358898D1*
X973352Y3385151D2*
Y3387527D1*
X975728Y3392336D1*
X978105Y3394712D1*
X982913Y3397089D1*
X992475D1*
X997228Y3394712D1*
X999605Y3392336D1*
X1002036Y3387527D1*
Y3382774D1*
X999605Y3377966D1*
X994851Y3370836D1*
X970920Y3346904D1*
X1004413D1*
X1087469Y2286682D2*
X1085092Y2291436D1*
X1080284Y2296244D1*
X1075530Y2298621D1*
X1065969D1*
X1061160Y2296244D1*
X1056407Y2291436D1*
X1053975Y2286682D1*
X1051599Y2279497D1*
Y2267504D1*
X1053975Y2260374D1*
X1056407Y2255566D1*
X1061160Y2250813D1*
X1065969Y2248381D1*
X1075530D1*
X1080284Y2250813D1*
X1085092Y2255566D1*
X1087469Y2260374D1*
X1107716Y2298565D2*
X1133969D1*
X1119655Y2279442D1*
X1126840D1*
X1131593Y2277066D1*
X1133969Y2274689D1*
X1136401Y2267504D1*
Y2262751D1*
X1133969Y2255566D1*
X1129216Y2250757D1*
X1122031Y2248381D1*
X1114846D1*
X1107716Y2250757D1*
X1105340Y2253189D1*
X1102908Y2257942D1*
X1879292Y3385206D2*
X1876916Y3389959D1*
X1872107Y3394768D1*
X1867354Y3397144D1*
X1857792D1*
X1852984Y3394768D1*
X1848231Y3389959D1*
X1845799Y3385206D1*
X1843422Y3378021D1*
Y3366028D1*
X1845799Y3358898D1*
X1848231Y3354089D1*
X1852984Y3349336D1*
X1857792Y3346904D1*
X1867354D1*
X1872107Y3349336D1*
X1876916Y3354089D1*
X1879292Y3358898D1*
X1918663Y3346904D2*
Y3397089D1*
X1894731Y3363651D1*
X1930601D1*
X778188Y2782952D2*
X773434Y2780575D1*
X768626Y2775767D1*
X766249Y2771014D1*
Y2761452D1*
X768626Y2756643D1*
X773434Y2751890D1*
X778188Y2749458D1*
X785373Y2747082D1*
X797366D1*
X804496Y2749458D1*
X809304Y2751890D1*
X814058Y2756643D1*
X816489Y2761452D1*
Y2771013D1*
X814058Y2775767D1*
X809304Y2780575D1*
X804496Y2782952D1*
X766305Y2827076D2*
Y2803199D1*
X787805Y2800823D1*
X785428Y2803199D1*
X782996Y2810384D1*
Y2817514D1*
X785428Y2824699D1*
X790181Y2829508D1*
X797366Y2831884D1*
X802119D1*
X809304Y2829508D1*
X814113Y2824699D1*
X816489Y2817514D1*
Y2810384D1*
X814113Y2803199D1*
X811681Y2800823D1*
X806928Y2798391D1*
X2190688Y3196668D2*
X2185934Y3194291D1*
X2181126Y3189483D1*
X2178749Y3184729D1*
Y3175168D1*
X2181126Y3170359D1*
X2185934Y3165606D1*
X2190688Y3163174D1*
X2197873Y3160798D1*
X2209866D1*
X2216996Y3163174D1*
X2221804Y3165606D1*
X2226558Y3170359D1*
X2228989Y3175168D1*
Y3184729D1*
X2226558Y3189483D1*
X2221804Y3194291D1*
X2216996Y3196668D1*
X2185934Y3240792D2*
X2181181Y3238415D1*
X2178805Y3231230D1*
Y3226477D1*
X2181181Y3219292D1*
X2188366Y3214483D1*
X2200305Y3212107D1*
X2212243D1*
X2221804Y3214483D1*
X2226613Y3219292D1*
X2228989Y3226477D1*
Y3228853D1*
X2226613Y3235983D1*
X2221804Y3240792D1*
X2214619Y3243168D1*
X2212243D1*
X2205058Y3240792D1*
X2200305Y3235983D1*
X2197928Y3228854D1*
Y3226477D1*
X2200305Y3219292D1*
X2205058Y3214483D1*
X2212243Y3212107D1*
X778188Y2945452D2*
X773434Y2943075D1*
X768626Y2938267D1*
X766249Y2933514D1*
Y2923952D1*
X768626Y2919143D1*
X773434Y2914390D1*
X778188Y2911958D1*
X785373Y2909582D1*
X797366D1*
X804496Y2911958D1*
X809304Y2914390D1*
X814058Y2919143D1*
X816489Y2923952D1*
Y2933513D1*
X814058Y2938267D1*
X809304Y2943075D1*
X804496Y2945452D1*
X816489Y2970452D2*
X766305Y2994384D1*
Y2960891D1*
X3505508Y3385206D2*
X3503132Y3389959D1*
X3498323Y3394768D1*
X3493570Y3397144D1*
X3484008D1*
X3479200Y3394768D1*
X3474447Y3389959D1*
X3472015Y3385206D1*
X3469638Y3378021D1*
Y3366028D1*
X3472015Y3358898D1*
X3474447Y3354089D1*
X3479200Y3349336D1*
X3484008Y3346904D1*
X3493570D1*
X3498323Y3349336D1*
X3503132Y3354089D1*
X3505508Y3358898D1*
X3532886Y3397089D2*
X3525756Y3394712D1*
X3523324Y3389959D1*
Y3385151D1*
X3525756Y3380398D1*
X3530509Y3377966D1*
X3540071Y3375589D1*
X3547256Y3373213D1*
X3552009Y3368404D1*
X3554385Y3363651D1*
Y3356466D1*
X3552009Y3351713D1*
X3549632Y3349281D1*
X3542447Y3346904D1*
X3532886D1*
X3525756Y3349281D1*
X3523324Y3351713D1*
X3520947Y3356466D1*
Y3363651D1*
X3523324Y3368404D1*
X3528132Y3373213D1*
X3535262Y3375589D1*
X3544824Y3377966D1*
X3549632Y3380398D1*
X3552009Y3385151D1*
Y3389959D1*
X3549632Y3394712D1*
X3542447Y3397089D1*
X3532886D1*
X1372536Y2286682D2*
X1370159Y2291436D1*
X1365351Y2296244D1*
X1360598Y2298621D1*
X1351036D1*
X1346228Y2296244D1*
X1341474Y2291436D1*
X1339043Y2286682D1*
X1336666Y2279497D1*
Y2267504D1*
X1339043Y2260374D1*
X1341474Y2255566D1*
X1346228Y2250813D1*
X1351036Y2248381D1*
X1360598D1*
X1365351Y2250813D1*
X1370159Y2255566D1*
X1372536Y2260374D1*
X1387975Y2289004D2*
X1392784Y2291436D1*
X1399969Y2298565D1*
Y2248381D1*
X1429778Y2298565D2*
X1422593Y2296189D1*
X1417785Y2289004D1*
X1415408Y2277066D1*
Y2269881D1*
X1417785Y2257942D1*
X1422593Y2250757D1*
X1429778Y2248381D1*
X1434531D1*
X1441716Y2250757D1*
X1446469Y2257942D1*
X1448901Y2269881D1*
Y2277066D1*
X1446469Y2289004D1*
X1441716Y2296189D1*
X1434531Y2298565D1*
X1429778D1*
X1446469Y2289004D2*
X1417785Y2257942D1*
X1464341Y2289004D2*
X1469149Y2291436D1*
X1476334Y2298565D1*
Y2248381D1*
X1724286Y2286682D2*
X1721909Y2291436D1*
X1717101Y2296244D1*
X1712348Y2298621D1*
X1702786D1*
X1697978Y2296244D1*
X1693225Y2291436D1*
X1690793Y2286682D1*
X1688416Y2279497D1*
Y2267504D1*
X1690793Y2260374D1*
X1693225Y2255566D1*
X1697978Y2250813D1*
X1702786Y2248381D1*
X1712348D1*
X1717101Y2250813D1*
X1721909Y2255566D1*
X1724286Y2260374D1*
X1739725Y2289004D2*
X1744534Y2291436D1*
X1751719Y2298565D1*
Y2248381D1*
X1781528Y2298565D2*
X1774343Y2296189D1*
X1769535Y2289004D1*
X1767158Y2277066D1*
Y2269881D1*
X1769535Y2257942D1*
X1774343Y2250757D1*
X1781528Y2248381D1*
X1786281D1*
X1793466Y2250757D1*
X1798219Y2257942D1*
X1800651Y2269881D1*
Y2277066D1*
X1798219Y2289004D1*
X1793466Y2296189D1*
X1786281Y2298565D1*
X1781528D1*
X1798219Y2289004D2*
X1769535Y2257942D1*
X1818522Y2286627D2*
Y2289004D1*
X1820899Y2293812D1*
X1823276Y2296189D1*
X1828084Y2298565D1*
X1837646D1*
X1842399Y2296189D1*
X1844775Y2293812D1*
X1847207Y2289004D1*
Y2284251D1*
X1844775Y2279442D1*
X1840022Y2272312D1*
X1816091Y2248381D1*
X1849584D1*
X2086786Y2299182D2*
X2084409Y2303936D1*
X2079601Y2308744D1*
X2074848Y2311121D1*
X2065286D1*
X2060478Y2308744D1*
X2055725Y2303936D1*
X2053293Y2299182D1*
X2050916Y2291997D1*
Y2280004D1*
X2053293Y2272874D1*
X2055725Y2268066D1*
X2060478Y2263313D1*
X2065286Y2260881D1*
X2074848D1*
X2079601Y2263313D1*
X2084409Y2268066D1*
X2086786Y2272874D1*
X2102225Y2301504D2*
X2107034Y2303936D1*
X2114219Y2311065D1*
Y2260881D1*
X2144028Y2311065D2*
X2136843Y2308689D1*
X2132035Y2301504D1*
X2129658Y2289566D1*
Y2282381D1*
X2132035Y2270442D1*
X2136843Y2263257D1*
X2144028Y2260881D1*
X2148781D1*
X2155966Y2263257D1*
X2160719Y2270442D1*
X2163151Y2282381D1*
Y2289566D1*
X2160719Y2301504D1*
X2155966Y2308689D1*
X2148781Y2311065D1*
X2144028D1*
X2160719Y2301504D2*
X2132035Y2270442D1*
X2183399Y2311065D2*
X2209652D1*
X2195337Y2291942D1*
X2202522D1*
X2207275Y2289566D1*
X2209652Y2287189D1*
X2212084Y2280004D1*
Y2275251D1*
X2209652Y2268066D1*
X2204899Y2263257D1*
X2197714Y2260881D1*
X2190529D1*
X2183399Y2263257D1*
X2181022Y2265689D1*
X2178591Y2270442D1*
X2448098Y2299182D2*
X2445721Y2303936D1*
X2440913Y2308744D1*
X2436159Y2311121D1*
X2426598D1*
X2421789Y2308744D1*
X2417036Y2303936D1*
X2414604Y2299182D1*
X2412228Y2291997D1*
Y2280004D1*
X2414604Y2272874D1*
X2417036Y2268066D1*
X2421789Y2263313D1*
X2426598Y2260881D1*
X2436159D1*
X2440913Y2263313D1*
X2445721Y2268066D1*
X2448098Y2272874D1*
X2463537Y2301504D2*
X2468345Y2303936D1*
X2475530Y2311065D1*
Y2260881D1*
X2505340Y2311065D2*
X2498155Y2308689D1*
X2493346Y2301504D1*
X2490970Y2289566D1*
Y2282381D1*
X2493346Y2270442D1*
X2498155Y2263257D1*
X2505340Y2260881D1*
X2510093D1*
X2517278Y2263257D1*
X2522031Y2270442D1*
X2524463Y2282381D1*
Y2289566D1*
X2522031Y2301504D1*
X2517278Y2308689D1*
X2510093Y2311065D1*
X2505340D1*
X2522031Y2301504D2*
X2493346Y2270442D1*
X2563834Y2260881D2*
Y2311065D1*
X2539902Y2277627D1*
X2575772D1*
X1061623Y2906647D2*
X1111863D1*
Y2923394D1*
X1109432Y2930579D1*
X1104678Y2935387D1*
X1099870Y2937764D1*
X1092740Y2940141D1*
X1080747D1*
X1073562Y2937764D1*
X1068808Y2935387D1*
X1064000Y2930579D1*
X1061623Y2923394D1*
Y2906647D1*
X1071240Y2955580D2*
X1068808Y2960388D1*
X1061679Y2967573D1*
X1111863D1*
X3724123Y2380965D2*
X3774363D1*
Y2397711D1*
X3771932Y2404896D1*
X3767178Y2409705D1*
X3762370Y2412081D1*
X3755240Y2414458D1*
X3743247D1*
X3736062Y2412081D1*
X3731308Y2409705D1*
X3726500Y2404896D1*
X3724123Y2397711D1*
Y2380965D1*
X3733740Y2429897D2*
X3731308Y2434706D1*
X3724179Y2441891D1*
X3774363D1*
X3724179Y2471700D2*
X3726555Y2464515D1*
X3733740Y2459706D1*
X3745679Y2457330D1*
X3752864D1*
X3764802Y2459706D1*
X3771987Y2464515D1*
X3774363Y2471700D1*
Y2476453D1*
X3771987Y2483638D1*
X3764802Y2488391D1*
X3752864Y2490823D1*
X3745679D1*
X3733740Y2488391D1*
X3726555Y2483638D1*
X3724179Y2476453D1*
Y2471700D1*
X3733740Y2488391D2*
X3764802Y2459706D1*
X3733740Y2506262D2*
X3731308Y2511071D1*
X3724179Y2518256D1*
X3774363D1*
X2862439Y2323719D2*
Y2273479D1*
X2879186D1*
X2886371Y2275911D1*
X2891179Y2280664D1*
X2893556Y2285473D1*
X2895932Y2292602D1*
Y2304596D1*
X2893556Y2311781D1*
X2891179Y2316534D1*
X2886371Y2321343D1*
X2879186Y2323719D1*
X2862439D1*
X2911372Y2314102D2*
X2916180Y2316534D1*
X2923365Y2323664D1*
Y2273479D1*
X2953174Y2323664D2*
X2945989Y2321287D1*
X2941181Y2314102D1*
X2938804Y2302164D1*
Y2294979D1*
X2941181Y2283041D1*
X2945989Y2275856D1*
X2953174Y2273479D1*
X2957928D1*
X2965113Y2275856D1*
X2969866Y2283041D1*
X2972298Y2294979D1*
Y2302164D1*
X2969866Y2314102D1*
X2965113Y2321287D1*
X2957928Y2323664D1*
X2953174D1*
X2969866Y2314102D2*
X2941181Y2283041D1*
X2990169Y2311726D2*
Y2314102D1*
X2992545Y2318911D1*
X2994922Y2321287D1*
X2999730Y2323664D1*
X3009292D1*
X3014045Y2321287D1*
X3016422Y2318911D1*
X3018854Y2314102D1*
Y2309349D1*
X3016422Y2304541D1*
X3011669Y2297411D1*
X2987737Y2273479D1*
X3021230D1*
X3861623Y2370215D2*
X3911863D1*
Y2386961D1*
X3909432Y2394146D1*
X3904678Y2398955D1*
X3899870Y2401331D1*
X3892740Y2403708D1*
X3880747D1*
X3873562Y2401331D1*
X3868808Y2398955D1*
X3864000Y2394146D1*
X3861623Y2386961D1*
Y2370215D1*
X3871240Y2419147D2*
X3868808Y2423956D1*
X3861679Y2431141D1*
X3911863D1*
X3861679Y2460950D2*
X3864055Y2453765D1*
X3871240Y2448957D1*
X3883179Y2446580D1*
X3890364D1*
X3902302Y2448957D1*
X3909487Y2453765D1*
X3911863Y2460950D1*
Y2465703D1*
X3909487Y2472888D1*
X3902302Y2477641D1*
X3890364Y2480073D1*
X3883179D1*
X3871240Y2477641D1*
X3864055Y2472888D1*
X3861679Y2465703D1*
Y2460950D1*
X3871240Y2477641D2*
X3902302Y2448957D1*
X3861679Y2500321D2*
Y2526574D1*
X3880802Y2512259D1*
Y2519444D1*
X3883179Y2524197D1*
X3885555Y2526574D1*
X3892740Y2529006D1*
X3897493D1*
X3904678Y2526574D1*
X3909487Y2521821D1*
X3911863Y2514636D1*
Y2507451D1*
X3909487Y2500321D1*
X3907055Y2497944D1*
X3902302Y2495513D1*
X3436251Y2323719D2*
Y2273479D1*
X3452997D1*
X3460182Y2275911D1*
X3464991Y2280664D1*
X3467367Y2285473D1*
X3469744Y2292602D1*
Y2304596D1*
X3467367Y2311781D1*
X3464991Y2316534D1*
X3460182Y2321343D1*
X3452997Y2323719D1*
X3436251D1*
X3485183Y2314102D2*
X3489992Y2316534D1*
X3497177Y2323664D1*
Y2273479D1*
X3526986Y2323664D2*
X3519801Y2321287D1*
X3514993Y2314102D1*
X3512616Y2302164D1*
Y2294979D1*
X3514993Y2283041D1*
X3519801Y2275856D1*
X3526986Y2273479D1*
X3531739D1*
X3538924Y2275856D1*
X3543678Y2283041D1*
X3546109Y2294979D1*
Y2302164D1*
X3543678Y2314102D1*
X3538924Y2321287D1*
X3531739Y2323664D1*
X3526986D1*
X3543678Y2314102D2*
X3514993Y2283041D1*
X3585480Y2273479D2*
Y2323664D1*
X3561549Y2290226D1*
X3597419D1*
X4011623Y2370215D2*
X4061863D1*
Y2386961D1*
X4059432Y2394146D1*
X4054678Y2398955D1*
X4049870Y2401331D1*
X4042740Y2403708D1*
X4030747D1*
X4023562Y2401331D1*
X4018808Y2398955D1*
X4014000Y2394146D1*
X4011623Y2386961D1*
Y2370215D1*
X4021240Y2419147D2*
X4018808Y2423956D1*
X4011679Y2431141D1*
X4061863D1*
X4011679Y2460950D2*
X4014055Y2453765D1*
X4021240Y2448957D1*
X4033179Y2446580D1*
X4040364D1*
X4052302Y2448957D1*
X4059487Y2453765D1*
X4061863Y2460950D1*
Y2465703D1*
X4059487Y2472888D1*
X4052302Y2477641D1*
X4040364Y2480073D1*
X4033179D1*
X4021240Y2477641D1*
X4014055Y2472888D1*
X4011679Y2465703D1*
Y2460950D1*
X4021240Y2477641D2*
X4052302Y2448957D1*
X4011679Y2524197D2*
Y2500321D1*
X4033179Y2497944D1*
X4030802Y2500321D1*
X4028370Y2507506D1*
Y2514636D1*
X4030802Y2521821D1*
X4035555Y2526629D1*
X4042740Y2529006D1*
X4047493D1*
X4054678Y2526629D1*
X4059487Y2521821D1*
X4061863Y2514636D1*
Y2507506D1*
X4059487Y2500321D1*
X4057055Y2497944D1*
X4052302Y2495513D1*
X4001155Y2336219D2*
Y2285979D1*
X4017902D1*
X4025087Y2288411D1*
X4029895Y2293164D1*
X4032272Y2297973D1*
X4034648Y2305102D1*
Y2317096D1*
X4032272Y2324281D1*
X4029895Y2329034D1*
X4025087Y2333843D1*
X4017902Y2336219D1*
X4001155D1*
X4050088Y2326602D2*
X4054896Y2329034D1*
X4062081Y2336164D1*
Y2285979D1*
X4091890Y2336164D2*
X4084705Y2333787D1*
X4079897Y2326602D1*
X4077520Y2314664D1*
Y2307479D1*
X4079897Y2295541D1*
X4084705Y2288356D1*
X4091890Y2285979D1*
X4096644D1*
X4103829Y2288356D1*
X4108582Y2295541D1*
X4111014Y2307479D1*
Y2314664D1*
X4108582Y2326602D1*
X4103829Y2333787D1*
X4096644Y2336164D1*
X4091890D1*
X4108582Y2326602D2*
X4079897Y2295541D1*
X4155138Y2329034D2*
X4152761Y2333787D1*
X4145576Y2336164D1*
X4140823D1*
X4133638Y2333787D1*
X4128829Y2326602D1*
X4126453Y2314664D1*
Y2302726D1*
X4128829Y2293164D1*
X4133638Y2288356D1*
X4140823Y2285979D1*
X4143200D1*
X4150329Y2288356D1*
X4155138Y2293164D1*
X4157514Y2300349D1*
Y2302726D1*
X4155138Y2309911D1*
X4150329Y2314664D1*
X4143200Y2317041D1*
X4140823D1*
X4133638Y2314664D1*
X4128829Y2309911D1*
X4126453Y2302726D1*
X4149123Y2370215D2*
X4199363D1*
Y2386961D1*
X4196932Y2394146D1*
X4192178Y2398955D1*
X4187370Y2401331D1*
X4180240Y2403708D1*
X4168247D1*
X4161062Y2401331D1*
X4156308Y2398955D1*
X4151500Y2394146D1*
X4149123Y2386961D1*
Y2370215D1*
X4158740Y2419147D2*
X4156308Y2423956D1*
X4149179Y2431141D1*
X4199363D1*
X4149179Y2460950D2*
X4151555Y2453765D1*
X4158740Y2448957D1*
X4170679Y2446580D1*
X4177864D1*
X4189802Y2448957D1*
X4196987Y2453765D1*
X4199363Y2460950D1*
Y2465703D1*
X4196987Y2472888D1*
X4189802Y2477641D1*
X4177864Y2480073D1*
X4170679D1*
X4158740Y2477641D1*
X4151555Y2472888D1*
X4149179Y2465703D1*
Y2460950D1*
X4158740Y2477641D2*
X4189802Y2448957D1*
X4199363Y2505074D2*
X4149179Y2529006D1*
Y2495513D1*
X3001781Y2737467D2*
X3052021D1*
Y2754213D1*
X3049589Y2761398D1*
X3044836Y2766207D1*
X3040027Y2768583D1*
X3032898Y2770960D1*
X3020904D1*
X3013719Y2768584D1*
X3008966Y2766207D1*
X3004157Y2761398D1*
X3001781Y2754213D1*
Y2737467D1*
X3011398Y2786399D2*
X3008966Y2791208D1*
X3001836Y2798393D1*
X3052021D1*
X3001836Y2828202D2*
X3004213Y2821017D1*
X3011398Y2816209D1*
X3023336Y2813832D1*
X3030521D1*
X3042459Y2816209D1*
X3049644Y2821017D1*
X3052021Y2828202D1*
Y2832955D1*
X3049644Y2840140D1*
X3042459Y2844893D1*
X3030521Y2847325D1*
X3023336D1*
X3011398Y2844893D1*
X3004213Y2840140D1*
X3001836Y2832955D1*
Y2828202D1*
X3011398Y2844893D2*
X3042459Y2816209D1*
X3001836Y2874703D2*
X3004213Y2867573D1*
X3008966Y2865141D1*
X3013774D1*
X3018528Y2867573D1*
X3020959Y2872326D1*
X3023336Y2881888D1*
X3025713Y2889073D1*
X3030521Y2893826D1*
X3035274Y2896203D1*
X3042459D1*
X3047212Y2893826D1*
X3049644Y2891449D1*
X3052021Y2884264D1*
Y2874703D1*
X3049644Y2867573D1*
X3047212Y2865141D1*
X3042459Y2862765D1*
X3035274D1*
X3030521Y2865141D1*
X3025713Y2869950D1*
X3023336Y2877079D1*
X3020959Y2886641D1*
X3018528Y2891449D1*
X3013774Y2893826D1*
X3008966D1*
X3004213Y2891449D1*
X3001836Y2884264D1*
Y2874703D1*
X2142249Y3091436D2*
Y3053189D1*
X2139873Y3046004D1*
X2137441Y3043628D1*
X2132688Y3041196D1*
X2127879D1*
X2123126Y3043628D1*
X2120750Y3046004D1*
X2118318Y3053189D1*
Y3057942D1*
X2157689Y3081819D2*
X2162497Y3084251D1*
X2169682Y3091380D1*
Y3041196D1*
X2131500Y2491436D2*
Y2453189D1*
X2129123Y2446004D1*
X2126691Y2443628D1*
X2121938Y2441196D1*
X2117129D1*
X2112376Y2443628D1*
X2110000Y2446004D1*
X2107568Y2453189D1*
Y2457942D1*
X2149371Y2479442D2*
Y2481819D1*
X2151747Y2486627D1*
X2154124Y2489004D1*
X2158932Y2491380D1*
X2168494D1*
X2173247Y2489004D1*
X2175624Y2486627D1*
X2178056Y2481819D1*
Y2477066D1*
X2175624Y2472257D1*
X2170871Y2465127D1*
X2146939Y2441196D1*
X2180432D1*
X763389Y3813680D2*
Y3775433D1*
X761013Y3768248D1*
X758581Y3765872D1*
X753828Y3763440D1*
X749019D1*
X744266Y3765872D1*
X741889Y3768248D1*
X739458Y3775433D1*
Y3780186D1*
X783637Y3813624D2*
X809890D1*
X795575Y3794501D1*
X802760D1*
X807513Y3792125D1*
X809890Y3789748D1*
X812322Y3782563D1*
Y3777810D1*
X809890Y3770625D1*
X805137Y3765816D1*
X797952Y3763440D1*
X790767D1*
X783637Y3765816D1*
X781260Y3768248D1*
X778829Y3773001D1*
X1352752Y3813680D2*
Y3775433D1*
X1350376Y3768248D1*
X1347944Y3765872D1*
X1343191Y3763440D1*
X1338382D1*
X1333629Y3765872D1*
X1331252Y3768248D1*
X1328821Y3775433D1*
Y3780186D1*
X1392123Y3763440D2*
Y3813624D1*
X1368191Y3780186D1*
X1404061D1*
X1944492Y3813680D2*
Y3775433D1*
X1942115Y3768248D1*
X1939683Y3765872D1*
X1934930Y3763440D1*
X1930122D1*
X1925368Y3765872D1*
X1922992Y3768248D1*
X1920560Y3775433D1*
Y3780186D1*
X1988616Y3813624D2*
X1964739D1*
X1962363Y3792125D1*
X1964739Y3794501D1*
X1971924Y3796933D1*
X1979054D1*
X1986239Y3794501D1*
X1991048Y3789748D1*
X1993424Y3782563D1*
Y3777810D1*
X1991048Y3770625D1*
X1986239Y3765816D1*
X1979054Y3763440D1*
X1971924D1*
X1964739Y3765816D1*
X1962363Y3768248D1*
X1959931Y3773001D1*
X2839408Y3813680D2*
Y3775433D1*
X2837032Y3768248D1*
X2834600Y3765872D1*
X2829847Y3763440D1*
X2825038D1*
X2820285Y3765872D1*
X2817909Y3768248D1*
X2815477Y3775433D1*
Y3780186D1*
X2883533Y3806495D2*
X2881156Y3811248D1*
X2873971Y3813624D1*
X2869218D1*
X2862033Y3811248D1*
X2857224Y3804063D1*
X2854848Y3792125D1*
Y3780186D1*
X2857224Y3770625D1*
X2862033Y3765816D1*
X2869218Y3763440D1*
X2871594D1*
X2878724Y3765816D1*
X2883533Y3770625D1*
X2885909Y3777810D1*
Y3780186D1*
X2883533Y3787371D1*
X2878724Y3792125D1*
X2871594Y3794501D1*
X2869218D1*
X2862033Y3792125D1*
X2857224Y3787371D1*
X2854848Y3780186D1*
X3428744Y3813680D2*
Y3775433D1*
X3426367Y3768248D1*
X3423935Y3765872D1*
X3419182Y3763440D1*
X3414374D1*
X3409620Y3765872D1*
X3407244Y3768248D1*
X3404812Y3775433D1*
Y3780186D1*
X3453745Y3763440D2*
X3477676Y3813624D1*
X3444183D1*
X4019322Y3813680D2*
Y3775433D1*
X4016946Y3768248D1*
X4014514Y3765872D1*
X4009761Y3763440D1*
X4004952D1*
X4000199Y3765872D1*
X3997823Y3768248D1*
X3995391Y3775433D1*
Y3780186D1*
X4046700Y3813624D2*
X4039570Y3811248D1*
X4037138Y3806495D1*
Y3801686D1*
X4039570Y3796933D1*
X4044323Y3794501D1*
X4053885Y3792125D1*
X4061070Y3789748D1*
X4065823Y3784940D1*
X4068200Y3780186D1*
Y3773001D1*
X4065823Y3768248D1*
X4063447Y3765816D1*
X4056262Y3763440D1*
X4046700D1*
X4039570Y3765816D1*
X4037138Y3768248D1*
X4034762Y3773001D1*
Y3780186D1*
X4037138Y3784940D1*
X4041947Y3789748D1*
X4049077Y3792125D1*
X4058638Y3794501D1*
X4063447Y3796933D1*
X4065823Y3801686D1*
Y3806495D1*
X4063447Y3811248D1*
X4056262Y3813624D1*
X4046700D1*
X788200Y892420D2*
Y854173D1*
X785823Y846988D1*
X783391Y844612D1*
X778638Y842180D1*
X773830D1*
X769076Y844612D1*
X766700Y846988D1*
X764268Y854173D1*
Y858927D1*
X834756Y875673D2*
X832324Y868488D1*
X827571Y863680D1*
X820386Y861303D1*
X818009D1*
X810824Y863680D1*
X806071Y868488D1*
X803639Y875673D1*
Y878050D1*
X806071Y885235D1*
X810824Y889988D1*
X818009Y892365D1*
X820386D1*
X827571Y889988D1*
X832324Y885235D1*
X834756Y875673D1*
Y863680D1*
X832324Y851742D1*
X827571Y844557D1*
X820386Y842180D1*
X815632D1*
X808447Y844557D1*
X806071Y849365D1*
X1363846Y892420D2*
Y854173D1*
X1361470Y846988D1*
X1359038Y844612D1*
X1354285Y842180D1*
X1349476D1*
X1344723Y844612D1*
X1342346Y846988D1*
X1339914Y854173D1*
Y858927D1*
X1379285Y882803D2*
X1384094Y885235D1*
X1391279Y892365D1*
Y842180D1*
X1421088Y892365D2*
X1413903Y889988D1*
X1409095Y882803D1*
X1406718Y870865D1*
Y863680D1*
X1409095Y851742D1*
X1413903Y844557D1*
X1421088Y842180D1*
X1425841D1*
X1433026Y844557D1*
X1437780Y851742D1*
X1440212Y863680D1*
Y870865D1*
X1437780Y882803D1*
X1433026Y889988D1*
X1425841Y892365D1*
X1421088D1*
X1437780Y882803D2*
X1409095Y851742D1*
X1965147Y892420D2*
Y854173D1*
X1962771Y846988D1*
X1960339Y844612D1*
X1955586Y842180D1*
X1950777D1*
X1946024Y844612D1*
X1943647Y846988D1*
X1941216Y854173D1*
Y858927D1*
X1980587Y882803D2*
X1985395Y885235D1*
X1992580Y892365D1*
Y842180D1*
X2008019Y882803D2*
X2012828Y885235D1*
X2020013Y892365D1*
Y842180D1*
X2848098Y892420D2*
Y854173D1*
X2845722Y846988D1*
X2843290Y844612D1*
X2838537Y842180D1*
X2833728D1*
X2828975Y844612D1*
X2826598Y846988D1*
X2824166Y854173D1*
Y858927D1*
X2863537Y882803D2*
X2868346Y885235D1*
X2875531Y892365D1*
Y842180D1*
X2893402Y880426D2*
Y882803D1*
X2895779Y887611D1*
X2898155Y889988D1*
X2902964Y892365D1*
X2912525D1*
X2917278Y889988D1*
X2919655Y887611D1*
X2922087Y882803D1*
Y878050D1*
X2919655Y873241D1*
X2914902Y866112D1*
X2890970Y842180D1*
X2924463D1*
X3438649Y892420D2*
Y854173D1*
X3436273Y846988D1*
X3433841Y844612D1*
X3429088Y842180D1*
X3424279D1*
X3419526Y844612D1*
X3417149Y846988D1*
X3414718Y854173D1*
Y858927D1*
X3454089Y882803D2*
X3458897Y885235D1*
X3466082Y892365D1*
Y842180D1*
X3486330Y892365D2*
X3512583D1*
X3498268Y873241D1*
X3505453D1*
X3510206Y870865D1*
X3512583Y868488D1*
X3515015Y861303D1*
Y856550D1*
X3512583Y849365D1*
X3507830Y844557D1*
X3500645Y842180D1*
X3493460D1*
X3486330Y844557D1*
X3483953Y846988D1*
X3481521Y851742D1*
X4028012Y892420D2*
Y854173D1*
X4025636Y846988D1*
X4023204Y844612D1*
X4018451Y842180D1*
X4013642D1*
X4008889Y844612D1*
X4006512Y846988D1*
X4004081Y854173D1*
Y858927D1*
X4043451Y882803D2*
X4048260Y885235D1*
X4055445Y892365D1*
Y842180D1*
X4094816D2*
Y892365D1*
X4070884Y858927D1*
X4106754D1*
X2862854Y2225589D2*
Y2175349D1*
X2896348Y2225589D2*
X2862854Y2192096D1*
X2874793Y2204089D2*
X2896348Y2175349D1*
X2911787Y2215972D2*
X2916595Y2218404D1*
X2923780Y2225534D1*
Y2175349D1*
X2953590Y2225534D2*
X2946405Y2223157D1*
X2941596Y2215972D1*
X2939220Y2204034D1*
Y2196849D1*
X2941596Y2184911D1*
X2946405Y2177726D1*
X2953590Y2175349D1*
X2958343D1*
X2965528Y2177726D1*
X2970281Y2184911D1*
X2972713Y2196849D1*
Y2204034D1*
X2970281Y2215972D1*
X2965528Y2223157D1*
X2958343Y2225534D1*
X2953590D1*
X2970281Y2215972D2*
X2941596Y2184911D1*
X2988152Y2215972D2*
X2992961Y2218404D1*
X3000146Y2225534D1*
Y2175349D1*
X3427104Y2225589D2*
Y2175349D1*
X3460598Y2225589D2*
X3427104Y2192096D1*
X3439043Y2204089D2*
X3460598Y2175349D1*
X3476037Y2215972D2*
X3480845Y2218404D1*
X3488030Y2225534D1*
Y2175349D1*
X3517840Y2225534D2*
X3510655Y2223157D1*
X3505846Y2215972D1*
X3503470Y2204034D1*
Y2196849D1*
X3505846Y2184911D1*
X3510655Y2177726D1*
X3517840Y2175349D1*
X3522593D1*
X3529778Y2177726D1*
X3534531Y2184911D1*
X3536963Y2196849D1*
Y2204034D1*
X3534531Y2215972D1*
X3529778Y2223157D1*
X3522593Y2225534D1*
X3517840D1*
X3534531Y2215972D2*
X3505846Y2184911D1*
X3554834Y2213596D2*
Y2215972D1*
X3557211Y2220781D1*
X3559587Y2223157D1*
X3564396Y2225534D1*
X3573957D1*
X3578711Y2223157D1*
X3581087Y2220781D1*
X3583519Y2215972D1*
Y2211219D1*
X3581087Y2206411D1*
X3576334Y2199281D1*
X3552402Y2175349D1*
X3585896D1*
X4002104Y2213089D2*
Y2162849D1*
X4035598Y2213089D2*
X4002104Y2179596D1*
X4014043Y2191589D2*
X4035598Y2162849D1*
X4051037Y2203472D2*
X4055845Y2205904D1*
X4063030Y2213034D1*
Y2162849D1*
X4092840Y2213034D2*
X4085655Y2210657D1*
X4080846Y2203472D1*
X4078470Y2191534D1*
Y2184349D1*
X4080846Y2172411D1*
X4085655Y2165226D1*
X4092840Y2162849D1*
X4097593D1*
X4104778Y2165226D1*
X4109531Y2172411D1*
X4111963Y2184349D1*
Y2191534D1*
X4109531Y2203472D1*
X4104778Y2210657D1*
X4097593Y2213034D1*
X4092840D1*
X4109531Y2203472D2*
X4080846Y2172411D1*
X4132211Y2213034D2*
X4158464D1*
X4144149Y2193911D1*
X4151334D1*
X4156087Y2191534D1*
X4158464Y2189158D1*
X4160896Y2181972D1*
Y2177219D1*
X4158464Y2170034D1*
X4153711Y2165226D1*
X4146526Y2162849D1*
X4139341D1*
X4132211Y2165226D1*
X4129834Y2167658D1*
X4127402Y2172411D1*
X3649637Y3074605D2*
Y3024365D1*
X3683130Y3074605D2*
X3649637Y3041112D1*
X3661575Y3053105D2*
X3683130Y3024365D1*
X3698569Y3064988D2*
X3703378Y3067420D1*
X3710563Y3074550D1*
Y3024365D1*
X3740372Y3074550D2*
X3733187Y3072173D1*
X3728378Y3064988D1*
X3726002Y3053050D1*
Y3045865D1*
X3728378Y3033927D1*
X3733187Y3026742D1*
X3740372Y3024365D1*
X3745125D1*
X3752310Y3026742D1*
X3757063Y3033927D1*
X3759495Y3045865D1*
Y3053050D1*
X3757063Y3064988D1*
X3752310Y3072173D1*
X3745125Y3074550D1*
X3740372D1*
X3757063Y3064988D2*
X3728378Y3033927D1*
X3798866Y3024365D2*
Y3074550D1*
X3774934Y3041112D1*
X3810804D1*
X3108367Y2539643D2*
X3103614Y2537322D1*
X3098806Y2532513D1*
X3096429Y2527705D1*
X3093997Y2520520D1*
Y2508582D1*
X3096429Y2501397D1*
X3098806Y2496643D1*
X3103614Y2491835D1*
X3108367Y2489458D1*
X3117929D1*
X3122737Y2491835D1*
X3127491Y2496643D1*
X3129867Y2501397D1*
X3132299Y2508582D1*
Y2520520D1*
X3129867Y2527705D1*
X3127491Y2532513D1*
X3122737Y2537322D1*
X3117929Y2539643D1*
X3108367D1*
X3115552Y2499020D2*
X3129867Y2484650D1*
X3147738Y2530026D2*
X3152547Y2532458D1*
X3159732Y2539588D1*
Y2489403D1*
X3189541Y2539588D2*
X3182356Y2537211D1*
X3177548Y2530026D1*
X3175171Y2518088D1*
Y2510903D1*
X3177548Y2498965D1*
X3182356Y2491780D1*
X3189541Y2489403D1*
X3194294D1*
X3201479Y2491780D1*
X3206233Y2498965D1*
X3208664Y2510903D1*
Y2518088D1*
X3206233Y2530026D1*
X3201479Y2537211D1*
X3194294Y2539588D1*
X3189541D1*
X3206233Y2530026D2*
X3177548Y2498965D1*
X3224104Y2530026D2*
X3228912Y2532458D1*
X3236097Y2539588D1*
Y2489403D1*
X3297617Y2539643D2*
X3292864Y2537322D1*
X3288056Y2532513D1*
X3285679Y2527705D1*
X3283247Y2520520D1*
Y2508582D1*
X3285679Y2501397D1*
X3288056Y2496643D1*
X3292864Y2491835D1*
X3297617Y2489458D1*
X3307179D1*
X3311988Y2491835D1*
X3316741Y2496643D1*
X3319117Y2501397D1*
X3321549Y2508582D1*
Y2520520D1*
X3319117Y2527705D1*
X3316741Y2532513D1*
X3311988Y2537322D1*
X3307179Y2539643D1*
X3297617D1*
X3304803Y2499020D2*
X3319117Y2484650D1*
X3336988Y2530026D2*
X3341797Y2532458D1*
X3348982Y2539588D1*
Y2489403D1*
X3378791Y2539588D2*
X3371606Y2537211D1*
X3366798Y2530026D1*
X3364421Y2518088D1*
Y2510903D1*
X3366798Y2498965D1*
X3371606Y2491780D1*
X3378791Y2489403D1*
X3383544D1*
X3390729Y2491780D1*
X3395483Y2498965D1*
X3397915Y2510903D1*
Y2518088D1*
X3395483Y2530026D1*
X3390729Y2537211D1*
X3383544Y2539588D1*
X3378791D1*
X3395483Y2530026D2*
X3366798Y2498965D1*
X3415786Y2527650D2*
Y2530026D1*
X3418162Y2534835D1*
X3420539Y2537211D1*
X3425347Y2539588D1*
X3434909D1*
X3439662Y2537211D1*
X3442039Y2534835D1*
X3444470Y2530026D1*
Y2525273D1*
X3442039Y2520464D1*
X3437285Y2513335D1*
X3413354Y2489403D1*
X3446847D1*
X3510117Y2539643D2*
X3505364Y2537322D1*
X3500556Y2532513D1*
X3498179Y2527705D1*
X3495747Y2520520D1*
Y2508582D1*
X3498179Y2501397D1*
X3500556Y2496643D1*
X3505364Y2491835D1*
X3510117Y2489458D1*
X3519679D1*
X3524488Y2491835D1*
X3529241Y2496643D1*
X3531617Y2501397D1*
X3534049Y2508582D1*
Y2520520D1*
X3531617Y2527705D1*
X3529241Y2532513D1*
X3524488Y2537322D1*
X3519679Y2539643D1*
X3510117D1*
X3517303Y2499020D2*
X3531617Y2484650D1*
X3549488Y2530026D2*
X3554297Y2532458D1*
X3561482Y2539588D1*
Y2489403D1*
X3591291Y2539588D2*
X3584106Y2537211D1*
X3579298Y2530026D1*
X3576921Y2518088D1*
Y2510903D1*
X3579298Y2498965D1*
X3584106Y2491780D1*
X3591291Y2489403D1*
X3596044D1*
X3603229Y2491780D1*
X3607983Y2498965D1*
X3610415Y2510903D1*
Y2518088D1*
X3607983Y2530026D1*
X3603229Y2537211D1*
X3596044Y2539588D1*
X3591291D1*
X3607983Y2530026D2*
X3579298Y2498965D1*
X3630662Y2539588D2*
X3656915D1*
X3642600Y2520464D1*
X3649785D1*
X3654539Y2518088D1*
X3656915Y2515711D1*
X3659347Y2508526D1*
Y2503773D1*
X3656915Y2496588D1*
X3652162Y2491780D1*
X3644977Y2489403D1*
X3637792D1*
X3630662Y2491780D1*
X3628286Y2494211D1*
X3625854Y2498965D1*
X2846429Y2914643D2*
X2841676Y2912322D1*
X2836868Y2907513D1*
X2834491Y2902705D1*
X2832059Y2895520D1*
Y2883582D1*
X2834491Y2876397D1*
X2836868Y2871643D1*
X2841676Y2866835D1*
X2846429Y2864458D1*
X2855991D1*
X2860799Y2866835D1*
X2865552Y2871643D1*
X2867929Y2876397D1*
X2870361Y2883582D1*
Y2895520D1*
X2867929Y2902705D1*
X2865552Y2907513D1*
X2860799Y2912322D1*
X2855991Y2914643D1*
X2846429D1*
X2853614Y2874020D2*
X2867929Y2859650D1*
X2885800Y2905026D2*
X2890609Y2907458D1*
X2897794Y2914588D1*
Y2864403D1*
X2927603Y2914588D2*
X2920418Y2912211D1*
X2915609Y2905026D1*
X2913233Y2893088D1*
Y2885903D1*
X2915609Y2873965D1*
X2920418Y2866780D1*
X2927603Y2864403D1*
X2932356D1*
X2939541Y2866780D1*
X2944294Y2873965D1*
X2946726Y2885903D1*
Y2893088D1*
X2944294Y2905026D1*
X2939541Y2912211D1*
X2932356Y2914588D1*
X2927603D1*
X2944294Y2905026D2*
X2915609Y2873965D1*
X2986097Y2864403D2*
Y2914588D1*
X2962165Y2881150D1*
X2998035D1*
X2490181Y2765189D2*
Y2786689D1*
X2487749Y2793874D1*
X2485373Y2796305D1*
X2480620Y2798682D1*
X2475811D1*
X2471058Y2796305D1*
X2468626Y2793874D1*
X2466249Y2786689D1*
Y2765189D1*
X2516489D1*
X2490181Y2781935D2*
X2516489Y2798682D1*
X2478243Y2816553D2*
X2475866D1*
X2471058Y2818930D1*
X2468681Y2821306D1*
X2466305Y2826115D1*
Y2835676D1*
X2468681Y2840430D1*
X2471058Y2842806D1*
X2475866Y2845238D1*
X2480620D1*
X2485428Y2842806D1*
X2492558Y2838053D1*
X2516489Y2814121D1*
Y2847615D1*
X1565181Y2540386D2*
Y2561885D1*
X1562749Y2569070D1*
X1560373Y2571502D1*
X1555620Y2573879D1*
X1550811D1*
X1546058Y2571502D1*
X1543626Y2569070D1*
X1541249Y2561885D1*
Y2540386D1*
X1591489D1*
X1565181Y2557132D2*
X1591489Y2573879D1*
X1541305Y2594127D2*
Y2620380D1*
X1560428Y2606065D1*
Y2613250D1*
X1562805Y2618003D1*
X1565181Y2620380D1*
X1572366Y2622811D1*
X1577119D1*
X1584304Y2620380D1*
X1589113Y2615626D1*
X1591489Y2608441D1*
Y2601256D1*
X1589113Y2594127D1*
X1586681Y2591750D1*
X1581928Y2589318D1*
X1765181Y2764000D2*
Y2785500D1*
X1762749Y2792685D1*
X1760373Y2795117D1*
X1755620Y2797494D1*
X1750811D1*
X1746058Y2795117D1*
X1743626Y2792685D1*
X1741249Y2785500D1*
Y2764000D1*
X1791489D1*
X1765181Y2780747D2*
X1791489Y2797494D1*
Y2836865D2*
X1741305D1*
X1774743Y2812933D1*
Y2848803D1*
X2402681Y3175939D2*
Y3197438D1*
X2400249Y3204624D1*
X2397873Y3207055D1*
X2393120Y3209432D1*
X2388311D1*
X2383558Y3207055D1*
X2381126Y3204624D1*
X2378749Y3197439D1*
Y3175939D1*
X2428989D1*
X2402681Y3192685D2*
X2428989Y3209432D1*
X2388366Y3224871D2*
X2385934Y3229680D1*
X2378805Y3236865D1*
X2428989D1*
X1477681Y2764787D2*
Y2786287D1*
X1475249Y2793472D1*
X1472873Y2795904D1*
X1468120Y2798280D1*
X1463311D1*
X1458558Y2795904D1*
X1456126Y2793472D1*
X1453749Y2786287D1*
Y2764787D1*
X1503989D1*
X1477681Y2781534D2*
X1503989Y2798280D1*
X1453805Y2842405D2*
Y2818528D1*
X1475305Y2816152D1*
X1472928Y2818528D1*
X1470496Y2825713D1*
Y2832843D1*
X1472928Y2840028D1*
X1477681Y2844836D1*
X1484866Y2847213D1*
X1489619D1*
X1496804Y2844836D1*
X1501613Y2840028D1*
X1503989Y2832843D1*
Y2825713D1*
X1501613Y2818528D1*
X1499181Y2816152D1*
X1494428Y2813720D1*
X2640181Y2765189D2*
Y2786689D1*
X2637749Y2793874D1*
X2635373Y2796305D1*
X2630620Y2798682D1*
X2625811D1*
X2621058Y2796305D1*
X2618626Y2793874D1*
X2616249Y2786689D1*
Y2765189D1*
X2666489D1*
X2640181Y2781935D2*
X2666489Y2798682D1*
Y2823683D2*
X2616305Y2847615D1*
Y2814121D1*
X2352681Y2765216D2*
Y2786716D1*
X2350249Y2793901D1*
X2347873Y2796333D1*
X2343120Y2798710D1*
X2338311D1*
X2333558Y2796333D1*
X2331126Y2793901D1*
X2328749Y2786716D1*
Y2765216D1*
X2378989D1*
X2352681Y2781963D2*
X2378989Y2798710D1*
X2328805Y2826087D2*
X2331181Y2818957D1*
X2335934Y2816526D1*
X2340743Y2816525D1*
X2345496Y2818957D1*
X2347928Y2823711D1*
X2350305Y2833272D1*
X2352681Y2840457D1*
X2357490Y2845210D1*
X2362243Y2847587D1*
X2369428D1*
X2374181Y2845210D1*
X2376613Y2842834D1*
X2378989Y2835649D1*
Y2826087D1*
X2376613Y2818957D1*
X2374181Y2816525D1*
X2369428Y2814149D1*
X2362243D1*
X2357490Y2816525D1*
X2352681Y2821334D1*
X2350305Y2828464D1*
X2347928Y2838025D1*
X2345496Y2842834D1*
X2340743Y2845210D1*
X2335934D1*
X2331181Y2842834D1*
X2328805Y2835649D1*
Y2826087D1*
X2165181Y2541405D2*
Y2562904D1*
X2162749Y2570090D1*
X2160373Y2572521D1*
X2155620Y2574898D1*
X2150811D1*
X2146058Y2572521D1*
X2143626Y2570090D1*
X2141249Y2562905D1*
Y2541405D1*
X2191489D1*
X2165181Y2558151D2*
X2191489Y2574898D1*
X2148434Y2619022D2*
X2143681Y2616645D1*
X2141305Y2609460D1*
Y2604707D1*
X2143681Y2597522D1*
X2150866Y2592714D1*
X2162805Y2590337D1*
X2174743D1*
X2184304Y2592714D1*
X2189113Y2597522D1*
X2191489Y2604707D1*
Y2607084D1*
X2189113Y2614214D1*
X2184304Y2619022D1*
X2177119Y2621399D1*
X2174743D1*
X2167558Y2619022D1*
X2162805Y2614214D1*
X2160428Y2607084D1*
Y2604707D1*
X2162805Y2597522D1*
X2167558Y2592714D1*
X2174743Y2590337D1*
X817972Y1603724D2*
X839472D1*
X846657Y1606156D1*
X849089Y1608533D1*
X851466Y1613286D1*
Y1618095D1*
X849089Y1622848D1*
X846657Y1625280D1*
X839472Y1627656D1*
X817972D1*
Y1577416D1*
X834719Y1603724D2*
X851466Y1577416D1*
X866905Y1618039D2*
X871713Y1620471D1*
X878898Y1627601D1*
Y1577416D1*
X908708Y1627601D2*
X901523Y1625224D1*
X896714Y1618039D1*
X894338Y1606101D1*
Y1598916D1*
X896714Y1586978D1*
X901523Y1579793D1*
X908708Y1577416D1*
X913461D1*
X920646Y1579793D1*
X925399Y1586978D1*
X927831Y1598916D1*
Y1606101D1*
X925399Y1618039D1*
X920646Y1625224D1*
X913461Y1627601D1*
X908708D1*
X925399Y1618039D2*
X896714Y1586978D1*
X943270Y1618039D2*
X948079Y1620471D1*
X955264Y1627601D1*
Y1577416D1*
X2477681Y2502006D2*
Y2523506D1*
X2475249Y2530691D1*
X2472873Y2533123D1*
X2468120Y2535499D1*
X2463311D1*
X2458558Y2533123D1*
X2456126Y2530691D1*
X2453749Y2523506D1*
Y2502006D1*
X2503989D1*
X2477681Y2518753D2*
X2503989Y2535499D1*
X2463366Y2550939D2*
X2460934Y2555747D1*
X2453805Y2562932D1*
X2503989D1*
X2453805Y2592741D2*
X2456181Y2585556D1*
X2463366Y2580748D1*
X2475305Y2578371D1*
X2482490D1*
X2494428Y2580748D1*
X2501613Y2585556D1*
X2503989Y2592741D1*
Y2597495D1*
X2501613Y2604680D1*
X2494428Y2609433D1*
X2482490Y2611865D1*
X2475305D1*
X2463366Y2609433D1*
X2456181Y2604680D1*
X2453805Y2597495D1*
Y2592741D1*
X2463366Y2609433D2*
X2494428Y2580748D1*
X2453805Y2632112D2*
Y2658365D1*
X2472928Y2644051D1*
Y2651236D1*
X2475305Y2655989D1*
X2477681Y2658365D1*
X2484866Y2660797D1*
X2489619D1*
X2496804Y2658365D1*
X2501613Y2653612D1*
X2503989Y2646427D1*
Y2639242D1*
X2501613Y2632112D1*
X2499181Y2629736D1*
X2494428Y2627304D1*
X2052681Y2727006D2*
Y2748506D1*
X2050249Y2755691D1*
X2047873Y2758123D1*
X2043120Y2760499D1*
X2038311D1*
X2033558Y2758123D1*
X2031126Y2755691D1*
X2028749Y2748506D1*
Y2727006D1*
X2078989D1*
X2052681Y2743753D2*
X2078989Y2760499D1*
X2038366Y2775939D2*
X2035934Y2780747D1*
X2028805Y2787932D1*
X2078989D1*
X2028805Y2817741D2*
X2031181Y2810556D1*
X2038366Y2805748D1*
X2050305Y2803371D1*
X2057490D1*
X2069428Y2805748D1*
X2076613Y2810556D1*
X2078989Y2817741D1*
Y2822495D1*
X2076613Y2829680D1*
X2069428Y2834433D1*
X2057490Y2836865D1*
X2050305D1*
X2038366Y2834433D1*
X2031181Y2829680D1*
X2028805Y2822495D1*
Y2817741D1*
X2038366Y2834433D2*
X2069428Y2805748D1*
X2028805Y2880989D2*
Y2857112D1*
X2050305Y2854736D1*
X2047928Y2857112D1*
X2045496Y2864297D1*
Y2871427D1*
X2047928Y2878612D1*
X2052681Y2883421D1*
X2059866Y2885797D1*
X2064619D1*
X2071804Y2883421D1*
X2076613Y2878612D1*
X2078989Y2871427D1*
Y2864297D1*
X2076613Y2857112D1*
X2074181Y2854736D1*
X2069428Y2852304D1*
X1115181Y2503820D2*
Y2525320D1*
X1112749Y2532505D1*
X1110373Y2534937D1*
X1105620Y2537314D1*
X1100811D1*
X1096058Y2534937D1*
X1093626Y2532505D1*
X1091249Y2525320D1*
Y2503820D1*
X1141489D1*
X1115181Y2520567D2*
X1141489Y2537314D1*
X1100866Y2552753D2*
X1098434Y2557561D1*
X1091305Y2564746D1*
X1141489D1*
X1091305Y2594556D2*
X1093681Y2587371D1*
X1100866Y2582562D1*
X1112805Y2580186D1*
X1119990D1*
X1131928Y2582562D1*
X1139113Y2587371D1*
X1141489Y2594556D1*
Y2599309D1*
X1139113Y2606494D1*
X1131928Y2611247D1*
X1119990Y2613679D1*
X1112805D1*
X1100866Y2611247D1*
X1093681Y2606494D1*
X1091305Y2599309D1*
Y2594556D1*
X1100866Y2611247D2*
X1131928Y2582562D1*
X1098434Y2657803D2*
X1093681Y2655427D1*
X1091305Y2648241D1*
Y2643488D1*
X1093681Y2636303D1*
X1100866Y2631495D1*
X1112805Y2629118D1*
X1124743D1*
X1134304Y2631495D1*
X1139113Y2636303D1*
X1141489Y2643488D1*
Y2645865D1*
X1139113Y2652995D1*
X1134304Y2657803D1*
X1127119Y2660180D1*
X1124743D1*
X1117558Y2657803D1*
X1112805Y2652995D1*
X1110428Y2645865D1*
Y2643488D1*
X1112805Y2636303D1*
X1117558Y2631495D1*
X1124743Y2629118D1*
X784276Y1271986D2*
Y1293486D1*
X781844Y1300671D1*
X779467Y1303103D1*
X774714Y1305480D1*
X769906D1*
X765152Y1303103D1*
X762720Y1300671D1*
X760344Y1293486D1*
Y1271986D1*
X810584D1*
X784276Y1288733D2*
X810584Y1305480D1*
X769961Y1320919D2*
X767529Y1325727D1*
X760399Y1332912D1*
X810584D1*
X760399Y1362722D2*
X762776Y1355537D1*
X769961Y1350728D1*
X781899Y1348352D1*
X789084D1*
X801022Y1350728D1*
X808207Y1355537D1*
X810584Y1362722D1*
Y1367475D1*
X808207Y1374660D1*
X801022Y1379413D1*
X789084Y1381845D1*
X781899D1*
X769961Y1379413D1*
X762776Y1374660D1*
X760399Y1367475D1*
Y1362722D1*
X769961Y1379413D2*
X801022Y1350728D1*
X772337Y1399716D2*
X769961D1*
X765152Y1402093D1*
X762776Y1404469D1*
X760399Y1409278D1*
Y1418839D1*
X762776Y1423592D1*
X765152Y1425969D1*
X769961Y1428401D1*
X774714D1*
X779522Y1425969D1*
X786652Y1421216D1*
X810584Y1397284D1*
Y1430778D1*
X1902681Y2727006D2*
Y2748506D1*
X1900249Y2755691D1*
X1897873Y2758123D1*
X1893120Y2760499D1*
X1888311D1*
X1883558Y2758123D1*
X1881126Y2755691D1*
X1878749Y2748506D1*
Y2727006D1*
X1928989D1*
X1902681Y2743753D2*
X1928989Y2760499D1*
X1888366Y2775939D2*
X1885934Y2780747D1*
X1878805Y2787932D1*
X1928989D1*
X1878805Y2817741D2*
X1881181Y2810556D1*
X1888366Y2805748D1*
X1900305Y2803371D1*
X1907490D1*
X1919428Y2805748D1*
X1926613Y2810556D1*
X1928989Y2817741D1*
Y2822495D1*
X1926613Y2829680D1*
X1919428Y2834433D1*
X1907490Y2836865D1*
X1900305D1*
X1888366Y2834433D1*
X1881181Y2829680D1*
X1878805Y2822495D1*
Y2817741D1*
X1888366Y2834433D2*
X1919428Y2805748D1*
X1928989Y2861865D2*
X1878805Y2885797D1*
Y2852304D1*
X977681Y2502632D2*
Y2524132D1*
X975249Y2531317D1*
X972873Y2533749D1*
X968120Y2536125D1*
X963311D1*
X958558Y2533749D1*
X956126Y2531317D1*
X953749Y2524132D1*
Y2502632D1*
X1003989D1*
X977681Y2519379D2*
X1003989Y2536125D1*
X963366Y2551565D2*
X960934Y2556373D1*
X953805Y2563558D1*
X1003989D1*
X953805Y2593367D2*
X956181Y2586182D1*
X963366Y2581374D1*
X975305Y2578997D1*
X982490D1*
X994428Y2581374D1*
X1001613Y2586182D1*
X1003989Y2593367D1*
Y2598121D1*
X1001613Y2605306D1*
X994428Y2610059D1*
X982490Y2612491D1*
X975305D1*
X963366Y2610059D1*
X956181Y2605306D1*
X953805Y2598121D1*
Y2593367D1*
X963366Y2610059D2*
X994428Y2581374D1*
X953805Y2639868D2*
X956181Y2632738D1*
X960934Y2630307D1*
X965743D1*
X970496Y2632738D1*
X972928Y2637492D1*
X975305Y2647053D1*
X977681Y2654238D1*
X982490Y2658991D1*
X987243Y2661368D1*
X994428D1*
X999181Y2658991D1*
X1001613Y2656615D1*
X1003989Y2649430D1*
Y2639868D1*
X1001613Y2632738D1*
X999181Y2630307D1*
X994428Y2627930D1*
X987243D1*
X982490Y2630307D1*
X977681Y2635115D1*
X975305Y2642245D1*
X972928Y2651806D1*
X970496Y2656615D1*
X965743Y2658991D1*
X960934D1*
X956181Y2656615D1*
X953805Y2649430D1*
Y2639868D1*
X1220911Y1603724D2*
X1242411D1*
X1249596Y1606156D1*
X1252028Y1608533D1*
X1254404Y1613286D1*
Y1618095D1*
X1252028Y1622848D1*
X1249596Y1625280D1*
X1242411Y1627656D1*
X1220911D1*
Y1577416D1*
X1237657Y1603724D2*
X1254404Y1577416D1*
X1269843Y1618039D2*
X1274652Y1620471D1*
X1281837Y1627601D1*
Y1577416D1*
X1311646Y1627601D2*
X1304461Y1625224D1*
X1299653Y1618039D1*
X1297276Y1606101D1*
Y1598916D1*
X1299653Y1586978D1*
X1304461Y1579793D1*
X1311646Y1577416D1*
X1316399D1*
X1323584Y1579793D1*
X1328338Y1586978D1*
X1330769Y1598916D1*
Y1606101D1*
X1328338Y1618039D1*
X1323584Y1625224D1*
X1316399Y1627601D1*
X1311646D1*
X1328338Y1618039D2*
X1299653Y1586978D1*
X1377325Y1610909D2*
X1374894Y1603724D1*
X1370140Y1598916D1*
X1362955Y1596539D1*
X1360579D1*
X1353394Y1598916D1*
X1348641Y1603724D1*
X1346209Y1610909D1*
Y1613286D1*
X1348641Y1620471D1*
X1353394Y1625224D1*
X1360579Y1627601D1*
X1362955D1*
X1370140Y1625224D1*
X1374894Y1620471D1*
X1377325Y1610909D1*
Y1598916D1*
X1374894Y1586978D1*
X1370140Y1579793D1*
X1362955Y1577416D1*
X1358202D1*
X1351017Y1579793D1*
X1348641Y1584601D1*
X2640181Y2512756D2*
Y2534256D1*
X2637749Y2541441D1*
X2635373Y2543873D1*
X2630620Y2546249D1*
X2625811D1*
X2621058Y2543873D1*
X2618626Y2541441D1*
X2616249Y2534256D1*
Y2512756D1*
X2666489D1*
X2640181Y2529503D2*
X2666489Y2546249D1*
X2625866Y2561689D2*
X2623434Y2566497D1*
X2616305Y2573682D1*
X2666489D1*
X2625866Y2589121D2*
X2623434Y2593930D1*
X2616305Y2601115D1*
X2666489D1*
X2628243Y2618986D2*
X2625866D1*
X2621058Y2621362D1*
X2618681Y2623739D1*
X2616305Y2628547D1*
Y2638109D1*
X2618681Y2642862D1*
X2621058Y2645239D1*
X2625866Y2647671D1*
X2630619D1*
X2635428Y2645239D1*
X2642558Y2640486D1*
X2666489Y2616554D1*
Y2650047D1*
X1740181Y1737953D2*
Y1759453D1*
X1737749Y1766638D1*
X1735373Y1769070D1*
X1730620Y1771446D1*
X1725811D1*
X1721058Y1769070D1*
X1718626Y1766638D1*
X1716249Y1759453D1*
Y1737953D1*
X1766489D1*
X1740181Y1754700D2*
X1766489Y1771446D1*
X1725866Y1786885D2*
X1723434Y1791694D1*
X1716305Y1798879D1*
X1766489D1*
X1725866Y1814318D2*
X1723434Y1819127D1*
X1716305Y1826312D1*
X1766489D1*
X1716305Y1846559D2*
Y1872812D1*
X1735428Y1858497D1*
Y1865683D1*
X1737805Y1870436D1*
X1740181Y1872812D1*
X1747366Y1875244D1*
X1752119D1*
X1759304Y1872812D1*
X1764113Y1868059D1*
X1766489Y1860874D1*
Y1853689D1*
X1764113Y1846559D1*
X1761681Y1844183D1*
X1756928Y1841751D1*
X1209276Y1282354D2*
Y1303854D1*
X1206844Y1311039D1*
X1204467Y1313471D1*
X1199714Y1315848D1*
X1194906D1*
X1190152Y1313471D1*
X1187720Y1311039D1*
X1185344Y1303854D1*
Y1282354D1*
X1235584D1*
X1209276Y1299101D2*
X1235584Y1315848D1*
X1194961Y1331287D2*
X1192529Y1336095D1*
X1185399Y1343280D1*
X1235584D1*
X1194961Y1358720D2*
X1192529Y1363528D1*
X1185399Y1370713D1*
X1235584D1*
X1185399Y1400522D2*
X1187776Y1393337D1*
X1194961Y1388529D1*
X1206899Y1386152D1*
X1214084D1*
X1226022Y1388529D1*
X1233207Y1393337D1*
X1235584Y1400522D1*
Y1405276D1*
X1233207Y1412461D1*
X1226022Y1417214D1*
X1214084Y1419646D1*
X1206899D1*
X1194961Y1417214D1*
X1187776Y1412461D1*
X1185399Y1405276D1*
Y1400522D1*
X1194961Y1417214D2*
X1226022Y1388529D1*
X1865181Y2511568D2*
Y2533068D1*
X1862749Y2540253D1*
X1860373Y2542684D1*
X1855620Y2545061D1*
X1850811D1*
X1846058Y2542684D1*
X1843626Y2540253D1*
X1841249Y2533068D1*
Y2511568D1*
X1891489D1*
X1865181Y2528314D2*
X1891489Y2545061D1*
X1850866Y2560500D2*
X1848434Y2565309D1*
X1841305Y2572494D1*
X1891489D1*
X1850866Y2587933D2*
X1848434Y2592741D1*
X1841305Y2599926D1*
X1891489D1*
Y2639297D2*
X1841305D1*
X1874743Y2615366D1*
Y2651236D1*
X2015181Y2512953D2*
Y2534453D1*
X2012749Y2541638D1*
X2010373Y2544070D1*
X2005620Y2546446D1*
X2000811D1*
X1996058Y2544070D1*
X1993626Y2541638D1*
X1991249Y2534453D1*
Y2512953D1*
X2041489D1*
X2015181Y2529700D2*
X2041489Y2546446D1*
X2000866Y2561885D2*
X1998434Y2566694D1*
X1991305Y2573879D1*
X2041489D1*
X2000866Y2589318D2*
X1998434Y2594127D1*
X1991305Y2601312D1*
X2041489D1*
X1991305Y2645436D2*
Y2621559D1*
X2012805Y2619183D1*
X2010428Y2621559D1*
X2007996Y2628744D1*
Y2635874D1*
X2010428Y2643059D1*
X2015181Y2647868D1*
X2022366Y2650244D1*
X2027119D1*
X2034304Y2647868D1*
X2039113Y2643059D1*
X2041489Y2635874D1*
Y2628744D1*
X2039113Y2621559D1*
X2036681Y2619183D1*
X2031928Y2616751D1*
X1252681Y2514169D2*
Y2535669D1*
X1250249Y2542854D1*
X1247873Y2545286D1*
X1243120Y2547662D1*
X1238311D1*
X1233558Y2545286D1*
X1231126Y2542854D1*
X1228749Y2535669D1*
Y2514169D1*
X1278989D1*
X1252681Y2530915D2*
X1278989Y2547662D1*
X1238366Y2563101D2*
X1235934Y2567910D1*
X1228805Y2575095D1*
X1278989D1*
X1238366Y2590534D2*
X1235934Y2595342D1*
X1228805Y2602528D1*
X1278989Y2602527D1*
X1235934Y2646652D2*
X1231181Y2644275D1*
X1228805Y2637090D1*
Y2632337D1*
X1231181Y2625152D1*
X1238366Y2620343D1*
X1250305Y2617967D1*
X1262243D1*
X1271804Y2620343D1*
X1276613Y2625152D1*
X1278989Y2632337D1*
Y2634713D1*
X1276613Y2641843D1*
X1271804Y2646652D1*
X1264619Y2649028D1*
X1262243D1*
X1255058Y2646652D1*
X1250305Y2641843D1*
X1247928Y2634713D1*
Y2632337D1*
X1250305Y2625152D1*
X1255058Y2620343D1*
X1262243Y2617967D1*
X1667972Y1603724D2*
X1689472D1*
X1696657Y1606156D1*
X1699089Y1608533D1*
X1701466Y1613286D1*
Y1618095D1*
X1699089Y1622848D1*
X1696657Y1625280D1*
X1689472Y1627656D1*
X1667972D1*
Y1577416D1*
X1684719Y1603724D2*
X1701466Y1577416D1*
X1716905Y1618039D2*
X1721713Y1620471D1*
X1728898Y1627601D1*
Y1577416D1*
X1744338Y1618039D2*
X1749146Y1620471D1*
X1756331Y1627601D1*
Y1577416D1*
X1781332D2*
X1805264Y1627601D1*
X1771770D1*
X2202681Y1727006D2*
Y1748506D1*
X2200249Y1755691D1*
X2197873Y1758123D1*
X2193120Y1760499D1*
X2188311D1*
X2183558Y1758123D1*
X2181126Y1755691D1*
X2178749Y1748506D1*
Y1727006D1*
X2228989D1*
X2202681Y1743753D2*
X2228989Y1760499D1*
X2188366Y1775939D2*
X2185934Y1780747D1*
X2178805Y1787932D1*
X2228989D1*
X2190743Y1805803D2*
X2188366D1*
X2183558Y1808180D1*
X2181181Y1810556D1*
X2178805Y1815365D1*
Y1824926D1*
X2181181Y1829680D1*
X2183558Y1832056D1*
X2188366Y1834488D1*
X2193119D1*
X2197928Y1832056D1*
X2205058Y1827303D1*
X2228989Y1803371D1*
Y1836865D1*
X2178805Y1866674D2*
X2181181Y1859489D1*
X2188366Y1854680D1*
X2200305Y1852304D1*
X2207490D1*
X2219428Y1854680D1*
X2226613Y1859489D1*
X2228989Y1866674D1*
Y1871427D1*
X2226613Y1878612D1*
X2219428Y1883365D1*
X2207490Y1885797D1*
X2200305D1*
X2188366Y1883365D1*
X2181181Y1878612D1*
X2178805Y1871427D1*
Y1866674D1*
X2188366Y1883365D2*
X2219428Y1854680D1*
X2802681Y2512756D2*
Y2534256D1*
X2800249Y2541441D1*
X2797873Y2543873D1*
X2793120Y2546249D1*
X2788311D1*
X2783558Y2543873D1*
X2781126Y2541441D1*
X2778749Y2534256D1*
Y2512756D1*
X2828989D1*
X2802681Y2529503D2*
X2828989Y2546249D1*
X2788366Y2561689D2*
X2785934Y2566497D1*
X2778805Y2573682D1*
X2828989D1*
X2790743Y2591553D2*
X2788366D1*
X2783558Y2593930D1*
X2781181Y2596306D1*
X2778805Y2601115D1*
Y2610676D1*
X2781181Y2615430D1*
X2783558Y2617806D1*
X2788366Y2620238D1*
X2793119D1*
X2797928Y2617806D1*
X2805058Y2613053D1*
X2828989Y2589121D1*
Y2622615D1*
X2788366Y2638054D2*
X2785934Y2642862D1*
X2778805Y2650047D1*
X2828989D1*
X1634276Y1282382D2*
Y1303882D1*
X1631844Y1311067D1*
X1629467Y1313499D1*
X1624714Y1315875D1*
X1619906D1*
X1615152Y1313499D1*
X1612720Y1311067D1*
X1610344Y1303882D1*
Y1282382D1*
X1660584D1*
X1634276Y1299129D2*
X1660584Y1315875D1*
X1619961Y1331315D2*
X1617529Y1336123D1*
X1610399Y1343308D1*
X1660584D1*
X1619961Y1358747D2*
X1617529Y1363556D1*
X1610399Y1370741D1*
X1660584D1*
X1610399Y1398118D2*
X1612776Y1390988D1*
X1617529Y1388557D1*
X1622337D1*
X1627091Y1390988D1*
X1629522Y1395742D1*
X1631899Y1405303D1*
X1634276Y1412488D1*
X1639084Y1417241D1*
X1643837Y1419618D1*
X1651022D1*
X1655775Y1417241D1*
X1658207Y1414865D1*
X1660584Y1407680D1*
Y1398118D1*
X1658207Y1390988D1*
X1655775Y1388557D1*
X1651022Y1386180D1*
X1643837D1*
X1639084Y1388557D1*
X1634276Y1393365D1*
X1631899Y1400495D1*
X1629522Y1410056D1*
X1627091Y1414865D1*
X1622337Y1417241D1*
X1617529D1*
X1612776Y1414865D1*
X1610399Y1407680D1*
Y1398118D1*
X2315181Y2502006D2*
Y2523506D1*
X2312749Y2530691D1*
X2310373Y2533123D1*
X2305620Y2535499D1*
X2300811D1*
X2296058Y2533123D1*
X2293626Y2530691D1*
X2291249Y2523506D1*
Y2502006D1*
X2341489D1*
X2315181Y2518753D2*
X2341489Y2535499D1*
X2300866Y2550939D2*
X2298434Y2555747D1*
X2291305Y2562932D1*
X2341489D1*
X2303243Y2580803D2*
X2300866D1*
X2296058Y2583180D1*
X2293681Y2585556D1*
X2291305Y2590365D1*
Y2599926D1*
X2293681Y2604680D1*
X2296058Y2607056D1*
X2300866Y2609488D1*
X2305619D1*
X2310428Y2607056D1*
X2317558Y2602303D1*
X2341489Y2578371D1*
Y2611865D1*
X2303243Y2629736D2*
X2300866D1*
X2296058Y2632112D1*
X2293681Y2634489D1*
X2291305Y2639297D1*
Y2648859D1*
X2293681Y2653612D1*
X2296058Y2655989D1*
X2300866Y2658421D1*
X2305619D1*
X2310428Y2655989D1*
X2317558Y2651236D1*
X2341489Y2627304D1*
Y2660797D1*
X2065181Y1727006D2*
Y1748506D1*
X2062749Y1755691D1*
X2060373Y1758123D1*
X2055620Y1760499D1*
X2050811D1*
X2046058Y1758123D1*
X2043626Y1755691D1*
X2041249Y1748506D1*
Y1727006D1*
X2091489D1*
X2065181Y1743753D2*
X2091489Y1760499D1*
X2050866Y1775939D2*
X2048434Y1780747D1*
X2041305Y1787932D1*
X2091489D1*
X2053243Y1805803D2*
X2050866D1*
X2046058Y1808180D1*
X2043681Y1810556D1*
X2041305Y1815365D1*
Y1824926D1*
X2043681Y1829680D1*
X2046058Y1832056D1*
X2050866Y1834488D1*
X2055619D1*
X2060428Y1832056D1*
X2067558Y1827303D1*
X2091489Y1803371D1*
Y1836865D1*
X2041305Y1857112D2*
Y1883365D1*
X2060428Y1869051D1*
Y1876236D1*
X2062805Y1880989D1*
X2065181Y1883365D1*
X2072366Y1885797D1*
X2077119D1*
X2084304Y1883365D1*
X2089113Y1878612D1*
X2091489Y1871427D1*
Y1864242D1*
X2089113Y1857112D1*
X2086681Y1854736D1*
X2081928Y1852304D1*
X2202681Y2725818D2*
Y2747318D1*
X2200249Y2754503D1*
X2197873Y2756935D1*
X2193120Y2759311D1*
X2188311D1*
X2183558Y2756935D1*
X2181126Y2754503D1*
X2178749Y2747318D1*
Y2725818D1*
X2228989D1*
X2202681Y2742564D2*
X2228989Y2759311D1*
X2188366Y2774750D2*
X2185934Y2779559D1*
X2178805Y2786744D1*
X2228989D1*
X2190743Y2804615D2*
X2188366D1*
X2183558Y2806991D1*
X2181181Y2809368D1*
X2178805Y2814177D1*
Y2823738D1*
X2181181Y2828491D1*
X2183558Y2830868D1*
X2188366Y2833300D1*
X2193119D1*
X2197928Y2830868D1*
X2205058Y2826115D1*
X2228989Y2802183D1*
Y2835676D1*
Y2875047D2*
X2178805D1*
X2212243Y2851116D1*
Y2886985D1*
X2094722Y1603724D2*
X2116222D1*
X2123407Y1606156D1*
X2125839Y1608533D1*
X2128216Y1613286D1*
Y1618095D1*
X2125839Y1622848D1*
X2123407Y1625280D1*
X2116222Y1627656D1*
X2094722D1*
Y1577416D1*
X2111469Y1603724D2*
X2128216Y1577416D1*
X2143655Y1618039D2*
X2148464Y1620471D1*
X2155649Y1627601D1*
Y1577416D1*
X2173520Y1615663D2*
Y1618039D1*
X2175896Y1622848D1*
X2178273Y1625224D1*
X2183081Y1627601D1*
X2192643D1*
X2197396Y1625224D1*
X2199773Y1622848D1*
X2202205Y1618039D1*
Y1613286D1*
X2199773Y1608478D1*
X2195020Y1601348D1*
X2171088Y1577416D1*
X2204581D1*
X2248705Y1627601D2*
X2224829D1*
X2222452Y1606101D1*
X2224829Y1608478D1*
X2232014Y1610909D1*
X2239144D1*
X2246329Y1608478D1*
X2251137Y1603724D1*
X2253514Y1596539D1*
Y1591786D1*
X2251137Y1584601D1*
X2246329Y1579793D1*
X2239144Y1577416D1*
X2232014D1*
X2224829Y1579793D1*
X2222452Y1582225D1*
X2220020Y1586978D1*
X2490181Y1727034D2*
Y1748534D1*
X2487749Y1755719D1*
X2485373Y1758150D1*
X2480620Y1760527D1*
X2475811D1*
X2471058Y1758150D1*
X2468626Y1755719D1*
X2466249Y1748534D1*
Y1727034D1*
X2516489D1*
X2490181Y1743780D2*
X2516489Y1760527D1*
X2475866Y1775966D2*
X2473434Y1780775D1*
X2466305Y1787960D1*
X2516489D1*
X2478243Y1805831D2*
X2475866D1*
X2471058Y1808207D1*
X2468681Y1810584D1*
X2466305Y1815392D1*
Y1824954D1*
X2468681Y1829707D1*
X2471058Y1832084D1*
X2475866Y1834516D1*
X2480619D1*
X2485428Y1832084D1*
X2492558Y1827331D1*
X2516489Y1803399D1*
Y1836892D1*
X2466305Y1864270D2*
X2468681Y1857140D1*
X2473434Y1854708D1*
X2478243D1*
X2482996Y1857140D1*
X2485428Y1861893D1*
X2487805Y1871455D1*
X2490181Y1878640D1*
X2494990Y1883393D1*
X2499743Y1885770D1*
X2506928D1*
X2511681Y1883393D1*
X2514113Y1881016D1*
X2516489Y1873831D1*
Y1864270D1*
X2514113Y1857140D1*
X2511681Y1854708D1*
X2506928Y1852331D1*
X2499743Y1852332D1*
X2494990Y1854708D1*
X2490181Y1859517D1*
X2487805Y1866646D1*
X2485428Y1876208D1*
X2482996Y1881016D1*
X2478243Y1883393D1*
X2473434D1*
X2468681Y1881016D1*
X2466305Y1873831D1*
Y1864270D1*
X2071776Y1272820D2*
Y1294320D1*
X2069344Y1301505D1*
X2066967Y1303937D1*
X2062214Y1306314D1*
X2057406D1*
X2052652Y1303937D1*
X2050220Y1301505D1*
X2047844Y1294320D1*
Y1272820D1*
X2098084D1*
X2071776Y1289567D2*
X2098084Y1306314D1*
X2057461Y1321753D2*
X2055029Y1326561D1*
X2047899Y1333746D1*
X2098084D1*
X2059837Y1351618D2*
X2057461D1*
X2052652Y1353994D1*
X2050276Y1356371D1*
X2047899Y1361179D1*
Y1370741D1*
X2050276Y1375494D1*
X2052652Y1377871D1*
X2057461Y1380302D1*
X2062214D1*
X2067022Y1377871D1*
X2074152Y1373117D1*
X2098084Y1349186D1*
Y1382679D1*
X2055029Y1426803D2*
X2050276Y1424427D1*
X2047899Y1417241D1*
Y1412488D1*
X2050276Y1405303D1*
X2057461Y1400495D1*
X2069399Y1398118D1*
X2081337D1*
X2090899Y1400495D1*
X2095707Y1405303D1*
X2098084Y1412488D1*
Y1414865D1*
X2095707Y1421995D1*
X2090899Y1426803D1*
X2083714Y1429180D1*
X2081337D1*
X2074152Y1426803D1*
X2069399Y1421995D1*
X2067022Y1414865D1*
Y1412488D1*
X2069399Y1405303D1*
X2074152Y1400495D1*
X2081337Y1398118D1*
X2952681Y2503194D2*
Y2524694D1*
X2950249Y2531879D1*
X2947873Y2534311D1*
X2943120Y2536688D1*
X2938311D1*
X2933558Y2534311D1*
X2931126Y2531879D1*
X2928749Y2524694D1*
Y2503194D1*
X2978989D1*
X2952681Y2519941D2*
X2978989Y2536688D1*
X2938366Y2552127D2*
X2935934Y2556935D1*
X2928805Y2564120D1*
X2978989D1*
X2940743Y2581991D2*
X2938366D1*
X2933558Y2584368D1*
X2931181Y2586745D1*
X2928805Y2591553D1*
Y2601115D1*
X2931181Y2605868D1*
X2933558Y2608244D1*
X2938366Y2610676D1*
X2943119D1*
X2947928Y2608244D1*
X2955058Y2603491D1*
X2978989Y2579560D1*
Y2613053D1*
X2945496Y2659609D2*
X2952681Y2657177D1*
X2957490Y2652424D1*
X2959866Y2645239D1*
Y2642862D1*
X2957490Y2635677D1*
X2952681Y2630924D1*
X2945496Y2628492D1*
X2943119D1*
X2935934Y2630924D1*
X2931181Y2635677D1*
X2928805Y2642862D1*
Y2645239D1*
X2931181Y2652424D1*
X2935934Y2657177D1*
X2945496Y2659609D1*
X2957490D1*
X2969428Y2657177D1*
X2976613Y2652424D1*
X2978989Y2645239D1*
Y2640486D1*
X2976613Y2633301D1*
X2971804Y2630924D1*
X1415181Y2502203D2*
Y2523703D1*
X1412749Y2530888D1*
X1410373Y2533320D1*
X1405620Y2535696D1*
X1400811D1*
X1396058Y2533320D1*
X1393626Y2530888D1*
X1391249Y2523703D1*
Y2502203D1*
X1441489D1*
X1415181Y2518950D2*
X1441489Y2535696D1*
X1400866Y2551135D2*
X1398434Y2555944D1*
X1391305Y2563129D1*
X1441489D1*
X1391305Y2583377D2*
Y2609630D1*
X1410428Y2595315D1*
Y2602500D1*
X1412805Y2607253D1*
X1415181Y2609630D1*
X1422366Y2612061D1*
X1427119D1*
X1434304Y2609630D1*
X1439113Y2604876D1*
X1441489Y2597691D1*
Y2590506D1*
X1439113Y2583377D1*
X1436681Y2581000D1*
X1431928Y2578568D1*
X1391305Y2641871D2*
X1393681Y2634686D1*
X1400866Y2629877D1*
X1412805Y2627501D1*
X1419990D1*
X1431928Y2629877D1*
X1439113Y2634686D1*
X1441489Y2641871D1*
Y2646624D1*
X1439113Y2653809D1*
X1431928Y2658562D1*
X1419990Y2660994D1*
X1412805D1*
X1400866Y2658562D1*
X1393681Y2653809D1*
X1391305Y2646624D1*
Y2641871D1*
X1400866Y2658562D2*
X1431928Y2629877D1*
X2352681Y1737953D2*
Y1759453D1*
X2350249Y1766638D1*
X2347873Y1769070D1*
X2343120Y1771446D1*
X2338311D1*
X2333558Y1769070D1*
X2331126Y1766638D1*
X2328749Y1759453D1*
Y1737953D1*
X2378989D1*
X2352681Y1754700D2*
X2378989Y1771446D1*
X2338366Y1786885D2*
X2335934Y1791694D1*
X2328805Y1798879D1*
X2378989D1*
X2328805Y1819127D2*
Y1845380D1*
X2347928Y1831065D1*
Y1838250D1*
X2350305Y1843003D1*
X2352681Y1845380D1*
X2359866Y1847811D1*
X2364619D1*
X2371804Y1845380D1*
X2376613Y1840626D1*
X2378989Y1833441D1*
Y1826256D1*
X2376613Y1819127D1*
X2374181Y1816750D1*
X2369428Y1814318D1*
X2338366Y1863251D2*
X2335934Y1868059D1*
X2328805Y1875244D1*
X2378989D1*
X1615181Y2727006D2*
Y2748506D1*
X1612749Y2755691D1*
X1610373Y2758123D1*
X1605620Y2760499D1*
X1600811D1*
X1596058Y2758123D1*
X1593626Y2755691D1*
X1591249Y2748506D1*
Y2727006D1*
X1641489D1*
X1615181Y2743753D2*
X1641489Y2760499D1*
X1600866Y2775939D2*
X1598434Y2780747D1*
X1591305Y2787932D1*
X1641489D1*
X1591305Y2808180D2*
Y2834433D1*
X1610428Y2820118D1*
Y2827303D1*
X1612805Y2832056D1*
X1615181Y2834433D1*
X1622366Y2836865D1*
X1627119D1*
X1634304Y2834433D1*
X1639113Y2829680D1*
X1641489Y2822495D1*
Y2815309D1*
X1639113Y2808180D1*
X1636681Y2805803D1*
X1631928Y2803371D1*
X1603243Y2854736D2*
X1600866D1*
X1596058Y2857112D1*
X1593681Y2859489D1*
X1591305Y2864297D1*
Y2873859D1*
X1593681Y2878612D1*
X1596058Y2880989D1*
X1600866Y2883421D1*
X1605619D1*
X1610428Y2880989D1*
X1617558Y2876236D1*
X1641489Y2852304D1*
Y2885797D1*
X2707336Y3365650D2*
Y3329780D1*
X2709713Y3322595D1*
X2714521Y3317842D1*
X2721706Y3315410D1*
X2726459D1*
X2733644Y3317842D1*
X2738453Y3322595D1*
X2740830Y3329780D1*
Y3365650D1*
X2756269Y3356033D2*
X2761077Y3358465D1*
X2768262Y3365595D1*
Y3315410D1*
X642787Y2768685D2*
Y2732815D1*
X645164Y2725630D1*
X649972Y2720877D1*
X657157Y2718445D1*
X661910D1*
X669095Y2720877D1*
X673904Y2725630D1*
X676280Y2732815D1*
Y2768685D1*
X694151Y2756692D2*
Y2759068D1*
X696528Y2763877D1*
X698905Y2766253D1*
X703713Y2768630D1*
X713275D1*
X718028Y2766253D1*
X720405Y2763877D1*
X722836Y2759068D1*
Y2754315D1*
X720405Y2749506D1*
X715651Y2742377D1*
X691720Y2718445D1*
X725213D1*
X643141Y2439157D2*
Y2403288D1*
X645518Y2396102D1*
X650326Y2391349D1*
X657511Y2388917D1*
X662265D1*
X669450Y2391349D1*
X674258Y2396102D1*
X676635Y2403288D1*
Y2439157D1*
X696882Y2439102D2*
X723135D1*
X708821Y2419979D1*
X716006D1*
X720759Y2417602D1*
X723135Y2415226D1*
X725567Y2408041D1*
Y2403288D1*
X723135Y2396102D1*
X718382Y2391294D1*
X711197Y2388917D1*
X704012D1*
X696882Y2391294D1*
X694506Y2393726D1*
X692074Y2398479D1*
X1470300Y3365650D2*
Y3329780D1*
X1472676Y3322595D1*
X1477485Y3317842D1*
X1484670Y3315410D1*
X1489423D1*
X1496608Y3317842D1*
X1501416Y3322595D1*
X1503793Y3329780D1*
Y3365650D1*
X1543164Y3315410D2*
Y3365595D1*
X1519232Y3332157D1*
X1555102D1*
X1211334Y3364643D2*
Y3328773D1*
X1213711Y3321588D1*
X1218519Y3316835D1*
X1225704Y3314403D1*
X1230458D1*
X1237643Y3316835D1*
X1242451Y3321588D1*
X1244828Y3328773D1*
Y3364643D1*
X1288952Y3364588D2*
X1265075D1*
X1262699Y3343088D1*
X1265075Y3345464D1*
X1272260Y3347896D1*
X1279390D1*
X1286575Y3345464D1*
X1291384Y3340711D1*
X1293760Y3333526D1*
Y3328773D1*
X1291384Y3321588D1*
X1286575Y3316780D1*
X1279390Y3314403D1*
X1272260D1*
X1265075Y3316780D1*
X1262699Y3319211D1*
X1260267Y3323965D1*
X561694Y3378936D2*
X580817Y3328696D1*
X599941Y3378936D1*
X615380D2*
Y3328696D1*
X632127D1*
X639312Y3331128D1*
X644120Y3335881D1*
X646497Y3340689D1*
X648873Y3347819D1*
Y3359812D1*
X646497Y3366997D1*
X644120Y3371751D1*
X639312Y3376559D1*
X632127Y3378936D1*
X615380D1*
X664312Y3369319D2*
X669121Y3371751D1*
X676306Y3378880D1*
Y3328696D1*
X548511Y1153936D2*
X567635Y1103696D1*
X586758Y1153936D1*
X602197D2*
Y1103696D1*
X618944D1*
X626129Y1106128D1*
X630937Y1110881D1*
X633314Y1115689D1*
X635691Y1122819D1*
Y1134812D1*
X633314Y1141997D1*
X630937Y1146751D1*
X626129Y1151559D1*
X618944Y1153936D1*
X602197D1*
X651130Y1144319D2*
X655938Y1146751D1*
X663123Y1153880D1*
Y1103696D1*
X692933Y1153880D2*
X685748Y1151504D1*
X680939Y1144319D1*
X678563Y1132381D1*
Y1125196D1*
X680939Y1113257D1*
X685748Y1106072D1*
X692933Y1103696D1*
X697686D1*
X704871Y1106072D1*
X709624Y1113257D1*
X712056Y1125196D1*
Y1132381D1*
X709624Y1144319D1*
X704871Y1151504D1*
X697686Y1153880D1*
X692933D1*
X709624Y1144319D2*
X680939Y1113257D1*
X727495Y1144319D2*
X732304Y1146751D1*
X739489Y1153880D1*
Y1103696D1*
X975261Y1153936D2*
X994385Y1103696D1*
X1013508Y1153936D1*
X1028947D2*
Y1103696D1*
X1045694D1*
X1052879Y1106128D1*
X1057687Y1110881D1*
X1060064Y1115689D1*
X1062441Y1122819D1*
Y1134812D1*
X1060064Y1141997D1*
X1057687Y1146751D1*
X1052879Y1151559D1*
X1045694Y1153936D1*
X1028947D1*
X1077880Y1144319D2*
X1082688Y1146751D1*
X1089873Y1153880D1*
Y1103696D1*
X1119683Y1153880D2*
X1112498Y1151504D1*
X1107689Y1144319D1*
X1105313Y1132381D1*
Y1125196D1*
X1107689Y1113257D1*
X1112498Y1106072D1*
X1119683Y1103696D1*
X1124436D1*
X1131621Y1106072D1*
X1136374Y1113257D1*
X1138806Y1125196D1*
Y1132381D1*
X1136374Y1144319D1*
X1131621Y1151504D1*
X1124436Y1153880D1*
X1119683D1*
X1136374Y1144319D2*
X1107689Y1113257D1*
X1156677Y1141942D2*
Y1144319D1*
X1159054Y1149127D1*
X1161430Y1151504D1*
X1166239Y1153880D1*
X1175800D1*
X1180553Y1151504D1*
X1182930Y1149127D1*
X1185362Y1144319D1*
Y1139566D1*
X1182930Y1134757D1*
X1178177Y1127627D1*
X1154245Y1103696D1*
X1187739D1*
X1400261Y1153936D2*
X1419385Y1103696D1*
X1438508Y1153936D1*
X1453947D2*
Y1103696D1*
X1470694D1*
X1477879Y1106128D1*
X1482687Y1110881D1*
X1485064Y1115689D1*
X1487441Y1122819D1*
Y1134812D1*
X1485064Y1141997D1*
X1482687Y1146751D1*
X1477879Y1151559D1*
X1470694Y1153936D1*
X1453947D1*
X1502880Y1144319D2*
X1507688Y1146751D1*
X1514873Y1153880D1*
Y1103696D1*
X1544683Y1153880D2*
X1537498Y1151504D1*
X1532689Y1144319D1*
X1530313Y1132381D1*
Y1125196D1*
X1532689Y1113257D1*
X1537498Y1106072D1*
X1544683Y1103696D1*
X1549436D1*
X1556621Y1106072D1*
X1561374Y1113257D1*
X1563806Y1125196D1*
Y1132381D1*
X1561374Y1144319D1*
X1556621Y1151504D1*
X1549436Y1153880D1*
X1544683D1*
X1561374Y1144319D2*
X1532689Y1113257D1*
X1584054Y1153880D2*
X1610307D1*
X1595992Y1134757D1*
X1603177D1*
X1607930Y1132381D1*
X1610307Y1130004D1*
X1612739Y1122819D1*
Y1118066D1*
X1610307Y1110881D1*
X1605553Y1106072D1*
X1598368Y1103696D1*
X1591183D1*
X1584054Y1106072D1*
X1581677Y1108504D1*
X1579245Y1113257D1*
X1824073Y1153936D2*
X1843196Y1103696D1*
X1862320Y1153936D1*
X1877759D2*
Y1103696D1*
X1894506D1*
X1901691Y1106128D1*
X1906499Y1110881D1*
X1908876Y1115689D1*
X1911252Y1122819D1*
Y1134812D1*
X1908876Y1141997D1*
X1906499Y1146751D1*
X1901691Y1151559D1*
X1894506Y1153936D1*
X1877759D1*
X1926692Y1144319D2*
X1931500Y1146751D1*
X1938685Y1153880D1*
Y1103696D1*
X1968494Y1153880D2*
X1961309Y1151504D1*
X1956501Y1144319D1*
X1954124Y1132381D1*
Y1125196D1*
X1956501Y1113257D1*
X1961309Y1106072D1*
X1968494Y1103696D1*
X1973248D1*
X1980433Y1106072D1*
X1985186Y1113257D1*
X1987618Y1125196D1*
Y1132381D1*
X1985186Y1144319D1*
X1980433Y1151504D1*
X1973248Y1153880D1*
X1968494D1*
X1985186Y1144319D2*
X1956501Y1113257D1*
X2026989Y1103696D2*
Y1153880D1*
X2003057Y1120442D1*
X2038927D1*
X680226Y1513135D2*
X730466Y1532258D1*
X680226Y1551381D1*
Y1581191D2*
X682602Y1576382D1*
X687411Y1571629D1*
X692164Y1569197D1*
X699349Y1566821D1*
X711343D1*
X718472Y1569197D1*
X723281Y1571629D1*
X728034Y1576382D1*
X730466Y1581191D1*
Y1590752D1*
X728034Y1595505D1*
X723281Y1600314D1*
X718472Y1602691D1*
X711343Y1605067D1*
X699349D1*
X692164Y1602691D1*
X687411Y1600314D1*
X682602Y1595506D1*
X680226Y1590752D1*
Y1581191D1*
X689843Y1620506D2*
X687411Y1625315D1*
X680281Y1632500D1*
X730466D1*
X680281Y1662309D2*
X682658Y1655124D1*
X689843Y1650316D1*
X701781Y1647939D1*
X708966D1*
X720904Y1650316D1*
X728089Y1655124D1*
X730466Y1662309D1*
Y1667062D1*
X728089Y1674247D1*
X720904Y1679001D1*
X708966Y1681432D1*
X701781D1*
X689843Y1679001D1*
X682658Y1674247D1*
X680281Y1667062D1*
Y1662309D1*
X689843Y1679001D2*
X720904Y1650316D1*
X689843Y1696872D2*
X687411Y1701680D1*
X680281Y1708865D1*
X730466D1*
X1042726Y1502385D2*
X1092966Y1521508D1*
X1042726Y1540632D1*
Y1570441D2*
X1045102Y1565632D1*
X1049911Y1560879D1*
X1054664Y1558447D1*
X1061849Y1556071D1*
X1073843D1*
X1080972Y1558447D1*
X1085781Y1560879D1*
X1090534Y1565632D1*
X1092966Y1570441D1*
Y1580002D1*
X1090534Y1584756D1*
X1085781Y1589564D1*
X1080972Y1591941D1*
X1073843Y1594317D1*
X1061849D1*
X1054664Y1591941D1*
X1049911Y1589564D1*
X1045102Y1584756D1*
X1042726Y1580002D1*
Y1570441D1*
X1052343Y1609756D2*
X1049911Y1614565D1*
X1042781Y1621750D1*
X1092966D1*
X1042781Y1651559D2*
X1045158Y1644374D1*
X1052343Y1639566D1*
X1064281Y1637189D1*
X1071466D1*
X1083404Y1639566D1*
X1090589Y1644374D1*
X1092966Y1651559D1*
Y1656312D1*
X1090589Y1663497D1*
X1083404Y1668251D1*
X1071466Y1670683D1*
X1064281D1*
X1052343Y1668251D1*
X1045158Y1663497D1*
X1042781Y1656312D1*
Y1651559D1*
X1052343Y1668251D2*
X1083404Y1639566D1*
X1054719Y1688554D2*
X1052343D1*
X1047534Y1690930D1*
X1045158Y1693307D1*
X1042781Y1698115D1*
Y1707677D1*
X1045158Y1712430D1*
X1047534Y1714807D1*
X1052343Y1717239D1*
X1057096D1*
X1061904Y1714807D1*
X1069034Y1710053D1*
X1092966Y1686122D1*
Y1719615D1*
X1480226Y1502708D2*
X1530466Y1521831D1*
X1480226Y1540954D1*
Y1570764D2*
X1482602Y1565955D1*
X1487411Y1561202D1*
X1492164Y1558770D1*
X1499349Y1556394D1*
X1511343D1*
X1518472Y1558770D1*
X1523281Y1561202D1*
X1528034Y1565955D1*
X1530466Y1570764D1*
Y1580325D1*
X1528034Y1585078D1*
X1523281Y1589887D1*
X1518472Y1592263D1*
X1511343Y1594640D1*
X1499349D1*
X1492164Y1592263D1*
X1487411Y1589887D1*
X1482602Y1585078D1*
X1480226Y1580325D1*
Y1570764D1*
X1489843Y1610079D2*
X1487411Y1614888D1*
X1480281Y1622073D1*
X1530466D1*
X1480281Y1651882D2*
X1482658Y1644697D1*
X1489843Y1639889D1*
X1501781Y1637512D1*
X1508966D1*
X1520904Y1639889D1*
X1528089Y1644697D1*
X1530466Y1651882D1*
Y1656635D1*
X1528089Y1663820D1*
X1520904Y1668573D1*
X1508966Y1671005D1*
X1501781D1*
X1489843Y1668573D1*
X1482658Y1663820D1*
X1480281Y1656635D1*
Y1651882D1*
X1489843Y1668573D2*
X1520904Y1639889D1*
X1480281Y1691253D2*
Y1717506D1*
X1499404Y1703191D1*
Y1710376D1*
X1501781Y1715129D1*
X1504157Y1717506D1*
X1511343Y1719938D1*
X1516096D1*
X1523281Y1717506D1*
X1528089Y1712753D1*
X1530466Y1705568D1*
Y1698383D1*
X1528089Y1691253D1*
X1525657Y1688876D1*
X1520904Y1686445D1*
X1930226Y1501520D2*
X1980466Y1520643D1*
X1930226Y1539766D1*
Y1569575D2*
X1932602Y1564767D1*
X1937411Y1560014D1*
X1942164Y1557582D1*
X1949349Y1555205D1*
X1961343D1*
X1968472Y1557582D1*
X1973281Y1560014D1*
X1978034Y1564767D1*
X1980466Y1569575D1*
Y1579137D1*
X1978034Y1583890D1*
X1973281Y1588699D1*
X1968472Y1591075D1*
X1961343Y1593452D1*
X1949349D1*
X1942164Y1591075D1*
X1937411Y1588699D1*
X1932602Y1583890D1*
X1930226Y1579137D1*
Y1569575D1*
X1939843Y1608891D2*
X1937411Y1613699D1*
X1930281Y1620884D1*
X1980466D1*
X1930281Y1650694D2*
X1932658Y1643509D1*
X1939843Y1638700D1*
X1951781Y1636324D1*
X1958966D1*
X1970904Y1638700D1*
X1978089Y1643509D1*
X1980466Y1650694D1*
Y1655447D1*
X1978089Y1662632D1*
X1970904Y1667385D1*
X1958966Y1669817D1*
X1951781D1*
X1939843Y1667385D1*
X1932658Y1662632D1*
X1930281Y1655447D1*
Y1650694D1*
X1939843Y1667385D2*
X1970904Y1638700D1*
X1980466Y1709188D2*
X1930281D1*
X1963719Y1685256D1*
Y1721126D1*
X790181Y1100818D2*
Y1122318D1*
X787749Y1129503D1*
X785373Y1131935D1*
X780620Y1134311D1*
X775811D1*
X771058Y1131935D1*
X768626Y1129503D1*
X766249Y1122318D1*
Y1100818D1*
X816489D1*
X790181Y1117564D2*
X816489Y1134311D1*
X775866Y1149750D2*
X773434Y1154559D1*
X766305Y1161744D1*
X816489D1*
X766305Y1191553D2*
X768681Y1184368D1*
X775866Y1179560D1*
X787805Y1177183D1*
X794990D1*
X806928Y1179560D1*
X814113Y1184368D1*
X816489Y1191553D1*
Y1196306D1*
X814113Y1203491D1*
X806928Y1208244D1*
X794990Y1210676D1*
X787805D1*
X775866Y1208244D1*
X768681Y1203491D1*
X766305Y1196306D1*
Y1191553D1*
X775866Y1208244D2*
X806928Y1179560D1*
X816489Y1250047D2*
X766305D1*
X799743Y1226116D1*
Y1261985D1*
X1215181Y1123104D2*
Y1144604D1*
X1212749Y1151789D1*
X1210373Y1154221D1*
X1205620Y1156598D1*
X1200811D1*
X1196058Y1154221D1*
X1193626Y1151789D1*
X1191249Y1144604D1*
Y1123104D1*
X1241489D1*
X1215181Y1139851D2*
X1241489Y1156598D1*
X1200866Y1172037D2*
X1198434Y1176845D1*
X1191305Y1184030D1*
X1241489D1*
X1200866Y1199470D2*
X1198434Y1204278D1*
X1191305Y1211463D1*
X1241489D1*
X1200866Y1226902D2*
X1198434Y1231711D1*
X1191305Y1238896D1*
X1241489D1*
X1640181Y1113944D2*
Y1135444D1*
X1637749Y1142629D1*
X1635373Y1145061D1*
X1630620Y1147438D1*
X1625811D1*
X1621058Y1145061D1*
X1618626Y1142629D1*
X1616249Y1135444D1*
Y1113944D1*
X1666489D1*
X1640181Y1130691D2*
X1666489Y1147438D1*
X1625866Y1162877D2*
X1623434Y1167685D1*
X1616305Y1174870D1*
X1666489D1*
X1625866Y1190310D2*
X1623434Y1195118D1*
X1616305Y1202303D1*
X1666489D1*
X1632996Y1248859D2*
X1640181Y1246427D1*
X1644990Y1241674D1*
X1647366Y1234489D1*
Y1232112D1*
X1644990Y1224927D1*
X1640181Y1220174D1*
X1632996Y1217742D1*
X1630619D1*
X1623434Y1220174D1*
X1618681Y1224927D1*
X1616305Y1232112D1*
Y1234489D1*
X1618681Y1241674D1*
X1623434Y1246427D1*
X1632996Y1248859D1*
X1644990D1*
X1656928Y1246427D1*
X1664113Y1241674D1*
X1666489Y1234489D1*
Y1229736D1*
X1664113Y1222551D1*
X1659304Y1220174D1*
X2077681Y1102006D2*
Y1123506D1*
X2075249Y1130691D1*
X2072873Y1133123D1*
X2068120Y1135499D1*
X2063311D1*
X2058558Y1133123D1*
X2056126Y1130691D1*
X2053749Y1123506D1*
Y1102006D1*
X2103989D1*
X2077681Y1118753D2*
X2103989Y1135499D1*
X2063366Y1150939D2*
X2060934Y1155747D1*
X2053805Y1162932D1*
X2103989D1*
X2065743Y1180803D2*
X2063366D1*
X2058558Y1183180D1*
X2056181Y1185556D1*
X2053805Y1190365D1*
Y1199926D1*
X2056181Y1204680D1*
X2058558Y1207056D1*
X2063366Y1209488D1*
X2068119D1*
X2072928Y1207056D1*
X2080058Y1202303D1*
X2103989Y1178371D1*
Y1211865D1*
Y1236865D2*
X2053805Y1260797D1*
Y1227304D1*
X1595777Y930817D2*
X1634024D1*
X1641209Y928440D1*
X1643585Y926009D1*
X1646017Y921255D1*
Y916447D1*
X1643585Y911694D1*
X1641208Y909317D1*
X1634023Y906885D1*
X1629270D1*
X1605394Y946256D2*
X1602962Y951065D1*
X1595832Y958250D1*
X1646017D1*
X1595832Y988059D2*
X1598209Y980874D1*
X1605394Y976066D1*
X1617332Y973689D1*
X1624517D1*
X1636455Y976065D1*
X1643640Y980874D1*
X1646017Y988059D1*
Y992812D1*
X1643640Y999997D1*
X1636455Y1004750D1*
X1624517Y1007182D1*
X1617332D1*
X1605394Y1004750D1*
X1598209Y999997D1*
X1595832Y992812D1*
Y988059D1*
X1605394Y1004750D2*
X1636455Y976065D1*
X1595832Y1027430D2*
Y1053683D1*
X1614955Y1039368D1*
Y1046553D1*
X1617332Y1051306D1*
X1619709Y1053683D1*
X1626894Y1056115D1*
X1631647D1*
X1638832Y1053683D1*
X1643640Y1048930D1*
X1646017Y1041745D1*
Y1034560D1*
X1643640Y1027430D1*
X1641209Y1025053D1*
X1636455Y1022621D1*
X2033277Y929629D2*
X2071524D1*
X2078709Y927252D1*
X2081085Y924820D1*
X2083517Y920067D1*
Y915259D1*
X2081085Y910505D1*
X2078708Y908129D1*
X2071523Y905697D1*
X2066770D1*
X2042894Y945068D2*
X2040462Y949876D1*
X2033332Y957061D1*
X2083517D1*
X2033332Y986871D2*
X2035709Y979686D1*
X2042894Y974877D1*
X2054832Y972501D1*
X2062017D1*
X2073955Y974877D1*
X2081140Y979686D1*
X2083517Y986871D1*
Y991624D1*
X2081140Y998809D1*
X2073955Y1003562D1*
X2062017Y1005994D1*
X2054832D1*
X2042894Y1003562D1*
X2035709Y998809D1*
X2033332Y991624D1*
Y986871D1*
X2042894Y1003562D2*
X2073955Y974877D1*
X2083517Y1045365D2*
X2033332D1*
X2066770Y1021433D1*
Y1057303D1*
X1170777Y930817D2*
X1209024D1*
X1216209Y928440D1*
X1218585Y926009D1*
X1221017Y921255D1*
Y916447D1*
X1218585Y911694D1*
X1216208Y909317D1*
X1209023Y906885D1*
X1204270D1*
X1180394Y946256D2*
X1177962Y951065D1*
X1170832Y958250D1*
X1221017D1*
X1170832Y988059D2*
X1173209Y980874D1*
X1180394Y976066D1*
X1192332Y973689D1*
X1199517D1*
X1211455Y976065D1*
X1218640Y980874D1*
X1221017Y988059D1*
Y992812D1*
X1218640Y999997D1*
X1211455Y1004750D1*
X1199517Y1007182D1*
X1192332D1*
X1180394Y1004750D1*
X1173209Y999997D1*
X1170832Y992812D1*
Y988059D1*
X1180394Y1004750D2*
X1211455Y976065D1*
X1182770Y1025053D2*
X1180394D1*
X1175585Y1027430D1*
X1173209Y1029807D1*
X1170832Y1034615D1*
Y1044177D1*
X1173209Y1048930D1*
X1175585Y1051306D1*
X1180394Y1053738D1*
X1185147D1*
X1189955Y1051306D1*
X1197085Y1046553D1*
X1221017Y1022621D1*
Y1056115D1*
X745777Y941567D2*
X784024D1*
X791209Y939190D1*
X793585Y936758D1*
X796017Y932005D1*
Y927197D1*
X793585Y922444D1*
X791208Y920067D1*
X784023Y917635D1*
X779270D1*
X755394Y957006D2*
X752962Y961815D1*
X745832Y969000D1*
X796017D1*
X745832Y998809D2*
X748209Y991624D1*
X755394Y986815D1*
X767332Y984439D1*
X774517D1*
X786455Y986815D1*
X793640Y991624D1*
X796017Y998809D1*
Y1003562D1*
X793640Y1010747D1*
X786455Y1015500D1*
X774517Y1017932D1*
X767332D1*
X755394Y1015500D1*
X748209Y1010747D1*
X745832Y1003562D1*
Y998809D1*
X755394Y1015500D2*
X786455Y986815D1*
X755394Y1033371D2*
X752962Y1038180D1*
X745832Y1045365D1*
X796017D1*
X394000Y394000D2*
D11*
X4437307D1*
Y3811323D1*
X394000D1*
Y394000D1*
M02*
