%TF.GenerationSoftware,Novarm,DipTrace,3.0.0.2*%
%TF.CreationDate,2017-04-09T13:14:58+02:00*%
%FSLAX26Y26*%
%MOIN*%
%TF.FileFunction,Drawing,Top*%
%TF.Part,Single*%
%AMOUTLINE0*
4,1,4,
0.031496,0.015748,
0.031496,-0.015748,
-0.031496,-0.015748,
-0.031496,0.015748,
0.031496,0.015748,
0*%
%AMOUTLINE3*
4,1,4,
-0.015748,0.031496,
0.015748,0.031496,
0.015748,-0.031496,
-0.015748,-0.031496,
-0.015748,0.031496,
0*%
%AMOUTLINE6*
4,1,4,
0.015748,-0.031496,
-0.015748,-0.031496,
-0.015748,0.031496,
0.015748,0.031496,
0.015748,-0.031496,
0*%
%AMOUTLINE9*5,1,4,0,0,0.108572,-135.0*%
%ADD10C,0.009843*%
%ADD11C,0.006*%
%ADD106C,0.004632*%
%ADD24R,0.059055X0.051181*%
%ADD25R,0.043307X0.03937*%
%ADD26R,0.051181X0.059055*%
%ADD27R,0.03937X0.043307*%
%ADD28R,0.043307X0.049213*%
%TA.AperFunction,ComponentPad*%
%ADD31R,0.06378X0.06378*%
%ADD32C,0.06378*%
%ADD33R,0.098425X0.098425*%
%ADD34C,0.098425*%
%ADD35R,0.059055X0.059055*%
%ADD36C,0.059055*%
%ADD37R,0.066929X0.066929*%
%ADD38C,0.066929*%
%ADD39C,0.076772*%
%ADD40R,0.076772X0.076772*%
%ADD42R,0.025591X0.041339*%
%ADD43R,0.062992X0.070866*%
%ADD44R,0.070866X0.062992*%
%ADD46R,0.108268X0.03937*%
%ADD47R,0.242126X0.218504*%
%ADD48R,0.07874X0.023622*%
%ADD49R,0.07874X0.098425*%
%ADD50R,0.066929X0.086614*%
%ADD109OUTLINE0*%
%ADD112OUTLINE3*%
%ADD115OUTLINE6*%
%TA.AperFunction,ComponentPad*%
%ADD118OUTLINE9*%
G75*
G01*
%LPD*%
X514472Y2394394D2*
D10*
X573528D1*
Y2252640D1*
X514472D1*
Y2394394D1*
D24*
X544000Y2294000D3*
Y2368803D3*
X967917Y2188685D2*
D10*
X1078154D1*
Y2149315D1*
X967917D1*
Y2188685D1*
D25*
X1056500Y2169000D3*
X989571D3*
X493606Y2773528D2*
D10*
X635360D1*
Y2714472D1*
X493606D1*
Y2773528D1*
D26*
X594000Y2744000D3*
X519197D3*
X1039472Y3272860D2*
D10*
X1098528D1*
Y3131106D1*
X1039472D1*
Y3272860D1*
D24*
X1069000Y3231500D3*
Y3156697D3*
X626972Y2397860D2*
D10*
X686028D1*
Y2256106D1*
X626972D1*
Y2397860D1*
D24*
X656500Y2356500D3*
Y2281697D3*
X972346Y2013685D2*
D10*
X1082583D1*
Y1974315D1*
X972346D1*
Y2013685D1*
D25*
X994000Y1994000D3*
X1060929D3*
X967917Y2101185D2*
D10*
X1078154D1*
Y2061815D1*
X967917D1*
Y2101185D1*
D25*
X1056500Y2081500D3*
X989571D3*
X739472Y2394394D2*
D10*
X798528D1*
Y2252640D1*
X739472D1*
Y2394394D1*
D24*
X769000Y2294000D3*
Y2368803D3*
X3211815Y3328118D2*
D10*
X3251185D1*
Y3217882D1*
X3211815D1*
Y3328118D1*
D27*
X3231500Y3239535D3*
Y3306465D3*
X3474315Y3328118D2*
D10*
X3513685D1*
Y3217882D1*
X3474315D1*
Y3328118D1*
D27*
X3494000Y3239535D3*
Y3306465D3*
X1361815Y3320083D2*
D10*
X1401185D1*
Y3209846D1*
X1361815D1*
Y3320083D1*
D27*
X1381500Y3231500D3*
Y3298429D3*
X2359846Y2538685D2*
D10*
X2470083D1*
Y2499315D1*
X2359846D1*
Y2538685D1*
D25*
X2381500Y2519000D3*
X2448429D3*
X1361815Y3178154D2*
D10*
X1401185D1*
Y3067917D1*
X1361815D1*
Y3178154D1*
D27*
X1381500Y3156500D3*
Y3089571D3*
X1249315Y2053154D2*
D10*
X1288685D1*
Y1942917D1*
X1249315D1*
Y2053154D1*
D27*
X1269000Y2031500D3*
Y1964571D3*
X1461815Y2053154D2*
D10*
X1501185D1*
Y1942917D1*
X1461815D1*
Y2053154D1*
D27*
X1481500Y2031500D3*
Y1964571D3*
X1649315Y2053154D2*
D10*
X1688685D1*
Y1942917D1*
X1649315D1*
Y2053154D1*
D27*
X1669000Y2031500D3*
Y1964571D3*
X1849315Y2053154D2*
D10*
X1888685D1*
Y1942917D1*
X1849315D1*
Y2053154D1*
D27*
X1869000Y2031500D3*
Y1964571D3*
X997346Y2606106D2*
D10*
X1040654D1*
Y2445673D1*
X997346D1*
Y2606106D1*
D28*
X1019000Y2581500D3*
Y2488980D3*
X3084846Y2931106D2*
D10*
X3128154D1*
Y2770673D1*
X3084846D1*
Y2931106D1*
D28*
X3106500Y2906500D3*
Y2813980D3*
X2158075Y2243705D2*
D10*
X2221070D1*
Y2048823D1*
X2158075D1*
Y2243705D1*
D109*
X2189571Y2198429D3*
Y2064571D3*
X1247346Y2256106D2*
D10*
X1290654D1*
Y2095673D1*
X1247346D1*
Y2256106D1*
D28*
X1269000Y2231500D3*
Y2138980D3*
X3284846Y2931106D2*
D10*
X3328154D1*
Y2770673D1*
X3284846D1*
Y2931106D1*
D28*
X3306500Y2906500D3*
Y2813980D3*
X1447346Y2256106D2*
D10*
X1490654D1*
Y2095673D1*
X1447346D1*
Y2256106D1*
D28*
X1469000Y2231500D3*
Y2138980D3*
X3140752Y2350496D2*
D10*
X3335634D1*
Y2287501D1*
X3140752D1*
Y2350496D1*
D112*
X3290358Y2319000D3*
X3156500D3*
X3484846Y2943606D2*
D10*
X3528154D1*
Y2783173D1*
X3484846D1*
Y2943606D1*
D28*
X3506500Y2919000D3*
Y2826480D3*
X1659846Y2256106D2*
D10*
X1703154D1*
Y2095673D1*
X1659846D1*
Y2256106D1*
D28*
X1681500Y2231500D3*
Y2138980D3*
X3619393Y2350497D2*
D10*
X3814276D1*
Y2287503D1*
X3619393D1*
Y2350497D1*
D112*
X3769000Y2319001D3*
X3635141D3*
X1859846Y2256106D2*
D10*
X1903154D1*
Y2095673D1*
X1859846D1*
Y2256106D1*
D28*
X1881500Y2231500D3*
Y2138980D3*
X3684846Y2943606D2*
D10*
X3728154D1*
Y2783173D1*
X3684846D1*
Y2943606D1*
D28*
X3706500Y2919000D3*
Y2826480D3*
X4098724Y1887997D2*
D10*
X4293607D1*
Y1825003D1*
X4098724D1*
Y1887997D1*
D115*
X4144000Y1856499D3*
X4277859D3*
X1121657Y3018213D2*
D10*
X2741343D1*
Y2919787D1*
X1121657D1*
Y3018213D1*
D31*
X1181500Y2969000D3*
D32*
X1281500D3*
X1381500D3*
X1481500D3*
X1581500D3*
X1681500D3*
X1781500D3*
X1881500D3*
X1981500D3*
X2081500D3*
X2181500D3*
X2281500D3*
X2381500D3*
X2481500D3*
X2581500D3*
X2681500D3*
X1121657Y2418213D2*
D10*
X2741343D1*
Y2319787D1*
X1121657D1*
Y2418213D1*
D31*
X1181500Y2369000D3*
D32*
X1281500D3*
X1381500D3*
X1481500D3*
X1581500D3*
X1681500D3*
X1781500D3*
X1881500D3*
X1981500D3*
X2081500D3*
X2181500D3*
X2281500D3*
X2381500D3*
X2481500D3*
X2581500D3*
X2681500D3*
X468803Y3740457D2*
D10*
X1082976D1*
Y3386126D1*
X468803D1*
Y3740457D1*
D33*
X590850Y3543606D3*
D34*
X787701D3*
X984551D3*
X1059354Y3740457D2*
D10*
X1673528D1*
Y3386126D1*
X1059354D1*
Y3740457D1*
D33*
X1181402Y3543606D3*
D34*
X1378252D3*
X1575102D3*
X1649906Y3740457D2*
D10*
X2264079D1*
Y3386126D1*
X1649906D1*
Y3740457D1*
D33*
X1771953Y3543606D3*
D34*
X1968803D3*
X2165654D3*
X2543606Y3740457D2*
D10*
X3157780D1*
Y3386126D1*
X2543606D1*
Y3740457D1*
D33*
X2665654Y3543606D3*
D34*
X2862504D3*
X3059354D3*
X3134157Y3740457D2*
D10*
X3748331D1*
Y3386126D1*
X3134157D1*
Y3740457D1*
D33*
X3256205Y3543606D3*
D34*
X3453055D3*
X3649906D3*
X3724709Y3740457D2*
D10*
X4338882D1*
Y3386126D1*
X3724709D1*
Y3740457D1*
D33*
X3846756Y3543606D3*
D34*
X4043606D3*
X4240457D3*
X492425Y819197D2*
D10*
X1106598D1*
Y464866D1*
X492425D1*
Y819197D1*
D33*
X984551Y661717D3*
D34*
X787701D3*
X590850D3*
X1082976Y819197D2*
D10*
X1697150D1*
Y464866D1*
X1082976D1*
Y819197D1*
D33*
X1575102Y661717D3*
D34*
X1378252D3*
X1181402D3*
X1673528Y819197D2*
D10*
X2287701D1*
Y464866D1*
X1673528D1*
Y819197D1*
D33*
X2165654Y661717D3*
D34*
X1968803D3*
X1771953D3*
X2567228Y819197D2*
D10*
X3181402D1*
Y464866D1*
X2567228D1*
Y819197D1*
D33*
X3059354Y661717D3*
D34*
X2862504D3*
X2665654D3*
X3157780Y819197D2*
D10*
X3771953D1*
Y464866D1*
X3157780D1*
Y819197D1*
D33*
X3649906Y661717D3*
D34*
X3453055D3*
X3256205D3*
X3748331Y819197D2*
D10*
X4362504D1*
Y464866D1*
X3748331D1*
Y819197D1*
D33*
X4240457Y661717D3*
D34*
X4043606D3*
X3846756D3*
X2806500Y2831500D2*
D10*
X2906500D1*
Y1831500D1*
X2806500D1*
Y2831500D1*
D35*
X2856500Y2781500D3*
D36*
Y2681500D3*
Y2581500D3*
Y2481500D3*
Y2381500D3*
Y2281500D3*
Y2181500D3*
Y2081500D3*
Y1981500D3*
Y1881500D3*
X806500Y1156500D2*
D10*
X906500D1*
Y956500D1*
X806500D1*
Y1156500D1*
D37*
X856500Y1006500D3*
D38*
Y1106500D3*
X1231500Y1156500D2*
D10*
X1331500D1*
Y956500D1*
X1231500D1*
Y1156500D1*
D37*
X1281500Y1006500D3*
D38*
Y1106500D3*
X1644000Y1156500D2*
D10*
X1744000D1*
Y956500D1*
X1644000D1*
Y1156500D1*
D37*
X1694000Y1006500D3*
D38*
Y1106500D3*
X2056500Y1169000D2*
D10*
X2156500D1*
Y969000D1*
X2056500D1*
Y1169000D1*
D37*
X2106500Y1019000D3*
D38*
Y1119000D3*
X2311610Y2227337D2*
D10*
X2701374D1*
Y1113164D1*
X2311610D1*
Y2227337D1*
D39*
X2656492Y2156471D3*
D40*
X2356492D3*
D39*
X2656492Y1412377D3*
X2356492Y1286392D3*
X2656492Y1160408D3*
X3036610Y2239837D2*
D10*
X3426374D1*
Y1125664D1*
X3036610D1*
Y2239837D1*
D39*
X3381492Y2168971D3*
D40*
X3081492D3*
D39*
X3381492Y1424877D3*
X3081492Y1298892D3*
X3381492Y1172908D3*
X3511610Y2227337D2*
D10*
X3901374D1*
Y1113164D1*
X3511610D1*
Y2227337D1*
D39*
X3856492Y2156471D3*
D118*
X3556492D3*
D39*
X3856492Y1412377D3*
X3556492Y1286392D3*
X3856492Y1160408D3*
X3999126Y3087336D2*
D10*
X4388890D1*
Y1973163D1*
X3999126D1*
Y3087336D1*
D39*
X4044008Y2044029D3*
D40*
X4344008D3*
D39*
X4044008Y2788123D3*
X4344008Y2914108D3*
X4044008Y3040092D3*
X3047543Y2541420D2*
D10*
X3182551D1*
Y2407780D1*
X3047543D1*
Y2541420D1*
D42*
X3144000Y2519000D3*
X3069197D3*
X3106598Y2428449D3*
X3385043Y2541420D2*
D10*
X3520051D1*
Y2407780D1*
X3385043D1*
Y2541420D1*
D42*
X3481500Y2519000D3*
X3406697D3*
X3444098Y2428449D3*
X3547543Y2541420D2*
D10*
X3682551D1*
Y2407780D1*
X3547543D1*
Y2541420D1*
D42*
X3644000Y2519000D3*
X3569197D3*
X3606598Y2428449D3*
X3222543Y2541420D2*
D10*
X3357551D1*
Y2407780D1*
X3222543D1*
Y2541420D1*
D42*
X3319000Y2519000D3*
X3244197D3*
X3281598Y2428449D3*
X999315Y2803154D2*
D10*
X1038685D1*
Y2692917D1*
X999315D1*
Y2803154D1*
D27*
X1019000Y2781500D3*
Y2714571D3*
X1861815Y2840654D2*
D10*
X1901185D1*
Y2730417D1*
X1861815D1*
Y2840654D1*
D27*
X1881500Y2819000D3*
Y2752071D3*
X3299315Y3328118D2*
D10*
X3338685D1*
Y3217882D1*
X3299315D1*
Y3328118D1*
D27*
X3319000Y3239535D3*
Y3306465D3*
X3386815Y3328118D2*
D10*
X3426185D1*
Y3217882D1*
X3386815D1*
Y3328118D1*
D27*
X3406500Y3306465D3*
Y3239535D3*
X1780417Y3313685D2*
D10*
X1890654D1*
Y3274315D1*
X1780417D1*
Y3313685D1*
D25*
X1869000Y3294000D3*
X1802071D3*
X1749315Y2857583D2*
D10*
X1788685D1*
Y2747346D1*
X1749315D1*
Y2857583D1*
D27*
X1769000Y2769000D3*
Y2835929D3*
X3649315Y3328118D2*
D10*
X3688685D1*
Y3217882D1*
X3649315D1*
Y3328118D1*
D27*
X3669000Y3239535D3*
Y3306465D3*
X3561815Y3328154D2*
D10*
X3601185D1*
Y3217917D1*
X3561815D1*
Y3328154D1*
D27*
X3581500Y3306500D3*
Y3239571D3*
X487504Y1454433D2*
D10*
X660732D1*
Y1383567D1*
X487504D1*
Y1454433D1*
D43*
X519000Y1419000D3*
X629236D3*
X708567Y1573232D2*
D10*
X779433D1*
Y1400004D1*
X708567D1*
Y1573232D1*
D44*
X744000Y1431500D3*
Y1541736D3*
X1149315Y2057583D2*
D10*
X1188685D1*
Y1947346D1*
X1149315D1*
Y2057583D1*
D27*
X1169000Y1969000D3*
Y2035929D3*
X2999315Y2928154D2*
D10*
X3038685D1*
Y2817917D1*
X2999315D1*
Y2928154D1*
D27*
X3019000Y2906500D3*
Y2839571D3*
X836815Y1345083D2*
D10*
X876185D1*
Y1234846D1*
X836815D1*
Y1345083D1*
D27*
X856500Y1256500D3*
Y1323429D3*
X1149315Y2240654D2*
D10*
X1188685D1*
Y2130417D1*
X1149315D1*
Y2240654D1*
D27*
X1169000Y2219000D3*
Y2152071D3*
X3211815Y2707583D2*
D10*
X3251185D1*
Y2597346D1*
X3211815D1*
Y2707583D1*
D27*
X3231500Y2619000D3*
Y2685929D3*
X912504Y1454433D2*
D10*
X1085732D1*
Y1383567D1*
X912504D1*
Y1454433D1*
D43*
X944000Y1419000D3*
X1054236D3*
X1146067Y1573232D2*
D10*
X1216933D1*
Y1400004D1*
X1146067D1*
Y1573232D1*
D44*
X1181500Y1431500D3*
Y1541736D3*
X1349315Y2057583D2*
D10*
X1388685D1*
Y1947346D1*
X1349315D1*
Y2057583D1*
D27*
X1369000Y1969000D3*
Y2035929D3*
X1261815Y1320083D2*
D10*
X1301185D1*
Y1209846D1*
X1261815D1*
Y1320083D1*
D27*
X1281500Y1231500D3*
Y1298429D3*
X1349315Y2240654D2*
D10*
X1388685D1*
Y2130417D1*
X1349315D1*
Y2240654D1*
D27*
X1369000Y2219000D3*
Y2152071D3*
X3186815Y2928154D2*
D10*
X3226185D1*
Y2817917D1*
X3186815D1*
Y2928154D1*
D27*
X3206500Y2906500D3*
Y2839571D3*
X3474315Y2707583D2*
D10*
X3513685D1*
Y2597346D1*
X3474315D1*
Y2707583D1*
D27*
X3494000Y2619000D3*
Y2685929D3*
X1337504Y1454433D2*
D10*
X1510732D1*
Y1383567D1*
X1337504D1*
Y1454433D1*
D43*
X1369000Y1419000D3*
X1479236D3*
X1558567Y1560732D2*
D10*
X1629433D1*
Y1387504D1*
X1558567D1*
Y1560732D1*
D44*
X1594000Y1419000D3*
Y1529236D3*
X1561815Y2045083D2*
D10*
X1601185D1*
Y1934846D1*
X1561815D1*
Y2045083D1*
D27*
X1581500Y1956500D3*
Y2023429D3*
X1674315Y1345083D2*
D10*
X1713685D1*
Y1234846D1*
X1674315D1*
Y1345083D1*
D27*
X1694000Y1256500D3*
Y1323429D3*
X1561815Y2240654D2*
D10*
X1601185D1*
Y2130417D1*
X1561815D1*
Y2240654D1*
D27*
X1581500Y2219000D3*
Y2152071D3*
X3386815Y2940654D2*
D10*
X3426185D1*
Y2830417D1*
X3386815D1*
Y2940654D1*
D27*
X3406500Y2919000D3*
Y2852071D3*
X3611815Y2715654D2*
D10*
X3651185D1*
Y2605417D1*
X3611815D1*
Y2715654D1*
D27*
X3631500Y2627071D3*
Y2694000D3*
X1750004Y1454433D2*
D10*
X1923232D1*
Y1383567D1*
X1750004D1*
Y1454433D1*
D43*
X1781500Y1419000D3*
X1891736D3*
X1971067Y1573232D2*
D10*
X2041933D1*
Y1400004D1*
X1971067D1*
Y1573232D1*
D44*
X2006500Y1431500D3*
Y1541736D3*
X1749315Y2057583D2*
D10*
X1788685D1*
Y1947346D1*
X1749315D1*
Y2057583D1*
D27*
X1769000Y1969000D3*
Y2035929D3*
X2099315Y1332583D2*
D10*
X2138685D1*
Y1222346D1*
X2099315D1*
Y1332583D1*
D27*
X2119000Y1244000D3*
Y1310929D3*
X1761815Y2228154D2*
D10*
X1801185D1*
Y2117917D1*
X1761815D1*
Y2228154D1*
D27*
X1781500Y2206500D3*
Y2139571D3*
X3586815Y2940654D2*
D10*
X3626185D1*
Y2830417D1*
X3586815D1*
Y2940654D1*
D27*
X3606500Y2919000D3*
Y2852071D3*
X3349315Y2707583D2*
D10*
X3388685D1*
Y2597346D1*
X3349315D1*
Y2707583D1*
D27*
X3369000Y2619000D3*
Y2685929D3*
X489866Y2690934D2*
D10*
X928843D1*
Y2424320D1*
X489866D1*
Y2690934D1*
D46*
X544000Y2644000D3*
Y2464472D3*
D47*
X807780Y2554236D3*
X489866Y2228434D2*
D10*
X928843D1*
Y1961820D1*
X489866D1*
Y2228434D1*
D46*
X544000Y2181500D3*
Y2001972D3*
D47*
X807780Y2091736D3*
X2792130Y3279927D2*
D10*
X3083469D1*
Y3083073D1*
X2792130D1*
Y3279927D1*
D48*
X2831500Y3256500D3*
Y3206500D3*
Y3156500D3*
Y3106500D3*
X3044098D3*
Y3156500D3*
Y3206500D3*
Y3256500D3*
X1442031Y3317427D2*
D10*
X1733370D1*
Y3120573D1*
X1442031D1*
Y3317427D1*
D48*
X1694000Y3144000D3*
Y3194000D3*
Y3244000D3*
Y3294000D3*
X1481402D3*
Y3244000D3*
Y3194000D3*
Y3144000D3*
X1185043Y3316420D2*
D10*
X1320051D1*
Y3182780D1*
X1185043D1*
Y3316420D1*
D42*
X1281500Y3294000D3*
X1206697D3*
X1244098Y3203449D3*
X494000Y3305713D2*
D10*
X794000D1*
Y2807287D1*
X494000D1*
Y3305713D1*
D49*
X744000Y2856500D3*
X544000D3*
X744000Y3256500D3*
X544000D3*
X494000Y1355713D2*
D10*
X794000D1*
Y857287D1*
X494000D1*
Y1355713D1*
D49*
X544000Y1306500D3*
X744000D3*
X544000Y906500D3*
X744000D3*
X919000Y1355713D2*
D10*
X1219000D1*
Y857287D1*
X919000D1*
Y1355713D1*
D49*
X969000Y1306500D3*
X1169000D3*
X969000Y906500D3*
X1169000D3*
X1331500Y1355713D2*
D10*
X1631500D1*
Y857287D1*
X1331500D1*
Y1355713D1*
D49*
X1381500Y1306500D3*
X1581500D3*
X1381500Y906500D3*
X1581500D3*
X1744000Y1355713D2*
D10*
X2044000D1*
Y857287D1*
X1744000D1*
Y1355713D1*
D49*
X1794000Y1306500D3*
X1994000D3*
X1794000Y906500D3*
X1994000D3*
X478449Y1909453D2*
D10*
X659551D1*
Y1488193D1*
X478449D1*
Y1909453D1*
D50*
X519000Y1531500D3*
X619000D3*
Y1866146D3*
X519000D3*
X903449Y1909453D2*
D10*
X1084551D1*
Y1488193D1*
X903449D1*
Y1909453D1*
D50*
X944000Y1531500D3*
X1044000D3*
Y1866146D3*
X944000D3*
X1328449Y1909453D2*
D10*
X1509551D1*
Y1488193D1*
X1328449D1*
Y1909453D1*
D50*
X1369000Y1531500D3*
X1469000D3*
Y1866146D3*
X1369000D3*
X1753449Y1909453D2*
D10*
X1934551D1*
Y1488193D1*
X1753449D1*
Y1909453D1*
D50*
X1794000Y1531500D3*
X1894000D3*
Y1866146D3*
X1794000D3*
X477702Y2326048D2*
D106*
X474850Y2324622D1*
X471965Y2321737D1*
X470539Y2318885D1*
Y2313148D1*
X471965Y2310263D1*
X474850Y2307411D1*
X477702Y2305952D1*
X482013Y2304526D1*
X489209D1*
X493487Y2305952D1*
X496372Y2307411D1*
X499224Y2310263D1*
X500683Y2313148D1*
Y2318885D1*
X499224Y2321737D1*
X496372Y2324622D1*
X493487Y2326048D1*
X476309Y2335312D2*
X474850Y2338197D1*
X470572Y2342508D1*
X500683D1*
X1019117Y2225456D2*
X1017691Y2228308D1*
X1014806Y2231193D1*
X1011954Y2232619D1*
X1006217D1*
X1003332Y2231193D1*
X1000480Y2228308D1*
X999021Y2225456D1*
X997595Y2221145D1*
Y2213949D1*
X999021Y2209671D1*
X1000480Y2206786D1*
X1003332Y2203934D1*
X1006217Y2202475D1*
X1011954D1*
X1014806Y2203934D1*
X1017691Y2206786D1*
X1019117Y2209671D1*
X1029839Y2225423D2*
Y2226849D1*
X1031265Y2229734D1*
X1032691Y2231160D1*
X1035576Y2232586D1*
X1041313D1*
X1044165Y2231160D1*
X1045591Y2229734D1*
X1047050Y2226849D1*
Y2223997D1*
X1045591Y2221112D1*
X1042739Y2216834D1*
X1028380Y2202475D1*
X1048476D1*
X560564Y2810298D2*
X559138Y2813150D1*
X556253Y2816035D1*
X553401Y2817461D1*
X547664D1*
X544779Y2816035D1*
X541927Y2813150D1*
X540468Y2810298D1*
X539042Y2805987D1*
Y2798791D1*
X540468Y2794513D1*
X541927Y2791628D1*
X544779Y2788777D1*
X547664Y2787317D1*
X553401D1*
X556253Y2788777D1*
X559138Y2791628D1*
X560564Y2794513D1*
X572713Y2817428D2*
X588465D1*
X579876Y2805954D1*
X584187D1*
X587039Y2804528D1*
X588465Y2803102D1*
X589924Y2798791D1*
Y2795939D1*
X588465Y2791628D1*
X585613Y2788743D1*
X581302Y2787317D1*
X576991D1*
X572713Y2788743D1*
X571287Y2790202D1*
X569828Y2793054D1*
X1002702Y3197351D2*
X999850Y3195925D1*
X996965Y3193040D1*
X995539Y3190188D1*
Y3184451D1*
X996965Y3181566D1*
X999850Y3178714D1*
X1002702Y3177255D1*
X1007013Y3175829D1*
X1014209D1*
X1018487Y3177255D1*
X1021372Y3178714D1*
X1024224Y3181566D1*
X1025683Y3184451D1*
Y3190188D1*
X1024224Y3193040D1*
X1021372Y3195925D1*
X1018487Y3197351D1*
X1025683Y3220974D2*
X995572D1*
X1015635Y3206615D1*
Y3228137D1*
X590202Y2323064D2*
X587350Y2321638D1*
X584465Y2318753D1*
X583039Y2315901D1*
Y2310164D1*
X584465Y2307279D1*
X587350Y2304427D1*
X590202Y2302968D1*
X594513Y2301542D1*
X601709D1*
X605987Y2302968D1*
X608872Y2304427D1*
X611724Y2307279D1*
X613183Y2310164D1*
Y2315901D1*
X611724Y2318753D1*
X608872Y2321638D1*
X605987Y2323064D1*
X583072Y2349539D2*
Y2335213D1*
X595972Y2333787D1*
X594546Y2335213D1*
X593087Y2339524D1*
Y2343802D1*
X594546Y2348113D1*
X597398Y2350998D1*
X601709Y2352424D1*
X604561D1*
X608872Y2350998D1*
X611757Y2348113D1*
X613183Y2343802D1*
Y2339524D1*
X611757Y2335213D1*
X610298Y2333787D1*
X607446Y2332328D1*
X1024275Y2050456D2*
X1022849Y2053308D1*
X1019964Y2056193D1*
X1017112Y2057619D1*
X1011375D1*
X1008490Y2056193D1*
X1005638Y2053308D1*
X1004179Y2050456D1*
X1002753Y2046145D1*
Y2038949D1*
X1004179Y2034671D1*
X1005638Y2031786D1*
X1008490Y2028934D1*
X1011375Y2027475D1*
X1017112D1*
X1019964Y2028934D1*
X1022849Y2031786D1*
X1024275Y2034671D1*
X1050750Y2053308D2*
X1049324Y2056160D1*
X1045013Y2057586D1*
X1042161D1*
X1037850Y2056160D1*
X1034965Y2051849D1*
X1033539Y2044686D1*
Y2037523D1*
X1034965Y2031786D1*
X1037850Y2028901D1*
X1042161Y2027475D1*
X1043587D1*
X1047865Y2028901D1*
X1050750Y2031786D1*
X1052176Y2036097D1*
Y2037523D1*
X1050750Y2041834D1*
X1047865Y2044686D1*
X1043587Y2046112D1*
X1042161D1*
X1037850Y2044686D1*
X1034965Y2041834D1*
X1033539Y2037523D1*
X1019117Y2137956D2*
X1017691Y2140808D1*
X1014806Y2143693D1*
X1011954Y2145119D1*
X1006217D1*
X1003332Y2143693D1*
X1000480Y2140808D1*
X999021Y2137956D1*
X997595Y2133645D1*
Y2126449D1*
X999021Y2122171D1*
X1000480Y2119286D1*
X1003332Y2116434D1*
X1006217Y2114975D1*
X1011954D1*
X1014806Y2116434D1*
X1017691Y2119286D1*
X1019117Y2122171D1*
X1034117Y2114975D2*
X1048476Y2145086D1*
X1028380D1*
X702702Y2319615D2*
X699850Y2318189D1*
X696965Y2315304D1*
X695539Y2312452D1*
Y2306715D1*
X696965Y2303830D1*
X699850Y2300978D1*
X702702Y2299519D1*
X707013Y2298093D1*
X714209D1*
X718487Y2299519D1*
X721372Y2300978D1*
X724224Y2303830D1*
X725683Y2306715D1*
Y2312452D1*
X724224Y2315304D1*
X721372Y2318189D1*
X718487Y2319615D1*
X695572Y2336041D2*
X696998Y2331764D1*
X699850Y2330304D1*
X702735D1*
X705587Y2331764D1*
X707046Y2334615D1*
X708472Y2340352D1*
X709898Y2344663D1*
X712783Y2347515D1*
X715635Y2348941D1*
X719946D1*
X722798Y2347515D1*
X724257Y2346089D1*
X725683Y2341778D1*
Y2336041D1*
X724257Y2331763D1*
X722798Y2330304D1*
X719946Y2328878D1*
X715635D1*
X712783Y2330304D1*
X709898Y2333189D1*
X708472Y2337467D1*
X707046Y2343204D1*
X705587Y2346089D1*
X702735Y2347515D1*
X699850D1*
X696998Y2346089D1*
X695572Y2341778D1*
Y2336041D1*
X3175044Y3269794D2*
X3172192Y3268368D1*
X3169307Y3265483D1*
X3167881Y3262631D1*
Y3256894D1*
X3169307Y3254009D1*
X3172192Y3251157D1*
X3175044Y3249698D1*
X3179355Y3248272D1*
X3186551D1*
X3190829Y3249698D1*
X3193714Y3251157D1*
X3196566Y3254009D1*
X3198025Y3256894D1*
Y3262631D1*
X3196566Y3265483D1*
X3193714Y3268368D1*
X3190829Y3269794D1*
X3177929Y3297728D2*
X3182240Y3296269D1*
X3185125Y3293417D1*
X3186551Y3289106D1*
Y3287680D1*
X3185125Y3283369D1*
X3182240Y3280517D1*
X3177929Y3279058D1*
X3176503D1*
X3172192Y3280517D1*
X3169340Y3283369D1*
X3167914Y3287680D1*
Y3289106D1*
X3169340Y3293417D1*
X3172192Y3296269D1*
X3177929Y3297728D1*
X3185125D1*
X3192288Y3296269D1*
X3196599Y3293417D1*
X3198025Y3289106D1*
Y3286254D1*
X3196599Y3281943D1*
X3193714Y3280517D1*
X3437544Y3260851D2*
X3434692Y3259426D1*
X3431807Y3256540D1*
X3430381Y3253689D1*
Y3247952D1*
X3431807Y3245067D1*
X3434692Y3242215D1*
X3437544Y3240756D1*
X3441855Y3239330D1*
X3449051D1*
X3453329Y3240756D1*
X3456214Y3242215D1*
X3459066Y3245067D1*
X3460525Y3247952D1*
Y3253689D1*
X3459066Y3256540D1*
X3456214Y3259425D1*
X3453329Y3260851D1*
X3436151Y3270115D2*
X3434692Y3273000D1*
X3430414Y3277311D1*
X3460525D1*
X3430414Y3295197D2*
X3431840Y3290886D1*
X3436151Y3288001D1*
X3443314Y3286575D1*
X3447625D1*
X3454788Y3288001D1*
X3459099Y3290886D1*
X3460525Y3295197D1*
Y3298049D1*
X3459099Y3302360D1*
X3454788Y3305211D1*
X3447625Y3306671D1*
X3443314D1*
X3436151Y3305211D1*
X3431840Y3302360D1*
X3430414Y3298049D1*
Y3295197D1*
X3436151Y3305211D2*
X3454788Y3288001D1*
X1325044Y3259266D2*
X1322192Y3257840D1*
X1319307Y3254955D1*
X1317881Y3252103D1*
Y3246366D1*
X1319307Y3243481D1*
X1322192Y3240629D1*
X1325044Y3239170D1*
X1329355Y3237744D1*
X1336551D1*
X1340829Y3239170D1*
X1343714Y3240629D1*
X1346566Y3243481D1*
X1348025Y3246366D1*
Y3252103D1*
X1346566Y3254955D1*
X1343714Y3257840D1*
X1340829Y3259266D1*
X1323651Y3268530D2*
X1322192Y3271415D1*
X1317914Y3275726D1*
X1348025D1*
X1323651Y3284989D2*
X1322192Y3287874D1*
X1317914Y3292185D1*
X1348025D1*
X2402816Y2575456D2*
X2401390Y2578308D1*
X2398505Y2581193D1*
X2395653Y2582619D1*
X2389916D1*
X2387031Y2581193D1*
X2384179Y2578308D1*
X2382720Y2575456D1*
X2381294Y2571145D1*
Y2563949D1*
X2382720Y2559671D1*
X2384179Y2556786D1*
X2387031Y2553934D1*
X2389916Y2552475D1*
X2395653D1*
X2398505Y2553934D1*
X2401390Y2556786D1*
X2402816Y2559671D1*
X2412079Y2576849D2*
X2414965Y2578308D1*
X2419276Y2582586D1*
Y2552475D1*
X2429998Y2575423D2*
Y2576849D1*
X2431424Y2579734D1*
X2432850Y2581160D1*
X2435735Y2582586D1*
X2441472D1*
X2444324Y2581160D1*
X2445750Y2579734D1*
X2447209Y2576849D1*
Y2573997D1*
X2445750Y2571112D1*
X2442898Y2566834D1*
X2428539Y2552475D1*
X2448635D1*
X1325044Y3110887D2*
X1322192Y3109461D1*
X1319307Y3106576D1*
X1317881Y3103724D1*
Y3097987D1*
X1319307Y3095102D1*
X1322192Y3092250D1*
X1325044Y3090791D1*
X1329355Y3089365D1*
X1336551D1*
X1340829Y3090791D1*
X1343714Y3092250D1*
X1346566Y3095102D1*
X1348025Y3097987D1*
Y3103724D1*
X1346566Y3106576D1*
X1343714Y3109461D1*
X1340829Y3110887D1*
X1323651Y3120150D2*
X1322192Y3123036D1*
X1317914Y3127347D1*
X1348025Y3127346D1*
X1317914Y3139495D2*
Y3155247D1*
X1329388Y3146658D1*
Y3150969D1*
X1330814Y3153821D1*
X1332240Y3155247D1*
X1336551Y3156706D1*
X1339403D1*
X1343714Y3155247D1*
X1346599Y3152395D1*
X1348025Y3148084D1*
Y3143773D1*
X1346599Y3139495D1*
X1345140Y3138069D1*
X1342288Y3136610D1*
X1212544Y1977657D2*
X1209692Y1976231D1*
X1206807Y1973346D1*
X1205381Y1970494D1*
Y1964757D1*
X1206807Y1961872D1*
X1209692Y1959020D1*
X1212544Y1957561D1*
X1216855Y1956135D1*
X1224051D1*
X1228329Y1957561D1*
X1231214Y1959020D1*
X1234066Y1961872D1*
X1235525Y1964757D1*
Y1970494D1*
X1234066Y1973346D1*
X1231214Y1976231D1*
X1228329Y1977657D1*
X1211151Y1986921D2*
X1209692Y1989806D1*
X1205414Y1994117D1*
X1235525D1*
X1205414Y2012002D2*
X1206840Y2007691D1*
X1211151Y2004806D1*
X1218314Y2003380D1*
X1222625D1*
X1229788Y2004806D1*
X1234099Y2007691D1*
X1235525Y2012002D1*
Y2014854D1*
X1234099Y2019165D1*
X1229788Y2022017D1*
X1222625Y2023476D1*
X1218314D1*
X1211151Y2022017D1*
X1206840Y2019165D1*
X1205414Y2014854D1*
Y2012002D1*
X1211151Y2022017D2*
X1229788Y2004806D1*
X1211151Y2032740D2*
X1209692Y2035625D1*
X1205414Y2039936D1*
X1235525D1*
X1425044Y1971207D2*
X1422192Y1969781D1*
X1419307Y1966896D1*
X1417881Y1964044D1*
Y1958307D1*
X1419307Y1955422D1*
X1422192Y1952570D1*
X1425044Y1951111D1*
X1429355Y1949685D1*
X1436551D1*
X1440829Y1951111D1*
X1443714Y1952570D1*
X1446566Y1955422D1*
X1448025Y1958307D1*
Y1964044D1*
X1446566Y1966896D1*
X1443714Y1969781D1*
X1440829Y1971207D1*
X1423651Y1980471D2*
X1422192Y1983356D1*
X1417914Y1987667D1*
X1448025D1*
X1417914Y2005552D2*
X1419340Y2001241D1*
X1423651Y1998356D1*
X1430814Y1996930D1*
X1435125D1*
X1442288Y1998356D1*
X1446599Y2001241D1*
X1448025Y2005552D1*
Y2008404D1*
X1446599Y2012715D1*
X1442288Y2015567D1*
X1435125Y2017026D1*
X1430814D1*
X1423651Y2015567D1*
X1419340Y2012715D1*
X1417914Y2008404D1*
Y2005552D1*
X1423651Y2015567D2*
X1442288Y1998356D1*
X1425077Y2027749D2*
X1423651D1*
X1420766Y2029175D1*
X1419340Y2030601D1*
X1417914Y2033486D1*
Y2039223D1*
X1419340Y2042075D1*
X1420766Y2043501D1*
X1423651Y2044960D1*
X1426503D1*
X1429388Y2043501D1*
X1433666Y2040649D1*
X1448025Y2026290D1*
Y2046386D1*
X1612544Y1971207D2*
X1609692Y1969781D1*
X1606807Y1966896D1*
X1605381Y1964044D1*
Y1958307D1*
X1606807Y1955422D1*
X1609692Y1952570D1*
X1612544Y1951111D1*
X1616855Y1949685D1*
X1624051D1*
X1628329Y1951111D1*
X1631214Y1952570D1*
X1634066Y1955422D1*
X1635525Y1958307D1*
Y1964044D1*
X1634066Y1966896D1*
X1631214Y1969781D1*
X1628329Y1971207D1*
X1611151Y1980471D2*
X1609692Y1983356D1*
X1605414Y1987667D1*
X1635525D1*
X1605414Y2005552D2*
X1606840Y2001241D1*
X1611151Y1998356D1*
X1618314Y1996930D1*
X1622625D1*
X1629788Y1998356D1*
X1634099Y2001241D1*
X1635525Y2005552D1*
Y2008404D1*
X1634099Y2012715D1*
X1629788Y2015567D1*
X1622625Y2017026D1*
X1618314D1*
X1611151Y2015567D1*
X1606840Y2012715D1*
X1605414Y2008404D1*
Y2005552D1*
X1611151Y2015567D2*
X1629788Y1998356D1*
X1605414Y2029175D2*
Y2044927D1*
X1616888Y2036338D1*
Y2040649D1*
X1618314Y2043501D1*
X1619740Y2044927D1*
X1624051Y2046386D1*
X1626903D1*
X1631214Y2044927D1*
X1634099Y2042075D1*
X1635525Y2037764D1*
Y2033453D1*
X1634099Y2029175D1*
X1632640Y2027749D1*
X1629788Y2026290D1*
X1812544Y1970494D2*
X1809692Y1969068D1*
X1806807Y1966183D1*
X1805381Y1963331D1*
Y1957594D1*
X1806807Y1954709D1*
X1809692Y1951857D1*
X1812544Y1950398D1*
X1816855Y1948972D1*
X1824051D1*
X1828329Y1950398D1*
X1831214Y1951857D1*
X1834066Y1954709D1*
X1835525Y1957594D1*
Y1963331D1*
X1834066Y1966183D1*
X1831214Y1969068D1*
X1828329Y1970494D1*
X1811151Y1979758D2*
X1809692Y1982643D1*
X1805414Y1986954D1*
X1835525D1*
X1805414Y2004839D2*
X1806840Y2000528D1*
X1811151Y1997643D1*
X1818314Y1996217D1*
X1822625D1*
X1829788Y1997643D1*
X1834099Y2000528D1*
X1835525Y2004839D1*
Y2007691D1*
X1834099Y2012002D1*
X1829788Y2014854D1*
X1822625Y2016313D1*
X1818314D1*
X1811151Y2014854D1*
X1806840Y2012002D1*
X1805414Y2007691D1*
Y2004839D1*
X1811151Y2014854D2*
X1829788Y1997643D1*
X1835525Y2039936D2*
X1805414D1*
X1825477Y2025577D1*
Y2047099D1*
X953413Y2507612D2*
X983557D1*
Y2517660D1*
X982098Y2521971D1*
X979246Y2524856D1*
X976361Y2526282D1*
X972083Y2527708D1*
X964887D1*
X960576Y2526282D1*
X957724Y2524856D1*
X954839Y2521971D1*
X953413Y2517660D1*
Y2507612D1*
X959183Y2536972D2*
X957724Y2539857D1*
X953446Y2544168D1*
X983557D1*
X3040913Y2809702D2*
X3071057D1*
Y2819750D1*
X3069598Y2824061D1*
X3066746Y2826947D1*
X3063861Y2828372D1*
X3059583Y2829798D1*
X3052387D1*
X3048076Y2828372D1*
X3045224Y2826947D1*
X3042339Y2824061D1*
X3040913Y2819750D1*
Y2809702D1*
X3046683Y2839062D2*
X3045224Y2841947D1*
X3040946Y2846258D1*
X3071057D1*
X3040946Y2864144D2*
X3042372Y2859833D1*
X3046683Y2856948D1*
X3053846Y2855522D1*
X3058157D1*
X3065320Y2856948D1*
X3069631Y2859833D1*
X3071057Y2864144D1*
Y2866995D1*
X3069631Y2871307D1*
X3065320Y2874158D1*
X3058157Y2875618D1*
X3053846D1*
X3046683Y2874158D1*
X3042372Y2871307D1*
X3040946Y2866996D1*
Y2864144D1*
X3046683Y2874158D2*
X3065320Y2856948D1*
X3046683Y2884881D2*
X3045224Y2887766D1*
X3040946Y2892077D1*
X3071057D1*
X2114141Y2098627D2*
X2144285D1*
Y2108674D1*
X2142826Y2112985D1*
X2139974Y2115871D1*
X2137089Y2117297D1*
X2132811Y2118722D1*
X2125615Y2118723D1*
X2121304Y2117297D1*
X2118452Y2115871D1*
X2115567Y2112986D1*
X2114141Y2108675D1*
Y2098627D1*
X2119911Y2127986D2*
X2118452Y2130871D1*
X2114174Y2135182D1*
X2144285D1*
X2114174Y2153068D2*
X2115600Y2148757D1*
X2119911Y2145872D1*
X2127074Y2144446D1*
X2131385D1*
X2138548Y2145872D1*
X2142859Y2148757D1*
X2144285Y2153068D1*
Y2155920D1*
X2142859Y2160231D1*
X2138548Y2163082D1*
X2131385Y2164542D1*
X2127074D1*
X2119911Y2163083D1*
X2115600Y2160231D1*
X2114174Y2155920D1*
Y2153068D1*
X2119911Y2163083D2*
X2138548Y2145872D1*
X2121337Y2175264D2*
X2119911D1*
X2117026Y2176690D1*
X2115600Y2178116D1*
X2114174Y2181001D1*
Y2186738D1*
X2115600Y2189590D1*
X2117026Y2191016D1*
X2119911Y2192475D1*
X2122763D1*
X2125648Y2191016D1*
X2129926Y2188164D1*
X2144285Y2173805D1*
Y2193901D1*
X1203413Y2128253D2*
X1233557D1*
Y2138300D1*
X1232098Y2142611D1*
X1229246Y2145497D1*
X1226361Y2146923D1*
X1222083Y2148348D1*
X1214887D1*
X1210576Y2146923D1*
X1207724Y2145497D1*
X1204839Y2142612D1*
X1203413Y2138301D1*
Y2128253D1*
X1209183Y2157612D2*
X1207724Y2160497D1*
X1203446Y2164808D1*
X1233557D1*
X1203446Y2182694D2*
X1204872Y2178383D1*
X1209183Y2175498D1*
X1216346Y2174072D1*
X1220657D1*
X1227820Y2175498D1*
X1232131Y2178383D1*
X1233557Y2182694D1*
Y2185546D1*
X1232131Y2189857D1*
X1227820Y2192708D1*
X1220657Y2194168D1*
X1216346D1*
X1209183Y2192709D1*
X1204872Y2189857D1*
X1203446Y2185546D1*
Y2182694D1*
X1209183Y2192709D2*
X1227820Y2175498D1*
X1203446Y2206316D2*
Y2222068D1*
X1214920Y2213479D1*
Y2217790D1*
X1216346Y2220642D1*
X1217772Y2222068D1*
X1222083Y2223527D1*
X1224935D1*
X1229246Y2222068D1*
X1232131Y2219216D1*
X1233557Y2214905D1*
Y2210594D1*
X1232131Y2206316D1*
X1230672Y2204890D1*
X1227820Y2203431D1*
X3240913Y2802540D2*
X3271057D1*
Y2812587D1*
X3269598Y2816898D1*
X3266746Y2819784D1*
X3263861Y2821210D1*
X3259583Y2822635D1*
X3252387Y2822636D1*
X3248076Y2821210D1*
X3245224Y2819784D1*
X3242339Y2816899D1*
X3240913Y2812588D1*
Y2802540D1*
X3246683Y2831899D2*
X3245224Y2834784D1*
X3240946Y2839095D1*
X3271057D1*
X3240946Y2856981D2*
X3242372Y2852670D1*
X3246683Y2849785D1*
X3253846Y2848359D1*
X3258157D1*
X3265320Y2849785D1*
X3269631Y2852670D1*
X3271057Y2856981D1*
Y2859833D1*
X3269631Y2864144D1*
X3265320Y2866996D1*
X3258157Y2868455D1*
X3253846D1*
X3246683Y2866996D1*
X3242372Y2864144D1*
X3240946Y2859833D1*
Y2856981D1*
X3246683Y2866996D2*
X3265320Y2849785D1*
X3271057Y2892077D2*
X3240946D1*
X3261009Y2877718D1*
Y2899240D1*
X1403413Y2128253D2*
X1433557D1*
Y2138300D1*
X1432098Y2142611D1*
X1429246Y2145497D1*
X1426361Y2146923D1*
X1422083Y2148348D1*
X1414887D1*
X1410576Y2146923D1*
X1407724Y2145497D1*
X1404839Y2142612D1*
X1403413Y2138301D1*
Y2128253D1*
X1409183Y2157612D2*
X1407724Y2160497D1*
X1403446Y2164808D1*
X1433557D1*
X1403446Y2182694D2*
X1404872Y2178383D1*
X1409183Y2175498D1*
X1416346Y2174072D1*
X1420657D1*
X1427820Y2175498D1*
X1432131Y2178383D1*
X1433557Y2182694D1*
Y2185546D1*
X1432131Y2189857D1*
X1427820Y2192708D1*
X1420657Y2194168D1*
X1416346D1*
X1409183Y2192709D1*
X1404872Y2189857D1*
X1403446Y2185546D1*
Y2182694D1*
X1409183Y2192709D2*
X1427820Y2175498D1*
X1403446Y2220642D2*
Y2206316D1*
X1416346Y2204890D1*
X1414920Y2206316D1*
X1413461Y2210627D1*
Y2214905D1*
X1414920Y2219216D1*
X1417772Y2222101D1*
X1422083Y2223527D1*
X1424935D1*
X1429246Y2222101D1*
X1432131Y2219216D1*
X1433557Y2214905D1*
Y2210627D1*
X1432131Y2206316D1*
X1430672Y2204890D1*
X1427820Y2203431D1*
X3191285Y2394430D2*
Y2364286D1*
X3201333D1*
X3205644Y2365745D1*
X3208529Y2368597D1*
X3209955Y2371482D1*
X3211381Y2375760D1*
Y2382956D1*
X3209955Y2387267D1*
X3208529Y2390119D1*
X3205644Y2393004D1*
X3201333Y2394430D1*
X3191285D1*
X3220645Y2388660D2*
X3223530Y2390119D1*
X3227841Y2394397D1*
Y2364286D1*
X3245726Y2394397D2*
X3241415Y2392971D1*
X3238530Y2388660D1*
X3237104Y2381497D1*
Y2377186D1*
X3238530Y2370023D1*
X3241415Y2365712D1*
X3245726Y2364286D1*
X3248578D1*
X3252889Y2365712D1*
X3255741Y2370023D1*
X3257200Y2377186D1*
Y2381497D1*
X3255741Y2388660D1*
X3252889Y2392971D1*
X3248578Y2394397D1*
X3245726D1*
X3255741Y2388660D2*
X3238530Y2370023D1*
X3283675Y2390119D2*
X3282249Y2392971D1*
X3277938Y2394397D1*
X3275086D1*
X3270775Y2392971D1*
X3267890Y2388660D1*
X3266464Y2381497D1*
Y2374334D1*
X3267890Y2368597D1*
X3270775Y2365712D1*
X3275086Y2364286D1*
X3276512D1*
X3280790Y2365712D1*
X3283675Y2368597D1*
X3285101Y2372908D1*
Y2374334D1*
X3283675Y2378645D1*
X3280790Y2381497D1*
X3276512Y2382923D1*
X3275086D1*
X3270775Y2381497D1*
X3267890Y2378645D1*
X3266464Y2374334D1*
X3440913Y2815753D2*
X3471057D1*
Y2825800D1*
X3469598Y2830111D1*
X3466746Y2832997D1*
X3463861Y2834423D1*
X3459583Y2835848D1*
X3452387D1*
X3448076Y2834423D1*
X3445224Y2832997D1*
X3442339Y2830112D1*
X3440913Y2825801D1*
Y2815753D1*
X3446683Y2845112D2*
X3445224Y2847997D1*
X3440946Y2852308D1*
X3471057D1*
X3440946Y2870194D2*
X3442372Y2865883D1*
X3446683Y2862998D1*
X3453846Y2861572D1*
X3458157D1*
X3465320Y2862998D1*
X3469631Y2865883D1*
X3471057Y2870194D1*
Y2873046D1*
X3469631Y2877357D1*
X3465320Y2880208D1*
X3458157Y2881668D1*
X3453846D1*
X3446683Y2880209D1*
X3442372Y2877357D1*
X3440946Y2873046D1*
Y2870194D1*
X3446683Y2880209D2*
X3465320Y2862998D1*
X3471057Y2896668D2*
X3440946Y2911027D1*
Y2890931D1*
X1615913Y2128269D2*
X1646057D1*
Y2138317D1*
X1644598Y2142628D1*
X1641746Y2145513D1*
X1638861Y2146939D1*
X1634583Y2148365D1*
X1627387D1*
X1623076Y2146939D1*
X1620224Y2145513D1*
X1617339Y2142628D1*
X1615913Y2138317D1*
Y2128269D1*
X1621683Y2157629D2*
X1620224Y2160514D1*
X1615946Y2164825D1*
X1646057D1*
X1615946Y2182710D2*
X1617372Y2178399D1*
X1621683Y2175514D1*
X1628846Y2174088D1*
X1633157D1*
X1640320Y2175514D1*
X1644631Y2178399D1*
X1646057Y2182710D1*
Y2185562D1*
X1644631Y2189873D1*
X1640320Y2192725D1*
X1633157Y2194184D1*
X1628846D1*
X1621683Y2192725D1*
X1617372Y2189873D1*
X1615946Y2185562D1*
Y2182710D1*
X1621683Y2192725D2*
X1640320Y2175514D1*
X1615946Y2210611D2*
X1617372Y2206333D1*
X1620224Y2204874D1*
X1623109D1*
X1625961Y2206333D1*
X1627420Y2209185D1*
X1628846Y2214922D1*
X1630272Y2219233D1*
X1633157Y2222085D1*
X1636009Y2223511D1*
X1640320D1*
X1643172Y2222085D1*
X1644631Y2220659D1*
X1646057Y2216348D1*
Y2210611D1*
X1644631Y2206333D1*
X1643172Y2204874D1*
X1640320Y2203448D1*
X1636009D1*
X1633157Y2204874D1*
X1630272Y2207759D1*
X1628846Y2212037D1*
X1627420Y2217774D1*
X1625961Y2220659D1*
X1623109Y2222085D1*
X1620224D1*
X1617372Y2220659D1*
X1615946Y2216348D1*
Y2210611D1*
X3669910Y2394431D2*
Y2364287D1*
X3679958D1*
X3684269Y2365746D1*
X3687154Y2368598D1*
X3688580Y2371483D1*
X3690006Y2375761D1*
Y2382957D1*
X3688580Y2387268D1*
X3687154Y2390120D1*
X3684269Y2393005D1*
X3679958Y2394431D1*
X3669910D1*
X3699270Y2388661D2*
X3702155Y2390120D1*
X3706466Y2394398D1*
Y2364287D1*
X3724351Y2394398D2*
X3720040Y2392972D1*
X3717155Y2388661D1*
X3715729Y2381498D1*
Y2377187D1*
X3717155Y2370024D1*
X3720040Y2365713D1*
X3724351Y2364287D1*
X3727203D1*
X3731514Y2365713D1*
X3734366Y2370024D1*
X3735825Y2377187D1*
Y2381498D1*
X3734366Y2388661D1*
X3731514Y2392972D1*
X3727203Y2394398D1*
X3724351D1*
X3734366Y2388661D2*
X3717155Y2370024D1*
X3763759Y2384383D2*
X3762300Y2380072D1*
X3759448Y2377187D1*
X3755137Y2375761D1*
X3753711D1*
X3749400Y2377187D1*
X3746548Y2380072D1*
X3745089Y2384383D1*
Y2385809D1*
X3746548Y2390120D1*
X3749400Y2392972D1*
X3753711Y2394398D1*
X3755137D1*
X3759448Y2392972D1*
X3762300Y2390120D1*
X3763759Y2384383D1*
Y2377187D1*
X3762300Y2370024D1*
X3759448Y2365713D1*
X3755137Y2364287D1*
X3752285D1*
X3747974Y2365713D1*
X3746548Y2368598D1*
X1815913Y2134702D2*
X1846057D1*
Y2144750D1*
X1844598Y2149061D1*
X1841746Y2151947D1*
X1838861Y2153372D1*
X1834583Y2154798D1*
X1827387D1*
X1823076Y2153372D1*
X1820224Y2151947D1*
X1817339Y2149061D1*
X1815913Y2144750D1*
Y2134702D1*
X1821683Y2164062D2*
X1820224Y2166947D1*
X1815946Y2171258D1*
X1846057D1*
X1821683Y2180522D2*
X1820224Y2183407D1*
X1815946Y2187718D1*
X1846057D1*
X1815946Y2205603D2*
X1817372Y2201292D1*
X1821683Y2198407D1*
X1828846Y2196981D1*
X1833157D1*
X1840320Y2198407D1*
X1844631Y2201292D1*
X1846057Y2205603D1*
Y2208455D1*
X1844631Y2212766D1*
X1840320Y2215618D1*
X1833157Y2217077D1*
X1828846D1*
X1821683Y2215618D1*
X1817372Y2212766D1*
X1815946Y2208455D1*
Y2205603D1*
X1821683Y2215618D2*
X1840320Y2198407D1*
X3640913Y2828652D2*
X3671057D1*
Y2838700D1*
X3669598Y2843011D1*
X3666746Y2845896D1*
X3663861Y2847322D1*
X3659583Y2848748D1*
X3652387D1*
X3648076Y2847322D1*
X3645224Y2845897D1*
X3642339Y2843011D1*
X3640913Y2838700D1*
Y2828652D1*
X3646683Y2858012D2*
X3645224Y2860897D1*
X3640946Y2865208D1*
X3671057D1*
X3646683Y2874472D2*
X3645224Y2877357D1*
X3640946Y2881668D1*
X3671057D1*
X3646683Y2890931D2*
X3645224Y2893816D1*
X3640946Y2898127D1*
X3671057D1*
X4154978Y1931931D2*
Y1901787D1*
X4165026D1*
X4169337Y1903246D1*
X4172222Y1906098D1*
X4173648Y1908983D1*
X4175074Y1913261D1*
Y1920457D1*
X4173648Y1924768D1*
X4172222Y1927620D1*
X4169337Y1930505D1*
X4165026Y1931931D1*
X4154978D1*
X4184337Y1926161D2*
X4187223Y1927620D1*
X4191534Y1931898D1*
Y1901787D1*
X4200797Y1926161D2*
X4203682Y1927620D1*
X4207993Y1931898D1*
Y1901787D1*
X4218716Y1924735D2*
Y1926161D1*
X4220142Y1929046D1*
X4221568Y1930472D1*
X4224453Y1931898D1*
X4230190D1*
X4233042Y1930472D1*
X4234468Y1929046D1*
X4235927Y1926161D1*
Y1923309D1*
X4234468Y1920424D1*
X4231616Y1916146D1*
X4217257Y1901787D1*
X4237353D1*
X1930450Y3062146D2*
Y3039199D1*
X1929024Y3034888D1*
X1927565Y3033462D1*
X1924713Y3032002D1*
X1921828D1*
X1918976Y3033462D1*
X1917550Y3034888D1*
X1916091Y3039199D1*
Y3042050D1*
X1939713Y3056376D2*
X1942598Y3057835D1*
X1946909Y3062113D1*
Y3032002D1*
X1924000Y2462146D2*
Y2439199D1*
X1922574Y2434888D1*
X1921115Y2433462D1*
X1918263Y2432002D1*
X1915378D1*
X1912526Y2433462D1*
X1911100Y2434888D1*
X1909641Y2439199D1*
Y2442050D1*
X1934722Y2454950D2*
Y2456376D1*
X1936148Y2459261D1*
X1937574Y2460687D1*
X1940459Y2462113D1*
X1946196D1*
X1949048Y2460687D1*
X1950474Y2459261D1*
X1951933Y2456376D1*
Y2453524D1*
X1950474Y2450639D1*
X1947622Y2446361D1*
X1933263Y2432002D1*
X1953359D1*
X768390Y3784391D2*
Y3761443D1*
X766964Y3757132D1*
X765504Y3755706D1*
X762653Y3754247D1*
X759767D1*
X756916Y3755706D1*
X755490Y3757132D1*
X754030Y3761443D1*
Y3764295D1*
X780538Y3784357D2*
X796290D1*
X787701Y3772883D1*
X792012D1*
X794864Y3771457D1*
X796290Y3770032D1*
X797749Y3765720D1*
Y3762869D1*
X796290Y3758558D1*
X793438Y3755672D1*
X789127Y3754247D1*
X784816D1*
X780538Y3755672D1*
X779112Y3757132D1*
X777653Y3759984D1*
X1358228Y3784391D2*
Y3761443D1*
X1356802Y3757132D1*
X1355343Y3755706D1*
X1352491Y3754247D1*
X1349606D1*
X1346754Y3755706D1*
X1345328Y3757132D1*
X1343869Y3761443D1*
Y3764295D1*
X1381850Y3754247D2*
Y3784357D1*
X1367491Y3764295D1*
X1389013D1*
X1949492Y3784391D2*
Y3761443D1*
X1948066Y3757132D1*
X1946607Y3755706D1*
X1943755Y3754247D1*
X1940870D1*
X1938018Y3755706D1*
X1936592Y3757132D1*
X1935133Y3761443D1*
Y3764295D1*
X1975966Y3784357D2*
X1961640D1*
X1960215Y3771457D1*
X1961640Y3772883D1*
X1965952Y3774343D1*
X1970229D1*
X1974540Y3772883D1*
X1977425Y3770032D1*
X1978851Y3765720D1*
Y3762869D1*
X1977425Y3758558D1*
X1974540Y3755672D1*
X1970229Y3754247D1*
X1965952D1*
X1961640Y3755672D1*
X1960215Y3757132D1*
X1958755Y3759984D1*
X2843922Y3784391D2*
Y3761443D1*
X2842496Y3757132D1*
X2841037Y3755706D1*
X2838185Y3754247D1*
X2835300D1*
X2832448Y3755706D1*
X2831022Y3757132D1*
X2829563Y3761443D1*
Y3764295D1*
X2870397Y3780080D2*
X2868971Y3782931D1*
X2864660Y3784357D1*
X2861808D1*
X2857497Y3782931D1*
X2854612Y3778620D1*
X2853186Y3771457D1*
Y3764295D1*
X2854612Y3758558D1*
X2857497Y3755672D1*
X2861808Y3754247D1*
X2863234D1*
X2867512Y3755672D1*
X2870397Y3758558D1*
X2871823Y3762869D1*
Y3764295D1*
X2870397Y3768606D1*
X2867512Y3771457D1*
X2863234Y3772883D1*
X2861808D1*
X2857497Y3771457D1*
X2854612Y3768606D1*
X2853186Y3764295D1*
X3433744Y3784391D2*
Y3761443D1*
X3432318Y3757132D1*
X3430859Y3755706D1*
X3428007Y3754247D1*
X3425122D1*
X3422270Y3755706D1*
X3420844Y3757132D1*
X3419385Y3761443D1*
Y3764295D1*
X3448744Y3754247D2*
X3463103Y3784357D1*
X3443007D1*
X4024312Y3784391D2*
Y3761443D1*
X4022886Y3757132D1*
X4021427Y3755706D1*
X4018575Y3754247D1*
X4015690D1*
X4012838Y3755706D1*
X4011412Y3757132D1*
X4009953Y3761443D1*
Y3764295D1*
X4040738Y3784357D2*
X4036460Y3782931D1*
X4035001Y3780080D1*
Y3777194D1*
X4036460Y3774343D1*
X4039312Y3772883D1*
X4045049Y3771457D1*
X4049360Y3770032D1*
X4052212Y3767146D1*
X4053638Y3764295D1*
Y3759984D1*
X4052212Y3757132D1*
X4050786Y3755672D1*
X4046475Y3754247D1*
X4040738D1*
X4036460Y3755672D1*
X4035001Y3757132D1*
X4033575Y3759984D1*
Y3764295D1*
X4035001Y3767146D1*
X4037886Y3770032D1*
X4042164Y3771457D1*
X4047901Y3772883D1*
X4050786Y3774343D1*
X4052212Y3777194D1*
Y3780080D1*
X4050786Y3782931D1*
X4046475Y3784357D1*
X4040738D1*
X792725Y863131D2*
Y840183D1*
X791299Y835872D1*
X789839Y834446D1*
X786988Y832987D1*
X784102D1*
X781251Y834446D1*
X779825Y835872D1*
X778366Y840183D1*
Y843035D1*
X820658Y853083D2*
X819199Y848772D1*
X816347Y845887D1*
X812036Y844461D1*
X810610D1*
X806299Y845887D1*
X803447Y848772D1*
X801988Y853083D1*
Y854509D1*
X803447Y858820D1*
X806299Y861672D1*
X810610Y863098D1*
X812036D1*
X816347Y861672D1*
X819199Y858820D1*
X820658Y853083D1*
Y845887D1*
X819199Y838724D1*
X816347Y834413D1*
X812036Y832987D1*
X809184D1*
X804873Y834413D1*
X803447Y837298D1*
X1374333Y863131D2*
Y840183D1*
X1372907Y835872D1*
X1371448Y834446D1*
X1368596Y832987D1*
X1365711D1*
X1362859Y834446D1*
X1361433Y835872D1*
X1359974Y840183D1*
Y843035D1*
X1383596Y857361D2*
X1386482Y858820D1*
X1390793Y863098D1*
Y832987D1*
X1408678Y863098D2*
X1404367Y861672D1*
X1401482Y857361D1*
X1400056Y850198D1*
Y845887D1*
X1401482Y838724D1*
X1404367Y834413D1*
X1408678Y832987D1*
X1411530D1*
X1415841Y834413D1*
X1418693Y838724D1*
X1420152Y845887D1*
Y850198D1*
X1418693Y857361D1*
X1415841Y861672D1*
X1411530Y863098D1*
X1408678D1*
X1418693Y857361D2*
X1401482Y838724D1*
X1971334Y863131D2*
Y840183D1*
X1969908Y835872D1*
X1968449Y834446D1*
X1965597Y832987D1*
X1962712D1*
X1959860Y834446D1*
X1958434Y835872D1*
X1956975Y840183D1*
Y843035D1*
X1980598Y857361D2*
X1983483Y858820D1*
X1987794Y863098D1*
Y832987D1*
X1997057Y857361D2*
X1999942Y858820D1*
X2004253Y863098D1*
Y832987D1*
X2858585Y863131D2*
Y840183D1*
X2857159Y835872D1*
X2855700Y834446D1*
X2852848Y832987D1*
X2849963D1*
X2847111Y834446D1*
X2845685Y835872D1*
X2844226Y840183D1*
Y843035D1*
X2867848Y857361D2*
X2870733Y858820D1*
X2875045Y863098D1*
Y832987D1*
X2885767Y855935D2*
Y857361D1*
X2887193Y860246D1*
X2888619Y861672D1*
X2891504Y863098D1*
X2897241D1*
X2900093Y861672D1*
X2901519Y860246D1*
X2902978Y857361D1*
Y854509D1*
X2901519Y851624D1*
X2898667Y847346D1*
X2884308Y832987D1*
X2904404D1*
X3449136Y863131D2*
Y840183D1*
X3447710Y835872D1*
X3446251Y834446D1*
X3443399Y832987D1*
X3440514D1*
X3437662Y834446D1*
X3436236Y835872D1*
X3434777Y840183D1*
Y843035D1*
X3458400Y857361D2*
X3461285Y858820D1*
X3465596Y863098D1*
Y832987D1*
X3477744Y863098D2*
X3493496D1*
X3484907Y851624D1*
X3489218D1*
X3492070Y850198D1*
X3493496Y848772D1*
X3494955Y844461D1*
Y841609D1*
X3493496Y837298D1*
X3490644Y834413D1*
X3486333Y832987D1*
X3482022D1*
X3477744Y834413D1*
X3476318Y835872D1*
X3474859Y838724D1*
X4038974Y863131D2*
Y840183D1*
X4037548Y835872D1*
X4036089Y834446D1*
X4033237Y832987D1*
X4030352D1*
X4027500Y834446D1*
X4026074Y835872D1*
X4024615Y840183D1*
Y843035D1*
X4048238Y857361D2*
X4051123Y858820D1*
X4055434Y863098D1*
Y832987D1*
X4079056D2*
Y863098D1*
X4064697Y843035D1*
X4086219D1*
X2840770Y2875434D2*
Y2852486D1*
X2839344Y2848175D1*
X2837885Y2846749D1*
X2835033Y2845290D1*
X2832148D1*
X2829296Y2846749D1*
X2827870Y2848175D1*
X2826411Y2852486D1*
Y2855338D1*
X2850033Y2869664D2*
X2852919Y2871123D1*
X2857230Y2875401D1*
Y2845290D1*
X2883704Y2875401D2*
X2869378D1*
X2867952Y2862501D1*
X2869378Y2863927D1*
X2873689Y2865386D1*
X2877967D1*
X2882278Y2863927D1*
X2885163Y2861075D1*
X2886589Y2856764D1*
Y2853912D1*
X2885163Y2849601D1*
X2882278Y2846716D1*
X2877967Y2845290D1*
X2873689D1*
X2869378Y2846716D1*
X2867952Y2848175D1*
X2866493Y2851027D1*
X762566Y1032540D2*
X785514D1*
X789825Y1031114D1*
X791251Y1029655D1*
X792710Y1026803D1*
Y1023918D1*
X791251Y1021066D1*
X789825Y1019640D1*
X785514Y1018181D1*
X782662D1*
X768336Y1041804D2*
X766877Y1044689D1*
X762599Y1049000D1*
X792710D1*
X762599Y1066885D2*
X764025Y1062574D1*
X768336Y1059689D1*
X775499Y1058263D1*
X779810D1*
X786973Y1059689D1*
X791284Y1062574D1*
X792710Y1066885D1*
Y1069737D1*
X791284Y1074048D1*
X786973Y1076900D1*
X779810Y1078359D1*
X775499D1*
X768336Y1076900D1*
X764025Y1074048D1*
X762599Y1069737D1*
Y1066885D1*
X768336Y1076900D2*
X786973Y1059689D1*
X768336Y1087623D2*
X766877Y1090508D1*
X762599Y1094819D1*
X792710D1*
X1187566Y1026090D2*
X1210514D1*
X1214825Y1024664D1*
X1216251Y1023205D1*
X1217710Y1020353D1*
Y1017468D1*
X1216251Y1014616D1*
X1214825Y1013190D1*
X1210514Y1011731D1*
X1207662D1*
X1193336Y1035354D2*
X1191877Y1038239D1*
X1187599Y1042550D1*
X1217710D1*
X1187599Y1060435D2*
X1189025Y1056124D1*
X1193336Y1053239D1*
X1200499Y1051813D1*
X1204810D1*
X1211973Y1053239D1*
X1216284Y1056124D1*
X1217710Y1060435D1*
Y1063287D1*
X1216284Y1067598D1*
X1211973Y1070450D1*
X1204810Y1071909D1*
X1200499D1*
X1193336Y1070450D1*
X1189025Y1067598D1*
X1187599Y1063287D1*
Y1060435D1*
X1193336Y1070450D2*
X1211973Y1053239D1*
X1194762Y1082632D2*
X1193336D1*
X1190451Y1084058D1*
X1189025Y1085484D1*
X1187599Y1088369D1*
Y1094106D1*
X1189025Y1096958D1*
X1190451Y1098384D1*
X1193336Y1099843D1*
X1196188D1*
X1199073Y1098384D1*
X1203351Y1095532D1*
X1217710Y1081173D1*
Y1101269D1*
X1600066Y1026090D2*
X1623014D1*
X1627325Y1024664D1*
X1628751Y1023205D1*
X1630210Y1020353D1*
Y1017468D1*
X1628751Y1014616D1*
X1627325Y1013190D1*
X1623014Y1011731D1*
X1620162D1*
X1605836Y1035354D2*
X1604377Y1038239D1*
X1600099Y1042550D1*
X1630210D1*
X1600099Y1060435D2*
X1601525Y1056124D1*
X1605836Y1053239D1*
X1612999Y1051813D1*
X1617310D1*
X1624473Y1053239D1*
X1628784Y1056124D1*
X1630210Y1060435D1*
Y1063287D1*
X1628784Y1067598D1*
X1624473Y1070450D1*
X1617310Y1071909D1*
X1612999D1*
X1605836Y1070450D1*
X1601525Y1067598D1*
X1600099Y1063287D1*
Y1060435D1*
X1605836Y1070450D2*
X1624473Y1053239D1*
X1600099Y1084058D2*
Y1099810D1*
X1611573Y1091221D1*
Y1095532D1*
X1612999Y1098384D1*
X1614425Y1099810D1*
X1618736Y1101269D1*
X1621588D1*
X1625899Y1099810D1*
X1628784Y1096958D1*
X1630210Y1092647D1*
Y1088336D1*
X1628784Y1084058D1*
X1627325Y1082632D1*
X1624473Y1081173D1*
X2012566Y1037877D2*
X2035514D1*
X2039825Y1036451D1*
X2041251Y1034992D1*
X2042710Y1032140D1*
Y1029255D1*
X2041251Y1026403D1*
X2039825Y1024977D1*
X2035514Y1023518D1*
X2032662D1*
X2018336Y1047141D2*
X2016877Y1050026D1*
X2012599Y1054337D1*
X2042710D1*
X2012599Y1072222D2*
X2014025Y1067911D1*
X2018336Y1065026D1*
X2025499Y1063600D1*
X2029810D1*
X2036973Y1065026D1*
X2041284Y1067911D1*
X2042710Y1072222D1*
Y1075074D1*
X2041284Y1079385D1*
X2036973Y1082237D1*
X2029810Y1083696D1*
X2025499D1*
X2018336Y1082237D1*
X2014025Y1079385D1*
X2012599Y1075074D1*
Y1072222D1*
X2018336Y1082237D2*
X2036973Y1065026D1*
X2042710Y1107319D2*
X2012599D1*
X2032662Y1092960D1*
Y1114482D1*
X2465305Y2271271D2*
Y2241127D1*
X2485401Y2271271D2*
X2465305Y2251175D1*
X2472468Y2258371D2*
X2485401Y2241127D1*
X2494664Y2265501D2*
X2497549Y2266960D1*
X2501860Y2271238D1*
Y2241127D1*
X2519746Y2271238D2*
X2515435Y2269812D1*
X2512550Y2265501D1*
X2511124Y2258338D1*
Y2254027D1*
X2512550Y2246864D1*
X2515435Y2242553D1*
X2519746Y2241127D1*
X2522598D1*
X2526909Y2242553D1*
X2529761Y2246864D1*
X2531220Y2254027D1*
Y2258338D1*
X2529761Y2265501D1*
X2526909Y2269812D1*
X2522598Y2271238D1*
X2519746D1*
X2529761Y2265501D2*
X2512550Y2246864D1*
X2540483Y2265501D2*
X2543369Y2266960D1*
X2547680Y2271238D1*
Y2241127D1*
X3183855Y2283771D2*
Y2253627D1*
X3203951Y2283771D2*
X3183855Y2263675D1*
X3191018Y2270871D2*
X3203951Y2253627D1*
X3213214Y2278001D2*
X3216099Y2279460D1*
X3220410Y2283738D1*
Y2253627D1*
X3238296Y2283738D2*
X3233985Y2282312D1*
X3231100Y2278001D1*
X3229674Y2270838D1*
Y2266527D1*
X3231100Y2259364D1*
X3233985Y2255053D1*
X3238296Y2253627D1*
X3241148D1*
X3245459Y2255053D1*
X3248311Y2259364D1*
X3249770Y2266527D1*
Y2270838D1*
X3248311Y2278001D1*
X3245459Y2282312D1*
X3241148Y2283738D1*
X3238296D1*
X3248311Y2278001D2*
X3231100Y2259364D1*
X3260493Y2276575D2*
Y2278001D1*
X3261919Y2280886D1*
X3263345Y2282312D1*
X3266230Y2283738D1*
X3271967D1*
X3274818Y2282312D1*
X3276244Y2280886D1*
X3277704Y2278001D1*
Y2275149D1*
X3276244Y2272264D1*
X3273393Y2267986D1*
X3259033Y2253627D1*
X3279129D1*
X3658855Y2271271D2*
Y2241127D1*
X3678951Y2271271D2*
X3658855Y2251175D1*
X3666018Y2258371D2*
X3678951Y2241127D1*
X3688214Y2265501D2*
X3691099Y2266960D1*
X3695410Y2271238D1*
Y2241127D1*
X3713296Y2271238D2*
X3708985Y2269812D1*
X3706100Y2265501D1*
X3704674Y2258338D1*
Y2254027D1*
X3706100Y2246864D1*
X3708985Y2242553D1*
X3713296Y2241127D1*
X3716148D1*
X3720459Y2242553D1*
X3723311Y2246864D1*
X3724770Y2254027D1*
Y2258338D1*
X3723311Y2265501D1*
X3720459Y2269812D1*
X3716148Y2271238D1*
X3713296D1*
X3723311Y2265501D2*
X3706100Y2246864D1*
X3736919Y2271238D2*
X3752670D1*
X3744081Y2259764D1*
X3748393D1*
X3751244Y2258338D1*
X3752670Y2256912D1*
X3754129Y2252601D1*
Y2249749D1*
X3752670Y2245438D1*
X3749818Y2242553D1*
X3745507Y2241127D1*
X3741196D1*
X3736919Y2242553D1*
X3735493Y2244012D1*
X3734033Y2246864D1*
X4145658Y3131270D2*
Y3101126D1*
X4165754Y3131270D2*
X4145658Y3111174D1*
X4152820Y3118370D2*
X4165754Y3101126D1*
X4175017Y3125500D2*
X4177902Y3126959D1*
X4182213Y3131237D1*
Y3101126D1*
X4200099Y3131237D2*
X4195788Y3129811D1*
X4192903Y3125500D1*
X4191477Y3118337D1*
Y3114026D1*
X4192903Y3106863D1*
X4195788Y3102552D1*
X4200099Y3101126D1*
X4202951D1*
X4207262Y3102552D1*
X4210114Y3106863D1*
X4211573Y3114026D1*
Y3118337D1*
X4210114Y3125500D1*
X4207262Y3129811D1*
X4202951Y3131237D1*
X4200099D1*
X4210114Y3125500D2*
X4192903Y3106863D1*
X4235195Y3101126D2*
Y3131237D1*
X4220836Y3111174D1*
X4242358D1*
X3081039Y2585354D2*
X3078187Y2583961D1*
X3075302Y2581076D1*
X3073876Y2578191D1*
X3072417Y2573880D1*
Y2566717D1*
X3073876Y2562406D1*
X3075302Y2559554D1*
X3078187Y2556669D1*
X3081039Y2555243D1*
X3086776D1*
X3089661Y2556669D1*
X3092513Y2559554D1*
X3093939Y2562406D1*
X3095398Y2566717D1*
Y2573880D1*
X3093939Y2578191D1*
X3092513Y2581076D1*
X3089661Y2583961D1*
X3086776Y2585354D1*
X3081039D1*
X3085350Y2560980D2*
X3093939Y2552358D1*
X3104662Y2579584D2*
X3107547Y2581043D1*
X3111858Y2585321D1*
Y2555210D1*
X3129744Y2585321D2*
X3125433Y2583895D1*
X3122548Y2579584D1*
X3121122Y2572421D1*
Y2568110D1*
X3122548Y2560947D1*
X3125433Y2556636D1*
X3129744Y2555210D1*
X3132596D1*
X3136907Y2556636D1*
X3139758Y2560947D1*
X3141218Y2568110D1*
Y2572421D1*
X3139758Y2579584D1*
X3136907Y2583895D1*
X3132596Y2585321D1*
X3129744D1*
X3139758Y2579584D2*
X3122548Y2560947D1*
X3150481Y2579584D2*
X3153366Y2581043D1*
X3157677Y2585321D1*
Y2555210D1*
X3412089Y2585354D2*
X3409237Y2583961D1*
X3406352Y2581076D1*
X3404926Y2578191D1*
X3403467Y2573880D1*
Y2566717D1*
X3404926Y2562406D1*
X3406352Y2559554D1*
X3409237Y2556669D1*
X3412089Y2555243D1*
X3417826D1*
X3420711Y2556669D1*
X3423563Y2559554D1*
X3424989Y2562406D1*
X3426448Y2566717D1*
Y2573880D1*
X3424989Y2578191D1*
X3423563Y2581076D1*
X3420711Y2583961D1*
X3417826Y2585354D1*
X3412089D1*
X3416400Y2560980D2*
X3424989Y2552358D1*
X3435712Y2579584D2*
X3438597Y2581043D1*
X3442908Y2585321D1*
Y2555210D1*
X3460794Y2585321D2*
X3456483Y2583895D1*
X3453598Y2579584D1*
X3452172Y2572421D1*
Y2568110D1*
X3453598Y2560947D1*
X3456483Y2556636D1*
X3460794Y2555210D1*
X3463646D1*
X3467957Y2556636D1*
X3470808Y2560947D1*
X3472268Y2568110D1*
Y2572421D1*
X3470808Y2579584D1*
X3467957Y2583895D1*
X3463646Y2585321D1*
X3460794D1*
X3470808Y2579584D2*
X3453598Y2560947D1*
X3482990Y2578158D2*
Y2579584D1*
X3484416Y2582469D1*
X3485842Y2583895D1*
X3488727Y2585321D1*
X3494464D1*
X3497316Y2583895D1*
X3498742Y2582469D1*
X3500201Y2579584D1*
Y2576732D1*
X3498742Y2573847D1*
X3495890Y2569569D1*
X3481531Y2555210D1*
X3501627D1*
X3574589Y2585354D2*
X3571737Y2583961D1*
X3568852Y2581076D1*
X3567426Y2578191D1*
X3565967Y2573880D1*
Y2566717D1*
X3567426Y2562406D1*
X3568852Y2559554D1*
X3571737Y2556669D1*
X3574589Y2555243D1*
X3580326D1*
X3583211Y2556669D1*
X3586063Y2559554D1*
X3587489Y2562406D1*
X3588948Y2566717D1*
Y2573880D1*
X3587489Y2578191D1*
X3586063Y2581076D1*
X3583211Y2583961D1*
X3580326Y2585354D1*
X3574589D1*
X3578900Y2560980D2*
X3587489Y2552358D1*
X3598212Y2579584D2*
X3601097Y2581043D1*
X3605408Y2585321D1*
Y2555210D1*
X3623294Y2585321D2*
X3618983Y2583895D1*
X3616098Y2579584D1*
X3614672Y2572421D1*
Y2568110D1*
X3616098Y2560947D1*
X3618983Y2556636D1*
X3623294Y2555210D1*
X3626146D1*
X3630457Y2556636D1*
X3633308Y2560947D1*
X3634768Y2568110D1*
Y2572421D1*
X3633308Y2579584D1*
X3630457Y2583895D1*
X3626146Y2585321D1*
X3623294D1*
X3633308Y2579584D2*
X3616098Y2560947D1*
X3646916Y2585321D2*
X3662668D1*
X3654079Y2573847D1*
X3658390D1*
X3661242Y2572421D1*
X3662668Y2570995D1*
X3664127Y2566684D1*
Y2563832D1*
X3662668Y2559521D1*
X3659816Y2556636D1*
X3655505Y2555210D1*
X3651194D1*
X3646916Y2556636D1*
X3645490Y2558095D1*
X3644031Y2560947D1*
X3248876Y2585354D2*
X3246024Y2583961D1*
X3243139Y2581076D1*
X3241713Y2578191D1*
X3240254Y2573880D1*
Y2566717D1*
X3241713Y2562406D1*
X3243139Y2559554D1*
X3246024Y2556669D1*
X3248876Y2555243D1*
X3254613D1*
X3257498Y2556669D1*
X3260350Y2559554D1*
X3261776Y2562406D1*
X3263235Y2566717D1*
Y2573880D1*
X3261776Y2578191D1*
X3260350Y2581076D1*
X3257498Y2583961D1*
X3254613Y2585354D1*
X3248876D1*
X3253187Y2560980D2*
X3261776Y2552358D1*
X3272499Y2579584D2*
X3275384Y2581043D1*
X3279695Y2585321D1*
Y2555210D1*
X3297581Y2585321D2*
X3293270Y2583895D1*
X3290385Y2579584D1*
X3288959Y2572421D1*
Y2568110D1*
X3290385Y2560947D1*
X3293270Y2556636D1*
X3297581Y2555210D1*
X3300433D1*
X3304744Y2556636D1*
X3307596Y2560947D1*
X3309055Y2568110D1*
Y2572421D1*
X3307596Y2579584D1*
X3304744Y2583895D1*
X3300433Y2585321D1*
X3297581D1*
X3307596Y2579584D2*
X3290385Y2560947D1*
X3332677Y2555210D2*
Y2585321D1*
X3318318Y2565258D1*
X3339840D1*
X969740Y2729758D2*
Y2742658D1*
X968281Y2746969D1*
X966855Y2748428D1*
X964003Y2749854D1*
X961118D1*
X958266Y2748428D1*
X956807Y2746969D1*
X955381Y2742658D1*
Y2729758D1*
X985525D1*
X969740Y2739806D2*
X985525Y2749854D1*
X961151Y2759117D2*
X959692Y2762002D1*
X955414Y2766313D1*
X985525D1*
X1832240Y2760808D2*
Y2773708D1*
X1830781Y2778019D1*
X1829355Y2779478D1*
X1826503Y2780904D1*
X1823618D1*
X1820766Y2779478D1*
X1819307Y2778019D1*
X1817881Y2773708D1*
Y2760808D1*
X1848025D1*
X1832240Y2770856D2*
X1848025Y2780904D1*
X1825077Y2791626D2*
X1823651D1*
X1820766Y2793052D1*
X1819340Y2794478D1*
X1817914Y2797363D1*
Y2803100D1*
X1819340Y2805952D1*
X1820766Y2807378D1*
X1823651Y2808837D1*
X1826503D1*
X1829388Y2807378D1*
X1833666Y2804526D1*
X1848025Y2790167D1*
Y2810263D1*
X3269740Y3248272D2*
Y3261172D1*
X3268281Y3265483D1*
X3266855Y3266942D1*
X3264003Y3268368D1*
X3261118D1*
X3258266Y3266942D1*
X3256807Y3265483D1*
X3255381Y3261172D1*
Y3248272D1*
X3285525D1*
X3269740Y3258320D2*
X3285525Y3268368D1*
X3255414Y3280517D2*
Y3296269D1*
X3266888Y3287680D1*
Y3291991D1*
X3268314Y3294843D1*
X3269740Y3296269D1*
X3274051Y3297728D1*
X3276903D1*
X3281214Y3296269D1*
X3284099Y3293417D1*
X3285525Y3289106D1*
Y3284795D1*
X3284099Y3280517D1*
X3282640Y3279091D1*
X3279788Y3277632D1*
X3357240Y3247559D2*
Y3260459D1*
X3355781Y3264770D1*
X3354355Y3266229D1*
X3351503Y3267655D1*
X3348618D1*
X3345766Y3266229D1*
X3344307Y3264770D1*
X3342881Y3260459D1*
Y3247559D1*
X3373025D1*
X3357240Y3257607D2*
X3373025Y3267655D1*
Y3291278D2*
X3342914D1*
X3362977Y3276919D1*
Y3298441D1*
X1810808Y3343260D2*
X1823708D1*
X1828019Y3344719D1*
X1829478Y3346145D1*
X1830904Y3348997D1*
Y3351882D1*
X1829478Y3354734D1*
X1828019Y3356193D1*
X1823708Y3357619D1*
X1810808D1*
Y3327475D1*
X1820856Y3343260D2*
X1830904Y3327475D1*
X1857378Y3357586D2*
X1843052D1*
X1841626Y3344686D1*
X1843052Y3346112D1*
X1847363Y3347571D1*
X1851641D1*
X1855952Y3346112D1*
X1858837Y3343260D1*
X1860263Y3338949D1*
Y3336097D1*
X1858837Y3331786D1*
X1855952Y3328901D1*
X1851641Y3327475D1*
X1847363D1*
X1843052Y3328901D1*
X1841626Y3330360D1*
X1840167Y3333212D1*
X1719740Y2778466D2*
Y2791366D1*
X1718281Y2795677D1*
X1716855Y2797136D1*
X1714003Y2798562D1*
X1711118D1*
X1708266Y2797137D1*
X1706807Y2795677D1*
X1705381Y2791366D1*
Y2778466D1*
X1735525D1*
X1719740Y2788514D2*
X1735525Y2798562D1*
X1709692Y2825037D2*
X1706840Y2823611D1*
X1705414Y2819300D1*
Y2816448D1*
X1706840Y2812137D1*
X1711151Y2809252D1*
X1718314Y2807826D1*
X1725477D1*
X1731214Y2809252D1*
X1734099Y2812137D1*
X1735525Y2816448D1*
Y2817874D1*
X1734099Y2822152D1*
X1731214Y2825037D1*
X1726903Y2826463D1*
X1725477D1*
X1721166Y2825037D1*
X1718314Y2822152D1*
X1716888Y2817874D1*
Y2816448D1*
X1718314Y2812137D1*
X1721166Y2809252D1*
X1725477Y2807826D1*
X3619740Y3248272D2*
Y3261172D1*
X3618281Y3265483D1*
X3616855Y3266942D1*
X3614003Y3268368D1*
X3611118D1*
X3608266Y3266942D1*
X3606807Y3265483D1*
X3605381Y3261172D1*
Y3248272D1*
X3635525D1*
X3619740Y3258320D2*
X3635525Y3268368D1*
Y3283369D2*
X3605414Y3297728D1*
Y3277632D1*
X3532240Y3248324D2*
Y3261224D1*
X3530781Y3265535D1*
X3529355Y3266994D1*
X3526503Y3268420D1*
X3523618D1*
X3520766Y3266994D1*
X3519307Y3265535D1*
X3517881Y3261224D1*
Y3248324D1*
X3548025D1*
X3532240Y3258372D2*
X3548025Y3268420D1*
X3517914Y3284847D2*
X3519340Y3280569D1*
X3522192Y3279110D1*
X3525077D1*
X3527929Y3280569D1*
X3529388Y3283421D1*
X3530814Y3289158D1*
X3532240Y3293469D1*
X3535125Y3296321D1*
X3537977Y3297747D1*
X3542288D1*
X3545140Y3296321D1*
X3546599Y3294895D1*
X3548025Y3290584D1*
Y3284847D1*
X3546599Y3280569D1*
X3545140Y3279110D1*
X3542288Y3277684D1*
X3537977D1*
X3535125Y3279110D1*
X3532240Y3281995D1*
X3530814Y3286273D1*
X3529388Y3292010D1*
X3527929Y3294895D1*
X3525077Y3296321D1*
X3522192D1*
X3519340Y3294895D1*
X3517914Y3290584D1*
Y3284847D1*
X532931Y1484008D2*
X545831D1*
X550142Y1485467D1*
X551601Y1486893D1*
X553027Y1489745D1*
Y1492630D1*
X551601Y1495482D1*
X550142Y1496941D1*
X545831Y1498367D1*
X532931D1*
Y1468223D1*
X542979Y1484008D2*
X553027Y1468223D1*
X562290Y1492597D2*
X565175Y1494056D1*
X569486Y1498334D1*
Y1468223D1*
X587372Y1498334D2*
X583061Y1496908D1*
X580176Y1492597D1*
X578750Y1485434D1*
Y1481123D1*
X580176Y1473960D1*
X583061Y1469649D1*
X587372Y1468223D1*
X590224D1*
X594535Y1469649D1*
X597387Y1473960D1*
X598846Y1481123D1*
Y1485434D1*
X597387Y1492597D1*
X594535Y1496908D1*
X590224Y1498334D1*
X587372D1*
X597387Y1492597D2*
X580176Y1473960D1*
X608109Y1492597D2*
X610995Y1494056D1*
X615306Y1498334D1*
Y1468223D1*
X678992Y1438981D2*
Y1451881D1*
X677533Y1456192D1*
X676107Y1457651D1*
X673255Y1459077D1*
X670370D1*
X667518Y1457651D1*
X666059Y1456192D1*
X664633Y1451881D1*
Y1438981D1*
X694777D1*
X678992Y1449029D2*
X694777Y1459077D1*
X670403Y1468340D2*
X668944Y1471225D1*
X664666Y1475536D1*
X694777D1*
X664666Y1493422D2*
X666092Y1489111D1*
X670403Y1486226D1*
X677566Y1484800D1*
X681877D1*
X689040Y1486226D1*
X693351Y1489111D1*
X694777Y1493422D1*
Y1496274D1*
X693351Y1500585D1*
X689040Y1503437D1*
X681877Y1504896D1*
X677566D1*
X670403Y1503437D1*
X666092Y1500585D1*
X664666Y1496274D1*
Y1493422D1*
X670403Y1503437D2*
X689040Y1486226D1*
X671829Y1515619D2*
X670403D1*
X667518Y1517045D1*
X666092Y1518471D1*
X664666Y1521356D1*
Y1527093D1*
X666092Y1529944D1*
X667518Y1531370D1*
X670403Y1532830D1*
X673255D1*
X676140Y1531370D1*
X680418Y1528519D1*
X694777Y1514159D1*
Y1534255D1*
X1119740Y1954827D2*
Y1967727D1*
X1118281Y1972038D1*
X1116855Y1973497D1*
X1114003Y1974923D1*
X1111118D1*
X1108266Y1973497D1*
X1106807Y1972038D1*
X1105381Y1967727D1*
Y1954827D1*
X1135525D1*
X1119740Y1964875D2*
X1135525Y1974923D1*
X1111151Y1984187D2*
X1109692Y1987072D1*
X1105414Y1991383D1*
X1135525D1*
X1105414Y2009268D2*
X1106840Y2004957D1*
X1111151Y2002072D1*
X1118314Y2000646D1*
X1122625D1*
X1129788Y2002072D1*
X1134099Y2004957D1*
X1135525Y2009268D1*
Y2012120D1*
X1134099Y2016431D1*
X1129788Y2019283D1*
X1122625Y2020742D1*
X1118314D1*
X1111151Y2019283D1*
X1106840Y2016431D1*
X1105414Y2012120D1*
Y2009268D1*
X1111151Y2019283D2*
X1129788Y2002072D1*
X1105414Y2032891D2*
Y2048643D1*
X1116888Y2040054D1*
Y2044365D1*
X1118314Y2047217D1*
X1119740Y2048643D1*
X1124051Y2050102D1*
X1126903D1*
X1131214Y2048643D1*
X1134099Y2045791D1*
X1135525Y2041480D1*
Y2037169D1*
X1134099Y2032891D1*
X1132640Y2031465D1*
X1129788Y2030006D1*
X2969740Y2824685D2*
Y2837585D1*
X2968281Y2841896D1*
X2966855Y2843355D1*
X2964003Y2844781D1*
X2961118D1*
X2958266Y2843355D1*
X2956807Y2841896D1*
X2955381Y2837585D1*
Y2824685D1*
X2985525D1*
X2969740Y2834733D2*
X2985525Y2844781D1*
X2961151Y2854045D2*
X2959692Y2856930D1*
X2955414Y2861241D1*
X2985525D1*
X2955414Y2879126D2*
X2956840Y2874815D1*
X2961151Y2871930D1*
X2968314Y2870504D1*
X2972625D1*
X2979788Y2871930D1*
X2984099Y2874815D1*
X2985525Y2879126D1*
Y2881978D1*
X2984099Y2886289D1*
X2979788Y2889141D1*
X2972625Y2890600D1*
X2968314D1*
X2961151Y2889141D1*
X2956840Y2886289D1*
X2955414Y2881978D1*
Y2879126D1*
X2961151Y2889141D2*
X2979788Y2871930D1*
X2985525Y2914223D2*
X2955414D1*
X2975477Y2899864D1*
Y2921386D1*
X807240Y1242327D2*
Y1255227D1*
X805781Y1259538D1*
X804355Y1260997D1*
X801503Y1262423D1*
X798618D1*
X795766Y1260997D1*
X794307Y1259538D1*
X792881Y1255227D1*
Y1242327D1*
X823025D1*
X807240Y1252375D2*
X823025Y1262423D1*
X798651Y1271687D2*
X797192Y1274572D1*
X792914Y1278883D1*
X823025D1*
X792914Y1296768D2*
X794340Y1292457D1*
X798651Y1289572D1*
X805814Y1288146D1*
X810125D1*
X817288Y1289572D1*
X821599Y1292457D1*
X823025Y1296768D1*
Y1299620D1*
X821599Y1303931D1*
X817288Y1306783D1*
X810125Y1308242D1*
X805814D1*
X798651Y1306783D1*
X794340Y1303931D1*
X792914Y1299620D1*
Y1296768D1*
X798651Y1306783D2*
X817288Y1289572D1*
X792914Y1334717D2*
Y1320391D1*
X805814Y1318965D1*
X804388Y1320391D1*
X802929Y1324702D1*
Y1328980D1*
X804388Y1333291D1*
X807240Y1336176D1*
X811551Y1337602D1*
X814403D1*
X818714Y1336176D1*
X821599Y1333291D1*
X823025Y1328980D1*
Y1324702D1*
X821599Y1320391D1*
X820140Y1318965D1*
X817288Y1317506D1*
X1119740Y2138628D2*
Y2151528D1*
X1118281Y2155839D1*
X1116855Y2157298D1*
X1114003Y2158724D1*
X1111118D1*
X1108266Y2157298D1*
X1106807Y2155839D1*
X1105381Y2151528D1*
Y2138628D1*
X1135525D1*
X1119740Y2148676D2*
X1135525Y2158724D1*
X1111151Y2167987D2*
X1109692Y2170872D1*
X1105414Y2175183D1*
X1135525D1*
X1105414Y2193069D2*
X1106840Y2188758D1*
X1111151Y2185873D1*
X1118314Y2184447D1*
X1122625D1*
X1129788Y2185873D1*
X1134099Y2188758D1*
X1135525Y2193069D1*
Y2195921D1*
X1134099Y2200232D1*
X1129788Y2203084D1*
X1122625Y2204543D1*
X1118314D1*
X1111151Y2203084D1*
X1106840Y2200232D1*
X1105414Y2195921D1*
Y2193069D1*
X1111151Y2203084D2*
X1129788Y2185873D1*
X1109692Y2231017D2*
X1106840Y2229591D1*
X1105414Y2225280D1*
Y2222428D1*
X1106840Y2218117D1*
X1111151Y2215232D1*
X1118314Y2213806D1*
X1125477D1*
X1131214Y2215232D1*
X1134099Y2218117D1*
X1135525Y2222428D1*
Y2223854D1*
X1134099Y2228132D1*
X1131214Y2231017D1*
X1126903Y2232443D1*
X1125477D1*
X1121166Y2231017D1*
X1118314Y2228132D1*
X1116888Y2223854D1*
Y2222428D1*
X1118314Y2218117D1*
X1121166Y2215232D1*
X1125477Y2213806D1*
X3182240Y2604827D2*
Y2617727D1*
X3180781Y2622038D1*
X3179355Y2623497D1*
X3176503Y2624923D1*
X3173618D1*
X3170766Y2623497D1*
X3169307Y2622038D1*
X3167881Y2617727D1*
Y2604827D1*
X3198025D1*
X3182240Y2614875D2*
X3198025Y2624923D1*
X3173651Y2634187D2*
X3172192Y2637072D1*
X3167914Y2641383D1*
X3198025D1*
X3167914Y2659268D2*
X3169340Y2654957D1*
X3173651Y2652072D1*
X3180814Y2650646D1*
X3185125D1*
X3192288Y2652072D1*
X3196599Y2654957D1*
X3198025Y2659268D1*
Y2662120D1*
X3196599Y2666431D1*
X3192288Y2669283D1*
X3185125Y2670742D1*
X3180814D1*
X3173651Y2669283D1*
X3169340Y2666431D1*
X3167914Y2662120D1*
Y2659268D1*
X3173651Y2669283D2*
X3192288Y2652072D1*
X3198025Y2685743D2*
X3167914Y2700102D1*
Y2680006D1*
X951497Y1484008D2*
X964397D1*
X968708Y1485467D1*
X970167Y1486893D1*
X971593Y1489745D1*
Y1492630D1*
X970167Y1495482D1*
X968708Y1496941D1*
X964397Y1498367D1*
X951497D1*
Y1468223D1*
X961545Y1484008D2*
X971593Y1468223D1*
X980857Y1492597D2*
X983742Y1494056D1*
X988053Y1498334D1*
Y1468223D1*
X1005939Y1498334D2*
X1001628Y1496908D1*
X998742Y1492597D1*
X997317Y1485434D1*
Y1481123D1*
X998742Y1473960D1*
X1001628Y1469649D1*
X1005939Y1468223D1*
X1008790D1*
X1013101Y1469649D1*
X1015953Y1473960D1*
X1017413Y1481123D1*
Y1485434D1*
X1015953Y1492597D1*
X1013101Y1496908D1*
X1008790Y1498334D1*
X1005939D1*
X1015953Y1492597D2*
X998742Y1473960D1*
X1033839Y1498334D2*
X1029561Y1496908D1*
X1028102Y1494056D1*
Y1491171D1*
X1029561Y1488319D1*
X1032413Y1486860D1*
X1038150Y1485434D1*
X1042461Y1484008D1*
X1045313Y1481123D1*
X1046739Y1478271D1*
Y1473960D1*
X1045313Y1471108D1*
X1043887Y1469649D1*
X1039576Y1468223D1*
X1033839D1*
X1029561Y1469649D1*
X1028102Y1471108D1*
X1026676Y1473960D1*
Y1478271D1*
X1028102Y1481123D1*
X1030987Y1484008D1*
X1035265Y1485434D1*
X1041002Y1486860D1*
X1043887Y1488319D1*
X1045313Y1491171D1*
Y1494056D1*
X1043887Y1496908D1*
X1039576Y1498334D1*
X1033839D1*
X1116492Y1439694D2*
Y1452594D1*
X1115033Y1456905D1*
X1113607Y1458364D1*
X1110755Y1459790D1*
X1107870D1*
X1105018Y1458364D1*
X1103559Y1456905D1*
X1102133Y1452594D1*
Y1439694D1*
X1132277D1*
X1116492Y1449742D2*
X1132277Y1459790D1*
X1107903Y1469053D2*
X1106444Y1471938D1*
X1102166Y1476249D1*
X1132277D1*
X1102166Y1494135D2*
X1103592Y1489824D1*
X1107903Y1486939D1*
X1115066Y1485513D1*
X1119377D1*
X1126540Y1486939D1*
X1130851Y1489824D1*
X1132277Y1494135D1*
Y1496987D1*
X1130851Y1501298D1*
X1126540Y1504150D1*
X1119377Y1505609D1*
X1115066D1*
X1107903Y1504150D1*
X1103592Y1501298D1*
X1102166Y1496987D1*
Y1494135D1*
X1107903Y1504150D2*
X1126540Y1486939D1*
X1112181Y1533543D2*
X1116492Y1532083D1*
X1119377Y1529231D1*
X1120803Y1524920D1*
Y1523495D1*
X1119377Y1519183D1*
X1116492Y1516332D1*
X1112181Y1514872D1*
X1110755D1*
X1106444Y1516332D1*
X1103592Y1519184D1*
X1102166Y1523495D1*
Y1524920D1*
X1103592Y1529232D1*
X1106444Y1532083D1*
X1112181Y1533543D1*
X1119377D1*
X1126540Y1532083D1*
X1130851Y1529231D1*
X1132277Y1524920D1*
Y1522069D1*
X1130851Y1517758D1*
X1127966Y1516332D1*
X1319740Y1961277D2*
Y1974177D1*
X1318281Y1978488D1*
X1316855Y1979947D1*
X1314003Y1981373D1*
X1311118D1*
X1308266Y1979947D1*
X1306807Y1978488D1*
X1305381Y1974177D1*
Y1961277D1*
X1335525D1*
X1319740Y1971325D2*
X1335525Y1981373D1*
X1311151Y1990637D2*
X1309692Y1993522D1*
X1305414Y1997833D1*
X1335525D1*
X1311151Y2007096D2*
X1309692Y2009981D1*
X1305414Y2014292D1*
X1335525D1*
X1305414Y2032178D2*
X1306840Y2027867D1*
X1311151Y2024982D1*
X1318314Y2023556D1*
X1322625D1*
X1329788Y2024982D1*
X1334099Y2027867D1*
X1335525Y2032178D1*
Y2035030D1*
X1334099Y2039341D1*
X1329788Y2042193D1*
X1322625Y2043652D1*
X1318314D1*
X1311151Y2042193D1*
X1306840Y2039341D1*
X1305414Y2035030D1*
Y2032178D1*
X1311151Y2042193D2*
X1329788Y2024982D1*
X1232240Y1230227D2*
Y1243127D1*
X1230781Y1247438D1*
X1229355Y1248897D1*
X1226503Y1250323D1*
X1223618D1*
X1220766Y1248897D1*
X1219307Y1247438D1*
X1217881Y1243127D1*
Y1230227D1*
X1248025D1*
X1232240Y1240275D2*
X1248025Y1250323D1*
X1223651Y1259587D2*
X1222192Y1262472D1*
X1217914Y1266783D1*
X1248025D1*
X1223651Y1276046D2*
X1222192Y1278931D1*
X1217914Y1283242D1*
X1248025D1*
X1223651Y1292506D2*
X1222192Y1295391D1*
X1217914Y1299702D1*
X1248025D1*
X1319740Y2144348D2*
Y2157248D1*
X1318281Y2161559D1*
X1316855Y2163018D1*
X1314003Y2164444D1*
X1311118D1*
X1308266Y2163018D1*
X1306807Y2161559D1*
X1305381Y2157248D1*
Y2144348D1*
X1335525D1*
X1319740Y2154396D2*
X1335525Y2164444D1*
X1311151Y2173708D2*
X1309692Y2176593D1*
X1305414Y2180904D1*
X1335525D1*
X1311151Y2190167D2*
X1309692Y2193052D1*
X1305414Y2197363D1*
X1335525D1*
X1312577Y2208086D2*
X1311151D1*
X1308266Y2209512D1*
X1306840Y2210938D1*
X1305414Y2213823D1*
Y2219560D1*
X1306840Y2222412D1*
X1308266Y2223838D1*
X1311151Y2225297D1*
X1314003D1*
X1316888Y2223838D1*
X1321166Y2220986D1*
X1335525Y2206627D1*
Y2226723D1*
X3157240Y2831848D2*
Y2844748D1*
X3155781Y2849059D1*
X3154355Y2850518D1*
X3151503Y2851944D1*
X3148618D1*
X3145766Y2850518D1*
X3144307Y2849059D1*
X3142881Y2844748D1*
Y2831848D1*
X3173025D1*
X3157240Y2841896D2*
X3173025Y2851944D1*
X3148651Y2861208D2*
X3147192Y2864093D1*
X3142914Y2868404D1*
X3173025D1*
X3148651Y2877667D2*
X3147192Y2880552D1*
X3142914Y2884863D1*
X3173025D1*
X3142914Y2897012D2*
Y2912764D1*
X3154388Y2904175D1*
Y2908486D1*
X3155814Y2911338D1*
X3157240Y2912764D1*
X3161551Y2914223D1*
X3164403D1*
X3168714Y2912764D1*
X3171599Y2909912D1*
X3173025Y2905601D1*
Y2901290D1*
X3171599Y2897012D1*
X3170140Y2895586D1*
X3167288Y2894127D1*
X3444740Y2610564D2*
Y2623464D1*
X3443281Y2627775D1*
X3441855Y2629234D1*
X3439003Y2630660D1*
X3436118D1*
X3433266Y2629234D1*
X3431807Y2627775D1*
X3430381Y2623464D1*
Y2610564D1*
X3460525D1*
X3444740Y2620612D2*
X3460525Y2630660D1*
X3436151Y2639924D2*
X3434692Y2642809D1*
X3430414Y2647120D1*
X3460525D1*
X3436151Y2656383D2*
X3434692Y2659268D1*
X3430414Y2663580D1*
X3460525Y2663579D1*
Y2687202D2*
X3430414D1*
X3450477Y2672843D1*
Y2694365D1*
X1382931Y1484008D2*
X1395831D1*
X1400142Y1485467D1*
X1401601Y1486893D1*
X1403027Y1489745D1*
Y1492630D1*
X1401601Y1495482D1*
X1400142Y1496941D1*
X1395831Y1498367D1*
X1382931D1*
Y1468223D1*
X1392979Y1484008D2*
X1403027Y1468223D1*
X1412290Y1492597D2*
X1415175Y1494056D1*
X1419486Y1498334D1*
Y1468223D1*
X1428750Y1492597D2*
X1431635Y1494056D1*
X1435946Y1498334D1*
Y1468223D1*
X1462420Y1498334D2*
X1448095D1*
X1446669Y1485434D1*
X1448095Y1486860D1*
X1452406Y1488319D1*
X1456683D1*
X1460995Y1486860D1*
X1463880Y1484008D1*
X1465306Y1479697D1*
Y1476845D1*
X1463880Y1472534D1*
X1460995Y1469649D1*
X1456683Y1468223D1*
X1452406D1*
X1448095Y1469649D1*
X1446669Y1471108D1*
X1445210Y1473960D1*
X1528992Y1433660D2*
Y1446560D1*
X1527533Y1450871D1*
X1526107Y1452330D1*
X1523255Y1453756D1*
X1520370D1*
X1517518Y1452330D1*
X1516059Y1450871D1*
X1514633Y1446560D1*
Y1433660D1*
X1544777D1*
X1528992Y1443708D2*
X1544777Y1453756D1*
X1520403Y1463020D2*
X1518944Y1465905D1*
X1514666Y1470216D1*
X1544777D1*
X1520403Y1479479D2*
X1518944Y1482365D1*
X1514666Y1486676D1*
X1544777D1*
X1518944Y1513150D2*
X1516092Y1511724D1*
X1514666Y1507413D1*
Y1504561D1*
X1516092Y1500250D1*
X1520403Y1497365D1*
X1527566Y1495939D1*
X1534729D1*
X1540466Y1497365D1*
X1543351Y1500250D1*
X1544777Y1504561D1*
Y1505987D1*
X1543351Y1510265D1*
X1540466Y1513150D1*
X1536155Y1514576D1*
X1534729D1*
X1530418Y1513150D1*
X1527566Y1510265D1*
X1526140Y1505987D1*
Y1504561D1*
X1527566Y1500250D1*
X1530418Y1497365D1*
X1534729Y1495939D1*
X1532240Y1948777D2*
Y1961677D1*
X1530781Y1965988D1*
X1529355Y1967447D1*
X1526503Y1968873D1*
X1523618D1*
X1520766Y1967447D1*
X1519307Y1965988D1*
X1517881Y1961677D1*
Y1948777D1*
X1548025D1*
X1532240Y1958825D2*
X1548025Y1968873D1*
X1523651Y1978137D2*
X1522192Y1981022D1*
X1517914Y1985333D1*
X1548025D1*
X1523651Y1994596D2*
X1522192Y1997481D1*
X1517914Y2001792D1*
X1548025D1*
Y2016793D2*
X1517914Y2031152D1*
Y2011056D1*
X1644740Y1248794D2*
Y1261694D1*
X1643281Y1266005D1*
X1641855Y1267464D1*
X1639003Y1268890D1*
X1636118D1*
X1633266Y1267464D1*
X1631807Y1266005D1*
X1630381Y1261694D1*
Y1248794D1*
X1660525D1*
X1644740Y1258842D2*
X1660525Y1268890D1*
X1636151Y1278153D2*
X1634692Y1281038D1*
X1630414Y1285349D1*
X1660525D1*
X1636151Y1294613D2*
X1634692Y1297498D1*
X1630414Y1301809D1*
X1660525D1*
X1630414Y1318236D2*
X1631840Y1313958D1*
X1634692Y1312499D1*
X1637577D1*
X1640429Y1313958D1*
X1641888Y1316810D1*
X1643314Y1322547D1*
X1644740Y1326858D1*
X1647625Y1329709D1*
X1650477Y1331135D1*
X1654788D1*
X1657640Y1329709D1*
X1659099Y1328283D1*
X1660525Y1323972D1*
Y1318235D1*
X1659099Y1313958D1*
X1657640Y1312499D1*
X1654788Y1311073D1*
X1650477D1*
X1647625Y1312499D1*
X1644740Y1315384D1*
X1643314Y1319661D1*
X1641888Y1325398D1*
X1640429Y1328284D1*
X1637577Y1329709D1*
X1634692D1*
X1631840Y1328284D1*
X1630414Y1323973D1*
Y1318236D1*
X1532240Y2145061D2*
Y2157961D1*
X1530781Y2162272D1*
X1529355Y2163731D1*
X1526503Y2165157D1*
X1523618D1*
X1520766Y2163731D1*
X1519307Y2162272D1*
X1517881Y2157961D1*
Y2145061D1*
X1548025D1*
X1532240Y2155109D2*
X1548025Y2165157D1*
X1523651Y2174421D2*
X1522192Y2177306D1*
X1517914Y2181617D1*
X1548025D1*
X1523651Y2190880D2*
X1522192Y2193765D1*
X1517914Y2198076D1*
X1548025D1*
X1527929Y2226010D2*
X1532240Y2224551D1*
X1535125Y2221699D1*
X1536551Y2217388D1*
Y2215962D1*
X1535125Y2211651D1*
X1532240Y2208799D1*
X1527929Y2207340D1*
X1526503D1*
X1522192Y2208799D1*
X1519340Y2211651D1*
X1517914Y2215962D1*
Y2217388D1*
X1519340Y2221699D1*
X1522192Y2224551D1*
X1527929Y2226010D1*
X1535125D1*
X1542288Y2224551D1*
X1546599Y2221699D1*
X1548025Y2217388D1*
Y2214536D1*
X1546599Y2210225D1*
X1543714Y2208799D1*
X3357240Y2837898D2*
Y2850798D1*
X3355781Y2855109D1*
X3354355Y2856568D1*
X3351503Y2857994D1*
X3348618D1*
X3345766Y2856568D1*
X3344307Y2855109D1*
X3342881Y2850798D1*
Y2837898D1*
X3373025D1*
X3357240Y2847946D2*
X3373025Y2857994D1*
X3348651Y2867258D2*
X3347192Y2870143D1*
X3342914Y2874454D1*
X3373025D1*
X3350077Y2885176D2*
X3348651D1*
X3345766Y2886602D1*
X3344340Y2888028D1*
X3342914Y2890913D1*
Y2896650D1*
X3344340Y2899502D1*
X3345766Y2900928D1*
X3348651Y2902387D1*
X3351503D1*
X3354388Y2900928D1*
X3358666Y2898076D1*
X3373025Y2883717D1*
Y2903813D1*
X3342914Y2921699D2*
X3344340Y2917388D1*
X3348651Y2914503D1*
X3355814Y2913077D1*
X3360125D1*
X3367288Y2914503D1*
X3371599Y2917388D1*
X3373025Y2921699D1*
Y2924551D1*
X3371599Y2928862D1*
X3367288Y2931714D1*
X3360125Y2933173D1*
X3355814D1*
X3348651Y2931714D1*
X3344340Y2928862D1*
X3342914Y2924551D1*
Y2921699D1*
X3348651Y2931714D2*
X3367288Y2914503D1*
X3582240Y2619348D2*
Y2632248D1*
X3580781Y2636559D1*
X3579355Y2638018D1*
X3576503Y2639444D1*
X3573618D1*
X3570766Y2638018D1*
X3569307Y2636559D1*
X3567881Y2632248D1*
Y2619348D1*
X3598025D1*
X3582240Y2629396D2*
X3598025Y2639444D1*
X3573651Y2648708D2*
X3572192Y2651593D1*
X3567914Y2655904D1*
X3598025D1*
X3575077Y2666626D2*
X3573651D1*
X3570766Y2668052D1*
X3569340Y2669478D1*
X3567914Y2672363D1*
Y2678100D1*
X3569340Y2680952D1*
X3570766Y2682378D1*
X3573651Y2683837D1*
X3576503D1*
X3579388Y2682378D1*
X3583666Y2679526D1*
X3598025Y2665167D1*
Y2685263D1*
X3573651Y2694527D2*
X3572192Y2697412D1*
X3567914Y2701723D1*
X3598025D1*
X1788981Y1484008D2*
X1801881D1*
X1806192Y1485467D1*
X1807651Y1486893D1*
X1809077Y1489745D1*
Y1492630D1*
X1807651Y1495482D1*
X1806192Y1496941D1*
X1801881Y1498367D1*
X1788981D1*
Y1468223D1*
X1799029Y1484008D2*
X1809077Y1468223D1*
X1818340Y1492597D2*
X1821225Y1494056D1*
X1825536Y1498334D1*
Y1468223D1*
X1836259Y1491171D2*
Y1492597D1*
X1837685Y1495482D1*
X1839111Y1496908D1*
X1841996Y1498334D1*
X1847733D1*
X1850585Y1496908D1*
X1852011Y1495482D1*
X1853470Y1492597D1*
Y1489745D1*
X1852011Y1486860D1*
X1849159Y1482582D1*
X1834800Y1468223D1*
X1854896D1*
X1865619Y1491171D2*
Y1492597D1*
X1867045Y1495482D1*
X1868471Y1496908D1*
X1871356Y1498334D1*
X1877093D1*
X1879944Y1496908D1*
X1881370Y1495482D1*
X1882830Y1492597D1*
Y1489745D1*
X1881370Y1486860D1*
X1878519Y1482582D1*
X1864159Y1468223D1*
X1884255D1*
X1941492Y1438981D2*
Y1451881D1*
X1940033Y1456192D1*
X1938607Y1457651D1*
X1935755Y1459077D1*
X1932870D1*
X1930018Y1457651D1*
X1928559Y1456192D1*
X1927133Y1451881D1*
Y1438981D1*
X1957277D1*
X1941492Y1449029D2*
X1957277Y1459077D1*
X1932903Y1468340D2*
X1931444Y1471225D1*
X1927166Y1475536D1*
X1957277D1*
X1934329Y1486259D2*
X1932903D1*
X1930018Y1487685D1*
X1928592Y1489111D1*
X1927166Y1491996D1*
Y1497733D1*
X1928592Y1500585D1*
X1930018Y1502011D1*
X1932903Y1503470D1*
X1935755D1*
X1938640Y1502011D1*
X1942918Y1499159D1*
X1957277Y1484800D1*
Y1504896D1*
X1927166Y1517045D2*
Y1532796D1*
X1938640Y1524207D1*
Y1528519D1*
X1940066Y1531370D1*
X1941492Y1532796D1*
X1945803Y1534255D1*
X1948655D1*
X1952966Y1532796D1*
X1955851Y1529944D1*
X1957277Y1525633D1*
Y1521322D1*
X1955851Y1517045D1*
X1954392Y1515619D1*
X1951540Y1514159D1*
X1719740Y1954114D2*
Y1967014D1*
X1718281Y1971325D1*
X1716855Y1972784D1*
X1714003Y1974210D1*
X1711118D1*
X1708266Y1972784D1*
X1706807Y1971325D1*
X1705381Y1967014D1*
Y1954114D1*
X1735525D1*
X1719740Y1964162D2*
X1735525Y1974210D1*
X1711151Y1983474D2*
X1709692Y1986359D1*
X1705414Y1990670D1*
X1735525D1*
X1712577Y2001393D2*
X1711151D1*
X1708266Y2002819D1*
X1706840Y2004244D1*
X1705414Y2007130D1*
Y2012867D1*
X1706840Y2015718D1*
X1708266Y2017144D1*
X1711151Y2018603D1*
X1714003D1*
X1716888Y2017144D1*
X1721166Y2014292D1*
X1735525Y1999933D1*
Y2020029D1*
Y2043652D2*
X1705414D1*
X1725477Y2029293D1*
Y2050815D1*
X2069740Y1229827D2*
Y1242727D1*
X2068281Y1247038D1*
X2066855Y1248497D1*
X2064003Y1249923D1*
X2061118D1*
X2058266Y1248497D1*
X2056807Y1247038D1*
X2055381Y1242727D1*
Y1229827D1*
X2085525D1*
X2069740Y1239875D2*
X2085525Y1249923D1*
X2061151Y1259187D2*
X2059692Y1262072D1*
X2055414Y1266383D1*
X2085525D1*
X2062577Y1277106D2*
X2061151D1*
X2058266Y1278532D1*
X2056840Y1279957D1*
X2055414Y1282843D1*
Y1288580D1*
X2056840Y1291431D1*
X2058266Y1292857D1*
X2061151Y1294316D1*
X2064003D1*
X2066888Y1292857D1*
X2071166Y1290005D1*
X2085525Y1275646D1*
Y1295742D1*
X2055414Y1322217D2*
Y1307891D1*
X2068314Y1306465D1*
X2066888Y1307891D1*
X2065429Y1312202D1*
Y1316480D1*
X2066888Y1320791D1*
X2069740Y1323676D1*
X2074051Y1325102D1*
X2076903D1*
X2081214Y1323676D1*
X2084099Y1320791D1*
X2085525Y1316480D1*
Y1312202D1*
X2084099Y1307891D1*
X2082640Y1306465D1*
X2079788Y1305006D1*
X1732240Y2126128D2*
Y2139028D1*
X1730781Y2143339D1*
X1729355Y2144798D1*
X1726503Y2146224D1*
X1723618D1*
X1720766Y2144798D1*
X1719307Y2143339D1*
X1717881Y2139028D1*
Y2126128D1*
X1748025D1*
X1732240Y2136176D2*
X1748025Y2146224D1*
X1723651Y2155487D2*
X1722192Y2158372D1*
X1717914Y2162683D1*
X1748025D1*
X1725077Y2173406D2*
X1723651D1*
X1720766Y2174832D1*
X1719340Y2176258D1*
X1717914Y2179143D1*
Y2184880D1*
X1719340Y2187732D1*
X1720766Y2189158D1*
X1723651Y2190617D1*
X1726503D1*
X1729388Y2189158D1*
X1733666Y2186306D1*
X1748025Y2171947D1*
Y2192043D1*
X1722192Y2218517D2*
X1719340Y2217091D1*
X1717914Y2212780D1*
Y2209928D1*
X1719340Y2205617D1*
X1723651Y2202732D1*
X1730814Y2201306D1*
X1737977D1*
X1743714Y2202732D1*
X1746599Y2205617D1*
X1748025Y2209928D1*
Y2211354D1*
X1746599Y2215632D1*
X1743714Y2218517D1*
X1739403Y2219943D1*
X1737977D1*
X1733666Y2218517D1*
X1730814Y2215632D1*
X1729388Y2211354D1*
Y2209928D1*
X1730814Y2205617D1*
X1733666Y2202732D1*
X1737977Y2201306D1*
X3557240Y2837898D2*
Y2850798D1*
X3555781Y2855109D1*
X3554355Y2856568D1*
X3551503Y2857994D1*
X3548618D1*
X3545766Y2856568D1*
X3544307Y2855109D1*
X3542881Y2850798D1*
Y2837898D1*
X3573025D1*
X3557240Y2847946D2*
X3573025Y2857994D1*
X3548651Y2867258D2*
X3547192Y2870143D1*
X3542914Y2874454D1*
X3573025D1*
X3550077Y2885176D2*
X3548651D1*
X3545766Y2886602D1*
X3544340Y2888028D1*
X3542914Y2890913D1*
Y2896650D1*
X3544340Y2899502D1*
X3545766Y2900928D1*
X3548651Y2902387D1*
X3551503D1*
X3554388Y2900928D1*
X3558666Y2898076D1*
X3573025Y2883717D1*
Y2903813D1*
Y2918814D2*
X3542914Y2933173D1*
Y2913077D1*
X3319740Y2604844D2*
Y2617744D1*
X3318281Y2622055D1*
X3316855Y2623514D1*
X3314003Y2624940D1*
X3311118D1*
X3308266Y2623514D1*
X3306807Y2622055D1*
X3305381Y2617744D1*
Y2604844D1*
X3335525D1*
X3319740Y2614892D2*
X3335525Y2624940D1*
X3311151Y2634203D2*
X3309692Y2637088D1*
X3305414Y2641399D1*
X3335525D1*
X3312577Y2652122D2*
X3311151D1*
X3308266Y2653548D1*
X3306840Y2654974D1*
X3305414Y2657859D1*
Y2663596D1*
X3306840Y2666448D1*
X3308266Y2667874D1*
X3311151Y2669333D1*
X3314003D1*
X3316888Y2667874D1*
X3321166Y2665022D1*
X3335525Y2650663D1*
Y2670759D1*
X3305414Y2687185D2*
X3306840Y2682908D1*
X3309692Y2681448D1*
X3312577D1*
X3315429Y2682908D1*
X3316888Y2685760D1*
X3318314Y2691496D1*
X3319740Y2695808D1*
X3322625Y2698659D1*
X3325477Y2700085D1*
X3329788D1*
X3332640Y2698659D1*
X3334099Y2697233D1*
X3335525Y2692922D1*
Y2687185D1*
X3334099Y2682908D1*
X3332640Y2681448D1*
X3329788Y2680023D1*
X3325477D1*
X3322625Y2681448D1*
X3319740Y2684334D1*
X3318314Y2688611D1*
X3316888Y2694348D1*
X3315429Y2697233D1*
X3312577Y2698659D1*
X3309692D1*
X3306840Y2697233D1*
X3305414Y2692922D1*
Y2687185D1*
X691077Y2734868D2*
Y2713346D1*
X692502Y2709035D1*
X695388Y2706183D1*
X699699Y2704724D1*
X702550D1*
X706861Y2706183D1*
X709747Y2709035D1*
X711173Y2713346D1*
Y2734868D1*
X720436Y2729098D2*
X723321Y2730557D1*
X727632Y2734835D1*
Y2704724D1*
X684627Y2272368D2*
Y2250846D1*
X686053Y2246535D1*
X688938Y2243683D1*
X693249Y2242224D1*
X696101D1*
X700412Y2243683D1*
X703297Y2246535D1*
X704723Y2250846D1*
Y2272368D1*
X715445Y2265172D2*
Y2266598D1*
X716871Y2269483D1*
X718297Y2270909D1*
X721182Y2272335D1*
X726919D1*
X729771Y2270909D1*
X731197Y2269483D1*
X732656Y2266598D1*
Y2263746D1*
X731197Y2260861D1*
X728345Y2256583D1*
X713986Y2242224D1*
X734082D1*
X2913071Y3323861D2*
Y3302339D1*
X2914497Y3298028D1*
X2917382Y3295176D1*
X2921693Y3293717D1*
X2924545D1*
X2928856Y3295176D1*
X2931741Y3298028D1*
X2933167Y3302339D1*
Y3323861D1*
X2945316Y3323828D2*
X2961068D1*
X2952479Y3312354D1*
X2956790D1*
X2959642Y3310928D1*
X2961068Y3309502D1*
X2962527Y3305191D1*
Y3302339D1*
X2961068Y3298028D1*
X2958216Y3295143D1*
X2953905Y3293717D1*
X2949594D1*
X2945316Y3295143D1*
X2943890Y3296602D1*
X2942431Y3299454D1*
X1562260Y3361361D2*
Y3339839D1*
X1563686Y3335528D1*
X1566571Y3332676D1*
X1570882Y3331217D1*
X1573734D1*
X1578045Y3332676D1*
X1580930Y3335528D1*
X1582356Y3339839D1*
Y3361361D1*
X1605979Y3331217D2*
Y3361328D1*
X1591620Y3341265D1*
X1613142D1*
X1227819Y3360354D2*
Y3338832D1*
X1229245Y3334521D1*
X1232130Y3331669D1*
X1236442Y3330210D1*
X1239293D1*
X1243604Y3331669D1*
X1246490Y3334521D1*
X1247915Y3338832D1*
Y3360354D1*
X1274390Y3360321D2*
X1260064D1*
X1258638Y3347421D1*
X1260064Y3348847D1*
X1264375Y3350306D1*
X1268653D1*
X1272964Y3348847D1*
X1275849Y3345995D1*
X1277275Y3341684D1*
Y3338832D1*
X1275849Y3334521D1*
X1272964Y3331636D1*
X1268653Y3330210D1*
X1264375D1*
X1260064Y3331636D1*
X1258638Y3333095D1*
X1257179Y3335947D1*
X609616Y3349646D2*
X621090Y3319502D1*
X632564Y3349646D1*
X641828D2*
Y3319502D1*
X651876D1*
X656187Y3320962D1*
X659072Y3323813D1*
X660498Y3326699D1*
X661924Y3330976D1*
Y3338172D1*
X660498Y3342484D1*
X659072Y3345335D1*
X656187Y3348220D1*
X651876Y3349646D1*
X641828D1*
X671187Y3343876D2*
X674073Y3345335D1*
X678384Y3349613D1*
Y3319502D1*
X586707Y1099646D2*
X598181Y1069502D1*
X609655Y1099646D1*
X618918D2*
Y1069502D1*
X628966D1*
X633277Y1070962D1*
X636162Y1073813D1*
X637588Y1076699D1*
X639014Y1080976D1*
Y1088172D1*
X637588Y1092484D1*
X636162Y1095335D1*
X633277Y1098220D1*
X628966Y1099646D1*
X618918D1*
X648278Y1093876D2*
X651163Y1095335D1*
X655474Y1099613D1*
Y1069502D1*
X673360Y1099613D2*
X669049Y1098187D1*
X666163Y1093876D1*
X664738Y1086713D1*
Y1082402D1*
X666163Y1075239D1*
X669049Y1070928D1*
X673360Y1069502D1*
X676211D1*
X680522Y1070928D1*
X683374Y1075239D1*
X684834Y1082402D1*
Y1086713D1*
X683374Y1093876D1*
X680522Y1098187D1*
X676211Y1099613D1*
X673360D1*
X683374Y1093876D2*
X666163Y1075239D1*
X694097Y1093876D2*
X696982Y1095335D1*
X701293Y1099613D1*
Y1069502D1*
X1005257Y1099646D2*
X1016731Y1069502D1*
X1028205Y1099646D1*
X1037468D2*
Y1069502D1*
X1047516D1*
X1051827Y1070962D1*
X1054712Y1073813D1*
X1056138Y1076699D1*
X1057564Y1080976D1*
Y1088172D1*
X1056138Y1092484D1*
X1054712Y1095335D1*
X1051827Y1098220D1*
X1047516Y1099646D1*
X1037468D1*
X1066828Y1093876D2*
X1069713Y1095335D1*
X1074024Y1099613D1*
Y1069502D1*
X1091910Y1099613D2*
X1087599Y1098187D1*
X1084714Y1093876D1*
X1083288Y1086713D1*
Y1082402D1*
X1084714Y1075239D1*
X1087599Y1070928D1*
X1091910Y1069502D1*
X1094762D1*
X1099073Y1070928D1*
X1101924Y1075239D1*
X1103384Y1082402D1*
Y1086713D1*
X1101924Y1093876D1*
X1099073Y1098187D1*
X1094762Y1099613D1*
X1091910D1*
X1101924Y1093876D2*
X1084714Y1075239D1*
X1114106Y1092450D2*
Y1093876D1*
X1115532Y1096761D1*
X1116958Y1098187D1*
X1119843Y1099613D1*
X1125580D1*
X1128432Y1098187D1*
X1129858Y1096761D1*
X1131317Y1093876D1*
Y1091024D1*
X1129858Y1088139D1*
X1127006Y1083861D1*
X1112647Y1069502D1*
X1132743D1*
X1417757Y1099646D2*
X1429231Y1069502D1*
X1440705Y1099646D1*
X1449968D2*
Y1069502D1*
X1460016D1*
X1464327Y1070962D1*
X1467212Y1073813D1*
X1468638Y1076699D1*
X1470064Y1080976D1*
Y1088172D1*
X1468638Y1092484D1*
X1467212Y1095335D1*
X1464327Y1098220D1*
X1460016Y1099646D1*
X1449968D1*
X1479328Y1093876D2*
X1482213Y1095335D1*
X1486524Y1099613D1*
Y1069502D1*
X1504410Y1099613D2*
X1500099Y1098187D1*
X1497214Y1093876D1*
X1495788Y1086713D1*
Y1082402D1*
X1497214Y1075239D1*
X1500099Y1070928D1*
X1504410Y1069502D1*
X1507262D1*
X1511573Y1070928D1*
X1514424Y1075239D1*
X1515884Y1082402D1*
Y1086713D1*
X1514424Y1093876D1*
X1511573Y1098187D1*
X1507262Y1099613D1*
X1504410D1*
X1514424Y1093876D2*
X1497214Y1075239D1*
X1528032Y1099613D2*
X1543784D1*
X1535195Y1088139D1*
X1539506D1*
X1542358Y1086713D1*
X1543784Y1085287D1*
X1545243Y1080976D1*
Y1078124D1*
X1543784Y1073813D1*
X1540932Y1070928D1*
X1536621Y1069502D1*
X1532310D1*
X1528032Y1070928D1*
X1526606Y1072388D1*
X1525147Y1075239D1*
X1829544Y1099646D2*
X1841018Y1069502D1*
X1852492Y1099646D1*
X1861755D2*
Y1069502D1*
X1871803D1*
X1876114Y1070962D1*
X1878999Y1073813D1*
X1880425Y1076699D1*
X1881851Y1080976D1*
Y1088172D1*
X1880425Y1092484D1*
X1878999Y1095335D1*
X1876114Y1098220D1*
X1871803Y1099646D1*
X1861755D1*
X1891115Y1093876D2*
X1894000Y1095335D1*
X1898311Y1099613D1*
Y1069502D1*
X1916197Y1099613D2*
X1911886Y1098187D1*
X1909001Y1093876D1*
X1907575Y1086713D1*
Y1082402D1*
X1909001Y1075239D1*
X1911886Y1070928D1*
X1916197Y1069502D1*
X1919049D1*
X1923360Y1070928D1*
X1926211Y1075239D1*
X1927671Y1082402D1*
Y1086713D1*
X1926211Y1093876D1*
X1923360Y1098187D1*
X1919049Y1099613D1*
X1916197D1*
X1926211Y1093876D2*
X1909001Y1075239D1*
X1951293Y1069502D2*
Y1099613D1*
X1936934Y1079550D1*
X1958456D1*
X485281Y1803387D2*
X496755Y1773243D1*
X508229Y1803387D1*
X526114D2*
X523229Y1801961D1*
X520377Y1799076D1*
X518918Y1796224D1*
X517492Y1791913D1*
Y1784717D1*
X518918Y1780439D1*
X520377Y1777554D1*
X523229Y1774702D1*
X526114Y1773243D1*
X531851D1*
X534703Y1774702D1*
X537588Y1777554D1*
X539014Y1780439D1*
X540440Y1784717D1*
Y1791913D1*
X539014Y1796224D1*
X537588Y1799076D1*
X534703Y1801961D1*
X531851Y1803387D1*
X526114D1*
X549704Y1797616D2*
X552589Y1799076D1*
X556900Y1803353D1*
Y1773243D1*
X574786Y1803353D2*
X570474Y1801927D1*
X567589Y1797616D1*
X566163Y1790454D1*
Y1786143D1*
X567589Y1778980D1*
X570474Y1774669D1*
X574786Y1773243D1*
X577637D1*
X581948Y1774669D1*
X584800Y1778980D1*
X586259Y1786143D1*
Y1790454D1*
X584800Y1797616D1*
X581948Y1801927D1*
X577637Y1803353D1*
X574786D1*
X584800Y1797616D2*
X567589Y1778980D1*
X595523Y1797616D2*
X598408Y1799076D1*
X602719Y1803353D1*
Y1773243D1*
X903831Y1828387D2*
X915305Y1798243D1*
X926779Y1828387D1*
X944664D2*
X941779Y1826961D1*
X938927Y1824076D1*
X937468Y1821224D1*
X936042Y1816913D1*
Y1809717D1*
X937468Y1805439D1*
X938927Y1802554D1*
X941779Y1799702D1*
X944664Y1798243D1*
X950401D1*
X953253Y1799702D1*
X956138Y1802554D1*
X957564Y1805439D1*
X958990Y1809717D1*
Y1816913D1*
X957564Y1821224D1*
X956138Y1824076D1*
X953253Y1826961D1*
X950401Y1828387D1*
X944664D1*
X968254Y1822616D2*
X971139Y1824076D1*
X975450Y1828353D1*
Y1798243D1*
X993336Y1828353D2*
X989025Y1826927D1*
X986139Y1822616D1*
X984714Y1815454D1*
Y1811143D1*
X986139Y1803980D1*
X989025Y1799669D1*
X993336Y1798243D1*
X996187D1*
X1000498Y1799669D1*
X1003350Y1803980D1*
X1004810Y1811143D1*
Y1815454D1*
X1003350Y1822616D1*
X1000498Y1826927D1*
X996187Y1828353D1*
X993336D1*
X1003350Y1822616D2*
X986139Y1803980D1*
X1015532Y1821191D2*
Y1822616D1*
X1016958Y1825502D1*
X1018384Y1826927D1*
X1021269Y1828353D1*
X1027006D1*
X1029858Y1826927D1*
X1031284Y1825502D1*
X1032743Y1822616D1*
Y1819765D1*
X1031284Y1816879D1*
X1028432Y1812602D1*
X1014073Y1798243D1*
X1034169D1*
X1328831Y1828387D2*
X1340305Y1798243D1*
X1351779Y1828387D1*
X1369664D2*
X1366779Y1826961D1*
X1363927Y1824076D1*
X1362468Y1821224D1*
X1361042Y1816913D1*
Y1809717D1*
X1362468Y1805439D1*
X1363927Y1802554D1*
X1366779Y1799702D1*
X1369664Y1798243D1*
X1375401D1*
X1378253Y1799702D1*
X1381138Y1802554D1*
X1382564Y1805439D1*
X1383990Y1809717D1*
Y1816913D1*
X1382564Y1821224D1*
X1381138Y1824076D1*
X1378253Y1826961D1*
X1375401Y1828387D1*
X1369664D1*
X1393254Y1822616D2*
X1396139Y1824076D1*
X1400450Y1828353D1*
Y1798243D1*
X1418336Y1828353D2*
X1414025Y1826927D1*
X1411139Y1822616D1*
X1409714Y1815454D1*
Y1811143D1*
X1411139Y1803980D1*
X1414025Y1799669D1*
X1418336Y1798243D1*
X1421187D1*
X1425498Y1799669D1*
X1428350Y1803980D1*
X1429810Y1811143D1*
Y1815454D1*
X1428350Y1822616D1*
X1425498Y1826927D1*
X1421187Y1828353D1*
X1418336D1*
X1428350Y1822616D2*
X1411139Y1803980D1*
X1441958Y1828353D2*
X1457710D1*
X1449121Y1816879D1*
X1453432D1*
X1456284Y1815454D1*
X1457710Y1814028D1*
X1459169Y1809717D1*
Y1806865D1*
X1457710Y1802554D1*
X1454858Y1799669D1*
X1450547Y1798243D1*
X1446236D1*
X1441958Y1799669D1*
X1440532Y1801128D1*
X1439073Y1803980D1*
X1753118Y1828387D2*
X1764592Y1798243D1*
X1776066Y1828387D1*
X1793951D2*
X1791066Y1826961D1*
X1788214Y1824076D1*
X1786755Y1821224D1*
X1785329Y1816913D1*
Y1809717D1*
X1786755Y1805439D1*
X1788214Y1802554D1*
X1791066Y1799702D1*
X1793951Y1798243D1*
X1799688D1*
X1802540Y1799702D1*
X1805425Y1802554D1*
X1806851Y1805439D1*
X1808277Y1809717D1*
Y1816913D1*
X1806851Y1821224D1*
X1805425Y1824076D1*
X1802540Y1826961D1*
X1799688Y1828387D1*
X1793951D1*
X1817541Y1822616D2*
X1820426Y1824076D1*
X1824737Y1828353D1*
Y1798243D1*
X1842623Y1828353D2*
X1838312Y1826927D1*
X1835426Y1822616D1*
X1834001Y1815454D1*
Y1811143D1*
X1835426Y1803980D1*
X1838312Y1799669D1*
X1842623Y1798243D1*
X1845474D1*
X1849786Y1799669D1*
X1852637Y1803980D1*
X1854097Y1811143D1*
Y1815454D1*
X1852637Y1822616D1*
X1849786Y1826927D1*
X1845474Y1828353D1*
X1842623D1*
X1852637Y1822616D2*
X1835426Y1803980D1*
X1877719Y1798243D2*
Y1828353D1*
X1863360Y1808291D1*
X1884882D1*
X394000Y394000D2*
D11*
X4437307D1*
Y3811323D1*
X394000D1*
Y394000D1*
M02*
