%TF.GenerationSoftware,Novarm,DipTrace,3.3.1.2*%
%TF.CreationDate,2019-02-23T16:05:09+02:00*%
%FSLAX26Y26*%
%MOIN*%
%TF.FileFunction,Soldermask,Top*%
%TF.Part,Single*%
%AMOUTLINE1*
4,1,4,
-0.042326,-0.042326,
-0.042326,0.042326,
0.042326,0.042326,
0.042326,-0.042326,
-0.042326,-0.042326,
0*%
%ADD56R,0.074809X0.094494*%
%ADD58R,0.033471X0.049219*%
%ADD60R,0.031502X0.08662*%
%ADD62R,0.08662X0.031502*%
%ADD64C,0.076778*%
%ADD66R,0.035439X0.043313*%
%ADD68R,0.049219X0.033471*%
%ADD70R,0.084652X0.084652*%
%ADD72C,0.084652*%
%ADD74C,0.106305*%
%ADD76R,0.106305X0.106305*%
%ADD78C,0.07166*%
%ADD80R,0.07166X0.07166*%
%ADD82R,0.051187X0.04725*%
%ADD84R,0.055124X0.055124*%
%ADD86R,0.070872X0.078746*%
%ADD88R,0.059061X0.066935*%
%ADD90R,0.066935X0.059061*%
%ADD92R,0.078746X0.070872*%
%ADD94R,0.04725X0.051187*%
%ADD100OUTLINE1*%
G75*
G01*
%LPD*%
D94*
X3168700Y3231200D3*
Y3298129D3*
D92*
X556200Y1618700D3*
Y1728936D3*
X656200Y1618700D3*
Y1728936D3*
X906200Y1618700D3*
Y1728936D3*
X1018700Y1618700D3*
Y1728936D3*
X1343700Y1618700D3*
Y1728936D3*
X1456200Y1618700D3*
Y1728936D3*
X1731200Y1618700D3*
Y1728936D3*
X1843700Y1618700D3*
Y1728936D3*
D90*
X3456200Y3218700D3*
Y3293503D3*
X2818700Y3218700D3*
Y3293503D3*
D88*
X543700Y2918700D3*
X618503D3*
X543700Y3043700D3*
X618503D3*
D92*
X2918700Y2381200D3*
Y2491436D3*
D86*
X868700Y3018700D3*
X758464D3*
D84*
X643700Y918700D3*
X533464D3*
X2931200Y2193700D3*
X2820964D3*
D94*
X2593700Y2031200D3*
Y1964271D3*
D82*
X568700Y1831200D3*
X635629D3*
D84*
X981200Y918700D3*
X870964D3*
X3543700Y2193700D3*
X3433464D3*
D94*
X3181200Y1881200D3*
Y1814271D3*
D82*
X893700Y1831200D3*
X960629D3*
D84*
X1256200Y918700D3*
X1366436D3*
X3843700Y2216436D3*
Y2106200D3*
D94*
X3806200Y1856200D3*
Y1789271D3*
D82*
X1343700Y1831200D3*
X1410629D3*
D84*
X1643700Y918700D3*
X1753936D3*
X3843700Y2356200D3*
Y2466436D3*
D82*
X1731200Y1831200D3*
X1798129D3*
D94*
X3818700Y2793700D3*
Y2860629D3*
D84*
X531200Y3193700D3*
Y3303936D3*
X643700Y3193700D3*
Y3303936D3*
X868700Y3281200D3*
Y3170964D3*
X756200Y3281200D3*
Y3170964D3*
D94*
X543700Y2806200D3*
Y2739271D3*
D80*
X756200Y2631200D3*
D78*
X856200D3*
X956200D3*
X1056200D3*
X1156200D3*
X1256200D3*
X1356200D3*
X1456200D3*
X1556200D3*
X1656200D3*
X1756200D3*
X1856200D3*
X1956200D3*
X2056200D3*
X2156200D3*
X2256200D3*
D80*
X756200Y2031200D3*
D78*
X856200D3*
X956200D3*
X1056200D3*
X1156200D3*
X1256200D3*
X1356200D3*
X1456200D3*
X1556200D3*
X1656200D3*
X1756200D3*
X1856200D3*
X1956200D3*
X2056200D3*
X2156200D3*
X2256200D3*
D76*
X590550Y3543306D3*
D74*
X787401D3*
X984251D3*
D76*
X1181102D3*
D74*
X1377952D3*
X1574802D3*
D76*
X1771653D3*
D74*
X1968503D3*
X2165354D3*
D76*
X2665354D3*
D74*
X2862204D3*
X3059054D3*
D76*
X3255905D3*
D74*
X3452755D3*
X3649606D3*
D76*
X3846456D3*
D74*
X4043306D3*
X4240157D3*
D76*
X984251Y661417D3*
D74*
X787401D3*
X590550D3*
D76*
X1574802D3*
D74*
X1377952D3*
X1181102D3*
D76*
X2165354D3*
D74*
X1968503D3*
X1771653D3*
D76*
X3059054D3*
D74*
X2862204D3*
X2665354D3*
D76*
X3649606D3*
D74*
X3452755D3*
X3255905D3*
D76*
X4240157D3*
D74*
X4043306D3*
X3846456D3*
D72*
X3031200Y2031200D3*
D70*
X2731200D3*
D72*
X3031200Y1287106D3*
X2731200Y1161121D3*
X3031200Y1035137D3*
X3643700Y2031200D3*
D70*
X3343700D3*
D72*
X3643700Y1287106D3*
X3343700Y1161121D3*
X3643700Y1035137D3*
X4268700Y2018700D3*
D100*
X3968700D3*
D72*
X4268700Y1274606D3*
X3968700Y1148621D3*
X4268700Y1022637D3*
X3968700Y2218700D3*
D70*
X4268700D3*
D72*
X3968700Y2962794D3*
X4268700Y3088779D3*
X3968700Y3214763D3*
D68*
X2018700Y2406200D3*
Y2331397D3*
X2109251Y2368798D3*
X1818700Y2406200D3*
Y2331397D3*
X1909251Y2368798D3*
X1606200Y2406200D3*
Y2331397D3*
X1696751Y2368798D3*
X1381200Y2406200D3*
Y2331397D3*
X1471751Y2368798D3*
D66*
X3118700Y3043700D3*
Y3094881D3*
D94*
X3256200Y3231200D3*
Y3298129D3*
X3343700Y3306200D3*
Y3239271D3*
X3681200Y3218700D3*
Y3285629D3*
X3593700Y3281200D3*
Y3214271D3*
D86*
X656200Y1031200D3*
X545964D3*
D94*
X1056200Y2143700D3*
Y2210629D3*
D92*
X768700Y918700D3*
Y1028936D3*
D94*
X968700Y2143700D3*
Y2210629D3*
X1268700Y2456200D3*
Y2523129D3*
X2593700Y1856200D3*
Y1789271D3*
X1268700Y2381200D3*
Y2314271D3*
D86*
X993700Y1031200D3*
X883464D3*
D94*
X1156200Y2143700D3*
Y2210629D3*
D92*
X1106200Y931200D3*
Y1041436D3*
D94*
X881200Y2143700D3*
Y2210629D3*
X1168700Y2456200D3*
Y2523129D3*
X3181200Y2056200D3*
Y1989271D3*
X1168700Y2385629D3*
Y2318700D3*
D86*
X1243700Y1031200D3*
X1353936D3*
D94*
X1256200Y2143700D3*
Y2210629D3*
D92*
X1481200Y931200D3*
Y1041436D3*
D94*
X1531200Y2143700D3*
Y2210629D3*
X1043700Y2456200D3*
Y2523129D3*
X3806200Y2031200D3*
Y1964271D3*
X1043700Y2393700D3*
Y2326771D3*
D86*
X1631200Y1031200D3*
X1741436D3*
D94*
X1356200Y2143700D3*
Y2210629D3*
D92*
X1881200Y931200D3*
Y1041436D3*
D94*
X1443700Y2143700D3*
Y2210629D3*
X918700Y2456200D3*
Y2523129D3*
Y2393700D3*
Y2326771D3*
X3818700Y2618700D3*
Y2685629D3*
D82*
X3543700Y2781200D3*
X3610629D3*
D94*
X3118700Y2843700D3*
Y2776771D3*
X643700Y2743700D3*
Y2810629D3*
D64*
X1206200Y2943700D3*
Y3043700D3*
Y3143700D3*
D62*
X3281200Y3106200D3*
Y3056200D3*
Y3006200D3*
Y2956200D3*
X3493798D3*
Y3006200D3*
Y3056200D3*
Y3106200D3*
D60*
X1781200Y2893700D3*
X1831200D3*
X1881200D3*
X1931200D3*
Y3106298D3*
X1881200D3*
X1831200D3*
X1781200D3*
X1456200Y2893700D3*
X1506200D3*
X1556200D3*
X1606200D3*
Y3106298D3*
X1556200D3*
X1506200D3*
X1456200D3*
D58*
X1781200Y3306200D3*
X1706397D3*
X1743798Y3215649D3*
X1456200Y3306200D3*
X1381397D3*
X1418798Y3215649D3*
D60*
X3281200Y2556200D3*
X3331200D3*
X3381200D3*
X3431200D3*
Y2768798D3*
X3381200D3*
X3331200D3*
X3281200D3*
D56*
X556200Y1156200D3*
X656200D3*
Y1490846D3*
X556200D3*
X906200Y1156200D3*
X1006200D3*
Y1490846D3*
X906200D3*
X1343700Y1156200D3*
X1443700D3*
Y1490846D3*
X1343700D3*
X1731200Y1156200D3*
X1831200D3*
Y1490846D3*
X1731200D3*
M02*
