%TF.GenerationSoftware,Novarm,DipTrace,3.0.0.2*%
%TF.CreationDate,2017-03-07T09:53:01+02:00*%
%FSLAX26Y26*%
%MOIN*%
%TF.FileFunction,Soldermask,Top*%
%TF.Part,Single*%
%ADD61R,0.074929X0.094614*%
%ADD63R,0.08674X0.106425*%
%ADD65R,0.250126X0.226504*%
%ADD67R,0.116268X0.04737*%
%ADD69R,0.08674X0.031622*%
%ADD71R,0.078866X0.070992*%
%ADD73R,0.070992X0.078866*%
%ADD75R,0.033591X0.049339*%
%ADD77R,0.084772X0.084772*%
%ADD79C,0.084772*%
%ADD81C,0.074929*%
%ADD83R,0.074929X0.074929*%
%ADD85C,0.106425*%
%ADD87R,0.106425X0.106425*%
%ADD89C,0.07178*%
%ADD91R,0.07178X0.07178*%
%ADD93R,0.070992X0.039496*%
%ADD95R,0.039496X0.070992*%
%ADD97R,0.051307X0.057213*%
%ADD99R,0.067055X0.059181*%
%ADD101R,0.070992X0.132016*%
%ADD103R,0.132016X0.070992*%
G75*
G01*
%LPD*%
D103*
X3069000Y3194000D3*
X3261913D3*
X869000D3*
X1061913D3*
D101*
X1094000Y2156500D3*
Y1963587D3*
D103*
X1794000Y3194000D3*
X1986913D3*
D99*
X869000Y2819000D3*
Y2744197D3*
X2281500Y3231500D3*
Y3156697D3*
X869000Y2981500D3*
Y2906697D3*
D103*
X3419000Y3194000D3*
X3611913D3*
D101*
X1406500Y2156500D3*
Y1963587D3*
X1769000Y2156500D3*
Y1963587D3*
X2131500Y2169000D3*
Y1976087D3*
X2494000Y2169000D3*
Y1976087D3*
D97*
X1156500Y2881500D3*
Y2974020D3*
X3819000Y2394000D3*
Y2486520D3*
X1594000Y2206500D3*
Y2113980D3*
D95*
X2994000Y2219000D3*
X2860142D3*
D97*
X1944000Y2206500D3*
Y2113980D3*
X3956500Y2394000D3*
Y2486520D3*
D95*
X3569000Y2219000D3*
X3435142D3*
D97*
X2319000D3*
Y2126480D3*
X4106500Y2394000D3*
Y2486520D3*
D95*
X4131500Y2231500D3*
X3997642D3*
D97*
X2681500Y2206500D3*
Y2113980D3*
X4244000Y2394000D3*
Y2486520D3*
D93*
X3106500Y2869000D3*
Y2735142D3*
D91*
X1394000Y2969000D3*
D89*
X1494000D3*
X1594000D3*
X1694000D3*
X1794000D3*
X1894000D3*
X1994000D3*
X2094000D3*
X2194000D3*
X2294000D3*
X2394000D3*
X2494000D3*
X2594000D3*
X2694000D3*
X2794000D3*
X2894000D3*
D91*
X1394000Y2369000D3*
D89*
X1494000D3*
X1594000D3*
X1694000D3*
X1794000D3*
X1894000D3*
X1994000D3*
X2094000D3*
X2194000D3*
X2294000D3*
X2394000D3*
X2494000D3*
X2594000D3*
X2694000D3*
X2794000D3*
X2894000D3*
D87*
X590850Y3543606D3*
D85*
X787701D3*
X984551D3*
D87*
X1181402D3*
D85*
X1378252D3*
X1575102D3*
D87*
X1771953D3*
D85*
X1968803D3*
X2165654D3*
D87*
X2665654D3*
D85*
X2862504D3*
X3059354D3*
D87*
X3256205D3*
D85*
X3453055D3*
X3649906D3*
D87*
X3846756D3*
D85*
X4043606D3*
X4240457D3*
D87*
X984551Y661717D3*
D85*
X787701D3*
X590850D3*
D87*
X1575102D3*
D85*
X1378252D3*
X1181402D3*
D87*
X2165654D3*
D85*
X1968803D3*
X1771953D3*
D87*
X3059354D3*
D85*
X2862504D3*
X2665654D3*
D87*
X3649906D3*
D85*
X3453055D3*
X3256205D3*
D87*
X4240457D3*
D85*
X4043606D3*
X3846756D3*
D83*
X869000Y931500D3*
D81*
Y1031500D3*
D83*
X1294000Y931500D3*
D81*
Y1031500D3*
D83*
X1719000Y931500D3*
D81*
Y1031500D3*
D83*
X2156500Y931500D3*
D81*
Y1031500D3*
D79*
X3081500Y2081500D3*
D77*
X2781500D3*
D79*
X3081500Y1337406D3*
X2781500Y1211421D3*
X3081500Y1085437D3*
X3656500Y2081500D3*
D77*
X3356500D3*
D79*
X3656500Y1337406D3*
X3356500Y1211421D3*
X3656500Y1085437D3*
X4231500Y2069000D3*
D77*
X3931500D3*
D79*
X4231500Y1324906D3*
X3931500Y1198921D3*
X4231500Y1072937D3*
X3244000Y2956500D3*
D77*
Y2656500D3*
D79*
X3988094Y2956500D3*
X4114079Y2656500D3*
X4240063Y2956500D3*
D75*
X3194000Y2444000D3*
X3119197D3*
X3156598Y2353449D3*
X3394000Y2444000D3*
X3319197D3*
X3356598Y2353449D3*
X3606500Y2444000D3*
X3531697D3*
X3569098Y2353449D3*
X2944000Y2819000D3*
X2869197D3*
X2906598Y2728449D3*
D99*
X2481500Y3169000D3*
Y3243803D3*
X2569000Y2769000D3*
Y2843803D3*
X1644000Y2619000D3*
Y2544197D3*
X1844000Y2769000D3*
Y2843803D3*
X1556500Y2768598D3*
Y2843402D3*
X2244000Y2544000D3*
Y2618803D3*
X2719000Y2769000D3*
Y2843803D3*
X2431500Y2769000D3*
Y2843803D3*
D73*
X831500Y1519000D3*
X941736D3*
D71*
X869000Y1406500D3*
Y1296264D3*
D99*
X2556500Y2544000D3*
Y2618803D3*
X869000Y1144000D3*
Y1218803D3*
X2131500Y2769000D3*
Y2843803D3*
X1194000Y2544598D3*
Y2619402D3*
X1981500Y2769000D3*
Y2843803D3*
X1056500Y2619402D3*
Y2544598D3*
D73*
X1244000Y1519000D3*
X1354236D3*
D71*
X1294000Y1406118D3*
Y1295882D3*
D99*
Y1143598D3*
Y1218402D3*
X2719000Y2544000D3*
Y2618803D3*
X1819000Y1844000D3*
Y1769197D3*
X1944000Y2544000D3*
Y2618803D3*
X2094000Y2619000D3*
Y2544197D3*
X1331500Y2619000D3*
Y2544197D3*
D73*
X1681500Y1519000D3*
X1791736D3*
D71*
X1719000Y1406118D3*
Y1295882D3*
D99*
Y1144000D3*
Y1218803D3*
X2281500Y1769000D3*
Y1843803D3*
X2881500Y2544000D3*
Y2618803D3*
X2394000D3*
Y2544000D3*
X2144000Y1769000D3*
Y1843803D3*
X2281500Y2769000D3*
Y2843803D3*
D73*
X2119000Y1519000D3*
X2229236D3*
D71*
X2156500Y1406118D3*
Y1295882D3*
D99*
Y1144000D3*
Y1218803D3*
X2569000Y1769000D3*
Y1843803D3*
X3031500Y2544000D3*
Y2618803D3*
X1494000Y2619000D3*
Y2544197D3*
X2431500Y1844000D3*
Y1769197D3*
X1694000Y2769000D3*
Y2843803D3*
D69*
X2631500Y3269000D3*
Y3219000D3*
Y3169000D3*
Y3119000D3*
X2844098D3*
Y3169000D3*
Y3219000D3*
Y3269000D3*
D67*
X518646Y2648528D3*
Y2469000D3*
D65*
X782425Y2558764D3*
D67*
X519000Y2319000D3*
Y2139472D3*
D65*
X782780Y2229236D3*
D69*
X1619000Y3119000D3*
Y3169000D3*
Y3219000D3*
Y3269000D3*
X1406402D3*
Y3219000D3*
Y3169000D3*
Y3119000D3*
D75*
X1281500Y3269000D3*
X1206697D3*
X1244098Y3178449D3*
D63*
X719000Y2856500D3*
X519000D3*
X719000Y3256500D3*
X519000D3*
X544000Y1331500D3*
X744000D3*
X544000Y931500D3*
X744000D3*
X981500Y1331500D3*
X1181500D3*
X981500Y931500D3*
X1181500D3*
X1406500Y1331500D3*
X1606500D3*
X1406500Y931500D3*
X1606500D3*
X1831500Y1331500D3*
X2031500D3*
X1831500Y931500D3*
X2031500D3*
D61*
X644000Y1468677D3*
X744000D3*
Y1803323D3*
X644000D3*
X1031500Y1468677D3*
X1131500D3*
Y1803323D3*
X1031500D3*
X1469000Y1469000D3*
X1569000D3*
Y1803646D3*
X1469000D3*
X1919000Y1469000D3*
X2019000D3*
Y1803646D3*
X1919000D3*
M02*
