%TF.GenerationSoftware,Novarm,DipTrace,3.1.0.1*%
%TF.CreationDate,2017-07-10T10:23:29+02:00*%
%FSLAX26Y26*%
%MOIN*%
%TF.FileFunction,Soldermask,Top*%
%TF.Part,Single*%
%AMOUTLINE1*
4,1,4,
0.035496,0.019748,
0.035496,-0.019748,
-0.035496,-0.019748,
-0.035496,0.019748,
0.035496,0.019748,
0*%
%AMOUTLINE4*
4,1,4,
-0.035496,-0.019748,
-0.035496,0.019748,
0.035496,0.019748,
0.035496,-0.019748,
-0.035496,-0.019748,
0*%
%AMOUTLINE7*5,1,4,0,0,0.119885,-135.0*%
%ADD66R,0.074929X0.094614*%
%ADD68R,0.08674X0.106425*%
%ADD70R,0.08674X0.031622*%
%ADD72R,0.250126X0.226504*%
%ADD74R,0.116268X0.04737*%
%ADD76R,0.031622X0.08674*%
%ADD78R,0.078866X0.070992*%
%ADD80R,0.070992X0.078866*%
%ADD82R,0.033591X0.049339*%
%ADD84R,0.053276X0.114299*%
%ADD86R,0.084772X0.084772*%
%ADD88C,0.084772*%
%ADD90C,0.074929*%
%ADD92R,0.074929X0.074929*%
%ADD94C,0.067055*%
%ADD96R,0.067055X0.067055*%
%ADD98C,0.106425*%
%ADD100R,0.106425X0.106425*%
%ADD102C,0.07178*%
%ADD104R,0.07178X0.07178*%
%ADD106R,0.051307X0.057213*%
%ADD108R,0.063118X0.090677*%
%ADD110R,0.057213X0.051307*%
%ADD112R,0.04737X0.051307*%
%ADD114R,0.051307X0.04737*%
%ADD116R,0.059181X0.067055*%
%ADD118C,0.070992*%
%ADD120R,0.070992X0.070992*%
%ADD126OUTLINE1*%
%ADD129OUTLINE4*%
%ADD132OUTLINE7*%
G75*
G01*
%LPD*%
D120*
X844000Y2469000D3*
D118*
X544000D3*
D116*
X794000Y2744000D3*
X719197D3*
X594000D3*
X519197D3*
X1144000Y2931500D3*
X1218803D3*
D114*
X1056500Y2169000D3*
X989571D3*
D120*
X1294000Y2606500D3*
D118*
X994000D3*
D112*
X1131500Y3044000D3*
Y3110929D3*
D114*
X994000Y1994000D3*
X1060929D3*
X1056500Y2081500D3*
X989571D3*
D112*
X3231500Y3239535D3*
Y3306465D3*
X3494000Y3239535D3*
Y3306465D3*
X1744000Y3256500D3*
Y3323429D3*
D114*
X2706500Y2531500D3*
X2773429D3*
D112*
X1744000Y3181500D3*
Y3114571D3*
X1269000Y2031500D3*
Y1964571D3*
X1481500Y2031500D3*
Y1964571D3*
X1669000Y2031500D3*
Y1964571D3*
X1869000Y2031500D3*
Y1964571D3*
D110*
X1238980Y2319000D3*
X1331500D3*
D108*
X1206500Y3256500D3*
X1360038D3*
D106*
X3231500Y2894000D3*
Y2801480D3*
D126*
X2594000Y1969000D3*
Y2102859D3*
D106*
X1269000Y2231500D3*
Y2138980D3*
X3431500Y2894000D3*
Y2801480D3*
X1469000Y2231500D3*
Y2138980D3*
D126*
X3181500Y1944000D3*
Y2077859D3*
D106*
X3631500Y2906500D3*
Y2813980D3*
X1681500Y2231500D3*
Y2138980D3*
D126*
X3806500Y1956500D3*
Y2090359D3*
D106*
X1881500Y2231500D3*
Y2138980D3*
X3831500Y2906500D3*
Y2813980D3*
D129*
X3806500Y2206500D3*
Y2340359D3*
D104*
X1506500Y2981500D3*
D102*
X1606500D3*
X1706500D3*
X1806500D3*
X1906500D3*
X2006500D3*
X2106500D3*
X2206500D3*
X2306500D3*
X2406500D3*
X2506500D3*
X2606500D3*
X2706500D3*
X2806500D3*
X2906500D3*
X3006500D3*
D104*
X1506500Y2381500D3*
D102*
X1606500D3*
X1706500D3*
X1806500D3*
X1906500D3*
X2006500D3*
X2106500D3*
X2206500D3*
X2306500D3*
X2406500D3*
X2506500D3*
X2606500D3*
X2706500D3*
X2806500D3*
X2906500D3*
X3006500D3*
D100*
X590850Y3543606D3*
D98*
X787701D3*
X984551D3*
D100*
X1181402D3*
D98*
X1378252D3*
X1575102D3*
D100*
X1771953D3*
D98*
X1968803D3*
X2165654D3*
D100*
X2665654D3*
D98*
X2862504D3*
X3059354D3*
D100*
X3256205D3*
D98*
X3453055D3*
X3649906D3*
D100*
X3846756D3*
D98*
X4043606D3*
X4240457D3*
D100*
X984551Y661717D3*
D98*
X787701D3*
X590850D3*
D100*
X1575102D3*
D98*
X1378252D3*
X1181402D3*
D100*
X2165654D3*
D98*
X1968803D3*
X1771953D3*
D100*
X3059354D3*
D98*
X2862504D3*
X2665654D3*
D100*
X3649906D3*
D98*
X3453055D3*
X3256205D3*
D100*
X4240457D3*
D98*
X4043606D3*
X3846756D3*
D96*
X2469000Y2206500D3*
D94*
X2569000D3*
X2669000D3*
X2769000D3*
X2869000D3*
X2969000D3*
X3069000D3*
X3169000D3*
X3269000D3*
X3369000D3*
D92*
X856500Y1006500D3*
D90*
Y1106500D3*
D92*
X1281500Y1006500D3*
D90*
Y1106500D3*
D92*
X1694000Y1006500D3*
D90*
Y1106500D3*
D92*
X2106500Y1019000D3*
D90*
Y1119000D3*
D88*
X3031500Y2031500D3*
D86*
X2731500D3*
D88*
X3031500Y1287406D3*
X2731500Y1161421D3*
X3031500Y1035437D3*
X3644000Y2031500D3*
D86*
X3344000D3*
D88*
X3644000Y1287406D3*
X3344000Y1161421D3*
X3644000Y1035437D3*
X4269000Y2019000D3*
D132*
X3969000D3*
D88*
X4269000Y1274906D3*
X3969000Y1148921D3*
X4269000Y1022937D3*
X3969000Y2219000D3*
D86*
X4269000D3*
D88*
X3969000Y2963094D3*
X4269000Y3089079D3*
X3969000Y3215063D3*
D84*
X1031500Y3256500D3*
X913390D3*
D82*
X3206500Y2444000D3*
X3131697D3*
X3169098Y2353449D3*
X3544000Y2444000D3*
X3469197D3*
X3506598Y2353449D3*
X3706500Y2444000D3*
X3631697D3*
X3669098Y2353449D3*
X3381500Y2444000D3*
X3306697D3*
X3344098Y2353449D3*
D112*
X1531500Y2756500D3*
Y2823429D3*
D114*
X1056500Y2319000D3*
X1123429D3*
D112*
X1619000Y2756500D3*
Y2823429D3*
X1706500Y2756500D3*
Y2823429D3*
X1794000Y2756500D3*
Y2823429D3*
X1319000Y3110929D3*
Y3044000D3*
X1231500Y3039571D3*
Y3106500D3*
D114*
X2631500Y3256500D3*
X2698429D3*
D112*
X3319000Y3239535D3*
Y3306465D3*
X3406500D3*
Y3239535D3*
D114*
X2231500Y3319000D3*
X2164571D3*
X2694000Y3131500D3*
X2627071D3*
D112*
X3669000Y3239535D3*
Y3306465D3*
X3581500Y3306500D3*
Y3239571D3*
D80*
X519000Y1419000D3*
X629236D3*
D78*
X744000Y1431500D3*
Y1541736D3*
D112*
X1169000Y1969000D3*
Y2035929D3*
X3144000Y2894000D3*
Y2827071D3*
X856500Y1256500D3*
Y1323429D3*
X1169000Y2219000D3*
Y2152071D3*
X3294000Y2544000D3*
Y2610929D3*
D80*
X944000Y1419000D3*
X1054236D3*
D78*
X1181500Y1431500D3*
Y1541736D3*
D112*
X1369000Y1969000D3*
Y2035929D3*
X1281500Y1231500D3*
Y1298429D3*
X1369000Y2219000D3*
Y2152071D3*
X3331500Y2894000D3*
Y2827071D3*
X3556500Y2544000D3*
Y2610929D3*
D80*
X1369000Y1419000D3*
X1479236D3*
D78*
X1594000D3*
Y1529236D3*
D112*
X1581500Y1956500D3*
Y2023429D3*
X1694000Y1256500D3*
Y1323429D3*
X1581500Y2219000D3*
Y2152071D3*
X3531500Y2906500D3*
Y2839571D3*
X3694000Y2552071D3*
Y2619000D3*
D80*
X1781500Y1419000D3*
X1891736D3*
D78*
X2006500Y1431500D3*
Y1541736D3*
D112*
X1769000Y1969000D3*
Y2035929D3*
X2119000Y1244000D3*
Y1310929D3*
X1781500Y2206500D3*
Y2139571D3*
X3731500Y2906500D3*
Y2839571D3*
X3431500Y2544000D3*
Y2610929D3*
D76*
X1006500Y3094000D3*
X956500D3*
X906500D3*
X856500D3*
Y2881402D3*
X906500D3*
X956500D3*
X1006500D3*
D74*
X544000Y2181500D3*
Y2001972D3*
D72*
X807780Y2091736D3*
D70*
X2869000Y3281500D3*
Y3231500D3*
Y3181500D3*
Y3131500D3*
X3081598D3*
Y3181500D3*
Y3231500D3*
Y3281500D3*
X2056500Y3169000D3*
Y3219000D3*
Y3269000D3*
Y3319000D3*
X1843902D3*
Y3269000D3*
Y3219000D3*
Y3169000D3*
D82*
X1644000Y3319000D3*
X1569197D3*
X1606598Y3228449D3*
D68*
X744000Y2856500D3*
X544000D3*
X744000Y3256500D3*
X544000D3*
Y1306500D3*
X744000D3*
X544000Y906500D3*
X744000D3*
X969000Y1306500D3*
X1169000D3*
X969000Y906500D3*
X1169000D3*
X1381500Y1306500D3*
X1581500D3*
X1381500Y906500D3*
X1581500D3*
X1794000Y1306500D3*
X1994000D3*
X1794000Y906500D3*
X1994000D3*
D66*
X519000Y1531500D3*
X619000D3*
Y1866146D3*
X519000D3*
X944000Y1531500D3*
X1044000D3*
Y1866146D3*
X944000D3*
X1369000Y1531500D3*
X1469000D3*
Y1866146D3*
X1369000D3*
X1794000Y1531500D3*
X1894000D3*
Y1866146D3*
X1794000D3*
M02*
