%TF.GenerationSoftware,Novarm,DipTrace,3.0.0.2*%
%TF.CreationDate,2017-03-04T22:17:05+02:00*%
%FSLAX26Y26*%
%MOIN*%
%TF.FileFunction,Soldermask,Top*%
%TF.Part,Single*%
%ADD58R,0.074929X0.094614*%
%ADD60R,0.08674X0.106425*%
%ADD62R,0.031622X0.08674*%
%ADD64R,0.250126X0.226504*%
%ADD66R,0.116268X0.04737*%
%ADD68R,0.08674X0.031622*%
%ADD70R,0.078866X0.070992*%
%ADD72R,0.033591X0.049339*%
%ADD74R,0.084772X0.084772*%
%ADD76C,0.084772*%
%ADD78C,0.106425*%
%ADD80R,0.106425X0.106425*%
%ADD82C,0.07178*%
%ADD84R,0.07178X0.07178*%
%ADD86R,0.070992X0.039496*%
%ADD88R,0.051307X0.057213*%
%ADD90R,0.039496X0.070992*%
%ADD92R,0.067055X0.059181*%
%ADD94R,0.070992X0.132016*%
%ADD96R,0.132016X0.070992*%
G75*
G01*
%LPD*%
D96*
X2494000Y3194000D3*
X2686913D3*
X869000D3*
X1061913D3*
D94*
X1244000Y2181500D3*
Y1988587D3*
D96*
X1444000Y3194000D3*
X1636913D3*
D92*
X981500Y2556500D3*
Y2481697D3*
Y2694000D3*
Y2768803D3*
Y2981500D3*
Y2906697D3*
D96*
X2844000Y3194000D3*
X3036913D3*
D94*
X1556500Y2181500D3*
Y1988587D3*
X1869000Y2181457D3*
Y1988543D3*
X2169000Y2181457D3*
Y1988543D3*
X2456500Y2181457D3*
Y1988543D3*
D90*
X1906500Y3119000D3*
X1772642D3*
D88*
X1056500Y1918740D3*
Y2011260D3*
D90*
X1906500Y3244000D3*
X1772642D3*
D88*
X3819000Y2444000D3*
Y2536520D3*
X519000Y1919000D3*
Y2011520D3*
D90*
X2994000Y2219000D3*
X2860142D3*
D88*
X656500Y1919000D3*
Y2011520D3*
X3956500Y2444000D3*
Y2536520D3*
D90*
X3569000Y2219000D3*
X3435142D3*
D88*
X794000Y1919000D3*
Y2011520D3*
X4119000Y2444000D3*
Y2536520D3*
D90*
X4131500Y2231500D3*
X3997642D3*
D88*
X931500Y1919000D3*
Y2011520D3*
X4244000Y2444000D3*
Y2536520D3*
D86*
X3106500Y2969000D3*
Y2835142D3*
D84*
X1394000Y2969000D3*
D82*
X1494000D3*
X1594000D3*
X1694000D3*
X1794000D3*
X1894000D3*
X1994000D3*
X2094000D3*
X2194000D3*
X2294000D3*
X2394000D3*
X2494000D3*
X2594000D3*
X2694000D3*
X2794000D3*
X2894000D3*
D84*
X1394000Y2369000D3*
D82*
X1494000D3*
X1594000D3*
X1694000D3*
X1794000D3*
X1894000D3*
X1994000D3*
X2094000D3*
X2194000D3*
X2294000D3*
X2394000D3*
X2494000D3*
X2594000D3*
X2694000D3*
X2794000D3*
X2894000D3*
D80*
X590850Y3543606D3*
D78*
X787701D3*
X984551D3*
D80*
X1181402D3*
D78*
X1378252D3*
X1575102D3*
D80*
X1771953D3*
D78*
X1968803D3*
X2165654D3*
D80*
X2665654D3*
D78*
X2862504D3*
X3059354D3*
D80*
X3256205D3*
D78*
X3453055D3*
X3649906D3*
D80*
X3846756D3*
D78*
X4043606D3*
X4240457D3*
D80*
X984551Y661717D3*
D78*
X787701D3*
X590850D3*
D80*
X1575102D3*
D78*
X1378252D3*
X1181402D3*
D80*
X2165654D3*
D78*
X1968803D3*
X1771953D3*
D80*
X3059354D3*
D78*
X2862504D3*
X2665654D3*
D80*
X3649906D3*
D78*
X3453055D3*
X3256205D3*
D80*
X4240457D3*
D78*
X4043606D3*
X3846756D3*
D76*
X3081500Y2081500D3*
D74*
X2781500D3*
D76*
X3081500Y1337406D3*
X2781500Y1211421D3*
X3081500Y1085437D3*
X3656500Y2081500D3*
D74*
X3356500D3*
D76*
X3656500Y1337406D3*
X3356500Y1211421D3*
X3656500Y1085437D3*
X4231500Y2069000D3*
D74*
X3931500D3*
D76*
X4231500Y1324906D3*
X3931500Y1198921D3*
X4231500Y1072937D3*
X3244000Y3094000D3*
D74*
Y2794000D3*
D76*
X3988094Y3094000D3*
X4114079Y2794000D3*
X4240063Y3094000D3*
D72*
X3206500Y2406500D3*
X3131697D3*
X3169098Y2315949D3*
X3406500Y2406500D3*
X3331697D3*
X3369098Y2315949D3*
X3619000Y2406500D3*
X3544197D3*
X3581598Y2315949D3*
X2944000Y2819000D3*
X2869197D3*
X2906598Y2728449D3*
D92*
X3206500Y3281500D3*
Y3206697D3*
X3356500Y3206500D3*
Y3281303D3*
X1831500Y2619000D3*
Y2544197D3*
X2131500Y2544598D3*
Y2619402D3*
X1844000Y2769000D3*
Y2843803D3*
X1981500Y2544598D3*
Y2619402D3*
X1556500Y2768598D3*
Y2843402D3*
X3506500Y3281500D3*
Y3206697D3*
X3644000Y3206500D3*
Y3281303D3*
X2431500Y2769000D3*
Y2843803D3*
X2731500Y2544598D3*
Y2619402D3*
X2581500Y2544598D3*
Y2619402D3*
D70*
X531500Y1444000D3*
Y1554236D3*
D92*
X3044000Y2544598D3*
Y2619402D3*
X2131500Y2769000D3*
Y2843803D3*
X1381500Y2544598D3*
Y2619402D3*
D70*
X869000Y1356882D3*
Y1467118D3*
D92*
X1981500Y2769000D3*
Y2843803D3*
X1244000Y2619402D3*
Y2544598D3*
D70*
X869000Y1169000D3*
Y1058764D3*
D92*
X3206500Y2544598D3*
Y2619402D3*
X1819000Y1844000D3*
Y1769197D3*
D70*
X1294000Y1356882D3*
Y1467118D3*
D92*
X2281500Y2544598D3*
Y2619402D3*
X2431500Y2619000D3*
Y2544197D3*
X1519000Y2619000D3*
Y2544197D3*
D70*
X1294000Y1169000D3*
Y1058764D3*
D92*
X2281500Y1769000D3*
Y1843803D3*
X3369000Y2544598D3*
Y2619402D3*
D70*
X1719000Y1356882D3*
Y1467118D3*
D92*
X2881500Y2619402D3*
Y2544598D3*
X2144000Y1769000D3*
Y1843803D3*
X2281500Y2769000D3*
Y2843803D3*
D70*
X1719000Y1169000D3*
Y1058764D3*
D92*
X2569000Y1769000D3*
Y1843803D3*
D70*
X2156500Y1356882D3*
Y1467118D3*
D92*
X3519000Y2544598D3*
Y2619402D3*
X1681500Y2619000D3*
Y2544197D3*
X2431500Y1844000D3*
Y1769197D3*
X1694000Y2769000D3*
Y2843803D3*
D68*
X2119000Y3269000D3*
Y3219000D3*
Y3169000D3*
Y3119000D3*
X2331598D3*
Y3169000D3*
Y3219000D3*
Y3269000D3*
D66*
X518646Y2648528D3*
Y2469000D3*
D64*
X782425Y2558764D3*
D66*
X519000Y2319000D3*
Y2139472D3*
D64*
X782780Y2229236D3*
D62*
X1131500Y2756500D3*
X1181500D3*
X1231500D3*
X1281500D3*
Y2969098D3*
X1231500D3*
X1181500D3*
X1131500D3*
D72*
X1281500Y3269000D3*
X1206697D3*
X1244098Y3178449D3*
D60*
X719000Y2856500D3*
X519000D3*
X719000Y3256500D3*
X519000D3*
X544000Y1331500D3*
X744000D3*
X544000Y931500D3*
X744000D3*
X981500Y1331500D3*
X1181500D3*
X981500Y931500D3*
X1181500D3*
X1406500Y1331500D3*
X1606500D3*
X1406500Y931500D3*
X1606500D3*
X1831500Y1331500D3*
X2031500D3*
X1831500Y931500D3*
X2031500D3*
D58*
X644000Y1468677D3*
X744000D3*
Y1803323D3*
X644000D3*
X1031500Y1468677D3*
X1131500D3*
Y1803323D3*
X1031500D3*
X1469000Y1469000D3*
X1569000D3*
Y1803646D3*
X1469000D3*
X1919000Y1469000D3*
X2019000D3*
Y1803646D3*
X1919000D3*
M02*
