%TF.GenerationSoftware,Novarm,DipTrace,3.0.0.2*%
%TF.CreationDate,2017-04-09T13:14:59+02:00*%
%FSLAX26Y26*%
%MOIN*%
%TF.FileFunction,Soldermask,Top*%
%TF.Part,Single*%
%AMOUTLINE1*
4,1,4,
0.035496,0.019748,
0.035496,-0.019748,
-0.035496,-0.019748,
-0.035496,0.019748,
0.035496,0.019748,
0*%
%AMOUTLINE4*
4,1,4,
-0.019748,0.035496,
0.019748,0.035496,
0.019748,-0.035496,
-0.019748,-0.035496,
-0.019748,0.035496,
0*%
%AMOUTLINE7*
4,1,4,
0.019748,-0.035496,
-0.019748,-0.035496,
-0.019748,0.035496,
0.019748,0.035496,
0.019748,-0.035496,
0*%
%AMOUTLINE10*5,1,4,0,0,0.119885,-135.0*%
%ADD60R,0.074929X0.094614*%
%ADD62R,0.08674X0.106425*%
%ADD64R,0.08674X0.031622*%
%ADD66R,0.250126X0.226504*%
%ADD68R,0.116268X0.04737*%
%ADD70R,0.078866X0.070992*%
%ADD72R,0.070992X0.078866*%
%ADD74R,0.033591X0.049339*%
%ADD76R,0.084772X0.084772*%
%ADD78C,0.084772*%
%ADD80C,0.074929*%
%ADD82R,0.074929X0.074929*%
%ADD84C,0.067055*%
%ADD86R,0.067055X0.067055*%
%ADD88C,0.106425*%
%ADD90R,0.106425X0.106425*%
%ADD92C,0.07178*%
%ADD94R,0.07178X0.07178*%
%ADD96R,0.051307X0.057213*%
%ADD98R,0.04737X0.051307*%
%ADD100R,0.059181X0.067055*%
%ADD102R,0.051307X0.04737*%
%ADD104R,0.067055X0.059181*%
%ADD110OUTLINE1*%
%ADD113OUTLINE4*%
%ADD116OUTLINE7*%
%ADD119OUTLINE10*%
G75*
G01*
%LPD*%
D104*
X544000Y2294000D3*
Y2368803D3*
D102*
X1056500Y2169000D3*
X989571D3*
D100*
X594000Y2744000D3*
X519197D3*
D104*
X1069000Y3231500D3*
Y3156697D3*
X656500Y2356500D3*
Y2281697D3*
D102*
X994000Y1994000D3*
X1060929D3*
X1056500Y2081500D3*
X989571D3*
D104*
X769000Y2294000D3*
Y2368803D3*
D98*
X3231500Y3239535D3*
Y3306465D3*
X3494000Y3239535D3*
Y3306465D3*
X1381500Y3231500D3*
Y3298429D3*
D102*
X2381500Y2519000D3*
X2448429D3*
D98*
X1381500Y3156500D3*
Y3089571D3*
X1269000Y2031500D3*
Y1964571D3*
X1481500Y2031500D3*
Y1964571D3*
X1669000Y2031500D3*
Y1964571D3*
X1869000Y2031500D3*
Y1964571D3*
D96*
X1019000Y2581500D3*
Y2488980D3*
X3106500Y2906500D3*
Y2813980D3*
D110*
X2189571Y2198429D3*
Y2064571D3*
D96*
X1269000Y2231500D3*
Y2138980D3*
X3306500Y2906500D3*
Y2813980D3*
X1469000Y2231500D3*
Y2138980D3*
D113*
X3290358Y2319000D3*
X3156500D3*
D96*
X3506500Y2919000D3*
Y2826480D3*
X1681500Y2231500D3*
Y2138980D3*
D113*
X3769000Y2319001D3*
X3635141D3*
D96*
X1881500Y2231500D3*
Y2138980D3*
X3706500Y2919000D3*
Y2826480D3*
D116*
X4144000Y1856499D3*
X4277859D3*
D94*
X1181500Y2969000D3*
D92*
X1281500D3*
X1381500D3*
X1481500D3*
X1581500D3*
X1681500D3*
X1781500D3*
X1881500D3*
X1981500D3*
X2081500D3*
X2181500D3*
X2281500D3*
X2381500D3*
X2481500D3*
X2581500D3*
X2681500D3*
D94*
X1181500Y2369000D3*
D92*
X1281500D3*
X1381500D3*
X1481500D3*
X1581500D3*
X1681500D3*
X1781500D3*
X1881500D3*
X1981500D3*
X2081500D3*
X2181500D3*
X2281500D3*
X2381500D3*
X2481500D3*
X2581500D3*
X2681500D3*
D90*
X590850Y3543606D3*
D88*
X787701D3*
X984551D3*
D90*
X1181402D3*
D88*
X1378252D3*
X1575102D3*
D90*
X1771953D3*
D88*
X1968803D3*
X2165654D3*
D90*
X2665654D3*
D88*
X2862504D3*
X3059354D3*
D90*
X3256205D3*
D88*
X3453055D3*
X3649906D3*
D90*
X3846756D3*
D88*
X4043606D3*
X4240457D3*
D90*
X984551Y661717D3*
D88*
X787701D3*
X590850D3*
D90*
X1575102D3*
D88*
X1378252D3*
X1181402D3*
D90*
X2165654D3*
D88*
X1968803D3*
X1771953D3*
D90*
X3059354D3*
D88*
X2862504D3*
X2665654D3*
D90*
X3649906D3*
D88*
X3453055D3*
X3256205D3*
D90*
X4240457D3*
D88*
X4043606D3*
X3846756D3*
D86*
X2856500Y2781500D3*
D84*
Y2681500D3*
Y2581500D3*
Y2481500D3*
Y2381500D3*
Y2281500D3*
Y2181500D3*
Y2081500D3*
Y1981500D3*
Y1881500D3*
D82*
X856500Y1006500D3*
D80*
Y1106500D3*
D82*
X1281500Y1006500D3*
D80*
Y1106500D3*
D82*
X1694000Y1006500D3*
D80*
Y1106500D3*
D82*
X2106500Y1019000D3*
D80*
Y1119000D3*
D78*
X2656492Y2156471D3*
D76*
X2356492D3*
D78*
X2656492Y1412377D3*
X2356492Y1286392D3*
X2656492Y1160408D3*
X3381492Y2168971D3*
D76*
X3081492D3*
D78*
X3381492Y1424877D3*
X3081492Y1298892D3*
X3381492Y1172908D3*
X3856492Y2156471D3*
D119*
X3556492D3*
D78*
X3856492Y1412377D3*
X3556492Y1286392D3*
X3856492Y1160408D3*
X4044008Y2044029D3*
D76*
X4344008D3*
D78*
X4044008Y2788123D3*
X4344008Y2914108D3*
X4044008Y3040092D3*
D74*
X3144000Y2519000D3*
X3069197D3*
X3106598Y2428449D3*
X3481500Y2519000D3*
X3406697D3*
X3444098Y2428449D3*
X3644000Y2519000D3*
X3569197D3*
X3606598Y2428449D3*
X3319000Y2519000D3*
X3244197D3*
X3281598Y2428449D3*
D98*
X1019000Y2781500D3*
Y2714571D3*
X1881500Y2819000D3*
Y2752071D3*
X3319000Y3239535D3*
Y3306465D3*
X3406500D3*
Y3239535D3*
D102*
X1869000Y3294000D3*
X1802071D3*
D98*
X1769000Y2769000D3*
Y2835929D3*
X3669000Y3239535D3*
Y3306465D3*
X3581500Y3306500D3*
Y3239571D3*
D72*
X519000Y1419000D3*
X629236D3*
D70*
X744000Y1431500D3*
Y1541736D3*
D98*
X1169000Y1969000D3*
Y2035929D3*
X3019000Y2906500D3*
Y2839571D3*
X856500Y1256500D3*
Y1323429D3*
X1169000Y2219000D3*
Y2152071D3*
X3231500Y2619000D3*
Y2685929D3*
D72*
X944000Y1419000D3*
X1054236D3*
D70*
X1181500Y1431500D3*
Y1541736D3*
D98*
X1369000Y1969000D3*
Y2035929D3*
X1281500Y1231500D3*
Y1298429D3*
X1369000Y2219000D3*
Y2152071D3*
X3206500Y2906500D3*
Y2839571D3*
X3494000Y2619000D3*
Y2685929D3*
D72*
X1369000Y1419000D3*
X1479236D3*
D70*
X1594000D3*
Y1529236D3*
D98*
X1581500Y1956500D3*
Y2023429D3*
X1694000Y1256500D3*
Y1323429D3*
X1581500Y2219000D3*
Y2152071D3*
X3406500Y2919000D3*
Y2852071D3*
X3631500Y2627071D3*
Y2694000D3*
D72*
X1781500Y1419000D3*
X1891736D3*
D70*
X2006500Y1431500D3*
Y1541736D3*
D98*
X1769000Y1969000D3*
Y2035929D3*
X2119000Y1244000D3*
Y1310929D3*
X1781500Y2206500D3*
Y2139571D3*
X3606500Y2919000D3*
Y2852071D3*
X3369000Y2619000D3*
Y2685929D3*
D68*
X544000Y2644000D3*
Y2464472D3*
D66*
X807780Y2554236D3*
D68*
X544000Y2181500D3*
Y2001972D3*
D66*
X807780Y2091736D3*
D64*
X2831500Y3256500D3*
Y3206500D3*
Y3156500D3*
Y3106500D3*
X3044098D3*
Y3156500D3*
Y3206500D3*
Y3256500D3*
X1694000Y3144000D3*
Y3194000D3*
Y3244000D3*
Y3294000D3*
X1481402D3*
Y3244000D3*
Y3194000D3*
Y3144000D3*
D74*
X1281500Y3294000D3*
X1206697D3*
X1244098Y3203449D3*
D62*
X744000Y2856500D3*
X544000D3*
X744000Y3256500D3*
X544000D3*
Y1306500D3*
X744000D3*
X544000Y906500D3*
X744000D3*
X969000Y1306500D3*
X1169000D3*
X969000Y906500D3*
X1169000D3*
X1381500Y1306500D3*
X1581500D3*
X1381500Y906500D3*
X1581500D3*
X1794000Y1306500D3*
X1994000D3*
X1794000Y906500D3*
X1994000D3*
D60*
X519000Y1531500D3*
X619000D3*
Y1866146D3*
X519000D3*
X944000Y1531500D3*
X1044000D3*
Y1866146D3*
X944000D3*
X1369000Y1531500D3*
X1469000D3*
Y1866146D3*
X1369000D3*
X1794000Y1531500D3*
X1894000D3*
Y1866146D3*
X1794000D3*
M02*
