%TF.GenerationSoftware,Novarm,DipTrace,3.1.0.1*%
%TF.CreationDate,2017-07-09T15:58:02+02:00*%
%FSLAX26Y26*%
%MOIN*%
%TF.FileFunction,Paste,Top*%
%TF.Part,Single*%
%AMOUTLINE2*
4,1,4,
0.027496,0.011748,
0.027496,-0.011748,
-0.027496,-0.011748,
-0.027496,0.011748,
0.027496,0.011748,
0*%
%AMOUTLINE5*
4,1,4,
-0.027496,-0.011748,
-0.027496,0.011748,
0.027496,0.011748,
0.027496,-0.011748,
-0.027496,-0.011748,
0*%
%ADD67R,0.058929X0.078614*%
%ADD69R,0.07074X0.090425*%
%ADD71R,0.07074X0.015622*%
%ADD73R,0.234126X0.210504*%
%ADD75R,0.100268X0.03137*%
%ADD77R,0.015622X0.07074*%
%ADD79R,0.062866X0.054992*%
%ADD81R,0.054992X0.062866*%
%ADD83R,0.017591X0.033339*%
%ADD85R,0.037276X0.098299*%
%ADD107R,0.035307X0.041213*%
%ADD109R,0.047118X0.074677*%
%ADD111R,0.041213X0.035307*%
%ADD113R,0.051055X0.043181*%
%ADD115R,0.03137X0.035307*%
%ADD117R,0.035307X0.03137*%
%ADD119R,0.043181X0.051055*%
%ADD121R,0.116016X0.054992*%
%ADD127OUTLINE2*%
%ADD130OUTLINE5*%
G75*
G01*
%LPD*%
D121*
X756500Y2544000D3*
X563587D3*
D119*
X794000Y2744000D3*
X719197D3*
X594000D3*
X519197D3*
D117*
X1056500Y2169000D3*
X989571D3*
D121*
X906500Y3144000D3*
X1099413D3*
D115*
X881500Y2669000D3*
Y2735929D3*
D113*
X656500Y2356500D3*
Y2281697D3*
X544000Y2294000D3*
Y2368803D3*
X769000Y2294000D3*
Y2368803D3*
D117*
X994000Y1994000D3*
X1060929D3*
X1056500Y2081500D3*
X989571D3*
D115*
X3231500Y3239535D3*
Y3306465D3*
X3494000Y3239535D3*
Y3306465D3*
X1381500Y3231500D3*
Y3298429D3*
D117*
X2631500Y2519000D3*
X2698429D3*
D115*
X1381500Y3156500D3*
Y3089571D3*
X1269000Y2031500D3*
Y1964571D3*
X1481500Y2031500D3*
Y1964571D3*
X1669000Y2031500D3*
Y1964571D3*
X1869000Y2031500D3*
Y1964571D3*
D111*
X994000Y2306500D3*
X901480D3*
D109*
X1094000Y2906500D3*
X1247538D3*
D107*
X3194000Y3019000D3*
Y2926480D3*
D127*
X2594000Y1969000D3*
Y2102858D3*
D107*
X1269000Y2231500D3*
Y2138980D3*
X3394000Y3019000D3*
Y2926480D3*
X1469000Y2231500D3*
Y2138980D3*
D127*
X3181500Y1944000D3*
Y2077858D3*
D107*
X3594000Y3031500D3*
Y2938980D3*
X1681500Y2231500D3*
Y2138980D3*
D127*
X3806500Y1956500D3*
Y2090358D3*
D107*
X1881500Y2231500D3*
Y2138980D3*
X3794000Y3031500D3*
Y2938980D3*
D130*
X3806500Y2206500D3*
Y2340358D3*
D85*
X994000Y2906500D3*
X875890D3*
D83*
X3231500Y2631500D3*
X3156697D3*
X3194098Y2540949D3*
X3569000Y2631500D3*
X3494197D3*
X3531598Y2540949D3*
X3731500Y2631500D3*
X3656697D3*
X3694098Y2540949D3*
X3406500Y2631500D3*
X3331697D3*
X3369098Y2540949D3*
D115*
X906500Y2406500D3*
Y2473429D3*
D117*
X1156500Y2306500D3*
X1089571D3*
D115*
X994000Y2406500D3*
Y2473429D3*
X1081500Y2406500D3*
Y2473429D3*
X1169000Y2406500D3*
Y2473429D3*
X1181500Y2731500D3*
Y2798429D3*
X1281500Y2794000D3*
Y2727071D3*
X2131500Y2831500D3*
Y2764571D3*
X3319000Y3239535D3*
Y3306465D3*
X3406500D3*
Y3239535D3*
D117*
X1869000Y3294000D3*
X1802071D3*
D115*
X2019000Y2769000D3*
Y2835929D3*
X3669000Y3239535D3*
Y3306465D3*
X3581500Y3306500D3*
Y3239571D3*
D81*
X519000Y1419000D3*
X629236D3*
D79*
X744000Y1431500D3*
Y1541736D3*
D115*
X1169000Y1969000D3*
Y2035929D3*
X3106500Y3019000D3*
Y2952071D3*
X856500Y1256500D3*
Y1323429D3*
X1169000Y2219000D3*
Y2152071D3*
X3319000Y2731500D3*
Y2798429D3*
D81*
X944000Y1419000D3*
X1054236D3*
D79*
X1181500Y1431500D3*
Y1541736D3*
D115*
X1369000Y1969000D3*
Y2035929D3*
X1281500Y1231500D3*
Y1298429D3*
X1369000Y2219000D3*
Y2152071D3*
X3294000Y3019000D3*
Y2952071D3*
X3581500Y2731500D3*
Y2798429D3*
D81*
X1369000Y1419000D3*
X1479236D3*
D79*
X1594000D3*
Y1529236D3*
D115*
X1581500Y1956500D3*
Y2023429D3*
X1694000Y1256500D3*
Y1323429D3*
X1581500Y2219000D3*
Y2152071D3*
X3494000Y3031500D3*
Y2964571D3*
X3719000Y2739571D3*
Y2806500D3*
D81*
X1781500Y1419000D3*
X1891736D3*
D79*
X2006500Y1431500D3*
Y1541736D3*
D115*
X1769000Y1969000D3*
Y2035929D3*
X2119000Y1244000D3*
Y1310929D3*
X1781500Y2206500D3*
Y2139571D3*
X3694000Y3031500D3*
Y2964571D3*
X3456500Y2731500D3*
Y2798429D3*
D77*
X1094000Y2781500D3*
X1044000D3*
X994000D3*
X944000D3*
Y2568902D3*
X994000D3*
X1044000D3*
X1094000D3*
D75*
X544000Y2181500D3*
Y2001972D3*
D73*
X807780Y2091736D3*
D71*
X2869000Y3281500D3*
Y3231500D3*
Y3181500D3*
Y3131500D3*
X3081598D3*
Y3181500D3*
Y3231500D3*
Y3281500D3*
X1694000Y3144000D3*
Y3194000D3*
Y3244000D3*
Y3294000D3*
X1481402D3*
Y3244000D3*
Y3194000D3*
Y3144000D3*
D83*
X1281500Y3294000D3*
X1206697D3*
X1244098Y3203449D3*
D69*
X744000Y2856500D3*
X544000D3*
X744000Y3256500D3*
X544000D3*
Y1306500D3*
X744000D3*
X544000Y906500D3*
X744000D3*
X969000Y1306500D3*
X1169000D3*
X969000Y906500D3*
X1169000D3*
X1381500Y1306500D3*
X1581500D3*
X1381500Y906500D3*
X1581500D3*
X1794000Y1306500D3*
X1994000D3*
X1794000Y906500D3*
X1994000D3*
D67*
X519000Y1531500D3*
X619000D3*
Y1866146D3*
X519000D3*
X944000Y1531500D3*
X1044000D3*
Y1866146D3*
X944000D3*
X1369000Y1531500D3*
X1469000D3*
Y1866146D3*
X1369000D3*
X1794000Y1531500D3*
X1894000D3*
Y1866146D3*
X1794000D3*
M02*
