%TF.GenerationSoftware,Novarm,DipTrace,3.1.0.1*%
%TF.CreationDate,2017-07-10T10:23:30+02:00*%
%FSLAX26Y26*%
%MOIN*%
%TF.FileFunction,Paste,Top*%
%TF.Part,Single*%
%AMOUTLINE2*
4,1,4,
0.027496,0.011748,
0.027496,-0.011748,
-0.027496,-0.011748,
-0.027496,0.011748,
0.027496,0.011748,
0*%
%AMOUTLINE5*
4,1,4,
-0.027496,-0.011748,
-0.027496,0.011748,
0.027496,0.011748,
0.027496,-0.011748,
-0.027496,-0.011748,
0*%
%ADD67R,0.058929X0.078614*%
%ADD69R,0.07074X0.090425*%
%ADD71R,0.07074X0.015622*%
%ADD73R,0.234126X0.210504*%
%ADD75R,0.100268X0.03137*%
%ADD77R,0.015622X0.07074*%
%ADD79R,0.062866X0.054992*%
%ADD81R,0.054992X0.062866*%
%ADD83R,0.017591X0.033339*%
%ADD85R,0.037276X0.098299*%
%ADD107R,0.035307X0.041213*%
%ADD109R,0.047118X0.074677*%
%ADD111R,0.041213X0.035307*%
%ADD113R,0.03137X0.035307*%
%ADD115R,0.035307X0.03137*%
%ADD117R,0.043181X0.051055*%
%ADD127OUTLINE2*%
%ADD130OUTLINE5*%
G75*
G01*
%LPD*%
D117*
X794000Y2744000D3*
X719197D3*
X594000D3*
X519197D3*
X1144000Y2931500D3*
X1218803D3*
D115*
X1056500Y2169000D3*
X989571D3*
D113*
X1131500Y3044000D3*
Y3110929D3*
D115*
X994000Y1994000D3*
X1060929D3*
X1056500Y2081500D3*
X989571D3*
D113*
X3231500Y3239535D3*
Y3306465D3*
X3494000Y3239535D3*
Y3306465D3*
X1744000Y3256500D3*
Y3323429D3*
D115*
X2706500Y2531500D3*
X2773429D3*
D113*
X1744000Y3181500D3*
Y3114571D3*
X1269000Y2031500D3*
Y1964571D3*
X1481500Y2031500D3*
Y1964571D3*
X1669000Y2031500D3*
Y1964571D3*
X1869000Y2031500D3*
Y1964571D3*
D111*
X1238980Y2319000D3*
X1331500D3*
D109*
X1206500Y3256500D3*
X1360038D3*
D107*
X3231500Y2894000D3*
Y2801480D3*
D127*
X2594000Y1969000D3*
Y2102859D3*
D107*
X1269000Y2231500D3*
Y2138980D3*
X3431500Y2894000D3*
Y2801480D3*
X1469000Y2231500D3*
Y2138980D3*
D127*
X3181500Y1944000D3*
Y2077859D3*
D107*
X3631500Y2906500D3*
Y2813980D3*
X1681500Y2231500D3*
Y2138980D3*
D127*
X3806500Y1956500D3*
Y2090359D3*
D107*
X1881500Y2231500D3*
Y2138980D3*
X3831500Y2906500D3*
Y2813980D3*
D130*
X3806500Y2206500D3*
Y2340359D3*
D85*
X1031500Y3256500D3*
X913390D3*
D83*
X3206500Y2444000D3*
X3131697D3*
X3169098Y2353449D3*
X3544000Y2444000D3*
X3469197D3*
X3506598Y2353449D3*
X3706500Y2444000D3*
X3631697D3*
X3669098Y2353449D3*
X3381500Y2444000D3*
X3306697D3*
X3344098Y2353449D3*
D113*
X1531500Y2756500D3*
Y2823429D3*
D115*
X1056500Y2319000D3*
X1123429D3*
D113*
X1619000Y2756500D3*
Y2823429D3*
X1706500Y2756500D3*
Y2823429D3*
X1794000Y2756500D3*
Y2823429D3*
X1319000Y3110929D3*
Y3044000D3*
X1231500Y3039571D3*
Y3106500D3*
D115*
X2631500Y3256500D3*
X2698429D3*
D113*
X3319000Y3239535D3*
Y3306465D3*
X3406500D3*
Y3239535D3*
D115*
X2231500Y3319000D3*
X2164571D3*
X2694000Y3131500D3*
X2627071D3*
D113*
X3669000Y3239535D3*
Y3306465D3*
X3581500Y3306500D3*
Y3239571D3*
D81*
X519000Y1419000D3*
X629236D3*
D79*
X744000Y1431500D3*
Y1541736D3*
D113*
X1169000Y1969000D3*
Y2035929D3*
X3144000Y2894000D3*
Y2827071D3*
X856500Y1256500D3*
Y1323429D3*
X1169000Y2219000D3*
Y2152071D3*
X3294000Y2544000D3*
Y2610929D3*
D81*
X944000Y1419000D3*
X1054236D3*
D79*
X1181500Y1431500D3*
Y1541736D3*
D113*
X1369000Y1969000D3*
Y2035929D3*
X1281500Y1231500D3*
Y1298429D3*
X1369000Y2219000D3*
Y2152071D3*
X3331500Y2894000D3*
Y2827071D3*
X3556500Y2544000D3*
Y2610929D3*
D81*
X1369000Y1419000D3*
X1479236D3*
D79*
X1594000D3*
Y1529236D3*
D113*
X1581500Y1956500D3*
Y2023429D3*
X1694000Y1256500D3*
Y1323429D3*
X1581500Y2219000D3*
Y2152071D3*
X3531500Y2906500D3*
Y2839571D3*
X3694000Y2552071D3*
Y2619000D3*
D81*
X1781500Y1419000D3*
X1891736D3*
D79*
X2006500Y1431500D3*
Y1541736D3*
D113*
X1769000Y1969000D3*
Y2035929D3*
X2119000Y1244000D3*
Y1310929D3*
X1781500Y2206500D3*
Y2139571D3*
X3731500Y2906500D3*
Y2839571D3*
X3431500Y2544000D3*
Y2610929D3*
D77*
X1006500Y3094000D3*
X956500D3*
X906500D3*
X856500D3*
Y2881402D3*
X906500D3*
X956500D3*
X1006500D3*
D75*
X544000Y2181500D3*
Y2001972D3*
D73*
X807780Y2091736D3*
D71*
X2869000Y3281500D3*
Y3231500D3*
Y3181500D3*
Y3131500D3*
X3081598D3*
Y3181500D3*
Y3231500D3*
Y3281500D3*
X2056500Y3169000D3*
Y3219000D3*
Y3269000D3*
Y3319000D3*
X1843902D3*
Y3269000D3*
Y3219000D3*
Y3169000D3*
D83*
X1644000Y3319000D3*
X1569197D3*
X1606598Y3228449D3*
D69*
X744000Y2856500D3*
X544000D3*
X744000Y3256500D3*
X544000D3*
Y1306500D3*
X744000D3*
X544000Y906500D3*
X744000D3*
X969000Y1306500D3*
X1169000D3*
X969000Y906500D3*
X1169000D3*
X1381500Y1306500D3*
X1581500D3*
X1381500Y906500D3*
X1581500D3*
X1794000Y1306500D3*
X1994000D3*
X1794000Y906500D3*
X1994000D3*
D67*
X519000Y1531500D3*
X619000D3*
Y1866146D3*
X519000D3*
X944000Y1531500D3*
X1044000D3*
Y1866146D3*
X944000D3*
X1369000Y1531500D3*
X1469000D3*
Y1866146D3*
X1369000D3*
X1794000Y1531500D3*
X1894000D3*
Y1866146D3*
X1794000D3*
M02*
