%TF.GenerationSoftware,Novarm,DipTrace,3.1.0.1*%
%TF.CreationDate,2017-07-12T16:09:01+02:00*%
%FSLAX26Y26*%
%MOIN*%
%TF.FileFunction,Paste,Top*%
%TF.Part,Single*%
%AMOUTLINE2*
4,1,4,
0.027496,0.011748,
0.027496,-0.011748,
-0.027496,-0.011748,
-0.027496,0.011748,
0.027496,0.011748,
0*%
%AMOUTLINE5*
4,1,4,
-0.027496,-0.011748,
-0.027496,0.011748,
0.027496,0.011748,
0.027496,-0.011748,
-0.027496,-0.011748,
0*%
%ADD67R,0.058929X0.078614*%
%ADD69R,0.07074X0.090425*%
%ADD71R,0.07074X0.015622*%
%ADD73R,0.210504X0.234126*%
%ADD75R,0.03137X0.100268*%
%ADD77R,0.015622X0.07074*%
%ADD79R,0.062866X0.054992*%
%ADD81R,0.017591X0.033339*%
%ADD83R,0.098299X0.037276*%
%ADD105R,0.035307X0.041213*%
%ADD107R,0.074677X0.047118*%
%ADD109R,0.041213X0.035307*%
%ADD111R,0.03137X0.035307*%
%ADD113R,0.035307X0.03137*%
%ADD115R,0.051055X0.043181*%
%ADD125OUTLINE2*%
%ADD128OUTLINE5*%
G75*
G01*
%LPD*%
D115*
X981500Y3206500D3*
Y3281303D3*
X1094000Y3269000D3*
Y3194197D3*
X1219000Y3269000D3*
Y3194197D3*
D113*
X1494000Y2181500D3*
X1427071D3*
X1231500Y3069000D3*
X1164571D3*
X1431500Y2006500D3*
X1498429D3*
X1494000Y2094000D3*
X1427071D3*
D111*
X3231500Y3239535D3*
Y3306465D3*
X3494000Y3239535D3*
Y3306465D3*
X1506500Y3231500D3*
Y3298429D3*
D113*
X2706500Y2531500D3*
X2773429D3*
X1519000Y3119000D3*
X1452071D3*
D111*
X1719000Y2044000D3*
Y1977071D3*
X1931500Y2044000D3*
Y1977071D3*
X2119000Y2044000D3*
Y1977071D3*
X2319000Y2044000D3*
Y1977071D3*
D109*
X1381500Y2681500D3*
X1288980D3*
D107*
X1031500Y2156500D3*
Y2002962D3*
D105*
X3444000Y2344000D3*
Y2251480D3*
D125*
X2594000Y1969000D3*
Y2102859D3*
D105*
X1719000Y2244000D3*
Y2151480D3*
X3644000Y2344000D3*
Y2251480D3*
X1919000Y2244000D3*
Y2151480D3*
D128*
X3194000Y1856500D3*
Y1722641D3*
D105*
X3844000Y2356500D3*
Y2263980D3*
X2131500Y2244000D3*
Y2151480D3*
D128*
X3819000Y1819000D3*
Y1685141D3*
D105*
X2331500Y2244000D3*
Y2151480D3*
X3844000Y2556500D3*
Y2463980D3*
D128*
X3806500Y1981500D3*
Y2115359D3*
D83*
X1031500Y2419000D3*
Y2300890D3*
D81*
X2256500Y2644000D3*
X2181697D3*
X2219098Y2553449D3*
X2094000Y2644000D3*
X2019197D3*
X2056598Y2553449D3*
X1931500Y2644000D3*
X1856697D3*
X1894098Y2553449D3*
X1769000Y2644000D3*
X1694197D3*
X1731598Y2553449D3*
D111*
X906500Y2994000D3*
Y2927071D3*
D113*
X1319000Y2769000D3*
X1385929D3*
D111*
X994000Y2994000D3*
Y2927071D3*
X1081500Y2994000D3*
Y2927071D3*
X1169000Y2994000D3*
Y2927071D3*
X1269000Y2994000D3*
Y2927071D3*
X1356500Y2931500D3*
Y2998429D3*
D113*
X2606500Y2856500D3*
X2673429D3*
D111*
X3319000Y3239535D3*
Y3306465D3*
X3406500D3*
Y3239535D3*
D113*
X1994000Y3306500D3*
X1927071D3*
X2669000Y2756500D3*
X2602071D3*
D111*
X3669000Y3239535D3*
Y3306465D3*
X3581500Y3306500D3*
Y3239571D3*
D79*
X744000Y1431500D3*
Y1541736D3*
X869000Y1544000D3*
Y1433764D3*
D111*
X1619000Y1981500D3*
Y2048429D3*
X3356500Y2344000D3*
Y2277071D3*
X869000Y1256500D3*
Y1323429D3*
X1619000Y2231500D3*
Y2164571D3*
X2069000Y2756500D3*
Y2823429D3*
D79*
X1219000Y1431500D3*
Y1541736D3*
X1331500D3*
Y1431500D3*
D111*
X1819000Y1981500D3*
Y2048429D3*
X1331500Y1231500D3*
Y1298429D3*
X1819000Y2231500D3*
Y2164571D3*
X3544000Y2344000D3*
Y2277071D3*
X1956500Y2756500D3*
Y2823429D3*
D79*
X1669000Y1431500D3*
Y1541736D3*
X1781500Y1544000D3*
Y1433764D3*
D111*
X2031500Y1969000D3*
Y2035929D3*
X1781500Y1269000D3*
Y1335929D3*
X2031500Y2231500D3*
Y2164571D3*
X3744000Y2356500D3*
Y2289571D3*
X1844000Y2756500D3*
Y2823429D3*
D79*
X2144000Y1431500D3*
Y1541736D3*
X2269000Y1544000D3*
Y1433764D3*
D111*
X2219000Y1981500D3*
Y2048429D3*
X2269000Y1269000D3*
Y1335929D3*
X2231500Y2219000D3*
Y2152071D3*
X3744000Y2556500D3*
Y2489571D3*
X1719000Y2756500D3*
Y2823429D3*
D77*
X1025201Y2600201D3*
X1075201D3*
X1125201D3*
X1175201D3*
Y2812799D3*
X1125201D3*
X1075201D3*
X1025201D3*
D75*
X1331500Y2369000D3*
X1151972D3*
D73*
X1241736Y2105220D3*
D71*
X3456500Y3069000D3*
Y3019000D3*
Y2969000D3*
Y2919000D3*
X3669098D3*
Y2969000D3*
Y3019000D3*
Y3069000D3*
X1819000Y3144000D3*
Y3194000D3*
Y3244000D3*
Y3294000D3*
X1606402D3*
Y3244000D3*
Y3194000D3*
Y3144000D3*
D81*
X1406500Y3294000D3*
X1331697D3*
X1369098Y3203449D3*
D69*
X781500Y2894000D3*
X581500D3*
X781500Y3294000D3*
X581500D3*
X544000Y1306500D3*
X744000D3*
X544000Y906500D3*
X744000D3*
X994000Y1306500D3*
X1194000D3*
X994000Y906500D3*
X1194000D3*
X1456500Y1306500D3*
X1656500D3*
X1456500Y906500D3*
X1656500D3*
X1906500Y1306500D3*
X2106500D3*
X1906500Y906500D3*
X2106500D3*
D67*
X519000Y1456500D3*
X619000D3*
Y1791146D3*
X519000D3*
X994000Y1456500D3*
X1094000D3*
Y1791146D3*
X994000D3*
X1431500Y1456677D3*
X1531500D3*
Y1791323D3*
X1431500D3*
X1931500Y1456500D3*
X2031500D3*
Y1791146D3*
X1931500D3*
M02*
