%TF.GenerationSoftware,Novarm,DipTrace,3.0.0.2*%
%TF.CreationDate,2017-03-05T11:54:48+02:00*%
%FSLAX26Y26*%
%MOIN*%
%TF.FileFunction,Paste,Top*%
%TF.Part,Single*%
%ADD58R,0.058929X0.078614*%
%ADD60R,0.07074X0.090425*%
%ADD62R,0.234126X0.210504*%
%ADD64R,0.100268X0.03137*%
%ADD66R,0.07074X0.015622*%
%ADD68R,0.062866X0.054992*%
%ADD70R,0.017591X0.033339*%
%ADD84R,0.054992X0.023496*%
%ADD86R,0.023496X0.054992*%
%ADD88R,0.035307X0.041213*%
%ADD90R,0.051055X0.043181*%
%ADD92R,0.054992X0.116016*%
%ADD94R,0.116016X0.054992*%
G75*
G01*
%LPD*%
D94*
X3069000Y3194000D3*
X3261913D3*
X869000D3*
X1061913D3*
D92*
X1094000Y2156500D3*
Y1963587D3*
D94*
X1794000Y3194000D3*
X1986913D3*
D90*
X869000Y2819000D3*
Y2744197D3*
X2419000Y3219000D3*
Y3144197D3*
X869000Y2981500D3*
Y2906697D3*
D94*
X3419000Y3194000D3*
X3611913D3*
D92*
X1406500Y2156500D3*
Y1963587D3*
X1769000Y2156500D3*
Y1963587D3*
X2131500Y2169000D3*
Y1976087D3*
X2494000Y2169000D3*
Y1976087D3*
D88*
X1156500Y2881500D3*
Y2974020D3*
X3819000Y2394000D3*
Y2486520D3*
X1594000Y2206500D3*
Y2113980D3*
D86*
X2994000Y2219000D3*
X2860142D3*
D88*
X1944000Y2206500D3*
Y2113980D3*
X3956500Y2394000D3*
Y2486520D3*
D86*
X3569000Y2219000D3*
X3435142D3*
D88*
X2319000D3*
Y2126480D3*
X4106500Y2394000D3*
Y2486520D3*
D86*
X4131500Y2231500D3*
X3997642D3*
D88*
X2681500Y2206500D3*
Y2113980D3*
X4244000Y2394000D3*
Y2486520D3*
D84*
X3106500Y2869000D3*
Y2735142D3*
D70*
X3194000Y2444000D3*
X3119197D3*
X3156598Y2353449D3*
X3394000Y2444000D3*
X3319197D3*
X3356598Y2353449D3*
X3606500Y2444000D3*
X3531697D3*
X3569098Y2353449D3*
X2944000Y2819000D3*
X2869197D3*
X2906598Y2728449D3*
D90*
X1794000Y2544598D3*
Y2619402D3*
X2569000Y2769000D3*
Y2843803D3*
X1644000Y2619000D3*
Y2544197D3*
X1844000Y2769000D3*
Y2843803D3*
X1556500Y2768598D3*
Y2843402D3*
X2244000Y2544000D3*
Y2618803D3*
X2719000Y2769000D3*
Y2843803D3*
X2431500Y2769000D3*
Y2843803D3*
D68*
X531500Y1444000D3*
Y1554236D3*
D90*
X2556500Y2544000D3*
Y2618803D3*
X2131500Y2769000D3*
Y2843803D3*
X1194000Y2544598D3*
Y2619402D3*
D68*
X869000Y1356882D3*
Y1467118D3*
D90*
X1981500Y2769000D3*
Y2843803D3*
X1056500Y2619402D3*
Y2544598D3*
D68*
X869000Y1169000D3*
Y1058764D3*
D90*
X2719000Y2544000D3*
Y2618803D3*
X1819000Y1844000D3*
Y1769197D3*
D68*
X1294000Y1356882D3*
Y1467118D3*
D90*
X1944000Y2544000D3*
Y2618803D3*
X2094000Y2619000D3*
Y2544197D3*
X1331500Y2619000D3*
Y2544197D3*
D68*
X1294000Y1169000D3*
Y1058764D3*
D90*
X2281500Y1769000D3*
Y1843803D3*
X2881500Y2544000D3*
Y2618803D3*
D68*
X1719000Y1356882D3*
Y1467118D3*
D90*
X2394000Y2618803D3*
Y2544000D3*
X2144000Y1769000D3*
Y1843803D3*
X2281500Y2769000D3*
Y2843803D3*
D68*
X1719000Y1169000D3*
Y1058764D3*
D90*
X2569000Y1769000D3*
Y1843803D3*
D68*
X2156500Y1356882D3*
Y1467118D3*
D90*
X3031500Y2544000D3*
Y2618803D3*
X1494000Y2619000D3*
Y2544197D3*
X2431500Y1844000D3*
Y1769197D3*
X1694000Y2769000D3*
Y2843803D3*
D66*
X2631500Y3269000D3*
Y3219000D3*
Y3169000D3*
Y3119000D3*
X2844098D3*
Y3169000D3*
Y3219000D3*
Y3269000D3*
D64*
X518646Y2648528D3*
Y2469000D3*
D62*
X782425Y2558764D3*
D64*
X519000Y2319000D3*
Y2139472D3*
D62*
X782780Y2229236D3*
D66*
X1619000Y3119000D3*
Y3169000D3*
Y3219000D3*
Y3269000D3*
X1406402D3*
Y3219000D3*
Y3169000D3*
Y3119000D3*
D70*
X1281500Y3269000D3*
X1206697D3*
X1244098Y3178449D3*
D60*
X719000Y2856500D3*
X519000D3*
X719000Y3256500D3*
X519000D3*
X544000Y1331500D3*
X744000D3*
X544000Y931500D3*
X744000D3*
X981500Y1331500D3*
X1181500D3*
X981500Y931500D3*
X1181500D3*
X1406500Y1331500D3*
X1606500D3*
X1406500Y931500D3*
X1606500D3*
X1831500Y1331500D3*
X2031500D3*
X1831500Y931500D3*
X2031500D3*
D58*
X644000Y1468677D3*
X744000D3*
Y1803323D3*
X644000D3*
X1031500Y1468677D3*
X1131500D3*
Y1803323D3*
X1031500D3*
X1469000Y1469000D3*
X1569000D3*
Y1803646D3*
X1469000D3*
X1919000Y1469000D3*
X2019000D3*
Y1803646D3*
X1919000D3*
M02*
