%TF.GenerationSoftware,Novarm,DipTrace,3.0.0.2*%
%TF.CreationDate,2017-03-04T22:17:03+02:00*%
%FSLAX26Y26*%
%MOIN*%
%TF.FileFunction,Legend,Top*%
%TF.Part,Single*%
%ADD10C,0.009843*%
%ADD22C,0.001312*%
%ADD23C,0.01*%
%ADD24C,0.1*%
%ADD25C,0.023606*%
%ADD27C,0.02362*%
%ADD30C,0.015746*%
%ADD33C,0.015749*%
%ADD41C,0.015404*%
%ADD45C,0.015408*%
%ADD98C,0.00772*%
%ADD99C,0.015439*%
G75*
G01*
%LPD*%
X2720360Y3323921D2*
D10*
X2720393Y3243214D1*
X2720360Y3323921D2*
X2503855D1*
X2460561Y3280606D2*
X2503855Y3323921D1*
X2460561Y3280606D2*
Y3243214D1*
X2720393Y3144786D2*
X2720360Y3064079D1*
X2503855D1*
X2460561Y3107394D2*
X2503855Y3064079D1*
X2460561Y3144786D2*
Y3107394D1*
D25*
X2436906Y3251074D3*
X1095360Y3323921D2*
D10*
X1095393Y3243214D1*
X1095360Y3323921D2*
X878855D1*
X835561Y3280606D2*
X878855Y3323921D1*
X835561Y3280606D2*
Y3243214D1*
X1095393Y3144786D2*
X1095360Y3064079D1*
X878855D1*
X835561Y3107394D2*
X878855Y3064079D1*
X835561Y3144786D2*
Y3107394D1*
D25*
X811906Y3251074D3*
X1373921Y1955140D2*
D10*
X1293214Y1955107D1*
X1373921Y1955140D2*
Y2171645D1*
X1330606Y2214939D2*
X1373921Y2171645D1*
X1330606Y2214939D2*
X1293214D1*
X1194786Y1955107D2*
X1114079Y1955140D1*
Y2171645D1*
X1157394Y2214939D2*
X1114079Y2171645D1*
X1194786Y2214939D2*
X1157394D1*
D27*
X1301074Y2238594D3*
X1670360Y3323921D2*
D10*
X1670393Y3243214D1*
X1670360Y3323921D2*
X1453855D1*
X1410561Y3280606D2*
X1453855Y3323921D1*
X1410561Y3280606D2*
Y3243214D1*
X1670393Y3144786D2*
X1670360Y3064079D1*
X1453855D1*
X1410561Y3107394D2*
X1453855Y3064079D1*
X1410561Y3144786D2*
Y3107394D1*
D25*
X1386906Y3251074D3*
X955929Y2597860D2*
D10*
X1007071D1*
Y2652640D2*
X955929D1*
Y3022860D2*
X1007071D1*
X3070360Y3323921D2*
X3070393Y3243214D1*
X3070360Y3323921D2*
X2853855D1*
X2810561Y3280606D2*
X2853855Y3323921D1*
X2810561Y3280606D2*
Y3243214D1*
X3070393Y3144786D2*
X3070360Y3064079D1*
X2853855D1*
X2810561Y3107394D2*
X2853855Y3064079D1*
X2810561Y3144786D2*
Y3107394D1*
D25*
X2786906Y3251074D3*
X1686421Y1955140D2*
D10*
X1605714Y1955107D1*
X1686421Y1955140D2*
Y2171645D1*
X1643106Y2214939D2*
X1686421Y2171645D1*
X1643106Y2214939D2*
X1605714D1*
X1507286Y1955107D2*
X1426579Y1955140D1*
Y2171645D1*
X1469894Y2214939D2*
X1426579Y2171645D1*
X1507286Y2214939D2*
X1469894D1*
D27*
X1613574Y2238594D3*
X1998921Y1955096D2*
D10*
X1918214Y1955064D1*
X1998921Y1955096D2*
Y2171602D1*
X1955606Y2214896D2*
X1998921Y2171602D1*
X1955606Y2214896D2*
X1918214D1*
X1819786Y1955064D2*
X1739079Y1955096D1*
Y2171602D1*
X1782394Y2214896D2*
X1739079Y2171602D1*
X1819786Y2214896D2*
X1782394D1*
D27*
X1926074Y2238551D3*
X2298921Y1955096D2*
D10*
X2218214Y1955064D1*
X2298921Y1955096D2*
Y2171602D1*
X2255606Y2214896D2*
X2298921Y2171602D1*
X2255606Y2214896D2*
X2218214D1*
X2119786Y1955064D2*
X2039079Y1955096D1*
Y2171602D1*
X2082394Y2214896D2*
X2039079Y2171602D1*
X2119786Y2214896D2*
X2082394D1*
D27*
X2226074Y2238551D3*
X2586421Y1955096D2*
D10*
X2505714Y1955064D1*
X2586421Y1955096D2*
Y2171602D1*
X2543106Y2214896D2*
X2586421Y2171602D1*
X2543106Y2214896D2*
X2505714D1*
X2407286Y1955064D2*
X2326579Y1955096D1*
Y2171602D1*
X2369894Y2214896D2*
X2326579Y2171602D1*
X2407286Y2214896D2*
X2369894D1*
D27*
X2513574Y2238551D3*
X1875012Y3087501D2*
D10*
X1804133D1*
X1875012Y3150496D2*
X1804133D1*
D30*
X1943902Y3118999D3*
X1076183Y2054567D2*
D10*
X1036817D1*
X1875012Y3212501D2*
X1804133D1*
X1875012Y3275496D2*
X1804133D1*
D30*
X1943902Y3243999D3*
X3838683Y2579827D2*
D10*
X3799317D1*
X538683Y2054827D2*
X499317D1*
X2962512Y2187501D2*
X2891633D1*
X2962512Y2250496D2*
X2891633D1*
D30*
X3031402Y2218999D3*
X676183Y2054827D2*
D10*
X636817D1*
X3976183Y2579827D2*
X3936817D1*
X3537512Y2187501D2*
X3466633D1*
X3537512Y2250496D2*
X3466633D1*
D30*
X3606402Y2218999D3*
X813683Y2054827D2*
D10*
X774317D1*
X4138683Y2579827D2*
X4099317D1*
X4100012Y2200001D2*
X4029133D1*
X4100012Y2262996D2*
X4029133D1*
D30*
X4168902Y2231499D3*
X951183Y2054827D2*
D10*
X911817D1*
X4263683Y2579827D2*
X4224317D1*
X3137999Y2937512D2*
Y2866633D1*
X3075004Y2937512D2*
Y2866633D1*
D33*
X3106501Y3006402D3*
X1334157Y3018213D2*
D10*
X2953843D1*
Y2919787D1*
X1334157D1*
Y3018213D1*
Y2418213D2*
X2953843D1*
Y2319787D1*
X1334157D1*
Y2418213D1*
X468803Y3386126D2*
X1082976D1*
Y3740457D1*
X468803D1*
Y3386126D1*
G36*
X575239Y3420850D2*
X606685D1*
Y3389350D1*
X575239D1*
Y3420850D1*
G37*
G36*
X771959D2*
X803405D1*
Y3389350D1*
X771959D1*
Y3420850D1*
G37*
G36*
X968740D2*
X1000124D1*
Y3389350D1*
X968740D1*
Y3420850D1*
G37*
X1059354Y3386126D2*
D10*
X1673528D1*
Y3740457D1*
X1059354D1*
Y3386126D1*
G36*
X1165791Y3420850D2*
X1197236D1*
Y3389350D1*
X1165791D1*
Y3420850D1*
G37*
G36*
X1362510D2*
X1393956D1*
Y3389350D1*
X1362510D1*
Y3420850D1*
G37*
G36*
X1559291D2*
X1590676D1*
Y3389350D1*
X1559291D1*
Y3420850D1*
G37*
X1649906Y3386126D2*
D10*
X2264079D1*
Y3740457D1*
X1649906D1*
Y3386126D1*
G36*
X1756342Y3420850D2*
X1787787D1*
Y3389350D1*
X1756342D1*
Y3420850D1*
G37*
G36*
X1953061D2*
X1984507D1*
Y3389350D1*
X1953061D1*
Y3420850D1*
G37*
G36*
X2149843D2*
X2181227D1*
Y3389350D1*
X2149843D1*
Y3420850D1*
G37*
X2543606Y3386126D2*
D10*
X3157780D1*
Y3740457D1*
X2543606D1*
Y3386126D1*
G36*
X2650043Y3420850D2*
X2681488D1*
Y3389350D1*
X2650043D1*
Y3420850D1*
G37*
G36*
X2846762D2*
X2878208D1*
Y3389350D1*
X2846762D1*
Y3420850D1*
G37*
G36*
X3043543D2*
X3074928D1*
Y3389350D1*
X3043543D1*
Y3420850D1*
G37*
X3134157Y3386126D2*
D10*
X3748331D1*
Y3740457D1*
X3134157D1*
Y3386126D1*
G36*
X3240594Y3420850D2*
X3272039D1*
Y3389350D1*
X3240594D1*
Y3420850D1*
G37*
G36*
X3437313D2*
X3468759D1*
Y3389350D1*
X3437313D1*
Y3420850D1*
G37*
G36*
X3634094D2*
X3665479D1*
Y3389350D1*
X3634094D1*
Y3420850D1*
G37*
X3724709Y3386126D2*
D10*
X4338882D1*
Y3740457D1*
X3724709D1*
Y3386126D1*
G36*
X3831145Y3420850D2*
X3862591D1*
Y3389350D1*
X3831145D1*
Y3420850D1*
G37*
G36*
X4027865D2*
X4059310D1*
Y3389350D1*
X4027865D1*
Y3420850D1*
G37*
G36*
X4224646D2*
X4256030D1*
Y3389350D1*
X4224646D1*
Y3420850D1*
G37*
X1106598Y819197D2*
D10*
X492425D1*
Y464866D1*
X1106598D1*
Y819197D1*
G36*
X1000162Y784472D2*
X968717D1*
Y815972D1*
X1000162D1*
Y784472D1*
G37*
G36*
X803443D2*
X771997D1*
Y815972D1*
X803443D1*
Y784472D1*
G37*
G36*
X606661D2*
X575277D1*
Y815972D1*
X606661D1*
Y784472D1*
G37*
X1697150Y819197D2*
D10*
X1082976D1*
Y464866D1*
X1697150D1*
Y819197D1*
G36*
X1590713Y784472D2*
X1559268D1*
Y815972D1*
X1590713D1*
Y784472D1*
G37*
G36*
X1393994D2*
X1362548D1*
Y815972D1*
X1393994D1*
Y784472D1*
G37*
G36*
X1197213D2*
X1165828D1*
Y815972D1*
X1197213D1*
Y784472D1*
G37*
X2287701Y819197D2*
D10*
X1673528D1*
Y464866D1*
X2287701D1*
Y819197D1*
G36*
X2181265Y784472D2*
X2149819D1*
Y815972D1*
X2181265D1*
Y784472D1*
G37*
G36*
X1984545D2*
X1953099D1*
Y815972D1*
X1984545D1*
Y784472D1*
G37*
G36*
X1787764D2*
X1756380D1*
Y815972D1*
X1787764D1*
Y784472D1*
G37*
X3181402Y819197D2*
D10*
X2567228D1*
Y464866D1*
X3181402D1*
Y819197D1*
G36*
X3074965Y784472D2*
X3043520D1*
Y815972D1*
X3074965D1*
Y784472D1*
G37*
G36*
X2878246D2*
X2846800D1*
Y815972D1*
X2878246D1*
Y784472D1*
G37*
G36*
X2681465D2*
X2650080D1*
Y815972D1*
X2681465D1*
Y784472D1*
G37*
X3771953Y819197D2*
D10*
X3157780D1*
Y464866D1*
X3771953D1*
Y819197D1*
G36*
X3665517Y784472D2*
X3634071D1*
Y815972D1*
X3665517D1*
Y784472D1*
G37*
G36*
X3468797D2*
X3437351D1*
Y815972D1*
X3468797D1*
Y784472D1*
G37*
G36*
X3272016D2*
X3240631D1*
Y815972D1*
X3272016D1*
Y784472D1*
G37*
X4362504Y819197D2*
D10*
X3748331D1*
Y464866D1*
X4362504D1*
Y819197D1*
G36*
X4256068Y784472D2*
X4224622D1*
Y815972D1*
X4256068D1*
Y784472D1*
G37*
G36*
X4059348D2*
X4027902D1*
Y815972D1*
X4059348D1*
Y784472D1*
G37*
G36*
X3862567D2*
X3831183D1*
Y815972D1*
X3862567D1*
Y784472D1*
G37*
X2736618Y2152366D2*
D10*
X3126382D1*
X3049598Y1038193D2*
X2736618D1*
Y1288213D2*
Y2002398D1*
X3126382Y1302363D2*
Y1138246D1*
Y2052313D2*
Y1388155D1*
X2736618Y1038193D2*
Y1152396D1*
X3311618Y2152366D2*
X3701382D1*
X3624598Y1038193D2*
X3311618D1*
Y1288213D2*
Y2002398D1*
X3701382Y1302363D2*
Y1138246D1*
Y2052313D2*
Y1388155D1*
X3311618Y1038193D2*
Y1152396D1*
X3886618Y2139866D2*
X4276382D1*
X4199598Y1025693D2*
X3886618D1*
Y1275713D2*
Y1989898D1*
X4276382Y1289863D2*
Y1125746D1*
Y2039813D2*
Y1375655D1*
X3886618Y1025693D2*
Y1139896D1*
X3173134Y2749118D2*
Y3138882D1*
X4287307Y3062098D2*
Y2749118D1*
X4037287D2*
X3323102D1*
X4023137Y3138882D2*
X4187254D1*
X3273187D2*
X3937345D1*
X4287307Y2749118D2*
X4173104D1*
D41*
X3237349Y2421209D3*
X3228148Y2371067D2*
D10*
X3110043D1*
Y2351382D1*
X3228148D1*
Y2371067D1*
D41*
X3437349Y2421209D3*
X3428148Y2371067D2*
D10*
X3310043D1*
Y2351382D1*
X3428148D1*
Y2371067D1*
D41*
X3649849Y2421209D3*
X3640648Y2371067D2*
D10*
X3522543D1*
Y2351382D1*
X3640648D1*
Y2371067D1*
D41*
X2974849Y2833709D3*
X2965648Y2783567D2*
D10*
X2847543D1*
Y2763882D1*
X2965648D1*
Y2783567D1*
X562965Y1487339D2*
Y1510898D1*
X500035Y1487339D2*
Y1510898D1*
X900465Y1400220D2*
Y1423780D1*
X837535Y1400220D2*
Y1423780D1*
Y1125661D2*
Y1102102D1*
X900465Y1125661D2*
Y1102102D1*
X1325465Y1400220D2*
Y1423780D1*
X1262535Y1400220D2*
Y1423780D1*
Y1125661D2*
Y1102102D1*
X1325465Y1125661D2*
Y1102102D1*
X1750465Y1400220D2*
Y1423780D1*
X1687535Y1400220D2*
Y1423780D1*
Y1125661D2*
Y1102102D1*
X1750465Y1125661D2*
Y1102102D1*
X2187965Y1400220D2*
Y1423780D1*
X2125035Y1400220D2*
Y1423780D1*
X2174111Y3292427D2*
Y3095573D1*
X2276487Y3292427D2*
Y3095573D1*
X2174111D2*
X2276487D1*
X2205605Y3292427D2*
X2174111D1*
X2244994D2*
X2276487D1*
X2205605D2*
G03X2244994Y3292427I19694J9D01*
G01*
X589532Y2688690D2*
Y2428848D1*
X865122Y2688690D2*
X589532D1*
X865122D2*
Y2680825D1*
Y2428848D2*
X589532D1*
X865122D2*
Y2436713D1*
D45*
X474586Y2687757D3*
X589887Y2359162D2*
D10*
Y2099320D1*
X865476Y2359162D2*
X589887D1*
X865476D2*
Y2351297D1*
Y2099320D2*
X589887D1*
X865476D2*
Y2107185D1*
D45*
X474941Y2358229D3*
X1108073Y2811611D2*
D10*
X1304927D1*
X1108073Y2913987D2*
X1304927D1*
Y2811611D2*
Y2913987D1*
X1108073Y2843105D2*
Y2811611D1*
Y2882494D2*
Y2913987D1*
Y2843105D2*
G03X1108073Y2882494I-9J19694D01*
G01*
D41*
X1312349Y3283709D3*
X1303148Y3233567D2*
D10*
X1185043D1*
Y3213882D1*
X1303148D1*
Y3233567D1*
X769000Y2956516D2*
X469000D1*
Y3156484D1*
X769000D1*
Y2956516D1*
X537760Y2987767D2*
X512740D1*
X525250Y2975257D2*
Y3000278D1*
X731500Y2981487D2*
X712750D1*
X737740Y3125233D2*
G02X706480Y3119003I-17179J4657D01*
G01*
G03X675250Y3119003I-15615J-3097D01*
G01*
X550240Y3125233D2*
G02X518980Y3119003I-17179J4657D01*
G01*
G03X487750Y3119003I-15615J-3097D01*
G01*
X494000Y1231484D2*
X794000D1*
Y1031516D1*
X494000D1*
Y1231484D1*
X725240Y1200233D2*
X750260D1*
X737750Y1212743D2*
Y1187722D1*
X531500Y1206513D2*
X550250D1*
X525260Y1062767D2*
G02X556520Y1068997I17179J-4657D01*
G01*
G03X587750Y1068997I15615J3097D01*
G01*
X712760Y1062767D2*
G02X744020Y1068997I17179J-4657D01*
G01*
G03X775250Y1068997I15615J3097D01*
G01*
X931500Y1231484D2*
X1231500D1*
Y1031516D1*
X931500D1*
Y1231484D1*
X1162740Y1200233D2*
X1187760D1*
X1175250Y1212743D2*
Y1187722D1*
X969000Y1206513D2*
X987750D1*
X962760Y1062767D2*
G02X994020Y1068997I17179J-4657D01*
G01*
G03X1025250Y1068997I15615J3097D01*
G01*
X1150260Y1062767D2*
G02X1181520Y1068997I17179J-4657D01*
G01*
G03X1212750Y1068997I15615J3097D01*
G01*
X1356500Y1231484D2*
X1656500D1*
Y1031516D1*
X1356500D1*
Y1231484D1*
X1587740Y1200233D2*
X1612760D1*
X1600250Y1212743D2*
Y1187722D1*
X1394000Y1206513D2*
X1412750D1*
X1387760Y1062767D2*
G02X1419020Y1068997I17179J-4657D01*
G01*
G03X1450250Y1068997I15615J3097D01*
G01*
X1575260Y1062767D2*
G02X1606520Y1068997I17179J-4657D01*
G01*
G03X1637750Y1068997I15615J3097D01*
G01*
X1781500Y1231484D2*
X2081500D1*
Y1031516D1*
X1781500D1*
Y1231484D1*
X2012740Y1200233D2*
X2037760D1*
X2025250Y1212743D2*
Y1187722D1*
X1819000Y1206513D2*
X1837750D1*
X1812760Y1062767D2*
G02X1844020Y1068997I17179J-4657D01*
G01*
G03X1875250Y1068997I15615J3097D01*
G01*
X2000260Y1062767D2*
G02X2031520Y1068997I17179J-4657D01*
G01*
G03X2062750Y1068997I15615J3097D01*
G01*
X784551Y1529716D2*
Y1742284D1*
X603449Y1529716D2*
X784551D1*
Y1742284D2*
X603449D1*
Y1529716D2*
Y1612367D1*
Y1742284D2*
Y1659633D1*
Y1612367D2*
G03X603449Y1659633I1J23633D01*
G01*
X1172051Y1529716D2*
Y1742284D1*
X990949Y1529716D2*
X1172051D1*
Y1742284D2*
X990949D1*
Y1529716D2*
Y1612367D1*
Y1742284D2*
Y1659633D1*
Y1612367D2*
G03X990949Y1659633I1J23633D01*
G01*
X1609551Y1530039D2*
Y1742607D1*
X1428449Y1530039D2*
X1609551D1*
Y1742607D2*
X1428449D1*
Y1530039D2*
Y1612690D1*
Y1742607D2*
Y1659956D1*
Y1612690D2*
G03X1428449Y1659956I1J23633D01*
G01*
X2059551Y1530039D2*
Y1742607D1*
X1878449Y1530039D2*
X2059551D1*
Y1742607D2*
X1878449D1*
Y1530039D2*
Y1612690D1*
Y1742607D2*
Y1659956D1*
Y1612690D2*
G03X1878449Y1659956I1J23633D01*
G01*
G36*
X2644000Y994000D2*
X2744000D1*
X2694000Y906500D1*
X2644000Y994000D1*
G37*
G36*
X3256500D2*
X3356500D1*
X3306500Y894000D1*
X3256500Y994000D1*
G37*
G36*
X3831500D2*
X3931500D1*
X3881500Y906500D1*
X3831500Y994000D1*
G37*
G36*
X3794000Y3194000D2*
X3906500D1*
X3844000Y3281500D1*
X3856500D1*
X3794000Y3194000D1*
G37*
X881500Y806500D2*
D22*
Y394000D1*
X1281500Y819000D2*
Y394000D1*
X1681500Y819000D2*
Y394000D1*
X2069000Y819000D2*
Y394000D1*
D24*
X1244000Y2381500D3*
G36*
X2231500Y981500D2*
X2256500Y1256500D1*
X2344000Y1219000D1*
X2406500Y1469000D1*
X2519000Y1381500D1*
X2394000Y1106500D1*
X2281500Y1169000D1*
D1*
X2231500Y981500D1*
G37*
X2319000Y769000D2*
D23*
X2531500D1*
Y531500D1*
X2319000D1*
Y769000D1*
X2591230Y3385206D2*
D98*
X2588854Y3389959D1*
X2584045Y3394768D1*
X2579292Y3397144D1*
X2569731D1*
X2564922Y3394768D1*
X2560169Y3389959D1*
X2557737Y3385206D1*
X2555360Y3378021D1*
Y3366028D1*
X2557737Y3358898D1*
X2560169Y3354089D1*
X2564922Y3349336D1*
X2569731Y3346904D1*
X2579292D1*
X2584045Y3349336D1*
X2588854Y3354089D1*
X2591230Y3358898D1*
X2606670Y3387527D2*
X2611478Y3389959D1*
X2618663Y3397089D1*
Y3346904D1*
X955480Y3385206D2*
X953104Y3389959D1*
X948295Y3394768D1*
X943542Y3397144D1*
X933981D1*
X929172Y3394768D1*
X924419Y3389959D1*
X921987Y3385206D1*
X919611Y3378021D1*
Y3366028D1*
X921987Y3358898D1*
X924419Y3354089D1*
X929172Y3349336D1*
X933981Y3346904D1*
X943542D1*
X948295Y3349336D1*
X953104Y3354089D1*
X955480Y3358898D1*
X973352Y3385151D2*
Y3387527D1*
X975728Y3392336D1*
X978105Y3394712D1*
X982913Y3397089D1*
X992475D1*
X997228Y3394712D1*
X999605Y3392336D1*
X1002036Y3387527D1*
Y3382774D1*
X999605Y3377966D1*
X994851Y3370836D1*
X970920Y3346904D1*
X1004413D1*
X1237469Y2311682D2*
X1235092Y2316436D1*
X1230284Y2321244D1*
X1225530Y2323621D1*
X1215969D1*
X1211160Y2321244D1*
X1206407Y2316436D1*
X1203975Y2311682D1*
X1201599Y2304497D1*
Y2292504D1*
X1203975Y2285374D1*
X1206407Y2280566D1*
X1211160Y2275813D1*
X1215969Y2273381D1*
X1225530D1*
X1230284Y2275813D1*
X1235092Y2280566D1*
X1237469Y2285374D1*
X1257716Y2323565D2*
X1283969D1*
X1269655Y2304442D1*
X1276840D1*
X1281593Y2302066D1*
X1283969Y2299689D1*
X1286401Y2292504D1*
Y2287751D1*
X1283969Y2280566D1*
X1279216Y2275757D1*
X1272031Y2273381D1*
X1264846D1*
X1257716Y2275757D1*
X1255340Y2278189D1*
X1252908Y2282942D1*
X1529292Y3385206D2*
X1526916Y3389959D1*
X1522107Y3394768D1*
X1517354Y3397144D1*
X1507792D1*
X1502984Y3394768D1*
X1498231Y3389959D1*
X1495799Y3385206D1*
X1493422Y3378021D1*
Y3366028D1*
X1495799Y3358898D1*
X1498231Y3354089D1*
X1502984Y3349336D1*
X1507792Y3346904D1*
X1517354D1*
X1522107Y3349336D1*
X1526916Y3354089D1*
X1529292Y3358898D1*
X1568663Y3346904D2*
Y3397089D1*
X1544731Y3363651D1*
X1580601D1*
X890688Y2520452D2*
X885934Y2518075D1*
X881126Y2513267D1*
X878749Y2508514D1*
Y2498952D1*
X881126Y2494143D1*
X885934Y2489390D1*
X890688Y2486958D1*
X897873Y2484582D1*
X909866D1*
X916996Y2486958D1*
X921804Y2489390D1*
X926558Y2494143D1*
X928989Y2498952D1*
Y2508513D1*
X926558Y2513267D1*
X921804Y2518075D1*
X916996Y2520452D1*
X878805Y2564576D2*
Y2540699D1*
X900305Y2538323D1*
X897928Y2540699D1*
X895496Y2547884D1*
Y2555014D1*
X897928Y2562199D1*
X902681Y2567008D1*
X909866Y2569384D1*
X914619D1*
X921804Y2567008D1*
X926613Y2562199D1*
X928989Y2555014D1*
Y2547884D1*
X926613Y2540699D1*
X924181Y2538323D1*
X919428Y2535891D1*
X890688Y2718202D2*
X885934Y2715825D1*
X881126Y2711017D1*
X878749Y2706264D1*
Y2696702D1*
X881126Y2691893D1*
X885934Y2687140D1*
X890688Y2684708D1*
X897873Y2682332D1*
X909866D1*
X916996Y2684708D1*
X921804Y2687140D1*
X926558Y2691893D1*
X928989Y2696702D1*
Y2706263D1*
X926558Y2711017D1*
X921804Y2715825D1*
X916996Y2718202D1*
X885934Y2762326D2*
X881181Y2759949D1*
X878805Y2752764D1*
Y2748011D1*
X881181Y2740826D1*
X888366Y2736018D1*
X900305Y2733641D1*
X912243D1*
X921804Y2736018D1*
X926613Y2740826D1*
X928989Y2748011D1*
Y2750388D1*
X926613Y2757517D1*
X921804Y2762326D1*
X914619Y2764702D1*
X912243D1*
X905058Y2762326D1*
X900305Y2757517D1*
X897928Y2750388D1*
Y2748011D1*
X900305Y2740826D1*
X905058Y2736018D1*
X912243Y2733641D1*
X890688Y2945452D2*
X885934Y2943075D1*
X881126Y2938267D1*
X878749Y2933514D1*
Y2923952D1*
X881126Y2919143D1*
X885934Y2914390D1*
X890688Y2911958D1*
X897873Y2909582D1*
X909866D1*
X916996Y2911958D1*
X921804Y2914390D1*
X926558Y2919143D1*
X928989Y2923952D1*
Y2933513D1*
X926558Y2938267D1*
X921804Y2943075D1*
X916996Y2945452D1*
X928989Y2970452D2*
X878805Y2994384D1*
Y2960891D1*
X2930508Y3385206D2*
X2928132Y3389959D1*
X2923323Y3394768D1*
X2918570Y3397144D1*
X2909008D1*
X2904200Y3394768D1*
X2899447Y3389959D1*
X2897015Y3385206D1*
X2894638Y3378021D1*
Y3366028D1*
X2897015Y3358898D1*
X2899447Y3354089D1*
X2904200Y3349336D1*
X2909008Y3346904D1*
X2918570D1*
X2923323Y3349336D1*
X2928132Y3354089D1*
X2930508Y3358898D1*
X2957886Y3397089D2*
X2950756Y3394712D1*
X2948324Y3389959D1*
Y3385151D1*
X2950756Y3380398D1*
X2955509Y3377966D1*
X2965071Y3375589D1*
X2972256Y3373213D1*
X2977009Y3368404D1*
X2979385Y3363651D1*
Y3356466D1*
X2977009Y3351713D1*
X2974632Y3349281D1*
X2967447Y3346904D1*
X2957886D1*
X2950756Y3349281D1*
X2948324Y3351713D1*
X2945947Y3356466D1*
Y3363651D1*
X2948324Y3368404D1*
X2953132Y3373213D1*
X2960262Y3375589D1*
X2969824Y3377966D1*
X2974632Y3380398D1*
X2977009Y3385151D1*
Y3389959D1*
X2974632Y3394712D1*
X2967447Y3397089D1*
X2957886D1*
X1522536Y2311682D2*
X1520159Y2316436D1*
X1515351Y2321244D1*
X1510598Y2323621D1*
X1501036D1*
X1496228Y2321244D1*
X1491474Y2316436D1*
X1489043Y2311682D1*
X1486666Y2304497D1*
Y2292504D1*
X1489043Y2285374D1*
X1491474Y2280566D1*
X1496228Y2275813D1*
X1501036Y2273381D1*
X1510598D1*
X1515351Y2275813D1*
X1520159Y2280566D1*
X1522536Y2285374D1*
X1537975Y2314004D2*
X1542784Y2316436D1*
X1549969Y2323565D1*
Y2273381D1*
X1579778Y2323565D2*
X1572593Y2321189D1*
X1567785Y2314004D1*
X1565408Y2302066D1*
Y2294881D1*
X1567785Y2282942D1*
X1572593Y2275757D1*
X1579778Y2273381D1*
X1584531D1*
X1591716Y2275757D1*
X1596469Y2282942D1*
X1598901Y2294881D1*
Y2302066D1*
X1596469Y2314004D1*
X1591716Y2321189D1*
X1584531Y2323565D1*
X1579778D1*
X1596469Y2314004D2*
X1567785Y2282942D1*
X1614341Y2314004D2*
X1619149Y2316436D1*
X1626334Y2323565D1*
Y2273381D1*
X1824286Y2311639D2*
X1821909Y2316392D1*
X1817101Y2321201D1*
X1812348Y2323577D1*
X1802786D1*
X1797978Y2321201D1*
X1793225Y2316392D1*
X1790793Y2311639D1*
X1788416Y2304454D1*
Y2292461D1*
X1790793Y2285331D1*
X1793225Y2280522D1*
X1797978Y2275769D1*
X1802786Y2273337D1*
X1812348D1*
X1817101Y2275769D1*
X1821909Y2280522D1*
X1824286Y2285331D1*
X1839725Y2313961D2*
X1844534Y2316392D1*
X1851719Y2323522D1*
Y2273337D1*
X1881528Y2323522D2*
X1874343Y2321146D1*
X1869535Y2313961D1*
X1867158Y2302022D1*
Y2294837D1*
X1869535Y2282899D1*
X1874343Y2275714D1*
X1881528Y2273337D1*
X1886281D1*
X1893466Y2275714D1*
X1898219Y2282899D1*
X1900651Y2294837D1*
Y2302022D1*
X1898219Y2313961D1*
X1893466Y2321146D1*
X1886281Y2323522D1*
X1881528D1*
X1898219Y2313961D2*
X1869535Y2282899D1*
X1918522Y2311584D2*
Y2313961D1*
X1920899Y2318769D1*
X1923276Y2321146D1*
X1928084Y2323522D1*
X1937646D1*
X1942399Y2321146D1*
X1944775Y2318769D1*
X1947207Y2313961D1*
Y2309207D1*
X1944775Y2304399D1*
X1940022Y2297269D1*
X1916091Y2273337D1*
X1949584D1*
X2124286Y2311639D2*
X2121909Y2316392D1*
X2117101Y2321201D1*
X2112348Y2323577D1*
X2102786D1*
X2097978Y2321201D1*
X2093225Y2316392D1*
X2090793Y2311639D1*
X2088416Y2304454D1*
Y2292461D1*
X2090793Y2285331D1*
X2093225Y2280522D1*
X2097978Y2275769D1*
X2102786Y2273337D1*
X2112348D1*
X2117101Y2275769D1*
X2121909Y2280522D1*
X2124286Y2285331D1*
X2139725Y2313961D2*
X2144534Y2316392D1*
X2151719Y2323522D1*
Y2273337D1*
X2181528Y2323522D2*
X2174343Y2321146D1*
X2169535Y2313961D1*
X2167158Y2302022D1*
Y2294837D1*
X2169535Y2282899D1*
X2174343Y2275714D1*
X2181528Y2273337D1*
X2186281D1*
X2193466Y2275714D1*
X2198219Y2282899D1*
X2200651Y2294837D1*
Y2302022D1*
X2198219Y2313961D1*
X2193466Y2321146D1*
X2186281Y2323522D1*
X2181528D1*
X2198219Y2313961D2*
X2169535Y2282899D1*
X2220899Y2323522D2*
X2247152D1*
X2232837Y2304399D1*
X2240022D1*
X2244775Y2302022D1*
X2247152Y2299646D1*
X2249584Y2292461D1*
Y2287707D1*
X2247152Y2280522D1*
X2242399Y2275714D1*
X2235214Y2273337D1*
X2228029D1*
X2220899Y2275714D1*
X2218522Y2278146D1*
X2216091Y2282899D1*
X2410598Y2311639D2*
X2408221Y2316392D1*
X2403413Y2321201D1*
X2398659Y2323577D1*
X2389098D1*
X2384289Y2321201D1*
X2379536Y2316392D1*
X2377104Y2311639D1*
X2374728Y2304454D1*
Y2292461D1*
X2377104Y2285331D1*
X2379536Y2280522D1*
X2384289Y2275769D1*
X2389098Y2273337D1*
X2398659D1*
X2403413Y2275769D1*
X2408221Y2280522D1*
X2410598Y2285331D1*
X2426037Y2313961D2*
X2430845Y2316392D1*
X2438030Y2323522D1*
Y2273337D1*
X2467840Y2323522D2*
X2460655Y2321146D1*
X2455846Y2313961D1*
X2453470Y2302022D1*
Y2294837D1*
X2455846Y2282899D1*
X2460655Y2275714D1*
X2467840Y2273337D1*
X2472593D1*
X2479778Y2275714D1*
X2484531Y2282899D1*
X2486963Y2294837D1*
Y2302022D1*
X2484531Y2313961D1*
X2479778Y2321146D1*
X2472593Y2323522D1*
X2467840D1*
X2484531Y2313961D2*
X2455846Y2282899D1*
X2526334Y2273337D2*
Y2323522D1*
X2502402Y2290084D1*
X2538272D1*
X1823872Y3223719D2*
Y3173479D1*
X1840618D1*
X1847803Y3175911D1*
X1852612Y3180664D1*
X1854988Y3185473D1*
X1857365Y3192602D1*
Y3204596D1*
X1854988Y3211781D1*
X1852612Y3216534D1*
X1847803Y3221343D1*
X1840618Y3223719D1*
X1823872D1*
X1872804Y3214102D2*
X1877613Y3216534D1*
X1884798Y3223664D1*
Y3173479D1*
X961623Y1933138D2*
X1011863D1*
Y1949884D1*
X1009432Y1957069D1*
X1004678Y1961878D1*
X999870Y1964254D1*
X992740Y1966631D1*
X980747D1*
X973562Y1964254D1*
X968808Y1961878D1*
X964000Y1957069D1*
X961623Y1949884D1*
Y1933138D1*
X973617Y1984502D2*
X971240D1*
X966432Y1986879D1*
X964055Y1989255D1*
X961679Y1994064D1*
Y2003625D1*
X964055Y2008378D1*
X966432Y2010755D1*
X971240Y2013187D1*
X975994D1*
X980802Y2010755D1*
X987932Y2006002D1*
X1011863Y1982070D1*
Y2015563D1*
X1813122Y3348719D2*
Y3298479D1*
X1829868D1*
X1837053Y3300911D1*
X1841862Y3305664D1*
X1844238Y3310473D1*
X1846615Y3317602D1*
Y3329596D1*
X1844238Y3336781D1*
X1841862Y3341534D1*
X1837053Y3346343D1*
X1829868Y3348719D1*
X1813122D1*
X1866863Y3348664D2*
X1893116D1*
X1878801Y3329541D1*
X1885986D1*
X1890739Y3327164D1*
X1893116Y3324787D1*
X1895548Y3317602D1*
Y3312849D1*
X1893116Y3305664D1*
X1888363Y3300856D1*
X1881178Y3298479D1*
X1873992D1*
X1866863Y3300856D1*
X1864486Y3303288D1*
X1862054Y3308041D1*
X3724123Y2430965D2*
X3774363D1*
Y2447711D1*
X3771932Y2454896D1*
X3767178Y2459705D1*
X3762370Y2462081D1*
X3755240Y2464458D1*
X3743247D1*
X3736062Y2462081D1*
X3731308Y2459705D1*
X3726500Y2454896D1*
X3724123Y2447711D1*
Y2430965D1*
X3733740Y2479897D2*
X3731308Y2484706D1*
X3724179Y2491891D1*
X3774363D1*
X3724179Y2521700D2*
X3726555Y2514515D1*
X3733740Y2509706D1*
X3745679Y2507330D1*
X3752864D1*
X3764802Y2509706D1*
X3771987Y2514515D1*
X3774363Y2521700D1*
Y2526453D1*
X3771987Y2533638D1*
X3764802Y2538391D1*
X3752864Y2540823D1*
X3745679D1*
X3733740Y2538391D1*
X3726555Y2533638D1*
X3724179Y2526453D1*
Y2521700D1*
X3733740Y2538391D2*
X3764802Y2509706D1*
X3733740Y2556262D2*
X3731308Y2561071D1*
X3724179Y2568256D1*
X3774363D1*
X424123Y1895215D2*
X474363D1*
Y1911961D1*
X471932Y1919146D1*
X467178Y1923955D1*
X462370Y1926331D1*
X455240Y1928708D1*
X443247D1*
X436062Y1926331D1*
X431308Y1923955D1*
X426500Y1919146D1*
X424123Y1911961D1*
Y1895215D1*
X433740Y1944147D2*
X431308Y1948956D1*
X424179Y1956141D1*
X474363D1*
X424179Y1985950D2*
X426555Y1978765D1*
X433740Y1973957D1*
X445679Y1971580D1*
X452864D1*
X464802Y1973957D1*
X471987Y1978765D1*
X474363Y1985950D1*
Y1990703D1*
X471987Y1997888D1*
X464802Y2002641D1*
X452864Y2005073D1*
X445679D1*
X433740Y2002641D1*
X426555Y1997888D1*
X424179Y1990703D1*
Y1985950D1*
X433740Y2002641D2*
X464802Y1973957D1*
X436117Y2022944D2*
X433740D1*
X428932Y2025321D1*
X426555Y2027698D1*
X424179Y2032506D1*
Y2042068D1*
X426555Y2046821D1*
X428932Y2049197D1*
X433740Y2051629D1*
X438494D1*
X443302Y2049197D1*
X450432Y2044444D1*
X474363Y2020513D1*
Y2054006D1*
X2862439Y2323719D2*
Y2273479D1*
X2879186D1*
X2886371Y2275911D1*
X2891179Y2280664D1*
X2893556Y2285473D1*
X2895932Y2292602D1*
Y2304596D1*
X2893556Y2311781D1*
X2891179Y2316534D1*
X2886371Y2321343D1*
X2879186Y2323719D1*
X2862439D1*
X2911372Y2314102D2*
X2916180Y2316534D1*
X2923365Y2323664D1*
Y2273479D1*
X2953174Y2323664D2*
X2945989Y2321287D1*
X2941181Y2314102D1*
X2938804Y2302164D1*
Y2294979D1*
X2941181Y2283041D1*
X2945989Y2275856D1*
X2953174Y2273479D1*
X2957928D1*
X2965113Y2275856D1*
X2969866Y2283041D1*
X2972298Y2294979D1*
Y2302164D1*
X2969866Y2314102D1*
X2965113Y2321287D1*
X2957928Y2323664D1*
X2953174D1*
X2969866Y2314102D2*
X2941181Y2283041D1*
X2992545Y2323664D2*
X3018798D1*
X3004484Y2304541D1*
X3011669D1*
X3016422Y2302164D1*
X3018798Y2299787D1*
X3021230Y2292602D1*
Y2287849D1*
X3018798Y2280664D1*
X3014045Y2275856D1*
X3006860Y2273479D1*
X2999675D1*
X2992545Y2275856D1*
X2990169Y2278288D1*
X2987737Y2283041D1*
X561623Y1894026D2*
X611863D1*
Y1910773D1*
X609432Y1917958D1*
X604678Y1922767D1*
X599870Y1925143D1*
X592740Y1927520D1*
X580747D1*
X573562Y1925143D1*
X568808Y1922767D1*
X564000Y1917958D1*
X561623Y1910773D1*
Y1894026D1*
X571240Y1942959D2*
X568808Y1947767D1*
X561679Y1954952D1*
X611863D1*
X561679Y1984762D2*
X564055Y1977577D1*
X571240Y1972768D1*
X583179Y1970392D1*
X590364D1*
X602302Y1972768D1*
X609487Y1977577D1*
X611863Y1984762D1*
Y1989515D1*
X609487Y1996700D1*
X602302Y2001453D1*
X590364Y2003885D1*
X583179D1*
X571240Y2001453D1*
X564055Y1996700D1*
X561679Y1989515D1*
Y1984762D1*
X571240Y2001453D2*
X602302Y1972768D1*
X611863Y2043256D2*
X561679D1*
X595117Y2019324D1*
Y2055194D1*
X3861623Y2420215D2*
X3911863D1*
Y2436961D1*
X3909432Y2444146D1*
X3904678Y2448955D1*
X3899870Y2451331D1*
X3892740Y2453708D1*
X3880747D1*
X3873562Y2451331D1*
X3868808Y2448955D1*
X3864000Y2444146D1*
X3861623Y2436961D1*
Y2420215D1*
X3871240Y2469147D2*
X3868808Y2473956D1*
X3861679Y2481141D1*
X3911863D1*
X3861679Y2510950D2*
X3864055Y2503765D1*
X3871240Y2498957D1*
X3883179Y2496580D1*
X3890364D1*
X3902302Y2498957D1*
X3909487Y2503765D1*
X3911863Y2510950D1*
Y2515703D1*
X3909487Y2522888D1*
X3902302Y2527641D1*
X3890364Y2530073D1*
X3883179D1*
X3871240Y2527641D1*
X3864055Y2522888D1*
X3861679Y2515703D1*
Y2510950D1*
X3871240Y2527641D2*
X3902302Y2498957D1*
X3861679Y2574197D2*
Y2550321D1*
X3883179Y2547944D1*
X3880802Y2550321D1*
X3878370Y2557506D1*
Y2564636D1*
X3880802Y2571821D1*
X3885555Y2576629D1*
X3892740Y2579006D1*
X3897493D1*
X3904678Y2576629D1*
X3909487Y2571821D1*
X3911863Y2564636D1*
Y2557506D1*
X3909487Y2550321D1*
X3907055Y2547944D1*
X3902302Y2545513D1*
X3438655Y2323719D2*
Y2273479D1*
X3455402D1*
X3462587Y2275911D1*
X3467395Y2280664D1*
X3469772Y2285473D1*
X3472148Y2292602D1*
Y2304596D1*
X3469772Y2311781D1*
X3467395Y2316534D1*
X3462587Y2321343D1*
X3455402Y2323719D1*
X3438655D1*
X3487588Y2314102D2*
X3492396Y2316534D1*
X3499581Y2323664D1*
Y2273479D1*
X3529390Y2323664D2*
X3522205Y2321287D1*
X3517397Y2314102D1*
X3515020Y2302164D1*
Y2294979D1*
X3517397Y2283041D1*
X3522205Y2275856D1*
X3529390Y2273479D1*
X3534144D1*
X3541329Y2275856D1*
X3546082Y2283041D1*
X3548514Y2294979D1*
Y2302164D1*
X3546082Y2314102D1*
X3541329Y2321287D1*
X3534144Y2323664D1*
X3529390D1*
X3546082Y2314102D2*
X3517397Y2283041D1*
X3592638Y2316534D2*
X3590261Y2321287D1*
X3583076Y2323664D1*
X3578323D1*
X3571138Y2321287D1*
X3566329Y2314102D1*
X3563953Y2302164D1*
Y2290226D1*
X3566329Y2280664D1*
X3571138Y2275856D1*
X3578323Y2273479D1*
X3580700D1*
X3587829Y2275856D1*
X3592638Y2280664D1*
X3595014Y2287849D1*
Y2290226D1*
X3592638Y2297411D1*
X3587829Y2302164D1*
X3580700Y2304541D1*
X3578323D1*
X3571138Y2302164D1*
X3566329Y2297411D1*
X3563953Y2290226D1*
X699123Y1895215D2*
X749363D1*
Y1911961D1*
X746932Y1919146D1*
X742178Y1923955D1*
X737370Y1926331D1*
X730240Y1928708D1*
X718247D1*
X711062Y1926331D1*
X706308Y1923955D1*
X701500Y1919146D1*
X699123Y1911961D1*
Y1895215D1*
X708740Y1944147D2*
X706308Y1948956D1*
X699179Y1956141D1*
X749363D1*
X699179Y1985950D2*
X701555Y1978765D1*
X708740Y1973957D1*
X720679Y1971580D1*
X727864D1*
X739802Y1973957D1*
X746987Y1978765D1*
X749363Y1985950D1*
Y1990703D1*
X746987Y1997888D1*
X739802Y2002641D1*
X727864Y2005073D1*
X720679D1*
X708740Y2002641D1*
X701555Y1997888D1*
X699179Y1990703D1*
Y1985950D1*
X708740Y2002641D2*
X739802Y1973957D1*
X749363Y2030074D2*
X699179Y2054006D1*
Y2020513D1*
X4024123Y2420242D2*
X4074363D1*
Y2436989D1*
X4071932Y2444174D1*
X4067178Y2448982D1*
X4062370Y2451359D1*
X4055240Y2453736D1*
X4043247D1*
X4036062Y2451359D1*
X4031308Y2448983D1*
X4026500Y2444174D1*
X4024123Y2436989D1*
Y2420242D1*
X4033740Y2469175D2*
X4031308Y2473983D1*
X4024179Y2481168D1*
X4074363D1*
X4024179Y2510978D2*
X4026555Y2503793D1*
X4033740Y2498984D1*
X4045679Y2496608D1*
X4052864D1*
X4064802Y2498984D1*
X4071987Y2503793D1*
X4074363Y2510978D1*
Y2515731D1*
X4071987Y2522916D1*
X4064802Y2527669D1*
X4052864Y2530101D1*
X4045679D1*
X4033740Y2527669D1*
X4026555Y2522916D1*
X4024179Y2515731D1*
Y2510978D1*
X4033740Y2527669D2*
X4064802Y2498984D1*
X4024179Y2557478D2*
X4026555Y2550349D1*
X4031308Y2547917D1*
X4036117D1*
X4040870Y2550349D1*
X4043302Y2555102D1*
X4045679Y2564663D1*
X4048055Y2571848D1*
X4052864Y2576602D1*
X4057617Y2578978D1*
X4064802D1*
X4069555Y2576602D1*
X4071987Y2574225D1*
X4074363Y2567040D1*
Y2557478D1*
X4071987Y2550349D1*
X4069555Y2547917D1*
X4064802Y2545540D1*
X4057617D1*
X4052864Y2547917D1*
X4048055Y2552725D1*
X4045679Y2559855D1*
X4043302Y2569417D1*
X4040870Y2574225D1*
X4036117Y2576602D1*
X4031308D1*
X4026555Y2574225D1*
X4024179Y2567040D1*
Y2557478D1*
X4001127Y2336219D2*
Y2285979D1*
X4017874D1*
X4025059Y2288411D1*
X4029867Y2293164D1*
X4032244Y2297973D1*
X4034621Y2305102D1*
Y2317096D1*
X4032244Y2324281D1*
X4029867Y2329034D1*
X4025059Y2333843D1*
X4017874Y2336219D1*
X4001127D1*
X4050060Y2326602D2*
X4054868Y2329034D1*
X4062053Y2336164D1*
Y2285979D1*
X4091863Y2336164D2*
X4084678Y2333787D1*
X4079869Y2326602D1*
X4077493Y2314664D1*
Y2307479D1*
X4079869Y2295541D1*
X4084678Y2288356D1*
X4091863Y2285979D1*
X4096616D1*
X4103801Y2288356D1*
X4108554Y2295541D1*
X4110986Y2307479D1*
Y2314664D1*
X4108554Y2326602D1*
X4103801Y2333787D1*
X4096616Y2336164D1*
X4091863D1*
X4108554Y2326602D2*
X4079869Y2295541D1*
X4157542Y2319472D2*
X4155110Y2312287D1*
X4150357Y2307479D1*
X4143172Y2305102D1*
X4140795D1*
X4133610Y2307479D1*
X4128857Y2312287D1*
X4126425Y2319472D1*
Y2321849D1*
X4128857Y2329034D1*
X4133610Y2333787D1*
X4140795Y2336164D1*
X4143172D1*
X4150357Y2333787D1*
X4155110Y2329034D1*
X4157542Y2319472D1*
Y2307479D1*
X4155110Y2295541D1*
X4150357Y2288356D1*
X4143172Y2285979D1*
X4138419D1*
X4131234Y2288356D1*
X4128857Y2293164D1*
X836623Y1905965D2*
X886863D1*
Y1922711D1*
X884432Y1929896D1*
X879678Y1934705D1*
X874870Y1937081D1*
X867740Y1939458D1*
X855747D1*
X848562Y1937081D1*
X843808Y1934705D1*
X839000Y1929896D1*
X836623Y1922711D1*
Y1905965D1*
X846240Y1954897D2*
X843808Y1959706D1*
X836679Y1966891D1*
X886863D1*
X846240Y1982330D2*
X843808Y1987138D1*
X836679Y1994323D1*
X886863D1*
X836679Y2024133D2*
X839055Y2016948D1*
X846240Y2012139D1*
X858179Y2009763D1*
X865364D1*
X877302Y2012139D1*
X884487Y2016948D1*
X886863Y2024133D1*
Y2028886D1*
X884487Y2036071D1*
X877302Y2040824D1*
X865364Y2043256D1*
X858179D1*
X846240Y2040824D1*
X839055Y2036071D1*
X836679Y2028886D1*
Y2024133D1*
X846240Y2040824D2*
X877302Y2012139D1*
X4149123Y2441715D2*
X4199363D1*
Y2458461D1*
X4196932Y2465646D1*
X4192178Y2470455D1*
X4187370Y2472831D1*
X4180240Y2475208D1*
X4168247D1*
X4161062Y2472831D1*
X4156308Y2470455D1*
X4151500Y2465646D1*
X4149123Y2458461D1*
Y2441715D1*
X4158740Y2490647D2*
X4156308Y2495456D1*
X4149179Y2502641D1*
X4199363D1*
X4158740Y2518080D2*
X4156308Y2522888D1*
X4149179Y2530073D1*
X4199363D1*
X4158740Y2545513D2*
X4156308Y2550321D1*
X4149179Y2557506D1*
X4199363D1*
X3001781Y2848189D2*
X3052021D1*
Y2864936D1*
X3049589Y2872121D1*
X3044836Y2876929D1*
X3040027Y2879306D1*
X3032898Y2881682D1*
X3020904D1*
X3013719Y2879306D1*
X3008966Y2876929D1*
X3004157Y2872121D1*
X3001781Y2864936D1*
Y2848189D1*
X3011398Y2897122D2*
X3008966Y2901930D1*
X3001836Y2909115D1*
X3052021D1*
X3011398Y2924554D2*
X3008966Y2929363D1*
X3001836Y2936548D1*
X3052021D1*
X3013774Y2954419D2*
X3011398D1*
X3006589Y2956795D1*
X3004213Y2959172D1*
X3001836Y2963981D1*
Y2973542D1*
X3004213Y2978295D1*
X3006589Y2980672D1*
X3011398Y2983104D1*
X3016151D1*
X3020959Y2980672D1*
X3028089Y2975919D1*
X3052021Y2951987D1*
Y2985480D1*
X2142249Y3091436D2*
Y3053189D1*
X2139873Y3046004D1*
X2137441Y3043628D1*
X2132688Y3041196D1*
X2127879D1*
X2123126Y3043628D1*
X2120750Y3046004D1*
X2118318Y3053189D1*
Y3057942D1*
X2157689Y3081819D2*
X2162497Y3084251D1*
X2169682Y3091380D1*
Y3041196D1*
X2131500Y2491436D2*
Y2453189D1*
X2129123Y2446004D1*
X2126691Y2443628D1*
X2121938Y2441196D1*
X2117129D1*
X2112376Y2443628D1*
X2110000Y2446004D1*
X2107568Y2453189D1*
Y2457942D1*
X2149371Y2479442D2*
Y2481819D1*
X2151747Y2486627D1*
X2154124Y2489004D1*
X2158932Y2491380D1*
X2168494D1*
X2173247Y2489004D1*
X2175624Y2486627D1*
X2178056Y2481819D1*
Y2477066D1*
X2175624Y2472257D1*
X2170871Y2465127D1*
X2146939Y2441196D1*
X2180432D1*
X763389Y3813680D2*
Y3775433D1*
X761013Y3768248D1*
X758581Y3765872D1*
X753828Y3763440D1*
X749019D1*
X744266Y3765872D1*
X741889Y3768248D1*
X739458Y3775433D1*
Y3780186D1*
X783637Y3813624D2*
X809890D1*
X795575Y3794501D1*
X802760D1*
X807513Y3792125D1*
X809890Y3789748D1*
X812322Y3782563D1*
Y3777810D1*
X809890Y3770625D1*
X805137Y3765816D1*
X797952Y3763440D1*
X790767D1*
X783637Y3765816D1*
X781260Y3768248D1*
X778829Y3773001D1*
X1352752Y3813680D2*
Y3775433D1*
X1350376Y3768248D1*
X1347944Y3765872D1*
X1343191Y3763440D1*
X1338382D1*
X1333629Y3765872D1*
X1331252Y3768248D1*
X1328821Y3775433D1*
Y3780186D1*
X1392123Y3763440D2*
Y3813624D1*
X1368191Y3780186D1*
X1404061D1*
X1944492Y3813680D2*
Y3775433D1*
X1942115Y3768248D1*
X1939683Y3765872D1*
X1934930Y3763440D1*
X1930122D1*
X1925368Y3765872D1*
X1922992Y3768248D1*
X1920560Y3775433D1*
Y3780186D1*
X1988616Y3813624D2*
X1964739D1*
X1962363Y3792125D1*
X1964739Y3794501D1*
X1971924Y3796933D1*
X1979054D1*
X1986239Y3794501D1*
X1991048Y3789748D1*
X1993424Y3782563D1*
Y3777810D1*
X1991048Y3770625D1*
X1986239Y3765816D1*
X1979054Y3763440D1*
X1971924D1*
X1964739Y3765816D1*
X1962363Y3768248D1*
X1959931Y3773001D1*
X2839408Y3813680D2*
Y3775433D1*
X2837032Y3768248D1*
X2834600Y3765872D1*
X2829847Y3763440D1*
X2825038D1*
X2820285Y3765872D1*
X2817909Y3768248D1*
X2815477Y3775433D1*
Y3780186D1*
X2883533Y3806495D2*
X2881156Y3811248D1*
X2873971Y3813624D1*
X2869218D1*
X2862033Y3811248D1*
X2857224Y3804063D1*
X2854848Y3792125D1*
Y3780186D1*
X2857224Y3770625D1*
X2862033Y3765816D1*
X2869218Y3763440D1*
X2871594D1*
X2878724Y3765816D1*
X2883533Y3770625D1*
X2885909Y3777810D1*
Y3780186D1*
X2883533Y3787371D1*
X2878724Y3792125D1*
X2871594Y3794501D1*
X2869218D1*
X2862033Y3792125D1*
X2857224Y3787371D1*
X2854848Y3780186D1*
X3428744Y3813680D2*
Y3775433D1*
X3426367Y3768248D1*
X3423935Y3765872D1*
X3419182Y3763440D1*
X3414374D1*
X3409620Y3765872D1*
X3407244Y3768248D1*
X3404812Y3775433D1*
Y3780186D1*
X3453745Y3763440D2*
X3477676Y3813624D1*
X3444183D1*
X4019322Y3813680D2*
Y3775433D1*
X4016946Y3768248D1*
X4014514Y3765872D1*
X4009761Y3763440D1*
X4004952D1*
X4000199Y3765872D1*
X3997823Y3768248D1*
X3995391Y3775433D1*
Y3780186D1*
X4046700Y3813624D2*
X4039570Y3811248D1*
X4037138Y3806495D1*
Y3801686D1*
X4039570Y3796933D1*
X4044323Y3794501D1*
X4053885Y3792125D1*
X4061070Y3789748D1*
X4065823Y3784940D1*
X4068200Y3780186D1*
Y3773001D1*
X4065823Y3768248D1*
X4063447Y3765816D1*
X4056262Y3763440D1*
X4046700D1*
X4039570Y3765816D1*
X4037138Y3768248D1*
X4034762Y3773001D1*
Y3780186D1*
X4037138Y3784940D1*
X4041947Y3789748D1*
X4049077Y3792125D1*
X4058638Y3794501D1*
X4063447Y3796933D1*
X4065823Y3801686D1*
Y3806495D1*
X4063447Y3811248D1*
X4056262Y3813624D1*
X4046700D1*
X788200Y892420D2*
Y854173D1*
X785823Y846988D1*
X783391Y844612D1*
X778638Y842180D1*
X773830D1*
X769076Y844612D1*
X766700Y846988D1*
X764268Y854173D1*
Y858927D1*
X834756Y875673D2*
X832324Y868488D1*
X827571Y863680D1*
X820386Y861303D1*
X818009D1*
X810824Y863680D1*
X806071Y868488D1*
X803639Y875673D1*
Y878050D1*
X806071Y885235D1*
X810824Y889988D1*
X818009Y892365D1*
X820386D1*
X827571Y889988D1*
X832324Y885235D1*
X834756Y875673D1*
Y863680D1*
X832324Y851742D1*
X827571Y844557D1*
X820386Y842180D1*
X815632D1*
X808447Y844557D1*
X806071Y849365D1*
X1363846Y892420D2*
Y854173D1*
X1361470Y846988D1*
X1359038Y844612D1*
X1354285Y842180D1*
X1349476D1*
X1344723Y844612D1*
X1342346Y846988D1*
X1339914Y854173D1*
Y858927D1*
X1379285Y882803D2*
X1384094Y885235D1*
X1391279Y892365D1*
Y842180D1*
X1421088Y892365D2*
X1413903Y889988D1*
X1409095Y882803D1*
X1406718Y870865D1*
Y863680D1*
X1409095Y851742D1*
X1413903Y844557D1*
X1421088Y842180D1*
X1425841D1*
X1433026Y844557D1*
X1437780Y851742D1*
X1440212Y863680D1*
Y870865D1*
X1437780Y882803D1*
X1433026Y889988D1*
X1425841Y892365D1*
X1421088D1*
X1437780Y882803D2*
X1409095Y851742D1*
X1965147Y892420D2*
Y854173D1*
X1962771Y846988D1*
X1960339Y844612D1*
X1955586Y842180D1*
X1950777D1*
X1946024Y844612D1*
X1943647Y846988D1*
X1941216Y854173D1*
Y858927D1*
X1980587Y882803D2*
X1985395Y885235D1*
X1992580Y892365D1*
Y842180D1*
X2008019Y882803D2*
X2012828Y885235D1*
X2020013Y892365D1*
Y842180D1*
X2848098Y892420D2*
Y854173D1*
X2845722Y846988D1*
X2843290Y844612D1*
X2838537Y842180D1*
X2833728D1*
X2828975Y844612D1*
X2826598Y846988D1*
X2824166Y854173D1*
Y858927D1*
X2863537Y882803D2*
X2868346Y885235D1*
X2875531Y892365D1*
Y842180D1*
X2893402Y880426D2*
Y882803D1*
X2895779Y887611D1*
X2898155Y889988D1*
X2902964Y892365D1*
X2912525D1*
X2917278Y889988D1*
X2919655Y887611D1*
X2922087Y882803D1*
Y878050D1*
X2919655Y873241D1*
X2914902Y866112D1*
X2890970Y842180D1*
X2924463D1*
X3438649Y892420D2*
Y854173D1*
X3436273Y846988D1*
X3433841Y844612D1*
X3429088Y842180D1*
X3424279D1*
X3419526Y844612D1*
X3417149Y846988D1*
X3414718Y854173D1*
Y858927D1*
X3454089Y882803D2*
X3458897Y885235D1*
X3466082Y892365D1*
Y842180D1*
X3486330Y892365D2*
X3512583D1*
X3498268Y873241D1*
X3505453D1*
X3510206Y870865D1*
X3512583Y868488D1*
X3515015Y861303D1*
Y856550D1*
X3512583Y849365D1*
X3507830Y844557D1*
X3500645Y842180D1*
X3493460D1*
X3486330Y844557D1*
X3483953Y846988D1*
X3481521Y851742D1*
X4028012Y892420D2*
Y854173D1*
X4025636Y846988D1*
X4023204Y844612D1*
X4018451Y842180D1*
X4013642D1*
X4008889Y844612D1*
X4006512Y846988D1*
X4004081Y854173D1*
Y858927D1*
X4043451Y882803D2*
X4048260Y885235D1*
X4055445Y892365D1*
Y842180D1*
X4094816D2*
Y892365D1*
X4070884Y858927D1*
X4106754D1*
X2862854Y2225589D2*
Y2175349D1*
X2896348Y2225589D2*
X2862854Y2192096D1*
X2874793Y2204089D2*
X2896348Y2175349D1*
X2911787Y2215972D2*
X2916595Y2218404D1*
X2923780Y2225534D1*
Y2175349D1*
X2953590Y2225534D2*
X2946405Y2223157D1*
X2941596Y2215972D1*
X2939220Y2204034D1*
Y2196849D1*
X2941596Y2184911D1*
X2946405Y2177726D1*
X2953590Y2175349D1*
X2958343D1*
X2965528Y2177726D1*
X2970281Y2184911D1*
X2972713Y2196849D1*
Y2204034D1*
X2970281Y2215972D1*
X2965528Y2223157D1*
X2958343Y2225534D1*
X2953590D1*
X2970281Y2215972D2*
X2941596Y2184911D1*
X2988152Y2215972D2*
X2992961Y2218404D1*
X3000146Y2225534D1*
Y2175349D1*
X3427104Y2225589D2*
Y2175349D1*
X3460598Y2225589D2*
X3427104Y2192096D1*
X3439043Y2204089D2*
X3460598Y2175349D1*
X3476037Y2215972D2*
X3480845Y2218404D1*
X3488030Y2225534D1*
Y2175349D1*
X3517840Y2225534D2*
X3510655Y2223157D1*
X3505846Y2215972D1*
X3503470Y2204034D1*
Y2196849D1*
X3505846Y2184911D1*
X3510655Y2177726D1*
X3517840Y2175349D1*
X3522593D1*
X3529778Y2177726D1*
X3534531Y2184911D1*
X3536963Y2196849D1*
Y2204034D1*
X3534531Y2215972D1*
X3529778Y2223157D1*
X3522593Y2225534D1*
X3517840D1*
X3534531Y2215972D2*
X3505846Y2184911D1*
X3554834Y2213596D2*
Y2215972D1*
X3557211Y2220781D1*
X3559587Y2223157D1*
X3564396Y2225534D1*
X3573957D1*
X3578711Y2223157D1*
X3581087Y2220781D1*
X3583519Y2215972D1*
Y2211219D1*
X3581087Y2206411D1*
X3576334Y2199281D1*
X3552402Y2175349D1*
X3585896D1*
X4002104Y2213089D2*
Y2162849D1*
X4035598Y2213089D2*
X4002104Y2179596D1*
X4014043Y2191589D2*
X4035598Y2162849D1*
X4051037Y2203472D2*
X4055845Y2205904D1*
X4063030Y2213034D1*
Y2162849D1*
X4092840Y2213034D2*
X4085655Y2210657D1*
X4080846Y2203472D1*
X4078470Y2191534D1*
Y2184349D1*
X4080846Y2172411D1*
X4085655Y2165226D1*
X4092840Y2162849D1*
X4097593D1*
X4104778Y2165226D1*
X4109531Y2172411D1*
X4111963Y2184349D1*
Y2191534D1*
X4109531Y2203472D1*
X4104778Y2210657D1*
X4097593Y2213034D1*
X4092840D1*
X4109531Y2203472D2*
X4080846Y2172411D1*
X4132211Y2213034D2*
X4158464D1*
X4144149Y2193911D1*
X4151334D1*
X4156087Y2191534D1*
X4158464Y2189158D1*
X4160896Y2181972D1*
Y2177219D1*
X4158464Y2170034D1*
X4153711Y2165226D1*
X4146526Y2162849D1*
X4139341D1*
X4132211Y2165226D1*
X4129834Y2167658D1*
X4127402Y2172411D1*
X3649637Y3212105D2*
Y3161865D1*
X3683130Y3212105D2*
X3649637Y3178612D1*
X3661575Y3190605D2*
X3683130Y3161865D1*
X3698569Y3202488D2*
X3703378Y3204920D1*
X3710563Y3212050D1*
Y3161865D1*
X3740372Y3212050D2*
X3733187Y3209673D1*
X3728378Y3202488D1*
X3726002Y3190550D1*
Y3183365D1*
X3728378Y3171427D1*
X3733187Y3164242D1*
X3740372Y3161865D1*
X3745125D1*
X3752310Y3164242D1*
X3757063Y3171427D1*
X3759495Y3183365D1*
Y3190550D1*
X3757063Y3202488D1*
X3752310Y3209673D1*
X3745125Y3212050D1*
X3740372D1*
X3757063Y3202488D2*
X3728378Y3171427D1*
X3798866Y3161865D2*
Y3212050D1*
X3774934Y3178612D1*
X3810804D1*
X3120867Y2502143D2*
X3116114Y2499822D1*
X3111306Y2495013D1*
X3108929Y2490205D1*
X3106497Y2483020D1*
Y2471082D1*
X3108929Y2463897D1*
X3111306Y2459143D1*
X3116114Y2454335D1*
X3120867Y2451958D1*
X3130429D1*
X3135237Y2454335D1*
X3139991Y2459143D1*
X3142367Y2463897D1*
X3144799Y2471082D1*
Y2483020D1*
X3142367Y2490205D1*
X3139991Y2495013D1*
X3135237Y2499822D1*
X3130429Y2502143D1*
X3120867D1*
X3128052Y2461520D2*
X3142367Y2447150D1*
X3160238Y2492526D2*
X3165047Y2494958D1*
X3172232Y2502088D1*
Y2451903D1*
X3202041Y2502088D2*
X3194856Y2499711D1*
X3190048Y2492526D1*
X3187671Y2480588D1*
Y2473403D1*
X3190048Y2461465D1*
X3194856Y2454280D1*
X3202041Y2451903D1*
X3206794D1*
X3213979Y2454280D1*
X3218733Y2461465D1*
X3221164Y2473403D1*
Y2480588D1*
X3218733Y2492526D1*
X3213979Y2499711D1*
X3206794Y2502088D1*
X3202041D1*
X3218733Y2492526D2*
X3190048Y2461465D1*
X3236604Y2492526D2*
X3241412Y2494958D1*
X3248597Y2502088D1*
Y2451903D1*
X3310117Y2502143D2*
X3305364Y2499822D1*
X3300556Y2495013D1*
X3298179Y2490205D1*
X3295747Y2483020D1*
Y2471082D1*
X3298179Y2463897D1*
X3300556Y2459143D1*
X3305364Y2454335D1*
X3310117Y2451958D1*
X3319679D1*
X3324488Y2454335D1*
X3329241Y2459143D1*
X3331617Y2463897D1*
X3334049Y2471082D1*
Y2483020D1*
X3331617Y2490205D1*
X3329241Y2495013D1*
X3324488Y2499822D1*
X3319679Y2502143D1*
X3310117D1*
X3317303Y2461520D2*
X3331617Y2447150D1*
X3349488Y2492526D2*
X3354297Y2494958D1*
X3361482Y2502088D1*
Y2451903D1*
X3391291Y2502088D2*
X3384106Y2499711D1*
X3379298Y2492526D1*
X3376921Y2480588D1*
Y2473403D1*
X3379298Y2461465D1*
X3384106Y2454280D1*
X3391291Y2451903D1*
X3396044D1*
X3403229Y2454280D1*
X3407983Y2461465D1*
X3410415Y2473403D1*
Y2480588D1*
X3407983Y2492526D1*
X3403229Y2499711D1*
X3396044Y2502088D1*
X3391291D1*
X3407983Y2492526D2*
X3379298Y2461465D1*
X3428286Y2490150D2*
Y2492526D1*
X3430662Y2497335D1*
X3433039Y2499711D1*
X3437847Y2502088D1*
X3447409D1*
X3452162Y2499711D1*
X3454539Y2497335D1*
X3456970Y2492526D1*
Y2487773D1*
X3454539Y2482964D1*
X3449785Y2475835D1*
X3425854Y2451903D1*
X3459347D1*
X3522617Y2502143D2*
X3517864Y2499822D1*
X3513056Y2495013D1*
X3510679Y2490205D1*
X3508247Y2483020D1*
Y2471082D1*
X3510679Y2463897D1*
X3513056Y2459143D1*
X3517864Y2454335D1*
X3522617Y2451958D1*
X3532179D1*
X3536988Y2454335D1*
X3541741Y2459143D1*
X3544117Y2463897D1*
X3546549Y2471082D1*
Y2483020D1*
X3544117Y2490205D1*
X3541741Y2495013D1*
X3536988Y2499822D1*
X3532179Y2502143D1*
X3522617D1*
X3529803Y2461520D2*
X3544117Y2447150D1*
X3561988Y2492526D2*
X3566797Y2494958D1*
X3573982Y2502088D1*
Y2451903D1*
X3603791Y2502088D2*
X3596606Y2499711D1*
X3591798Y2492526D1*
X3589421Y2480588D1*
Y2473403D1*
X3591798Y2461465D1*
X3596606Y2454280D1*
X3603791Y2451903D1*
X3608544D1*
X3615729Y2454280D1*
X3620483Y2461465D1*
X3622915Y2473403D1*
Y2480588D1*
X3620483Y2492526D1*
X3615729Y2499711D1*
X3608544Y2502088D1*
X3603791D1*
X3620483Y2492526D2*
X3591798Y2461465D1*
X3643162Y2502088D2*
X3669415D1*
X3655100Y2482964D1*
X3662285D1*
X3667039Y2480588D1*
X3669415Y2478211D1*
X3671847Y2471026D1*
Y2466273D1*
X3669415Y2459088D1*
X3664662Y2454280D1*
X3657477Y2451903D1*
X3650292D1*
X3643162Y2454280D1*
X3640786Y2456711D1*
X3638354Y2461465D1*
X2846429Y2914643D2*
X2841676Y2912322D1*
X2836868Y2907513D1*
X2834491Y2902705D1*
X2832059Y2895520D1*
Y2883582D1*
X2834491Y2876397D1*
X2836868Y2871643D1*
X2841676Y2866835D1*
X2846429Y2864458D1*
X2855991D1*
X2860799Y2866835D1*
X2865552Y2871643D1*
X2867929Y2876397D1*
X2870361Y2883582D1*
Y2895520D1*
X2867929Y2902705D1*
X2865552Y2907513D1*
X2860799Y2912322D1*
X2855991Y2914643D1*
X2846429D1*
X2853614Y2874020D2*
X2867929Y2859650D1*
X2885800Y2905026D2*
X2890609Y2907458D1*
X2897794Y2914588D1*
Y2864403D1*
X2927603Y2914588D2*
X2920418Y2912211D1*
X2915609Y2905026D1*
X2913233Y2893088D1*
Y2885903D1*
X2915609Y2873965D1*
X2920418Y2866780D1*
X2927603Y2864403D1*
X2932356D1*
X2939541Y2866780D1*
X2944294Y2873965D1*
X2946726Y2885903D1*
Y2893088D1*
X2944294Y2905026D1*
X2939541Y2912211D1*
X2932356Y2914588D1*
X2927603D1*
X2944294Y2905026D2*
X2915609Y2873965D1*
X2986097Y2864403D2*
Y2914588D1*
X2962165Y2881150D1*
X2998035D1*
X3127681Y3213636D2*
Y3235135D1*
X3125249Y3242320D1*
X3122873Y3244752D1*
X3118120Y3247129D1*
X3113311D1*
X3108558Y3244752D1*
X3106126Y3242320D1*
X3103749Y3235135D1*
Y3213636D1*
X3153989D1*
X3127681Y3230382D2*
X3153989Y3247129D1*
X3113366Y3262568D2*
X3110934Y3267376D1*
X3103805Y3274562D1*
X3153989Y3274561D1*
X3277681Y3202689D2*
Y3224189D1*
X3275249Y3231374D1*
X3272873Y3233805D1*
X3268120Y3236182D1*
X3263311D1*
X3258558Y3233805D1*
X3256126Y3231374D1*
X3253749Y3224189D1*
Y3202689D1*
X3303989D1*
X3277681Y3219435D2*
X3303989Y3236182D1*
X3265743Y3254053D2*
X3263366D1*
X3258558Y3256430D1*
X3256181Y3258806D1*
X3253805Y3263615D1*
Y3273176D1*
X3256181Y3277930D1*
X3258558Y3280306D1*
X3263366Y3282738D1*
X3268120D1*
X3272928Y3280306D1*
X3280058Y3275553D1*
X3303989Y3251621D1*
Y3285115D1*
X1752681Y2540386D2*
Y2561885D1*
X1750249Y2569070D1*
X1747873Y2571502D1*
X1743120Y2573879D1*
X1738311D1*
X1733558Y2571502D1*
X1731126Y2569070D1*
X1728749Y2561885D1*
Y2540386D1*
X1778989D1*
X1752681Y2557132D2*
X1778989Y2573879D1*
X1728805Y2594127D2*
Y2620380D1*
X1747928Y2606065D1*
Y2613250D1*
X1750305Y2618003D1*
X1752681Y2620380D1*
X1759866Y2622811D1*
X1764619D1*
X1771804Y2620380D1*
X1776613Y2615626D1*
X1778989Y2608441D1*
Y2601256D1*
X1776613Y2594127D1*
X1774181Y2591750D1*
X1769428Y2589318D1*
X2052681Y2539599D2*
Y2561099D1*
X2050249Y2568284D1*
X2047873Y2570716D1*
X2043120Y2573092D1*
X2038311D1*
X2033558Y2570716D1*
X2031126Y2568284D1*
X2028749Y2561099D1*
Y2539599D1*
X2078989D1*
X2052681Y2556346D2*
X2078989Y2573092D1*
Y2612463D2*
X2028805D1*
X2062243Y2588531D1*
Y2624401D1*
X1765181Y2765189D2*
Y2786689D1*
X1762749Y2793874D1*
X1760373Y2796305D1*
X1755620Y2798682D1*
X1750811D1*
X1746058Y2796305D1*
X1743626Y2793874D1*
X1741249Y2786689D1*
Y2765189D1*
X1791489D1*
X1765181Y2781935D2*
X1791489Y2798682D1*
X1741305Y2842806D2*
Y2818930D1*
X1762805Y2816553D1*
X1760428Y2818930D1*
X1757996Y2826115D1*
Y2833245D1*
X1760428Y2840430D1*
X1765181Y2845238D1*
X1772366Y2847615D1*
X1777119D1*
X1784304Y2845238D1*
X1789113Y2840430D1*
X1791489Y2833244D1*
Y2826115D1*
X1789113Y2818930D1*
X1786681Y2816553D1*
X1781928Y2814121D1*
X1902681Y2542003D2*
Y2563503D1*
X1900249Y2570688D1*
X1897873Y2573120D1*
X1893120Y2575496D1*
X1888311D1*
X1883558Y2573120D1*
X1881126Y2570688D1*
X1878749Y2563503D1*
Y2542003D1*
X1928989D1*
X1902681Y2558750D2*
X1928989Y2575496D1*
X1885934Y2619620D2*
X1881181Y2617244D1*
X1878805Y2610059D1*
Y2605306D1*
X1881181Y2598121D1*
X1888366Y2593312D1*
X1900305Y2590936D1*
X1912243D1*
X1921804Y2593312D1*
X1926613Y2598121D1*
X1928989Y2605306D1*
Y2607682D1*
X1926613Y2614812D1*
X1921804Y2619620D1*
X1914619Y2621997D1*
X1912243D1*
X1905058Y2619620D1*
X1900305Y2614812D1*
X1897928Y2607682D1*
Y2605306D1*
X1900305Y2598121D1*
X1905058Y2593312D1*
X1912243Y2590936D1*
X1477681Y2764787D2*
Y2786287D1*
X1475249Y2793472D1*
X1472873Y2795904D1*
X1468120Y2798280D1*
X1463311D1*
X1458558Y2795904D1*
X1456126Y2793472D1*
X1453749Y2786287D1*
Y2764787D1*
X1503989D1*
X1477681Y2781534D2*
X1503989Y2798280D1*
Y2823281D2*
X1453805Y2847213D1*
Y2813720D1*
X3427681Y3202913D2*
Y3224413D1*
X3425249Y3231598D1*
X3422873Y3234030D1*
X3418120Y3236407D1*
X3413311D1*
X3408558Y3234030D1*
X3406126Y3231598D1*
X3403749Y3224413D1*
Y3202913D1*
X3453989D1*
X3427681Y3219660D2*
X3453989Y3236406D1*
X3403805Y3263784D2*
X3406181Y3256654D1*
X3410934Y3254222D1*
X3415743D1*
X3420496Y3256654D1*
X3422928Y3261407D1*
X3425305Y3270969D1*
X3427681Y3278154D1*
X3432490Y3282907D1*
X3437243Y3285284D1*
X3444428D1*
X3449181Y3282907D1*
X3451613Y3280531D1*
X3453989Y3273346D1*
Y3263784D1*
X3451613Y3256654D1*
X3449181Y3254222D1*
X3444428Y3251846D1*
X3437243D1*
X3432490Y3254222D1*
X3427681Y3259031D1*
X3425305Y3266161D1*
X3422928Y3275722D1*
X3420496Y3280531D1*
X3415743Y3282907D1*
X3410934D1*
X3406181Y3280531D1*
X3403805Y3273346D1*
Y3263784D1*
X3565181Y3203877D2*
Y3225377D1*
X3562749Y3232562D1*
X3560373Y3234994D1*
X3555620Y3237370D1*
X3550811D1*
X3546058Y3234994D1*
X3543626Y3232562D1*
X3541249Y3225377D1*
Y3203877D1*
X3591489D1*
X3565181Y3220624D2*
X3591489Y3237370D1*
X3557996Y3283926D2*
X3565181Y3281494D1*
X3569990Y3276741D1*
X3572366Y3269556D1*
Y3267180D1*
X3569990Y3259995D1*
X3565181Y3255241D1*
X3557996Y3252810D1*
X3555620D1*
X3548434Y3255241D1*
X3543681Y3259995D1*
X3541305Y3267180D1*
Y3269556D1*
X3543681Y3276741D1*
X3548434Y3281494D1*
X3557996Y3283926D1*
X3569990D1*
X3581928Y3281494D1*
X3589113Y3276741D1*
X3591489Y3269556D1*
Y3264803D1*
X3589113Y3257618D1*
X3584304Y3255241D1*
X2352681Y2751472D2*
Y2772972D1*
X2350249Y2780157D1*
X2347873Y2782589D1*
X2343120Y2784966D1*
X2338311D1*
X2333558Y2782589D1*
X2331126Y2780157D1*
X2328749Y2772972D1*
Y2751472D1*
X2378989D1*
X2352681Y2768219D2*
X2378989Y2784966D1*
X2338366Y2800405D2*
X2335934Y2805213D1*
X2328805Y2812398D1*
X2378989D1*
X2328805Y2842208D2*
X2331181Y2835023D1*
X2338366Y2830214D1*
X2350305Y2827838D1*
X2357490D1*
X2369428Y2830214D1*
X2376613Y2835023D1*
X2378989Y2842208D1*
Y2846961D1*
X2376613Y2854146D1*
X2369428Y2858899D1*
X2357490Y2861331D1*
X2350305D1*
X2338366Y2858899D1*
X2331181Y2854146D1*
X2328805Y2846961D1*
Y2842208D1*
X2338366Y2858899D2*
X2369428Y2830214D1*
X2652681Y2537821D2*
Y2559321D1*
X2650249Y2566506D1*
X2647873Y2568937D1*
X2643120Y2571314D1*
X2638311D1*
X2633558Y2568937D1*
X2631126Y2566506D1*
X2628749Y2559321D1*
Y2537821D1*
X2678989D1*
X2652681Y2554567D2*
X2678989Y2571314D1*
X2638366Y2586753D2*
X2635934Y2591562D1*
X2628805Y2598747D1*
X2678989D1*
X2638366Y2614186D2*
X2635934Y2618994D1*
X2628805Y2626179D1*
X2678989D1*
X2502681Y2527071D2*
Y2548571D1*
X2500249Y2555756D1*
X2497873Y2558188D1*
X2493120Y2560564D1*
X2488311D1*
X2483558Y2558188D1*
X2481126Y2555756D1*
X2478749Y2548571D1*
Y2527071D1*
X2528989D1*
X2502681Y2543817D2*
X2528989Y2560564D1*
X2488366Y2576003D2*
X2485934Y2580812D1*
X2478805Y2587997D1*
X2528989D1*
X2490743Y2605868D2*
X2488366D1*
X2483558Y2608244D1*
X2481181Y2610621D1*
X2478805Y2615430D1*
Y2624991D1*
X2481181Y2629744D1*
X2483558Y2632121D1*
X2488366Y2634553D1*
X2493119D1*
X2497928Y2632121D1*
X2505058Y2627368D1*
X2528989Y2603436D1*
Y2636929D1*
X446776Y1430473D2*
Y1451972D1*
X444344Y1459157D1*
X441967Y1461589D1*
X437214Y1463966D1*
X432406D1*
X427652Y1461589D1*
X425220Y1459157D1*
X422844Y1451972D1*
Y1430473D1*
X473084D1*
X446776Y1447219D2*
X473084Y1463966D1*
X432461Y1479405D2*
X430029Y1484214D1*
X422899Y1491399D1*
X473084Y1491398D1*
X422899Y1521208D2*
X425276Y1514023D1*
X432461Y1509214D1*
X444399Y1506838D1*
X451584D1*
X463522Y1509214D1*
X470707Y1514023D1*
X473084Y1521208D1*
Y1525961D1*
X470707Y1533146D1*
X463522Y1537899D1*
X451584Y1540331D1*
X444399D1*
X432461Y1537899D1*
X425276Y1533146D1*
X422899Y1525961D1*
Y1521208D1*
X432461Y1537899D2*
X463522Y1509214D1*
X432461Y1555770D2*
X430029Y1560579D1*
X422899Y1567764D1*
X473084D1*
X2965181Y2502605D2*
Y2524104D1*
X2962749Y2531289D1*
X2960373Y2533721D1*
X2955620Y2536098D1*
X2950811D1*
X2946058Y2533721D1*
X2943626Y2531289D1*
X2941249Y2524104D1*
Y2502605D1*
X2991489D1*
X2965181Y2519351D2*
X2991489Y2536098D1*
X2950866Y2551537D2*
X2948434Y2556345D1*
X2941305Y2563531D1*
X2991489Y2563530D1*
X2941305Y2593340D2*
X2943681Y2586155D1*
X2950866Y2581346D1*
X2962805Y2578970D1*
X2969990D1*
X2981928Y2581346D1*
X2989113Y2586155D1*
X2991489Y2593340D1*
Y2598093D1*
X2989113Y2605278D1*
X2981928Y2610031D1*
X2969990Y2612463D1*
X2962805D1*
X2950866Y2610031D1*
X2943681Y2605278D1*
X2941305Y2598093D1*
Y2593340D1*
X2950866Y2610031D2*
X2981928Y2581346D1*
X2953243Y2630334D2*
X2950866D1*
X2946058Y2632711D1*
X2943681Y2635087D1*
X2941305Y2639896D1*
Y2649457D1*
X2943681Y2654211D1*
X2946058Y2656587D1*
X2950866Y2659019D1*
X2955619D1*
X2960428Y2656587D1*
X2967558Y2651834D1*
X2991489Y2627902D1*
Y2661396D1*
X2052681Y2727006D2*
Y2748506D1*
X2050249Y2755691D1*
X2047873Y2758123D1*
X2043120Y2760499D1*
X2038311D1*
X2033558Y2758123D1*
X2031126Y2755691D1*
X2028749Y2748506D1*
Y2727006D1*
X2078989D1*
X2052681Y2743753D2*
X2078989Y2760499D1*
X2038366Y2775939D2*
X2035934Y2780747D1*
X2028805Y2787932D1*
X2078989D1*
X2028805Y2817741D2*
X2031181Y2810556D1*
X2038366Y2805748D1*
X2050305Y2803371D1*
X2057490D1*
X2069428Y2805748D1*
X2076613Y2810556D1*
X2078989Y2817741D1*
Y2822495D1*
X2076613Y2829680D1*
X2069428Y2834433D1*
X2057490Y2836865D1*
X2050305D1*
X2038366Y2834433D1*
X2031181Y2829680D1*
X2028805Y2822495D1*
Y2817741D1*
X2038366Y2834433D2*
X2069428Y2805748D1*
X2028805Y2857112D2*
Y2883365D1*
X2047928Y2869051D1*
Y2876236D1*
X2050305Y2880989D1*
X2052681Y2883365D1*
X2059866Y2885797D1*
X2064619D1*
X2071804Y2883365D1*
X2076613Y2878612D1*
X2078989Y2871427D1*
Y2864242D1*
X2076613Y2857112D1*
X2074181Y2854736D1*
X2069428Y2852304D1*
X1302681Y2501416D2*
Y2522916D1*
X1300249Y2530101D1*
X1297873Y2532533D1*
X1293120Y2534910D1*
X1288311D1*
X1283558Y2532533D1*
X1281126Y2530101D1*
X1278749Y2522916D1*
Y2501416D1*
X1328989D1*
X1302681Y2518163D2*
X1328989Y2534909D1*
X1288366Y2550349D2*
X1285934Y2555157D1*
X1278805Y2562342D1*
X1328989D1*
X1278805Y2592152D2*
X1281181Y2584966D1*
X1288366Y2580158D1*
X1300305Y2577781D1*
X1307490D1*
X1319428Y2580158D1*
X1326613Y2584966D1*
X1328989Y2592151D1*
Y2596905D1*
X1326613Y2604090D1*
X1319428Y2608843D1*
X1307490Y2611275D1*
X1300305D1*
X1288366Y2608843D1*
X1281181Y2604090D1*
X1278805Y2596905D1*
Y2592152D1*
X1288366Y2608843D2*
X1319428Y2580158D1*
X1328989Y2650646D2*
X1278805D1*
X1312243Y2626714D1*
Y2662584D1*
X784276Y1332605D2*
Y1354104D1*
X781844Y1361289D1*
X779467Y1363721D1*
X774714Y1366098D1*
X769906D1*
X765152Y1363721D1*
X762720Y1361289D1*
X760344Y1354104D1*
Y1332605D1*
X810584D1*
X784276Y1349351D2*
X810584Y1366098D1*
X769961Y1381537D2*
X767529Y1386345D1*
X760399Y1393531D1*
X810584Y1393530D1*
X760399Y1423340D2*
X762776Y1416155D1*
X769961Y1411346D1*
X781899Y1408970D1*
X789084D1*
X801022Y1411346D1*
X808207Y1416155D1*
X810584Y1423340D1*
Y1428093D1*
X808207Y1435278D1*
X801022Y1440031D1*
X789084Y1442463D1*
X781899D1*
X769961Y1440031D1*
X762776Y1435278D1*
X760399Y1428093D1*
Y1423340D1*
X769961Y1440031D2*
X801022Y1411346D1*
X760399Y1486587D2*
Y1462711D1*
X781899Y1460334D1*
X779522Y1462711D1*
X777091Y1469896D1*
Y1477026D1*
X779522Y1484211D1*
X784276Y1489019D1*
X791461Y1491396D1*
X796214D1*
X803399Y1489019D1*
X808207Y1484211D1*
X810584Y1477026D1*
Y1469896D1*
X808207Y1462711D1*
X805775Y1460334D1*
X801022Y1457902D1*
X1902681Y2728222D2*
Y2749722D1*
X1900249Y2756907D1*
X1897873Y2759339D1*
X1893120Y2761715D1*
X1888311D1*
X1883558Y2759339D1*
X1881126Y2756907D1*
X1878749Y2749722D1*
Y2728222D1*
X1928989D1*
X1902681Y2744969D2*
X1928989Y2761715D1*
X1888366Y2777155D2*
X1885934Y2781963D1*
X1878805Y2789148D1*
X1928989D1*
X1878805Y2818957D2*
X1881181Y2811772D1*
X1888366Y2806964D1*
X1900305Y2804587D1*
X1907490D1*
X1919428Y2806964D1*
X1926613Y2811772D1*
X1928989Y2818957D1*
Y2823710D1*
X1926613Y2830896D1*
X1919428Y2835649D1*
X1907490Y2838081D1*
X1900305D1*
X1888366Y2835649D1*
X1881181Y2830896D1*
X1878805Y2823711D1*
Y2818957D1*
X1888366Y2835649D2*
X1919428Y2806964D1*
X1885934Y2882205D2*
X1881181Y2879828D1*
X1878805Y2872643D1*
Y2867890D1*
X1881181Y2860705D1*
X1888366Y2855896D1*
X1900305Y2853520D1*
X1912243D1*
X1921804Y2855896D1*
X1926613Y2860705D1*
X1928989Y2867890D1*
Y2870266D1*
X1926613Y2877396D1*
X1921804Y2882205D1*
X1914619Y2884581D1*
X1912243D1*
X1905058Y2882205D1*
X1900305Y2877396D1*
X1897928Y2870266D1*
Y2867890D1*
X1900305Y2860705D1*
X1905058Y2855896D1*
X1912243Y2853520D1*
X1165181Y2502605D2*
Y2524104D1*
X1162749Y2531289D1*
X1160373Y2533721D1*
X1155620Y2536098D1*
X1150811D1*
X1146058Y2533721D1*
X1143626Y2531289D1*
X1141249Y2524104D1*
Y2502605D1*
X1191489D1*
X1165181Y2519351D2*
X1191489Y2536098D1*
X1150866Y2551537D2*
X1148434Y2556345D1*
X1141305Y2563531D1*
X1191489Y2563530D1*
X1141305Y2593340D2*
X1143681Y2586155D1*
X1150866Y2581346D1*
X1162805Y2578970D1*
X1169990D1*
X1181928Y2581346D1*
X1189113Y2586155D1*
X1191489Y2593340D1*
Y2598093D1*
X1189113Y2605278D1*
X1181928Y2610031D1*
X1169990Y2612463D1*
X1162805D1*
X1150866Y2610031D1*
X1143681Y2605278D1*
X1141305Y2598093D1*
Y2593340D1*
X1150866Y2610031D2*
X1181928Y2581346D1*
X1191489Y2637464D2*
X1141305Y2661396D1*
Y2627902D1*
X784276Y1034514D2*
Y1056014D1*
X781844Y1063199D1*
X779467Y1065631D1*
X774714Y1068007D1*
X769906D1*
X765152Y1065631D1*
X762720Y1063199D1*
X760344Y1056014D1*
Y1034514D1*
X810584D1*
X784276Y1051261D2*
X810584Y1068007D1*
X769961Y1083447D2*
X767529Y1088255D1*
X760399Y1095440D1*
X810584D1*
X760399Y1125249D2*
X762776Y1118064D1*
X769961Y1113256D1*
X781899Y1110879D1*
X789084D1*
X801022Y1113256D1*
X808207Y1118064D1*
X810584Y1125249D1*
Y1130002D1*
X808207Y1137188D1*
X801022Y1141941D1*
X789084Y1144373D1*
X781899D1*
X769961Y1141941D1*
X762776Y1137188D1*
X760399Y1130003D1*
Y1125249D1*
X769961Y1141941D2*
X801022Y1113256D1*
X760399Y1171750D2*
X762776Y1164620D1*
X767529Y1162188D1*
X772337D1*
X777091Y1164620D1*
X779522Y1169373D1*
X781899Y1178935D1*
X784276Y1186120D1*
X789084Y1190873D1*
X793837Y1193250D1*
X801022D1*
X805775Y1190873D1*
X808207Y1188497D1*
X810584Y1181312D1*
Y1171750D1*
X808207Y1164620D1*
X805775Y1162188D1*
X801022Y1159812D1*
X793837D1*
X789084Y1162188D1*
X784276Y1166997D1*
X781899Y1174127D1*
X779522Y1183688D1*
X777091Y1188497D1*
X772337Y1190873D1*
X767529D1*
X762776Y1188497D1*
X760399Y1181312D1*
Y1171750D1*
X3127681Y2503793D2*
Y2525293D1*
X3125249Y2532478D1*
X3122873Y2534910D1*
X3118120Y2537286D1*
X3113311D1*
X3108558Y2534910D1*
X3106126Y2532478D1*
X3103749Y2525293D1*
Y2503793D1*
X3153989D1*
X3127681Y2520539D2*
X3153989Y2537286D1*
X3113366Y2552725D2*
X3110934Y2557534D1*
X3103805Y2564719D1*
X3153989D1*
X3103805Y2594528D2*
X3106181Y2587343D1*
X3113366Y2582535D1*
X3125305Y2580158D1*
X3132490D1*
X3144428Y2582535D1*
X3151613Y2587343D1*
X3153989Y2594528D1*
Y2599281D1*
X3151613Y2606466D1*
X3144428Y2611219D1*
X3132490Y2613651D1*
X3125305D1*
X3113366Y2611220D1*
X3106181Y2606466D1*
X3103805Y2599281D1*
Y2594528D1*
X3113366Y2611220D2*
X3144428Y2582535D1*
X3120496Y2660207D2*
X3127681Y2657775D1*
X3132490Y2653022D1*
X3134866Y2645837D1*
Y2643461D1*
X3132490Y2636276D1*
X3127681Y2631522D1*
X3120496Y2629091D1*
X3118119D1*
X3110934Y2631522D1*
X3106181Y2636276D1*
X3103805Y2643461D1*
Y2645837D1*
X3106181Y2653022D1*
X3110934Y2657775D1*
X3120496Y2660207D1*
X3132490D1*
X3144428Y2657775D1*
X3151613Y2653022D1*
X3153989Y2645837D1*
Y2641084D1*
X3151613Y2633899D1*
X3146804Y2631522D1*
X1740181Y1737953D2*
Y1759453D1*
X1737749Y1766638D1*
X1735373Y1769070D1*
X1730620Y1771446D1*
X1725811D1*
X1721058Y1769070D1*
X1718626Y1766638D1*
X1716249Y1759453D1*
Y1737953D1*
X1766489D1*
X1740181Y1754700D2*
X1766489Y1771446D1*
X1725866Y1786885D2*
X1723434Y1791694D1*
X1716305Y1798879D1*
X1766489D1*
X1725866Y1814318D2*
X1723434Y1819127D1*
X1716305Y1826312D1*
X1766489D1*
X1716305Y1856121D2*
X1718681Y1848936D1*
X1725866Y1844127D1*
X1737805Y1841751D1*
X1744990D1*
X1756928Y1844127D1*
X1764113Y1848936D1*
X1766489Y1856121D1*
Y1860874D1*
X1764113Y1868059D1*
X1756928Y1872812D1*
X1744990Y1875244D1*
X1737805D1*
X1725866Y1872812D1*
X1718681Y1868059D1*
X1716305Y1860874D1*
Y1856121D1*
X1725866Y1872812D2*
X1756928Y1844127D1*
X1209276Y1354104D2*
Y1375604D1*
X1206844Y1382789D1*
X1204467Y1385221D1*
X1199714Y1387598D1*
X1194906D1*
X1190152Y1385221D1*
X1187720Y1382789D1*
X1185344Y1375604D1*
Y1354104D1*
X1235584D1*
X1209276Y1370851D2*
X1235584Y1387598D1*
X1194961Y1403037D2*
X1192529Y1407845D1*
X1185399Y1415030D1*
X1235584D1*
X1194961Y1430470D2*
X1192529Y1435278D1*
X1185399Y1442463D1*
X1235584D1*
X1194961Y1457902D2*
X1192529Y1462711D1*
X1185399Y1469896D1*
X1235584D1*
X2202681Y2513354D2*
Y2534854D1*
X2200249Y2542039D1*
X2197873Y2544471D1*
X2193120Y2546848D1*
X2188311D1*
X2183558Y2544471D1*
X2181126Y2542039D1*
X2178749Y2534854D1*
Y2513354D1*
X2228989D1*
X2202681Y2530101D2*
X2228989Y2546848D1*
X2188366Y2562287D2*
X2185934Y2567095D1*
X2178805Y2574280D1*
X2228989D1*
X2188366Y2589720D2*
X2185934Y2594528D1*
X2178805Y2601713D1*
X2228989D1*
X2190743Y2619584D2*
X2188366D1*
X2183558Y2621961D1*
X2181181Y2624337D1*
X2178805Y2629146D1*
Y2638708D1*
X2181181Y2643461D1*
X2183558Y2645837D1*
X2188366Y2648269D1*
X2193119D1*
X2197928Y2645837D1*
X2205058Y2641084D1*
X2228989Y2617152D1*
Y2650646D1*
X2352681Y2512953D2*
Y2534453D1*
X2350249Y2541638D1*
X2347873Y2544070D1*
X2343120Y2546446D1*
X2338311D1*
X2333558Y2544070D1*
X2331126Y2541638D1*
X2328749Y2534453D1*
Y2512953D1*
X2378989D1*
X2352681Y2529700D2*
X2378989Y2546446D1*
X2338366Y2561885D2*
X2335934Y2566694D1*
X2328805Y2573879D1*
X2378989D1*
X2338366Y2589318D2*
X2335934Y2594127D1*
X2328805Y2601312D1*
X2378989D1*
X2328805Y2621559D2*
Y2647812D1*
X2347928Y2633497D1*
Y2640683D1*
X2350305Y2645436D1*
X2352681Y2647812D1*
X2359866Y2650244D1*
X2364619D1*
X2371804Y2647812D1*
X2376613Y2643059D1*
X2378989Y2635874D1*
Y2628689D1*
X2376613Y2621559D1*
X2374181Y2619183D1*
X2369428Y2616751D1*
X1440181Y2511765D2*
Y2533264D1*
X1437749Y2540449D1*
X1435373Y2542881D1*
X1430620Y2545258D1*
X1425811D1*
X1421058Y2542881D1*
X1418626Y2540449D1*
X1416249Y2533264D1*
Y2511765D1*
X1466489D1*
X1440181Y2528511D2*
X1466489Y2545258D1*
X1425866Y2560697D2*
X1423434Y2565506D1*
X1416305Y2572691D1*
X1466489D1*
X1425866Y2588130D2*
X1423434Y2592938D1*
X1416305Y2600123D1*
X1466489D1*
Y2639494D2*
X1416305D1*
X1449743Y2615563D1*
Y2651432D1*
X1209276Y1045236D2*
Y1066736D1*
X1206844Y1073921D1*
X1204467Y1076353D1*
X1199714Y1078730D1*
X1194906D1*
X1190152Y1076353D1*
X1187720Y1073921D1*
X1185344Y1066736D1*
Y1045236D1*
X1235584D1*
X1209276Y1061983D2*
X1235584Y1078730D1*
X1194961Y1094169D2*
X1192529Y1098977D1*
X1185399Y1106162D1*
X1235584D1*
X1194961Y1121602D2*
X1192529Y1126410D1*
X1185399Y1133595D1*
X1235584D1*
X1185399Y1177719D2*
Y1153843D1*
X1206899Y1151466D1*
X1204522Y1153843D1*
X1202091Y1161028D1*
Y1168158D1*
X1204522Y1175343D1*
X1209276Y1180151D1*
X1216461Y1182528D1*
X1221214D1*
X1228399Y1180151D1*
X1233207Y1175343D1*
X1235584Y1168158D1*
Y1161028D1*
X1233207Y1153843D1*
X1230775Y1151466D1*
X1226022Y1149034D1*
X2202681Y1738972D2*
Y1760472D1*
X2200249Y1767657D1*
X2197873Y1770089D1*
X2193120Y1772465D1*
X2188311D1*
X2183558Y1770089D1*
X2181126Y1767657D1*
X2178749Y1760472D1*
Y1738972D1*
X2228989D1*
X2202681Y1755719D2*
X2228989Y1772465D1*
X2188366Y1787904D2*
X2185934Y1792713D1*
X2178805Y1799898D1*
X2228989D1*
X2188366Y1815337D2*
X2185934Y1820146D1*
X2178805Y1827331D1*
X2228989D1*
X2185934Y1871455D2*
X2181181Y1869078D1*
X2178805Y1861893D1*
Y1857140D1*
X2181181Y1849955D1*
X2188366Y1845146D1*
X2200305Y1842770D1*
X2212243D1*
X2221804Y1845146D1*
X2226613Y1849955D1*
X2228989Y1857140D1*
Y1859517D1*
X2226613Y1866646D1*
X2221804Y1871455D1*
X2214619Y1873831D1*
X2212243D1*
X2205058Y1871455D1*
X2200305Y1866646D1*
X2197928Y1859517D1*
Y1857140D1*
X2200305Y1849955D1*
X2205058Y1845146D1*
X2212243Y1842770D1*
X3290181Y2513354D2*
Y2534854D1*
X3287749Y2542039D1*
X3285373Y2544471D1*
X3280620Y2546848D1*
X3275811D1*
X3271058Y2544471D1*
X3268626Y2542039D1*
X3266249Y2534854D1*
Y2513354D1*
X3316489D1*
X3290181Y2530101D2*
X3316489Y2546848D1*
X3275866Y2562287D2*
X3273434Y2567095D1*
X3266305Y2574280D1*
X3316489D1*
X3275866Y2589720D2*
X3273434Y2594528D1*
X3266305Y2601713D1*
X3316489D1*
Y2626714D2*
X3266305Y2650646D1*
Y2617152D1*
X1634276Y1343382D2*
Y1364882D1*
X1631844Y1372067D1*
X1629467Y1374499D1*
X1624714Y1376875D1*
X1619906D1*
X1615152Y1374499D1*
X1612720Y1372067D1*
X1610344Y1364882D1*
Y1343382D1*
X1660584D1*
X1634276Y1360129D2*
X1660584Y1376875D1*
X1619961Y1392315D2*
X1617529Y1397123D1*
X1610399Y1404308D1*
X1660584D1*
X1619961Y1419747D2*
X1617529Y1424556D1*
X1610399Y1431741D1*
X1660584D1*
X1610399Y1459118D2*
X1612776Y1451988D1*
X1617529Y1449557D1*
X1622337D1*
X1627091Y1451988D1*
X1629522Y1456742D1*
X1631899Y1466303D1*
X1634276Y1473488D1*
X1639084Y1478241D1*
X1643837Y1480618D1*
X1651022D1*
X1655775Y1478241D1*
X1658207Y1475865D1*
X1660584Y1468680D1*
Y1459118D1*
X1658207Y1451988D1*
X1655775Y1449557D1*
X1651022Y1447180D1*
X1643837D1*
X1639084Y1449557D1*
X1634276Y1454365D1*
X1631899Y1461495D1*
X1629522Y1471056D1*
X1627091Y1475865D1*
X1622337Y1478241D1*
X1617529D1*
X1612776Y1475865D1*
X1610399Y1468680D1*
Y1459118D1*
X2802681Y2514543D2*
Y2536043D1*
X2800249Y2543228D1*
X2797873Y2545659D1*
X2793120Y2548036D1*
X2788311D1*
X2783558Y2545659D1*
X2781126Y2543228D1*
X2778749Y2536043D1*
Y2514543D1*
X2828989D1*
X2802681Y2531289D2*
X2828989Y2548036D1*
X2788366Y2563475D2*
X2785934Y2568284D1*
X2778805Y2575469D1*
X2828989D1*
X2788366Y2590908D2*
X2785934Y2595716D1*
X2778805Y2602901D1*
X2828989D1*
X2795496Y2649457D2*
X2802681Y2647026D1*
X2807490Y2642272D1*
X2809866Y2635087D1*
Y2632711D1*
X2807490Y2625526D1*
X2802681Y2620773D1*
X2795496Y2618341D1*
X2793119D1*
X2785934Y2620773D1*
X2781181Y2625526D1*
X2778805Y2632711D1*
Y2635087D1*
X2781181Y2642272D1*
X2785934Y2647026D1*
X2795496Y2649457D1*
X2807490D1*
X2819428Y2647026D1*
X2826613Y2642272D1*
X2828989Y2635087D1*
Y2630334D1*
X2826613Y2623149D1*
X2821804Y2620773D1*
X2065181Y1727006D2*
Y1748506D1*
X2062749Y1755691D1*
X2060373Y1758123D1*
X2055620Y1760499D1*
X2050811D1*
X2046058Y1758123D1*
X2043626Y1755691D1*
X2041249Y1748506D1*
Y1727006D1*
X2091489D1*
X2065181Y1743753D2*
X2091489Y1760499D1*
X2050866Y1775939D2*
X2048434Y1780747D1*
X2041305Y1787932D1*
X2091489D1*
X2053243Y1805803D2*
X2050866D1*
X2046058Y1808180D1*
X2043681Y1810556D1*
X2041305Y1815365D1*
Y1824926D1*
X2043681Y1829680D1*
X2046058Y1832056D1*
X2050866Y1834488D1*
X2055619D1*
X2060428Y1832056D1*
X2067558Y1827303D1*
X2091489Y1803371D1*
Y1836865D1*
X2041305Y1866674D2*
X2043681Y1859489D1*
X2050866Y1854680D1*
X2062805Y1852304D1*
X2069990D1*
X2081928Y1854680D1*
X2089113Y1859489D1*
X2091489Y1866674D1*
Y1871427D1*
X2089113Y1878612D1*
X2081928Y1883365D1*
X2069990Y1885797D1*
X2062805D1*
X2050866Y1883365D1*
X2043681Y1878612D1*
X2041305Y1871427D1*
Y1866674D1*
X2050866Y1883365D2*
X2081928Y1854680D1*
X2202681Y2737756D2*
Y2759256D1*
X2200249Y2766441D1*
X2197873Y2768873D1*
X2193120Y2771249D1*
X2188311D1*
X2183558Y2768873D1*
X2181126Y2766441D1*
X2178749Y2759256D1*
Y2737756D1*
X2228989D1*
X2202681Y2754503D2*
X2228989Y2771249D1*
X2188366Y2786689D2*
X2185934Y2791497D1*
X2178805Y2798682D1*
X2228989D1*
X2190743Y2816553D2*
X2188366D1*
X2183558Y2818930D1*
X2181181Y2821306D1*
X2178805Y2826115D1*
Y2835676D1*
X2181181Y2840430D1*
X2183558Y2842806D1*
X2188366Y2845238D1*
X2193119D1*
X2197928Y2842806D1*
X2205058Y2838053D1*
X2228989Y2814121D1*
Y2847615D1*
X2188366Y2863054D2*
X2185934Y2867862D1*
X2178805Y2875047D1*
X2228989D1*
X1634276Y1034486D2*
Y1055986D1*
X1631844Y1063171D1*
X1629467Y1065603D1*
X1624714Y1067980D1*
X1619906D1*
X1615152Y1065603D1*
X1612720Y1063171D1*
X1610344Y1055986D1*
Y1034486D1*
X1660584D1*
X1634276Y1051233D2*
X1660584Y1067980D1*
X1619961Y1083419D2*
X1617529Y1088227D1*
X1610399Y1095412D1*
X1660584D1*
X1622337Y1113283D2*
X1619961D1*
X1615152Y1115660D1*
X1612776Y1118037D1*
X1610399Y1122845D1*
Y1132407D1*
X1612776Y1137160D1*
X1615152Y1139537D1*
X1619961Y1141968D1*
X1624714D1*
X1629522Y1139537D1*
X1636652Y1134783D1*
X1660584Y1110852D1*
Y1144345D1*
X1622337Y1162216D2*
X1619961D1*
X1615152Y1164593D1*
X1612776Y1166969D1*
X1610399Y1171778D1*
Y1181339D1*
X1612776Y1186092D1*
X1615152Y1188469D1*
X1619961Y1190901D1*
X1624714D1*
X1629522Y1188469D1*
X1636652Y1183716D1*
X1660584Y1159784D1*
Y1193278D1*
X2490181Y1727006D2*
Y1748506D1*
X2487749Y1755691D1*
X2485373Y1758123D1*
X2480620Y1760499D1*
X2475811D1*
X2471058Y1758123D1*
X2468626Y1755691D1*
X2466249Y1748506D1*
Y1727006D1*
X2516489D1*
X2490181Y1743753D2*
X2516489Y1760499D1*
X2475866Y1775939D2*
X2473434Y1780747D1*
X2466305Y1787932D1*
X2516489D1*
X2478243Y1805803D2*
X2475866D1*
X2471058Y1808180D1*
X2468681Y1810556D1*
X2466305Y1815365D1*
Y1824926D1*
X2468681Y1829680D1*
X2471058Y1832056D1*
X2475866Y1834488D1*
X2480619D1*
X2485428Y1832056D1*
X2492558Y1827303D1*
X2516489Y1803371D1*
Y1836865D1*
X2466305Y1857112D2*
Y1883365D1*
X2485428Y1869051D1*
Y1876236D1*
X2487805Y1880989D1*
X2490181Y1883365D1*
X2497366Y1885797D1*
X2502119D1*
X2509304Y1883365D1*
X2514113Y1878612D1*
X2516489Y1871427D1*
Y1864242D1*
X2514113Y1857112D1*
X2511681Y1854736D1*
X2506928Y1852304D1*
X2071776Y1331416D2*
Y1352916D1*
X2069344Y1360101D1*
X2066967Y1362533D1*
X2062214Y1364910D1*
X2057406D1*
X2052652Y1362533D1*
X2050220Y1360101D1*
X2047844Y1352916D1*
Y1331416D1*
X2098084D1*
X2071776Y1348163D2*
X2098084Y1364909D1*
X2057461Y1380349D2*
X2055029Y1385157D1*
X2047899Y1392342D1*
X2098084D1*
X2059837Y1410213D2*
X2057461D1*
X2052652Y1412590D1*
X2050276Y1414966D1*
X2047899Y1419775D1*
Y1429337D1*
X2050276Y1434090D1*
X2052652Y1436466D1*
X2057461Y1438898D1*
X2062214D1*
X2067022Y1436466D1*
X2074152Y1431713D1*
X2098084Y1407781D1*
Y1441275D1*
Y1480646D2*
X2047899D1*
X2081337Y1456714D1*
Y1492584D1*
X3440181Y2502605D2*
Y2524104D1*
X3437749Y2531289D1*
X3435373Y2533721D1*
X3430620Y2536098D1*
X3425811D1*
X3421058Y2533721D1*
X3418626Y2531289D1*
X3416249Y2524104D1*
Y2502605D1*
X3466489D1*
X3440181Y2519351D2*
X3466489Y2536098D1*
X3425866Y2551537D2*
X3423434Y2556345D1*
X3416305Y2563531D1*
X3466489Y2563530D1*
X3428243Y2581402D2*
X3425866D1*
X3421058Y2583778D1*
X3418681Y2586155D1*
X3416305Y2590963D1*
Y2600525D1*
X3418681Y2605278D1*
X3421058Y2607655D1*
X3425866Y2610086D1*
X3430619D1*
X3435428Y2607655D1*
X3442558Y2602901D1*
X3466489Y2578970D1*
Y2612463D1*
X3416305Y2656587D2*
Y2632711D1*
X3437805Y2630334D1*
X3435428Y2632711D1*
X3432996Y2639896D1*
Y2647026D1*
X3435428Y2654211D1*
X3440181Y2659019D1*
X3447366Y2661396D1*
X3452119D1*
X3459304Y2659019D1*
X3464113Y2654211D1*
X3466489Y2647026D1*
Y2639896D1*
X3464113Y2632711D1*
X3461681Y2630334D1*
X3456928Y2627902D1*
X1602681Y2503419D2*
Y2524919D1*
X1600249Y2532104D1*
X1597873Y2534536D1*
X1593120Y2536912D1*
X1588311D1*
X1583558Y2534536D1*
X1581126Y2532104D1*
X1578749Y2524919D1*
Y2503419D1*
X1628989D1*
X1602681Y2520166D2*
X1628989Y2536912D1*
X1588366Y2552351D2*
X1585934Y2557160D1*
X1578805Y2564345D1*
X1628989D1*
X1590743Y2582216D2*
X1588366D1*
X1583558Y2584593D1*
X1581181Y2586969D1*
X1578805Y2591778D1*
Y2601339D1*
X1581181Y2606092D1*
X1583558Y2608469D1*
X1588366Y2610901D1*
X1593119D1*
X1597928Y2608469D1*
X1605058Y2603716D1*
X1628989Y2579784D1*
Y2613277D1*
X1585934Y2657402D2*
X1581181Y2655025D1*
X1578805Y2647840D1*
Y2643087D1*
X1581181Y2635902D1*
X1588366Y2631093D1*
X1600305Y2628717D1*
X1612243D1*
X1621804Y2631093D1*
X1626613Y2635902D1*
X1628989Y2643087D1*
Y2645463D1*
X1626613Y2652593D1*
X1621804Y2657402D1*
X1614619Y2659778D1*
X1612243D1*
X1605058Y2657402D1*
X1600305Y2652593D1*
X1597928Y2645463D1*
Y2643087D1*
X1600305Y2635902D1*
X1605058Y2631093D1*
X1612243Y2628717D1*
X2352681Y1727203D2*
Y1748703D1*
X2350249Y1755888D1*
X2347873Y1758320D1*
X2343120Y1760696D1*
X2338311D1*
X2333558Y1758320D1*
X2331126Y1755888D1*
X2328749Y1748703D1*
Y1727203D1*
X2378989D1*
X2352681Y1743950D2*
X2378989Y1760696D1*
X2338366Y1776135D2*
X2335934Y1780944D1*
X2328805Y1788129D1*
X2378989D1*
X2340743Y1806000D2*
X2338366D1*
X2333558Y1808377D1*
X2331181Y1810753D1*
X2328805Y1815562D1*
Y1825123D1*
X2331181Y1829876D1*
X2333558Y1832253D1*
X2338366Y1834685D1*
X2343119D1*
X2347928Y1832253D1*
X2355058Y1827500D1*
X2378989Y1803568D1*
Y1837061D1*
Y1862062D2*
X2328805Y1885994D1*
Y1852501D1*
X1615181Y2727034D2*
Y2748534D1*
X1612749Y2755719D1*
X1610373Y2758150D1*
X1605620Y2760527D1*
X1600811D1*
X1596058Y2758150D1*
X1593626Y2755719D1*
X1591249Y2748534D1*
Y2727034D1*
X1641489D1*
X1615181Y2743780D2*
X1641489Y2760527D1*
X1600866Y2775966D2*
X1598434Y2780775D1*
X1591305Y2787960D1*
X1641489D1*
X1603243Y2805831D2*
X1600866D1*
X1596058Y2808207D1*
X1593681Y2810584D1*
X1591305Y2815392D1*
Y2824954D1*
X1593681Y2829707D1*
X1596058Y2832084D1*
X1600866Y2834516D1*
X1605619D1*
X1610428Y2832084D1*
X1617558Y2827331D1*
X1641489Y2803399D1*
Y2836892D1*
X1591305Y2864270D2*
X1593681Y2857140D1*
X1598434Y2854708D1*
X1603243D1*
X1607996Y2857140D1*
X1610428Y2861893D1*
X1612805Y2871455D1*
X1615181Y2878640D1*
X1619990Y2883393D1*
X1624743Y2885770D1*
X1631928D1*
X1636681Y2883393D1*
X1639113Y2881016D1*
X1641489Y2873831D1*
Y2864270D1*
X1639113Y2857140D1*
X1636681Y2854708D1*
X1631928Y2852331D1*
X1624743Y2852332D1*
X1619990Y2854708D1*
X1615181Y2859517D1*
X1612805Y2866646D1*
X1610428Y2876208D1*
X1607996Y2881016D1*
X1603243Y2883393D1*
X1598434D1*
X1593681Y2881016D1*
X1591305Y2873831D1*
Y2864270D1*
X2194836Y3365650D2*
Y3329780D1*
X2197213Y3322595D1*
X2202021Y3317842D1*
X2209206Y3315410D1*
X2213959D1*
X2221144Y3317842D1*
X2225953Y3322595D1*
X2228330Y3329780D1*
Y3365650D1*
X2243769Y3356033D2*
X2248577Y3358465D1*
X2255762Y3365595D1*
Y3315410D1*
X642787Y2768685D2*
Y2732815D1*
X645164Y2725630D1*
X649972Y2720877D1*
X657157Y2718445D1*
X661910D1*
X669095Y2720877D1*
X673904Y2725630D1*
X676280Y2732815D1*
Y2768685D1*
X694151Y2756692D2*
Y2759068D1*
X696528Y2763877D1*
X698905Y2766253D1*
X703713Y2768630D1*
X713275D1*
X718028Y2766253D1*
X720405Y2763877D1*
X722836Y2759068D1*
Y2754315D1*
X720405Y2749506D1*
X715651Y2742377D1*
X691720Y2718445D1*
X725213D1*
X643141Y2439157D2*
Y2403288D1*
X645518Y2396102D1*
X650326Y2391349D1*
X657511Y2388917D1*
X662265D1*
X669450Y2391349D1*
X674258Y2396102D1*
X676635Y2403288D1*
Y2439157D1*
X696882Y2439102D2*
X723135D1*
X708821Y2419979D1*
X716006D1*
X720759Y2417602D1*
X723135Y2415226D1*
X725567Y2408041D1*
Y2403288D1*
X723135Y2396102D1*
X718382Y2391294D1*
X711197Y2388917D1*
X704012D1*
X696882Y2391294D1*
X694506Y2393726D1*
X692074Y2398479D1*
X1164099Y3081692D2*
Y3045822D1*
X1166475Y3038637D1*
X1171284Y3033883D1*
X1178469Y3031452D1*
X1183222D1*
X1190407Y3033883D1*
X1195215Y3038637D1*
X1197592Y3045822D1*
Y3081692D1*
X1236963Y3031452D2*
Y3081636D1*
X1213031Y3048198D1*
X1248901D1*
X1211334Y3364643D2*
Y3328773D1*
X1213711Y3321588D1*
X1218519Y3316835D1*
X1225704Y3314403D1*
X1230458D1*
X1237643Y3316835D1*
X1242451Y3321588D1*
X1244828Y3328773D1*
Y3364643D1*
X1288952Y3364588D2*
X1265075D1*
X1262699Y3343088D1*
X1265075Y3345464D1*
X1272260Y3347896D1*
X1279390D1*
X1286575Y3345464D1*
X1291384Y3340711D1*
X1293760Y3333526D1*
Y3328773D1*
X1291384Y3321588D1*
X1286575Y3316780D1*
X1279390Y3314403D1*
X1272260D1*
X1265075Y3316780D1*
X1262699Y3319211D1*
X1260267Y3323965D1*
X561694Y3378936D2*
X580817Y3328696D1*
X599941Y3378936D1*
X615380D2*
Y3328696D1*
X632127D1*
X639312Y3331128D1*
X644120Y3335881D1*
X646497Y3340689D1*
X648873Y3347819D1*
Y3359812D1*
X646497Y3366997D1*
X644120Y3371751D1*
X639312Y3376559D1*
X632127Y3378936D1*
X615380D1*
X664312Y3369319D2*
X669121Y3371751D1*
X676306Y3378880D1*
Y3328696D1*
X548511Y1153936D2*
X567635Y1103696D1*
X586758Y1153936D1*
X602197D2*
Y1103696D1*
X618944D1*
X626129Y1106128D1*
X630937Y1110881D1*
X633314Y1115689D1*
X635691Y1122819D1*
Y1134812D1*
X633314Y1141997D1*
X630937Y1146751D1*
X626129Y1151559D1*
X618944Y1153936D1*
X602197D1*
X651130Y1144319D2*
X655938Y1146751D1*
X663123Y1153880D1*
Y1103696D1*
X692933Y1153880D2*
X685748Y1151504D1*
X680939Y1144319D1*
X678563Y1132381D1*
Y1125196D1*
X680939Y1113257D1*
X685748Y1106072D1*
X692933Y1103696D1*
X697686D1*
X704871Y1106072D1*
X709624Y1113257D1*
X712056Y1125196D1*
Y1132381D1*
X709624Y1144319D1*
X704871Y1151504D1*
X697686Y1153880D1*
X692933D1*
X709624Y1144319D2*
X680939Y1113257D1*
X727495Y1144319D2*
X732304Y1146751D1*
X739489Y1153880D1*
Y1103696D1*
X975261Y1153936D2*
X994385Y1103696D1*
X1013508Y1153936D1*
X1028947D2*
Y1103696D1*
X1045694D1*
X1052879Y1106128D1*
X1057687Y1110881D1*
X1060064Y1115689D1*
X1062441Y1122819D1*
Y1134812D1*
X1060064Y1141997D1*
X1057687Y1146751D1*
X1052879Y1151559D1*
X1045694Y1153936D1*
X1028947D1*
X1077880Y1144319D2*
X1082688Y1146751D1*
X1089873Y1153880D1*
Y1103696D1*
X1119683Y1153880D2*
X1112498Y1151504D1*
X1107689Y1144319D1*
X1105313Y1132381D1*
Y1125196D1*
X1107689Y1113257D1*
X1112498Y1106072D1*
X1119683Y1103696D1*
X1124436D1*
X1131621Y1106072D1*
X1136374Y1113257D1*
X1138806Y1125196D1*
Y1132381D1*
X1136374Y1144319D1*
X1131621Y1151504D1*
X1124436Y1153880D1*
X1119683D1*
X1136374Y1144319D2*
X1107689Y1113257D1*
X1156677Y1141942D2*
Y1144319D1*
X1159054Y1149127D1*
X1161430Y1151504D1*
X1166239Y1153880D1*
X1175800D1*
X1180553Y1151504D1*
X1182930Y1149127D1*
X1185362Y1144319D1*
Y1139566D1*
X1182930Y1134757D1*
X1178177Y1127627D1*
X1154245Y1103696D1*
X1187739D1*
X1400261Y1153936D2*
X1419385Y1103696D1*
X1438508Y1153936D1*
X1453947D2*
Y1103696D1*
X1470694D1*
X1477879Y1106128D1*
X1482687Y1110881D1*
X1485064Y1115689D1*
X1487441Y1122819D1*
Y1134812D1*
X1485064Y1141997D1*
X1482687Y1146751D1*
X1477879Y1151559D1*
X1470694Y1153936D1*
X1453947D1*
X1502880Y1144319D2*
X1507688Y1146751D1*
X1514873Y1153880D1*
Y1103696D1*
X1544683Y1153880D2*
X1537498Y1151504D1*
X1532689Y1144319D1*
X1530313Y1132381D1*
Y1125196D1*
X1532689Y1113257D1*
X1537498Y1106072D1*
X1544683Y1103696D1*
X1549436D1*
X1556621Y1106072D1*
X1561374Y1113257D1*
X1563806Y1125196D1*
Y1132381D1*
X1561374Y1144319D1*
X1556621Y1151504D1*
X1549436Y1153880D1*
X1544683D1*
X1561374Y1144319D2*
X1532689Y1113257D1*
X1584054Y1153880D2*
X1610307D1*
X1595992Y1134757D1*
X1603177D1*
X1607930Y1132381D1*
X1610307Y1130004D1*
X1612739Y1122819D1*
Y1118066D1*
X1610307Y1110881D1*
X1605553Y1106072D1*
X1598368Y1103696D1*
X1591183D1*
X1584054Y1106072D1*
X1581677Y1108504D1*
X1579245Y1113257D1*
X1824073Y1153936D2*
X1843196Y1103696D1*
X1862320Y1153936D1*
X1877759D2*
Y1103696D1*
X1894506D1*
X1901691Y1106128D1*
X1906499Y1110881D1*
X1908876Y1115689D1*
X1911252Y1122819D1*
Y1134812D1*
X1908876Y1141997D1*
X1906499Y1146751D1*
X1901691Y1151559D1*
X1894506Y1153936D1*
X1877759D1*
X1926692Y1144319D2*
X1931500Y1146751D1*
X1938685Y1153880D1*
Y1103696D1*
X1968494Y1153880D2*
X1961309Y1151504D1*
X1956501Y1144319D1*
X1954124Y1132381D1*
Y1125196D1*
X1956501Y1113257D1*
X1961309Y1106072D1*
X1968494Y1103696D1*
X1973248D1*
X1980433Y1106072D1*
X1985186Y1113257D1*
X1987618Y1125196D1*
Y1132381D1*
X1985186Y1144319D1*
X1980433Y1151504D1*
X1973248Y1153880D1*
X1968494D1*
X1985186Y1144319D2*
X1956501Y1113257D1*
X2026989Y1103696D2*
Y1153880D1*
X2003057Y1120442D1*
X2038927D1*
X680226Y1513135D2*
X730466Y1532258D1*
X680226Y1551381D1*
Y1581191D2*
X682602Y1576382D1*
X687411Y1571629D1*
X692164Y1569197D1*
X699349Y1566821D1*
X711343D1*
X718472Y1569197D1*
X723281Y1571629D1*
X728034Y1576382D1*
X730466Y1581191D1*
Y1590752D1*
X728034Y1595505D1*
X723281Y1600314D1*
X718472Y1602691D1*
X711343Y1605067D1*
X699349D1*
X692164Y1602691D1*
X687411Y1600314D1*
X682602Y1595506D1*
X680226Y1590752D1*
Y1581191D1*
X689843Y1620506D2*
X687411Y1625315D1*
X680281Y1632500D1*
X730466D1*
X680281Y1662309D2*
X682658Y1655124D1*
X689843Y1650316D1*
X701781Y1647939D1*
X708966D1*
X720904Y1650316D1*
X728089Y1655124D1*
X730466Y1662309D1*
Y1667062D1*
X728089Y1674247D1*
X720904Y1679001D1*
X708966Y1681432D1*
X701781D1*
X689843Y1679001D1*
X682658Y1674247D1*
X680281Y1667062D1*
Y1662309D1*
X689843Y1679001D2*
X720904Y1650316D1*
X689843Y1696872D2*
X687411Y1701680D1*
X680281Y1708865D1*
X730466D1*
X1042726Y1502385D2*
X1092966Y1521508D1*
X1042726Y1540632D1*
Y1570441D2*
X1045102Y1565632D1*
X1049911Y1560879D1*
X1054664Y1558447D1*
X1061849Y1556071D1*
X1073843D1*
X1080972Y1558447D1*
X1085781Y1560879D1*
X1090534Y1565632D1*
X1092966Y1570441D1*
Y1580002D1*
X1090534Y1584756D1*
X1085781Y1589564D1*
X1080972Y1591941D1*
X1073843Y1594317D1*
X1061849D1*
X1054664Y1591941D1*
X1049911Y1589564D1*
X1045102Y1584756D1*
X1042726Y1580002D1*
Y1570441D1*
X1052343Y1609756D2*
X1049911Y1614565D1*
X1042781Y1621750D1*
X1092966D1*
X1042781Y1651559D2*
X1045158Y1644374D1*
X1052343Y1639566D1*
X1064281Y1637189D1*
X1071466D1*
X1083404Y1639566D1*
X1090589Y1644374D1*
X1092966Y1651559D1*
Y1656312D1*
X1090589Y1663497D1*
X1083404Y1668251D1*
X1071466Y1670683D1*
X1064281D1*
X1052343Y1668251D1*
X1045158Y1663497D1*
X1042781Y1656312D1*
Y1651559D1*
X1052343Y1668251D2*
X1083404Y1639566D1*
X1054719Y1688554D2*
X1052343D1*
X1047534Y1690930D1*
X1045158Y1693307D1*
X1042781Y1698115D1*
Y1707677D1*
X1045158Y1712430D1*
X1047534Y1714807D1*
X1052343Y1717239D1*
X1057096D1*
X1061904Y1714807D1*
X1069034Y1710053D1*
X1092966Y1686122D1*
Y1719615D1*
X1480226Y1502708D2*
X1530466Y1521831D1*
X1480226Y1540954D1*
Y1570764D2*
X1482602Y1565955D1*
X1487411Y1561202D1*
X1492164Y1558770D1*
X1499349Y1556394D1*
X1511343D1*
X1518472Y1558770D1*
X1523281Y1561202D1*
X1528034Y1565955D1*
X1530466Y1570764D1*
Y1580325D1*
X1528034Y1585078D1*
X1523281Y1589887D1*
X1518472Y1592263D1*
X1511343Y1594640D1*
X1499349D1*
X1492164Y1592263D1*
X1487411Y1589887D1*
X1482602Y1585078D1*
X1480226Y1580325D1*
Y1570764D1*
X1489843Y1610079D2*
X1487411Y1614888D1*
X1480281Y1622073D1*
X1530466D1*
X1480281Y1651882D2*
X1482658Y1644697D1*
X1489843Y1639889D1*
X1501781Y1637512D1*
X1508966D1*
X1520904Y1639889D1*
X1528089Y1644697D1*
X1530466Y1651882D1*
Y1656635D1*
X1528089Y1663820D1*
X1520904Y1668573D1*
X1508966Y1671005D1*
X1501781D1*
X1489843Y1668573D1*
X1482658Y1663820D1*
X1480281Y1656635D1*
Y1651882D1*
X1489843Y1668573D2*
X1520904Y1639889D1*
X1480281Y1691253D2*
Y1717506D1*
X1499404Y1703191D1*
Y1710376D1*
X1501781Y1715129D1*
X1504157Y1717506D1*
X1511343Y1719938D1*
X1516096D1*
X1523281Y1717506D1*
X1528089Y1712753D1*
X1530466Y1705568D1*
Y1698383D1*
X1528089Y1691253D1*
X1525657Y1688876D1*
X1520904Y1686445D1*
X1930226Y1501520D2*
X1980466Y1520643D1*
X1930226Y1539766D1*
Y1569575D2*
X1932602Y1564767D1*
X1937411Y1560014D1*
X1942164Y1557582D1*
X1949349Y1555205D1*
X1961343D1*
X1968472Y1557582D1*
X1973281Y1560014D1*
X1978034Y1564767D1*
X1980466Y1569575D1*
Y1579137D1*
X1978034Y1583890D1*
X1973281Y1588699D1*
X1968472Y1591075D1*
X1961343Y1593452D1*
X1949349D1*
X1942164Y1591075D1*
X1937411Y1588699D1*
X1932602Y1583890D1*
X1930226Y1579137D1*
Y1569575D1*
X1939843Y1608891D2*
X1937411Y1613699D1*
X1930281Y1620884D1*
X1980466D1*
X1930281Y1650694D2*
X1932658Y1643509D1*
X1939843Y1638700D1*
X1951781Y1636324D1*
X1958966D1*
X1970904Y1638700D1*
X1978089Y1643509D1*
X1980466Y1650694D1*
Y1655447D1*
X1978089Y1662632D1*
X1970904Y1667385D1*
X1958966Y1669817D1*
X1951781D1*
X1939843Y1667385D1*
X1932658Y1662632D1*
X1930281Y1655447D1*
Y1650694D1*
X1939843Y1667385D2*
X1970904Y1638700D1*
X1980466Y1709188D2*
X1930281D1*
X1963719Y1685256D1*
Y1721126D1*
X3091753Y880273D2*
D99*
X3101370Y885026D1*
X3110876Y894643D1*
X3115740Y904149D1*
X3120493Y918520D1*
Y942507D1*
X3115740Y956766D1*
X3110876Y966383D1*
X3101370Y975889D1*
X3091753Y980753D1*
X3072630D1*
X3063123Y975889D1*
X3053506Y966383D1*
X3048753Y956766D1*
X3044000Y942507D1*
Y918520D1*
X3048753Y904150D1*
X3053506Y894643D1*
X3063123Y885026D1*
X3072629Y880273D1*
X3091753D1*
X3647741Y1005302D2*
X3638124Y1000549D1*
X3628617Y990932D1*
X3623754Y981425D1*
X3619000Y967055D1*
Y943068D1*
X3623754Y928809D1*
X3628617Y919192D1*
X3638124Y909685D1*
X3647741Y904822D1*
X3666864D1*
X3676370Y909685D1*
X3685987Y919192D1*
X3690740Y928809D1*
X3695493Y943068D1*
Y967055D1*
X3690740Y981425D1*
X3685987Y990932D1*
X3676370Y1000549D1*
X3666864Y1005302D1*
X3647741D1*
X4222741Y980302D2*
X4213124Y975549D1*
X4203617Y965932D1*
X4198754Y956425D1*
X4194000Y942055D1*
Y918068D1*
X4198754Y903809D1*
X4203617Y894192D1*
X4213124Y884685D1*
X4222741Y879822D1*
X4241864D1*
X4251370Y884685D1*
X4260987Y894192D1*
X4265740Y903809D1*
X4270493Y918068D1*
Y942055D1*
X4265740Y956425D1*
X4260987Y965932D1*
X4251370Y975549D1*
X4241864Y980302D1*
X4222741D1*
X4235241Y3280302D2*
X4225624Y3275549D1*
X4216117Y3265932D1*
X4211254Y3256425D1*
X4206500Y3242055D1*
Y3218068D1*
X4211254Y3203809D1*
X4216117Y3194192D1*
X4225624Y3184685D1*
X4235241Y3179822D1*
X4254364D1*
X4263870Y3184685D1*
X4273487Y3194192D1*
X4278240Y3203809D1*
X4282993Y3218068D1*
Y3242055D1*
X4278240Y3256425D1*
X4273487Y3265932D1*
X4263870Y3275549D1*
X4254364Y3280302D1*
X4235241D1*
X656500Y948568D2*
X666117Y953432D1*
X680487Y967691D1*
Y867322D1*
X1048864Y931315D2*
Y936068D1*
X1053617Y945685D1*
X1058371Y950438D1*
X1067987Y955191D1*
X1087111D1*
X1096617Y950438D1*
X1101370Y945685D1*
X1106234Y936068D1*
Y926562D1*
X1101370Y916945D1*
X1091864Y902685D1*
X1044000Y854822D1*
X1110987D1*
X1466117Y942691D2*
X1518623D1*
X1489994Y904445D1*
X1504364D1*
X1513870Y899692D1*
X1518623Y894938D1*
X1523487Y880568D1*
Y871062D1*
X1518623Y856692D1*
X1509117Y847075D1*
X1494747Y842322D1*
X1480377D1*
X1466117Y847075D1*
X1461364Y851939D1*
X1456500Y861445D1*
X1929364Y854822D2*
Y955191D1*
X1881500Y888315D1*
X1953240D1*
X581500Y3265185D2*
X624611D1*
X638870Y3269938D1*
X643734Y3274802D1*
X648487Y3284308D1*
Y3298679D1*
X643734Y3308185D1*
X638870Y3313049D1*
X624611Y3317802D1*
X581500D1*
Y3217322D1*
X2136364Y956315D2*
Y961068D1*
X2141117Y970685D1*
X2145871Y975438D1*
X2155487Y980191D1*
X2174611D1*
X2184117Y975438D1*
X2188870Y970685D1*
X2193734Y961068D1*
Y951562D1*
X2188870Y941945D1*
X2179364Y927685D1*
X2131500Y879822D1*
X2198487D1*
X2234229Y956315D2*
Y961068D1*
X2238983Y970685D1*
X2243736Y975438D1*
X2253353Y980191D1*
X2272476D1*
X2281982Y975438D1*
X2286735Y970685D1*
X2291599Y961068D1*
Y951562D1*
X2286735Y941945D1*
X2277229Y927685D1*
X2229366Y879822D1*
X2296352D1*
X2355971Y980191D2*
X2341601Y975438D1*
X2331984Y961068D1*
X2327231Y937192D1*
Y922821D1*
X2331984Y898945D1*
X2341601Y884575D1*
X2355971Y879822D1*
X2365477D1*
X2379847Y884575D1*
X2389354Y898945D1*
X2394217Y922821D1*
Y937192D1*
X2389354Y961068D1*
X2379847Y975438D1*
X2365477Y980191D1*
X2355971D1*
X2389354Y961068D2*
X2331984Y898945D1*
X2425096Y980302D2*
X2463342Y879822D1*
X2501589Y980302D1*
X2344000Y698061D2*
X2405195Y654951D1*
X2344000Y611952D1*
X2429898Y588241D2*
X2502588D1*
M02*
