%TF.GenerationSoftware,Novarm,DipTrace,3.1.0.1*%
%TF.CreationDate,2017-07-10T10:23:27+02:00*%
%FSLAX26Y26*%
%MOIN*%
%TF.FileFunction,Legend,Top*%
%TF.Part,Single*%
%ADD10C,0.009843*%
%ADD20C,0.001312*%
%ADD21C,0.01*%
%ADD22O,0.125X0.1125*%
%ADD23O,0.1125X0.125*%
%ADD30C,0.023631*%
%ADD33C,0.015749*%
%ADD45C,0.015404*%
%ADD50C,0.015408*%
%ADD122C,0.004632*%
%ADD123C,0.015439*%
G75*
G01*
%LPD*%
X943818Y2493800D2*
D10*
Y2444200D1*
X968993Y2469000D2*
X919118D1*
X493993D2*
G02X493993Y2469000I199999J0D01*
G01*
X835360Y2769571D2*
Y2718429D1*
X635360Y2769571D2*
Y2718429D1*
X1102640Y2905929D2*
Y2957071D1*
X1393818Y2631300D2*
Y2581700D1*
X1418993Y2606500D2*
X1369118D1*
X943993D2*
G02X943993Y2606500I199999J0D01*
G01*
X1374807Y2299317D2*
Y2338683D1*
X1196659Y3313589D2*
X1369874D1*
X1196659Y3199414D2*
X1369874D1*
D30*
X1157289Y3256496D3*
X3211817Y2758173D2*
D10*
X3251183D1*
X2562501Y2000489D2*
Y2071368D1*
X2625496Y2000489D2*
Y2071368D1*
D33*
X2593999Y1931597D3*
X1249317Y2095673D2*
D10*
X1288683D1*
X3411817Y2758173D2*
X3451183D1*
X1449317Y2095673D2*
X1488683D1*
X3150001Y1975489D2*
Y2046368D1*
X3212996Y1975489D2*
Y2046368D1*
D33*
X3181499Y1906597D3*
X3611817Y2770673D2*
D10*
X3651183D1*
X1661817Y2095673D2*
X1701183D1*
X3775001Y1987989D2*
Y2058868D1*
X3837996Y1987989D2*
Y2058868D1*
D33*
X3806499Y1919097D3*
X1861817Y2095673D2*
D10*
X1901183D1*
X3811817Y2770673D2*
X3851183D1*
X3775001Y2237989D2*
Y2308868D1*
X3837996Y2237989D2*
Y2308868D1*
D33*
X3806499Y2169097D3*
X1446657Y3030713D2*
D10*
X3066343D1*
Y2932287D1*
X1446657D1*
Y3030713D1*
Y2430713D2*
X3066343D1*
Y2332287D1*
X1446657D1*
Y2430713D1*
X468803Y3386126D2*
X1082976D1*
Y3740457D1*
X468803D1*
Y3386126D1*
G36*
X575239Y3420850D2*
X606685D1*
Y3389350D1*
X575239D1*
Y3420850D1*
G37*
G36*
X771959D2*
X803405D1*
Y3389350D1*
X771959D1*
Y3420850D1*
G37*
G36*
X968740D2*
X1000124D1*
Y3389350D1*
X968740D1*
Y3420850D1*
G37*
X1059354Y3386126D2*
D10*
X1673528D1*
Y3740457D1*
X1059354D1*
Y3386126D1*
G36*
X1165791Y3420850D2*
X1197236D1*
Y3389350D1*
X1165791D1*
Y3420850D1*
G37*
G36*
X1362510D2*
X1393956D1*
Y3389350D1*
X1362510D1*
Y3420850D1*
G37*
G36*
X1559291D2*
X1590676D1*
Y3389350D1*
X1559291D1*
Y3420850D1*
G37*
X1649906Y3386126D2*
D10*
X2264079D1*
Y3740457D1*
X1649906D1*
Y3386126D1*
G36*
X1756342Y3420850D2*
X1787787D1*
Y3389350D1*
X1756342D1*
Y3420850D1*
G37*
G36*
X1953061D2*
X1984507D1*
Y3389350D1*
X1953061D1*
Y3420850D1*
G37*
G36*
X2149843D2*
X2181227D1*
Y3389350D1*
X2149843D1*
Y3420850D1*
G37*
X2543606Y3386126D2*
D10*
X3157780D1*
Y3740457D1*
X2543606D1*
Y3386126D1*
G36*
X2650043Y3420850D2*
X2681488D1*
Y3389350D1*
X2650043D1*
Y3420850D1*
G37*
G36*
X2846762D2*
X2878208D1*
Y3389350D1*
X2846762D1*
Y3420850D1*
G37*
G36*
X3043543D2*
X3074928D1*
Y3389350D1*
X3043543D1*
Y3420850D1*
G37*
X3134157Y3386126D2*
D10*
X3748331D1*
Y3740457D1*
X3134157D1*
Y3386126D1*
G36*
X3240594Y3420850D2*
X3272039D1*
Y3389350D1*
X3240594D1*
Y3420850D1*
G37*
G36*
X3437313D2*
X3468759D1*
Y3389350D1*
X3437313D1*
Y3420850D1*
G37*
G36*
X3634094D2*
X3665479D1*
Y3389350D1*
X3634094D1*
Y3420850D1*
G37*
X3724709Y3386126D2*
D10*
X4338882D1*
Y3740457D1*
X3724709D1*
Y3386126D1*
G36*
X3831145Y3420850D2*
X3862591D1*
Y3389350D1*
X3831145D1*
Y3420850D1*
G37*
G36*
X4027865D2*
X4059310D1*
Y3389350D1*
X4027865D1*
Y3420850D1*
G37*
G36*
X4224646D2*
X4256030D1*
Y3389350D1*
X4224646D1*
Y3420850D1*
G37*
X1106598Y819197D2*
D10*
X492425D1*
Y464866D1*
X1106598D1*
Y819197D1*
G36*
X1000162Y784472D2*
X968717D1*
Y815972D1*
X1000162D1*
Y784472D1*
G37*
G36*
X803443D2*
X771997D1*
Y815972D1*
X803443D1*
Y784472D1*
G37*
G36*
X606661D2*
X575277D1*
Y815972D1*
X606661D1*
Y784472D1*
G37*
X1697150Y819197D2*
D10*
X1082976D1*
Y464866D1*
X1697150D1*
Y819197D1*
G36*
X1590713Y784472D2*
X1559268D1*
Y815972D1*
X1590713D1*
Y784472D1*
G37*
G36*
X1393994D2*
X1362548D1*
Y815972D1*
X1393994D1*
Y784472D1*
G37*
G36*
X1197213D2*
X1165828D1*
Y815972D1*
X1197213D1*
Y784472D1*
G37*
X2287701Y819197D2*
D10*
X1673528D1*
Y464866D1*
X2287701D1*
Y819197D1*
G36*
X2181265Y784472D2*
X2149819D1*
Y815972D1*
X2181265D1*
Y784472D1*
G37*
G36*
X1984545D2*
X1953099D1*
Y815972D1*
X1984545D1*
Y784472D1*
G37*
G36*
X1787764D2*
X1756380D1*
Y815972D1*
X1787764D1*
Y784472D1*
G37*
X3181402Y819197D2*
D10*
X2567228D1*
Y464866D1*
X3181402D1*
Y819197D1*
G36*
X3074965Y784472D2*
X3043520D1*
Y815972D1*
X3074965D1*
Y784472D1*
G37*
G36*
X2878246D2*
X2846800D1*
Y815972D1*
X2878246D1*
Y784472D1*
G37*
G36*
X2681465D2*
X2650080D1*
Y815972D1*
X2681465D1*
Y784472D1*
G37*
X3771953Y819197D2*
D10*
X3157780D1*
Y464866D1*
X3771953D1*
Y819197D1*
G36*
X3665517Y784472D2*
X3634071D1*
Y815972D1*
X3665517D1*
Y784472D1*
G37*
G36*
X3468797D2*
X3437351D1*
Y815972D1*
X3468797D1*
Y784472D1*
G37*
G36*
X3272016D2*
X3240631D1*
Y815972D1*
X3272016D1*
Y784472D1*
G37*
X4362504Y819197D2*
D10*
X3748331D1*
Y464866D1*
X4362504D1*
Y819197D1*
G36*
X4256068Y784472D2*
X4224622D1*
Y815972D1*
X4256068D1*
Y784472D1*
G37*
G36*
X4059348D2*
X4027902D1*
Y815972D1*
X4059348D1*
Y784472D1*
G37*
G36*
X3862567D2*
X3831183D1*
Y815972D1*
X3862567D1*
Y784472D1*
G37*
X3419000Y2156500D2*
D10*
Y2256500D1*
X2419000Y2156500D2*
X3419000D1*
X2419000D2*
Y2256500D1*
X2494000D1*
X3419000D1*
X806500Y1156500D2*
X906500D1*
Y956500D1*
X806500D1*
Y1156500D1*
X1231500D2*
X1331500D1*
Y956500D1*
X1231500D1*
Y1156500D1*
X1644000D2*
X1744000D1*
Y956500D1*
X1644000D1*
Y1156500D1*
X2056500Y1169000D2*
X2156500D1*
Y969000D1*
X2056500D1*
Y1169000D1*
X2686618Y2102366D2*
X3076382D1*
X2999598Y988193D2*
X2686618D1*
Y1238213D2*
Y1952398D1*
X3076382Y1252363D2*
Y1088246D1*
Y2002313D2*
Y1338155D1*
X2686618Y988193D2*
Y1102396D1*
X3299118Y2102366D2*
X3688882D1*
X3612098Y988193D2*
X3299118D1*
Y1238213D2*
Y1952398D1*
X3688882Y1252363D2*
Y1088246D1*
Y2002313D2*
Y1338155D1*
X3299118Y988193D2*
Y1102396D1*
X3924118Y2089866D2*
X4313882D1*
X4237098Y975693D2*
X3924118D1*
Y1225713D2*
Y1939898D1*
X4313882Y1239863D2*
Y1075746D1*
Y1989813D2*
Y1325655D1*
X3924118Y975693D2*
Y1089896D1*
X4313882Y2148134D2*
X3924118D1*
X4000902Y3262307D2*
X4313882D1*
Y3012287D2*
Y2298102D1*
X3924118Y2998137D2*
Y3162254D1*
Y2248187D2*
Y2912345D1*
X4313882Y3262307D2*
Y3148104D1*
X988228Y3305717D2*
X956744D1*
X988228Y3207283D2*
X956744D1*
D45*
X3237349Y2458709D3*
X3228148Y2408567D2*
D10*
X3110043D1*
Y2388882D1*
X3228148D1*
Y2408567D1*
D45*
X3574849Y2458709D3*
X3565648Y2408567D2*
D10*
X3447543D1*
Y2388882D1*
X3565648D1*
Y2408567D1*
D45*
X3737349Y2458709D3*
X3728148Y2408567D2*
D10*
X3610043D1*
Y2388882D1*
X3728148D1*
Y2408567D1*
D45*
X3412349Y2458709D3*
X3403148Y2408567D2*
D10*
X3285043D1*
Y2388882D1*
X3403148D1*
Y2408567D1*
X562339Y1387535D2*
X585898D1*
X562339Y1450465D2*
X585898D1*
X775465Y1474839D2*
Y1498398D1*
X712535Y1474839D2*
Y1498398D1*
X987339Y1387535D2*
X1010898D1*
X987339Y1450465D2*
X1010898D1*
X1212965Y1474839D2*
Y1498398D1*
X1150035Y1474839D2*
Y1498398D1*
X1412339Y1387535D2*
X1435898D1*
X1412339Y1450465D2*
X1435898D1*
X1625465Y1462339D2*
Y1485898D1*
X1562535Y1462339D2*
Y1485898D1*
X1824839Y1387535D2*
X1848398D1*
X1824839Y1450465D2*
X1848398D1*
X2037965Y1474839D2*
Y1498398D1*
X1975035Y1474839D2*
Y1498398D1*
X1029927Y3038889D2*
X833073D1*
X1029927Y2936513D2*
X833073D1*
Y3038889D2*
Y2936513D1*
X1029927Y3007395D2*
Y3038889D1*
Y2968006D2*
Y2936513D1*
Y3007395D2*
G03X1029927Y2968006I9J-19694D01*
G01*
X614887Y2221662D2*
Y1961820D1*
X890476Y2221662D2*
X614887D1*
X890476D2*
Y2213797D1*
Y1961820D2*
X614887D1*
X890476D2*
Y1969685D1*
D50*
X499941Y2220729D3*
X2924111Y3304927D2*
D10*
Y3108073D1*
X3026487Y3304927D2*
Y3108073D1*
X2924111D2*
X3026487D1*
X2955605Y3304927D2*
X2924111D1*
X2994994D2*
X3026487D1*
X2955605D2*
G03X2994994Y3304927I19694J9D01*
G01*
X2001389Y3145573D2*
Y3342427D1*
X1899013Y3145573D2*
Y3342427D1*
X2001389D2*
X1899013D1*
X1969895Y3145573D2*
X2001389D1*
X1930506D2*
X1899013D1*
X1969895D2*
G03X1930506Y3145573I-19694J-9D01*
G01*
D45*
X1674849Y3333709D3*
X1665648Y3283567D2*
D10*
X1547543D1*
Y3263882D1*
X1665648D1*
Y3283567D1*
X794000Y2956516D2*
X494000D1*
Y3156484D1*
X794000D1*
Y2956516D1*
X562760Y2987767D2*
X537740D1*
X550250Y2975257D2*
Y3000278D1*
X756500Y2981487D2*
X737750D1*
X762740Y3125233D2*
G02X731480Y3119003I-17179J4657D01*
G01*
G03X700250Y3119003I-15615J-3097D01*
G01*
X575240Y3125233D2*
G02X543980Y3119003I-17179J4657D01*
G01*
G03X512750Y3119003I-15615J-3097D01*
G01*
X494000Y1206484D2*
X794000D1*
Y1006516D1*
X494000D1*
Y1206484D1*
X725240Y1175233D2*
X750260D1*
X737750Y1187743D2*
Y1162722D1*
X531500Y1181513D2*
X550250D1*
X525260Y1037767D2*
G02X556520Y1043997I17179J-4657D01*
G01*
G03X587750Y1043997I15615J3097D01*
G01*
X712760Y1037767D2*
G02X744020Y1043997I17179J-4657D01*
G01*
G03X775250Y1043997I15615J3097D01*
G01*
X919000Y1206484D2*
X1219000D1*
Y1006516D1*
X919000D1*
Y1206484D1*
X1150240Y1175233D2*
X1175260D1*
X1162750Y1187743D2*
Y1162722D1*
X956500Y1181513D2*
X975250D1*
X950260Y1037767D2*
G02X981520Y1043997I17179J-4657D01*
G01*
G03X1012750Y1043997I15615J3097D01*
G01*
X1137760Y1037767D2*
G02X1169020Y1043997I17179J-4657D01*
G01*
G03X1200250Y1043997I15615J3097D01*
G01*
X1331500Y1206484D2*
X1631500D1*
Y1006516D1*
X1331500D1*
Y1206484D1*
X1562740Y1175233D2*
X1587760D1*
X1575250Y1187743D2*
Y1162722D1*
X1369000Y1181513D2*
X1387750D1*
X1362760Y1037767D2*
G02X1394020Y1043997I17179J-4657D01*
G01*
G03X1425250Y1043997I15615J3097D01*
G01*
X1550260Y1037767D2*
G02X1581520Y1043997I17179J-4657D01*
G01*
G03X1612750Y1043997I15615J3097D01*
G01*
X1744000Y1206484D2*
X2044000D1*
Y1006516D1*
X1744000D1*
Y1206484D1*
X1975240Y1175233D2*
X2000260D1*
X1987750Y1187743D2*
Y1162722D1*
X1781500Y1181513D2*
X1800250D1*
X1775260Y1037767D2*
G02X1806520Y1043997I17179J-4657D01*
G01*
G03X1837750Y1043997I15615J3097D01*
G01*
X1962760Y1037767D2*
G02X1994020Y1043997I17179J-4657D01*
G01*
G03X2025250Y1043997I15615J3097D01*
G01*
X659551Y1592539D2*
Y1805107D1*
X478449Y1592539D2*
X659551D1*
Y1805107D2*
X478449D1*
Y1592539D2*
Y1675190D1*
Y1805107D2*
Y1722456D1*
Y1675190D2*
G03X478449Y1722456I1J23633D01*
G01*
X1084551Y1592539D2*
Y1805107D1*
X903449Y1592539D2*
X1084551D1*
Y1805107D2*
X903449D1*
Y1592539D2*
Y1675190D1*
Y1805107D2*
Y1722456D1*
Y1675190D2*
G03X903449Y1722456I1J23633D01*
G01*
X1509551Y1592539D2*
Y1805107D1*
X1328449Y1592539D2*
X1509551D1*
Y1805107D2*
X1328449D1*
Y1592539D2*
Y1675190D1*
Y1805107D2*
Y1722456D1*
Y1675190D2*
G03X1328449Y1722456I1J23633D01*
G01*
X1934551Y1592539D2*
Y1805107D1*
X1753449Y1592539D2*
X1934551D1*
Y1805107D2*
X1753449D1*
Y1592539D2*
Y1675190D1*
Y1805107D2*
Y1722456D1*
Y1675190D2*
G03X1753449Y1722456I1J23633D01*
G01*
G36*
X2619000Y969000D2*
X2719000D1*
X2669000Y881500D1*
X2619000Y969000D1*
G37*
G36*
X3206500D2*
X3306500D1*
X3256500Y869000D1*
X3206500Y969000D1*
G37*
G36*
X3781500D2*
X3906500D1*
X3844000Y869000D1*
X3781500Y969000D1*
G37*
G36*
X4181500Y3206500D2*
X4294000D1*
X4244000Y3331500D1*
Y3369000D1*
X4181500Y3206500D1*
G37*
X881500Y806500D2*
D20*
Y394000D1*
X1281500Y819000D2*
Y394000D1*
X1681500Y819000D2*
Y394000D1*
X2069000Y819000D2*
Y394000D1*
D22*
X2319000Y2200250D3*
D23*
X1262750Y2356500D3*
X1444000Y3056500D2*
D21*
X2956500D1*
Y2294000D1*
X1444000D1*
Y3056500D1*
X734025Y2705771D2*
D122*
X732599Y2708623D1*
X729714Y2711508D1*
X726862Y2712934D1*
X721125D1*
X718240Y2711508D1*
X715388Y2708623D1*
X713929Y2705771D1*
X712503Y2701460D1*
Y2694264D1*
X713929Y2689986D1*
X715388Y2687101D1*
X718240Y2684249D1*
X721125Y2682790D1*
X726862D1*
X729714Y2684249D1*
X732599Y2687101D1*
X734025Y2689986D1*
X743288Y2707164D2*
X746173Y2708623D1*
X750484Y2712901D1*
Y2682790D1*
X760564Y2810298D2*
X759138Y2813150D1*
X756253Y2816035D1*
X753401Y2817461D1*
X747664D1*
X744779Y2816035D1*
X741927Y2813150D1*
X740468Y2810298D1*
X739042Y2805987D1*
Y2798791D1*
X740468Y2794513D1*
X741927Y2791628D1*
X744779Y2788777D1*
X747664Y2787317D1*
X753401D1*
X756253Y2788777D1*
X759138Y2791628D1*
X760564Y2794513D1*
X771287Y2810265D2*
Y2811691D1*
X772713Y2814576D1*
X774139Y2816002D1*
X777024Y2817428D1*
X782761D1*
X785613Y2816002D1*
X787039Y2814576D1*
X788498Y2811691D1*
Y2808839D1*
X787039Y2805954D1*
X784187Y2801676D1*
X769828Y2787317D1*
X789924D1*
X560564Y2810298D2*
X559138Y2813150D1*
X556253Y2816035D1*
X553401Y2817461D1*
X547664D1*
X544779Y2816035D1*
X541927Y2813150D1*
X540468Y2810298D1*
X539042Y2805987D1*
Y2798791D1*
X540468Y2794513D1*
X541927Y2791628D1*
X544779Y2788777D1*
X547664Y2787317D1*
X553401D1*
X556253Y2788777D1*
X559138Y2791628D1*
X560564Y2794513D1*
X572713Y2817428D2*
X588465D1*
X579876Y2805954D1*
X584187D1*
X587039Y2804528D1*
X588465Y2803102D1*
X589924Y2798791D1*
Y2795939D1*
X588465Y2791628D1*
X585613Y2788743D1*
X581302Y2787317D1*
X576991D1*
X572713Y2788743D1*
X571287Y2790202D1*
X569828Y2793054D1*
X1168885Y2997798D2*
X1167459Y3000650D1*
X1164574Y3003535D1*
X1161722Y3004961D1*
X1155985D1*
X1153100Y3003535D1*
X1150248Y3000650D1*
X1148789Y2997798D1*
X1147363Y2993487D1*
Y2986291D1*
X1148789Y2982013D1*
X1150248Y2979128D1*
X1153100Y2976277D1*
X1155985Y2974817D1*
X1161722D1*
X1164574Y2976277D1*
X1167459Y2979128D1*
X1168885Y2982013D1*
X1192508Y2974817D2*
Y3004928D1*
X1178149Y2984865D1*
X1199671D1*
X1019117Y2225456D2*
X1017691Y2228308D1*
X1014806Y2231193D1*
X1011954Y2232619D1*
X1006217D1*
X1003332Y2231193D1*
X1000480Y2228308D1*
X999021Y2225456D1*
X997595Y2221145D1*
Y2213949D1*
X999021Y2209671D1*
X1000480Y2206786D1*
X1003332Y2203934D1*
X1006217Y2202475D1*
X1011954D1*
X1014806Y2203934D1*
X1017691Y2206786D1*
X1019117Y2209671D1*
X1045591Y2232586D2*
X1031265D1*
X1029839Y2219686D1*
X1031265Y2221112D1*
X1035576Y2222571D1*
X1039854D1*
X1044165Y2221112D1*
X1047050Y2218260D1*
X1048476Y2213949D1*
Y2211097D1*
X1047050Y2206786D1*
X1044165Y2203901D1*
X1039854Y2202475D1*
X1035576D1*
X1031265Y2203901D1*
X1029839Y2205360D1*
X1028380Y2208212D1*
X1178304Y2843271D2*
X1176878Y2846123D1*
X1173993Y2849008D1*
X1171141Y2850434D1*
X1165404D1*
X1162519Y2849008D1*
X1159667Y2846123D1*
X1158208Y2843271D1*
X1156782Y2838960D1*
Y2831764D1*
X1158208Y2827486D1*
X1159667Y2824601D1*
X1162519Y2821749D1*
X1165404Y2820290D1*
X1171141D1*
X1173993Y2821749D1*
X1176878Y2824601D1*
X1178304Y2827486D1*
X1204779Y2846123D2*
X1203353Y2848975D1*
X1199042Y2850401D1*
X1196190D1*
X1191879Y2848975D1*
X1188994Y2844664D1*
X1187568Y2837501D1*
Y2830338D1*
X1188994Y2824601D1*
X1191879Y2821716D1*
X1196190Y2820290D1*
X1197616D1*
X1201894Y2821716D1*
X1204779Y2824601D1*
X1206205Y2828912D1*
Y2830338D1*
X1204779Y2834649D1*
X1201894Y2837501D1*
X1197616Y2838927D1*
X1196190D1*
X1191879Y2837501D1*
X1188994Y2834649D1*
X1187568Y2830338D1*
X1075044Y3073546D2*
X1072192Y3072120D1*
X1069307Y3069235D1*
X1067881Y3066383D1*
Y3060646D1*
X1069307Y3057761D1*
X1072192Y3054909D1*
X1075044Y3053450D1*
X1079355Y3052024D1*
X1086551D1*
X1090829Y3053450D1*
X1093714Y3054909D1*
X1096566Y3057761D1*
X1098025Y3060646D1*
Y3066383D1*
X1096566Y3069235D1*
X1093714Y3072120D1*
X1090829Y3073546D1*
X1098025Y3088546D2*
X1067914Y3102905D1*
Y3082809D1*
X1023562Y2050456D2*
X1022136Y2053308D1*
X1019251Y2056193D1*
X1016399Y2057619D1*
X1010662D1*
X1007777Y2056193D1*
X1004925Y2053308D1*
X1003466Y2050456D1*
X1002040Y2046145D1*
Y2038949D1*
X1003466Y2034671D1*
X1004925Y2031786D1*
X1007777Y2028934D1*
X1010662Y2027475D1*
X1016399D1*
X1019251Y2028934D1*
X1022136Y2031786D1*
X1023562Y2034671D1*
X1039989Y2057586D2*
X1035711Y2056160D1*
X1034252Y2053308D1*
Y2050423D1*
X1035711Y2047571D1*
X1038563Y2046112D1*
X1044300Y2044686D1*
X1048611Y2043260D1*
X1051463Y2040375D1*
X1052889Y2037523D1*
Y2033212D1*
X1051463Y2030360D1*
X1050037Y2028901D1*
X1045726Y2027475D1*
X1039989D1*
X1035711Y2028901D1*
X1034252Y2030360D1*
X1032826Y2033212D1*
Y2037523D1*
X1034252Y2040375D1*
X1037137Y2043260D1*
X1041415Y2044686D1*
X1047152Y2046112D1*
X1050037Y2047571D1*
X1051463Y2050423D1*
Y2053308D1*
X1050037Y2056160D1*
X1045726Y2057586D1*
X1039989D1*
X1019830Y2137956D2*
X1018404Y2140808D1*
X1015519Y2143693D1*
X1012667Y2145119D1*
X1006930D1*
X1004045Y2143693D1*
X1001193Y2140808D1*
X999734Y2137956D1*
X998308Y2133645D1*
Y2126449D1*
X999734Y2122171D1*
X1001193Y2119286D1*
X1004045Y2116434D1*
X1006930Y2114975D1*
X1012667D1*
X1015519Y2116434D1*
X1018404Y2119286D1*
X1019830Y2122171D1*
X1047763Y2135071D2*
X1046304Y2130760D1*
X1043452Y2127875D1*
X1039141Y2126449D1*
X1037715D1*
X1033404Y2127875D1*
X1030552Y2130760D1*
X1029093Y2135071D1*
Y2136497D1*
X1030552Y2140808D1*
X1033404Y2143660D1*
X1037715Y2145086D1*
X1039141D1*
X1043452Y2143660D1*
X1046304Y2140808D1*
X1047763Y2135071D1*
Y2127875D1*
X1046304Y2120712D1*
X1043452Y2116401D1*
X1039141Y2114975D1*
X1036289D1*
X1031978Y2116401D1*
X1030552Y2119286D1*
X3175044Y3260851D2*
X3172192Y3259426D1*
X3169307Y3256540D1*
X3167881Y3253689D1*
Y3247952D1*
X3169307Y3245067D1*
X3172192Y3242215D1*
X3175044Y3240756D1*
X3179355Y3239330D1*
X3186551D1*
X3190829Y3240756D1*
X3193714Y3242215D1*
X3196566Y3245067D1*
X3198025Y3247952D1*
Y3253689D1*
X3196566Y3256540D1*
X3193714Y3259425D1*
X3190829Y3260851D1*
X3173651Y3270115D2*
X3172192Y3273000D1*
X3167914Y3277311D1*
X3198025D1*
X3167914Y3295197D2*
X3169340Y3290886D1*
X3173651Y3288001D1*
X3180814Y3286575D1*
X3185125D1*
X3192288Y3288001D1*
X3196599Y3290886D1*
X3198025Y3295197D1*
Y3298049D1*
X3196599Y3302360D1*
X3192288Y3305211D1*
X3185125Y3306671D1*
X3180814D1*
X3173651Y3305211D1*
X3169340Y3302360D1*
X3167914Y3298049D1*
Y3295197D1*
X3173651Y3305211D2*
X3192288Y3288001D1*
X3437544Y3267301D2*
X3434692Y3265875D1*
X3431807Y3262990D1*
X3430381Y3260139D1*
Y3254402D1*
X3431807Y3251516D1*
X3434692Y3248665D1*
X3437544Y3247205D1*
X3441855Y3245780D1*
X3449051D1*
X3453329Y3247205D1*
X3456214Y3248665D1*
X3459066Y3251516D1*
X3460525Y3254402D1*
Y3260138D1*
X3459066Y3262990D1*
X3456214Y3265875D1*
X3453329Y3267301D1*
X3436151Y3276565D2*
X3434692Y3279450D1*
X3430414Y3283761D1*
X3460525D1*
X3436151Y3293025D2*
X3434692Y3295910D1*
X3430414Y3300221D1*
X3460525D1*
X1687544Y3277816D2*
X1684692Y3276390D1*
X1681807Y3273505D1*
X1680381Y3270653D1*
Y3264916D1*
X1681807Y3262031D1*
X1684692Y3259179D1*
X1687544Y3257720D1*
X1691855Y3256294D1*
X1699051D1*
X1703329Y3257720D1*
X1706214Y3259179D1*
X1709066Y3262031D1*
X1710525Y3264916D1*
Y3270653D1*
X1709066Y3273505D1*
X1706214Y3276390D1*
X1703329Y3277816D1*
X1686151Y3287080D2*
X1684692Y3289965D1*
X1680414Y3294276D1*
X1710525D1*
X1687577Y3304998D2*
X1686151D1*
X1683266Y3306424D1*
X1681840Y3307850D1*
X1680414Y3310735D1*
Y3316472D1*
X1681840Y3319324D1*
X1683266Y3320750D1*
X1686151Y3322209D1*
X1689003D1*
X1691888Y3320750D1*
X1696166Y3317898D1*
X1710525Y3303539D1*
Y3323635D1*
X2727816Y2587956D2*
X2726390Y2590808D1*
X2723505Y2593693D1*
X2720653Y2595119D1*
X2714916D1*
X2712031Y2593693D1*
X2709179Y2590808D1*
X2707720Y2587956D1*
X2706294Y2583645D1*
Y2576449D1*
X2707720Y2572171D1*
X2709179Y2569286D1*
X2712031Y2566434D1*
X2714916Y2564975D1*
X2720653D1*
X2723505Y2566434D1*
X2726390Y2569286D1*
X2727816Y2572171D1*
X2737079Y2589349D2*
X2739965Y2590808D1*
X2744276Y2595086D1*
Y2564975D1*
X2756424Y2595086D2*
X2772176D1*
X2763587Y2583612D1*
X2767898D1*
X2770750Y2582186D1*
X2772176Y2580760D1*
X2773635Y2576449D1*
Y2573597D1*
X2772176Y2569286D1*
X2769324Y2566401D1*
X2765013Y2564975D1*
X2760702D1*
X2756424Y2566401D1*
X2754998Y2567860D1*
X2753539Y2570712D1*
X1687544Y3135174D2*
X1684692Y3133748D1*
X1681807Y3130863D1*
X1680381Y3128011D1*
Y3122274D1*
X1681807Y3119389D1*
X1684692Y3116537D1*
X1687544Y3115078D1*
X1691855Y3113652D1*
X1699051D1*
X1703329Y3115078D1*
X1706214Y3116537D1*
X1709066Y3119389D1*
X1710525Y3122274D1*
Y3128011D1*
X1709066Y3130863D1*
X1706214Y3133748D1*
X1703329Y3135174D1*
X1686151Y3144437D2*
X1684692Y3147323D1*
X1680414Y3151634D1*
X1710525Y3151633D1*
Y3175256D2*
X1680414D1*
X1700477Y3160897D1*
Y3182419D1*
X1212544Y1977657D2*
X1209692Y1976231D1*
X1206807Y1973346D1*
X1205381Y1970494D1*
Y1964757D1*
X1206807Y1961872D1*
X1209692Y1959020D1*
X1212544Y1957561D1*
X1216855Y1956135D1*
X1224051D1*
X1228329Y1957561D1*
X1231214Y1959020D1*
X1234066Y1961872D1*
X1235525Y1964757D1*
Y1970494D1*
X1234066Y1973346D1*
X1231214Y1976231D1*
X1228329Y1977657D1*
X1211151Y1986921D2*
X1209692Y1989806D1*
X1205414Y1994117D1*
X1235525D1*
X1205414Y2012002D2*
X1206840Y2007691D1*
X1211151Y2004806D1*
X1218314Y2003380D1*
X1222625D1*
X1229788Y2004806D1*
X1234099Y2007691D1*
X1235525Y2012002D1*
Y2014854D1*
X1234099Y2019165D1*
X1229788Y2022017D1*
X1222625Y2023476D1*
X1218314D1*
X1211151Y2022017D1*
X1206840Y2019165D1*
X1205414Y2014854D1*
Y2012002D1*
X1211151Y2022017D2*
X1229788Y2004806D1*
X1211151Y2032740D2*
X1209692Y2035625D1*
X1205414Y2039936D1*
X1235525D1*
X1425044Y1971207D2*
X1422192Y1969781D1*
X1419307Y1966896D1*
X1417881Y1964044D1*
Y1958307D1*
X1419307Y1955422D1*
X1422192Y1952570D1*
X1425044Y1951111D1*
X1429355Y1949685D1*
X1436551D1*
X1440829Y1951111D1*
X1443714Y1952570D1*
X1446566Y1955422D1*
X1448025Y1958307D1*
Y1964044D1*
X1446566Y1966896D1*
X1443714Y1969781D1*
X1440829Y1971207D1*
X1423651Y1980471D2*
X1422192Y1983356D1*
X1417914Y1987667D1*
X1448025D1*
X1417914Y2005552D2*
X1419340Y2001241D1*
X1423651Y1998356D1*
X1430814Y1996930D1*
X1435125D1*
X1442288Y1998356D1*
X1446599Y2001241D1*
X1448025Y2005552D1*
Y2008404D1*
X1446599Y2012715D1*
X1442288Y2015567D1*
X1435125Y2017026D1*
X1430814D1*
X1423651Y2015567D1*
X1419340Y2012715D1*
X1417914Y2008404D1*
Y2005552D1*
X1423651Y2015567D2*
X1442288Y1998356D1*
X1425077Y2027749D2*
X1423651D1*
X1420766Y2029175D1*
X1419340Y2030601D1*
X1417914Y2033486D1*
Y2039223D1*
X1419340Y2042075D1*
X1420766Y2043501D1*
X1423651Y2044960D1*
X1426503D1*
X1429388Y2043501D1*
X1433666Y2040649D1*
X1448025Y2026290D1*
Y2046386D1*
X1612544Y1971207D2*
X1609692Y1969781D1*
X1606807Y1966896D1*
X1605381Y1964044D1*
Y1958307D1*
X1606807Y1955422D1*
X1609692Y1952570D1*
X1612544Y1951111D1*
X1616855Y1949685D1*
X1624051D1*
X1628329Y1951111D1*
X1631214Y1952570D1*
X1634066Y1955422D1*
X1635525Y1958307D1*
Y1964044D1*
X1634066Y1966896D1*
X1631214Y1969781D1*
X1628329Y1971207D1*
X1611151Y1980471D2*
X1609692Y1983356D1*
X1605414Y1987667D1*
X1635525D1*
X1605414Y2005552D2*
X1606840Y2001241D1*
X1611151Y1998356D1*
X1618314Y1996930D1*
X1622625D1*
X1629788Y1998356D1*
X1634099Y2001241D1*
X1635525Y2005552D1*
Y2008404D1*
X1634099Y2012715D1*
X1629788Y2015567D1*
X1622625Y2017026D1*
X1618314D1*
X1611151Y2015567D1*
X1606840Y2012715D1*
X1605414Y2008404D1*
Y2005552D1*
X1611151Y2015567D2*
X1629788Y1998356D1*
X1605414Y2029175D2*
Y2044927D1*
X1616888Y2036338D1*
Y2040649D1*
X1618314Y2043501D1*
X1619740Y2044927D1*
X1624051Y2046386D1*
X1626903D1*
X1631214Y2044927D1*
X1634099Y2042075D1*
X1635525Y2037764D1*
Y2033453D1*
X1634099Y2029175D1*
X1632640Y2027749D1*
X1629788Y2026290D1*
X1812544Y1970494D2*
X1809692Y1969068D1*
X1806807Y1966183D1*
X1805381Y1963331D1*
Y1957594D1*
X1806807Y1954709D1*
X1809692Y1951857D1*
X1812544Y1950398D1*
X1816855Y1948972D1*
X1824051D1*
X1828329Y1950398D1*
X1831214Y1951857D1*
X1834066Y1954709D1*
X1835525Y1957594D1*
Y1963331D1*
X1834066Y1966183D1*
X1831214Y1969068D1*
X1828329Y1970494D1*
X1811151Y1979758D2*
X1809692Y1982643D1*
X1805414Y1986954D1*
X1835525D1*
X1805414Y2004839D2*
X1806840Y2000528D1*
X1811151Y1997643D1*
X1818314Y1996217D1*
X1822625D1*
X1829788Y1997643D1*
X1834099Y2000528D1*
X1835525Y2004839D1*
Y2007691D1*
X1834099Y2012002D1*
X1829788Y2014854D1*
X1822625Y2016313D1*
X1818314D1*
X1811151Y2014854D1*
X1806840Y2012002D1*
X1805414Y2007691D1*
Y2004839D1*
X1811151Y2014854D2*
X1829788Y1997643D1*
X1835525Y2039936D2*
X1805414D1*
X1825477Y2025577D1*
Y2047099D1*
X1276313Y2384587D2*
Y2354443D1*
X1286361D1*
X1290672Y2355903D1*
X1293557Y2358754D1*
X1294983Y2361639D1*
X1296409Y2365917D1*
Y2373113D1*
X1294983Y2377424D1*
X1293557Y2380276D1*
X1290672Y2383161D1*
X1286361Y2384587D1*
X1276313D1*
X1305672Y2378817D2*
X1308557Y2380276D1*
X1312868Y2384554D1*
Y2354443D1*
X1241808Y3357522D2*
Y3327378D1*
X1251856D1*
X1256167Y3328838D1*
X1259052Y3331689D1*
X1260478Y3334575D1*
X1261904Y3338852D1*
Y3346048D1*
X1260478Y3350359D1*
X1259052Y3353211D1*
X1256167Y3356096D1*
X1251856Y3357522D1*
X1241808D1*
X1272626Y3350326D2*
Y3351752D1*
X1274052Y3354637D1*
X1275478Y3356063D1*
X1278363Y3357489D1*
X1284100D1*
X1286952Y3356063D1*
X1288378Y3354637D1*
X1289837Y3351752D1*
Y3348900D1*
X1288378Y3346015D1*
X1285526Y3341737D1*
X1271167Y3327378D1*
X1291263D1*
X3165913Y2797202D2*
X3196057D1*
Y2807250D1*
X3194598Y2811561D1*
X3191746Y2814447D1*
X3188861Y2815872D1*
X3184583Y2817298D1*
X3177387D1*
X3173076Y2815872D1*
X3170224Y2814447D1*
X3167339Y2811561D1*
X3165913Y2807250D1*
Y2797202D1*
X3171683Y2826562D2*
X3170224Y2829447D1*
X3165946Y2833758D1*
X3196057D1*
X3165946Y2851644D2*
X3167372Y2847333D1*
X3171683Y2844448D1*
X3178846Y2843022D1*
X3183157D1*
X3190320Y2844448D1*
X3194631Y2847333D1*
X3196057Y2851644D1*
Y2854495D1*
X3194631Y2858807D1*
X3190320Y2861658D1*
X3183157Y2863118D1*
X3178846D1*
X3171683Y2861658D1*
X3167372Y2858807D1*
X3165946Y2854496D1*
Y2851644D1*
X3171683Y2861658D2*
X3190320Y2844448D1*
X3171683Y2872381D2*
X3170224Y2875266D1*
X3165946Y2879577D1*
X3196057D1*
X2518567Y1973528D2*
X2548711D1*
X2548712Y1983576D1*
X2547252Y1987887D1*
X2544401Y1990772D1*
X2541515Y1992198D1*
X2537238Y1993624D1*
X2530041D1*
X2525730Y1992198D1*
X2522879Y1990772D1*
X2519993Y1987887D1*
X2518567Y1983576D1*
Y1973528D1*
X2524338Y2002888D2*
X2522879Y2005773D1*
X2518601Y2010084D1*
X2548712D1*
X2518601Y2027969D2*
X2520027Y2023658D1*
X2524338Y2020773D1*
X2531501Y2019347D1*
X2535812D1*
X2542975Y2020773D1*
X2547286Y2023658D1*
X2548711Y2027969D1*
Y2030821D1*
X2547286Y2035132D1*
X2542975Y2037984D1*
X2535812Y2039443D1*
X2531501D1*
X2524338Y2037984D1*
X2520027Y2035132D1*
X2518601Y2030821D1*
Y2027969D1*
X2524338Y2037984D2*
X2542975Y2020773D1*
X2525764Y2050166D2*
X2524338D1*
X2521453Y2051592D1*
X2520027Y2053018D1*
X2518601Y2055903D1*
Y2061640D1*
X2520027Y2064492D1*
X2521453Y2065918D1*
X2524338Y2067377D1*
X2527190D1*
X2530075Y2065918D1*
X2534352Y2063066D1*
X2548711Y2048707D1*
Y2068803D1*
X1203413Y2128253D2*
X1233557D1*
Y2138300D1*
X1232098Y2142611D1*
X1229246Y2145497D1*
X1226361Y2146923D1*
X1222083Y2148348D1*
X1214887D1*
X1210576Y2146923D1*
X1207724Y2145497D1*
X1204839Y2142612D1*
X1203413Y2138301D1*
Y2128253D1*
X1209183Y2157612D2*
X1207724Y2160497D1*
X1203446Y2164808D1*
X1233557D1*
X1203446Y2182694D2*
X1204872Y2178383D1*
X1209183Y2175498D1*
X1216346Y2174072D1*
X1220657D1*
X1227820Y2175498D1*
X1232131Y2178383D1*
X1233557Y2182694D1*
Y2185546D1*
X1232131Y2189857D1*
X1227820Y2192708D1*
X1220657Y2194168D1*
X1216346D1*
X1209183Y2192709D1*
X1204872Y2189857D1*
X1203446Y2185546D1*
Y2182694D1*
X1209183Y2192709D2*
X1227820Y2175498D1*
X1203446Y2206316D2*
Y2222068D1*
X1214920Y2213479D1*
Y2217790D1*
X1216346Y2220642D1*
X1217772Y2222068D1*
X1222083Y2223527D1*
X1224935D1*
X1229246Y2222068D1*
X1232131Y2219216D1*
X1233557Y2214905D1*
Y2210594D1*
X1232131Y2206316D1*
X1230672Y2204890D1*
X1227820Y2203431D1*
X3365913Y2790040D2*
X3396057D1*
Y2800087D1*
X3394598Y2804398D1*
X3391746Y2807284D1*
X3388861Y2808710D1*
X3384583Y2810135D1*
X3377387Y2810136D1*
X3373076Y2808710D1*
X3370224Y2807284D1*
X3367339Y2804399D1*
X3365913Y2800088D1*
Y2790040D1*
X3371683Y2819399D2*
X3370224Y2822284D1*
X3365946Y2826595D1*
X3396057D1*
X3365946Y2844481D2*
X3367372Y2840170D1*
X3371683Y2837285D1*
X3378846Y2835859D1*
X3383157D1*
X3390320Y2837285D1*
X3394631Y2840170D1*
X3396057Y2844481D1*
Y2847333D1*
X3394631Y2851644D1*
X3390320Y2854496D1*
X3383157Y2855955D1*
X3378846D1*
X3371683Y2854496D1*
X3367372Y2851644D1*
X3365946Y2847333D1*
Y2844481D1*
X3371683Y2854496D2*
X3390320Y2837285D1*
X3396057Y2879577D2*
X3365946D1*
X3386009Y2865218D1*
Y2886740D1*
X1403413Y2128253D2*
X1433557D1*
Y2138300D1*
X1432098Y2142611D1*
X1429246Y2145497D1*
X1426361Y2146923D1*
X1422083Y2148348D1*
X1414887D1*
X1410576Y2146923D1*
X1407724Y2145497D1*
X1404839Y2142612D1*
X1403413Y2138301D1*
Y2128253D1*
X1409183Y2157612D2*
X1407724Y2160497D1*
X1403446Y2164808D1*
X1433557D1*
X1403446Y2182694D2*
X1404872Y2178383D1*
X1409183Y2175498D1*
X1416346Y2174072D1*
X1420657D1*
X1427820Y2175498D1*
X1432131Y2178383D1*
X1433557Y2182694D1*
Y2185546D1*
X1432131Y2189857D1*
X1427820Y2192708D1*
X1420657Y2194168D1*
X1416346D1*
X1409183Y2192709D1*
X1404872Y2189857D1*
X1403446Y2185546D1*
Y2182694D1*
X1409183Y2192709D2*
X1427820Y2175498D1*
X1403446Y2220642D2*
Y2206316D1*
X1416346Y2204890D1*
X1414920Y2206316D1*
X1413461Y2210627D1*
Y2214905D1*
X1414920Y2219216D1*
X1417772Y2222101D1*
X1422083Y2223527D1*
X1424935D1*
X1429246Y2222101D1*
X1432131Y2219216D1*
X1433557Y2214905D1*
Y2210627D1*
X1432131Y2206316D1*
X1430672Y2204890D1*
X1427820Y2203431D1*
X3106067Y1949258D2*
X3136211D1*
X3136212Y1959306D1*
X3134752Y1963617D1*
X3131901Y1966502D1*
X3129015Y1967928D1*
X3124738Y1969354D1*
X3117541D1*
X3113230Y1967928D1*
X3110379Y1966502D1*
X3107493Y1963617D1*
X3106067Y1959306D1*
Y1949258D1*
X3111838Y1978617D2*
X3110379Y1981502D1*
X3106101Y1985813D1*
X3136212D1*
X3106101Y2003699D2*
X3107527Y1999388D1*
X3111838Y1996503D1*
X3119001Y1995077D1*
X3123312D1*
X3130475Y1996503D1*
X3134786Y1999388D1*
X3136211Y2003699D1*
Y2006551D1*
X3134786Y2010862D1*
X3130475Y2013714D1*
X3123312Y2015173D1*
X3119001D1*
X3111838Y2013714D1*
X3107527Y2010862D1*
X3106101Y2006551D1*
Y2003699D1*
X3111838Y2013714D2*
X3130475Y1996503D1*
X3110379Y2041647D2*
X3107527Y2040221D1*
X3106101Y2035910D1*
Y2033058D1*
X3107527Y2028747D1*
X3111838Y2025862D1*
X3119001Y2024436D1*
X3126164D1*
X3131900Y2025862D1*
X3134786Y2028747D1*
X3136211Y2033058D1*
Y2034484D1*
X3134786Y2038762D1*
X3131900Y2041647D1*
X3127589Y2043073D1*
X3126163D1*
X3121852Y2041647D1*
X3119001Y2038762D1*
X3117575Y2034484D1*
Y2033058D1*
X3119001Y2028747D1*
X3121852Y2025862D1*
X3126164Y2024436D1*
X3565913Y2803253D2*
X3596057D1*
Y2813300D1*
X3594598Y2817611D1*
X3591746Y2820497D1*
X3588861Y2821923D1*
X3584583Y2823348D1*
X3577387D1*
X3573076Y2821923D1*
X3570224Y2820497D1*
X3567339Y2817612D1*
X3565913Y2813301D1*
Y2803253D1*
X3571683Y2832612D2*
X3570224Y2835497D1*
X3565946Y2839808D1*
X3596057D1*
X3565946Y2857694D2*
X3567372Y2853383D1*
X3571683Y2850498D1*
X3578846Y2849072D1*
X3583157D1*
X3590320Y2850498D1*
X3594631Y2853383D1*
X3596057Y2857694D1*
Y2860546D1*
X3594631Y2864857D1*
X3590320Y2867708D1*
X3583157Y2869168D1*
X3578846D1*
X3571683Y2867709D1*
X3567372Y2864857D1*
X3565946Y2860546D1*
Y2857694D1*
X3571683Y2867709D2*
X3590320Y2850498D1*
X3596057Y2884168D2*
X3565946Y2898527D1*
Y2878431D1*
X1615913Y2128269D2*
X1646057D1*
Y2138317D1*
X1644598Y2142628D1*
X1641746Y2145513D1*
X1638861Y2146939D1*
X1634583Y2148365D1*
X1627387D1*
X1623076Y2146939D1*
X1620224Y2145513D1*
X1617339Y2142628D1*
X1615913Y2138317D1*
Y2128269D1*
X1621683Y2157629D2*
X1620224Y2160514D1*
X1615946Y2164825D1*
X1646057D1*
X1615946Y2182710D2*
X1617372Y2178399D1*
X1621683Y2175514D1*
X1628846Y2174088D1*
X1633157D1*
X1640320Y2175514D1*
X1644631Y2178399D1*
X1646057Y2182710D1*
Y2185562D1*
X1644631Y2189873D1*
X1640320Y2192725D1*
X1633157Y2194184D1*
X1628846D1*
X1621683Y2192725D1*
X1617372Y2189873D1*
X1615946Y2185562D1*
Y2182710D1*
X1621683Y2192725D2*
X1640320Y2175514D1*
X1615946Y2210611D2*
X1617372Y2206333D1*
X1620224Y2204874D1*
X1623109D1*
X1625961Y2206333D1*
X1627420Y2209185D1*
X1628846Y2214922D1*
X1630272Y2219233D1*
X1633157Y2222085D1*
X1636009Y2223511D1*
X1640320D1*
X1643172Y2222085D1*
X1644631Y2220659D1*
X1646057Y2216348D1*
Y2210611D1*
X1644631Y2206333D1*
X1643172Y2204874D1*
X1640320Y2203448D1*
X1636009D1*
X1633157Y2204874D1*
X1630272Y2207759D1*
X1628846Y2212037D1*
X1627420Y2217774D1*
X1625961Y2220659D1*
X1623109Y2222085D1*
X1620224D1*
X1617372Y2220659D1*
X1615946Y2216348D1*
Y2210611D1*
X3731067Y1961741D2*
X3761211D1*
X3761212Y1971789D1*
X3759752Y1976100D1*
X3756901Y1978985D1*
X3754015Y1980411D1*
X3749738Y1981837D1*
X3742541D1*
X3738230Y1980411D1*
X3735379Y1978985D1*
X3732493Y1976100D1*
X3731067Y1971789D1*
Y1961741D1*
X3736838Y1991101D2*
X3735379Y1993986D1*
X3731101Y1998297D1*
X3761212D1*
X3731101Y2016182D2*
X3732527Y2011871D1*
X3736838Y2008986D1*
X3744001Y2007560D1*
X3748312D1*
X3755475Y2008986D1*
X3759786Y2011871D1*
X3761211Y2016182D1*
Y2019034D1*
X3759786Y2023345D1*
X3755475Y2026197D1*
X3748312Y2027656D1*
X3744001D1*
X3736838Y2026197D1*
X3732527Y2023345D1*
X3731101Y2019034D1*
Y2016182D1*
X3736838Y2026197D2*
X3755475Y2008986D1*
X3741116Y2055590D2*
X3745427Y2054131D1*
X3748312Y2051279D1*
X3749738Y2046968D1*
Y2045542D1*
X3748312Y2041231D1*
X3745427Y2038379D1*
X3741116Y2036920D1*
X3739690D1*
X3735379Y2038379D1*
X3732527Y2041231D1*
X3731101Y2045542D1*
Y2046968D1*
X3732527Y2051279D1*
X3735379Y2054131D1*
X3741116Y2055590D1*
X3748312D1*
X3755475Y2054131D1*
X3759786Y2051279D1*
X3761211Y2046968D1*
Y2044116D1*
X3759786Y2039805D1*
X3756900Y2038379D1*
X1815913Y2134702D2*
X1846057D1*
Y2144750D1*
X1844598Y2149061D1*
X1841746Y2151947D1*
X1838861Y2153372D1*
X1834583Y2154798D1*
X1827387D1*
X1823076Y2153372D1*
X1820224Y2151947D1*
X1817339Y2149061D1*
X1815913Y2144750D1*
Y2134702D1*
X1821683Y2164062D2*
X1820224Y2166947D1*
X1815946Y2171258D1*
X1846057D1*
X1821683Y2180522D2*
X1820224Y2183407D1*
X1815946Y2187718D1*
X1846057D1*
X1815946Y2205603D2*
X1817372Y2201292D1*
X1821683Y2198407D1*
X1828846Y2196981D1*
X1833157D1*
X1840320Y2198407D1*
X1844631Y2201292D1*
X1846057Y2205603D1*
Y2208455D1*
X1844631Y2212766D1*
X1840320Y2215618D1*
X1833157Y2217077D1*
X1828846D1*
X1821683Y2215618D1*
X1817372Y2212766D1*
X1815946Y2208455D1*
Y2205603D1*
X1821683Y2215618D2*
X1840320Y2198407D1*
X3765913Y2816152D2*
X3796057D1*
Y2826200D1*
X3794598Y2830511D1*
X3791746Y2833396D1*
X3788861Y2834822D1*
X3784583Y2836248D1*
X3777387D1*
X3773076Y2834822D1*
X3770224Y2833397D1*
X3767339Y2830511D1*
X3765913Y2826200D1*
Y2816152D1*
X3771683Y2845512D2*
X3770224Y2848397D1*
X3765946Y2852708D1*
X3796057D1*
X3771683Y2861972D2*
X3770224Y2864857D1*
X3765946Y2869168D1*
X3796057D1*
X3771683Y2878431D2*
X3770224Y2881316D1*
X3765946Y2885627D1*
X3796057D1*
X3731067Y2217478D2*
X3761211D1*
X3761212Y2227526D1*
X3759752Y2231837D1*
X3756901Y2234722D1*
X3754015Y2236148D1*
X3749738Y2237574D1*
X3742541D1*
X3738230Y2236148D1*
X3735379Y2234722D1*
X3732493Y2231837D1*
X3731067Y2227526D1*
Y2217478D1*
X3736838Y2246838D2*
X3735379Y2249723D1*
X3731101Y2254034D1*
X3761212D1*
X3736838Y2263297D2*
X3735379Y2266182D1*
X3731101Y2270493D1*
X3761211D1*
X3738264Y2281216D2*
X3736838D1*
X3733953Y2282642D1*
X3732527Y2284068D1*
X3731101Y2286953D1*
Y2292690D1*
X3732527Y2295542D1*
X3733953Y2296968D1*
X3736838Y2298427D1*
X3739690D1*
X3742575Y2296968D1*
X3746852Y2294116D1*
X3761211Y2279757D1*
Y2299853D1*
X2255450Y3074646D2*
Y3051699D1*
X2254024Y3047388D1*
X2252565Y3045962D1*
X2249713Y3044502D1*
X2246828D1*
X2243976Y3045962D1*
X2242550Y3047388D1*
X2241091Y3051699D1*
Y3054550D1*
X2264713Y3068876D2*
X2267598Y3070335D1*
X2271909Y3074613D1*
Y3044502D1*
X2249000Y2474646D2*
Y2451699D1*
X2247574Y2447388D1*
X2246115Y2445962D1*
X2243263Y2444502D1*
X2240378D1*
X2237526Y2445962D1*
X2236100Y2447388D1*
X2234641Y2451699D1*
Y2454550D1*
X2259722Y2467450D2*
Y2468876D1*
X2261148Y2471761D1*
X2262574Y2473187D1*
X2265459Y2474613D1*
X2271196D1*
X2274048Y2473187D1*
X2275474Y2471761D1*
X2276933Y2468876D1*
Y2466024D1*
X2275474Y2463139D1*
X2272622Y2458861D1*
X2258263Y2444502D1*
X2278359D1*
X768390Y3784391D2*
Y3761443D1*
X766964Y3757132D1*
X765504Y3755706D1*
X762653Y3754247D1*
X759767D1*
X756916Y3755706D1*
X755490Y3757132D1*
X754030Y3761443D1*
Y3764295D1*
X780538Y3784357D2*
X796290D1*
X787701Y3772883D1*
X792012D1*
X794864Y3771457D1*
X796290Y3770032D1*
X797749Y3765720D1*
Y3762869D1*
X796290Y3758558D1*
X793438Y3755672D1*
X789127Y3754247D1*
X784816D1*
X780538Y3755672D1*
X779112Y3757132D1*
X777653Y3759984D1*
X1358228Y3784391D2*
Y3761443D1*
X1356802Y3757132D1*
X1355343Y3755706D1*
X1352491Y3754247D1*
X1349606D1*
X1346754Y3755706D1*
X1345328Y3757132D1*
X1343869Y3761443D1*
Y3764295D1*
X1381850Y3754247D2*
Y3784357D1*
X1367491Y3764295D1*
X1389013D1*
X1949492Y3784391D2*
Y3761443D1*
X1948066Y3757132D1*
X1946607Y3755706D1*
X1943755Y3754247D1*
X1940870D1*
X1938018Y3755706D1*
X1936592Y3757132D1*
X1935133Y3761443D1*
Y3764295D1*
X1975966Y3784357D2*
X1961640D1*
X1960215Y3771457D1*
X1961640Y3772883D1*
X1965952Y3774343D1*
X1970229D1*
X1974540Y3772883D1*
X1977425Y3770032D1*
X1978851Y3765720D1*
Y3762869D1*
X1977425Y3758558D1*
X1974540Y3755672D1*
X1970229Y3754247D1*
X1965952D1*
X1961640Y3755672D1*
X1960215Y3757132D1*
X1958755Y3759984D1*
X2843922Y3784391D2*
Y3761443D1*
X2842496Y3757132D1*
X2841037Y3755706D1*
X2838185Y3754247D1*
X2835300D1*
X2832448Y3755706D1*
X2831022Y3757132D1*
X2829563Y3761443D1*
Y3764295D1*
X2870397Y3780080D2*
X2868971Y3782931D1*
X2864660Y3784357D1*
X2861808D1*
X2857497Y3782931D1*
X2854612Y3778620D1*
X2853186Y3771457D1*
Y3764295D1*
X2854612Y3758558D1*
X2857497Y3755672D1*
X2861808Y3754247D1*
X2863234D1*
X2867512Y3755672D1*
X2870397Y3758558D1*
X2871823Y3762869D1*
Y3764295D1*
X2870397Y3768606D1*
X2867512Y3771457D1*
X2863234Y3772883D1*
X2861808D1*
X2857497Y3771457D1*
X2854612Y3768606D1*
X2853186Y3764295D1*
X3433744Y3784391D2*
Y3761443D1*
X3432318Y3757132D1*
X3430859Y3755706D1*
X3428007Y3754247D1*
X3425122D1*
X3422270Y3755706D1*
X3420844Y3757132D1*
X3419385Y3761443D1*
Y3764295D1*
X3448744Y3754247D2*
X3463103Y3784357D1*
X3443007D1*
X4024312Y3784391D2*
Y3761443D1*
X4022886Y3757132D1*
X4021427Y3755706D1*
X4018575Y3754247D1*
X4015690D1*
X4012838Y3755706D1*
X4011412Y3757132D1*
X4009953Y3761443D1*
Y3764295D1*
X4040738Y3784357D2*
X4036460Y3782931D1*
X4035001Y3780080D1*
Y3777194D1*
X4036460Y3774343D1*
X4039312Y3772883D1*
X4045049Y3771457D1*
X4049360Y3770032D1*
X4052212Y3767146D1*
X4053638Y3764295D1*
Y3759984D1*
X4052212Y3757132D1*
X4050786Y3755672D1*
X4046475Y3754247D1*
X4040738D1*
X4036460Y3755672D1*
X4035001Y3757132D1*
X4033575Y3759984D1*
Y3764295D1*
X4035001Y3767146D1*
X4037886Y3770032D1*
X4042164Y3771457D1*
X4047901Y3772883D1*
X4050786Y3774343D1*
X4052212Y3777194D1*
Y3780080D1*
X4050786Y3782931D1*
X4046475Y3784357D1*
X4040738D1*
X792725Y863131D2*
Y840183D1*
X791299Y835872D1*
X789839Y834446D1*
X786988Y832987D1*
X784102D1*
X781251Y834446D1*
X779825Y835872D1*
X778366Y840183D1*
Y843035D1*
X820658Y853083D2*
X819199Y848772D1*
X816347Y845887D1*
X812036Y844461D1*
X810610D1*
X806299Y845887D1*
X803447Y848772D1*
X801988Y853083D1*
Y854509D1*
X803447Y858820D1*
X806299Y861672D1*
X810610Y863098D1*
X812036D1*
X816347Y861672D1*
X819199Y858820D1*
X820658Y853083D1*
Y845887D1*
X819199Y838724D1*
X816347Y834413D1*
X812036Y832987D1*
X809184D1*
X804873Y834413D1*
X803447Y837298D1*
X1374333Y863131D2*
Y840183D1*
X1372907Y835872D1*
X1371448Y834446D1*
X1368596Y832987D1*
X1365711D1*
X1362859Y834446D1*
X1361433Y835872D1*
X1359974Y840183D1*
Y843035D1*
X1383596Y857361D2*
X1386482Y858820D1*
X1390793Y863098D1*
Y832987D1*
X1408678Y863098D2*
X1404367Y861672D1*
X1401482Y857361D1*
X1400056Y850198D1*
Y845887D1*
X1401482Y838724D1*
X1404367Y834413D1*
X1408678Y832987D1*
X1411530D1*
X1415841Y834413D1*
X1418693Y838724D1*
X1420152Y845887D1*
Y850198D1*
X1418693Y857361D1*
X1415841Y861672D1*
X1411530Y863098D1*
X1408678D1*
X1418693Y857361D2*
X1401482Y838724D1*
X1971334Y863131D2*
Y840183D1*
X1969908Y835872D1*
X1968449Y834446D1*
X1965597Y832987D1*
X1962712D1*
X1959860Y834446D1*
X1958434Y835872D1*
X1956975Y840183D1*
Y843035D1*
X1980598Y857361D2*
X1983483Y858820D1*
X1987794Y863098D1*
Y832987D1*
X1997057Y857361D2*
X1999942Y858820D1*
X2004253Y863098D1*
Y832987D1*
X2858585Y863131D2*
Y840183D1*
X2857159Y835872D1*
X2855700Y834446D1*
X2852848Y832987D1*
X2849963D1*
X2847111Y834446D1*
X2845685Y835872D1*
X2844226Y840183D1*
Y843035D1*
X2867848Y857361D2*
X2870733Y858820D1*
X2875045Y863098D1*
Y832987D1*
X2885767Y855935D2*
Y857361D1*
X2887193Y860246D1*
X2888619Y861672D1*
X2891504Y863098D1*
X2897241D1*
X2900093Y861672D1*
X2901519Y860246D1*
X2902978Y857361D1*
Y854509D1*
X2901519Y851624D1*
X2898667Y847346D1*
X2884308Y832987D1*
X2904404D1*
X3449136Y863131D2*
Y840183D1*
X3447710Y835872D1*
X3446251Y834446D1*
X3443399Y832987D1*
X3440514D1*
X3437662Y834446D1*
X3436236Y835872D1*
X3434777Y840183D1*
Y843035D1*
X3458400Y857361D2*
X3461285Y858820D1*
X3465596Y863098D1*
Y832987D1*
X3477744Y863098D2*
X3493496D1*
X3484907Y851624D1*
X3489218D1*
X3492070Y850198D1*
X3493496Y848772D1*
X3494955Y844461D1*
Y841609D1*
X3493496Y837298D1*
X3490644Y834413D1*
X3486333Y832987D1*
X3482022D1*
X3477744Y834413D1*
X3476318Y835872D1*
X3474859Y838724D1*
X4038974Y863131D2*
Y840183D1*
X4037548Y835872D1*
X4036089Y834446D1*
X4033237Y832987D1*
X4030352D1*
X4027500Y834446D1*
X4026074Y835872D1*
X4024615Y840183D1*
Y843035D1*
X4048238Y857361D2*
X4051123Y858820D1*
X4055434Y863098D1*
Y832987D1*
X4079056D2*
Y863098D1*
X4064697Y843035D1*
X4086219D1*
X2903270Y2300434D2*
Y2277486D1*
X2901844Y2273175D1*
X2900385Y2271749D1*
X2897533Y2270290D1*
X2894648D1*
X2891796Y2271749D1*
X2890370Y2273175D1*
X2888911Y2277486D1*
Y2280338D1*
X2912533Y2294664D2*
X2915419Y2296123D1*
X2919730Y2300401D1*
Y2270290D1*
X2946204Y2300401D2*
X2931878D1*
X2930452Y2287501D1*
X2931878Y2288927D1*
X2936189Y2290386D1*
X2940467D1*
X2944778Y2288927D1*
X2947663Y2286075D1*
X2949089Y2281764D1*
Y2278912D1*
X2947663Y2274601D1*
X2944778Y2271716D1*
X2940467Y2270290D1*
X2936189D1*
X2931878Y2271716D1*
X2930452Y2273175D1*
X2928993Y2276027D1*
X762566Y1032540D2*
X785514D1*
X789825Y1031114D1*
X791251Y1029655D1*
X792710Y1026803D1*
Y1023918D1*
X791251Y1021066D1*
X789825Y1019640D1*
X785514Y1018181D1*
X782662D1*
X768336Y1041804D2*
X766877Y1044689D1*
X762599Y1049000D1*
X792710D1*
X762599Y1066885D2*
X764025Y1062574D1*
X768336Y1059689D1*
X775499Y1058263D1*
X779810D1*
X786973Y1059689D1*
X791284Y1062574D1*
X792710Y1066885D1*
Y1069737D1*
X791284Y1074048D1*
X786973Y1076900D1*
X779810Y1078359D1*
X775499D1*
X768336Y1076900D1*
X764025Y1074048D1*
X762599Y1069737D1*
Y1066885D1*
X768336Y1076900D2*
X786973Y1059689D1*
X768336Y1087623D2*
X766877Y1090508D1*
X762599Y1094819D1*
X792710D1*
X1187566Y1026090D2*
X1210514D1*
X1214825Y1024664D1*
X1216251Y1023205D1*
X1217710Y1020353D1*
Y1017468D1*
X1216251Y1014616D1*
X1214825Y1013190D1*
X1210514Y1011731D1*
X1207662D1*
X1193336Y1035354D2*
X1191877Y1038239D1*
X1187599Y1042550D1*
X1217710D1*
X1187599Y1060435D2*
X1189025Y1056124D1*
X1193336Y1053239D1*
X1200499Y1051813D1*
X1204810D1*
X1211973Y1053239D1*
X1216284Y1056124D1*
X1217710Y1060435D1*
Y1063287D1*
X1216284Y1067598D1*
X1211973Y1070450D1*
X1204810Y1071909D1*
X1200499D1*
X1193336Y1070450D1*
X1189025Y1067598D1*
X1187599Y1063287D1*
Y1060435D1*
X1193336Y1070450D2*
X1211973Y1053239D1*
X1194762Y1082632D2*
X1193336D1*
X1190451Y1084058D1*
X1189025Y1085484D1*
X1187599Y1088369D1*
Y1094106D1*
X1189025Y1096958D1*
X1190451Y1098384D1*
X1193336Y1099843D1*
X1196188D1*
X1199073Y1098384D1*
X1203351Y1095532D1*
X1217710Y1081173D1*
Y1101269D1*
X1600066Y1026090D2*
X1623014D1*
X1627325Y1024664D1*
X1628751Y1023205D1*
X1630210Y1020353D1*
Y1017468D1*
X1628751Y1014616D1*
X1627325Y1013190D1*
X1623014Y1011731D1*
X1620162D1*
X1605836Y1035354D2*
X1604377Y1038239D1*
X1600099Y1042550D1*
X1630210D1*
X1600099Y1060435D2*
X1601525Y1056124D1*
X1605836Y1053239D1*
X1612999Y1051813D1*
X1617310D1*
X1624473Y1053239D1*
X1628784Y1056124D1*
X1630210Y1060435D1*
Y1063287D1*
X1628784Y1067598D1*
X1624473Y1070450D1*
X1617310Y1071909D1*
X1612999D1*
X1605836Y1070450D1*
X1601525Y1067598D1*
X1600099Y1063287D1*
Y1060435D1*
X1605836Y1070450D2*
X1624473Y1053239D1*
X1600099Y1084058D2*
Y1099810D1*
X1611573Y1091221D1*
Y1095532D1*
X1612999Y1098384D1*
X1614425Y1099810D1*
X1618736Y1101269D1*
X1621588D1*
X1625899Y1099810D1*
X1628784Y1096958D1*
X1630210Y1092647D1*
Y1088336D1*
X1628784Y1084058D1*
X1627325Y1082632D1*
X1624473Y1081173D1*
X2012566Y1037877D2*
X2035514D1*
X2039825Y1036451D1*
X2041251Y1034992D1*
X2042710Y1032140D1*
Y1029255D1*
X2041251Y1026403D1*
X2039825Y1024977D1*
X2035514Y1023518D1*
X2032662D1*
X2018336Y1047141D2*
X2016877Y1050026D1*
X2012599Y1054337D1*
X2042710D1*
X2012599Y1072222D2*
X2014025Y1067911D1*
X2018336Y1065026D1*
X2025499Y1063600D1*
X2029810D1*
X2036973Y1065026D1*
X2041284Y1067911D1*
X2042710Y1072222D1*
Y1075074D1*
X2041284Y1079385D1*
X2036973Y1082237D1*
X2029810Y1083696D1*
X2025499D1*
X2018336Y1082237D1*
X2014025Y1079385D1*
X2012599Y1075074D1*
Y1072222D1*
X2018336Y1082237D2*
X2036973Y1065026D1*
X2042710Y1107319D2*
X2012599D1*
X2032662Y1092960D1*
Y1114482D1*
X2840313Y2146300D2*
Y2116156D1*
X2860409Y2146300D2*
X2840313Y2126204D1*
X2847476Y2133400D2*
X2860409Y2116156D1*
X2869672Y2140530D2*
X2872557Y2141989D1*
X2876868Y2146267D1*
Y2116156D1*
X2894754Y2146267D2*
X2890443Y2144841D1*
X2887558Y2140530D1*
X2886132Y2133367D1*
Y2129056D1*
X2887558Y2121893D1*
X2890443Y2117582D1*
X2894754Y2116156D1*
X2897606D1*
X2901917Y2117582D1*
X2904769Y2121893D1*
X2906228Y2129056D1*
Y2133367D1*
X2904769Y2140530D1*
X2901917Y2144841D1*
X2897606Y2146267D1*
X2894754D1*
X2904769Y2140530D2*
X2887558Y2121893D1*
X2915491Y2140530D2*
X2918376Y2141989D1*
X2922687Y2146267D1*
Y2116156D1*
X3446363Y2146300D2*
Y2116156D1*
X3466459Y2146300D2*
X3446363Y2126204D1*
X3453526Y2133400D2*
X3466459Y2116156D1*
X3475722Y2140530D2*
X3478607Y2141989D1*
X3482918Y2146267D1*
Y2116156D1*
X3500804Y2146267D2*
X3496493Y2144841D1*
X3493608Y2140530D1*
X3492182Y2133367D1*
Y2129056D1*
X3493608Y2121893D1*
X3496493Y2117582D1*
X3500804Y2116156D1*
X3503656D1*
X3507967Y2117582D1*
X3510819Y2121893D1*
X3512278Y2129056D1*
Y2133367D1*
X3510819Y2140530D1*
X3507967Y2144841D1*
X3503656Y2146267D1*
X3500804D1*
X3510819Y2140530D2*
X3493608Y2121893D1*
X3523000Y2139104D2*
Y2140530D1*
X3524426Y2143415D1*
X3525852Y2144841D1*
X3528737Y2146267D1*
X3534474D1*
X3537326Y2144841D1*
X3538752Y2143415D1*
X3540211Y2140530D1*
Y2137678D1*
X3538752Y2134793D1*
X3535900Y2130515D1*
X3521541Y2116156D1*
X3541637D1*
X4071363Y2133800D2*
Y2103656D1*
X4091459Y2133800D2*
X4071363Y2113704D1*
X4078526Y2120900D2*
X4091459Y2103656D1*
X4100722Y2128030D2*
X4103607Y2129489D1*
X4107918Y2133767D1*
Y2103656D1*
X4125804Y2133767D2*
X4121493Y2132341D1*
X4118608Y2128030D1*
X4117182Y2120867D1*
Y2116556D1*
X4118608Y2109393D1*
X4121493Y2105082D1*
X4125804Y2103656D1*
X4128656D1*
X4132967Y2105082D1*
X4135819Y2109393D1*
X4137278Y2116556D1*
Y2120867D1*
X4135819Y2128030D1*
X4132967Y2132341D1*
X4128656Y2133767D1*
X4125804D1*
X4135819Y2128030D2*
X4118608Y2109393D1*
X4149426Y2133767D2*
X4165178D1*
X4156589Y2122293D1*
X4160900D1*
X4163752Y2120867D1*
X4165178Y2119441D1*
X4166637Y2115130D1*
Y2112278D1*
X4165178Y2107967D1*
X4162326Y2105082D1*
X4158015Y2103656D1*
X4153704D1*
X4149426Y2105082D1*
X4148000Y2106541D1*
X4146541Y2109393D1*
X4070650Y3306241D2*
Y3276097D1*
X4090746Y3306241D2*
X4070650Y3286145D1*
X4077813Y3293341D2*
X4090746Y3276097D1*
X4100009Y3300471D2*
X4102894Y3301930D1*
X4107205Y3306208D1*
Y3276097D1*
X4125091Y3306208D2*
X4120780Y3304782D1*
X4117895Y3300471D1*
X4116469Y3293308D1*
Y3288997D1*
X4117895Y3281834D1*
X4120780Y3277523D1*
X4125091Y3276097D1*
X4127943D1*
X4132254Y3277523D1*
X4135106Y3281834D1*
X4136565Y3288997D1*
Y3293308D1*
X4135106Y3300471D1*
X4132254Y3304782D1*
X4127943Y3306208D1*
X4125091D1*
X4135106Y3300471D2*
X4117895Y3281834D1*
X4160187Y3276097D2*
Y3306208D1*
X4145828Y3286145D1*
X4167350D1*
X955610Y3353583D2*
Y3323439D1*
X972821D1*
X982084Y3347813D2*
X984969Y3349272D1*
X989280Y3353550D1*
Y3323439D1*
X3143539Y2510354D2*
X3140687Y2508961D1*
X3137802Y2506076D1*
X3136376Y2503191D1*
X3134917Y2498880D1*
Y2491717D1*
X3136376Y2487406D1*
X3137802Y2484554D1*
X3140687Y2481669D1*
X3143539Y2480243D1*
X3149276D1*
X3152161Y2481669D1*
X3155013Y2484554D1*
X3156439Y2487406D1*
X3157898Y2491717D1*
Y2498880D1*
X3156439Y2503191D1*
X3155013Y2506076D1*
X3152161Y2508961D1*
X3149276Y2510354D1*
X3143539D1*
X3147850Y2485980D2*
X3156439Y2477358D1*
X3167162Y2504584D2*
X3170047Y2506043D1*
X3174358Y2510321D1*
Y2480210D1*
X3192244Y2510321D2*
X3187933Y2508895D1*
X3185048Y2504584D1*
X3183622Y2497421D1*
Y2493110D1*
X3185048Y2485947D1*
X3187933Y2481636D1*
X3192244Y2480210D1*
X3195096D1*
X3199407Y2481636D1*
X3202258Y2485947D1*
X3203718Y2493110D1*
Y2497421D1*
X3202258Y2504584D1*
X3199407Y2508895D1*
X3195096Y2510321D1*
X3192244D1*
X3202258Y2504584D2*
X3185048Y2485947D1*
X3212981Y2504584D2*
X3215866Y2506043D1*
X3220177Y2510321D1*
Y2480210D1*
X3474589Y2510354D2*
X3471737Y2508961D1*
X3468852Y2506076D1*
X3467426Y2503191D1*
X3465967Y2498880D1*
Y2491717D1*
X3467426Y2487406D1*
X3468852Y2484554D1*
X3471737Y2481669D1*
X3474589Y2480243D1*
X3480326D1*
X3483211Y2481669D1*
X3486063Y2484554D1*
X3487489Y2487406D1*
X3488948Y2491717D1*
Y2498880D1*
X3487489Y2503191D1*
X3486063Y2506076D1*
X3483211Y2508961D1*
X3480326Y2510354D1*
X3474589D1*
X3478900Y2485980D2*
X3487489Y2477358D1*
X3498212Y2504584D2*
X3501097Y2506043D1*
X3505408Y2510321D1*
Y2480210D1*
X3523294Y2510321D2*
X3518983Y2508895D1*
X3516098Y2504584D1*
X3514672Y2497421D1*
Y2493110D1*
X3516098Y2485947D1*
X3518983Y2481636D1*
X3523294Y2480210D1*
X3526146D1*
X3530457Y2481636D1*
X3533308Y2485947D1*
X3534768Y2493110D1*
Y2497421D1*
X3533308Y2504584D1*
X3530457Y2508895D1*
X3526146Y2510321D1*
X3523294D1*
X3533308Y2504584D2*
X3516098Y2485947D1*
X3545490Y2503158D2*
Y2504584D1*
X3546916Y2507469D1*
X3548342Y2508895D1*
X3551227Y2510321D1*
X3556964D1*
X3559816Y2508895D1*
X3561242Y2507469D1*
X3562701Y2504584D1*
Y2501732D1*
X3561242Y2498847D1*
X3558390Y2494569D1*
X3544031Y2480210D1*
X3564127D1*
X3637089Y2510354D2*
X3634237Y2508961D1*
X3631352Y2506076D1*
X3629926Y2503191D1*
X3628467Y2498880D1*
Y2491717D1*
X3629926Y2487406D1*
X3631352Y2484554D1*
X3634237Y2481669D1*
X3637089Y2480243D1*
X3642826D1*
X3645711Y2481669D1*
X3648563Y2484554D1*
X3649989Y2487406D1*
X3651448Y2491717D1*
Y2498880D1*
X3649989Y2503191D1*
X3648563Y2506076D1*
X3645711Y2508961D1*
X3642826Y2510354D1*
X3637089D1*
X3641400Y2485980D2*
X3649989Y2477358D1*
X3660712Y2504584D2*
X3663597Y2506043D1*
X3667908Y2510321D1*
Y2480210D1*
X3685794Y2510321D2*
X3681483Y2508895D1*
X3678598Y2504584D1*
X3677172Y2497421D1*
Y2493110D1*
X3678598Y2485947D1*
X3681483Y2481636D1*
X3685794Y2480210D1*
X3688646D1*
X3692957Y2481636D1*
X3695808Y2485947D1*
X3697268Y2493110D1*
Y2497421D1*
X3695808Y2504584D1*
X3692957Y2508895D1*
X3688646Y2510321D1*
X3685794D1*
X3695808Y2504584D2*
X3678598Y2485947D1*
X3709416Y2510321D2*
X3725168D1*
X3716579Y2498847D1*
X3720890D1*
X3723742Y2497421D1*
X3725168Y2495995D1*
X3726627Y2491684D1*
Y2488832D1*
X3725168Y2484521D1*
X3722316Y2481636D1*
X3718005Y2480210D1*
X3713694D1*
X3709416Y2481636D1*
X3707990Y2483095D1*
X3706531Y2485947D1*
X3311376Y2510354D2*
X3308524Y2508961D1*
X3305639Y2506076D1*
X3304213Y2503191D1*
X3302754Y2498880D1*
Y2491717D1*
X3304213Y2487406D1*
X3305639Y2484554D1*
X3308524Y2481669D1*
X3311376Y2480243D1*
X3317113D1*
X3319998Y2481669D1*
X3322850Y2484554D1*
X3324276Y2487406D1*
X3325735Y2491717D1*
Y2498880D1*
X3324276Y2503191D1*
X3322850Y2506076D1*
X3319998Y2508961D1*
X3317113Y2510354D1*
X3311376D1*
X3315687Y2485980D2*
X3324276Y2477358D1*
X3334999Y2504584D2*
X3337884Y2506043D1*
X3342195Y2510321D1*
Y2480210D1*
X3360081Y2510321D2*
X3355770Y2508895D1*
X3352885Y2504584D1*
X3351459Y2497421D1*
Y2493110D1*
X3352885Y2485947D1*
X3355770Y2481636D1*
X3360081Y2480210D1*
X3362933D1*
X3367244Y2481636D1*
X3370096Y2485947D1*
X3371555Y2493110D1*
Y2497421D1*
X3370096Y2504584D1*
X3367244Y2508895D1*
X3362933Y2510321D1*
X3360081D1*
X3370096Y2504584D2*
X3352885Y2485947D1*
X3395177Y2480210D2*
Y2510321D1*
X3380818Y2490258D1*
X3402340D1*
X1482240Y2771687D2*
Y2784587D1*
X1480781Y2788898D1*
X1479355Y2790357D1*
X1476503Y2791783D1*
X1473618D1*
X1470766Y2790357D1*
X1469307Y2788898D1*
X1467881Y2784587D1*
Y2771687D1*
X1498025D1*
X1482240Y2781735D2*
X1498025Y2791783D1*
X1473651Y2801046D2*
X1472192Y2803931D1*
X1467914Y2808242D1*
X1498025D1*
X1065237Y2368260D2*
X1078137D1*
X1082448Y2369719D1*
X1083907Y2371145D1*
X1085333Y2373997D1*
Y2376882D1*
X1083907Y2379734D1*
X1082448Y2381193D1*
X1078137Y2382619D1*
X1065237D1*
Y2352475D1*
X1075285Y2368260D2*
X1085333Y2352475D1*
X1096055Y2375423D2*
Y2376849D1*
X1097481Y2379734D1*
X1098907Y2381160D1*
X1101792Y2382586D1*
X1107529D1*
X1110381Y2381160D1*
X1111807Y2379734D1*
X1113266Y2376849D1*
Y2373997D1*
X1111807Y2371112D1*
X1108955Y2366834D1*
X1094596Y2352475D1*
X1114692D1*
X1569740Y2765237D2*
Y2778137D1*
X1568281Y2782448D1*
X1566855Y2783907D1*
X1564003Y2785333D1*
X1561118D1*
X1558266Y2783907D1*
X1556807Y2782448D1*
X1555381Y2778137D1*
Y2765237D1*
X1585525D1*
X1569740Y2775285D2*
X1585525Y2785333D1*
X1555414Y2797481D2*
Y2813233D1*
X1566888Y2804644D1*
Y2808955D1*
X1568314Y2811807D1*
X1569740Y2813233D1*
X1574051Y2814692D1*
X1576903D1*
X1581214Y2813233D1*
X1584099Y2810381D1*
X1585525Y2806070D1*
Y2801759D1*
X1584099Y2797481D1*
X1582640Y2796055D1*
X1579788Y2794596D1*
X1657240Y2764524D2*
Y2777424D1*
X1655781Y2781735D1*
X1654355Y2783194D1*
X1651503Y2784620D1*
X1648618D1*
X1645766Y2783194D1*
X1644307Y2781735D1*
X1642881Y2777424D1*
Y2764524D1*
X1673025D1*
X1657240Y2774572D2*
X1673025Y2784620D1*
Y2808242D2*
X1642914D1*
X1662977Y2793883D1*
Y2815405D1*
X1744740Y2765237D2*
Y2778137D1*
X1743281Y2782448D1*
X1741855Y2783907D1*
X1739003Y2785333D1*
X1736118D1*
X1733266Y2783907D1*
X1731807Y2782448D1*
X1730381Y2778137D1*
Y2765237D1*
X1760525D1*
X1744740Y2775285D2*
X1760525Y2785333D1*
X1730414Y2811807D2*
Y2797481D1*
X1743314Y2796056D1*
X1741888Y2797481D1*
X1740429Y2801792D1*
Y2806070D1*
X1741888Y2810381D1*
X1744740Y2813266D1*
X1749051Y2814692D1*
X1751903D1*
X1756214Y2813266D1*
X1759099Y2810381D1*
X1760525Y2806070D1*
Y2801792D1*
X1759099Y2797481D1*
X1757640Y2796055D1*
X1754788Y2794596D1*
X1269740Y3053466D2*
Y3066366D1*
X1268281Y3070677D1*
X1266855Y3072136D1*
X1264003Y3073562D1*
X1261118D1*
X1258266Y3072137D1*
X1256807Y3070677D1*
X1255381Y3066366D1*
Y3053466D1*
X1285525D1*
X1269740Y3063514D2*
X1285525Y3073562D1*
X1259692Y3100037D2*
X1256840Y3098611D1*
X1255414Y3094300D1*
Y3091448D1*
X1256840Y3087137D1*
X1261151Y3084252D1*
X1268314Y3082826D1*
X1275477D1*
X1281214Y3084252D1*
X1284099Y3087137D1*
X1285525Y3091448D1*
Y3092874D1*
X1284099Y3097152D1*
X1281214Y3100037D1*
X1276903Y3101463D1*
X1275477D1*
X1271166Y3100037D1*
X1268314Y3097152D1*
X1266888Y3092874D1*
Y3091448D1*
X1268314Y3087137D1*
X1271166Y3084252D1*
X1275477Y3082826D1*
X1182240Y3048308D2*
Y3061208D1*
X1180781Y3065519D1*
X1179355Y3066978D1*
X1176503Y3068404D1*
X1173618D1*
X1170766Y3066978D1*
X1169307Y3065519D1*
X1167881Y3061208D1*
Y3048308D1*
X1198025D1*
X1182240Y3058356D2*
X1198025Y3068404D1*
Y3083404D2*
X1167914Y3097763D1*
Y3077667D1*
X2640253Y3305760D2*
X2653153D1*
X2657464Y3307219D1*
X2658923Y3308645D1*
X2660349Y3311497D1*
Y3314382D1*
X2658923Y3317234D1*
X2657464Y3318693D1*
X2653153Y3320119D1*
X2640253D1*
Y3289975D1*
X2650301Y3305760D2*
X2660349Y3289975D1*
X2676776Y3320086D2*
X2672498Y3318660D1*
X2671039Y3315808D1*
Y3312923D1*
X2672498Y3310071D1*
X2675350Y3308612D1*
X2681087Y3307186D1*
X2685398Y3305760D1*
X2688250Y3302875D1*
X2689676Y3300023D1*
Y3295712D1*
X2688250Y3292860D1*
X2686824Y3291401D1*
X2682513Y3289975D1*
X2676776D1*
X2672498Y3291401D1*
X2671039Y3292860D1*
X2669613Y3295712D1*
Y3300023D1*
X2671039Y3302875D1*
X2673924Y3305760D1*
X2678202Y3307186D1*
X2683939Y3308612D1*
X2686824Y3310071D1*
X2688250Y3312923D1*
Y3315808D1*
X2686824Y3318660D1*
X2682513Y3320086D1*
X2676776D1*
X3269740Y3248985D2*
Y3261885D1*
X3268281Y3266196D1*
X3266855Y3267655D1*
X3264003Y3269081D1*
X3261118D1*
X3258266Y3267655D1*
X3256807Y3266196D1*
X3255381Y3261885D1*
Y3248985D1*
X3285525D1*
X3269740Y3259033D2*
X3285525Y3269081D1*
X3265429Y3297015D2*
X3269740Y3295556D1*
X3272625Y3292704D1*
X3274051Y3288393D1*
Y3286967D1*
X3272625Y3282656D1*
X3269740Y3279804D1*
X3265429Y3278345D1*
X3264003D1*
X3259692Y3279804D1*
X3256840Y3282656D1*
X3255414Y3286967D1*
Y3288393D1*
X3256840Y3292704D1*
X3259692Y3295556D1*
X3265429Y3297015D1*
X3272625D1*
X3279788Y3295556D1*
X3284099Y3292704D1*
X3285525Y3288393D1*
Y3285541D1*
X3284099Y3281230D1*
X3281214Y3279804D1*
X3357240Y3240043D2*
Y3252942D1*
X3355781Y3257253D1*
X3354355Y3258713D1*
X3351503Y3260139D1*
X3348618D1*
X3345766Y3258713D1*
X3344307Y3257253D1*
X3342881Y3252942D1*
Y3240043D1*
X3373025D1*
X3357240Y3250091D2*
X3373025Y3260138D1*
X3348651Y3269402D2*
X3347192Y3272287D1*
X3342914Y3276598D1*
X3373025D1*
X3342914Y3294484D2*
X3344340Y3290173D1*
X3348651Y3287288D1*
X3355814Y3285862D1*
X3360125D1*
X3367288Y3287288D1*
X3371599Y3290173D1*
X3373025Y3294484D1*
Y3297336D1*
X3371599Y3301647D1*
X3367288Y3304498D1*
X3360125Y3305958D1*
X3355814D1*
X3348651Y3304499D1*
X3344340Y3301647D1*
X3342914Y3297336D1*
Y3294484D1*
X3348651Y3304499D2*
X3367288Y3287288D1*
X2171528Y3368260D2*
X2184428D1*
X2188739Y3369719D1*
X2190198Y3371145D1*
X2191624Y3373997D1*
Y3376882D1*
X2190198Y3379734D1*
X2188739Y3381193D1*
X2184428Y3382619D1*
X2171528D1*
Y3352475D1*
X2181576Y3368260D2*
X2191624Y3352475D1*
X2200887Y3376849D2*
X2203772Y3378308D1*
X2208083Y3382586D1*
Y3352475D1*
X2217347Y3376849D2*
X2220232Y3378308D1*
X2224543Y3382586D1*
Y3352475D1*
X2627578Y3180760D2*
X2640478D1*
X2644789Y3182219D1*
X2646248Y3183645D1*
X2647674Y3186497D1*
Y3189382D1*
X2646248Y3192234D1*
X2644789Y3193693D1*
X2640478Y3195119D1*
X2627578D1*
Y3164975D1*
X2637626Y3180760D2*
X2647674Y3164975D1*
X2656937Y3189349D2*
X2659822Y3190808D1*
X2664133Y3195086D1*
Y3164975D1*
X2674856Y3187923D2*
Y3189349D1*
X2676282Y3192234D1*
X2677708Y3193660D1*
X2680593Y3195086D1*
X2686330D1*
X2689182Y3193660D1*
X2690608Y3192234D1*
X2692067Y3189349D1*
Y3186497D1*
X2690608Y3183612D1*
X2687756Y3179334D1*
X2673397Y3164975D1*
X2693493D1*
X3619740Y3240043D2*
Y3252942D1*
X3618281Y3257253D1*
X3616855Y3258713D1*
X3614003Y3260139D1*
X3611118D1*
X3608266Y3258713D1*
X3606807Y3257253D1*
X3605381Y3252942D1*
Y3240043D1*
X3635525D1*
X3619740Y3250091D2*
X3635525Y3260138D1*
X3611151Y3269402D2*
X3609692Y3272287D1*
X3605414Y3276598D1*
X3635525D1*
X3605414Y3288747D2*
Y3304499D1*
X3616888Y3295910D1*
Y3300221D1*
X3618314Y3303073D1*
X3619740Y3304499D1*
X3624051Y3305958D1*
X3626903D1*
X3631214Y3304498D1*
X3634099Y3301647D1*
X3635525Y3297336D1*
Y3293025D1*
X3634099Y3288747D1*
X3632640Y3287321D1*
X3629788Y3285862D1*
X3532240Y3239365D2*
Y3252265D1*
X3530781Y3256576D1*
X3529355Y3258035D1*
X3526503Y3259461D1*
X3523618D1*
X3520766Y3258035D1*
X3519307Y3256576D1*
X3517881Y3252265D1*
Y3239365D1*
X3548025D1*
X3532240Y3249413D2*
X3548025Y3259461D1*
X3523651Y3268724D2*
X3522192Y3271610D1*
X3517914Y3275921D1*
X3548025D1*
Y3299543D2*
X3517914D1*
X3537977Y3285184D1*
Y3306706D1*
X532931Y1484008D2*
X545831D1*
X550142Y1485467D1*
X551601Y1486893D1*
X553027Y1489745D1*
Y1492630D1*
X551601Y1495482D1*
X550142Y1496941D1*
X545831Y1498367D1*
X532931D1*
Y1468223D1*
X542979Y1484008D2*
X553027Y1468223D1*
X562290Y1492597D2*
X565175Y1494056D1*
X569486Y1498334D1*
Y1468223D1*
X587372Y1498334D2*
X583061Y1496908D1*
X580176Y1492597D1*
X578750Y1485434D1*
Y1481123D1*
X580176Y1473960D1*
X583061Y1469649D1*
X587372Y1468223D1*
X590224D1*
X594535Y1469649D1*
X597387Y1473960D1*
X598846Y1481123D1*
Y1485434D1*
X597387Y1492597D1*
X594535Y1496908D1*
X590224Y1498334D1*
X587372D1*
X597387Y1492597D2*
X580176Y1473960D1*
X608109Y1492597D2*
X610995Y1494056D1*
X615306Y1498334D1*
Y1468223D1*
X678992Y1438981D2*
Y1451881D1*
X677533Y1456192D1*
X676107Y1457651D1*
X673255Y1459077D1*
X670370D1*
X667518Y1457651D1*
X666059Y1456192D1*
X664633Y1451881D1*
Y1438981D1*
X694777D1*
X678992Y1449029D2*
X694777Y1459077D1*
X670403Y1468340D2*
X668944Y1471225D1*
X664666Y1475536D1*
X694777D1*
X664666Y1493422D2*
X666092Y1489111D1*
X670403Y1486226D1*
X677566Y1484800D1*
X681877D1*
X689040Y1486226D1*
X693351Y1489111D1*
X694777Y1493422D1*
Y1496274D1*
X693351Y1500585D1*
X689040Y1503437D1*
X681877Y1504896D1*
X677566D1*
X670403Y1503437D1*
X666092Y1500585D1*
X664666Y1496274D1*
Y1493422D1*
X670403Y1503437D2*
X689040Y1486226D1*
X671829Y1515619D2*
X670403D1*
X667518Y1517045D1*
X666092Y1518471D1*
X664666Y1521356D1*
Y1527093D1*
X666092Y1529944D1*
X667518Y1531370D1*
X670403Y1532830D1*
X673255D1*
X676140Y1531370D1*
X680418Y1528519D1*
X694777Y1514159D1*
Y1534255D1*
X1119740Y1954827D2*
Y1967727D1*
X1118281Y1972038D1*
X1116855Y1973497D1*
X1114003Y1974923D1*
X1111118D1*
X1108266Y1973497D1*
X1106807Y1972038D1*
X1105381Y1967727D1*
Y1954827D1*
X1135525D1*
X1119740Y1964875D2*
X1135525Y1974923D1*
X1111151Y1984187D2*
X1109692Y1987072D1*
X1105414Y1991383D1*
X1135525D1*
X1105414Y2009268D2*
X1106840Y2004957D1*
X1111151Y2002072D1*
X1118314Y2000646D1*
X1122625D1*
X1129788Y2002072D1*
X1134099Y2004957D1*
X1135525Y2009268D1*
Y2012120D1*
X1134099Y2016431D1*
X1129788Y2019283D1*
X1122625Y2020742D1*
X1118314D1*
X1111151Y2019283D1*
X1106840Y2016431D1*
X1105414Y2012120D1*
Y2009268D1*
X1111151Y2019283D2*
X1129788Y2002072D1*
X1105414Y2032891D2*
Y2048643D1*
X1116888Y2040054D1*
Y2044365D1*
X1118314Y2047217D1*
X1119740Y2048643D1*
X1124051Y2050102D1*
X1126903D1*
X1131214Y2048643D1*
X1134099Y2045791D1*
X1135525Y2041480D1*
Y2037169D1*
X1134099Y2032891D1*
X1132640Y2031465D1*
X1129788Y2030006D1*
X3094740Y2812185D2*
Y2825085D1*
X3093281Y2829396D1*
X3091855Y2830855D1*
X3089003Y2832281D1*
X3086118D1*
X3083266Y2830855D1*
X3081807Y2829396D1*
X3080381Y2825085D1*
Y2812185D1*
X3110525D1*
X3094740Y2822233D2*
X3110525Y2832281D1*
X3086151Y2841545D2*
X3084692Y2844430D1*
X3080414Y2848741D1*
X3110525D1*
X3080414Y2866626D2*
X3081840Y2862315D1*
X3086151Y2859430D1*
X3093314Y2858004D1*
X3097625D1*
X3104788Y2859430D1*
X3109099Y2862315D1*
X3110525Y2866626D1*
Y2869478D1*
X3109099Y2873789D1*
X3104788Y2876641D1*
X3097625Y2878100D1*
X3093314D1*
X3086151Y2876641D1*
X3081840Y2873789D1*
X3080414Y2869478D1*
Y2866626D1*
X3086151Y2876641D2*
X3104788Y2859430D1*
X3110525Y2901723D2*
X3080414D1*
X3100477Y2887364D1*
Y2908886D1*
X807240Y1242327D2*
Y1255227D1*
X805781Y1259538D1*
X804355Y1260997D1*
X801503Y1262423D1*
X798618D1*
X795766Y1260997D1*
X794307Y1259538D1*
X792881Y1255227D1*
Y1242327D1*
X823025D1*
X807240Y1252375D2*
X823025Y1262423D1*
X798651Y1271687D2*
X797192Y1274572D1*
X792914Y1278883D1*
X823025D1*
X792914Y1296768D2*
X794340Y1292457D1*
X798651Y1289572D1*
X805814Y1288146D1*
X810125D1*
X817288Y1289572D1*
X821599Y1292457D1*
X823025Y1296768D1*
Y1299620D1*
X821599Y1303931D1*
X817288Y1306783D1*
X810125Y1308242D1*
X805814D1*
X798651Y1306783D1*
X794340Y1303931D1*
X792914Y1299620D1*
Y1296768D1*
X798651Y1306783D2*
X817288Y1289572D1*
X792914Y1334717D2*
Y1320391D1*
X805814Y1318965D1*
X804388Y1320391D1*
X802929Y1324702D1*
Y1328980D1*
X804388Y1333291D1*
X807240Y1336176D1*
X811551Y1337602D1*
X814403D1*
X818714Y1336176D1*
X821599Y1333291D1*
X823025Y1328980D1*
Y1324702D1*
X821599Y1320391D1*
X820140Y1318965D1*
X817288Y1317506D1*
X1119740Y2138628D2*
Y2151528D1*
X1118281Y2155839D1*
X1116855Y2157298D1*
X1114003Y2158724D1*
X1111118D1*
X1108266Y2157298D1*
X1106807Y2155839D1*
X1105381Y2151528D1*
Y2138628D1*
X1135525D1*
X1119740Y2148676D2*
X1135525Y2158724D1*
X1111151Y2167987D2*
X1109692Y2170872D1*
X1105414Y2175183D1*
X1135525D1*
X1105414Y2193069D2*
X1106840Y2188758D1*
X1111151Y2185873D1*
X1118314Y2184447D1*
X1122625D1*
X1129788Y2185873D1*
X1134099Y2188758D1*
X1135525Y2193069D1*
Y2195921D1*
X1134099Y2200232D1*
X1129788Y2203084D1*
X1122625Y2204543D1*
X1118314D1*
X1111151Y2203084D1*
X1106840Y2200232D1*
X1105414Y2195921D1*
Y2193069D1*
X1111151Y2203084D2*
X1129788Y2185873D1*
X1109692Y2231017D2*
X1106840Y2229591D1*
X1105414Y2225280D1*
Y2222428D1*
X1106840Y2218117D1*
X1111151Y2215232D1*
X1118314Y2213806D1*
X1125477D1*
X1131214Y2215232D1*
X1134099Y2218117D1*
X1135525Y2222428D1*
Y2223854D1*
X1134099Y2228132D1*
X1131214Y2231017D1*
X1126903Y2232443D1*
X1125477D1*
X1121166Y2231017D1*
X1118314Y2228132D1*
X1116888Y2223854D1*
Y2222428D1*
X1118314Y2218117D1*
X1121166Y2215232D1*
X1125477Y2213806D1*
X3244740Y2529827D2*
Y2542727D1*
X3243281Y2547038D1*
X3241855Y2548497D1*
X3239003Y2549923D1*
X3236118D1*
X3233266Y2548497D1*
X3231807Y2547038D1*
X3230381Y2542727D1*
Y2529827D1*
X3260525D1*
X3244740Y2539875D2*
X3260525Y2549923D1*
X3236151Y2559187D2*
X3234692Y2562072D1*
X3230414Y2566383D1*
X3260525D1*
X3230414Y2584268D2*
X3231840Y2579957D1*
X3236151Y2577072D1*
X3243314Y2575646D1*
X3247625D1*
X3254788Y2577072D1*
X3259099Y2579957D1*
X3260525Y2584268D1*
Y2587120D1*
X3259099Y2591431D1*
X3254788Y2594283D1*
X3247625Y2595742D1*
X3243314D1*
X3236151Y2594283D1*
X3231840Y2591431D1*
X3230414Y2587120D1*
Y2584268D1*
X3236151Y2594283D2*
X3254788Y2577072D1*
X3260525Y2610743D2*
X3230414Y2625102D1*
Y2605006D1*
X951497Y1484008D2*
X964397D1*
X968708Y1485467D1*
X970167Y1486893D1*
X971593Y1489745D1*
Y1492630D1*
X970167Y1495482D1*
X968708Y1496941D1*
X964397Y1498367D1*
X951497D1*
Y1468223D1*
X961545Y1484008D2*
X971593Y1468223D1*
X980857Y1492597D2*
X983742Y1494056D1*
X988053Y1498334D1*
Y1468223D1*
X1005939Y1498334D2*
X1001628Y1496908D1*
X998742Y1492597D1*
X997317Y1485434D1*
Y1481123D1*
X998742Y1473960D1*
X1001628Y1469649D1*
X1005939Y1468223D1*
X1008790D1*
X1013101Y1469649D1*
X1015953Y1473960D1*
X1017413Y1481123D1*
Y1485434D1*
X1015953Y1492597D1*
X1013101Y1496908D1*
X1008790Y1498334D1*
X1005939D1*
X1015953Y1492597D2*
X998742Y1473960D1*
X1033839Y1498334D2*
X1029561Y1496908D1*
X1028102Y1494056D1*
Y1491171D1*
X1029561Y1488319D1*
X1032413Y1486860D1*
X1038150Y1485434D1*
X1042461Y1484008D1*
X1045313Y1481123D1*
X1046739Y1478271D1*
Y1473960D1*
X1045313Y1471108D1*
X1043887Y1469649D1*
X1039576Y1468223D1*
X1033839D1*
X1029561Y1469649D1*
X1028102Y1471108D1*
X1026676Y1473960D1*
Y1478271D1*
X1028102Y1481123D1*
X1030987Y1484008D1*
X1035265Y1485434D1*
X1041002Y1486860D1*
X1043887Y1488319D1*
X1045313Y1491171D1*
Y1494056D1*
X1043887Y1496908D1*
X1039576Y1498334D1*
X1033839D1*
X1116492Y1439694D2*
Y1452594D1*
X1115033Y1456905D1*
X1113607Y1458364D1*
X1110755Y1459790D1*
X1107870D1*
X1105018Y1458364D1*
X1103559Y1456905D1*
X1102133Y1452594D1*
Y1439694D1*
X1132277D1*
X1116492Y1449742D2*
X1132277Y1459790D1*
X1107903Y1469053D2*
X1106444Y1471938D1*
X1102166Y1476249D1*
X1132277D1*
X1102166Y1494135D2*
X1103592Y1489824D1*
X1107903Y1486939D1*
X1115066Y1485513D1*
X1119377D1*
X1126540Y1486939D1*
X1130851Y1489824D1*
X1132277Y1494135D1*
Y1496987D1*
X1130851Y1501298D1*
X1126540Y1504150D1*
X1119377Y1505609D1*
X1115066D1*
X1107903Y1504150D1*
X1103592Y1501298D1*
X1102166Y1496987D1*
Y1494135D1*
X1107903Y1504150D2*
X1126540Y1486939D1*
X1112181Y1533543D2*
X1116492Y1532083D1*
X1119377Y1529231D1*
X1120803Y1524920D1*
Y1523495D1*
X1119377Y1519183D1*
X1116492Y1516332D1*
X1112181Y1514872D1*
X1110755D1*
X1106444Y1516332D1*
X1103592Y1519184D1*
X1102166Y1523495D1*
Y1524920D1*
X1103592Y1529232D1*
X1106444Y1532083D1*
X1112181Y1533543D1*
X1119377D1*
X1126540Y1532083D1*
X1130851Y1529231D1*
X1132277Y1524920D1*
Y1522069D1*
X1130851Y1517758D1*
X1127966Y1516332D1*
X1319740Y1961277D2*
Y1974177D1*
X1318281Y1978488D1*
X1316855Y1979947D1*
X1314003Y1981373D1*
X1311118D1*
X1308266Y1979947D1*
X1306807Y1978488D1*
X1305381Y1974177D1*
Y1961277D1*
X1335525D1*
X1319740Y1971325D2*
X1335525Y1981373D1*
X1311151Y1990637D2*
X1309692Y1993522D1*
X1305414Y1997833D1*
X1335525D1*
X1311151Y2007096D2*
X1309692Y2009981D1*
X1305414Y2014292D1*
X1335525D1*
X1305414Y2032178D2*
X1306840Y2027867D1*
X1311151Y2024982D1*
X1318314Y2023556D1*
X1322625D1*
X1329788Y2024982D1*
X1334099Y2027867D1*
X1335525Y2032178D1*
Y2035030D1*
X1334099Y2039341D1*
X1329788Y2042193D1*
X1322625Y2043652D1*
X1318314D1*
X1311151Y2042193D1*
X1306840Y2039341D1*
X1305414Y2035030D1*
Y2032178D1*
X1311151Y2042193D2*
X1329788Y2024982D1*
X1232240Y1230227D2*
Y1243127D1*
X1230781Y1247438D1*
X1229355Y1248897D1*
X1226503Y1250323D1*
X1223618D1*
X1220766Y1248897D1*
X1219307Y1247438D1*
X1217881Y1243127D1*
Y1230227D1*
X1248025D1*
X1232240Y1240275D2*
X1248025Y1250323D1*
X1223651Y1259587D2*
X1222192Y1262472D1*
X1217914Y1266783D1*
X1248025D1*
X1223651Y1276046D2*
X1222192Y1278931D1*
X1217914Y1283242D1*
X1248025D1*
X1223651Y1292506D2*
X1222192Y1295391D1*
X1217914Y1299702D1*
X1248025D1*
X1319740Y2144348D2*
Y2157248D1*
X1318281Y2161559D1*
X1316855Y2163018D1*
X1314003Y2164444D1*
X1311118D1*
X1308266Y2163018D1*
X1306807Y2161559D1*
X1305381Y2157248D1*
Y2144348D1*
X1335525D1*
X1319740Y2154396D2*
X1335525Y2164444D1*
X1311151Y2173708D2*
X1309692Y2176593D1*
X1305414Y2180904D1*
X1335525D1*
X1311151Y2190167D2*
X1309692Y2193052D1*
X1305414Y2197363D1*
X1335525D1*
X1312577Y2208086D2*
X1311151D1*
X1308266Y2209512D1*
X1306840Y2210938D1*
X1305414Y2213823D1*
Y2219560D1*
X1306840Y2222412D1*
X1308266Y2223838D1*
X1311151Y2225297D1*
X1314003D1*
X1316888Y2223838D1*
X1321166Y2220986D1*
X1335525Y2206627D1*
Y2226723D1*
X3282240Y2819348D2*
Y2832248D1*
X3280781Y2836559D1*
X3279355Y2838018D1*
X3276503Y2839444D1*
X3273618D1*
X3270766Y2838018D1*
X3269307Y2836559D1*
X3267881Y2832248D1*
Y2819348D1*
X3298025D1*
X3282240Y2829396D2*
X3298025Y2839444D1*
X3273651Y2848708D2*
X3272192Y2851593D1*
X3267914Y2855904D1*
X3298025D1*
X3273651Y2865167D2*
X3272192Y2868052D1*
X3267914Y2872363D1*
X3298025D1*
X3267914Y2884512D2*
Y2900264D1*
X3279388Y2891675D1*
Y2895986D1*
X3280814Y2898838D1*
X3282240Y2900264D1*
X3286551Y2901723D1*
X3289403D1*
X3293714Y2900264D1*
X3296599Y2897412D1*
X3298025Y2893101D1*
Y2888790D1*
X3296599Y2884512D1*
X3295140Y2883086D1*
X3292288Y2881627D1*
X3507240Y2535564D2*
Y2548464D1*
X3505781Y2552775D1*
X3504355Y2554234D1*
X3501503Y2555660D1*
X3498618D1*
X3495766Y2554234D1*
X3494307Y2552775D1*
X3492881Y2548464D1*
Y2535564D1*
X3523025D1*
X3507240Y2545612D2*
X3523025Y2555660D1*
X3498651Y2564924D2*
X3497192Y2567809D1*
X3492914Y2572120D1*
X3523025D1*
X3498651Y2581383D2*
X3497192Y2584268D1*
X3492914Y2588580D1*
X3523025Y2588579D1*
Y2612202D2*
X3492914D1*
X3512977Y2597843D1*
Y2619365D1*
X1382931Y1484008D2*
X1395831D1*
X1400142Y1485467D1*
X1401601Y1486893D1*
X1403027Y1489745D1*
Y1492630D1*
X1401601Y1495482D1*
X1400142Y1496941D1*
X1395831Y1498367D1*
X1382931D1*
Y1468223D1*
X1392979Y1484008D2*
X1403027Y1468223D1*
X1412290Y1492597D2*
X1415175Y1494056D1*
X1419486Y1498334D1*
Y1468223D1*
X1428750Y1492597D2*
X1431635Y1494056D1*
X1435946Y1498334D1*
Y1468223D1*
X1462420Y1498334D2*
X1448095D1*
X1446669Y1485434D1*
X1448095Y1486860D1*
X1452406Y1488319D1*
X1456683D1*
X1460995Y1486860D1*
X1463880Y1484008D1*
X1465306Y1479697D1*
Y1476845D1*
X1463880Y1472534D1*
X1460995Y1469649D1*
X1456683Y1468223D1*
X1452406D1*
X1448095Y1469649D1*
X1446669Y1471108D1*
X1445210Y1473960D1*
X1528992Y1433660D2*
Y1446560D1*
X1527533Y1450871D1*
X1526107Y1452330D1*
X1523255Y1453756D1*
X1520370D1*
X1517518Y1452330D1*
X1516059Y1450871D1*
X1514633Y1446560D1*
Y1433660D1*
X1544777D1*
X1528992Y1443708D2*
X1544777Y1453756D1*
X1520403Y1463020D2*
X1518944Y1465905D1*
X1514666Y1470216D1*
X1544777D1*
X1520403Y1479479D2*
X1518944Y1482365D1*
X1514666Y1486676D1*
X1544777D1*
X1518944Y1513150D2*
X1516092Y1511724D1*
X1514666Y1507413D1*
Y1504561D1*
X1516092Y1500250D1*
X1520403Y1497365D1*
X1527566Y1495939D1*
X1534729D1*
X1540466Y1497365D1*
X1543351Y1500250D1*
X1544777Y1504561D1*
Y1505987D1*
X1543351Y1510265D1*
X1540466Y1513150D1*
X1536155Y1514576D1*
X1534729D1*
X1530418Y1513150D1*
X1527566Y1510265D1*
X1526140Y1505987D1*
Y1504561D1*
X1527566Y1500250D1*
X1530418Y1497365D1*
X1534729Y1495939D1*
X1532240Y1948777D2*
Y1961677D1*
X1530781Y1965988D1*
X1529355Y1967447D1*
X1526503Y1968873D1*
X1523618D1*
X1520766Y1967447D1*
X1519307Y1965988D1*
X1517881Y1961677D1*
Y1948777D1*
X1548025D1*
X1532240Y1958825D2*
X1548025Y1968873D1*
X1523651Y1978137D2*
X1522192Y1981022D1*
X1517914Y1985333D1*
X1548025D1*
X1523651Y1994596D2*
X1522192Y1997481D1*
X1517914Y2001792D1*
X1548025D1*
Y2016793D2*
X1517914Y2031152D1*
Y2011056D1*
X1644740Y1248794D2*
Y1261694D1*
X1643281Y1266005D1*
X1641855Y1267464D1*
X1639003Y1268890D1*
X1636118D1*
X1633266Y1267464D1*
X1631807Y1266005D1*
X1630381Y1261694D1*
Y1248794D1*
X1660525D1*
X1644740Y1258842D2*
X1660525Y1268890D1*
X1636151Y1278153D2*
X1634692Y1281038D1*
X1630414Y1285349D1*
X1660525D1*
X1636151Y1294613D2*
X1634692Y1297498D1*
X1630414Y1301809D1*
X1660525D1*
X1630414Y1318236D2*
X1631840Y1313958D1*
X1634692Y1312499D1*
X1637577D1*
X1640429Y1313958D1*
X1641888Y1316810D1*
X1643314Y1322547D1*
X1644740Y1326858D1*
X1647625Y1329709D1*
X1650477Y1331135D1*
X1654788D1*
X1657640Y1329709D1*
X1659099Y1328283D1*
X1660525Y1323972D1*
Y1318235D1*
X1659099Y1313958D1*
X1657640Y1312499D1*
X1654788Y1311073D1*
X1650477D1*
X1647625Y1312499D1*
X1644740Y1315384D1*
X1643314Y1319661D1*
X1641888Y1325398D1*
X1640429Y1328284D1*
X1637577Y1329709D1*
X1634692D1*
X1631840Y1328284D1*
X1630414Y1323973D1*
Y1318236D1*
X1532240Y2145061D2*
Y2157961D1*
X1530781Y2162272D1*
X1529355Y2163731D1*
X1526503Y2165157D1*
X1523618D1*
X1520766Y2163731D1*
X1519307Y2162272D1*
X1517881Y2157961D1*
Y2145061D1*
X1548025D1*
X1532240Y2155109D2*
X1548025Y2165157D1*
X1523651Y2174421D2*
X1522192Y2177306D1*
X1517914Y2181617D1*
X1548025D1*
X1523651Y2190880D2*
X1522192Y2193765D1*
X1517914Y2198076D1*
X1548025D1*
X1527929Y2226010D2*
X1532240Y2224551D1*
X1535125Y2221699D1*
X1536551Y2217388D1*
Y2215962D1*
X1535125Y2211651D1*
X1532240Y2208799D1*
X1527929Y2207340D1*
X1526503D1*
X1522192Y2208799D1*
X1519340Y2211651D1*
X1517914Y2215962D1*
Y2217388D1*
X1519340Y2221699D1*
X1522192Y2224551D1*
X1527929Y2226010D1*
X1535125D1*
X1542288Y2224551D1*
X1546599Y2221699D1*
X1548025Y2217388D1*
Y2214536D1*
X1546599Y2210225D1*
X1543714Y2208799D1*
X3482240Y2825398D2*
Y2838298D1*
X3480781Y2842609D1*
X3479355Y2844068D1*
X3476503Y2845494D1*
X3473618D1*
X3470766Y2844068D1*
X3469307Y2842609D1*
X3467881Y2838298D1*
Y2825398D1*
X3498025D1*
X3482240Y2835446D2*
X3498025Y2845494D1*
X3473651Y2854758D2*
X3472192Y2857643D1*
X3467914Y2861954D1*
X3498025D1*
X3475077Y2872676D2*
X3473651D1*
X3470766Y2874102D1*
X3469340Y2875528D1*
X3467914Y2878413D1*
Y2884150D1*
X3469340Y2887002D1*
X3470766Y2888428D1*
X3473651Y2889887D1*
X3476503D1*
X3479388Y2888428D1*
X3483666Y2885576D1*
X3498025Y2871217D1*
Y2891313D1*
X3467914Y2909199D2*
X3469340Y2904888D1*
X3473651Y2902003D1*
X3480814Y2900577D1*
X3485125D1*
X3492288Y2902003D1*
X3496599Y2904888D1*
X3498025Y2909199D1*
Y2912051D1*
X3496599Y2916362D1*
X3492288Y2919214D1*
X3485125Y2920673D1*
X3480814D1*
X3473651Y2919214D1*
X3469340Y2916362D1*
X3467914Y2912051D1*
Y2909199D1*
X3473651Y2919214D2*
X3492288Y2902003D1*
X3644740Y2544348D2*
Y2557248D1*
X3643281Y2561559D1*
X3641855Y2563018D1*
X3639003Y2564444D1*
X3636118D1*
X3633266Y2563018D1*
X3631807Y2561559D1*
X3630381Y2557248D1*
Y2544348D1*
X3660525D1*
X3644740Y2554396D2*
X3660525Y2564444D1*
X3636151Y2573708D2*
X3634692Y2576593D1*
X3630414Y2580904D1*
X3660525D1*
X3637577Y2591626D2*
X3636151D1*
X3633266Y2593052D1*
X3631840Y2594478D1*
X3630414Y2597363D1*
Y2603100D1*
X3631840Y2605952D1*
X3633266Y2607378D1*
X3636151Y2608837D1*
X3639003D1*
X3641888Y2607378D1*
X3646166Y2604526D1*
X3660525Y2590167D1*
Y2610263D1*
X3636151Y2619527D2*
X3634692Y2622412D1*
X3630414Y2626723D1*
X3660525D1*
X1788981Y1484008D2*
X1801881D1*
X1806192Y1485467D1*
X1807651Y1486893D1*
X1809077Y1489745D1*
Y1492630D1*
X1807651Y1495482D1*
X1806192Y1496941D1*
X1801881Y1498367D1*
X1788981D1*
Y1468223D1*
X1799029Y1484008D2*
X1809077Y1468223D1*
X1818340Y1492597D2*
X1821225Y1494056D1*
X1825536Y1498334D1*
Y1468223D1*
X1836259Y1491171D2*
Y1492597D1*
X1837685Y1495482D1*
X1839111Y1496908D1*
X1841996Y1498334D1*
X1847733D1*
X1850585Y1496908D1*
X1852011Y1495482D1*
X1853470Y1492597D1*
Y1489745D1*
X1852011Y1486860D1*
X1849159Y1482582D1*
X1834800Y1468223D1*
X1854896D1*
X1865619Y1491171D2*
Y1492597D1*
X1867045Y1495482D1*
X1868471Y1496908D1*
X1871356Y1498334D1*
X1877093D1*
X1879944Y1496908D1*
X1881370Y1495482D1*
X1882830Y1492597D1*
Y1489745D1*
X1881370Y1486860D1*
X1878519Y1482582D1*
X1864159Y1468223D1*
X1884255D1*
X1941492Y1438981D2*
Y1451881D1*
X1940033Y1456192D1*
X1938607Y1457651D1*
X1935755Y1459077D1*
X1932870D1*
X1930018Y1457651D1*
X1928559Y1456192D1*
X1927133Y1451881D1*
Y1438981D1*
X1957277D1*
X1941492Y1449029D2*
X1957277Y1459077D1*
X1932903Y1468340D2*
X1931444Y1471225D1*
X1927166Y1475536D1*
X1957277D1*
X1934329Y1486259D2*
X1932903D1*
X1930018Y1487685D1*
X1928592Y1489111D1*
X1927166Y1491996D1*
Y1497733D1*
X1928592Y1500585D1*
X1930018Y1502011D1*
X1932903Y1503470D1*
X1935755D1*
X1938640Y1502011D1*
X1942918Y1499159D1*
X1957277Y1484800D1*
Y1504896D1*
X1927166Y1517045D2*
Y1532796D1*
X1938640Y1524207D1*
Y1528519D1*
X1940066Y1531370D1*
X1941492Y1532796D1*
X1945803Y1534255D1*
X1948655D1*
X1952966Y1532796D1*
X1955851Y1529944D1*
X1957277Y1525633D1*
Y1521322D1*
X1955851Y1517045D1*
X1954392Y1515619D1*
X1951540Y1514159D1*
X1719740Y1954114D2*
Y1967014D1*
X1718281Y1971325D1*
X1716855Y1972784D1*
X1714003Y1974210D1*
X1711118D1*
X1708266Y1972784D1*
X1706807Y1971325D1*
X1705381Y1967014D1*
Y1954114D1*
X1735525D1*
X1719740Y1964162D2*
X1735525Y1974210D1*
X1711151Y1983474D2*
X1709692Y1986359D1*
X1705414Y1990670D1*
X1735525D1*
X1712577Y2001393D2*
X1711151D1*
X1708266Y2002819D1*
X1706840Y2004244D1*
X1705414Y2007130D1*
Y2012867D1*
X1706840Y2015718D1*
X1708266Y2017144D1*
X1711151Y2018603D1*
X1714003D1*
X1716888Y2017144D1*
X1721166Y2014292D1*
X1735525Y1999933D1*
Y2020029D1*
Y2043652D2*
X1705414D1*
X1725477Y2029293D1*
Y2050815D1*
X2069740Y1229827D2*
Y1242727D1*
X2068281Y1247038D1*
X2066855Y1248497D1*
X2064003Y1249923D1*
X2061118D1*
X2058266Y1248497D1*
X2056807Y1247038D1*
X2055381Y1242727D1*
Y1229827D1*
X2085525D1*
X2069740Y1239875D2*
X2085525Y1249923D1*
X2061151Y1259187D2*
X2059692Y1262072D1*
X2055414Y1266383D1*
X2085525D1*
X2062577Y1277106D2*
X2061151D1*
X2058266Y1278532D1*
X2056840Y1279957D1*
X2055414Y1282843D1*
Y1288580D1*
X2056840Y1291431D1*
X2058266Y1292857D1*
X2061151Y1294316D1*
X2064003D1*
X2066888Y1292857D1*
X2071166Y1290005D1*
X2085525Y1275646D1*
Y1295742D1*
X2055414Y1322217D2*
Y1307891D1*
X2068314Y1306465D1*
X2066888Y1307891D1*
X2065429Y1312202D1*
Y1316480D1*
X2066888Y1320791D1*
X2069740Y1323676D1*
X2074051Y1325102D1*
X2076903D1*
X2081214Y1323676D1*
X2084099Y1320791D1*
X2085525Y1316480D1*
Y1312202D1*
X2084099Y1307891D1*
X2082640Y1306465D1*
X2079788Y1305006D1*
X1732240Y2126128D2*
Y2139028D1*
X1730781Y2143339D1*
X1729355Y2144798D1*
X1726503Y2146224D1*
X1723618D1*
X1720766Y2144798D1*
X1719307Y2143339D1*
X1717881Y2139028D1*
Y2126128D1*
X1748025D1*
X1732240Y2136176D2*
X1748025Y2146224D1*
X1723651Y2155487D2*
X1722192Y2158372D1*
X1717914Y2162683D1*
X1748025D1*
X1725077Y2173406D2*
X1723651D1*
X1720766Y2174832D1*
X1719340Y2176258D1*
X1717914Y2179143D1*
Y2184880D1*
X1719340Y2187732D1*
X1720766Y2189158D1*
X1723651Y2190617D1*
X1726503D1*
X1729388Y2189158D1*
X1733666Y2186306D1*
X1748025Y2171947D1*
Y2192043D1*
X1722192Y2218517D2*
X1719340Y2217091D1*
X1717914Y2212780D1*
Y2209928D1*
X1719340Y2205617D1*
X1723651Y2202732D1*
X1730814Y2201306D1*
X1737977D1*
X1743714Y2202732D1*
X1746599Y2205617D1*
X1748025Y2209928D1*
Y2211354D1*
X1746599Y2215632D1*
X1743714Y2218517D1*
X1739403Y2219943D1*
X1737977D1*
X1733666Y2218517D1*
X1730814Y2215632D1*
X1729388Y2211354D1*
Y2209928D1*
X1730814Y2205617D1*
X1733666Y2202732D1*
X1737977Y2201306D1*
X3682240Y2825398D2*
Y2838298D1*
X3680781Y2842609D1*
X3679355Y2844068D1*
X3676503Y2845494D1*
X3673618D1*
X3670766Y2844068D1*
X3669307Y2842609D1*
X3667881Y2838298D1*
Y2825398D1*
X3698025D1*
X3682240Y2835446D2*
X3698025Y2845494D1*
X3673651Y2854758D2*
X3672192Y2857643D1*
X3667914Y2861954D1*
X3698025D1*
X3675077Y2872676D2*
X3673651D1*
X3670766Y2874102D1*
X3669340Y2875528D1*
X3667914Y2878413D1*
Y2884150D1*
X3669340Y2887002D1*
X3670766Y2888428D1*
X3673651Y2889887D1*
X3676503D1*
X3679388Y2888428D1*
X3683666Y2885576D1*
X3698025Y2871217D1*
Y2891313D1*
Y2906314D2*
X3667914Y2920673D1*
Y2900577D1*
X3382240Y2529844D2*
Y2542744D1*
X3380781Y2547055D1*
X3379355Y2548514D1*
X3376503Y2549940D1*
X3373618D1*
X3370766Y2548514D1*
X3369307Y2547055D1*
X3367881Y2542744D1*
Y2529844D1*
X3398025D1*
X3382240Y2539892D2*
X3398025Y2549940D1*
X3373651Y2559203D2*
X3372192Y2562088D1*
X3367914Y2566399D1*
X3398025D1*
X3375077Y2577122D2*
X3373651D1*
X3370766Y2578548D1*
X3369340Y2579974D1*
X3367914Y2582859D1*
Y2588596D1*
X3369340Y2591448D1*
X3370766Y2592874D1*
X3373651Y2594333D1*
X3376503D1*
X3379388Y2592874D1*
X3383666Y2590022D1*
X3398025Y2575663D1*
Y2595759D1*
X3367914Y2612185D2*
X3369340Y2607908D1*
X3372192Y2606448D1*
X3375077D1*
X3377929Y2607908D1*
X3379388Y2610760D1*
X3380814Y2616496D1*
X3382240Y2620808D1*
X3385125Y2623659D1*
X3387977Y2625085D1*
X3392288D1*
X3395140Y2623659D1*
X3396599Y2622233D1*
X3398025Y2617922D1*
Y2612185D1*
X3396599Y2607908D1*
X3395140Y2606448D1*
X3392288Y2605023D1*
X3387977D1*
X3385125Y2606448D1*
X3382240Y2609334D1*
X3380814Y2613611D1*
X3379388Y2619348D1*
X3377929Y2622233D1*
X3375077Y2623659D1*
X3372192D1*
X3369340Y2622233D1*
X3367914Y2617922D1*
Y2612185D1*
X913222Y3177304D2*
Y3155782D1*
X914648Y3151471D1*
X917533Y3148619D1*
X921844Y3147160D1*
X924696D1*
X929007Y3148619D1*
X931892Y3151471D1*
X933318Y3155782D1*
Y3177304D1*
X942582Y3171534D2*
X945467Y3172993D1*
X949778Y3177271D1*
Y3147160D1*
X684627Y2272368D2*
Y2250846D1*
X686053Y2246535D1*
X688938Y2243683D1*
X693249Y2242224D1*
X696101D1*
X700412Y2243683D1*
X703297Y2246535D1*
X704723Y2250846D1*
Y2272368D1*
X715445Y2265172D2*
Y2266598D1*
X716871Y2269483D1*
X718297Y2270909D1*
X721182Y2272335D1*
X726919D1*
X729771Y2270909D1*
X731197Y2269483D1*
X732656Y2266598D1*
Y2263746D1*
X731197Y2260861D1*
X728345Y2256583D1*
X713986Y2242224D1*
X734082D1*
X2950571Y3348861D2*
Y3327339D1*
X2951997Y3323028D1*
X2954882Y3320176D1*
X2959193Y3318717D1*
X2962045D1*
X2966356Y3320176D1*
X2969241Y3323028D1*
X2970667Y3327339D1*
Y3348861D1*
X2982816Y3348828D2*
X2998568D1*
X2989979Y3337354D1*
X2994290D1*
X2997142Y3335928D1*
X2998568Y3334502D1*
X3000027Y3330191D1*
Y3327339D1*
X2998568Y3323028D1*
X2995716Y3320143D1*
X2991405Y3318717D1*
X2987094D1*
X2982816Y3320143D1*
X2981390Y3321602D1*
X2979931Y3324454D1*
X1924760Y3386361D2*
Y3364839D1*
X1926186Y3360528D1*
X1929071Y3357676D1*
X1933382Y3356217D1*
X1936234D1*
X1940545Y3357676D1*
X1943430Y3360528D1*
X1944856Y3364839D1*
Y3386361D1*
X1968479Y3356217D2*
Y3386328D1*
X1954120Y3366265D1*
X1975642D1*
X1590319Y3385354D2*
Y3363832D1*
X1591745Y3359521D1*
X1594630Y3356669D1*
X1598942Y3355210D1*
X1601793D1*
X1606104Y3356669D1*
X1608990Y3359521D1*
X1610415Y3363832D1*
Y3385354D1*
X1636890Y3385321D2*
X1622564D1*
X1621138Y3372421D1*
X1622564Y3373847D1*
X1626875Y3375306D1*
X1631153D1*
X1635464Y3373847D1*
X1638349Y3370995D1*
X1639775Y3366684D1*
Y3363832D1*
X1638349Y3359521D1*
X1635464Y3356636D1*
X1631153Y3355210D1*
X1626875D1*
X1622564Y3356636D1*
X1621138Y3358095D1*
X1619679Y3360947D1*
X609616Y3349646D2*
X621090Y3319502D1*
X632564Y3349646D1*
X641828D2*
Y3319502D1*
X651876D1*
X656187Y3320962D1*
X659072Y3323813D1*
X660498Y3326699D1*
X661924Y3330976D1*
Y3338172D1*
X660498Y3342484D1*
X659072Y3345335D1*
X656187Y3348220D1*
X651876Y3349646D1*
X641828D1*
X671187Y3343876D2*
X674073Y3345335D1*
X678384Y3349613D1*
Y3319502D1*
X586707Y1099646D2*
X598181Y1069502D1*
X609655Y1099646D1*
X618918D2*
Y1069502D1*
X628966D1*
X633277Y1070962D1*
X636162Y1073813D1*
X637588Y1076699D1*
X639014Y1080976D1*
Y1088172D1*
X637588Y1092484D1*
X636162Y1095335D1*
X633277Y1098220D1*
X628966Y1099646D1*
X618918D1*
X648278Y1093876D2*
X651163Y1095335D1*
X655474Y1099613D1*
Y1069502D1*
X673360Y1099613D2*
X669049Y1098187D1*
X666163Y1093876D1*
X664738Y1086713D1*
Y1082402D1*
X666163Y1075239D1*
X669049Y1070928D1*
X673360Y1069502D1*
X676211D1*
X680522Y1070928D1*
X683374Y1075239D1*
X684834Y1082402D1*
Y1086713D1*
X683374Y1093876D1*
X680522Y1098187D1*
X676211Y1099613D1*
X673360D1*
X683374Y1093876D2*
X666163Y1075239D1*
X694097Y1093876D2*
X696982Y1095335D1*
X701293Y1099613D1*
Y1069502D1*
X1005257Y1099646D2*
X1016731Y1069502D1*
X1028205Y1099646D1*
X1037468D2*
Y1069502D1*
X1047516D1*
X1051827Y1070962D1*
X1054712Y1073813D1*
X1056138Y1076699D1*
X1057564Y1080976D1*
Y1088172D1*
X1056138Y1092484D1*
X1054712Y1095335D1*
X1051827Y1098220D1*
X1047516Y1099646D1*
X1037468D1*
X1066828Y1093876D2*
X1069713Y1095335D1*
X1074024Y1099613D1*
Y1069502D1*
X1091910Y1099613D2*
X1087599Y1098187D1*
X1084714Y1093876D1*
X1083288Y1086713D1*
Y1082402D1*
X1084714Y1075239D1*
X1087599Y1070928D1*
X1091910Y1069502D1*
X1094762D1*
X1099073Y1070928D1*
X1101924Y1075239D1*
X1103384Y1082402D1*
Y1086713D1*
X1101924Y1093876D1*
X1099073Y1098187D1*
X1094762Y1099613D1*
X1091910D1*
X1101924Y1093876D2*
X1084714Y1075239D1*
X1114106Y1092450D2*
Y1093876D1*
X1115532Y1096761D1*
X1116958Y1098187D1*
X1119843Y1099613D1*
X1125580D1*
X1128432Y1098187D1*
X1129858Y1096761D1*
X1131317Y1093876D1*
Y1091024D1*
X1129858Y1088139D1*
X1127006Y1083861D1*
X1112647Y1069502D1*
X1132743D1*
X1417757Y1099646D2*
X1429231Y1069502D1*
X1440705Y1099646D1*
X1449968D2*
Y1069502D1*
X1460016D1*
X1464327Y1070962D1*
X1467212Y1073813D1*
X1468638Y1076699D1*
X1470064Y1080976D1*
Y1088172D1*
X1468638Y1092484D1*
X1467212Y1095335D1*
X1464327Y1098220D1*
X1460016Y1099646D1*
X1449968D1*
X1479328Y1093876D2*
X1482213Y1095335D1*
X1486524Y1099613D1*
Y1069502D1*
X1504410Y1099613D2*
X1500099Y1098187D1*
X1497214Y1093876D1*
X1495788Y1086713D1*
Y1082402D1*
X1497214Y1075239D1*
X1500099Y1070928D1*
X1504410Y1069502D1*
X1507262D1*
X1511573Y1070928D1*
X1514424Y1075239D1*
X1515884Y1082402D1*
Y1086713D1*
X1514424Y1093876D1*
X1511573Y1098187D1*
X1507262Y1099613D1*
X1504410D1*
X1514424Y1093876D2*
X1497214Y1075239D1*
X1528032Y1099613D2*
X1543784D1*
X1535195Y1088139D1*
X1539506D1*
X1542358Y1086713D1*
X1543784Y1085287D1*
X1545243Y1080976D1*
Y1078124D1*
X1543784Y1073813D1*
X1540932Y1070928D1*
X1536621Y1069502D1*
X1532310D1*
X1528032Y1070928D1*
X1526606Y1072388D1*
X1525147Y1075239D1*
X1829544Y1099646D2*
X1841018Y1069502D1*
X1852492Y1099646D1*
X1861755D2*
Y1069502D1*
X1871803D1*
X1876114Y1070962D1*
X1878999Y1073813D1*
X1880425Y1076699D1*
X1881851Y1080976D1*
Y1088172D1*
X1880425Y1092484D1*
X1878999Y1095335D1*
X1876114Y1098220D1*
X1871803Y1099646D1*
X1861755D1*
X1891115Y1093876D2*
X1894000Y1095335D1*
X1898311Y1099613D1*
Y1069502D1*
X1916197Y1099613D2*
X1911886Y1098187D1*
X1909001Y1093876D1*
X1907575Y1086713D1*
Y1082402D1*
X1909001Y1075239D1*
X1911886Y1070928D1*
X1916197Y1069502D1*
X1919049D1*
X1923360Y1070928D1*
X1926211Y1075239D1*
X1927671Y1082402D1*
Y1086713D1*
X1926211Y1093876D1*
X1923360Y1098187D1*
X1919049Y1099613D1*
X1916197D1*
X1926211Y1093876D2*
X1909001Y1075239D1*
X1951293Y1069502D2*
Y1099613D1*
X1936934Y1079550D1*
X1958456D1*
X485281Y1803387D2*
X496755Y1773243D1*
X508229Y1803387D1*
X526114D2*
X523229Y1801961D1*
X520377Y1799076D1*
X518918Y1796224D1*
X517492Y1791913D1*
Y1784717D1*
X518918Y1780439D1*
X520377Y1777554D1*
X523229Y1774702D1*
X526114Y1773243D1*
X531851D1*
X534703Y1774702D1*
X537588Y1777554D1*
X539014Y1780439D1*
X540440Y1784717D1*
Y1791913D1*
X539014Y1796224D1*
X537588Y1799076D1*
X534703Y1801961D1*
X531851Y1803387D1*
X526114D1*
X549704Y1797616D2*
X552589Y1799076D1*
X556900Y1803353D1*
Y1773243D1*
X574786Y1803353D2*
X570474Y1801927D1*
X567589Y1797616D1*
X566163Y1790454D1*
Y1786143D1*
X567589Y1778980D1*
X570474Y1774669D1*
X574786Y1773243D1*
X577637D1*
X581948Y1774669D1*
X584800Y1778980D1*
X586259Y1786143D1*
Y1790454D1*
X584800Y1797616D1*
X581948Y1801927D1*
X577637Y1803353D1*
X574786D1*
X584800Y1797616D2*
X567589Y1778980D1*
X595523Y1797616D2*
X598408Y1799076D1*
X602719Y1803353D1*
Y1773243D1*
X903831Y1828387D2*
X915305Y1798243D1*
X926779Y1828387D1*
X944664D2*
X941779Y1826961D1*
X938927Y1824076D1*
X937468Y1821224D1*
X936042Y1816913D1*
Y1809717D1*
X937468Y1805439D1*
X938927Y1802554D1*
X941779Y1799702D1*
X944664Y1798243D1*
X950401D1*
X953253Y1799702D1*
X956138Y1802554D1*
X957564Y1805439D1*
X958990Y1809717D1*
Y1816913D1*
X957564Y1821224D1*
X956138Y1824076D1*
X953253Y1826961D1*
X950401Y1828387D1*
X944664D1*
X968254Y1822616D2*
X971139Y1824076D1*
X975450Y1828353D1*
Y1798243D1*
X993336Y1828353D2*
X989025Y1826927D1*
X986139Y1822616D1*
X984714Y1815454D1*
Y1811143D1*
X986139Y1803980D1*
X989025Y1799669D1*
X993336Y1798243D1*
X996187D1*
X1000498Y1799669D1*
X1003350Y1803980D1*
X1004810Y1811143D1*
Y1815454D1*
X1003350Y1822616D1*
X1000498Y1826927D1*
X996187Y1828353D1*
X993336D1*
X1003350Y1822616D2*
X986139Y1803980D1*
X1015532Y1821191D2*
Y1822616D1*
X1016958Y1825502D1*
X1018384Y1826927D1*
X1021269Y1828353D1*
X1027006D1*
X1029858Y1826927D1*
X1031284Y1825502D1*
X1032743Y1822616D1*
Y1819765D1*
X1031284Y1816879D1*
X1028432Y1812602D1*
X1014073Y1798243D1*
X1034169D1*
X1328831Y1828387D2*
X1340305Y1798243D1*
X1351779Y1828387D1*
X1369664D2*
X1366779Y1826961D1*
X1363927Y1824076D1*
X1362468Y1821224D1*
X1361042Y1816913D1*
Y1809717D1*
X1362468Y1805439D1*
X1363927Y1802554D1*
X1366779Y1799702D1*
X1369664Y1798243D1*
X1375401D1*
X1378253Y1799702D1*
X1381138Y1802554D1*
X1382564Y1805439D1*
X1383990Y1809717D1*
Y1816913D1*
X1382564Y1821224D1*
X1381138Y1824076D1*
X1378253Y1826961D1*
X1375401Y1828387D1*
X1369664D1*
X1393254Y1822616D2*
X1396139Y1824076D1*
X1400450Y1828353D1*
Y1798243D1*
X1418336Y1828353D2*
X1414025Y1826927D1*
X1411139Y1822616D1*
X1409714Y1815454D1*
Y1811143D1*
X1411139Y1803980D1*
X1414025Y1799669D1*
X1418336Y1798243D1*
X1421187D1*
X1425498Y1799669D1*
X1428350Y1803980D1*
X1429810Y1811143D1*
Y1815454D1*
X1428350Y1822616D1*
X1425498Y1826927D1*
X1421187Y1828353D1*
X1418336D1*
X1428350Y1822616D2*
X1411139Y1803980D1*
X1441958Y1828353D2*
X1457710D1*
X1449121Y1816879D1*
X1453432D1*
X1456284Y1815454D1*
X1457710Y1814028D1*
X1459169Y1809717D1*
Y1806865D1*
X1457710Y1802554D1*
X1454858Y1799669D1*
X1450547Y1798243D1*
X1446236D1*
X1441958Y1799669D1*
X1440532Y1801128D1*
X1439073Y1803980D1*
X1753118Y1828387D2*
X1764592Y1798243D1*
X1776066Y1828387D1*
X1793951D2*
X1791066Y1826961D1*
X1788214Y1824076D1*
X1786755Y1821224D1*
X1785329Y1816913D1*
Y1809717D1*
X1786755Y1805439D1*
X1788214Y1802554D1*
X1791066Y1799702D1*
X1793951Y1798243D1*
X1799688D1*
X1802540Y1799702D1*
X1805425Y1802554D1*
X1806851Y1805439D1*
X1808277Y1809717D1*
Y1816913D1*
X1806851Y1821224D1*
X1805425Y1824076D1*
X1802540Y1826961D1*
X1799688Y1828387D1*
X1793951D1*
X1817541Y1822616D2*
X1820426Y1824076D1*
X1824737Y1828353D1*
Y1798243D1*
X1842623Y1828353D2*
X1838312Y1826927D1*
X1835426Y1822616D1*
X1834001Y1815454D1*
Y1811143D1*
X1835426Y1803980D1*
X1838312Y1799669D1*
X1842623Y1798243D1*
X1845474D1*
X1849786Y1799669D1*
X1852637Y1803980D1*
X1854097Y1811143D1*
Y1815454D1*
X1852637Y1822616D1*
X1849786Y1826927D1*
X1845474Y1828353D1*
X1842623D1*
X1852637Y1822616D2*
X1835426Y1803980D1*
X1877719Y1798243D2*
Y1828353D1*
X1863360Y1808291D1*
X1884882D1*
X3066753Y867773D2*
D123*
X3076370Y872526D1*
X3085876Y882143D1*
X3090740Y891649D1*
X3095493Y906020D1*
Y930007D1*
X3090740Y944266D1*
X3085876Y953883D1*
X3076370Y963389D1*
X3066753Y968253D1*
X3047630D1*
X3038123Y963389D1*
X3028506Y953883D1*
X3023753Y944266D1*
X3019000Y930007D1*
Y906020D1*
X3023753Y891650D1*
X3028506Y882143D1*
X3038123Y872526D1*
X3047629Y867773D1*
X3066753D1*
X3647741Y967802D2*
X3638124Y963049D1*
X3628617Y953432D1*
X3623754Y943925D1*
X3619000Y929555D1*
Y905568D1*
X3623754Y891309D1*
X3628617Y881692D1*
X3638124Y872185D1*
X3647741Y867322D1*
X3666864D1*
X3676370Y872185D1*
X3685987Y881692D1*
X3690740Y891309D1*
X3695493Y905568D1*
Y929555D1*
X3690740Y943925D1*
X3685987Y953432D1*
X3676370Y963049D1*
X3666864Y967802D1*
X3647741D1*
X4247741Y955302D2*
X4238124Y950549D1*
X4228617Y940932D1*
X4223754Y931425D1*
X4219000Y917055D1*
Y893068D1*
X4223754Y878809D1*
X4228617Y869192D1*
X4238124Y859685D1*
X4247741Y854822D1*
X4266864D1*
X4276370Y859685D1*
X4285987Y869192D1*
X4290740Y878809D1*
X4295493Y893068D1*
Y917055D1*
X4290740Y931425D1*
X4285987Y940932D1*
X4276370Y950549D1*
X4266864Y955302D1*
X4247741D1*
X4030460Y3380302D2*
X4020843Y3375549D1*
X4011337Y3365932D1*
X4006473Y3356425D1*
X4001720Y3342055D1*
Y3318068D1*
X4006473Y3303809D1*
X4011337Y3294192D1*
X4020843Y3284685D1*
X4030460Y3279822D1*
X4049583D1*
X4059089Y3284685D1*
X4068706Y3294192D1*
X4073459Y3303809D1*
X4078213Y3318068D1*
Y3342055D1*
X4073459Y3356425D1*
X4068706Y3365932D1*
X4059089Y3375549D1*
X4049583Y3380302D1*
X4030460D1*
X656500Y948568D2*
X666117Y953432D1*
X680487Y967691D1*
Y867322D1*
X1048864Y931315D2*
Y936068D1*
X1053617Y945685D1*
X1058371Y950438D1*
X1067987Y955191D1*
X1087111D1*
X1096617Y950438D1*
X1101370Y945685D1*
X1106234Y936068D1*
Y926562D1*
X1101370Y916945D1*
X1091864Y902685D1*
X1044000Y854822D1*
X1110987D1*
X1466117Y942691D2*
X1518623D1*
X1489994Y904445D1*
X1504364D1*
X1513870Y899692D1*
X1518623Y894938D1*
X1523487Y880568D1*
Y871062D1*
X1518623Y856692D1*
X1509117Y847075D1*
X1494747Y842322D1*
X1480377D1*
X1466117Y847075D1*
X1461364Y851939D1*
X1456500Y861445D1*
X1929364Y854822D2*
Y955191D1*
X1881500Y888315D1*
X1953240D1*
X581500Y3265185D2*
X624611D1*
X638870Y3269938D1*
X643734Y3274802D1*
X648487Y3284308D1*
Y3298679D1*
X643734Y3308185D1*
X638870Y3313049D1*
X624611Y3317802D1*
X581500D1*
Y3217322D1*
X2198864Y943815D2*
Y948568D1*
X2203617Y958185D1*
X2208371Y962938D1*
X2217987Y967691D1*
X2237111D1*
X2246617Y962938D1*
X2251370Y958185D1*
X2256234Y948568D1*
Y939062D1*
X2251370Y929445D1*
X2241864Y915185D1*
X2194000Y867322D1*
X2260987D1*
X2296729Y943815D2*
Y948568D1*
X2301483Y958185D1*
X2306236Y962938D1*
X2315853Y967691D1*
X2334976D1*
X2344482Y962938D1*
X2349235Y958185D1*
X2354099Y948568D1*
Y939062D1*
X2349235Y929445D1*
X2339729Y915185D1*
X2291866Y867322D1*
X2358852D1*
X2418471Y967691D2*
X2404101Y962938D1*
X2394484Y948568D1*
X2389731Y924692D1*
Y910321D1*
X2394484Y886445D1*
X2404101Y872075D1*
X2418471Y867322D1*
X2427977D1*
X2442347Y872075D1*
X2451854Y886445D1*
X2456717Y910321D1*
Y924692D1*
X2451854Y948568D1*
X2442347Y962938D1*
X2427977Y967691D1*
X2418471D1*
X2451854Y948568D2*
X2394484Y886445D1*
X2487596Y967802D2*
X2525842Y867322D1*
X2564089Y967802D1*
M02*
