%TF.GenerationSoftware,Novarm,DipTrace,3.3.1.2*%
%TF.CreationDate,2019-02-23T16:05:06+02:00*%
%FSLAX26Y26*%
%MOIN*%
%TF.FileFunction,Legend,Top*%
%TF.Part,Single*%
%ADD10C,0.009843*%
%ADD20C,0.001312*%
%ADD21C,0.01*%
%ADD27C,0.015762*%
%ADD30C,0.015746*%
%ADD37C,0.015422*%
%ADD41C,0.019685*%
%ADD45C,0.015404*%
%ADD96C,0.004632*%
%ADD97C,0.015439*%
G75*
G01*
%LPD*%
X587665Y1669487D2*
D10*
X524735D1*
X587665Y1662039D2*
X524735D1*
X587665D2*
Y1685598D1*
X524735Y1662039D2*
Y1685598D1*
X687665Y1669487D2*
X624735D1*
X687665Y1662039D2*
X624735D1*
X687665D2*
Y1685598D1*
X624735Y1662039D2*
Y1685598D1*
X937665Y1669487D2*
X874735D1*
X937665Y1662039D2*
X874735D1*
X937665D2*
Y1685598D1*
X874735Y1662039D2*
Y1685598D1*
X1050165Y1669487D2*
X987235D1*
X1050165Y1662039D2*
X987235D1*
X1050165D2*
Y1685598D1*
X987235Y1662039D2*
Y1685598D1*
X1375165Y1669487D2*
X1312235D1*
X1375165Y1662039D2*
X1312235D1*
X1375165D2*
Y1685598D1*
X1312235Y1662039D2*
Y1685598D1*
X1487665Y1669487D2*
X1424735D1*
X1487665Y1662039D2*
X1424735D1*
X1487665D2*
Y1685598D1*
X1424735Y1662039D2*
Y1685598D1*
X1762665Y1669487D2*
X1699735D1*
X1762665Y1662039D2*
X1699735D1*
X1762665D2*
Y1685598D1*
X1699735Y1662039D2*
Y1685598D1*
X1875165Y1669487D2*
X1812235D1*
X1875165Y1662039D2*
X1812235D1*
X1875165D2*
Y1685598D1*
X1812235Y1662039D2*
Y1685598D1*
X3481771Y3177340D2*
X3430629D1*
X2844271D2*
X2793129D1*
X502340Y2893129D2*
Y2944271D1*
Y3018129D2*
Y3069271D1*
X2950165Y2431987D2*
X2887235D1*
X2950165Y2424539D2*
X2887235D1*
X2950165D2*
Y2448098D1*
X2887235Y2424539D2*
Y2448098D1*
X817913Y3050165D2*
Y2987235D1*
X825361Y3050165D2*
Y2987235D1*
Y3050165D2*
X801802D1*
X825361Y2987235D2*
X801802D1*
X612197Y883270D2*
X564964D1*
X612197Y954132D2*
X564964D1*
D27*
X685031Y918701D3*
X2899697Y2158270D2*
D10*
X2852464D1*
X2899697Y2229132D2*
X2852464D1*
D27*
X2972531Y2193701D3*
X2577952Y2064665D2*
D10*
X2609448D1*
X535235Y1815452D2*
Y1846948D1*
X949697Y883270D2*
X902464D1*
X949697Y954132D2*
X902464D1*
D27*
X1022531Y918701D3*
X3512197Y2158270D2*
D10*
X3464964D1*
X3512197Y2229132D2*
X3464964D1*
D27*
X3585031Y2193701D3*
X3165452Y1914665D2*
D10*
X3196948D1*
X860235Y1815452D2*
Y1846948D1*
X1287703Y954130D2*
X1334936D1*
X1287703Y883268D2*
X1334936D1*
D27*
X1214869Y918699D3*
X3879130Y2184933D2*
D10*
Y2137701D1*
X3808268Y2184933D2*
Y2137701D1*
D30*
X3843699Y2257768D3*
X3790452Y1889665D2*
D10*
X3821948D1*
X1310235Y1815452D2*
Y1846948D1*
X1675203Y954130D2*
X1722436D1*
X1675203Y883268D2*
X1722436D1*
D27*
X1602369Y918699D3*
X3808270Y2387703D2*
D10*
Y2434936D1*
X3879132Y2387703D2*
Y2434936D1*
D30*
X3843701Y2314869D3*
X1697735Y1815452D2*
D10*
Y1846948D1*
X3834448Y2760235D2*
X3802952D1*
X495770Y3225203D2*
Y3272436D1*
X566632Y3225203D2*
Y3272436D1*
D30*
X531201Y3152369D3*
X608270Y3225203D2*
D10*
Y3272436D1*
X679132Y3225203D2*
Y3272436D1*
D30*
X643701Y3152369D3*
X904130Y3249697D2*
D10*
Y3202464D1*
X833268Y3249697D2*
Y3202464D1*
D30*
X868699Y3322531D3*
X791630Y3249697D2*
D10*
Y3202464D1*
X720768Y3249697D2*
Y3202464D1*
D30*
X756199Y3322531D3*
X527952Y2839665D2*
D10*
X559448D1*
X696357Y2680413D2*
X2316043D1*
Y2581987D1*
X696357D1*
Y2680413D1*
Y2080413D2*
X2316043D1*
Y1981987D1*
X696357D1*
Y2080413D1*
X468503Y3385826D2*
X1082676D1*
Y3740157D1*
X468503D1*
Y3385826D1*
G36*
X574939Y3420550D2*
X606385D1*
Y3389050D1*
X574939D1*
Y3420550D1*
G37*
G36*
X771659D2*
X803105D1*
Y3389050D1*
X771659D1*
Y3420550D1*
G37*
G36*
X968440D2*
X999824D1*
Y3389050D1*
X968440D1*
Y3420550D1*
G37*
X1059054Y3385826D2*
D10*
X1673228D1*
Y3740157D1*
X1059054D1*
Y3385826D1*
G36*
X1165491Y3420550D2*
X1196936D1*
Y3389050D1*
X1165491D1*
Y3420550D1*
G37*
G36*
X1362210D2*
X1393656D1*
Y3389050D1*
X1362210D1*
Y3420550D1*
G37*
G36*
X1558991D2*
X1590376D1*
Y3389050D1*
X1558991D1*
Y3420550D1*
G37*
X1649606Y3385826D2*
D10*
X2263779D1*
Y3740157D1*
X1649606D1*
Y3385826D1*
G36*
X1756042Y3420550D2*
X1787487D1*
Y3389050D1*
X1756042D1*
Y3420550D1*
G37*
G36*
X1952761D2*
X1984207D1*
Y3389050D1*
X1952761D1*
Y3420550D1*
G37*
G36*
X2149543D2*
X2180927D1*
Y3389050D1*
X2149543D1*
Y3420550D1*
G37*
X2543306Y3385826D2*
D10*
X3157480D1*
Y3740157D1*
X2543306D1*
Y3385826D1*
G36*
X2649743Y3420550D2*
X2681188D1*
Y3389050D1*
X2649743D1*
Y3420550D1*
G37*
G36*
X2846462D2*
X2877908D1*
Y3389050D1*
X2846462D1*
Y3420550D1*
G37*
G36*
X3043243D2*
X3074628D1*
Y3389050D1*
X3043243D1*
Y3420550D1*
G37*
X3133857Y3385826D2*
D10*
X3748031D1*
Y3740157D1*
X3133857D1*
Y3385826D1*
G36*
X3240294Y3420550D2*
X3271739D1*
Y3389050D1*
X3240294D1*
Y3420550D1*
G37*
G36*
X3437013D2*
X3468459D1*
Y3389050D1*
X3437013D1*
Y3420550D1*
G37*
G36*
X3633794D2*
X3665179D1*
Y3389050D1*
X3633794D1*
Y3420550D1*
G37*
X3724409Y3385826D2*
D10*
X4338582D1*
Y3740157D1*
X3724409D1*
Y3385826D1*
G36*
X3830845Y3420550D2*
X3862291D1*
Y3389050D1*
X3830845D1*
Y3420550D1*
G37*
G36*
X4027565D2*
X4059010D1*
Y3389050D1*
X4027565D1*
Y3420550D1*
G37*
G36*
X4224346D2*
X4255730D1*
Y3389050D1*
X4224346D1*
Y3420550D1*
G37*
X1106298Y818897D2*
D10*
X492125D1*
Y464566D1*
X1106298D1*
Y818897D1*
G36*
X999862Y784172D2*
X968417D1*
Y815672D1*
X999862D1*
Y784172D1*
G37*
G36*
X803143D2*
X771697D1*
Y815672D1*
X803143D1*
Y784172D1*
G37*
G36*
X606361D2*
X574977D1*
Y815672D1*
X606361D1*
Y784172D1*
G37*
X1696850Y818897D2*
D10*
X1082676D1*
Y464566D1*
X1696850D1*
Y818897D1*
G36*
X1590413Y784172D2*
X1558968D1*
Y815672D1*
X1590413D1*
Y784172D1*
G37*
G36*
X1393694D2*
X1362248D1*
Y815672D1*
X1393694D1*
Y784172D1*
G37*
G36*
X1196913D2*
X1165528D1*
Y815672D1*
X1196913D1*
Y784172D1*
G37*
X2287401Y818897D2*
D10*
X1673228D1*
Y464566D1*
X2287401D1*
Y818897D1*
G36*
X2180965Y784172D2*
X2149519D1*
Y815672D1*
X2180965D1*
Y784172D1*
G37*
G36*
X1984245D2*
X1952799D1*
Y815672D1*
X1984245D1*
Y784172D1*
G37*
G36*
X1787464D2*
X1756080D1*
Y815672D1*
X1787464D1*
Y784172D1*
G37*
X3181102Y818897D2*
D10*
X2566928D1*
Y464566D1*
X3181102D1*
Y818897D1*
G36*
X3074665Y784172D2*
X3043220D1*
Y815672D1*
X3074665D1*
Y784172D1*
G37*
G36*
X2877946D2*
X2846500D1*
Y815672D1*
X2877946D1*
Y784172D1*
G37*
G36*
X2681165D2*
X2649780D1*
Y815672D1*
X2681165D1*
Y784172D1*
G37*
X3771653Y818897D2*
D10*
X3157480D1*
Y464566D1*
X3771653D1*
Y818897D1*
G36*
X3665217Y784172D2*
X3633771D1*
Y815672D1*
X3665217D1*
Y784172D1*
G37*
G36*
X3468497D2*
X3437051D1*
Y815672D1*
X3468497D1*
Y784172D1*
G37*
G36*
X3271716D2*
X3240331D1*
Y815672D1*
X3271716D1*
Y784172D1*
G37*
X4362204Y818897D2*
D10*
X3748031D1*
Y464566D1*
X4362204D1*
Y818897D1*
G36*
X4255768Y784172D2*
X4224322D1*
Y815672D1*
X4255768D1*
Y784172D1*
G37*
G36*
X4059048D2*
X4027602D1*
Y815672D1*
X4059048D1*
Y784172D1*
G37*
G36*
X3862267D2*
X3830883D1*
Y815672D1*
X3862267D1*
Y784172D1*
G37*
X2686318Y2102066D2*
D10*
X3076082D1*
X2999298Y987893D2*
X2686318D1*
Y1237913D2*
Y1952098D1*
X3076082Y1252063D2*
Y1087946D1*
Y2002013D2*
Y1337855D1*
X2686318Y987893D2*
Y1102096D1*
X3298818Y2102066D2*
X3688582D1*
X3611798Y987893D2*
X3298818D1*
Y1237913D2*
Y1952098D1*
X3688582Y1252063D2*
Y1087946D1*
Y2002013D2*
Y1337855D1*
X3298818Y987893D2*
Y1102096D1*
X3923818Y2089566D2*
X4313582D1*
X4236798Y975393D2*
X3923818D1*
Y1225413D2*
Y1939598D1*
X4313582Y1239563D2*
Y1075446D1*
Y1989513D2*
Y1325355D1*
X3923818Y975393D2*
Y1089596D1*
X4313582Y2147834D2*
X3923818D1*
X4000602Y3262007D2*
X4313582D1*
Y3011987D2*
Y2297802D1*
X3923818Y2997837D2*
Y3161954D1*
Y2247887D2*
Y2912045D1*
X4313582Y3262007D2*
Y3147804D1*
D37*
X2003991Y2437049D3*
X2054133Y2427848D2*
D10*
Y2309743D1*
X2073818D1*
Y2427848D1*
X2054133D1*
D37*
X1803991Y2437049D3*
X1854133Y2427848D2*
D10*
Y2309743D1*
X1873818D1*
Y2427848D1*
X1854133D1*
D37*
X1591491Y2437049D3*
X1641633Y2427848D2*
D10*
Y2309743D1*
X1661318D1*
Y2427848D1*
X1641633D1*
D37*
X1366491Y2437049D3*
X1416633Y2427848D2*
D10*
Y2309743D1*
X1436318D1*
Y2427848D1*
X1416633D1*
X612861Y1062665D2*
X589302D1*
X612861Y999735D2*
X589302D1*
X800165Y962039D2*
Y985598D1*
X737235Y962039D2*
Y985598D1*
X950361Y1062665D2*
X926802D1*
X950361Y999735D2*
X926802D1*
X1137665Y974539D2*
Y998098D1*
X1074735Y974539D2*
Y998098D1*
X1287039Y999735D2*
X1310598D1*
X1287039Y1062665D2*
X1310598D1*
X1512665Y974539D2*
Y998098D1*
X1449735Y974539D2*
Y998098D1*
X1674539Y999735D2*
X1698098D1*
X1674539Y1062665D2*
X1698098D1*
X1912665Y974539D2*
Y998098D1*
X1849735Y974539D2*
Y998098D1*
X1284940Y2817322D2*
D21*
X950305D1*
Y3274015D1*
X1284940D1*
Y2817322D1*
X1316210Y2909186D2*
D41*
G02X1316210Y2909186I10792J0D01*
G01*
X3336311Y3129627D2*
D10*
Y2932773D1*
X3438687Y3129627D2*
Y2932773D1*
X3336311D2*
X3438687D1*
X3367805Y3129627D2*
X3336311D1*
X3407194D2*
X3438687D1*
X3367805D2*
G03X3407194Y3129627I19694J9D01*
G01*
X1757773Y2948811D2*
X1954627D1*
X1757773Y3051187D2*
X1954627D1*
Y2948811D2*
Y3051187D1*
X1757773Y2980305D2*
Y2948811D1*
Y3019694D2*
Y3051187D1*
Y2980305D2*
G03X1757773Y3019694I-9J19694D01*
G01*
X1432773Y2948811D2*
X1629627D1*
X1432773Y3051187D2*
X1629627D1*
Y2948811D2*
Y3051187D1*
X1432773Y2980305D2*
Y2948811D1*
Y3019694D2*
Y3051187D1*
Y2980305D2*
G03X1432773Y3019694I-9J19694D01*
G01*
D45*
X1812049Y3320909D3*
X1802848Y3270767D2*
D10*
X1684743D1*
Y3251082D1*
X1802848D1*
Y3270767D1*
D45*
X1487049Y3320909D3*
X1477848Y3270767D2*
D10*
X1359743D1*
Y3251082D1*
X1477848D1*
Y3270767D1*
X3257773Y2611311D2*
X3454627D1*
X3257773Y2713687D2*
X3454627D1*
Y2611311D2*
Y2713687D1*
X3257773Y2642805D2*
Y2611311D1*
Y2682194D2*
Y2713687D1*
Y2642805D2*
G03X3257773Y2682194I-9J19694D01*
G01*
X696751Y1217239D2*
Y1429807D1*
X515649Y1217239D2*
X696751D1*
Y1429807D2*
X515649D1*
Y1217239D2*
Y1299890D1*
Y1429807D2*
Y1347156D1*
Y1299890D2*
G03X515649Y1347156I1J23633D01*
G01*
X1046751Y1217239D2*
Y1429807D1*
X865649Y1217239D2*
X1046751D1*
Y1429807D2*
X865649D1*
Y1217239D2*
Y1299890D1*
Y1429807D2*
Y1347156D1*
Y1299890D2*
G03X865649Y1347156I1J23633D01*
G01*
X1484251Y1217239D2*
Y1429807D1*
X1303149Y1217239D2*
X1484251D1*
Y1429807D2*
X1303149D1*
Y1217239D2*
Y1299890D1*
Y1429807D2*
Y1347156D1*
Y1299890D2*
G03X1303149Y1347156I1J23633D01*
G01*
X1871751Y1217239D2*
Y1429807D1*
X1690649Y1217239D2*
X1871751D1*
Y1429807D2*
X1690649D1*
Y1217239D2*
Y1299890D1*
Y1429807D2*
Y1347156D1*
Y1299890D2*
G03X1690649Y1347156I1J23633D01*
G01*
G36*
X2618700Y968700D2*
X2718700D1*
X2668700Y881200D1*
X2618700Y968700D1*
G37*
G36*
X3206200D2*
X3306200D1*
X3256200Y868700D1*
X3206200Y968700D1*
G37*
G36*
X3781200D2*
X3906200D1*
X3843700Y868700D1*
X3781200Y968700D1*
G37*
G36*
X4181200Y3206200D2*
X4293700D1*
X4243700Y3331200D1*
Y3368700D1*
X4181200Y3206200D1*
G37*
X881200Y806200D2*
D20*
Y393700D1*
X1281200Y818700D2*
Y393700D1*
X1681200Y818700D2*
Y393700D1*
X2068700Y818700D2*
Y393700D1*
X693700Y2706200D2*
D21*
X2206200D1*
Y1943700D1*
X693700D1*
Y2706200D1*
X3112244Y3267196D2*
D96*
X3109392Y3265770D1*
X3106507Y3262885D1*
X3105081Y3260033D1*
Y3254296D1*
X3106507Y3251411D1*
X3109392Y3248559D1*
X3112244Y3247100D1*
X3116555Y3245674D1*
X3123751D1*
X3128029Y3247100D1*
X3130914Y3248559D1*
X3133766Y3251411D1*
X3135225Y3254296D1*
Y3260033D1*
X3133766Y3262885D1*
X3130914Y3265770D1*
X3128029Y3267196D1*
X3110851Y3276459D2*
X3109392Y3279344D1*
X3105114Y3283655D1*
X3135225D1*
X483996Y1653440D2*
X481144Y1652014D1*
X478259Y1649129D1*
X476833Y1646277D1*
Y1640540D1*
X478259Y1637655D1*
X481144Y1634803D1*
X483996Y1633344D1*
X488307Y1631918D1*
X495503D1*
X499781Y1633344D1*
X502666Y1634803D1*
X505518Y1637655D1*
X506977Y1640540D1*
Y1646277D1*
X505518Y1649129D1*
X502666Y1652014D1*
X499781Y1653440D1*
X482603Y1662703D2*
X481144Y1665588D1*
X476866Y1669899D1*
X506977D1*
X476866Y1687785D2*
X478292Y1683474D1*
X482603Y1680589D1*
X489766Y1679163D1*
X494077D1*
X501240Y1680589D1*
X505551Y1683474D1*
X506977Y1687785D1*
Y1690637D1*
X505551Y1694948D1*
X501240Y1697800D1*
X494077Y1699259D1*
X489766D1*
X482603Y1697800D1*
X478292Y1694948D1*
X476866Y1690637D1*
Y1687785D1*
X482603Y1697800D2*
X501240Y1680589D1*
X482603Y1708522D2*
X481144Y1711408D1*
X476866Y1715719D1*
X506977D1*
X583996Y1646990D2*
X581144Y1645564D1*
X578259Y1642679D1*
X576833Y1639827D1*
Y1634090D1*
X578259Y1631205D1*
X581144Y1628353D1*
X583996Y1626894D1*
X588307Y1625468D1*
X595503D1*
X599781Y1626894D1*
X602666Y1628353D1*
X605518Y1631205D1*
X606977Y1634090D1*
Y1639827D1*
X605518Y1642679D1*
X602666Y1645564D1*
X599781Y1646990D1*
X582603Y1656253D2*
X581144Y1659138D1*
X576866Y1663449D1*
X606977D1*
X576866Y1681335D2*
X578292Y1677024D1*
X582603Y1674139D1*
X589766Y1672713D1*
X594077D1*
X601240Y1674139D1*
X605551Y1677024D1*
X606977Y1681335D1*
Y1684187D1*
X605551Y1688498D1*
X601240Y1691350D1*
X594077Y1692809D1*
X589766D1*
X582603Y1691350D1*
X578292Y1688498D1*
X576866Y1684187D1*
Y1681335D1*
X582603Y1691350D2*
X601240Y1674139D1*
X584029Y1703532D2*
X582603D1*
X579718Y1704958D1*
X578292Y1706384D1*
X576866Y1709269D1*
Y1715006D1*
X578292Y1717857D1*
X579718Y1719283D1*
X582603Y1720743D1*
X585455D1*
X588340Y1719283D1*
X592618Y1716431D1*
X606977Y1702072D1*
Y1722168D1*
X833996Y1646990D2*
X831144Y1645564D1*
X828259Y1642679D1*
X826833Y1639827D1*
Y1634090D1*
X828259Y1631205D1*
X831144Y1628353D1*
X833996Y1626894D1*
X838307Y1625468D1*
X845503D1*
X849781Y1626894D1*
X852666Y1628353D1*
X855518Y1631205D1*
X856977Y1634090D1*
Y1639827D1*
X855518Y1642679D1*
X852666Y1645564D1*
X849781Y1646990D1*
X832603Y1656253D2*
X831144Y1659138D1*
X826866Y1663449D1*
X856977D1*
X826866Y1681335D2*
X828292Y1677024D1*
X832603Y1674139D1*
X839766Y1672713D1*
X844077D1*
X851240Y1674139D1*
X855551Y1677024D1*
X856977Y1681335D1*
Y1684187D1*
X855551Y1688498D1*
X851240Y1691350D1*
X844077Y1692809D1*
X839766D1*
X832603Y1691350D1*
X828292Y1688498D1*
X826866Y1684187D1*
Y1681335D1*
X832603Y1691350D2*
X851240Y1674139D1*
X826866Y1704958D2*
Y1720709D1*
X838340Y1712120D1*
Y1716431D1*
X839766Y1719283D1*
X841192Y1720709D1*
X845503Y1722168D1*
X848355D1*
X852666Y1720709D1*
X855551Y1717857D1*
X856977Y1713546D1*
Y1709235D1*
X855551Y1704958D1*
X854092Y1703532D1*
X851240Y1702072D1*
X946496Y1646277D2*
X943644Y1644851D1*
X940759Y1641966D1*
X939333Y1639114D1*
Y1633377D1*
X940759Y1630492D1*
X943644Y1627640D1*
X946496Y1626181D1*
X950807Y1624755D1*
X958003D1*
X962281Y1626181D1*
X965166Y1627640D1*
X968018Y1630492D1*
X969477Y1633377D1*
Y1639114D1*
X968018Y1641966D1*
X965166Y1644851D1*
X962281Y1646277D1*
X945103Y1655540D2*
X943644Y1658425D1*
X939366Y1662736D1*
X969477D1*
X939366Y1680622D2*
X940792Y1676311D1*
X945103Y1673426D1*
X952266Y1672000D1*
X956577D1*
X963740Y1673426D1*
X968051Y1676311D1*
X969477Y1680622D1*
Y1683474D1*
X968051Y1687785D1*
X963740Y1690637D1*
X956577Y1692096D1*
X952266D1*
X945103Y1690637D1*
X940792Y1687785D1*
X939366Y1683474D1*
Y1680622D1*
X945103Y1690637D2*
X963740Y1673426D1*
X969477Y1715719D2*
X939366D1*
X959429Y1701359D1*
Y1722881D1*
X1271496Y1646990D2*
X1268644Y1645564D1*
X1265759Y1642679D1*
X1264333Y1639827D1*
Y1634090D1*
X1265759Y1631205D1*
X1268644Y1628353D1*
X1271496Y1626894D1*
X1275807Y1625468D1*
X1283003D1*
X1287281Y1626894D1*
X1290166Y1628353D1*
X1293018Y1631205D1*
X1294477Y1634090D1*
Y1639827D1*
X1293018Y1642679D1*
X1290166Y1645564D1*
X1287281Y1646990D1*
X1270103Y1656253D2*
X1268644Y1659138D1*
X1264366Y1663449D1*
X1294477D1*
X1264366Y1681335D2*
X1265792Y1677024D1*
X1270103Y1674139D1*
X1277266Y1672713D1*
X1281577D1*
X1288740Y1674139D1*
X1293051Y1677024D1*
X1294477Y1681335D1*
Y1684187D1*
X1293051Y1688498D1*
X1288740Y1691350D1*
X1281577Y1692809D1*
X1277266D1*
X1270103Y1691350D1*
X1265792Y1688498D1*
X1264366Y1684187D1*
Y1681335D1*
X1270103Y1691350D2*
X1288740Y1674139D1*
X1264366Y1719283D2*
Y1704958D1*
X1277266Y1703532D1*
X1275840Y1704958D1*
X1274381Y1709269D1*
Y1713546D1*
X1275840Y1717857D1*
X1278692Y1720743D1*
X1283003Y1722168D1*
X1285855D1*
X1290166Y1720743D1*
X1293051Y1717857D1*
X1294477Y1713546D1*
Y1709269D1*
X1293051Y1704958D1*
X1291592Y1703532D1*
X1288740Y1702072D1*
X1383996Y1647719D2*
X1381144Y1646293D1*
X1378259Y1643408D1*
X1376833Y1640556D1*
Y1634819D1*
X1378259Y1631934D1*
X1381144Y1629083D1*
X1383996Y1627623D1*
X1388307Y1626197D1*
X1395503D1*
X1399781Y1627623D1*
X1402666Y1629083D1*
X1405518Y1631934D1*
X1406977Y1634819D1*
Y1640556D1*
X1405518Y1643408D1*
X1402666Y1646293D1*
X1399781Y1647719D1*
X1382603Y1656983D2*
X1381144Y1659868D1*
X1376866Y1664179D1*
X1406977D1*
X1376866Y1682065D2*
X1378292Y1677754D1*
X1382603Y1674868D1*
X1389766Y1673442D1*
X1394077D1*
X1401240Y1674868D1*
X1405551Y1677753D1*
X1406977Y1682065D1*
Y1684916D1*
X1405551Y1689227D1*
X1401240Y1692079D1*
X1394077Y1693538D1*
X1389766D1*
X1382603Y1692079D1*
X1378292Y1689227D1*
X1376866Y1684916D1*
Y1682065D1*
X1382603Y1692079D2*
X1401240Y1674868D1*
X1381144Y1720013D2*
X1378292Y1718587D1*
X1376866Y1714276D1*
Y1711424D1*
X1378292Y1707113D1*
X1382603Y1704228D1*
X1389766Y1702802D1*
X1396929D1*
X1402666Y1704228D1*
X1405551Y1707113D1*
X1406977Y1711424D1*
Y1712850D1*
X1405551Y1717128D1*
X1402666Y1720013D1*
X1398355Y1721439D1*
X1396929D1*
X1392618Y1720013D1*
X1389766Y1717128D1*
X1388340Y1712850D1*
Y1711424D1*
X1389766Y1707113D1*
X1392618Y1704228D1*
X1396929Y1702802D1*
X1658996Y1646990D2*
X1656144Y1645564D1*
X1653259Y1642679D1*
X1651833Y1639827D1*
Y1634090D1*
X1653259Y1631205D1*
X1656144Y1628353D1*
X1658996Y1626894D1*
X1663307Y1625468D1*
X1670503D1*
X1674781Y1626894D1*
X1677666Y1628353D1*
X1680518Y1631205D1*
X1681977Y1634090D1*
Y1639827D1*
X1680518Y1642679D1*
X1677666Y1645564D1*
X1674781Y1646990D1*
X1657603Y1656253D2*
X1656144Y1659138D1*
X1651866Y1663449D1*
X1681977D1*
X1651866Y1681335D2*
X1653292Y1677024D1*
X1657603Y1674139D1*
X1664766Y1672713D1*
X1669077D1*
X1676240Y1674139D1*
X1680551Y1677024D1*
X1681977Y1681335D1*
Y1684187D1*
X1680551Y1688498D1*
X1676240Y1691350D1*
X1669077Y1692809D1*
X1664766D1*
X1657603Y1691350D1*
X1653292Y1688498D1*
X1651866Y1684187D1*
Y1681335D1*
X1657603Y1691350D2*
X1676240Y1674139D1*
X1681977Y1707809D2*
X1651866Y1722168D1*
Y1702072D1*
X1771496Y1647006D2*
X1768644Y1645580D1*
X1765759Y1642695D1*
X1764333Y1639843D1*
Y1634107D1*
X1765759Y1631221D1*
X1768644Y1628370D1*
X1771496Y1626910D1*
X1775807Y1625484D1*
X1783003D1*
X1787281Y1626910D1*
X1790166Y1628370D1*
X1793018Y1631221D1*
X1794477Y1634106D1*
Y1639843D1*
X1793018Y1642695D1*
X1790166Y1645580D1*
X1787281Y1647006D1*
X1770103Y1656270D2*
X1768644Y1659155D1*
X1764366Y1663466D1*
X1794477D1*
X1764366Y1681352D2*
X1765792Y1677041D1*
X1770103Y1674155D1*
X1777266Y1672730D1*
X1781577D1*
X1788740Y1674155D1*
X1793051Y1677041D1*
X1794477Y1681352D1*
Y1684203D1*
X1793051Y1688514D1*
X1788740Y1691366D1*
X1781577Y1692826D1*
X1777266D1*
X1770103Y1691366D1*
X1765792Y1688515D1*
X1764366Y1684203D1*
Y1681352D1*
X1770103Y1691366D2*
X1788740Y1674155D1*
X1764366Y1709252D2*
X1765792Y1704974D1*
X1768644Y1703515D1*
X1771529D1*
X1774381Y1704974D1*
X1775840Y1707826D1*
X1777266Y1713563D1*
X1778692Y1717874D1*
X1781577Y1720726D1*
X1784429Y1722152D1*
X1788740D1*
X1791592Y1720726D1*
X1793051Y1719300D1*
X1794477Y1714989D1*
Y1709252D1*
X1793051Y1704974D1*
X1791592Y1703515D1*
X1788740Y1702089D1*
X1784429D1*
X1781577Y1703515D1*
X1778692Y1706400D1*
X1777266Y1710678D1*
X1775840Y1716415D1*
X1774381Y1719300D1*
X1771529Y1720726D1*
X1768644D1*
X1765792Y1719300D1*
X1764366Y1714989D1*
Y1709252D1*
X3389902Y3221389D2*
X3387050Y3219963D1*
X3384165Y3217078D1*
X3382739Y3214226D1*
Y3208489D1*
X3384165Y3205604D1*
X3387050Y3202752D1*
X3389902Y3201293D1*
X3394213Y3199867D1*
X3401409D1*
X3405687Y3201293D1*
X3408572Y3202752D1*
X3411424Y3205604D1*
X3412883Y3208489D1*
Y3214226D1*
X3411424Y3217078D1*
X3408572Y3219963D1*
X3405687Y3221389D1*
X3389935Y3232111D2*
X3388509D1*
X3385624Y3233537D1*
X3384198Y3234963D1*
X3382772Y3237848D1*
Y3243585D1*
X3384198Y3246437D1*
X3385624Y3247863D1*
X3388509Y3249322D1*
X3391361D1*
X3394246Y3247863D1*
X3398524Y3245011D1*
X3412883Y3230652D1*
Y3250748D1*
X3382772Y3268634D2*
X3384198Y3264323D1*
X3388509Y3261438D1*
X3395672Y3260012D1*
X3399983D1*
X3407146Y3261438D1*
X3411457Y3264323D1*
X3412883Y3268634D1*
Y3271486D1*
X3411457Y3275797D1*
X3407146Y3278649D1*
X3399983Y3280108D1*
X3395672D1*
X3388509Y3278649D1*
X3384198Y3275797D1*
X3382772Y3271486D1*
Y3268634D1*
X3388509Y3278649D2*
X3407146Y3261438D1*
X3388509Y3289371D2*
X3387050Y3292256D1*
X3382772Y3296567D1*
X3412883D1*
X2752402Y3214939D2*
X2749550Y3213513D1*
X2746665Y3210628D1*
X2745239Y3207776D1*
Y3202039D1*
X2746665Y3199154D1*
X2749550Y3196302D1*
X2752402Y3194843D1*
X2756713Y3193417D1*
X2763909D1*
X2768187Y3194843D1*
X2771072Y3196302D1*
X2773924Y3199154D1*
X2775383Y3202039D1*
Y3207776D1*
X2773924Y3210628D1*
X2771072Y3213513D1*
X2768187Y3214939D1*
X2752435Y3225661D2*
X2751009D1*
X2748124Y3227087D1*
X2746698Y3228513D1*
X2745272Y3231398D1*
Y3237135D1*
X2746698Y3239987D1*
X2748124Y3241413D1*
X2751009Y3242872D1*
X2753861D1*
X2756746Y3241413D1*
X2761024Y3238561D1*
X2775383Y3224202D1*
Y3244298D1*
X2745272Y3262184D2*
X2746698Y3257873D1*
X2751009Y3254988D1*
X2758172Y3253562D1*
X2762483D1*
X2769646Y3254988D1*
X2773957Y3257873D1*
X2775383Y3262184D1*
Y3265036D1*
X2773957Y3269347D1*
X2769646Y3272199D1*
X2762483Y3273658D1*
X2758172D1*
X2751009Y3272199D1*
X2746698Y3269347D1*
X2745272Y3265036D1*
Y3262184D1*
X2751009Y3272199D2*
X2769646Y3254988D1*
X2752435Y3284380D2*
X2751009D1*
X2748124Y3285806D1*
X2746698Y3287232D1*
X2745272Y3290117D1*
Y3295854D1*
X2746698Y3298706D1*
X2748124Y3300132D1*
X2751009Y3301591D1*
X2753861D1*
X2756746Y3300132D1*
X2761024Y3297280D1*
X2775383Y3282921D1*
Y3303017D1*
X539939Y2984998D2*
X538513Y2987850D1*
X535628Y2990735D1*
X532776Y2992161D1*
X527039D1*
X524154Y2990735D1*
X521302Y2987850D1*
X519843Y2984998D1*
X518417Y2980687D1*
Y2973491D1*
X519843Y2969213D1*
X521302Y2966328D1*
X524154Y2963477D1*
X527039Y2962017D1*
X532776D1*
X535628Y2963477D1*
X538513Y2966328D1*
X539939Y2969213D1*
X550661Y2984965D2*
Y2986391D1*
X552087Y2989276D1*
X553513Y2990702D1*
X556398Y2992128D1*
X562135D1*
X564987Y2990702D1*
X566413Y2989276D1*
X567872Y2986391D1*
Y2983539D1*
X566413Y2980654D1*
X563561Y2976376D1*
X549202Y2962017D1*
X569298D1*
X587184Y2992128D2*
X582873Y2990702D1*
X579988Y2986391D1*
X578562Y2979228D1*
Y2974917D1*
X579988Y2967754D1*
X582873Y2963443D1*
X587184Y2962017D1*
X590036D1*
X594347Y2963443D1*
X597199Y2967754D1*
X598658Y2974917D1*
Y2979228D1*
X597199Y2986391D1*
X594347Y2990702D1*
X590036Y2992128D1*
X587184D1*
X597199Y2986391D2*
X579988Y2967754D1*
X610806Y2992128D2*
X626558D1*
X617969Y2980654D1*
X622280D1*
X625132Y2979228D1*
X626558Y2977802D1*
X628017Y2973491D1*
Y2970639D1*
X626558Y2966328D1*
X623706Y2963443D1*
X619395Y2962017D1*
X615084D1*
X610806Y2963443D1*
X609380Y2964902D1*
X607921Y2967754D1*
X539226Y3109998D2*
X537800Y3112850D1*
X534915Y3115735D1*
X532063Y3117161D1*
X526326D1*
X523441Y3115735D1*
X520589Y3112850D1*
X519130Y3109998D1*
X517704Y3105687D1*
Y3098491D1*
X519130Y3094213D1*
X520589Y3091328D1*
X523441Y3088477D1*
X526326Y3087017D1*
X532063D1*
X534915Y3088477D1*
X537800Y3091328D1*
X539226Y3094213D1*
X549948Y3109965D2*
Y3111391D1*
X551374Y3114276D1*
X552800Y3115702D1*
X555685Y3117128D1*
X561422D1*
X564274Y3115702D1*
X565700Y3114276D1*
X567159Y3111391D1*
Y3108539D1*
X565700Y3105654D1*
X562848Y3101376D1*
X548489Y3087017D1*
X568585D1*
X586471Y3117128D2*
X582160Y3115702D1*
X579275Y3111391D1*
X577849Y3104228D1*
Y3099917D1*
X579275Y3092754D1*
X582160Y3088443D1*
X586471Y3087017D1*
X589323D1*
X593634Y3088443D1*
X596486Y3092754D1*
X597945Y3099917D1*
Y3104228D1*
X596486Y3111391D1*
X593634Y3115702D1*
X589323Y3117128D1*
X586471D1*
X596486Y3111391D2*
X579275Y3092754D1*
X621567Y3087017D2*
Y3117128D1*
X607208Y3097065D1*
X628730D1*
X2846496Y2403040D2*
X2843644Y2401614D1*
X2840759Y2398729D1*
X2839333Y2395877D1*
Y2390140D1*
X2840759Y2387255D1*
X2843644Y2384403D1*
X2846496Y2382944D1*
X2850807Y2381518D1*
X2858003D1*
X2862281Y2382944D1*
X2865166Y2384403D1*
X2868018Y2387255D1*
X2869477Y2390140D1*
Y2395877D1*
X2868018Y2398729D1*
X2865166Y2401614D1*
X2862281Y2403040D1*
X2846529Y2413762D2*
X2845103D1*
X2842218Y2415188D1*
X2840792Y2416614D1*
X2839366Y2419499D1*
Y2425236D1*
X2840792Y2428088D1*
X2842218Y2429514D1*
X2845103Y2430973D1*
X2847955D1*
X2850840Y2429514D1*
X2855118Y2426662D1*
X2869477Y2412303D1*
Y2432399D1*
X2839366Y2450285D2*
X2840792Y2445974D1*
X2845103Y2443089D1*
X2852266Y2441663D1*
X2856577D1*
X2863740Y2443089D1*
X2868051Y2445974D1*
X2869477Y2450285D1*
Y2453137D1*
X2868051Y2457448D1*
X2863740Y2460300D1*
X2856577Y2461759D1*
X2852266D1*
X2845103Y2460300D1*
X2840792Y2457448D1*
X2839366Y2453137D1*
Y2450285D1*
X2845103Y2460300D2*
X2863740Y2443089D1*
X2839366Y2488233D2*
Y2473908D1*
X2852266Y2472482D1*
X2850840Y2473907D1*
X2849381Y2478219D1*
Y2482496D1*
X2850840Y2486807D1*
X2853692Y2489692D1*
X2858003Y2491118D1*
X2860855D1*
X2865166Y2489692D1*
X2868051Y2486807D1*
X2869477Y2482496D1*
Y2478219D1*
X2868051Y2473907D1*
X2866592Y2472482D1*
X2863740Y2471022D1*
X781033Y3090904D2*
X779607Y3093756D1*
X776722Y3096641D1*
X773870Y3098067D1*
X768133D1*
X765248Y3096641D1*
X762396Y3093756D1*
X760937Y3090904D1*
X759511Y3086593D1*
Y3079397D1*
X760937Y3075119D1*
X762396Y3072234D1*
X765248Y3069382D1*
X768133Y3067923D1*
X773870D1*
X776722Y3069382D1*
X779607Y3072234D1*
X781033Y3075119D1*
X791756Y3090871D2*
Y3092297D1*
X793182Y3095182D1*
X794608Y3096608D1*
X797493Y3098034D1*
X803230D1*
X806082Y3096608D1*
X807508Y3095182D1*
X808967Y3092297D1*
Y3089445D1*
X807508Y3086560D1*
X804656Y3082282D1*
X790297Y3067923D1*
X810393D1*
X828278Y3098034D2*
X823967Y3096608D1*
X821082Y3092297D1*
X819656Y3085134D1*
Y3080823D1*
X821082Y3073660D1*
X823967Y3069349D1*
X828278Y3067923D1*
X831130D1*
X835441Y3069349D1*
X838293Y3073660D1*
X839752Y3080823D1*
Y3085134D1*
X838293Y3092297D1*
X835441Y3096608D1*
X831130Y3098034D1*
X828278D1*
X838293Y3092297D2*
X821082Y3073660D1*
X866227Y3093756D2*
X864801Y3096608D1*
X860490Y3098034D1*
X857638D1*
X853327Y3096608D1*
X850442Y3092297D1*
X849016Y3085134D1*
Y3077971D1*
X850442Y3072234D1*
X853327Y3069349D1*
X857638Y3067923D1*
X859064D1*
X863342Y3069349D1*
X866227Y3072234D1*
X867653Y3076545D1*
Y3077971D1*
X866227Y3082282D1*
X863342Y3085134D1*
X859064Y3086560D1*
X857638D1*
X853327Y3085134D1*
X850442Y3082282D1*
X849016Y3077971D1*
X560190Y998066D2*
Y967922D1*
X570238D1*
X574549Y969381D1*
X577434Y972233D1*
X578860Y975118D1*
X580286Y979396D1*
Y986592D1*
X578860Y990903D1*
X577434Y993755D1*
X574549Y996640D1*
X570238Y998066D1*
X560190D1*
X589549Y992296D2*
X592434Y993755D1*
X596745Y998033D1*
Y967922D1*
X614631Y998033D2*
X610320Y996607D1*
X607435Y992296D1*
X606009Y985133D1*
Y980822D1*
X607435Y973659D1*
X610320Y969348D1*
X614631Y967922D1*
X617483D1*
X621794Y969348D1*
X624646Y973659D1*
X626105Y980822D1*
Y985133D1*
X624646Y992296D1*
X621794Y996607D1*
X617483Y998033D1*
X614631D1*
X624646Y992296D2*
X607435Y973659D1*
X635368Y992296D2*
X638254Y993755D1*
X642565Y998033D1*
Y967922D1*
X2841240Y2273066D2*
Y2242922D1*
X2851288D1*
X2855599Y2244381D1*
X2858484Y2247233D1*
X2859910Y2250118D1*
X2861336Y2254396D1*
Y2261592D1*
X2859910Y2265903D1*
X2858484Y2268755D1*
X2855599Y2271640D1*
X2851288Y2273066D1*
X2841240D1*
X2870599Y2267296D2*
X2873484Y2268755D1*
X2877795Y2273033D1*
Y2242922D1*
X2895681Y2273033D2*
X2891370Y2271607D1*
X2888485Y2267296D1*
X2887059Y2260133D1*
Y2255822D1*
X2888485Y2248659D1*
X2891370Y2244348D1*
X2895681Y2242922D1*
X2898533D1*
X2902844Y2244348D1*
X2905696Y2248659D1*
X2907155Y2255822D1*
Y2260133D1*
X2905696Y2267296D1*
X2902844Y2271607D1*
X2898533Y2273033D1*
X2895681D1*
X2905696Y2267296D2*
X2888485Y2248659D1*
X2917878Y2265870D2*
Y2267296D1*
X2919304Y2270181D1*
X2920730Y2271607D1*
X2923615Y2273033D1*
X2929352D1*
X2932204Y2271607D1*
X2933629Y2270181D1*
X2935089Y2267296D1*
Y2264444D1*
X2933629Y2261559D1*
X2930778Y2257281D1*
X2916419Y2242922D1*
X2936515D1*
X2530081Y1956004D2*
X2560225D1*
Y1966052D1*
X2558766Y1970363D1*
X2555914Y1973248D1*
X2553029Y1974674D1*
X2548751Y1976100D1*
X2541555D1*
X2537244Y1974674D1*
X2534392Y1973248D1*
X2531507Y1970363D1*
X2530081Y1966052D1*
Y1956004D1*
X2535851Y1985363D2*
X2534392Y1988248D1*
X2530114Y1992559D1*
X2560225D1*
X2530114Y2010445D2*
X2531540Y2006134D1*
X2535851Y2003249D1*
X2543014Y2001823D1*
X2547325D1*
X2554488Y2003249D1*
X2558799Y2006134D1*
X2560225Y2010445D1*
Y2013297D1*
X2558799Y2017608D1*
X2554488Y2020460D1*
X2547325Y2021919D1*
X2543014D1*
X2535851Y2020460D1*
X2531540Y2017608D1*
X2530114Y2013297D1*
Y2010445D1*
X2535851Y2020460D2*
X2554488Y2003249D1*
X2530114Y2034067D2*
Y2049819D1*
X2541588Y2041230D1*
Y2045541D1*
X2543014Y2048393D1*
X2544440Y2049819D1*
X2548751Y2051278D1*
X2551603D1*
X2555914Y2049819D1*
X2558799Y2046967D1*
X2560225Y2042656D1*
Y2038345D1*
X2558799Y2034067D1*
X2557340Y2032641D1*
X2554488Y2031182D1*
X547909Y1894819D2*
Y1864675D1*
X557957D1*
X562268Y1866134D1*
X565153Y1868986D1*
X566579Y1871871D1*
X568005Y1876149D1*
Y1883345D1*
X566579Y1887656D1*
X565153Y1890508D1*
X562268Y1893393D1*
X557957Y1894819D1*
X547909D1*
X577268Y1889049D2*
X580153Y1890508D1*
X584464Y1894786D1*
Y1864675D1*
X602350Y1894786D2*
X598039Y1893360D1*
X595154Y1889049D1*
X593728Y1881886D1*
Y1877575D1*
X595154Y1870412D1*
X598039Y1866101D1*
X602350Y1864675D1*
X605202D1*
X609513Y1866101D1*
X612365Y1870412D1*
X613824Y1877575D1*
Y1881886D1*
X612365Y1889049D1*
X609513Y1893360D1*
X605202Y1894786D1*
X602350D1*
X612365Y1889049D2*
X595154Y1870412D1*
X637446Y1864675D2*
Y1894786D1*
X623087Y1874723D1*
X644609D1*
X891240Y998066D2*
Y967922D1*
X901288D1*
X905599Y969381D1*
X908484Y972233D1*
X909910Y975118D1*
X911336Y979396D1*
Y986592D1*
X909910Y990903D1*
X908484Y993755D1*
X905599Y996640D1*
X901288Y998066D1*
X891240D1*
X920599Y992296D2*
X923484Y993755D1*
X927795Y998033D1*
Y967922D1*
X945681Y998033D2*
X941370Y996607D1*
X938485Y992296D1*
X937059Y985133D1*
Y980822D1*
X938485Y973659D1*
X941370Y969348D1*
X945681Y967922D1*
X948533D1*
X952844Y969348D1*
X955696Y973659D1*
X957155Y980822D1*
Y985133D1*
X955696Y992296D1*
X952844Y996607D1*
X948533Y998033D1*
X945681D1*
X955696Y992296D2*
X938485Y973659D1*
X983629Y998033D2*
X969304D1*
X967878Y985133D1*
X969304Y986559D1*
X973615Y988018D1*
X977892D1*
X982204Y986559D1*
X985089Y983707D1*
X986515Y979396D1*
Y976544D1*
X985089Y972233D1*
X982204Y969348D1*
X977892Y967922D1*
X973615D1*
X969304Y969348D1*
X967878Y970807D1*
X966419Y973659D1*
X3454469Y2273066D2*
Y2242922D1*
X3464517D1*
X3468828Y2244381D1*
X3471713Y2247233D1*
X3473139Y2250118D1*
X3474565Y2254396D1*
Y2261592D1*
X3473139Y2265903D1*
X3471713Y2268755D1*
X3468828Y2271640D1*
X3464517Y2273066D1*
X3454469D1*
X3483829Y2267296D2*
X3486714Y2268755D1*
X3491025Y2273033D1*
Y2242922D1*
X3508911Y2273033D2*
X3504600Y2271607D1*
X3501714Y2267296D1*
X3500289Y2260133D1*
Y2255822D1*
X3501714Y2248659D1*
X3504600Y2244348D1*
X3508911Y2242922D1*
X3511762D1*
X3516074Y2244348D1*
X3518925Y2248659D1*
X3520385Y2255822D1*
Y2260133D1*
X3518925Y2267296D1*
X3516074Y2271607D1*
X3511762Y2273033D1*
X3508911D1*
X3518925Y2267296D2*
X3501714Y2248659D1*
X3546859Y2268755D2*
X3545433Y2271607D1*
X3541122Y2273033D1*
X3538270D1*
X3533959Y2271607D1*
X3531074Y2267296D1*
X3529648Y2260133D1*
Y2252970D1*
X3531074Y2247233D1*
X3533959Y2244348D1*
X3538270Y2242922D1*
X3539696D1*
X3543974Y2244348D1*
X3546859Y2247233D1*
X3548285Y2251544D1*
Y2252970D1*
X3546859Y2257281D1*
X3543974Y2260133D1*
X3539696Y2261559D1*
X3538270D1*
X3533959Y2260133D1*
X3531074Y2257281D1*
X3529648Y2252970D1*
X3117581Y1806004D2*
X3147725D1*
Y1816052D1*
X3146266Y1820363D1*
X3143414Y1823248D1*
X3140529Y1824674D1*
X3136251Y1826100D1*
X3129055D1*
X3124744Y1824674D1*
X3121892Y1823248D1*
X3119007Y1820363D1*
X3117581Y1816052D1*
Y1806004D1*
X3123351Y1835363D2*
X3121892Y1838248D1*
X3117614Y1842559D1*
X3147725D1*
X3117614Y1860445D2*
X3119040Y1856134D1*
X3123351Y1853249D1*
X3130514Y1851823D1*
X3134825D1*
X3141988Y1853249D1*
X3146299Y1856134D1*
X3147725Y1860445D1*
Y1863297D1*
X3146299Y1867608D1*
X3141988Y1870460D1*
X3134825Y1871919D1*
X3130514D1*
X3123351Y1870460D1*
X3119040Y1867608D1*
X3117614Y1863297D1*
Y1860445D1*
X3123351Y1870460D2*
X3141988Y1853249D1*
X3147725Y1886919D2*
X3117614Y1901278D1*
Y1881182D1*
X873638Y1894819D2*
Y1864675D1*
X883686D1*
X887997Y1866134D1*
X890882Y1868986D1*
X892308Y1871871D1*
X893734Y1876149D1*
Y1883345D1*
X892308Y1887656D1*
X890882Y1890508D1*
X887997Y1893393D1*
X883686Y1894819D1*
X873638D1*
X902998Y1889049D2*
X905883Y1890508D1*
X910194Y1894786D1*
Y1864675D1*
X928080Y1894786D2*
X923768Y1893360D1*
X920883Y1889049D1*
X919457Y1881886D1*
Y1877575D1*
X920883Y1870412D1*
X923768Y1866101D1*
X928080Y1864675D1*
X930931D1*
X935242Y1866101D1*
X938094Y1870412D1*
X939553Y1877575D1*
Y1881886D1*
X938094Y1889049D1*
X935242Y1893360D1*
X930931Y1894786D1*
X928080D1*
X938094Y1889049D2*
X920883Y1870412D1*
X955980Y1894786D2*
X951702Y1893360D1*
X950243Y1890508D1*
Y1887623D1*
X951702Y1884771D1*
X954554Y1883312D1*
X960291Y1881886D1*
X964602Y1880460D1*
X967454Y1877575D1*
X968880Y1874723D1*
Y1870412D1*
X967454Y1867560D1*
X966028Y1866101D1*
X961717Y1864675D1*
X955980D1*
X951702Y1866101D1*
X950243Y1867560D1*
X948817Y1870412D1*
Y1874723D1*
X950243Y1877575D1*
X953128Y1880460D1*
X957406Y1881886D1*
X963143Y1883312D1*
X966028Y1884771D1*
X967454Y1887623D1*
Y1890508D1*
X966028Y1893360D1*
X961717Y1894786D1*
X955980D1*
X1251598Y998064D2*
Y967920D1*
X1261646D1*
X1265957Y969379D1*
X1268843Y972231D1*
X1270268Y975116D1*
X1271694Y979394D1*
Y986590D1*
X1270268Y990901D1*
X1268843Y993753D1*
X1265957Y996638D1*
X1261646Y998064D1*
X1251598D1*
X1280958Y992293D2*
X1283843Y993753D1*
X1288154Y998030D1*
Y967920D1*
X1306040Y998030D2*
X1301729Y996605D1*
X1298844Y992293D1*
X1297418Y985131D1*
Y980820D1*
X1298844Y973657D1*
X1301729Y969346D1*
X1306040Y967920D1*
X1308892D1*
X1313203Y969346D1*
X1316055Y973657D1*
X1317514Y980820D1*
Y985131D1*
X1316055Y992293D1*
X1313203Y996605D1*
X1308892Y998030D1*
X1306040D1*
X1316055Y992293D2*
X1298844Y973657D1*
X1345447Y988016D2*
X1343988Y983705D1*
X1341136Y980820D1*
X1336825Y979394D1*
X1335399D1*
X1331088Y980820D1*
X1328236Y983705D1*
X1326777Y988016D1*
Y989442D1*
X1328236Y993753D1*
X1331088Y996605D1*
X1335399Y998030D1*
X1336825D1*
X1341136Y996605D1*
X1343988Y993753D1*
X1345447Y988016D1*
Y980820D1*
X1343988Y973657D1*
X1341136Y969346D1*
X1336825Y967920D1*
X1333973D1*
X1329662Y969346D1*
X1328236Y972231D1*
X3764334Y2132926D2*
X3794478D1*
Y2142974D1*
X3793019Y2147285D1*
X3790167Y2150170D1*
X3787282Y2151596D1*
X3783004Y2153022D1*
X3775808D1*
X3771497Y2151596D1*
X3768645Y2150170D1*
X3765760Y2147285D1*
X3764334Y2142974D1*
Y2132926D1*
X3770104Y2162286D2*
X3768645Y2165171D1*
X3764367Y2169482D1*
X3794478D1*
X3770104Y2178745D2*
X3768645Y2181630D1*
X3764367Y2185941D1*
X3794478D1*
X3764367Y2203827D2*
X3765793Y2199516D1*
X3770104Y2196631D1*
X3777267Y2195205D1*
X3781578D1*
X3788741Y2196631D1*
X3793052Y2199516D1*
X3794478Y2203827D1*
Y2206679D1*
X3793052Y2210990D1*
X3788741Y2213842D1*
X3781578Y2215301D1*
X3777267D1*
X3770104Y2213842D1*
X3765793Y2210990D1*
X3764367Y2206679D1*
Y2203827D1*
X3770104Y2213842D2*
X3788741Y2196631D1*
X3742581Y1793904D2*
X3772725D1*
Y1803952D1*
X3771266Y1808263D1*
X3768414Y1811148D1*
X3765529Y1812574D1*
X3761251Y1814000D1*
X3754055D1*
X3749744Y1812574D1*
X3746892Y1811148D1*
X3744007Y1808263D1*
X3742581Y1803952D1*
Y1793904D1*
X3748351Y1823263D2*
X3746892Y1826148D1*
X3742614Y1830459D1*
X3772725D1*
X3748351Y1839723D2*
X3746892Y1842608D1*
X3742614Y1846919D1*
X3772725D1*
X3748351Y1856182D2*
X3746892Y1859067D1*
X3742614Y1863378D1*
X3772725D1*
X1330072Y1894819D2*
Y1864675D1*
X1340120D1*
X1344431Y1866134D1*
X1347316Y1868986D1*
X1348742Y1871871D1*
X1350168Y1876149D1*
Y1883345D1*
X1348742Y1887656D1*
X1347316Y1890508D1*
X1344431Y1893393D1*
X1340120Y1894819D1*
X1330072D1*
X1359431Y1889049D2*
X1362316Y1890508D1*
X1366627Y1894786D1*
Y1864675D1*
X1375891Y1889049D2*
X1378776Y1890508D1*
X1383087Y1894786D1*
Y1864675D1*
X1393810Y1887623D2*
Y1889049D1*
X1395236Y1891934D1*
X1396661Y1893360D1*
X1399547Y1894786D1*
X1405284D1*
X1408135Y1893360D1*
X1409561Y1891934D1*
X1411021Y1889049D1*
Y1886197D1*
X1409561Y1883312D1*
X1406709Y1879034D1*
X1392350Y1864675D1*
X1412446D1*
X1644835Y998064D2*
Y967920D1*
X1654883D1*
X1659194Y969379D1*
X1662080Y972231D1*
X1663505Y975116D1*
X1664931Y979394D1*
Y986590D1*
X1663505Y990901D1*
X1662080Y993753D1*
X1659194Y996638D1*
X1654883Y998064D1*
X1644835D1*
X1674195Y992293D2*
X1677080Y993753D1*
X1681391Y998030D1*
Y967920D1*
X1690655Y992293D2*
X1693540Y993753D1*
X1697851Y998030D1*
Y967920D1*
X1709999Y998030D2*
X1725751D1*
X1717162Y986557D1*
X1721473D1*
X1724325Y985131D1*
X1725751Y983705D1*
X1727210Y979394D1*
Y976542D1*
X1725751Y972231D1*
X1722899Y969346D1*
X1718588Y967920D1*
X1714277D1*
X1709999Y969346D1*
X1708573Y970805D1*
X1707114Y973657D1*
X3764336Y2356623D2*
X3794480D1*
Y2366671D1*
X3793021Y2370982D1*
X3790169Y2373867D1*
X3787284Y2375293D1*
X3783006Y2376719D1*
X3775810D1*
X3771499Y2375293D1*
X3768647Y2373867D1*
X3765762Y2370982D1*
X3764336Y2366671D1*
Y2356623D1*
X3770107Y2385982D2*
X3768647Y2388867D1*
X3764370Y2393178D1*
X3794480D1*
X3770107Y2402442D2*
X3768647Y2405327D1*
X3764370Y2409638D1*
X3794480D1*
Y2433260D2*
X3764370D1*
X3784432Y2418901D1*
Y2440423D1*
X1717572Y1894819D2*
Y1864675D1*
X1727620D1*
X1731931Y1866134D1*
X1734816Y1868986D1*
X1736242Y1871871D1*
X1737668Y1876149D1*
Y1883345D1*
X1736242Y1887656D1*
X1734816Y1890508D1*
X1731931Y1893393D1*
X1727620Y1894819D1*
X1717572D1*
X1746931Y1889049D2*
X1749816Y1890508D1*
X1754127Y1894786D1*
Y1864675D1*
X1763391Y1889049D2*
X1766276Y1890508D1*
X1770587Y1894786D1*
Y1864675D1*
X1797061Y1894786D2*
X1782736D1*
X1781310Y1881886D1*
X1782736Y1883312D1*
X1787047Y1884771D1*
X1791324D1*
X1795635Y1883312D1*
X1798521Y1880460D1*
X1799946Y1876149D1*
Y1873297D1*
X1798521Y1868986D1*
X1795635Y1866101D1*
X1791324Y1864675D1*
X1787047D1*
X1782736Y1866101D1*
X1781310Y1867560D1*
X1779850Y1870412D1*
X3755081Y2780801D2*
X3785225D1*
Y2790849D1*
X3783766Y2795160D1*
X3780914Y2798045D1*
X3778029Y2799471D1*
X3773751Y2800897D1*
X3766555D1*
X3762244Y2799471D1*
X3759392Y2798045D1*
X3756507Y2795160D1*
X3755081Y2790849D1*
Y2780801D1*
X3760851Y2810161D2*
X3759392Y2813046D1*
X3755114Y2817357D1*
X3785225D1*
X3760851Y2826620D2*
X3759392Y2829506D1*
X3755114Y2833817D1*
X3785225Y2833816D1*
X3759392Y2860291D2*
X3756540Y2858865D1*
X3755114Y2854554D1*
Y2851702D1*
X3756540Y2847391D1*
X3760851Y2844506D1*
X3768014Y2843080D1*
X3775177D1*
X3780914Y2844506D1*
X3783799Y2847391D1*
X3785225Y2851702D1*
Y2853128D1*
X3783799Y2857406D1*
X3780914Y2860291D1*
X3776603Y2861717D1*
X3775177D1*
X3770866Y2860291D1*
X3768014Y2857406D1*
X3766588Y2853128D1*
Y2851702D1*
X3768014Y2847391D1*
X3770866Y2844506D1*
X3775177Y2843080D1*
X451836Y3188386D2*
X481980D1*
Y3198434D1*
X480521Y3202745D1*
X477669Y3205630D1*
X474784Y3207056D1*
X470506Y3208482D1*
X463310D1*
X458999Y3207056D1*
X456147Y3205630D1*
X453262Y3202745D1*
X451836Y3198434D1*
Y3188386D1*
X459033Y3219204D2*
X457607D1*
X454721Y3220630D1*
X453296Y3222056D1*
X451870Y3224941D1*
Y3230678D1*
X453296Y3233530D1*
X454721Y3234956D1*
X457607Y3236415D1*
X460458D1*
X463344Y3234956D1*
X467621Y3232104D1*
X481980Y3217745D1*
Y3237841D1*
X451870Y3255727D2*
X453296Y3251416D1*
X457607Y3248531D1*
X464769Y3247105D1*
X469081D1*
X476243Y3248531D1*
X480554Y3251416D1*
X481980Y3255727D1*
Y3258579D1*
X480554Y3262890D1*
X476243Y3265741D1*
X469080Y3267201D1*
X464769D1*
X457607Y3265741D1*
X453296Y3262890D1*
X451870Y3258579D1*
Y3255727D1*
X457607Y3265741D2*
X476243Y3248531D1*
X457607Y3276464D2*
X456147Y3279349D1*
X451870Y3283660D1*
X481980D1*
X564336Y3181936D2*
X594480D1*
Y3191984D1*
X593021Y3196295D1*
X590169Y3199180D1*
X587284Y3200606D1*
X583006Y3202032D1*
X575810D1*
X571499Y3200606D1*
X568647Y3199180D1*
X565762Y3196295D1*
X564336Y3191984D1*
Y3181936D1*
X571533Y3212754D2*
X570107D1*
X567221Y3214180D1*
X565796Y3215606D1*
X564370Y3218491D1*
Y3224228D1*
X565796Y3227080D1*
X567221Y3228506D1*
X570107Y3229965D1*
X572958D1*
X575844Y3228506D1*
X580121Y3225654D1*
X594480Y3211295D1*
Y3231391D1*
X564370Y3249277D2*
X565796Y3244966D1*
X570107Y3242081D1*
X577269Y3240655D1*
X581581D1*
X588743Y3242081D1*
X593054Y3244966D1*
X594480Y3249277D1*
Y3252129D1*
X593054Y3256440D1*
X588743Y3259292D1*
X581580Y3260751D1*
X577269D1*
X570107Y3259292D1*
X565796Y3256440D1*
X564370Y3252129D1*
Y3249277D1*
X570107Y3259292D2*
X588743Y3242081D1*
X571533Y3271473D2*
X570107D1*
X567221Y3272899D1*
X565796Y3274325D1*
X564370Y3277210D1*
Y3282947D1*
X565796Y3285799D1*
X567221Y3287225D1*
X570107Y3288684D1*
X572958D1*
X575844Y3287225D1*
X580121Y3284373D1*
X594480Y3270014D1*
Y3290110D1*
X789334Y3184790D2*
X819478D1*
Y3194838D1*
X818019Y3199149D1*
X815167Y3202034D1*
X812282Y3203460D1*
X808004Y3204886D1*
X800808D1*
X796497Y3203460D1*
X793645Y3202034D1*
X790760Y3199149D1*
X789334Y3194838D1*
Y3184790D1*
X796530Y3215609D2*
X795104D1*
X792219Y3217035D1*
X790793Y3218460D1*
X789367Y3221346D1*
Y3227083D1*
X790793Y3229934D1*
X792219Y3231360D1*
X795104Y3232819D1*
X797956D1*
X800841Y3231360D1*
X805119Y3228508D1*
X819478Y3214149D1*
Y3234245D1*
X789367Y3252131D2*
X790793Y3247820D1*
X795104Y3244935D1*
X802267Y3243509D1*
X806578D1*
X813741Y3244935D1*
X818052Y3247820D1*
X819478Y3252131D1*
Y3254983D1*
X818052Y3259294D1*
X813741Y3262146D1*
X806578Y3263605D1*
X802267D1*
X795104Y3262146D1*
X790793Y3259294D1*
X789367Y3254983D1*
Y3252131D1*
X795104Y3262146D2*
X813741Y3244935D1*
X789367Y3275754D2*
Y3291505D1*
X800841Y3282917D1*
Y3287228D1*
X802267Y3290079D1*
X803693Y3291505D1*
X808004Y3292964D1*
X810856D1*
X815167Y3291505D1*
X818052Y3288653D1*
X819478Y3284342D1*
Y3280031D1*
X818052Y3275754D1*
X816593Y3274328D1*
X813741Y3272868D1*
X676834Y3184077D2*
X706978D1*
Y3194125D1*
X705519Y3198436D1*
X702667Y3201321D1*
X699782Y3202747D1*
X695504Y3204173D1*
X688308D1*
X683997Y3202747D1*
X681145Y3201321D1*
X678260Y3198436D1*
X676834Y3194125D1*
Y3184077D1*
X684030Y3214896D2*
X682604D1*
X679719Y3216322D1*
X678293Y3217748D1*
X676867Y3220633D1*
Y3226370D1*
X678293Y3229221D1*
X679719Y3230647D1*
X682604Y3232107D1*
X685456D1*
X688341Y3230647D1*
X692619Y3227795D1*
X706978Y3213436D1*
Y3233532D1*
X676867Y3251418D2*
X678293Y3247107D1*
X682604Y3244222D1*
X689767Y3242796D1*
X694078D1*
X701241Y3244222D1*
X705552Y3247107D1*
X706978Y3251418D1*
Y3254270D1*
X705552Y3258581D1*
X701241Y3261433D1*
X694078Y3262892D1*
X689767D1*
X682604Y3261433D1*
X678293Y3258581D1*
X676867Y3254270D1*
Y3251418D1*
X682604Y3261433D2*
X701241Y3244222D1*
X706978Y3286515D2*
X676867D1*
X696930Y3272156D1*
Y3293677D1*
X480081Y2724554D2*
X510225D1*
Y2734602D1*
X508766Y2738913D1*
X505914Y2741798D1*
X503029Y2743224D1*
X498751Y2744650D1*
X491555D1*
X487244Y2743224D1*
X484392Y2741798D1*
X481507Y2738913D1*
X480081Y2734602D1*
Y2724554D1*
X487277Y2755372D2*
X485851D1*
X482966Y2756798D1*
X481540Y2758224D1*
X480114Y2761109D1*
Y2766846D1*
X481540Y2769698D1*
X482966Y2771124D1*
X485851Y2772583D1*
X488703D1*
X491588Y2771124D1*
X495866Y2768272D1*
X510225Y2753913D1*
Y2774009D1*
X480114Y2791895D2*
X481540Y2787584D1*
X485851Y2784699D1*
X493014Y2783273D1*
X497325D1*
X504488Y2784699D1*
X508799Y2787584D1*
X510225Y2791895D1*
Y2794747D1*
X508799Y2799058D1*
X504488Y2801910D1*
X497325Y2803369D1*
X493014D1*
X485851Y2801910D1*
X481540Y2799058D1*
X480114Y2794747D1*
Y2791895D1*
X485851Y2801910D2*
X504488Y2784699D1*
X480114Y2829843D2*
Y2815517D1*
X493014Y2814091D1*
X491588Y2815517D1*
X490129Y2819828D1*
Y2824106D1*
X491588Y2828417D1*
X494440Y2831302D1*
X498751Y2832728D1*
X501603D1*
X505914Y2831302D1*
X508799Y2828417D1*
X510225Y2824106D1*
Y2819828D1*
X508799Y2815517D1*
X507340Y2814091D1*
X504488Y2812632D1*
X1505150Y2724346D2*
Y2701399D1*
X1503724Y2697088D1*
X1502265Y2695662D1*
X1499413Y2694202D1*
X1496528D1*
X1493676Y2695662D1*
X1492250Y2697088D1*
X1490791Y2701399D1*
Y2704250D1*
X1514413Y2718576D2*
X1517298Y2720035D1*
X1521609Y2724313D1*
Y2694202D1*
X1498700Y2124346D2*
Y2101399D1*
X1497274Y2097088D1*
X1495815Y2095662D1*
X1492963Y2094202D1*
X1490078D1*
X1487226Y2095662D1*
X1485800Y2097088D1*
X1484341Y2101399D1*
Y2104250D1*
X1509422Y2117150D2*
Y2118576D1*
X1510848Y2121461D1*
X1512274Y2122887D1*
X1515159Y2124313D1*
X1520896D1*
X1523748Y2122887D1*
X1525174Y2121461D1*
X1526633Y2118576D1*
Y2115724D1*
X1525174Y2112839D1*
X1522322Y2108561D1*
X1507963Y2094202D1*
X1528059D1*
X768090Y3784091D2*
Y3761143D1*
X766664Y3756832D1*
X765204Y3755406D1*
X762353Y3753947D1*
X759467D1*
X756616Y3755406D1*
X755190Y3756832D1*
X753730Y3761143D1*
Y3763995D1*
X780238Y3784057D2*
X795990D1*
X787401Y3772583D1*
X791712D1*
X794564Y3771157D1*
X795990Y3769732D1*
X797449Y3765420D1*
Y3762569D1*
X795990Y3758258D1*
X793138Y3755372D1*
X788827Y3753947D1*
X784516D1*
X780238Y3755372D1*
X778812Y3756832D1*
X777353Y3759684D1*
X1357928Y3784091D2*
Y3761143D1*
X1356502Y3756832D1*
X1355043Y3755406D1*
X1352191Y3753947D1*
X1349306D1*
X1346454Y3755406D1*
X1345028Y3756832D1*
X1343569Y3761143D1*
Y3763995D1*
X1381550Y3753947D2*
Y3784057D1*
X1367191Y3763995D1*
X1388713D1*
X1949192Y3784091D2*
Y3761143D1*
X1947766Y3756832D1*
X1946307Y3755406D1*
X1943455Y3753947D1*
X1940570D1*
X1937718Y3755406D1*
X1936292Y3756832D1*
X1934833Y3761143D1*
Y3763995D1*
X1975666Y3784057D2*
X1961340D1*
X1959915Y3771157D1*
X1961340Y3772583D1*
X1965652Y3774043D1*
X1969929D1*
X1974240Y3772583D1*
X1977125Y3769732D1*
X1978551Y3765420D1*
Y3762569D1*
X1977125Y3758258D1*
X1974240Y3755372D1*
X1969929Y3753947D1*
X1965652D1*
X1961340Y3755372D1*
X1959915Y3756832D1*
X1958455Y3759684D1*
X2843622Y3784091D2*
Y3761143D1*
X2842196Y3756832D1*
X2840737Y3755406D1*
X2837885Y3753947D1*
X2835000D1*
X2832148Y3755406D1*
X2830722Y3756832D1*
X2829263Y3761143D1*
Y3763995D1*
X2870097Y3779780D2*
X2868671Y3782631D1*
X2864360Y3784057D1*
X2861508D1*
X2857197Y3782631D1*
X2854312Y3778320D1*
X2852886Y3771157D1*
Y3763995D1*
X2854312Y3758258D1*
X2857197Y3755372D1*
X2861508Y3753947D1*
X2862934D1*
X2867212Y3755372D1*
X2870097Y3758258D1*
X2871523Y3762569D1*
Y3763995D1*
X2870097Y3768306D1*
X2867212Y3771157D1*
X2862934Y3772583D1*
X2861508D1*
X2857197Y3771157D1*
X2854312Y3768306D1*
X2852886Y3763995D1*
X3433444Y3784091D2*
Y3761143D1*
X3432018Y3756832D1*
X3430559Y3755406D1*
X3427707Y3753947D1*
X3424822D1*
X3421970Y3755406D1*
X3420544Y3756832D1*
X3419085Y3761143D1*
Y3763995D1*
X3448444Y3753947D2*
X3462803Y3784057D1*
X3442707D1*
X4024012Y3784091D2*
Y3761143D1*
X4022586Y3756832D1*
X4021127Y3755406D1*
X4018275Y3753947D1*
X4015390D1*
X4012538Y3755406D1*
X4011112Y3756832D1*
X4009653Y3761143D1*
Y3763995D1*
X4040438Y3784057D2*
X4036160Y3782631D1*
X4034701Y3779780D1*
Y3776894D1*
X4036160Y3774043D1*
X4039012Y3772583D1*
X4044749Y3771157D1*
X4049060Y3769732D1*
X4051912Y3766846D1*
X4053338Y3763995D1*
Y3759684D1*
X4051912Y3756832D1*
X4050486Y3755372D1*
X4046175Y3753947D1*
X4040438D1*
X4036160Y3755372D1*
X4034701Y3756832D1*
X4033275Y3759684D1*
Y3763995D1*
X4034701Y3766846D1*
X4037586Y3769732D1*
X4041864Y3771157D1*
X4047601Y3772583D1*
X4050486Y3774043D1*
X4051912Y3776894D1*
Y3779780D1*
X4050486Y3782631D1*
X4046175Y3784057D1*
X4040438D1*
X792425Y862831D2*
Y839883D1*
X790999Y835572D1*
X789539Y834146D1*
X786688Y832687D1*
X783802D1*
X780951Y834146D1*
X779525Y835572D1*
X778066Y839883D1*
Y842735D1*
X820358Y852783D2*
X818899Y848472D1*
X816047Y845587D1*
X811736Y844161D1*
X810310D1*
X805999Y845587D1*
X803147Y848472D1*
X801688Y852783D1*
Y854209D1*
X803147Y858520D1*
X805999Y861372D1*
X810310Y862798D1*
X811736D1*
X816047Y861372D1*
X818899Y858520D1*
X820358Y852783D1*
Y845587D1*
X818899Y838424D1*
X816047Y834113D1*
X811736Y832687D1*
X808884D1*
X804573Y834113D1*
X803147Y836998D1*
X1374033Y862831D2*
Y839883D1*
X1372607Y835572D1*
X1371148Y834146D1*
X1368296Y832687D1*
X1365411D1*
X1362559Y834146D1*
X1361133Y835572D1*
X1359674Y839883D1*
Y842735D1*
X1383296Y857061D2*
X1386182Y858520D1*
X1390493Y862798D1*
Y832687D1*
X1408378Y862798D2*
X1404067Y861372D1*
X1401182Y857061D1*
X1399756Y849898D1*
Y845587D1*
X1401182Y838424D1*
X1404067Y834113D1*
X1408378Y832687D1*
X1411230D1*
X1415541Y834113D1*
X1418393Y838424D1*
X1419852Y845587D1*
Y849898D1*
X1418393Y857061D1*
X1415541Y861372D1*
X1411230Y862798D1*
X1408378D1*
X1418393Y857061D2*
X1401182Y838424D1*
X1971034Y862831D2*
Y839883D1*
X1969608Y835572D1*
X1968149Y834146D1*
X1965297Y832687D1*
X1962412D1*
X1959560Y834146D1*
X1958134Y835572D1*
X1956675Y839883D1*
Y842735D1*
X1980298Y857061D2*
X1983183Y858520D1*
X1987494Y862798D1*
Y832687D1*
X1996757Y857061D2*
X1999642Y858520D1*
X2003953Y862798D1*
Y832687D1*
X2858285Y862831D2*
Y839883D1*
X2856859Y835572D1*
X2855400Y834146D1*
X2852548Y832687D1*
X2849663D1*
X2846811Y834146D1*
X2845385Y835572D1*
X2843926Y839883D1*
Y842735D1*
X2867548Y857061D2*
X2870433Y858520D1*
X2874745Y862798D1*
Y832687D1*
X2885467Y855635D2*
Y857061D1*
X2886893Y859946D1*
X2888319Y861372D1*
X2891204Y862798D1*
X2896941D1*
X2899793Y861372D1*
X2901219Y859946D1*
X2902678Y857061D1*
Y854209D1*
X2901219Y851324D1*
X2898367Y847046D1*
X2884008Y832687D1*
X2904104D1*
X3448836Y862831D2*
Y839883D1*
X3447410Y835572D1*
X3445951Y834146D1*
X3443099Y832687D1*
X3440214D1*
X3437362Y834146D1*
X3435936Y835572D1*
X3434477Y839883D1*
Y842735D1*
X3458100Y857061D2*
X3460985Y858520D1*
X3465296Y862798D1*
Y832687D1*
X3477444Y862798D2*
X3493196D1*
X3484607Y851324D1*
X3488918D1*
X3491770Y849898D1*
X3493196Y848472D1*
X3494655Y844161D1*
Y841309D1*
X3493196Y836998D1*
X3490344Y834113D1*
X3486033Y832687D1*
X3481722D1*
X3477444Y834113D1*
X3476018Y835572D1*
X3474559Y838424D1*
X4038674Y862831D2*
Y839883D1*
X4037248Y835572D1*
X4035789Y834146D1*
X4032937Y832687D1*
X4030052D1*
X4027200Y834146D1*
X4025774Y835572D1*
X4024315Y839883D1*
Y842735D1*
X4047938Y857061D2*
X4050823Y858520D1*
X4055134Y862798D1*
Y832687D1*
X4078756D2*
Y862798D1*
X4064397Y842735D1*
X4085919D1*
X2840013Y2146000D2*
Y2115856D1*
X2860109Y2146000D2*
X2840013Y2125904D1*
X2847176Y2133100D2*
X2860109Y2115856D1*
X2869372Y2140230D2*
X2872257Y2141689D1*
X2876568Y2145967D1*
Y2115856D1*
X2894454Y2145967D2*
X2890143Y2144541D1*
X2887258Y2140230D1*
X2885832Y2133067D1*
Y2128756D1*
X2887258Y2121593D1*
X2890143Y2117282D1*
X2894454Y2115856D1*
X2897306D1*
X2901617Y2117282D1*
X2904469Y2121593D1*
X2905928Y2128756D1*
Y2133067D1*
X2904469Y2140230D1*
X2901617Y2144541D1*
X2897306Y2145967D1*
X2894454D1*
X2904469Y2140230D2*
X2887258Y2121593D1*
X2915191Y2140230D2*
X2918076Y2141689D1*
X2922387Y2145967D1*
Y2115856D1*
X3446063Y2146000D2*
Y2115856D1*
X3466159Y2146000D2*
X3446063Y2125904D1*
X3453226Y2133100D2*
X3466159Y2115856D1*
X3475422Y2140230D2*
X3478307Y2141689D1*
X3482618Y2145967D1*
Y2115856D1*
X3500504Y2145967D2*
X3496193Y2144541D1*
X3493308Y2140230D1*
X3491882Y2133067D1*
Y2128756D1*
X3493308Y2121593D1*
X3496193Y2117282D1*
X3500504Y2115856D1*
X3503356D1*
X3507667Y2117282D1*
X3510519Y2121593D1*
X3511978Y2128756D1*
Y2133067D1*
X3510519Y2140230D1*
X3507667Y2144541D1*
X3503356Y2145967D1*
X3500504D1*
X3510519Y2140230D2*
X3493308Y2121593D1*
X3522700Y2138804D2*
Y2140230D1*
X3524126Y2143115D1*
X3525552Y2144541D1*
X3528437Y2145967D1*
X3534174D1*
X3537026Y2144541D1*
X3538452Y2143115D1*
X3539911Y2140230D1*
Y2137378D1*
X3538452Y2134493D1*
X3535600Y2130215D1*
X3521241Y2115856D1*
X3541337D1*
X4071063Y2133500D2*
Y2103356D1*
X4091159Y2133500D2*
X4071063Y2113404D1*
X4078226Y2120600D2*
X4091159Y2103356D1*
X4100422Y2127730D2*
X4103307Y2129189D1*
X4107618Y2133467D1*
Y2103356D1*
X4125504Y2133467D2*
X4121193Y2132041D1*
X4118308Y2127730D1*
X4116882Y2120567D1*
Y2116256D1*
X4118308Y2109093D1*
X4121193Y2104782D1*
X4125504Y2103356D1*
X4128356D1*
X4132667Y2104782D1*
X4135519Y2109093D1*
X4136978Y2116256D1*
Y2120567D1*
X4135519Y2127730D1*
X4132667Y2132041D1*
X4128356Y2133467D1*
X4125504D1*
X4135519Y2127730D2*
X4118308Y2109093D1*
X4149126Y2133467D2*
X4164878D1*
X4156289Y2121993D1*
X4160600D1*
X4163452Y2120567D1*
X4164878Y2119141D1*
X4166337Y2114830D1*
Y2111978D1*
X4164878Y2107667D1*
X4162026Y2104782D1*
X4157715Y2103356D1*
X4153404D1*
X4149126Y2104782D1*
X4147700Y2106241D1*
X4146241Y2109093D1*
X4070350Y3305941D2*
Y3275797D1*
X4090446Y3305941D2*
X4070350Y3285845D1*
X4077513Y3293041D2*
X4090446Y3275797D1*
X4099709Y3300171D2*
X4102594Y3301630D1*
X4106905Y3305908D1*
Y3275797D1*
X4124791Y3305908D2*
X4120480Y3304482D1*
X4117595Y3300171D1*
X4116169Y3293008D1*
Y3288697D1*
X4117595Y3281534D1*
X4120480Y3277223D1*
X4124791Y3275797D1*
X4127643D1*
X4131954Y3277223D1*
X4134806Y3281534D1*
X4136265Y3288697D1*
Y3293008D1*
X4134806Y3300171D1*
X4131954Y3304482D1*
X4127643Y3305908D1*
X4124791D1*
X4134806Y3300171D2*
X4117595Y3281534D1*
X4159887Y3275797D2*
Y3305908D1*
X4145528Y3285845D1*
X4167050D1*
X1952346Y2343239D2*
X1953739Y2340388D1*
X1956624Y2337502D1*
X1959509Y2336077D1*
X1963820Y2334617D1*
X1970983D1*
X1975294Y2336077D1*
X1978146Y2337502D1*
X1981031Y2340388D1*
X1982457Y2343239D1*
Y2348976D1*
X1981031Y2351861D1*
X1978146Y2354713D1*
X1975294Y2356139D1*
X1970983Y2357598D1*
X1963820D1*
X1959509Y2356139D1*
X1956624Y2354713D1*
X1953739Y2351861D1*
X1952346Y2348976D1*
Y2343239D1*
X1976720Y2347550D2*
X1985342Y2356139D1*
X1958116Y2366862D2*
X1956657Y2369747D1*
X1952379Y2374058D1*
X1982490D1*
X1952379Y2391944D2*
X1953805Y2387633D1*
X1958116Y2384748D1*
X1965279Y2383322D1*
X1969590D1*
X1976753Y2384748D1*
X1981064Y2387633D1*
X1982490Y2391944D1*
Y2394796D1*
X1981064Y2399107D1*
X1976753Y2401958D1*
X1969590Y2403418D1*
X1965279D1*
X1958116Y2401958D1*
X1953805Y2399107D1*
X1952379Y2394796D1*
Y2391944D1*
X1958116Y2401958D2*
X1976753Y2384748D1*
X1958116Y2412681D2*
X1956657Y2415566D1*
X1952379Y2419877D1*
X1982490D1*
X1752346Y2336790D2*
X1753739Y2333938D1*
X1756624Y2331053D1*
X1759509Y2329627D1*
X1763820Y2328167D1*
X1770983D1*
X1775294Y2329627D1*
X1778146Y2331053D1*
X1781031Y2333938D1*
X1782457Y2336789D1*
Y2342526D1*
X1781031Y2345411D1*
X1778146Y2348263D1*
X1775294Y2349689D1*
X1770983Y2351148D1*
X1763820D1*
X1759509Y2349689D1*
X1756624Y2348263D1*
X1753739Y2345412D1*
X1752346Y2342526D1*
Y2336790D1*
X1776720Y2341100D2*
X1785342Y2349689D1*
X1758116Y2360412D2*
X1756657Y2363297D1*
X1752379Y2367608D1*
X1782490D1*
X1752379Y2385494D2*
X1753805Y2381183D1*
X1758116Y2378298D1*
X1765279Y2376872D1*
X1769590D1*
X1776753Y2378298D1*
X1781064Y2381183D1*
X1782490Y2385494D1*
Y2388346D1*
X1781064Y2392657D1*
X1776753Y2395508D1*
X1769590Y2396968D1*
X1765279D1*
X1758116Y2395509D1*
X1753805Y2392657D1*
X1752379Y2388346D1*
Y2385494D1*
X1758116Y2395509D2*
X1776753Y2378298D1*
X1759542Y2407690D2*
X1758116D1*
X1755231Y2409116D1*
X1753805Y2410542D1*
X1752379Y2413427D1*
Y2419164D1*
X1753805Y2422016D1*
X1755231Y2423442D1*
X1758116Y2424901D1*
X1760968D1*
X1763853Y2423442D1*
X1768131Y2420590D1*
X1782490Y2406231D1*
Y2426327D1*
X1539846Y2336790D2*
X1541239Y2333938D1*
X1544124Y2331053D1*
X1547009Y2329627D1*
X1551320Y2328167D1*
X1558483D1*
X1562794Y2329627D1*
X1565646Y2331053D1*
X1568531Y2333938D1*
X1569957Y2336789D1*
Y2342526D1*
X1568531Y2345411D1*
X1565646Y2348263D1*
X1562794Y2349689D1*
X1558483Y2351148D1*
X1551320D1*
X1547009Y2349689D1*
X1544124Y2348263D1*
X1541239Y2345412D1*
X1539846Y2342526D1*
Y2336790D1*
X1564220Y2341100D2*
X1572842Y2349689D1*
X1545616Y2360412D2*
X1544157Y2363297D1*
X1539879Y2367608D1*
X1569990D1*
X1539879Y2385494D2*
X1541305Y2381183D1*
X1545616Y2378298D1*
X1552779Y2376872D1*
X1557090D1*
X1564253Y2378298D1*
X1568564Y2381183D1*
X1569990Y2385494D1*
Y2388346D1*
X1568564Y2392657D1*
X1564253Y2395508D1*
X1557090Y2396968D1*
X1552779D1*
X1545616Y2395509D1*
X1541305Y2392657D1*
X1539879Y2388346D1*
Y2385494D1*
X1545616Y2395509D2*
X1564253Y2378298D1*
X1539879Y2409116D2*
Y2424868D1*
X1551353Y2416279D1*
Y2420590D1*
X1552779Y2423442D1*
X1554205Y2424868D1*
X1558516Y2426327D1*
X1561368D1*
X1565679Y2424868D1*
X1568564Y2422016D1*
X1569990Y2417705D1*
Y2413394D1*
X1568564Y2409116D1*
X1567105Y2407690D1*
X1564253Y2406231D1*
X1314846Y2336077D2*
X1316239Y2333225D1*
X1319124Y2330340D1*
X1322009Y2328914D1*
X1326320Y2327454D1*
X1333483D1*
X1337794Y2328914D1*
X1340646Y2330340D1*
X1343531Y2333225D1*
X1344957Y2336076D1*
Y2341813D1*
X1343531Y2344699D1*
X1340646Y2347550D1*
X1337794Y2348976D1*
X1333483Y2350435D1*
X1326320Y2350436D1*
X1322009Y2348976D1*
X1319124Y2347550D1*
X1316239Y2344699D1*
X1314846Y2341814D1*
Y2336077D1*
X1339220Y2340388D2*
X1347842Y2348976D1*
X1320616Y2359699D2*
X1319157Y2362584D1*
X1314879Y2366895D1*
X1344990D1*
X1314879Y2384781D2*
X1316305Y2380470D1*
X1320616Y2377585D1*
X1327779Y2376159D1*
X1332090D1*
X1339253Y2377585D1*
X1343564Y2380470D1*
X1344990Y2384781D1*
Y2387633D1*
X1343564Y2391944D1*
X1339253Y2394796D1*
X1332090Y2396255D1*
X1327779D1*
X1320616Y2394796D1*
X1316305Y2391944D1*
X1314879Y2387633D1*
Y2384781D1*
X1320616Y2394796D2*
X1339253Y2377585D1*
X1344990Y2419877D2*
X1314879D1*
X1334942Y2405518D1*
Y2427040D1*
X3075346Y3051013D2*
Y3063913D1*
X3073887Y3068224D1*
X3072461Y3069683D1*
X3069609Y3071109D1*
X3066724D1*
X3063872Y3069683D1*
X3062413Y3068224D1*
X3060987Y3063913D1*
Y3051013D1*
X3091131D1*
X3075346Y3061061D2*
X3091131Y3071109D1*
X3066757Y3080372D2*
X3065298Y3083257D1*
X3061020Y3087568D1*
X3091131D1*
X3206940Y3239937D2*
Y3252837D1*
X3205481Y3257148D1*
X3204055Y3258607D1*
X3201203Y3260033D1*
X3198318D1*
X3195466Y3258607D1*
X3194007Y3257148D1*
X3192581Y3252837D1*
Y3239937D1*
X3222725D1*
X3206940Y3249985D2*
X3222725Y3260033D1*
X3199777Y3270756D2*
X3198351D1*
X3195466Y3272181D1*
X3194040Y3273607D1*
X3192614Y3276493D1*
Y3282229D1*
X3194040Y3285081D1*
X3195466Y3286507D1*
X3198351Y3287966D1*
X3201203D1*
X3204088Y3286507D1*
X3208366Y3283655D1*
X3222725Y3269296D1*
Y3289392D1*
X3294440Y3248008D2*
Y3260908D1*
X3292981Y3265219D1*
X3291555Y3266678D1*
X3288703Y3268104D1*
X3285818D1*
X3282966Y3266678D1*
X3281507Y3265219D1*
X3280081Y3260908D1*
Y3248008D1*
X3310225D1*
X3294440Y3258056D2*
X3310225Y3268104D1*
X3280114Y3280252D2*
Y3296004D1*
X3291588Y3287415D1*
Y3291726D1*
X3293014Y3294578D1*
X3294440Y3296004D1*
X3298751Y3297463D1*
X3301603D1*
X3305914Y3296004D1*
X3308799Y3293152D1*
X3310225Y3288841D1*
Y3284530D1*
X3308799Y3280252D1*
X3307340Y3278826D1*
X3304488Y3277367D1*
X3631940Y3226724D2*
Y3239624D1*
X3630481Y3243935D1*
X3629055Y3245394D1*
X3626203Y3246820D1*
X3623318D1*
X3620466Y3245394D1*
X3619007Y3243935D1*
X3617581Y3239624D1*
Y3226724D1*
X3647725D1*
X3631940Y3236772D2*
X3647725Y3246820D1*
Y3270442D2*
X3617614D1*
X3637677Y3256083D1*
Y3277605D1*
X3544440Y3223008D2*
Y3235908D1*
X3542981Y3240219D1*
X3541555Y3241678D1*
X3538703Y3243104D1*
X3535818D1*
X3532966Y3241678D1*
X3531507Y3240219D1*
X3530081Y3235908D1*
Y3223008D1*
X3560225D1*
X3544440Y3233056D2*
X3560225Y3243104D1*
X3530114Y3269578D2*
Y3255252D1*
X3543014Y3253826D1*
X3541588Y3255252D1*
X3540129Y3259563D1*
Y3263841D1*
X3541588Y3268152D1*
X3544440Y3271037D1*
X3548751Y3272463D1*
X3551603D1*
X3555914Y3271037D1*
X3558799Y3268152D1*
X3560225Y3263841D1*
Y3259563D1*
X3558799Y3255252D1*
X3557340Y3253826D1*
X3554488Y3252367D1*
X559894Y1096208D2*
X572794D1*
X577105Y1097667D1*
X578565Y1099093D1*
X579990Y1101945D1*
Y1104830D1*
X578565Y1107682D1*
X577105Y1109141D1*
X572794Y1110567D1*
X559894D1*
Y1080423D1*
X569942Y1096208D2*
X579990Y1080423D1*
X589254Y1104797D2*
X592139Y1106256D1*
X596450Y1110534D1*
Y1080423D1*
X614336Y1110534D2*
X610025Y1109108D1*
X607140Y1104797D1*
X605714Y1097634D1*
Y1093323D1*
X607140Y1086160D1*
X610025Y1081849D1*
X614336Y1080423D1*
X617188D1*
X621499Y1081849D1*
X624351Y1086160D1*
X625810Y1093323D1*
Y1097634D1*
X624351Y1104797D1*
X621499Y1109108D1*
X617188Y1110534D1*
X614336D1*
X624351Y1104797D2*
X607140Y1086160D1*
X635073Y1104797D2*
X637958Y1106256D1*
X642269Y1110534D1*
Y1080423D1*
X1006940Y2129527D2*
Y2142427D1*
X1005481Y2146738D1*
X1004055Y2148197D1*
X1001203Y2149623D1*
X998318D1*
X995466Y2148197D1*
X994007Y2146738D1*
X992581Y2142427D1*
Y2129527D1*
X1022725D1*
X1006940Y2139575D2*
X1022725Y2149623D1*
X998351Y2158887D2*
X996892Y2161772D1*
X992614Y2166083D1*
X1022725D1*
X992614Y2183968D2*
X994040Y2179657D1*
X998351Y2176772D1*
X1005514Y2175346D1*
X1009825D1*
X1016988Y2176772D1*
X1021299Y2179657D1*
X1022725Y2183968D1*
Y2186820D1*
X1021299Y2191131D1*
X1016988Y2193983D1*
X1009825Y2195442D1*
X1005514D1*
X998351Y2193983D1*
X994040Y2191131D1*
X992614Y2186820D1*
Y2183968D1*
X998351Y2193983D2*
X1016988Y2176772D1*
X999777Y2206165D2*
X998351D1*
X995466Y2207591D1*
X994040Y2209017D1*
X992614Y2211902D1*
Y2217639D1*
X994040Y2220491D1*
X995466Y2221917D1*
X998351Y2223376D1*
X1001203D1*
X1004088Y2221917D1*
X1008366Y2219065D1*
X1022725Y2204706D1*
Y2224802D1*
X703692Y926181D2*
Y939081D1*
X702233Y943392D1*
X700807Y944851D1*
X697955Y946277D1*
X695070D1*
X692218Y944851D1*
X690759Y943392D1*
X689333Y939081D1*
Y926181D1*
X719477D1*
X703692Y936229D2*
X719477Y946277D1*
X695103Y955540D2*
X693644Y958425D1*
X689366Y962736D1*
X719477D1*
X689366Y980622D2*
X690792Y976311D1*
X695103Y973426D1*
X702266Y972000D1*
X706577D1*
X713740Y973426D1*
X718051Y976311D1*
X719477Y980622D1*
Y983474D1*
X718051Y987785D1*
X713740Y990637D1*
X706577Y992096D1*
X702266D1*
X695103Y990637D1*
X690792Y987785D1*
X689366Y983474D1*
Y980622D1*
X695103Y990637D2*
X713740Y973426D1*
X689366Y1004245D2*
Y1019996D1*
X700840Y1011407D1*
Y1015719D1*
X702266Y1018570D1*
X703692Y1019996D1*
X708003Y1021455D1*
X710855D1*
X715166Y1019996D1*
X718051Y1017144D1*
X719477Y1012833D1*
Y1008522D1*
X718051Y1004245D1*
X716592Y1002819D1*
X713740Y1001359D1*
X919440Y2128814D2*
Y2141714D1*
X917981Y2146025D1*
X916555Y2147484D1*
X913703Y2148910D1*
X910818D1*
X907966Y2147484D1*
X906507Y2146025D1*
X905081Y2141714D1*
Y2128814D1*
X935225D1*
X919440Y2138862D2*
X935225Y2148910D1*
X910851Y2158174D2*
X909392Y2161059D1*
X905114Y2165370D1*
X935225D1*
X905114Y2183256D2*
X906540Y2178944D1*
X910851Y2176059D1*
X918014Y2174633D1*
X922325D1*
X929488Y2176059D1*
X933799Y2178944D1*
X935225Y2183255D1*
Y2186107D1*
X933799Y2190418D1*
X929488Y2193270D1*
X922325Y2194729D1*
X918014D1*
X910851Y2193270D1*
X906540Y2190418D1*
X905114Y2186107D1*
Y2183256D1*
X910851Y2193270D2*
X929488Y2176059D1*
X935225Y2218352D2*
X905114D1*
X925177Y2203993D1*
Y2225515D1*
X1219440Y2442027D2*
Y2454927D1*
X1217981Y2459238D1*
X1216555Y2460697D1*
X1213703Y2462123D1*
X1210818D1*
X1207966Y2460697D1*
X1206507Y2459238D1*
X1205081Y2454927D1*
Y2442027D1*
X1235225D1*
X1219440Y2452075D2*
X1235225Y2462123D1*
X1210851Y2471387D2*
X1209392Y2474272D1*
X1205114Y2478583D1*
X1235225D1*
X1205114Y2496468D2*
X1206540Y2492157D1*
X1210851Y2489272D1*
X1218014Y2487846D1*
X1222325D1*
X1229488Y2489272D1*
X1233799Y2492157D1*
X1235225Y2496468D1*
Y2499320D1*
X1233799Y2503631D1*
X1229488Y2506483D1*
X1222325Y2507942D1*
X1218014D1*
X1210851Y2506483D1*
X1206540Y2503631D1*
X1205114Y2499320D1*
Y2496468D1*
X1210851Y2506483D2*
X1229488Y2489272D1*
X1205114Y2534417D2*
Y2520091D1*
X1218014Y2518665D1*
X1216588Y2520091D1*
X1215129Y2524402D1*
Y2528680D1*
X1216588Y2532991D1*
X1219440Y2535876D1*
X1223751Y2537302D1*
X1226603D1*
X1230914Y2535876D1*
X1233799Y2532991D1*
X1235225Y2528680D1*
Y2524402D1*
X1233799Y2520091D1*
X1232340Y2518665D1*
X1229488Y2517206D1*
X2544440Y1775828D2*
Y1788728D1*
X2542981Y1793039D1*
X2541555Y1794498D1*
X2538703Y1795924D1*
X2535818D1*
X2532966Y1794498D1*
X2531507Y1793039D1*
X2530081Y1788728D1*
Y1775828D1*
X2560225D1*
X2544440Y1785876D2*
X2560225Y1795924D1*
X2535851Y1805187D2*
X2534392Y1808072D1*
X2530114Y1812383D1*
X2560225D1*
X2530114Y1830269D2*
X2531540Y1825958D1*
X2535851Y1823073D1*
X2543014Y1821647D1*
X2547325D1*
X2554488Y1823073D1*
X2558799Y1825958D1*
X2560225Y1830269D1*
Y1833121D1*
X2558799Y1837432D1*
X2554488Y1840284D1*
X2547325Y1841743D1*
X2543014D1*
X2535851Y1840284D1*
X2531540Y1837432D1*
X2530114Y1833121D1*
Y1830269D1*
X2535851Y1840284D2*
X2554488Y1823073D1*
X2534392Y1868217D2*
X2531540Y1866791D1*
X2530114Y1862480D1*
Y1859628D1*
X2531540Y1855317D1*
X2535851Y1852432D1*
X2543014Y1851006D1*
X2550177D1*
X2555914Y1852432D1*
X2558799Y1855317D1*
X2560225Y1859628D1*
Y1861054D1*
X2558799Y1865332D1*
X2555914Y1868217D1*
X2551603Y1869643D1*
X2550177D1*
X2545866Y1868217D1*
X2543014Y1865332D1*
X2541588Y1861054D1*
Y1859628D1*
X2543014Y1855317D1*
X2545866Y1852432D1*
X2550177Y1851006D1*
X1219440Y2300098D2*
Y2312998D1*
X1217981Y2317309D1*
X1216555Y2318768D1*
X1213703Y2320194D1*
X1210818D1*
X1207966Y2318768D1*
X1206507Y2317309D1*
X1205081Y2312998D1*
Y2300098D1*
X1235225D1*
X1219440Y2310146D2*
X1235225Y2320194D1*
X1210851Y2329458D2*
X1209392Y2332343D1*
X1205114Y2336654D1*
X1235225D1*
X1205114Y2354539D2*
X1206540Y2350228D1*
X1210851Y2347343D1*
X1218014Y2345917D1*
X1222325D1*
X1229488Y2347343D1*
X1233799Y2350228D1*
X1235225Y2354539D1*
Y2357391D1*
X1233799Y2361702D1*
X1229488Y2364554D1*
X1222325Y2366013D1*
X1218014D1*
X1210851Y2364554D1*
X1206540Y2361702D1*
X1205114Y2357391D1*
Y2354539D1*
X1210851Y2364554D2*
X1229488Y2347343D1*
X1235225Y2381014D2*
X1205114Y2395373D1*
Y2375277D1*
X890961Y1096208D2*
X903861D1*
X908172Y1097667D1*
X909631Y1099093D1*
X911057Y1101945D1*
Y1104830D1*
X909631Y1107682D1*
X908172Y1109141D1*
X903861Y1110567D1*
X890961D1*
Y1080423D1*
X901009Y1096208D2*
X911057Y1080423D1*
X920321Y1104797D2*
X923206Y1106256D1*
X927517Y1110534D1*
Y1080423D1*
X945402Y1110534D2*
X941091Y1109108D1*
X938206Y1104797D1*
X936780Y1097634D1*
Y1093323D1*
X938206Y1086160D1*
X941091Y1081849D1*
X945402Y1080423D1*
X948254D1*
X952565Y1081849D1*
X955417Y1086160D1*
X956876Y1093323D1*
Y1097634D1*
X955417Y1104797D1*
X952565Y1109108D1*
X948254Y1110534D1*
X945402D1*
X955417Y1104797D2*
X938206Y1086160D1*
X973303Y1110534D2*
X969025Y1109108D1*
X967566Y1106256D1*
Y1103371D1*
X969025Y1100519D1*
X971877Y1099060D1*
X977614Y1097634D1*
X981925Y1096208D1*
X984777Y1093323D1*
X986203Y1090471D1*
Y1086160D1*
X984777Y1083308D1*
X983351Y1081849D1*
X979040Y1080423D1*
X973303D1*
X969025Y1081849D1*
X967566Y1083308D1*
X966140Y1086160D1*
Y1090471D1*
X967566Y1093323D1*
X970451Y1096208D1*
X974729Y1097634D1*
X980466Y1099060D1*
X983351Y1100519D1*
X984777Y1103371D1*
Y1106256D1*
X983351Y1109108D1*
X979040Y1110534D1*
X973303D1*
X1106940Y2130240D2*
Y2143140D1*
X1105481Y2147451D1*
X1104055Y2148910D1*
X1101203Y2150336D1*
X1098318D1*
X1095466Y2148910D1*
X1094007Y2147451D1*
X1092581Y2143140D1*
Y2130240D1*
X1122725D1*
X1106940Y2140288D2*
X1122725Y2150336D1*
X1098351Y2159600D2*
X1096892Y2162485D1*
X1092614Y2166796D1*
X1122725D1*
X1092614Y2184681D2*
X1094040Y2180370D1*
X1098351Y2177485D1*
X1105514Y2176059D1*
X1109825D1*
X1116988Y2177485D1*
X1121299Y2180370D1*
X1122725Y2184681D1*
Y2187533D1*
X1121299Y2191844D1*
X1116988Y2194696D1*
X1109825Y2196155D1*
X1105514D1*
X1098351Y2194696D1*
X1094040Y2191844D1*
X1092614Y2187533D1*
Y2184681D1*
X1098351Y2194696D2*
X1116988Y2177485D1*
X1102629Y2224089D2*
X1106940Y2222630D1*
X1109825Y2219778D1*
X1111251Y2215467D1*
Y2214041D1*
X1109825Y2209730D1*
X1106940Y2206878D1*
X1102629Y2205419D1*
X1101203D1*
X1096892Y2206878D1*
X1094040Y2209730D1*
X1092614Y2214041D1*
Y2215467D1*
X1094040Y2219778D1*
X1096892Y2222630D1*
X1102629Y2224089D1*
X1109825D1*
X1116988Y2222630D1*
X1121299Y2219778D1*
X1122725Y2215467D1*
Y2212615D1*
X1121299Y2208304D1*
X1118414Y2206878D1*
X1041192Y945131D2*
Y958031D1*
X1039733Y962342D1*
X1038307Y963801D1*
X1035455Y965227D1*
X1032570D1*
X1029718Y963801D1*
X1028259Y962342D1*
X1026833Y958031D1*
Y945131D1*
X1056977D1*
X1041192Y955179D2*
X1056977Y965227D1*
X1032603Y974490D2*
X1031144Y977375D1*
X1026866Y981686D1*
X1056977D1*
X1032603Y990950D2*
X1031144Y993835D1*
X1026866Y998146D1*
X1056977D1*
X1026866Y1016032D2*
X1028292Y1011721D1*
X1032603Y1008836D1*
X1039766Y1007410D1*
X1044077D1*
X1051240Y1008835D1*
X1055551Y1011721D1*
X1056977Y1016032D1*
Y1018883D1*
X1055551Y1023195D1*
X1051240Y1026046D1*
X1044077Y1027506D1*
X1039766D1*
X1032603Y1026046D1*
X1028292Y1023195D1*
X1026866Y1018884D1*
Y1016032D1*
X1032603Y1026046D2*
X1051240Y1008835D1*
X831940Y2142427D2*
Y2155327D1*
X830481Y2159638D1*
X829055Y2161097D1*
X826203Y2162523D1*
X823318D1*
X820466Y2161097D1*
X819007Y2159638D1*
X817581Y2155327D1*
Y2142427D1*
X847725D1*
X831940Y2152475D2*
X847725Y2162523D1*
X823351Y2171787D2*
X821892Y2174672D1*
X817614Y2178983D1*
X847725D1*
X823351Y2188246D2*
X821892Y2191131D1*
X817614Y2195442D1*
X847725D1*
X823351Y2204706D2*
X821892Y2207591D1*
X817614Y2211902D1*
X847725D1*
X1119440Y2448477D2*
Y2461377D1*
X1117981Y2465688D1*
X1116555Y2467147D1*
X1113703Y2468573D1*
X1110818D1*
X1107966Y2467147D1*
X1106507Y2465688D1*
X1105081Y2461377D1*
Y2448477D1*
X1135225D1*
X1119440Y2458525D2*
X1135225Y2468573D1*
X1110851Y2477837D2*
X1109392Y2480722D1*
X1105114Y2485033D1*
X1135225D1*
X1110851Y2494296D2*
X1109392Y2497181D1*
X1105114Y2501492D1*
X1135225D1*
X1112277Y2512215D2*
X1110851D1*
X1107966Y2513641D1*
X1106540Y2515067D1*
X1105114Y2517952D1*
Y2523689D1*
X1106540Y2526541D1*
X1107966Y2527967D1*
X1110851Y2529426D1*
X1113703D1*
X1116588Y2527967D1*
X1120866Y2525115D1*
X1135225Y2510756D1*
Y2530852D1*
X3131940Y1981548D2*
Y1994448D1*
X3130481Y1998759D1*
X3129055Y2000218D1*
X3126203Y2001644D1*
X3123318D1*
X3120466Y2000218D1*
X3119007Y1998759D1*
X3117581Y1994448D1*
Y1981548D1*
X3147725D1*
X3131940Y1991596D2*
X3147725Y2001644D1*
X3123351Y2010908D2*
X3121892Y2013793D1*
X3117614Y2018104D1*
X3147725D1*
X3123351Y2027367D2*
X3121892Y2030252D1*
X3117614Y2034563D1*
X3147725D1*
X3117614Y2046712D2*
Y2062464D1*
X3129088Y2053875D1*
Y2058186D1*
X3130514Y2061038D1*
X3131940Y2062464D1*
X3136251Y2063923D1*
X3139103D1*
X3143414Y2062464D1*
X3146299Y2059612D1*
X3147725Y2055301D1*
Y2050990D1*
X3146299Y2046712D1*
X3144840Y2045286D1*
X3141988Y2043827D1*
X1119440Y2310264D2*
Y2323164D1*
X1117981Y2327475D1*
X1116555Y2328934D1*
X1113703Y2330360D1*
X1110818D1*
X1107966Y2328934D1*
X1106507Y2327475D1*
X1105081Y2323164D1*
Y2310264D1*
X1135225D1*
X1119440Y2320312D2*
X1135225Y2330360D1*
X1110851Y2339624D2*
X1109392Y2342509D1*
X1105114Y2346820D1*
X1135225D1*
X1110851Y2356083D2*
X1109392Y2358968D1*
X1105114Y2363280D1*
X1135225Y2363279D1*
Y2386902D2*
X1105114D1*
X1125177Y2372543D1*
Y2394065D1*
X1257631Y1096208D2*
X1270531D1*
X1274842Y1097667D1*
X1276301Y1099093D1*
X1277727Y1101945D1*
Y1104830D1*
X1276301Y1107682D1*
X1274842Y1109141D1*
X1270531Y1110567D1*
X1257631D1*
Y1080423D1*
X1267679Y1096208D2*
X1277727Y1080423D1*
X1286990Y1104797D2*
X1289875Y1106256D1*
X1294186Y1110534D1*
Y1080423D1*
X1303450Y1104797D2*
X1306335Y1106256D1*
X1310646Y1110534D1*
Y1080423D1*
X1337120Y1110534D2*
X1322795D1*
X1321369Y1097634D1*
X1322795Y1099060D1*
X1327106Y1100519D1*
X1331383D1*
X1335695Y1099060D1*
X1338580Y1096208D1*
X1340006Y1091897D1*
Y1089045D1*
X1338580Y1084734D1*
X1335695Y1081849D1*
X1331383Y1080423D1*
X1327106D1*
X1322795Y1081849D1*
X1321369Y1083308D1*
X1319910Y1086160D1*
X1206940Y2136707D2*
Y2149607D1*
X1205481Y2153918D1*
X1204055Y2155377D1*
X1201203Y2156803D1*
X1198318D1*
X1195466Y2155377D1*
X1194007Y2153918D1*
X1192581Y2149607D1*
Y2136707D1*
X1222725D1*
X1206940Y2146755D2*
X1222725Y2156803D1*
X1198351Y2166066D2*
X1196892Y2168951D1*
X1192614Y2173262D1*
X1222725D1*
X1198351Y2182526D2*
X1196892Y2185411D1*
X1192614Y2189722D1*
X1222725D1*
X1196892Y2216196D2*
X1194040Y2214771D1*
X1192614Y2210460D1*
Y2207608D1*
X1194040Y2203297D1*
X1198351Y2200412D1*
X1205514Y2198986D1*
X1212677D1*
X1218414Y2200412D1*
X1221299Y2203297D1*
X1222725Y2207608D1*
Y2209034D1*
X1221299Y2213311D1*
X1218414Y2216196D1*
X1214103Y2217622D1*
X1212677D1*
X1208366Y2216196D1*
X1205514Y2213311D1*
X1204088Y2209034D1*
Y2207608D1*
X1205514Y2203297D1*
X1208366Y2200412D1*
X1212677Y2198986D1*
X1416192Y945131D2*
Y958031D1*
X1414733Y962342D1*
X1413307Y963801D1*
X1410455Y965227D1*
X1407570D1*
X1404718Y963801D1*
X1403259Y962342D1*
X1401833Y958031D1*
Y945131D1*
X1431977D1*
X1416192Y955179D2*
X1431977Y965227D1*
X1407603Y974490D2*
X1406144Y977375D1*
X1401866Y981686D1*
X1431977D1*
X1407603Y990950D2*
X1406144Y993835D1*
X1401866Y998146D1*
X1431977D1*
Y1013147D2*
X1401866Y1027506D1*
Y1007410D1*
X1481940Y2135994D2*
Y2148894D1*
X1480481Y2153205D1*
X1479055Y2154664D1*
X1476203Y2156090D1*
X1473318D1*
X1470466Y2154664D1*
X1469007Y2153205D1*
X1467581Y2148894D1*
Y2135994D1*
X1497725D1*
X1481940Y2146042D2*
X1497725Y2156090D1*
X1473351Y2165353D2*
X1471892Y2168238D1*
X1467614Y2172549D1*
X1497725D1*
X1473351Y2181813D2*
X1471892Y2184698D1*
X1467614Y2189009D1*
X1497725D1*
X1467614Y2205436D2*
X1469040Y2201158D1*
X1471892Y2199699D1*
X1474777D1*
X1477629Y2201158D1*
X1479088Y2204010D1*
X1480514Y2209747D1*
X1481940Y2214058D1*
X1484825Y2216909D1*
X1487677Y2218335D1*
X1491988D1*
X1494840Y2216909D1*
X1496299Y2215483D1*
X1497725Y2211172D1*
Y2205435D1*
X1496299Y2201158D1*
X1494840Y2199699D1*
X1491988Y2198273D1*
X1487677D1*
X1484825Y2199699D1*
X1481940Y2202584D1*
X1480514Y2206861D1*
X1479088Y2212598D1*
X1477629Y2215484D1*
X1474777Y2216909D1*
X1471892D1*
X1469040Y2215484D1*
X1467614Y2211173D1*
Y2205436D1*
X994440Y2449190D2*
Y2462090D1*
X992981Y2466401D1*
X991555Y2467860D1*
X988703Y2469286D1*
X985818D1*
X982966Y2467860D1*
X981507Y2466401D1*
X980081Y2462090D1*
Y2449190D1*
X1010225D1*
X994440Y2459238D2*
X1010225Y2469286D1*
X985851Y2478550D2*
X984392Y2481435D1*
X980114Y2485746D1*
X1010225D1*
X985851Y2495009D2*
X984392Y2497894D1*
X980114Y2502205D1*
X1010225D1*
X990129Y2530139D2*
X994440Y2528680D1*
X997325Y2525828D1*
X998751Y2521517D1*
Y2520091D1*
X997325Y2515780D1*
X994440Y2512928D1*
X990129Y2511469D1*
X988703D1*
X984392Y2512928D1*
X981540Y2515780D1*
X980114Y2520091D1*
Y2521517D1*
X981540Y2525828D1*
X984392Y2528680D1*
X990129Y2530139D1*
X997325D1*
X1004488Y2528680D1*
X1008799Y2525828D1*
X1010225Y2521517D1*
Y2518665D1*
X1008799Y2514354D1*
X1005914Y2512928D1*
X3756940Y1950098D2*
Y1962998D1*
X3755481Y1967309D1*
X3754055Y1968768D1*
X3751203Y1970194D1*
X3748318D1*
X3745466Y1968768D1*
X3744007Y1967309D1*
X3742581Y1962998D1*
Y1950098D1*
X3772725D1*
X3756940Y1960146D2*
X3772725Y1970194D1*
X3748351Y1979458D2*
X3746892Y1982343D1*
X3742614Y1986654D1*
X3772725D1*
X3749777Y1997376D2*
X3748351D1*
X3745466Y1998802D1*
X3744040Y2000228D1*
X3742614Y2003113D1*
Y2008850D1*
X3744040Y2011702D1*
X3745466Y2013128D1*
X3748351Y2014587D1*
X3751203D1*
X3754088Y2013128D1*
X3758366Y2010276D1*
X3772725Y1995917D1*
Y2016013D1*
X3742614Y2033899D2*
X3744040Y2029588D1*
X3748351Y2026703D1*
X3755514Y2025277D1*
X3759825D1*
X3766988Y2026703D1*
X3771299Y2029588D1*
X3772725Y2033899D1*
Y2036751D1*
X3771299Y2041062D1*
X3766988Y2043914D1*
X3759825Y2045373D1*
X3755514D1*
X3748351Y2043914D1*
X3744040Y2041062D1*
X3742614Y2036751D1*
Y2033899D1*
X3748351Y2043914D2*
X3766988Y2026703D1*
X994440Y2319048D2*
Y2331948D1*
X992981Y2336259D1*
X991555Y2337718D1*
X988703Y2339144D1*
X985818D1*
X982966Y2337718D1*
X981507Y2336259D1*
X980081Y2331948D1*
Y2319048D1*
X1010225D1*
X994440Y2329096D2*
X1010225Y2339144D1*
X985851Y2348408D2*
X984392Y2351293D1*
X980114Y2355604D1*
X1010225D1*
X987277Y2366326D2*
X985851D1*
X982966Y2367752D1*
X981540Y2369178D1*
X980114Y2372063D1*
Y2377800D1*
X981540Y2380652D1*
X982966Y2382078D1*
X985851Y2383537D1*
X988703D1*
X991588Y2382078D1*
X995866Y2379226D1*
X1010225Y2364867D1*
Y2384963D1*
X985851Y2394227D2*
X984392Y2397112D1*
X980114Y2401423D1*
X1010225D1*
X1638681Y1096208D2*
X1651581D1*
X1655892Y1097667D1*
X1657351Y1099093D1*
X1658777Y1101945D1*
Y1104830D1*
X1657351Y1107682D1*
X1655892Y1109141D1*
X1651581Y1110567D1*
X1638681D1*
Y1080423D1*
X1648729Y1096208D2*
X1658777Y1080423D1*
X1668040Y1104797D2*
X1670925Y1106256D1*
X1675236Y1110534D1*
Y1080423D1*
X1685959Y1103371D2*
Y1104797D1*
X1687385Y1107682D1*
X1688811Y1109108D1*
X1691696Y1110534D1*
X1697433D1*
X1700285Y1109108D1*
X1701711Y1107682D1*
X1703170Y1104797D1*
Y1101945D1*
X1701711Y1099060D1*
X1698859Y1094782D1*
X1684500Y1080423D1*
X1704596D1*
X1715319Y1103371D2*
Y1104797D1*
X1716745Y1107682D1*
X1718171Y1109108D1*
X1721056Y1110534D1*
X1726793D1*
X1729644Y1109108D1*
X1731070Y1107682D1*
X1732530Y1104797D1*
Y1101945D1*
X1731070Y1099060D1*
X1728219Y1094782D1*
X1713859Y1080423D1*
X1733955D1*
X1306940Y2129527D2*
Y2142427D1*
X1305481Y2146738D1*
X1304055Y2148197D1*
X1301203Y2149623D1*
X1298318D1*
X1295466Y2148197D1*
X1294007Y2146738D1*
X1292581Y2142427D1*
Y2129527D1*
X1322725D1*
X1306940Y2139575D2*
X1322725Y2149623D1*
X1298351Y2158887D2*
X1296892Y2161772D1*
X1292614Y2166083D1*
X1322725D1*
X1299777Y2176806D2*
X1298351D1*
X1295466Y2178232D1*
X1294040Y2179657D1*
X1292614Y2182543D1*
Y2188280D1*
X1294040Y2191131D1*
X1295466Y2192557D1*
X1298351Y2194016D1*
X1301203D1*
X1304088Y2192557D1*
X1308366Y2189705D1*
X1322725Y2175346D1*
Y2195442D1*
X1292614Y2207591D2*
Y2223343D1*
X1304088Y2214754D1*
Y2219065D1*
X1305514Y2221917D1*
X1306940Y2223343D1*
X1311251Y2224802D1*
X1314103D1*
X1318414Y2223343D1*
X1321299Y2220491D1*
X1322725Y2216180D1*
Y2211869D1*
X1321299Y2207591D1*
X1319840Y2206165D1*
X1316988Y2204706D1*
X1816192Y937968D2*
Y950868D1*
X1814733Y955179D1*
X1813307Y956638D1*
X1810455Y958064D1*
X1807570D1*
X1804718Y956638D1*
X1803259Y955179D1*
X1801833Y950868D1*
Y937968D1*
X1831977D1*
X1816192Y948016D2*
X1831977Y958064D1*
X1807603Y967327D2*
X1806144Y970212D1*
X1801866Y974523D1*
X1831977D1*
X1809029Y985246D2*
X1807603D1*
X1804718Y986672D1*
X1803292Y988098D1*
X1801866Y990983D1*
Y996720D1*
X1803292Y999572D1*
X1804718Y1000998D1*
X1807603Y1002457D1*
X1810455D1*
X1813340Y1000998D1*
X1817618Y998146D1*
X1831977Y983787D1*
Y1003883D1*
Y1027506D2*
X1801866D1*
X1821929Y1013147D1*
Y1034668D1*
X1394440Y2129527D2*
Y2142427D1*
X1392981Y2146738D1*
X1391555Y2148197D1*
X1388703Y2149623D1*
X1385818D1*
X1382966Y2148197D1*
X1381507Y2146738D1*
X1380081Y2142427D1*
Y2129527D1*
X1410225D1*
X1394440Y2139575D2*
X1410225Y2149623D1*
X1385851Y2158887D2*
X1384392Y2161772D1*
X1380114Y2166083D1*
X1410225D1*
X1387277Y2176806D2*
X1385851D1*
X1382966Y2178232D1*
X1381540Y2179657D1*
X1380114Y2182543D1*
Y2188280D1*
X1381540Y2191131D1*
X1382966Y2192557D1*
X1385851Y2194016D1*
X1388703D1*
X1391588Y2192557D1*
X1395866Y2189705D1*
X1410225Y2175346D1*
Y2195442D1*
X1380114Y2221917D2*
Y2207591D1*
X1393014Y2206165D1*
X1391588Y2207591D1*
X1390129Y2211902D1*
Y2216180D1*
X1391588Y2220491D1*
X1394440Y2223376D1*
X1398751Y2224802D1*
X1401603D1*
X1405914Y2223376D1*
X1408799Y2220491D1*
X1410225Y2216180D1*
Y2211902D1*
X1408799Y2207591D1*
X1407340Y2206165D1*
X1404488Y2204706D1*
X869440Y2442757D2*
Y2455657D1*
X867981Y2459968D1*
X866555Y2461427D1*
X863703Y2462853D1*
X860818D1*
X857966Y2461427D1*
X856507Y2459968D1*
X855081Y2455657D1*
Y2442757D1*
X885225D1*
X869440Y2452805D2*
X885225Y2462853D1*
X860851Y2472116D2*
X859392Y2475001D1*
X855114Y2479312D1*
X885225D1*
X862277Y2490035D2*
X860851D1*
X857966Y2491461D1*
X856540Y2492887D1*
X855114Y2495772D1*
Y2501509D1*
X856540Y2504361D1*
X857966Y2505787D1*
X860851Y2507246D1*
X863703D1*
X866588Y2505787D1*
X870866Y2502935D1*
X885225Y2488576D1*
Y2508672D1*
X859392Y2535146D2*
X856540Y2533720D1*
X855114Y2529409D1*
Y2526558D1*
X856540Y2522247D1*
X860851Y2519361D1*
X868014Y2517936D1*
X875177D1*
X880914Y2519361D1*
X883799Y2522247D1*
X885225Y2526558D1*
Y2527983D1*
X883799Y2532261D1*
X880914Y2535146D1*
X876603Y2536572D1*
X875177D1*
X870866Y2535146D1*
X868014Y2532261D1*
X866588Y2527984D1*
Y2526558D1*
X868014Y2522247D1*
X870866Y2519361D1*
X875177Y2517936D1*
X869440Y2312598D2*
Y2325498D1*
X867981Y2329809D1*
X866555Y2331268D1*
X863703Y2332694D1*
X860818D1*
X857966Y2331268D1*
X856507Y2329809D1*
X855081Y2325498D1*
Y2312598D1*
X885225D1*
X869440Y2322646D2*
X885225Y2332694D1*
X860851Y2341958D2*
X859392Y2344843D1*
X855114Y2349154D1*
X885225D1*
X862277Y2359876D2*
X860851D1*
X857966Y2361302D1*
X856540Y2362728D1*
X855114Y2365613D1*
Y2371350D1*
X856540Y2374202D1*
X857966Y2375628D1*
X860851Y2377087D1*
X863703D1*
X866588Y2375628D1*
X870866Y2372776D1*
X885225Y2358417D1*
Y2378513D1*
Y2393514D2*
X855114Y2407873D1*
Y2387777D1*
X3769440Y2604544D2*
Y2617444D1*
X3767981Y2621755D1*
X3766555Y2623214D1*
X3763703Y2624640D1*
X3760818D1*
X3757966Y2623214D1*
X3756507Y2621755D1*
X3755081Y2617444D1*
Y2604544D1*
X3785225D1*
X3769440Y2614592D2*
X3785225Y2624640D1*
X3760851Y2633903D2*
X3759392Y2636788D1*
X3755114Y2641099D1*
X3785225D1*
X3762277Y2651822D2*
X3760851D1*
X3757966Y2653248D1*
X3756540Y2654674D1*
X3755114Y2657559D1*
Y2663296D1*
X3756540Y2666148D1*
X3757966Y2667574D1*
X3760851Y2669033D1*
X3763703D1*
X3766588Y2667574D1*
X3770866Y2664722D1*
X3785225Y2650363D1*
Y2670459D1*
X3755114Y2686885D2*
X3756540Y2682608D1*
X3759392Y2681148D1*
X3762277D1*
X3765129Y2682608D1*
X3766588Y2685460D1*
X3768014Y2691196D1*
X3769440Y2695508D1*
X3772325Y2698359D1*
X3775177Y2699785D1*
X3779488D1*
X3782340Y2698359D1*
X3783799Y2696933D1*
X3785225Y2692622D1*
Y2686885D1*
X3783799Y2682608D1*
X3782340Y2681148D1*
X3779488Y2679723D1*
X3775177D1*
X3772325Y2681148D1*
X3769440Y2684034D1*
X3768014Y2688311D1*
X3766588Y2694048D1*
X3765129Y2696933D1*
X3762277Y2698359D1*
X3759392D1*
X3756540Y2696933D1*
X3755114Y2692622D1*
Y2686885D1*
X3529527Y2830460D2*
X3542427D1*
X3546738Y2831919D1*
X3548197Y2833345D1*
X3549623Y2836197D1*
Y2839082D1*
X3548197Y2841934D1*
X3546738Y2843393D1*
X3542427Y2844819D1*
X3529527D1*
Y2814675D1*
X3539575Y2830460D2*
X3549623Y2814675D1*
X3560346Y2837623D2*
Y2839049D1*
X3561772Y2841934D1*
X3563198Y2843360D1*
X3566083Y2844786D1*
X3571820D1*
X3574672Y2843360D1*
X3576098Y2841934D1*
X3577557Y2839049D1*
Y2836197D1*
X3576098Y2833312D1*
X3573246Y2829034D1*
X3558887Y2814675D1*
X3578983D1*
X3596868Y2844786D2*
X3592557Y2843360D1*
X3589672Y2839049D1*
X3588246Y2831886D1*
Y2827575D1*
X3589672Y2820412D1*
X3592557Y2816101D1*
X3596868Y2814675D1*
X3599720D1*
X3604031Y2816101D1*
X3606883Y2820412D1*
X3608342Y2827575D1*
Y2831886D1*
X3606883Y2839049D1*
X3604031Y2843360D1*
X3599720Y2844786D1*
X3596868D1*
X3606883Y2839049D2*
X3589672Y2820412D1*
X3617606Y2839049D2*
X3620491Y2840508D1*
X3624802Y2844786D1*
Y2814675D1*
X3069440Y2756148D2*
Y2769048D1*
X3067981Y2773359D1*
X3066555Y2774818D1*
X3063703Y2776244D1*
X3060818D1*
X3057966Y2774818D1*
X3056507Y2773359D1*
X3055081Y2769048D1*
Y2756148D1*
X3085225D1*
X3069440Y2766196D2*
X3085225Y2776244D1*
X3062277Y2786967D2*
X3060851D1*
X3057966Y2788393D1*
X3056540Y2789819D1*
X3055114Y2792704D1*
Y2798441D1*
X3056540Y2801293D1*
X3057966Y2802719D1*
X3060851Y2804178D1*
X3063703D1*
X3066588Y2802719D1*
X3070866Y2799867D1*
X3085225Y2785508D1*
Y2805604D1*
X3055114Y2823489D2*
X3056540Y2819178D1*
X3060851Y2816293D1*
X3068014Y2814867D1*
X3072325D1*
X3079488Y2816293D1*
X3083799Y2819178D1*
X3085225Y2823489D1*
Y2826341D1*
X3083799Y2830652D1*
X3079488Y2833504D1*
X3072325Y2834963D1*
X3068014D1*
X3060851Y2833504D1*
X3056540Y2830652D1*
X3055114Y2826341D1*
Y2823489D1*
X3060851Y2833504D2*
X3079488Y2816293D1*
X3062277Y2845686D2*
X3060851D1*
X3057966Y2847112D1*
X3056540Y2848538D1*
X3055114Y2851423D1*
Y2857160D1*
X3056540Y2860012D1*
X3057966Y2861438D1*
X3060851Y2862897D1*
X3063703D1*
X3066588Y2861438D1*
X3070866Y2858586D1*
X3085225Y2844227D1*
Y2864323D1*
X594440Y2723077D2*
Y2735977D1*
X592981Y2740288D1*
X591555Y2741747D1*
X588703Y2743173D1*
X585818D1*
X582966Y2741747D1*
X581507Y2740288D1*
X580081Y2735977D1*
Y2723077D1*
X610225D1*
X594440Y2733125D2*
X610225Y2743173D1*
X587277Y2753896D2*
X585851D1*
X582966Y2755322D1*
X581540Y2756748D1*
X580114Y2759633D1*
Y2765370D1*
X581540Y2768222D1*
X582966Y2769648D1*
X585851Y2771107D1*
X588703D1*
X591588Y2769648D1*
X595866Y2766796D1*
X610225Y2752437D1*
Y2772533D1*
X580114Y2790418D2*
X581540Y2786107D1*
X585851Y2783222D1*
X593014Y2781796D1*
X597325D1*
X604488Y2783222D1*
X608799Y2786107D1*
X610225Y2790418D1*
Y2793270D1*
X608799Y2797581D1*
X604488Y2800433D1*
X597325Y2801892D1*
X593014D1*
X585851Y2800433D1*
X581540Y2797581D1*
X580114Y2793270D1*
Y2790418D1*
X585851Y2800433D2*
X604488Y2783222D1*
X580114Y2814041D2*
Y2829793D1*
X591588Y2821204D1*
Y2825515D1*
X593014Y2828367D1*
X594440Y2829793D1*
X598751Y2831252D1*
X601603D1*
X605914Y2829793D1*
X608799Y2826941D1*
X610225Y2822630D1*
Y2818319D1*
X608799Y2814041D1*
X607340Y2812615D1*
X604488Y2811156D1*
X1106460Y3317949D2*
Y3287805D1*
X1096412Y3317949D2*
X1116508D1*
X1127230Y3310753D2*
Y3312179D1*
X1128656Y3315064D1*
X1130082Y3316490D1*
X1132967Y3317916D1*
X1138704D1*
X1141556Y3316490D1*
X1142982Y3315064D1*
X1144441Y3312179D1*
Y3309327D1*
X1142982Y3306442D1*
X1140130Y3302164D1*
X1125771Y3287805D1*
X1145867D1*
X1163753Y3317916D2*
X1159442Y3316490D1*
X1156557Y3312179D1*
X1155131Y3305016D1*
Y3300705D1*
X1156557Y3293542D1*
X1159442Y3289231D1*
X1163753Y3287805D1*
X1166605D1*
X1170916Y3289231D1*
X1173768Y3293542D1*
X1175227Y3300705D1*
Y3305016D1*
X1173768Y3312179D1*
X1170916Y3316490D1*
X1166605Y3317916D1*
X1163753D1*
X1173768Y3312179D2*
X1156557Y3293542D1*
X1184490Y3312179D2*
X1187375Y3313638D1*
X1191686Y3317916D1*
Y3287805D1*
X3369221Y3173561D2*
Y3152039D1*
X3370647Y3147728D1*
X3373532Y3144876D1*
X3377843Y3143417D1*
X3380695D1*
X3385006Y3144876D1*
X3387891Y3147728D1*
X3389317Y3152039D1*
Y3173561D1*
X3398581Y3167791D2*
X3401466Y3169250D1*
X3405777Y3173528D1*
Y3143417D1*
X1831472Y3189602D2*
Y3168080D1*
X1832898Y3163769D1*
X1835783Y3160917D1*
X1840094Y3159458D1*
X1842946D1*
X1847257Y3160917D1*
X1850142Y3163769D1*
X1851568Y3168080D1*
Y3189602D1*
X1862291Y3182406D2*
Y3183832D1*
X1863717Y3186717D1*
X1865143Y3188143D1*
X1868028Y3189569D1*
X1873765D1*
X1876617Y3188143D1*
X1878043Y3186717D1*
X1879502Y3183832D1*
Y3180980D1*
X1878043Y3178095D1*
X1875191Y3173817D1*
X1860832Y3159458D1*
X1880928D1*
X1506472Y3189602D2*
Y3168080D1*
X1507898Y3163769D1*
X1510783Y3160917D1*
X1515094Y3159458D1*
X1517946D1*
X1522257Y3160917D1*
X1525142Y3163769D1*
X1526568Y3168080D1*
Y3189602D1*
X1538717Y3189569D2*
X1554469D1*
X1545880Y3178095D1*
X1550191D1*
X1553043Y3176669D1*
X1554469Y3175243D1*
X1555928Y3170932D1*
Y3168080D1*
X1554469Y3163769D1*
X1551617Y3160884D1*
X1547306Y3159458D1*
X1542995D1*
X1538717Y3160884D1*
X1537291Y3162343D1*
X1535832Y3165195D1*
X1726806Y3372554D2*
Y3351032D1*
X1728232Y3346721D1*
X1731118Y3343869D1*
X1735429Y3342410D1*
X1738280D1*
X1742591Y3343869D1*
X1745477Y3346721D1*
X1746902Y3351032D1*
Y3372554D1*
X1770525Y3342410D2*
Y3372521D1*
X1756166Y3352458D1*
X1777688D1*
X1402519Y3372554D2*
Y3351032D1*
X1403945Y3346721D1*
X1406830Y3343869D1*
X1411142Y3342410D1*
X1413993D1*
X1418304Y3343869D1*
X1421190Y3346721D1*
X1422615Y3351032D1*
Y3372554D1*
X1449090Y3372521D2*
X1434764D1*
X1433338Y3359621D1*
X1434764Y3361047D1*
X1439075Y3362506D1*
X1443353D1*
X1447664Y3361047D1*
X1450549Y3358195D1*
X1451975Y3353884D1*
Y3351032D1*
X1450549Y3346721D1*
X1447664Y3343836D1*
X1443353Y3342410D1*
X1439075D1*
X1434764Y3343836D1*
X1433338Y3345295D1*
X1431879Y3348147D1*
X3308563Y2852102D2*
Y2830580D1*
X3309989Y2826269D1*
X3312874Y2823417D1*
X3317185Y2821958D1*
X3320037D1*
X3324348Y2823417D1*
X3327233Y2826269D1*
X3328659Y2830580D1*
Y2852102D1*
X3339381Y2844906D2*
Y2846332D1*
X3340807Y2849217D1*
X3342233Y2850643D1*
X3345118Y2852069D1*
X3350855D1*
X3353707Y2850643D1*
X3355133Y2849217D1*
X3356592Y2846332D1*
Y2843480D1*
X3355133Y2840595D1*
X3352281Y2836317D1*
X3337922Y2821958D1*
X3358018D1*
X3375904Y2852069D2*
X3371593Y2850643D1*
X3368708Y2846332D1*
X3367282Y2839169D1*
Y2834858D1*
X3368708Y2827695D1*
X3371593Y2823384D1*
X3375904Y2821958D1*
X3378756D1*
X3383067Y2823384D1*
X3385919Y2827695D1*
X3387378Y2834858D1*
Y2839169D1*
X3385919Y2846332D1*
X3383067Y2850643D1*
X3378756Y2852069D1*
X3375904D1*
X3385919Y2846332D2*
X3368708Y2827695D1*
X3396641Y2846332D2*
X3399526Y2847791D1*
X3403837Y2852069D1*
Y2821958D1*
X621715Y1239804D2*
X651859Y1251278D1*
X621715Y1262752D1*
Y1280637D2*
X623141Y1277752D1*
X626026Y1274900D1*
X628878Y1273441D1*
X633189Y1272015D1*
X640385D1*
X644663Y1273441D1*
X647548Y1274900D1*
X650400Y1277752D1*
X651859Y1280637D1*
Y1286374D1*
X650400Y1289226D1*
X647548Y1292111D1*
X644663Y1293537D1*
X640385Y1294963D1*
X633189D1*
X628878Y1293537D1*
X626026Y1292111D1*
X623141Y1289226D1*
X621715Y1286374D1*
Y1280637D1*
X627485Y1304227D2*
X626026Y1307112D1*
X621748Y1311423D1*
X651859D1*
X621748Y1329308D2*
X623174Y1324997D1*
X627485Y1322112D1*
X634648Y1320686D1*
X638959D1*
X646122Y1322112D1*
X650433Y1324997D1*
X651859Y1329308D1*
Y1332160D1*
X650433Y1336471D1*
X646122Y1339323D1*
X638959Y1340782D1*
X634648D1*
X627485Y1339323D1*
X623174Y1336471D1*
X621748Y1332160D1*
Y1329308D1*
X627485Y1339323D2*
X646122Y1322112D1*
X627485Y1350046D2*
X626026Y1352931D1*
X621748Y1357242D1*
X651859D1*
X821715Y1258354D2*
X851859Y1269828D1*
X821715Y1281302D1*
Y1299187D2*
X823141Y1296302D1*
X826026Y1293450D1*
X828878Y1291991D1*
X833189Y1290565D1*
X840385D1*
X844663Y1291991D1*
X847548Y1293450D1*
X850400Y1296302D1*
X851859Y1299187D1*
Y1304924D1*
X850400Y1307776D1*
X847548Y1310661D1*
X844663Y1312087D1*
X840385Y1313513D1*
X833189D1*
X828878Y1312087D1*
X826026Y1310661D1*
X823141Y1307776D1*
X821715Y1304924D1*
Y1299187D1*
X827485Y1322777D2*
X826026Y1325662D1*
X821748Y1329973D1*
X851859D1*
X821748Y1347858D2*
X823174Y1343547D1*
X827485Y1340662D1*
X834648Y1339236D1*
X838959D1*
X846122Y1340662D1*
X850433Y1343547D1*
X851859Y1347858D1*
Y1350710D1*
X850433Y1355021D1*
X846122Y1357873D1*
X838959Y1359332D1*
X834648D1*
X827485Y1357873D1*
X823174Y1355021D1*
X821748Y1350710D1*
Y1347858D1*
X827485Y1357873D2*
X846122Y1340662D1*
X828911Y1370055D2*
X827485D1*
X824600Y1371481D1*
X823174Y1372907D1*
X821748Y1375792D1*
Y1381529D1*
X823174Y1384381D1*
X824600Y1385807D1*
X827485Y1387266D1*
X830337D1*
X833222Y1385807D1*
X837500Y1382955D1*
X851859Y1368596D1*
Y1388692D1*
X1259215Y1258354D2*
X1289359Y1269828D1*
X1259215Y1281302D1*
Y1299187D2*
X1260641Y1296302D1*
X1263526Y1293450D1*
X1266378Y1291991D1*
X1270689Y1290565D1*
X1277885D1*
X1282163Y1291991D1*
X1285048Y1293450D1*
X1287900Y1296302D1*
X1289359Y1299187D1*
Y1304924D1*
X1287900Y1307776D1*
X1285048Y1310661D1*
X1282163Y1312087D1*
X1277885Y1313513D1*
X1270689D1*
X1266378Y1312087D1*
X1263526Y1310661D1*
X1260641Y1307776D1*
X1259215Y1304924D1*
Y1299187D1*
X1264985Y1322777D2*
X1263526Y1325662D1*
X1259248Y1329973D1*
X1289359D1*
X1259248Y1347858D2*
X1260674Y1343547D1*
X1264985Y1340662D1*
X1272148Y1339236D1*
X1276459D1*
X1283622Y1340662D1*
X1287933Y1343547D1*
X1289359Y1347858D1*
Y1350710D1*
X1287933Y1355021D1*
X1283622Y1357873D1*
X1276459Y1359332D1*
X1272148D1*
X1264985Y1357873D1*
X1260674Y1355021D1*
X1259248Y1350710D1*
Y1347858D1*
X1264985Y1357873D2*
X1283622Y1340662D1*
X1259248Y1371481D2*
Y1387233D1*
X1270722Y1378644D1*
Y1382955D1*
X1272148Y1385807D1*
X1273574Y1387233D1*
X1277885Y1388692D1*
X1280737D1*
X1285048Y1387233D1*
X1287933Y1384381D1*
X1289359Y1380070D1*
Y1375759D1*
X1287933Y1371481D1*
X1286474Y1370055D1*
X1283622Y1368596D1*
X1646715Y1257641D2*
X1676859Y1269115D1*
X1646715Y1280589D1*
Y1298474D2*
X1648141Y1295589D1*
X1651026Y1292737D1*
X1653878Y1291278D1*
X1658189Y1289852D1*
X1665385D1*
X1669663Y1291278D1*
X1672548Y1292737D1*
X1675400Y1295589D1*
X1676859Y1298474D1*
Y1304211D1*
X1675400Y1307063D1*
X1672548Y1309948D1*
X1669663Y1311374D1*
X1665385Y1312800D1*
X1658189D1*
X1653878Y1311374D1*
X1651026Y1309948D1*
X1648141Y1307063D1*
X1646715Y1304211D1*
Y1298474D1*
X1652485Y1322064D2*
X1651026Y1324949D1*
X1646748Y1329260D1*
X1676859D1*
X1646748Y1347145D2*
X1648174Y1342834D1*
X1652485Y1339949D1*
X1659648Y1338523D1*
X1663959D1*
X1671122Y1339949D1*
X1675433Y1342834D1*
X1676859Y1347145D1*
Y1349997D1*
X1675433Y1354308D1*
X1671122Y1357160D1*
X1663959Y1358619D1*
X1659648D1*
X1652485Y1357160D1*
X1648174Y1354308D1*
X1646748Y1349997D1*
Y1347145D1*
X1652485Y1357160D2*
X1671122Y1339949D1*
X1676859Y1382242D2*
X1646748D1*
X1666811Y1367883D1*
Y1389405D1*
X3066453Y867473D2*
D97*
X3076070Y872226D1*
X3085576Y881843D1*
X3090440Y891349D1*
X3095193Y905720D1*
Y929707D1*
X3090440Y943966D1*
X3085576Y953583D1*
X3076070Y963089D1*
X3066453Y967953D1*
X3047330D1*
X3037823Y963089D1*
X3028206Y953583D1*
X3023453Y943966D1*
X3018700Y929707D1*
Y905720D1*
X3023453Y891350D1*
X3028206Y881843D1*
X3037823Y872226D1*
X3047329Y867473D1*
X3066453D1*
X3647441Y967502D2*
X3637824Y962749D1*
X3628317Y953132D1*
X3623454Y943625D1*
X3618700Y929255D1*
Y905268D1*
X3623454Y891009D1*
X3628317Y881392D1*
X3637824Y871885D1*
X3647441Y867022D1*
X3666564D1*
X3676070Y871885D1*
X3685687Y881392D1*
X3690440Y891009D1*
X3695193Y905268D1*
Y929255D1*
X3690440Y943625D1*
X3685687Y953132D1*
X3676070Y962749D1*
X3666564Y967502D1*
X3647441D1*
X4247441Y955002D2*
X4237824Y950249D1*
X4228317Y940632D1*
X4223454Y931125D1*
X4218700Y916755D1*
Y892768D1*
X4223454Y878509D1*
X4228317Y868892D1*
X4237824Y859385D1*
X4247441Y854522D1*
X4266564D1*
X4276070Y859385D1*
X4285687Y868892D1*
X4290440Y878509D1*
X4295193Y892768D1*
Y916755D1*
X4290440Y931125D1*
X4285687Y940632D1*
X4276070Y950249D1*
X4266564Y955002D1*
X4247441D1*
X4030160Y3380002D2*
X4020543Y3375249D1*
X4011037Y3365632D1*
X4006173Y3356125D1*
X4001420Y3341755D1*
Y3317768D1*
X4006173Y3303509D1*
X4011037Y3293892D1*
X4020543Y3284385D1*
X4030160Y3279522D1*
X4049283D1*
X4058789Y3284385D1*
X4068406Y3293892D1*
X4073159Y3303509D1*
X4077913Y3317768D1*
Y3341755D1*
X4073159Y3356125D1*
X4068406Y3365632D1*
X4058789Y3375249D1*
X4049283Y3380002D1*
X4030160D1*
X656200Y948268D2*
X665817Y953132D1*
X680187Y967391D1*
Y867022D1*
X1048564Y931015D2*
Y935768D1*
X1053317Y945385D1*
X1058071Y950138D1*
X1067687Y954891D1*
X1086811D1*
X1096317Y950138D1*
X1101070Y945385D1*
X1105934Y935768D1*
Y926262D1*
X1101070Y916645D1*
X1091564Y902385D1*
X1043700Y854522D1*
X1110687D1*
X1465817Y942391D2*
X1518323D1*
X1489694Y904145D1*
X1504064D1*
X1513570Y899392D1*
X1518323Y894638D1*
X1523187Y880268D1*
Y870762D1*
X1518323Y856392D1*
X1508817Y846775D1*
X1494447Y842022D1*
X1480077D1*
X1465817Y846775D1*
X1461064Y851639D1*
X1456200Y861145D1*
X1929064Y854522D2*
Y954891D1*
X1881200Y888015D1*
X1952940D1*
X2198564Y943515D2*
Y948268D1*
X2203317Y957885D1*
X2208071Y962638D1*
X2217687Y967391D1*
X2236811D1*
X2246317Y962638D1*
X2251070Y957885D1*
X2255934Y948268D1*
Y938762D1*
X2251070Y929145D1*
X2241564Y914885D1*
X2193700Y867022D1*
X2260687D1*
X2296429Y943515D2*
Y948268D1*
X2301183Y957885D1*
X2305936Y962638D1*
X2315553Y967391D1*
X2334676D1*
X2344182Y962638D1*
X2348935Y957885D1*
X2353799Y948268D1*
Y938762D1*
X2348935Y929145D1*
X2339429Y914885D1*
X2291566Y867022D1*
X2358552D1*
X2418171Y967391D2*
X2403801Y962638D1*
X2394184Y948268D1*
X2389431Y924392D1*
Y910021D1*
X2394184Y886145D1*
X2403801Y871775D1*
X2418171Y867022D1*
X2427677D1*
X2442047Y871775D1*
X2451554Y886145D1*
X2456417Y910021D1*
Y924392D1*
X2451554Y948268D1*
X2442047Y962638D1*
X2427677Y967391D1*
X2418171D1*
X2451554Y948268D2*
X2394184Y886145D1*
X2487296Y967502D2*
X2525542Y867022D1*
X2563789Y967502D1*
M02*
