<?xml version="1.0" encoding="UTF-8"?>
<!DOCTYPE svg PUBLIC "-//W3C//DTD SVG 1.1//EN" "http://www.w3.org/Graphics/SVG/1.1/DTD/svg11.dtd">

<svg xmlns="http://www.w3.org/2000/svg" xmlns:xlink="http://www.w3.org/1999/xlink" xmlns:xs="http://www.w3.org/2001/XMLSchema" xmlns:wb="http://www.ti.com/webench" version="1.1" width="100%" height="100%" viewBox="0 0 1390.0 565.0" preserveAspectRatio="xMidYMid meet">
  <defs>
    <g id="WB_CONTINUATION">
      <circle xmlns="" opacity="0.01" fill="#ffffff" stroke="#000000" stroke-width="0" cx="0" cy="0" r="14" />
      <line fill="none" stroke="#CC0000" stroke-width="2" x1="0" y1="10" x2="0" y2="-10" />
      <line fill="none" stroke="#CC0000" stroke-width="2" x1="-10" y1="-10" x2="10" y2="-10" />
    </g>
    <g id="WB_BLOCK_IO">
      <circle xmlns="" opacity="0.01" fill="#ffffff" stroke="#000000" stroke-width="0" cx="0" cy="0" r="14" />
      <line stroke="#CC0000" fill="none" stroke-width="2" x1="-5" y1="0" x2="5" y2="0" />
    </g>
    <g id="WB_STARTUP_VOLTAGE_SOURCE">
      <circle xmlns="" opacity="0.01" fill="#ffffff" stroke="#000000" stroke-width="0" cx="0" cy="0" r="14" />
      <circle fill-opacity="0.01" fill="#CC0000" stroke="#CC0000" stroke-width="2" cx="0" cy="0" r="14" />
      <polyline fill="none" stroke="#CC0000" stroke-width="2" points="-6,-11 -6,7 5,9 5,12 " />
      <line fill="none" stroke="#CC0000" stroke-width="2" x1="16" y1="-12" x2="16" y2="-18" />
      <line fill="none" stroke="#CC0000" stroke-width="2" x1="-17" y1="-12" x2="-17" y2="-18" />
      <line fill="none" stroke="#CC0000" stroke-width="2" x1="-14" y1="-15" x2="-20" y2="-15" />
      <line fill="none" stroke="#CC0000" stroke-width="2" x1="-15" y1="0" x2="-30" y2="0" />
      <line fill="none" stroke="#CC0000" stroke-width="2" x1="30" y1="0" x2="15" y2="0" />
    </g>
    <g id="WB_SOURCE_RESISTOR">
      <circle xmlns="" opacity="0.01" fill="#ffffff" stroke="#000000" stroke-width="0" cx="0" cy="0" r="14" />
      <polyline fill="none" stroke="#CC0000" stroke-width="2" stroke-linecap="round" stroke-linejoin="round" points="30,0 20,0 15,-6 7.5,6 0,-6 -7.5,6 -15,-6 -20,0 -30,0" />
    </g>
    <g id="WB_PRIM_STARTUP_VOLTAGE_SOURCE">
      <circle xmlns="" opacity="0.01" fill="#ffffff" stroke="#000000" stroke-width="0" cx="0" cy="0" r="14" />
      <circle fill-opacity="0.01" fill="#CC0000" stroke="#CC0000" stroke-width="2" cx="0" cy="0" r="14" />
      <polyline fill="none" stroke="#CC0000" stroke-width="2" points="-6,-11 -6,7 5,9 5,12 " />
      <line fill="none" stroke="#CC0000" stroke-width="2" x1="16" y1="-12" x2="16" y2="-18" />
      <line fill="none" stroke="#CC0000" stroke-width="2" x1="-17" y1="-12" x2="-17" y2="-18" />
      <line fill="none" stroke="#CC0000" stroke-width="2" x1="-14" y1="-15" x2="-20" y2="-15" />
      <line fill="none" stroke="#CC0000" stroke-width="2" x1="-15" y1="0" x2="-30" y2="0" />
      <line fill="none" stroke="#CC0000" stroke-width="2" x1="30" y1="0" x2="15" y2="0" />
    </g>
    <g id="WB_ZERO_VOLT_SOURCE">
      <circle xmlns="" opacity="0.01" fill="#ffffff" stroke="#000000" stroke-width="0" cx="0" cy="0" r="14" />
      <line stroke="#CC0000" fill="none" stroke-width="2" x1="-5" y1="0" x2="5" y2="0" />
    </g>
    <g id="WB_CURRENT_PROBE">
      <circle xmlns="" opacity="0.01" fill="#ffffff" stroke="#000000" stroke-width="0" cx="0" cy="0" r="14" />
      <line stroke="#CC0000" stroke-width="2" stroke-linecap="square" stroke-linejoin="round" x1="-16" y1="0" x2="-10" y2="0" />
      <polyline stroke="#CC0000" stroke-width="2" stroke-linecap="square" stroke-linejoin="round" points="6,0 3,-3.5 3,3.5 6,0 -6,0 " />
      <line stroke="#CC0000" stroke-width="2" stroke-linecap="square" stroke-linejoin="round" x1="10" y1="0" x2="16" y2="0" />
      <rect stroke-width="1" x="-9.5" y="-7" fill="none" stroke="#CC0000" width="19" height="14" />
    </g>
    <g id="WB_PWL_CURRENT_LOAD">
      <circle xmlns="" opacity="0.01" fill="#ffffff" stroke="#000000" stroke-width="0" cx="0" cy="0" r="14" />
      <circle fill-opacity="0.01" fill="#CC0000" stroke="#CC0000" stroke-width="2" cx="0" cy="0" r="14" />
      <line y1="0" x2="-20" stroke="#CC0000" x1="-30" fill="none" stroke-width="2" y2="0" />
      <line y1="0" x2="20" stroke="#CC0000" x1="30" fill="none" stroke-width="2" y2="0" />
      <polyline stroke="#CC0000" points="-7,6 4,8  " stroke-linejoin="round" fill="none" stroke-width="2" stroke-linecap="round" />
      <polyline stroke="#CC0000" points="-7,-6 4,-8  " stroke-linejoin="round" fill="none" stroke-width="2" stroke-linecap="round" />
      <polyline stroke="#CC0000" points="-20,0 -15,0  " stroke-linejoin="round" fill="none" stroke-width="2" stroke-linecap="round" />
      <polyline stroke="#CC0000" points="20,0 15,0  " stroke-linejoin="round" fill="none" stroke-width="2" stroke-linecap="round" />
      <polyline stroke="#CC0000" points="-7,-6 -7,6  " stroke-linejoin="round" fill="none" stroke-width="2" stroke-linecap="round" />
      <polyline stroke="#CC0000" points="4,-8 4,-11  " stroke-linejoin="round" fill="none" stroke-width="2" stroke-linecap="round" />
      <polyline stroke="#CC0000" points="4,8 4,11  " stroke-linejoin="round" fill="none" stroke-width="2" stroke-linecap="round" />
      <line x1="23" y1="-13" x2="23" y2="-7" stroke="#CC0000" fill="none" stroke-width="2" stroke-linecap="round" />
      <line x1="-23" y1="-13" x2="-23" y2="-7" stroke="#CC0000" fill="none" stroke-width="2" stroke-linecap="round" />
      <line x1="-26" y1="-10" x2="-20" y2="-10" stroke="#CC0000" fill="none" stroke-width="2" stroke-linecap="round" />
    </g>
    <g id="WB_RESISTOR">
      <circle xmlns="" opacity="0.01" fill="#ffffff" stroke="#000000" stroke-width="0" cx="0" cy="0" r="14" />
      <polyline fill="none" stroke="#115566" stroke-width="2" stroke-linecap="round" stroke-linejoin="round" points="30,0 20,0 15,-6 7.5,6 0,-6 -7.5,6 -15,-6 -20,0 -30,0" />
    </g>
    <g id="WB_CURRENT_LOAD">
      <circle xmlns="" opacity="0.01" fill="#ffffff" stroke="#000000" stroke-width="0" cx="0" cy="0" r="14" />
      <path fill="none" stroke="#CC0000" stroke-width="2" stroke-linecap="round" stroke-linejoin="round" d="M-15,0c 0.1, 4.2, 1.6, 7.7, 4.4, 10.6c 2.8, 2.8, 6.4, 4.3, 10.6, 4.4c 4.3-0.1, 7.8-1.6, 10.6 -4.4c 2.9-2.9, 4.3-6.4, 4.4-10.6" />
      <path fill="none" stroke="#CC0000" stroke-width="2" stroke-linecap="round" stroke-linejoin="round" d="M15,0c -0.1,-4.2,-1.6,-7.7,-4.4,-10.6c-2.8,-2.8,-6.4,-4.3,-10.6,-4.4c-4.3,0.1 -7.8,1.6 -10.6,4.4c-2.9,2.9 -4.3,6.4 -4.4,10.6" />
      <line fill="none" stroke="#CC0000" stroke-width="2" x1="30" y1="0" x2="15" y2="0" />
      <line fill="none" stroke="#CC0000" stroke-width="2" x1="-15" y1="0" x2="-30" y2="0" />
      <line fill="none" stroke="#CC0000" stroke-width="2" stroke-linecap="round" stroke-linejoin="round" x1="3" y1="7" x2="12" y2="0" />
      <line fill="none" stroke="#CC0000" stroke-width="2" stroke-linecap="round" stroke-linejoin="round" x1="3" y1="-7" x2="12" y2="0" />
      <line fill="none" stroke="#CC0000" stroke-width="2" stroke-linecap="round" stroke-linejoin="round" x1="12" y1="0" x2="-12" y2="0" />
    </g>
    <g id="WB_GND">
      <circle xmlns="" opacity="0.01" fill="#ffffff" stroke="#000000" stroke-width="0" cx="0" cy="0" r="14" />
      <line fill="none" stroke="black" stroke-width="2" x1="0" y1="-10" x2="0" y2="0" />
      <line fill="none" stroke="black" stroke-width="2" x1="-13" y1="0" x2="13" y2="0" />
      <line fill="none" stroke="black" stroke-width="2" x1="-9" y1="4" x2="9" y2="4" />
      <line fill="none" stroke="black" stroke-width="2" x1="-3" y1="8" x2="3" y2="8" />
    </g>
    <g id="WB_LOAD_RESISTOR">
      <circle xmlns="" opacity="0.01" fill="#ffffff" stroke="#000000" stroke-width="0" cx="0" cy="0" r="14" />
      <polyline fill="none" stroke="#CC0000" stroke-width="2" stroke-linecap="round" stroke-linejoin="round" points="30,0 20,0 15,-6 7.5,6 0,-6 -7.5,6 -15,-6 -20,0 -30,0" />
    </g>
    <g id="WB_PWL_VOLTAGE_SOURCE">
      <circle xmlns="" opacity="0.01" fill="#ffffff" stroke="#000000" stroke-width="0" cx="0" cy="0" r="14" />
      <circle fill-opacity="0.01" fill="#CC0000" stroke="#CC0000" stroke-width="2" cx="0" cy="0" r="14" />
      <line y1="0" x2="-20" stroke="#CC0000" x1="-30" fill="none" stroke-width="2" y2="0" />
      <line y1="0" x2="20" stroke="#CC0000" x1="30" fill="none" stroke-width="2" y2="0" />
      <polyline stroke="#CC0000" points="-7,6 4,8  " stroke-linejoin="round" fill="none" stroke-width="2" stroke-linecap="round" />
      <polyline stroke="#CC0000" points="-7,-6 4,-8  " stroke-linejoin="round" fill="none" stroke-width="2" stroke-linecap="round" />
      <polyline stroke="#CC0000" points="-20,0 -15,0  " stroke-linejoin="round" fill="none" stroke-width="2" stroke-linecap="round" />
      <polyline stroke="#CC0000" points="20,0 15,0  " stroke-linejoin="round" fill="none" stroke-width="2" stroke-linecap="round" />
      <polyline stroke="#CC0000" points="-7,-6 -7,6  " stroke-linejoin="round" fill="none" stroke-width="2" stroke-linecap="round" />
      <polyline stroke="#CC0000" points="4,-8 4,-11  " stroke-linejoin="round" fill="none" stroke-width="2" stroke-linecap="round" />
      <polyline stroke="#CC0000" points="4,8 4,11  " stroke-linejoin="round" fill="none" stroke-width="2" stroke-linecap="round" />
      <line x1="23" y1="-13" x2="23" y2="-7" stroke="#CC0000" fill="none" stroke-width="2" stroke-linecap="round" />
      <line x1="-23" y1="-13" x2="-23" y2="-7" stroke="#CC0000" fill="none" stroke-width="2" stroke-linecap="round" />
      <line x1="-26" y1="-10" x2="-20" y2="-10" stroke="#CC0000" fill="none" stroke-width="2" stroke-linecap="round" />
    </g>
    <g id="WB_PRIM_PWL_VOLTAGE_SOURCE">
      <circle xmlns="" opacity="0.01" fill="#ffffff" stroke="#000000" stroke-width="0" cx="0" cy="0" r="14" />
      <circle fill-opacity="0.01" fill="#CC0000" stroke="#CC0000" stroke-width="2" cx="0" cy="0" r="14" />
      <line y1="0" x2="-20" stroke="#CC0000" x1="-30" fill="none" stroke-width="2" y2="0" />
      <line y1="0" x2="20" stroke="#CC0000" x1="30" fill="none" stroke-width="2" y2="0" />
      <polyline stroke="#CC0000" points="-7,6 4,8  " stroke-linejoin="round" fill="none" stroke-width="2" stroke-linecap="round" />
      <polyline stroke="#CC0000" points="-7,-6 4,-8  " stroke-linejoin="round" fill="none" stroke-width="2" stroke-linecap="round" />
      <polyline stroke="#CC0000" points="-20,0 -15,0  " stroke-linejoin="round" fill="none" stroke-width="2" stroke-linecap="round" />
      <polyline stroke="#CC0000" points="20,0 15,0  " stroke-linejoin="round" fill="none" stroke-width="2" stroke-linecap="round" />
      <polyline stroke="#CC0000" points="-7,-6 -7,6  " stroke-linejoin="round" fill="none" stroke-width="2" stroke-linecap="round" />
      <polyline stroke="#CC0000" points="4,-8 4,-11  " stroke-linejoin="round" fill="none" stroke-width="2" stroke-linecap="round" />
      <polyline stroke="#CC0000" points="4,8 4,11  " stroke-linejoin="round" fill="none" stroke-width="2" stroke-linecap="round" />
      <line x1="23" y1="-13" x2="23" y2="-7" stroke="#CC0000" fill="none" stroke-width="2" stroke-linecap="round" />
      <line x1="-23" y1="-13" x2="-23" y2="-7" stroke="#CC0000" fill="none" stroke-width="2" stroke-linecap="round" />
      <line x1="-26" y1="-10" x2="-20" y2="-10" stroke="#CC0000" fill="none" stroke-width="2" stroke-linecap="round" />
    </g>
    <g id="WB_CAPACITOR">
      <circle xmlns="" opacity="0.01" fill="#ffffff" stroke="#000000" stroke-width="0" cx="0" cy="0" r="14" />
      <line y1="0" x2="20" stroke="#115566" x1="30" fill="none" stroke-width="2" y2="0" />
      <line y1="0" x2="-20" stroke="#115566" x1="-30" fill="none" stroke-width="2" y2="0" />
      <polyline stroke="#115566" points="3,12 3,-12  " stroke-linejoin="round" fill="none" stroke-width="2" stroke-linecap="round" />
      <polyline stroke="#115566" points="-20,0 -3,0  " stroke-linejoin="round" fill="none" stroke-width="2" stroke-linecap="round" />
      <polyline stroke="#115566" points="3,0 20,0  " stroke-linejoin="round" fill="none" stroke-width="2" stroke-linecap="round" />
      <polyline stroke="#115566" points="-3,12 -3,-12  " stroke-linejoin="round" fill="none" stroke-width="2" stroke-linecap="round" />
    </g>
    <g id="WB_INDUCTOR">
      <circle xmlns="" opacity="0.01" fill="#ffffff" stroke="#000000" stroke-width="0" cx="0" cy="0" r="14" />
      <path fill="none" stroke="#115566" stroke-width="2" stroke-linecap="round" stroke-linejoin="round" d="M-10,0c0-0.6-0.2-1.8-0.6-3.3c-0.5-2.4-2-3.7-4.4-4c-2.4,0.3-3.8,1.6-4.3,4c-0.6,2.3-0.8,3.6-0.7,3M-20,0H-30" />
      <path fill="none" stroke="#115566" stroke-width="2" stroke-linecap="round" stroke-linejoin="round" d="M0,0c0-0.6-0.2-1.8-0.6-3.3c-0.5-2.4-2-3.7-4.4-4c-2.4,0.3-3.8,1.6-4.3,4c-0.6,2.3-0.8,3.6-0.7,4" />
      <path fill="none" stroke="#115566" stroke-width="2" stroke-linecap="round" stroke-linejoin="round" d="M10,0c0-0.6-0.2-1.8-0.6-3.3c-0.5-2.4-2-3.7-4.4-4c-2.4,0.3-3.8,1.6-4.3,4c-0.6,2.3-0.8,3.6-0.7,4" />
      <path fill="none" stroke="#115566" stroke-width="2" stroke-linecap="round" stroke-linejoin="round" d="M30,0H20c0-0.6-0.2-1.8-0.6-3.3c-0.5-2.4-2-3.7-4.4-4c-2.4,0.3-3.8,1.6-4.3,4c-0.6,2.3-0.8,3.6-0.7,4" />
      <path fill="none" stroke="#115566" stroke-width="2" stroke-linecap="round" stroke-linejoin="round" d=" M10,0 c0.1,0.4,0.1,0.6,0,0.7" />
      <path fill="none" stroke="#115566" stroke-width="2" stroke-linecap="round" stroke-linejoin="round" d=" M0,0  c0.1,0.4,0.1,0.6,0,0.7" />
      <path fill="none" stroke="#115566" stroke-width="2" stroke-linecap="round" stroke-linejoin="round" d=" M-10,0c0.1,0.4,0.1,0.6,0,0.7" />
    </g>
    <g id="WB_LM5166DRC">
      <circle xmlns="" opacity="0.01" fill="#ffffff" stroke="#000000" stroke-width="0" cx="0" cy="0" r="14" />
      <line fill="none" stroke="#000000" stroke-width="2" stroke-linecap="round" stroke-linejoin="round" x1="-60" y1="70" x2="60" y2="70" />
      <line fill="none" stroke="#000000" stroke-width="2" stroke-linecap="round" stroke-linejoin="round" x1="60" y1="70" x2="60" y2="-70" />
      <line fill="none" stroke="#000000" stroke-width="2" stroke-linecap="round" stroke-linejoin="round" x1="60" y1="-70" x2="-60" y2="-70" />
      <line fill="none" stroke="#000000" stroke-width="2" stroke-linecap="round" stroke-linejoin="round" x1="-60" y1="-70" x2="-60" y2="70" />
      <text id="partNumber_label" x="0" y="-57" style="font-family:arial;font-weight:bold;font-size:12px;text-anchor:middle;">LM5166DRC</text>
      <line fill="none" stroke="#000000" stroke-width="2" stroke-linecap="round" stroke-linejoin="round" x1="80" y1="-50" x2="60" y2="-50" />
      <text id="1" x="56" y="-46" transform="rotate(0,56,-46)" style="font-family:arial;font-weight:normal;font-size:9px;text-anchor:end;">SW</text>
      <line fill="none" stroke="#000000" stroke-width="2" stroke-linecap="round" stroke-linejoin="round" x1="-80" y1="-50" x2="-60" y2="-50" />
      <text id="2" x="-56" y="-46" transform="rotate(0,-56,-46)" style="font-family:arial;font-weight:normal;font-size:9px;text-anchor:start;">VIN</text>
      <line fill="none" stroke="#000000" stroke-width="2" stroke-linecap="round" stroke-linejoin="round" x1="80" y1="20" x2="60" y2="20" />
      <text id="3" x="56" y="24" transform="rotate(0,56,24)" style="font-family:arial;font-weight:normal;font-size:9px;text-anchor:end;">ILIM</text>
      <line fill="none" stroke="#000000" stroke-width="2" stroke-linecap="round" stroke-linejoin="round" x1="80" y1="0" x2="60" y2="0" />
      <text id="4" x="56" y="4" transform="rotate(0,56,4)" style="font-family:arial;font-weight:normal;font-size:9px;text-anchor:end;">SS</text>
      <line fill="none" stroke="#000000" stroke-width="2" stroke-linecap="round" stroke-linejoin="round" x1="-80" y1="50" x2="-60" y2="50" />
      <text id="5" x="-56" y="54" transform="rotate(0,-56,54)" style="font-family:arial;font-weight:normal;font-size:9px;text-anchor:start;">RT</text>
      <line fill="none" stroke="#000000" stroke-width="2" stroke-linecap="round" stroke-linejoin="round" x1="-80" y1="30" x2="-60" y2="30" />
      <text id="6" x="-56" y="34" transform="rotate(0,-56,34)" style="font-family:arial;font-weight:normal;font-size:9px;text-anchor:start;">PGOOD</text>
      <line fill="none" stroke="#000000" stroke-width="2" stroke-linecap="round" stroke-linejoin="round" x1="-80" y1="-30" x2="-60" y2="-30" />
      <text id="7" x="-56" y="-26" transform="rotate(0,-56,-26)" style="font-family:arial;font-weight:normal;font-size:9px;text-anchor:start;">EN</text>
      <line fill="none" stroke="#000000" stroke-width="2" stroke-linecap="round" stroke-linejoin="round" x1="80" y1="-20" x2="60" y2="-20" />
      <text id="8" x="56" y="-16" transform="rotate(0,56,-16)" style="font-family:arial;font-weight:normal;font-size:9px;text-anchor:end;">VOUT_FB</text>
      <line fill="none" stroke="#000000" stroke-width="2" stroke-linecap="round" stroke-linejoin="round" x1="-80" y1="0" x2="-60" y2="0" />
      <text id="9" x="-56" y="4" transform="rotate(0,-56,4)" style="font-family:arial;font-weight:normal;font-size:9px;text-anchor:start;">HYS</text>
      <line fill="none" stroke="#000000" stroke-width="2" stroke-linecap="round" stroke-linejoin="round" x1="80" y1="40" x2="60" y2="40" />
      <text id="10" x="56" y="44" transform="rotate(0,56,44)" style="font-family:arial;font-weight:normal;font-size:9px;text-anchor:end;">GND</text>
      <line fill="none" stroke="#000000" stroke-width="2" stroke-linecap="round" stroke-linejoin="round" x1="80" y1="50" x2="60" y2="50" />
      <text id="11" x="56" y="54" transform="rotate(0,56,54)" style="font-family:arial;font-weight:normal;font-size:9px;text-anchor:end;">PAD</text>
    </g>
    <g id="WB_VOLTAGE_PROBE">
      <circle xmlns="" opacity="0.01" fill="#ffffff" stroke="#000000" stroke-width="0" cx="0" cy="0" r="14" />
      <rect stroke-width="1" width="20" stroke="#CC0000" x="-10" height="19.5" y="-30" fill="#CC0000" fill-opacity="0.01" />
      <polyline stroke="#CC0000" points="7,-27 4,-22 3,-26 0,-18 -1,-22 -5,-14  " stroke-linejoin="round" fill="none" stroke-width="2" stroke-linecap="round" />
      <line y1="0" x2="0" stroke="#CC0000" x1="0" fill="none" stroke-width="2" y2="-10" />
    </g>
    <g id="WB_PRIMITIVE_CAPACITOR">
      <circle xmlns="" opacity="0.01" fill="#ffffff" stroke="#000000" stroke-width="0" cx="0" cy="0" r="14" />
      <line y1="0" x2="20" stroke="#CC0000" x1="30" fill="none" stroke-width="2" y2="0" />
      <line y1="0" x2="-20" stroke="#CC0000" x1="-30" fill="none" stroke-width="2" y2="0" />
      <polyline stroke="#CC0000" points="3,12 3,-12  " stroke-linejoin="round" fill="none" stroke-width="2" stroke-linecap="round" />
      <polyline stroke="#CC0000" points="-20,0 -3,0  " stroke-linejoin="round" fill="none" stroke-width="2" stroke-linecap="round" />
      <polyline stroke="#CC0000" points="3,0 20,0  " stroke-linejoin="round" fill="none" stroke-width="2" stroke-linecap="round" />
      <polyline stroke="#CC0000" points="-3,12 -3,-12  " stroke-linejoin="round" fill="none" stroke-width="2" stroke-linecap="round" />
    </g>
    <g id="WB_PRIMITIVE_BATTERY">
      <circle xmlns="" opacity="0.01" fill="#ffffff" stroke="#000000" stroke-width="0" cx="0" cy="0" r="14" />
      <line fill="none" stroke="#CC0000" stroke-width="2" x1="-8" y1="0" x2="-30" y2="0" />
      <line fill="none" stroke="#CC0000" stroke-width="2" x1="-7" y1="12" x2="-7" y2="-12" />
      <line fill="none" stroke="#CC0000" stroke-width="2" x1="4" y1="12" x2="4" y2="-12" />
      <line fill="none" stroke="#CC0000" stroke-width="2" x1="30" y1="0" x2="11" y2="0" />
      <line fill="none" stroke="#CC0000" stroke-width="2" x1="-2" y1="5" x2="-2" y2="-5" />
      <line fill="none" stroke="#CC0000" stroke-width="2" x1="-1" y1="5" x2="-1" y2="-5" />
      <line fill="none" stroke="#CC0000" stroke-width="2" x1="-14" y1="-9" x2="-14" y2="-15" />
      <line fill="none" stroke="#CC0000" stroke-width="2" x1="-11" y1="-12" x2="-17" y2="-12" />
      <line fill="none" stroke="#CC0000" stroke-width="2" x1="13" y1="-10" x2="13" y2="-15" />
      <line fill="none" stroke="#CC0000" stroke-width="2" x1="10" y1="5" x2="10" y2="-5" />
      <line fill="none" stroke="#CC0000" stroke-width="2" x1="9" y1="5" x2="9" y2="-5" />
    </g>
    <g id="WB_BATTERY">
      <circle xmlns="" opacity="0.01" fill="#ffffff" stroke="#000000" stroke-width="0" cx="0" cy="0" r="14" />
      <line fill="none" stroke="#CC0000" stroke-width="2" x1="-8" y1="0" x2="-30" y2="0" />
      <line fill="none" stroke="#CC0000" stroke-width="2" x1="-7" y1="12" x2="-7" y2="-12" />
      <line fill="none" stroke="#CC0000" stroke-width="2" x1="4" y1="12" x2="4" y2="-12" />
      <line fill="none" stroke="#CC0000" stroke-width="2" x1="30" y1="0" x2="11" y2="0" />
      <line fill="none" stroke="#CC0000" stroke-width="2" x1="-2" y1="5" x2="-2" y2="-5" />
      <line fill="none" stroke="#CC0000" stroke-width="2" x1="-1" y1="5" x2="-1" y2="-5" />
      <line fill="none" stroke="#CC0000" stroke-width="2" x1="-14" y1="-9" x2="-14" y2="-15" />
      <line fill="none" stroke="#CC0000" stroke-width="2" x1="-11" y1="-12" x2="-17" y2="-12" />
      <line fill="none" stroke="#CC0000" stroke-width="2" x1="13" y1="-10" x2="13" y2="-15" />
      <line fill="none" stroke="#CC0000" stroke-width="2" x1="10" y1="5" x2="10" y2="-5" />
      <line fill="none" stroke="#CC0000" stroke-width="2" x1="9" y1="5" x2="9" y2="-5" />
    </g>
  </defs>
  <use id="Cin" class="comp" xlink:href="#WB_CAPACITOR" x="190.0" y="200.0" transform="rotate(-90, 190.0, 200.0)" cap="2.2uF" partNo="CGA4J3X7R1H225K125AB" thermalId="0805" esr="3.288mOhm" manufacturer="TDK" />
  <text for="Cin" x="205.0" y="200.0" style="font-family:arial;font-size:13px;stroke-width:0.5;stroke:#115566;fill:#115566;">Cin</text>
  <text for="Cin" x="205.0" y="210.0" style="font-family:arial;font-size:10px;stroke-width:0.1;stroke:#CC0000;fill:#CC0000;">2.2uF</text>
  <text for="Cin" x="205.0" y="220.0" style="font-family:arial;font-size:10px;stroke-width:0.1;stroke:#CC0000;fill:#CC0000;">3.288mOhm</text>
  <use id="Cout" class="comp" xlink:href="#WB_CAPACITOR" x="1180.0" y="370.0" transform="rotate(-90, 1180.0, 370.0)" cap="47uF" partNo="GRM31CR61A476KE15L" thermalId="1206_190" esr="3.709mOhm" manufacturer="MuRata" />
  <text for="Cout" x="1195.0" y="370.0" style="font-family:arial;font-size:13px;stroke-width:0.5;stroke:#115566;fill:#115566;">Cout</text>
  <text for="Cout" x="1195.0" y="380.0" style="font-family:arial;font-size:10px;stroke-width:0.1;stroke:#CC0000;fill:#CC0000;">47uF</text>
  <text for="Cout" x="1195.0" y="390.0" style="font-family:arial;font-size:10px;stroke-width:0.1;stroke:#CC0000;fill:#CC0000;">3.709mOhm</text>
  <text for="Cout" x="1195.0" y="400.0" style="font-family:arial;font-size:10px;stroke-width:0.1;stroke:#CC0000;fill:#CC0000;">Qty=3</text>
  <use id="Css" class="comp" xlink:href="#WB_CAPACITOR" x="815.0" y="335.0" transform="rotate(-90, 815.0, 335.0)" cap="27nF" partNo="GRM155R71E273KA88D" thermalId="0402" esr="1mOhm" manufacturer="MuRata" />
  <text for="Css" x="830.0" y="335.0" style="font-family:arial;font-size:13px;stroke-width:0.5;stroke:#115566;fill:#115566;">Css</text>
  <text for="Css" x="830.0" y="345.0" style="font-family:arial;font-size:10px;stroke-width:0.1;stroke:#CC0000;fill:#CC0000;">27nF</text>
  <text for="Css" x="830.0" y="355.0" style="font-family:arial;font-size:10px;stroke-width:0.1;stroke:#CC0000;fill:#CC0000;">1mOhm</text>
  <use id="GND" class="other" xlink:href="#WB_GND" x="695.0" y="465.0" />
  <use id="GND2" class="other" xlink:href="#WB_GND" x="190.0" y="285.0" />
  <use id="L1" class="comp" xlink:href="#WB_INDUCTOR" x="775.0" y="110.0" partNo="CLF7045T-150M" thermalId="CLF7045" l="15uH" dcr="60mOhm" manufacturer="TDK" />
  <text for="L1" x="755.0" y="95.0" style="font-family:arial;font-size:13px;stroke-width:0.5;stroke:#115566;fill:#115566;">L1</text>
  <text for="L1" x="755.0" y="130.0" style="font-family:arial;font-size:10px;stroke-width:0.1;stroke:#CC0000;fill:#CC0000;">15uH</text>
  <text for="L1" x="755.0" y="140.0" style="font-family:arial;font-size:10px;stroke-width:0.1;stroke:#CC0000;fill:#CC0000;">60mOhm</text>
  <use id="U1" class="comp" xlink:href="#WB_LM5166DRC" x="550.0" y="235.0" />
  <text for="U1" x="530.0" y="235.0" style="font-family:arial;font-size:13px;stroke-width:0.5;stroke:#115566;fill:#115566;">U1</text>
  <use id="GND1" class="other" xlink:href="#WB_GND" x="1055.0" y="345.0" />
  <use id="Rfbb" class="comp" xlink:href="#WB_RESISTOR" x="1055.0" y="285.0" transform="rotate(-90, 1055.0, 285.0)" partNo="CRCW0402124KFKED" thermalId="0402" resistance="124kOhm" manufacturer="Vishay-Dale" />
  <text for="Rfbb" x="1070.0" y="285.0" style="font-family:arial;font-size:13px;stroke-width:0.5;stroke:#115566;fill:#115566;">Rfbb</text>
  <text for="Rfbb" x="1070.0" y="295.0" style="font-family:arial;font-size:10px;stroke-width:0.1;stroke:#CC0000;fill:#CC0000;">124kOhm</text>
  <use id="Rfbt" class="comp" xlink:href="#WB_RESISTOR" x="1055.0" y="225.0" transform="rotate(-90, 1055.0, 225.0)" partNo="CRCW0402383KFKED" thermalId="0402" resistance="383kOhm" manufacturer="Vishay-Dale" />
  <text for="Rfbt" x="1070.0" y="225.0" style="font-family:arial;font-size:13px;stroke-width:0.5;stroke:#115566;fill:#115566;">Rfbt</text>
  <text for="Rfbt" x="1070.0" y="235.0" style="font-family:arial;font-size:10px;stroke-width:0.1;stroke:#CC0000;fill:#CC0000;">383kOhm</text>
  <use id="Iout" class="other" xlink:href="#WB_CURRENT_LOAD" x="1275.0" y="375.0" transform="rotate(-270, 1275.0, 375.0)" />
  <text for="Iout" x="1290.0" y="375.0" style="font-family:arial;font-size:13px;stroke-width:0.5;stroke:#CC0000;fill:#CC0000;">Iout</text>
  <use id="Vin" class="other" xlink:href="#WB_BATTERY" x="100.0" y="205.0" transform="rotate(-270, 100.0, 205.0)" />
  <text for="Vin" x="115.0" y="205.0" style="font-family:arial;font-size:13px;stroke-width:0.5;stroke:#CC0000;fill:#CC0000;">Vin</text>
  <line x1="1180.0" y1="335.0" x2="1180.0" y2="185.0" stroke="#000000" stroke-width="2" fill="none" />
  <line x1="470.0" y1="455.0" x2="470.0" y2="285.0" stroke="#000000" stroke-width="2" fill="none" />
  <line x1="415.0" y1="205.0" x2="470.0" y2="205.0" stroke="#000000" stroke-width="2" fill="none" />
  <line x1="1055.0" y1="315.0" x2="1055.0" y2="335.0" stroke="#000000" stroke-width="2" fill="none" />
  <line x1="1055.0" y1="255.0" x2="920.0" y2="255.0" stroke="#000000" stroke-width="2" fill="none" />
  <line x1="920.0" y1="255.0" x2="920.0" y2="215.0" stroke="#000000" stroke-width="2" fill="none" />
  <line x1="425.0" y1="235.0" x2="470.0" y2="235.0" stroke="#000000" stroke-width="2" fill="none" />
  <line x1="425.0" y1="455.0" x2="425.0" y2="235.0" stroke="#000000" stroke-width="2" fill="none" />
  <line x1="145.0" y1="345.0" x2="145.0" y2="455.0" stroke="#000000" stroke-width="2" fill="none" />
  <line x1="190.0" y1="275.0" x2="190.0" y2="230.0" stroke="#000000" stroke-width="2" fill="none" />
  <line x1="190.0" y1="170.0" x2="190.0" y2="125.0" stroke="#000000" stroke-width="2" fill="none" />
  <line x1="415.0" y1="185.0" x2="470.0" y2="185.0" stroke="#000000" stroke-width="2" fill="none" />
  <line x1="415.0" y1="125.0" x2="415.0" y2="205.0" stroke="#000000" stroke-width="2" fill="none" />
  <line x1="440.0" y1="265.0" x2="475.0" y2="265.0" stroke="#000000" stroke-width="2" fill="none" />
  <line x1="630.0" y1="285.0" x2="645.0" y2="285.0" stroke="#000000" stroke-width="2" fill="none" />
  <line x1="630.0" y1="275.0" x2="645.0" y2="275.0" stroke="#000000" stroke-width="2" fill="none" />
  <line x1="630.0" y1="255.0" x2="730.0" y2="255.0" stroke="#000000" stroke-width="2" fill="none" />
  <line x1="630.0" y1="235.0" x2="815.0" y2="235.0" stroke="#000000" stroke-width="2" fill="none" />
  <line x1="630.0" y1="215.0" x2="920.0" y2="215.0" stroke="#000000" stroke-width="2" fill="none" />
  <line x1="630.0" y1="185.0" x2="630.0" y2="110.0" stroke="#000000" stroke-width="2" fill="none" />
  <line x1="630.0" y1="110.0" x2="745.0" y2="110.0" stroke="#000000" stroke-width="2" fill="none" />
  <line x1="645.0" y1="275.0" x2="645.0" y2="455.0" stroke="#000000" stroke-width="2" fill="none" />
  <line x1="730.0" y1="455.0" x2="730.0" y2="255.0" stroke="#000000" stroke-width="2" fill="none" />
  <line x1="815.0" y1="365.0" x2="815.0" y2="455.0" stroke="#000000" stroke-width="2" fill="none" />
  <line x1="815.0" y1="235.0" x2="815.0" y2="305.0" stroke="#000000" stroke-width="2" fill="none" />
  <line x1="1055.0" y1="110.0" x2="1055.0" y2="195.0" stroke="#000000" stroke-width="2" fill="none" />
  <line x1="1180.0" y1="400.0" x2="1180.0" y2="455.0" stroke="#000000" stroke-width="2" fill="none" />
  <line x1="1055.0" y1="185.0" x2="1275.0" y2="185.0" stroke="#000000" stroke-width="2" fill="none" />
  <line x1="100.0" y1="125.0" x2="415.0" y2="125.0" stroke="#000000" stroke-width="2" fill="none" />
  <line x1="145.0" y1="455.0" x2="1275.0" y2="455.0" stroke="#000000" stroke-width="2" fill="none" />
  <line x1="100.0" y1="345.0" x2="145.0" y2="345.0" stroke="#000000" stroke-width="2" fill="none" />
  <line x1="805.0" y1="110.0" x2="1055.0" y2="110.0" stroke="#000000" stroke-width="2" fill="none" />
  <line x1="1275.0" y1="345.0" x2="1275.0" y2="185.0" stroke="#000000" stroke-width="2" fill="none" />
  <line x1="1275.0" y1="455.0" x2="1275.0" y2="405.0" stroke="#000000" stroke-width="2" fill="none" />
  <line x1="100.0" y1="175.0" x2="100.0" y2="125.0" stroke="#000000" stroke-width="2" fill="none" />
  <line x1="100.0" y1="345.0" x2="100.0" y2="235.0" stroke="#000000" stroke-width="2" fill="none" />
  <circle cx="415.0" cy="185.0" r="5" stroke="#000000" stroke-width="0" fill="#000000" />
  <circle cx="645.0" cy="285.0" r="5" stroke="#000000" stroke-width="0" fill="#000000" />
  <circle cx="1055.0" cy="185.0" r="5" stroke="#000000" stroke-width="0" fill="#000000" />
  <circle cx="1180.0" cy="185.0" r="5" stroke="#000000" stroke-width="0" fill="#000000" />
  <circle cx="190.0" cy="125.0" r="5" stroke="#000000" stroke-width="0" fill="#000000" />
  <circle cx="470.0" cy="455.0" r="5" stroke="#000000" stroke-width="0" fill="#000000" />
  <circle cx="425.0" cy="455.0" r="5" stroke="#000000" stroke-width="0" fill="#000000" />
  <circle cx="645.0" cy="455.0" r="5" stroke="#000000" stroke-width="0" fill="#000000" />
  <circle cx="730.0" cy="455.0" r="5" stroke="#000000" stroke-width="0" fill="#000000" />
  <circle cx="815.0" cy="455.0" r="5" stroke="#000000" stroke-width="0" fill="#000000" />
  <circle cx="1180.0" cy="455.0" r="5" stroke="#000000" stroke-width="0" fill="#000000" />
  <circle cx="695.0" cy="455.0" r="5" stroke="#000000" stroke-width="0" fill="#000000" />
</svg>

